<?xml version="1.0" encoding="UTF-8" standalone="no"?>
<!-- Created with Inkscape (http://www.inkscape.org/) -->

<svg
   xmlns:dc="http://purl.org/dc/elements/1.1/"
   xmlns:cc="http://creativecommons.org/ns#"
   xmlns:rdf="http://www.w3.org/1999/02/22-rdf-syntax-ns#"
   xmlns:svg="http://www.w3.org/2000/svg"
   xmlns="http://www.w3.org/2000/svg"
   xmlns:xlink="http://www.w3.org/1999/xlink"
   xmlns:sodipodi="http://sodipodi.sourceforge.net/DTD/sodipodi-0.dtd"
   xmlns:inkscape="http://www.inkscape.org/namespaces/inkscape"
   width="133.09802mm"
   height="133.0965mm"
   viewBox="0 0 133.09802 133.09649"
   version="1.1"
   id="svg8"
   sodipodi:docname="Area-21.svg"
   inkscape:version="0.92.4 (5da689c313, 2019-01-14)">
  <defs
     id="defs2">
    <clipPath
       id="t">
      <path
         inkscape:connector-curvature="0"
         d="m 30,15 h 30 v 15 z m 0,0 V 30 H 0 Z m 0,0 H 0 V 0 Z m 0,0 V 0 h 30 z"
         id="path5" />
    </clipPath>
    <clipPath
       id="XMLID_26_">
      <use
         height="100%"
         width="100%"
         y="0"
         x="0"
         xlink:href="#XMLID_16_"
         id="use13" />
    </clipPath>
    <clipPath
       id="XMLID_27_">
      <use
         height="100%"
         width="100%"
         y="0"
         x="0"
         xlink:href="#XMLID_18_"
         id="use19" />
    </clipPath>
    <clipPath
       id="XMLID_28_">
      <use
         height="100%"
         width="100%"
         y="0"
         x="0"
         xlink:href="#XMLID_20_"
         id="use25" />
    </clipPath>
    <clipPath
       id="clipPath4727">
      <use
         height="100%"
         width="100%"
         y="0"
         x="0"
         xlink:href="#XMLID_20_"
         id="use4725" />
    </clipPath>
    <clipPath
       id="clipPath4731">
      <use
         height="100%"
         width="100%"
         y="0"
         x="0"
         xlink:href="#XMLID_20_"
         id="use4729" />
    </clipPath>
    <clipPath
       id="clipPath4735">
      <use
         height="100%"
         width="100%"
         y="0"
         x="0"
         xlink:href="#XMLID_20_"
         id="use4733" />
    </clipPath>
    <clipPath
       id="clipPath4739">
      <use
         height="100%"
         width="100%"
         y="0"
         x="0"
         xlink:href="#XMLID_20_"
         id="use4737" />
    </clipPath>
    <clipPath
       id="clipPath4743">
      <use
         height="100%"
         width="100%"
         y="0"
         x="0"
         xlink:href="#XMLID_20_"
         id="use4741" />
    </clipPath>
    <clipPath
       id="clipPath4747">
      <use
         height="100%"
         width="100%"
         y="0"
         x="0"
         xlink:href="#XMLID_20_"
         id="use4745" />
    </clipPath>
    <clipPath
       id="clipPath4751">
      <use
         height="100%"
         width="100%"
         y="0"
         x="0"
         xlink:href="#XMLID_20_"
         id="use4749" />
    </clipPath>
    <clipPath
       id="clipPath4755">
      <use
         height="100%"
         width="100%"
         y="0"
         x="0"
         xlink:href="#XMLID_20_"
         id="use4753" />
    </clipPath>
    <clipPath
       id="clipPath4759">
      <use
         height="100%"
         width="100%"
         y="0"
         x="0"
         xlink:href="#XMLID_20_"
         id="use4757" />
    </clipPath>
    <clipPath
       id="clipPath4763">
      <use
         height="100%"
         width="100%"
         y="0"
         x="0"
         xlink:href="#XMLID_20_"
         id="use4761" />
    </clipPath>
    <clipPath
       id="clipPath4767">
      <use
         height="100%"
         width="100%"
         y="0"
         x="0"
         xlink:href="#XMLID_20_"
         id="use4765" />
    </clipPath>
    <clipPath
       id="clipPath4771">
      <use
         height="100%"
         width="100%"
         y="0"
         x="0"
         xlink:href="#XMLID_20_"
         id="use4769" />
    </clipPath>
    <clipPath
       id="clipPath4775">
      <use
         height="100%"
         width="100%"
         y="0"
         x="0"
         xlink:href="#XMLID_20_"
         id="use4773" />
    </clipPath>
    <clipPath
       id="clipPath4779">
      <use
         height="100%"
         width="100%"
         y="0"
         x="0"
         xlink:href="#XMLID_20_"
         id="use4777" />
    </clipPath>
    <clipPath
       id="clipPath4783">
      <use
         height="100%"
         width="100%"
         y="0"
         x="0"
         xlink:href="#XMLID_20_"
         id="use4781" />
    </clipPath>
    <clipPath
       id="clipPath4787">
      <use
         height="100%"
         width="100%"
         y="0"
         x="0"
         xlink:href="#XMLID_20_"
         id="use4785" />
    </clipPath>
    <clipPath
       id="clipPath4791">
      <use
         height="100%"
         width="100%"
         y="0"
         x="0"
         xlink:href="#XMLID_20_"
         id="use4789" />
    </clipPath>
    <clipPath
       id="clipPath4795">
      <use
         height="100%"
         width="100%"
         y="0"
         x="0"
         xlink:href="#XMLID_20_"
         id="use4793" />
    </clipPath>
    <clipPath
       id="clipPath4799">
      <use
         height="100%"
         width="100%"
         y="0"
         x="0"
         xlink:href="#XMLID_20_"
         id="use4797" />
    </clipPath>
    <clipPath
       id="XMLID_29_">
      <use
         height="100%"
         width="100%"
         y="0"
         x="0"
         xlink:href="#XMLID_22_"
         id="use69" />
    </clipPath>
    <clipPath
       id="clipPath4805">
      <use
         height="100%"
         width="100%"
         y="0"
         x="0"
         xlink:href="#XMLID_22_"
         id="use4803" />
    </clipPath>
    <clipPath
       id="clipPath4809">
      <use
         height="100%"
         width="100%"
         y="0"
         x="0"
         xlink:href="#XMLID_22_"
         id="use4807" />
    </clipPath>
    <clipPath
       id="clipPath4813">
      <use
         height="100%"
         width="100%"
         y="0"
         x="0"
         xlink:href="#XMLID_22_"
         id="use4811" />
    </clipPath>
    <clipPath
       id="clipPath4817">
      <use
         height="100%"
         width="100%"
         y="0"
         x="0"
         xlink:href="#XMLID_22_"
         id="use4815" />
    </clipPath>
    <clipPath
       id="clipPath4821">
      <use
         height="100%"
         width="100%"
         y="0"
         x="0"
         xlink:href="#XMLID_22_"
         id="use4819" />
    </clipPath>
    <clipPath
       id="clipPath4825">
      <use
         height="100%"
         width="100%"
         y="0"
         x="0"
         xlink:href="#XMLID_22_"
         id="use4823" />
    </clipPath>
    <clipPath
       id="clipPath4829">
      <use
         height="100%"
         width="100%"
         y="0"
         x="0"
         xlink:href="#XMLID_20_"
         id="use4827" />
    </clipPath>
    <clipPath
       id="clipPath4833">
      <use
         height="100%"
         width="100%"
         y="0"
         x="0"
         xlink:href="#XMLID_20_"
         id="use4831" />
    </clipPath>
    <clipPath
       id="clipPath4837">
      <use
         height="100%"
         width="100%"
         y="0"
         x="0"
         xlink:href="#XMLID_20_"
         id="use4835" />
    </clipPath>
    <clipPath
       id="clipPath4841">
      <use
         height="100%"
         width="100%"
         y="0"
         x="0"
         xlink:href="#XMLID_20_"
         id="use4839" />
    </clipPath>
    <clipPath
       id="clipPath4845">
      <use
         height="100%"
         width="100%"
         y="0"
         x="0"
         xlink:href="#XMLID_20_"
         id="use4843" />
    </clipPath>
    <clipPath
       id="clipPath4849">
      <use
         height="100%"
         width="100%"
         y="0"
         x="0"
         xlink:href="#XMLID_20_"
         id="use4847" />
    </clipPath>
    <clipPath
       id="clipPath4853">
      <use
         height="100%"
         width="100%"
         y="0"
         x="0"
         xlink:href="#XMLID_20_"
         id="use4851" />
    </clipPath>
    <clipPath
       id="clipPath4857">
      <use
         height="100%"
         width="100%"
         y="0"
         x="0"
         xlink:href="#XMLID_20_"
         id="use4855" />
    </clipPath>
    <clipPath
       id="clipPath4861">
      <use
         height="100%"
         width="100%"
         y="0"
         x="0"
         xlink:href="#XMLID_20_"
         id="use4859" />
    </clipPath>
    <clipPath
       id="clipPath4865">
      <use
         height="100%"
         width="100%"
         y="0"
         x="0"
         xlink:href="#XMLID_20_"
         id="use4863" />
    </clipPath>
    <clipPath
       id="clipPath4869">
      <use
         height="100%"
         width="100%"
         y="0"
         x="0"
         xlink:href="#XMLID_20_"
         id="use4867" />
    </clipPath>
    <clipPath
       id="clipPath4873">
      <use
         height="100%"
         width="100%"
         y="0"
         x="0"
         xlink:href="#XMLID_20_"
         id="use4871" />
    </clipPath>
    <clipPath
       id="clipPath4877">
      <use
         height="100%"
         width="100%"
         y="0"
         x="0"
         xlink:href="#XMLID_20_"
         id="use4875" />
    </clipPath>
    <clipPath
       id="clipPath4881">
      <use
         height="100%"
         width="100%"
         y="0"
         x="0"
         xlink:href="#XMLID_20_"
         id="use4879" />
    </clipPath>
    <clipPath
       id="clipPath4885">
      <use
         height="100%"
         width="100%"
         y="0"
         x="0"
         xlink:href="#XMLID_20_"
         id="use4883" />
    </clipPath>
    <clipPath
       id="clipPath4889">
      <use
         height="100%"
         width="100%"
         y="0"
         x="0"
         xlink:href="#XMLID_20_"
         id="use4887" />
    </clipPath>
    <clipPath
       id="clipPath4893">
      <use
         height="100%"
         width="100%"
         y="0"
         x="0"
         xlink:href="#XMLID_20_"
         id="use4891" />
    </clipPath>
    <clipPath
       id="clipPath4897">
      <use
         height="100%"
         width="100%"
         y="0"
         x="0"
         xlink:href="#XMLID_20_"
         id="use4895" />
    </clipPath>
    <clipPath
       id="clipPath4901">
      <use
         height="100%"
         width="100%"
         y="0"
         x="0"
         xlink:href="#XMLID_20_"
         id="use4899" />
    </clipPath>
    <clipPath
       id="clipPath4905">
      <use
         height="100%"
         width="100%"
         y="0"
         x="0"
         xlink:href="#XMLID_20_"
         id="use4903" />
    </clipPath>
    <clipPath
       id="clipPath4909">
      <use
         height="100%"
         width="100%"
         y="0"
         x="0"
         xlink:href="#XMLID_20_"
         id="use4907" />
    </clipPath>
    <clipPath
       id="clipPath4913">
      <use
         height="100%"
         width="100%"
         y="0"
         x="0"
         xlink:href="#XMLID_20_"
         id="use4911" />
    </clipPath>
    <clipPath
       id="clipPath4917">
      <use
         height="100%"
         width="100%"
         y="0"
         x="0"
         xlink:href="#XMLID_20_"
         id="use4915" />
    </clipPath>
    <clipPath
       id="clipPath4921">
      <use
         height="100%"
         width="100%"
         y="0"
         x="0"
         xlink:href="#XMLID_20_"
         id="use4919" />
    </clipPath>
    <clipPath
       id="clipPath4925">
      <use
         height="100%"
         width="100%"
         y="0"
         x="0"
         xlink:href="#XMLID_20_"
         id="use4923" />
    </clipPath>
    <clipPath
       id="clipPath4929">
      <use
         height="100%"
         width="100%"
         y="0"
         x="0"
         xlink:href="#XMLID_20_"
         id="use4927" />
    </clipPath>
    <clipPath
       id="clipPath4933">
      <use
         height="100%"
         width="100%"
         y="0"
         x="0"
         xlink:href="#XMLID_20_"
         id="use4931" />
    </clipPath>
    <clipPath
       id="clipPath4937">
      <use
         height="100%"
         width="100%"
         y="0"
         x="0"
         xlink:href="#XMLID_20_"
         id="use4935" />
    </clipPath>
    <clipPath
       id="clipPath4941">
      <use
         height="100%"
         width="100%"
         y="0"
         x="0"
         xlink:href="#XMLID_20_"
         id="use4939" />
    </clipPath>
    <clipPath
       id="clipPath4945">
      <use
         height="100%"
         width="100%"
         y="0"
         x="0"
         xlink:href="#XMLID_20_"
         id="use4943" />
    </clipPath>
    <clipPath
       id="clipPath4949">
      <use
         height="100%"
         width="100%"
         y="0"
         x="0"
         xlink:href="#XMLID_20_"
         id="use4947" />
    </clipPath>
    <clipPath
       id="clipPath4953">
      <use
         height="100%"
         width="100%"
         y="0"
         x="0"
         xlink:href="#XMLID_20_"
         id="use4951" />
    </clipPath>
    <clipPath
       id="clipPath4957">
      <use
         height="100%"
         width="100%"
         y="0"
         x="0"
         xlink:href="#XMLID_20_"
         id="use4955" />
    </clipPath>
    <clipPath
       id="clipPath4961">
      <use
         height="100%"
         width="100%"
         y="0"
         x="0"
         xlink:href="#XMLID_20_"
         id="use4959" />
    </clipPath>
    <clipPath
       id="clipPath4965">
      <use
         height="100%"
         width="100%"
         y="0"
         x="0"
         xlink:href="#XMLID_20_"
         id="use4963" />
    </clipPath>
    <clipPath
       id="clipPath4969">
      <use
         height="100%"
         width="100%"
         y="0"
         x="0"
         xlink:href="#XMLID_20_"
         id="use4967" />
    </clipPath>
    <clipPath
       id="clipPath4973">
      <use
         height="100%"
         width="100%"
         y="0"
         x="0"
         xlink:href="#XMLID_20_"
         id="use4971" />
    </clipPath>
    <clipPath
       id="clipPath4977">
      <use
         height="100%"
         width="100%"
         y="0"
         x="0"
         xlink:href="#XMLID_20_"
         id="use4975" />
    </clipPath>
    <clipPath
       id="clipPath4981">
      <use
         height="100%"
         width="100%"
         y="0"
         x="0"
         xlink:href="#XMLID_20_"
         id="use4979" />
    </clipPath>
    <clipPath
       id="XMLID_30_">
      <use
         height="100%"
         width="100%"
         y="0"
         x="0"
         xlink:href="#XMLID_24_"
         id="use167" />
    </clipPath>
    <rect
       id="XMLID_16_"
       x="85.519997"
       y="43.327999"
       width="38.080002"
       height="39.257999" />
    <path
       inkscape:connector-curvature="0"
       id="XMLID_18_"
       d="m 84.927,43.328 h 39.27 V 82.59 h -39.27 z" />
    <rect
       id="XMLID_20_"
       x="84.927002"
       y="43.327999"
       width="39.27"
       height="39.262001" />
    <rect
       id="XMLID_22_"
       x="85.536003"
       y="43.337002"
       width="38.084999"
       height="39.263" />
    <path
       inkscape:connector-curvature="0"
       id="XMLID_24_"
       d="m 84.927,43.337 h 39.265 V 82.6 H 84.927 Z" />
    <defs
       id="defs11">
      <rect
         height="39.257999"
         width="38.080002"
         y="43.327999"
         x="85.519997"
         id="rect1757" />
    </defs>
    <clipPath
       id="clipPath4994">
      <use
         id="use4992"
         xlink:href="#XMLID_16_"
         x="0"
         y="0"
         width="100%"
         height="100%" />
    </clipPath>
    <defs
       id="defs17">
      <path
         inkscape:connector-curvature="0"
         id="path1762"
         d="m 84.927,43.328 h 39.27 V 82.59 h -39.27 z" />
    </defs>
    <clipPath
       id="clipPath5000">
      <use
         height="100%"
         width="100%"
         y="0"
         x="0"
         xlink:href="#XMLID_18_"
         id="use4998" />
    </clipPath>
    <defs
       id="defs23">
      <rect
         height="39.262001"
         width="39.27"
         y="43.327999"
         x="84.927002"
         id="rect1767" />
    </defs>
    <clipPath
       id="clipPath5006">
      <use
         id="use5004"
         xlink:href="#XMLID_20_"
         x="0"
         y="0"
         width="100%"
         height="100%" />
    </clipPath>
    <defs
       id="defs165">
      <path
         inkscape:connector-curvature="0"
         id="path1842"
         d="m 84.927,43.337 h 39.265 V 82.6 H 84.927 Z" />
    </defs>
    <clipPath
       id="clipPath5083">
      <use
         height="100%"
         width="100%"
         y="0"
         x="0"
         xlink:href="#XMLID_24_"
         id="use5081" />
    </clipPath>
    <defs
       id="defs67">
      <rect
         id="rect1791"
         x="85.536003"
         y="43.337002"
         width="38.084999"
         height="39.263" />
    </defs>
    <clipPath
       id="clipPath5031">
      <use
         height="100%"
         width="100%"
         y="0"
         x="0"
         xlink:href="#XMLID_22_"
         id="use5029" />
    </clipPath>
    <clipPath
       id="XMLID_28_-1">
      <use
         height="100%"
         width="100%"
         y="0"
         x="0"
         xlink:href="#XMLID_20_"
         id="use25-0" />
    </clipPath>
    <clipPath
       id="XMLID_29_-1">
      <use
         height="100%"
         width="100%"
         y="0"
         x="0"
         xlink:href="#XMLID_22_"
         id="use69-8" />
    </clipPath>
    <clipPath
       id="clipPath1635">
      <use
         height="100%"
         width="100%"
         y="0"
         x="0"
         xlink:href="#XMLID_22_"
         id="use1633" />
    </clipPath>
    <clipPath
       id="clipPath1639">
      <use
         height="100%"
         width="100%"
         y="0"
         x="0"
         xlink:href="#XMLID_22_"
         id="use1637" />
    </clipPath>
    <clipPath
       id="clipPath1643">
      <use
         height="100%"
         width="100%"
         y="0"
         x="0"
         xlink:href="#XMLID_22_"
         id="use1641" />
    </clipPath>
    <clipPath
       id="clipPath1647">
      <use
         height="100%"
         width="100%"
         y="0"
         x="0"
         xlink:href="#XMLID_22_"
         id="use1645" />
    </clipPath>
    <clipPath
       id="clipPath1651">
      <use
         height="100%"
         width="100%"
         y="0"
         x="0"
         xlink:href="#XMLID_22_"
         id="use1649" />
    </clipPath>
    <clipPath
       id="clipPath1655">
      <use
         height="100%"
         width="100%"
         y="0"
         x="0"
         xlink:href="#XMLID_22_"
         id="use1653" />
    </clipPath>
    <clipPath
       id="clipPath1659">
      <use
         height="100%"
         width="100%"
         y="0"
         x="0"
         xlink:href="#XMLID_20_"
         id="use1657" />
    </clipPath>
    <clipPath
       id="clipPath1663">
      <use
         height="100%"
         width="100%"
         y="0"
         x="0"
         xlink:href="#XMLID_20_"
         id="use1661" />
    </clipPath>
    <clipPath
       id="clipPath1667">
      <use
         height="100%"
         width="100%"
         y="0"
         x="0"
         xlink:href="#XMLID_20_"
         id="use1665" />
    </clipPath>
    <clipPath
       id="clipPath1671">
      <use
         height="100%"
         width="100%"
         y="0"
         x="0"
         xlink:href="#XMLID_20_"
         id="use1669" />
    </clipPath>
    <clipPath
       id="clipPath1675">
      <use
         height="100%"
         width="100%"
         y="0"
         x="0"
         xlink:href="#XMLID_20_"
         id="use1673" />
    </clipPath>
    <clipPath
       id="clipPath1679">
      <use
         height="100%"
         width="100%"
         y="0"
         x="0"
         xlink:href="#XMLID_20_"
         id="use1677" />
    </clipPath>
    <clipPath
       id="clipPath1683">
      <use
         height="100%"
         width="100%"
         y="0"
         x="0"
         xlink:href="#XMLID_20_"
         id="use1681" />
    </clipPath>
    <clipPath
       id="clipPath1687">
      <use
         height="100%"
         width="100%"
         y="0"
         x="0"
         xlink:href="#XMLID_20_"
         id="use1685" />
    </clipPath>
    <clipPath
       id="clipPath1691">
      <use
         height="100%"
         width="100%"
         y="0"
         x="0"
         xlink:href="#XMLID_20_"
         id="use1689" />
    </clipPath>
    <path
       style="opacity:0.1;fill:none;fill-opacity:1;fill-rule:nonzero;stroke:none;stroke-width:0.19498153;stroke-linecap:round;stroke-linejoin:round;stroke-miterlimit:4;stroke-dasharray:none;stroke-dashoffset:0;stroke-opacity:1;paint-order:normal"
       d="m -38.479685,712.72554 c -0.07605,-0.13561 -0.02423,-0.0115 0,0 z m 1.179452,-2.88411 c -0.09238,-0.18783 -0.07117,-0.0779 0,0 z m 2.055903,-4.35125 2.84e-4,1.8e-4 c 0.07163,-0.12967 0.187651,-0.23398 0.324432,-0.29109 0.363458,-0.57839 0.793057,-1.18773 1.292287,-1.69068 0.247021,-0.30055 0.383102,-0.74998 0.822395,-0.88319 0.03607,-0.54918 0.673068,-0.65618 0.835773,-1.13332 0.786553,-0.71428 1.579853,-1.45796 2.313706,-2.24398 0.389165,-0.2063 0.6537,-0.5224 0.980774,-0.80976 0.491608,-0.1477 0.747221,-0.67014 1.275453,-0.77447 0.31422,-0.41383 0.860087,-0.52429 1.198182,-0.91517 0.411248,-0.17927 0.75414,-0.40922 1.108411,-0.67923 0.378674,-0.0236 0.553376,-0.34066 0.850717,-0.51283 0.360271,-0.0677 0.603884,-0.25541 0.914078,-0.44336 0.399872,-0.06 0.668752,-0.31621 1.015181,-0.49313 0.423862,-10e-4 0.642152,-0.36274 1.022535,-0.46666 0.37871,0.0452 0.665761,-0.13968 1.000669,-0.29093 0.410708,0.0363 0.599787,-0.36183 0.980222,-0.42275 0.402242,0.0233 0.677779,-0.24509 1.057445,-0.30675 0.41401,0.14871 0.62366,-0.35103 1.032132,-0.30794 0.375315,0.19504 0.594059,-0.18171 0.937307,-0.24081 0.41201,0.0854 0.765155,-0.13493 1.174898,-0.14988 0.382518,0.16234 0.67483,-0.18325 1.060894,-0.15726 0.354043,0.12641 0.570469,-0.17173 0.90646,-0.19463 0.386377,0.11896 0.755125,0.0349 1.154941,0.003 0.388035,0.15302 0.711109,-0.12675 1.096787,-0.10313 0.365736,0.15395 0.64944,-0.15503 1.0160335,-0.083 0.3368911,0.20028 0.6874015,0.13326 1.0639322,0.13944 0.3728831,0.24011 0.699853,-0.13633 1.0836101,-0.018 0.3204121,0.21924 0.6753908,0.0773 1.031018,0.14117 0.3088741,0.13644 0.5659655,0.1746 0.8983122,0.08 0.4314192,0.13193 0.8764645,0.0693 1.3134542,0.19824 0.3708454,0.31093 0.914138,-0.0949 1.236481,0.33365 0.1916732,0.091 0.5508258,-0.15961 0.796542,0.0351 0.3839841,0.36356 0.9750063,0.12155 1.3453386,0.52259 0.34077041,-0.019 0.71706278,0.0698 0.97332927,0.32092 0.37757601,0.006 0.77170338,0.1047 1.05944855,0.37585 0.85968448,0.0958 1.54354638,0.72543 2.38182278,0.88186 0.3693207,0.24642 0.7464689,0.39057 1.137809,0.58327 0.2281198,0.29199 0.5180247,0.33321 0.8480781,0.41061 0.2978531,0.27922 0.6246108,0.47371 0.9894818,0.67292 0.2934436,0.43693 0.9981824,0.28748 1.1271382,0.8638 0.299288,0.16974 0.7995585,0.14409 0.8507531,0.61343 0.2826591,0.14285 0.72513,0.14006 0.8129482,0.55387 1.3242512,0.9959 2.4630842,2.19841 3.6547802,3.33397 0.198345,0.46931 0.700228,0.67176 0.89532,1.14934 0.193813,0.31879 0.638405,0.48905 0.691386,0.92517 0.271028,0.2249 0.605204,0.49004 0.670953,0.88721 0.435901,0.16396 0.438272,0.68585 0.746558,0.96126 0.336558,0.21917 0.214955,0.73166 0.527452,0.90887 0.456134,0.27897 0.349522,0.87317 0.725839,1.21841 0.06617,0.38819 0.326784,0.62527 0.528611,0.9389 0.104347,0.4459 0.362904,0.79572 0.498762,1.22821 -0.06401,0.47278 0.61293,0.60752 0.449165,1.11434 0.07399,0.25675 0.443161,0.47794 0.400676,0.82578 -0.145815,0.43181 0.463107,0.59154 0.369862,1.04367 -0.225028,0.38612 0.389472,0.5373 0.309518,0.93938 -0.151415,0.32376 0.09946,0.52806 0.203552,0.80639 -0.07175,0.42887 0.15559,0.77276 0.249913,1.17472 -0.142594,0.39414 0.157262,0.68939 0.204206,1.06112 -0.18561,0.42213 0.223421,0.72591 0.195506,1.13715 -0.200809,0.33627 0.09686,0.55752 0.106438,0.89125 -0.196665,0.41542 0.08873,0.78167 0.07531,1.20006 -0.197721,0.31415 0.09702,0.51128 0.118326,0.8198 -0.242529,0.5098 0.157171,1.09006 -0.162263,1.58515 -0.0047,0.25053 0.253789,0.58196 0.08414,0.87893 -0.310512,0.30942 0.124669,0.62982 -0.07023,0.98659 -0.271786,0.32971 0.04358,0.65857 -0.05736,1.02109 -0.199478,0.2978 -0.0605,0.60242 -0.120273,0.92977 -0.229089,0.36042 -0.09677,0.76306 -0.184586,1.15945 -0.268549,0.40228 -0.06014,0.90844 -0.339457,1.31384 0.0649,0.3581 0.08341,0.83942 -0.26353,1.11924 0.115453,0.37831 -0.07992,0.7775 -0.360396,1.03666 0.229179,0.51583 -0.326976,0.88529 -0.292055,1.36319 -0.133584,0.42748 -0.432446,0.76135 -0.544325,1.20929 -0.360688,0.39784 -0.163828,1.00008 -0.59485,1.36209 -0.142702,0.67773 -0.563107,1.26543 -0.910469,1.86273 -0.38052,0.48433 -0.547962,1.05088 -0.889114,1.55437 -0.405117,0.18615 -0.301981,0.62507 -0.56486,0.92385 -0.378225,0.18183 -0.326757,0.64018 -0.640626,0.89199 -0.394217,0.13792 -0.329588,0.57539 -0.608129,0.81932 -0.325799,0.13646 -0.407067,0.41454 -0.582934,0.69582 -0.434747,0.31001 -0.628215,0.82545 -1.07424,1.12506 -0.169983,0.31092 -0.299305,0.73424 -0.720968,0.81731 -0.301408,0.36593 -0.691044,0.67131 -0.974708,1.05806 -0.509756,0.23963 -0.782092,0.79366 -1.3137032,0.99805 -0.2968525,0.47788 -0.8844313,0.60153 -1.1924142,1.05551 -0.3892179,0.22154 -0.7368006,0.47106 -1.0977031,0.73127 -0.4452996,0.0122 -0.5258921,0.51967 -0.940352,0.61871 -0.3889955,-0.0165 -0.4767121,0.37987 -0.8065574,0.49844 -0.3976883,-0.006 -0.5901852,0.34262 -0.918763,0.49864 -0.3751533,0.0638 -0.616331,0.30678 -0.9235601,0.50321 -0.4923926,-0.0145 -0.637351,0.59859 -1.1335538,0.55761 -0.3199111,-0.19492 -0.4558371,0.15217 -0.7225539,0.25052 -0.4530944,0.0256 -0.7361087,0.40176 -1.1596192,0.49546 -0.38043434,-0.14809 -0.55379732,0.29811 -0.92066962,0.32508 -0.41902884,-0.0304 -0.73809928,0.21273 -1.13572008,0.2872 -0.4233924,-0.11389 -0.6065236,0.36565 -1.0283811,0.32575 -0.4418475,-0.20715 -0.8164276,0.24428 -1.2784027,0.17047 -0.3062566,0.15418 -0.6915913,0.42972 -1.081686,0.23788 -0.6056412,0.0826 -1.2238921,0.34533 -1.8600512,0.29226 -0.3354395,-0.19286 -0.5598418,0.17806 -0.9028907,0.12774 -0.4693774,-0.20197 -0.9594672,0.19487 -1.4050796,-0.101 -0.2808359,-0.055 -0.5368574,0.38381 -0.8798806,0.19445 -0.3349475,-0.27771 -0.6951345,0.15675 -1.0755825,-0.0173 -0.333549,-0.27486 -0.707853,0.0264 -1.085083,-0.12033 -0.2405,-0.21209 -0.43632,-0.051 -0.699716,-0.0111 -0.412312,-0.0919 -0.806184,-0.20428 -1.235145,-0.18192 -0.350272,-0.21499 -0.708315,-0.0607 -1.082356,-0.17667 -0.318102,-0.29008 -0.725736,-0.0702 -1.09257,-0.1939 -0.296432,-0.26404 -0.661245,-0.11855 -1.01052,-0.25163 -0.280398,-0.26536 -0.633898,-0.1105 -0.968851,-0.23862 -0.332696,-0.26382 -0.748827,-0.17643 -1.115307,-0.34877 -0.259014,-0.26453 -0.587774,-0.20823 -0.910812,-0.32657 -0.419864,-0.35523 -1.009221,-0.19596 -1.423252,-0.58369 -0.502715,-0.0507 -0.859989,-0.48211 -1.355768,-0.53565 -0.402034,-0.32382 -0.890787,-0.46377 -1.327396,-0.75079 -0.621516,-0.35849 -1.310735,-0.63561 -1.867296,-1.12038 -1.380426,-0.76136 -2.596005,-1.76227 -3.783425,-2.79033 -0.482889,-0.62062 -1.18531,-1.00206 -1.715355,-1.58097 -0.181185,-0.52125 -0.888784,-0.58556 -0.975235,-1.17111 -0.475272,-0.32587 -0.629884,-0.90876 -1.087867,-1.24445 -0.15324,-0.35218 -0.38265,-0.58105 -0.670498,-0.81716 -0.203325,-0.34873 -0.335824,-0.71977 -0.661609,-0.98269 -0.07338,-0.39805 -0.443126,-0.57035 -0.599836,-0.92747 -0.05398,-0.4966 -0.628034,-0.70164 -0.64271,-1.22199 -0.231134,-0.29105 -0.502126,-0.60293 -0.59807,-0.98912 -0.406805,-0.3791 -0.372709,-0.98137 -0.713329,-1.40042 -0.0035,-0.41058 -0.25201,-0.68417 -0.431432,-1.02499 0.01014,-0.43107 -0.39852,-0.64693 -0.450494,-1.06091 0.07387,-0.43056 -0.343851,-0.64889 -0.369332,-1.05763 0.116008,-0.44363 -0.418008,-0.66442 -0.311278,-1.12466 0.230678,-0.3778 -0.402052,-0.44002 -0.321973,-0.83788 0.169152,-0.36216 -0.06591,-0.64224 -0.135018,-0.99801 0.102797,-0.44848 -0.281859,-0.7704 -0.251574,-1.21216 0.176178,-0.3696 -0.208777,-0.60699 -0.17364,-0.97485 0.194625,-0.45623 -0.287963,-0.88664 -0.05346,-1.3529 -0.07702,-0.3118 -0.205893,-0.71233 -0.092,-1.0749 -0.168008,-0.32133 -0.338027,-0.76626 -0.05212,-1.10676 0.0064,-0.33877 -0.29951,-0.71137 -0.0041,-1.0547 7.99e-4,-0.33399 -0.105041,-0.74888 0.07307,-1.09154 -0.298695,-0.50317 0.08316,-1.02682 -0.03131,-1.55589 0.156628,-0.39533 0.11904,-0.78713 0.152977,-1.20419 0.211083,-0.35448 0.107976,-0.74965 0.217682,-1.13074 0.255992,-0.294 0.09053,-0.63824 0.164022,-0.98576 0.227531,-0.43002 0.119092,-0.94394 0.445563,-1.34187 0.112248,-0.3616 0.0053,-0.79855 0.285357,-1.11881 -0.09632,-0.42175 0.148529,-0.76182 0.319221,-1.10998 -0.164485,-0.50775 0.43329,-0.78225 0.397558,-1.27963 0.252185,-0.38554 0.397726,-0.79365 0.547329,-1.22978 0.364943,-0.25702 0.09401,-0.70857 0.379411,-1.00832 0.308201,-0.18111 0.372231,-0.44188 0.445074,-0.77253 0.301015,-0.33314 0.36449,-0.78217 0.640316,-1.13035 0.392359,-0.18515 0.275963,-0.63352 0.553055,-0.92157 0.302811,-0.16434 0.283308,-0.42991 0.383891,-0.71961 z"
       id="path1577-7"
       inkscape:connector-curvature="0"
       inkscape:export-filename="C:\Users\Jesse\106.png"
       inkscape:export-xdpi="73.387878"
       inkscape:export-ydpi="73.387878" />
    <path
       style="opacity:0.1;fill:none;fill-opacity:1;fill-rule:nonzero;stroke:none;stroke-width:0.22794494;stroke-linecap:round;stroke-linejoin:round;stroke-miterlimit:4;stroke-dasharray:none;stroke-dashoffset:0;stroke-opacity:1;paint-order:normal"
       d="m -38.829755,743.19739 c 0.275077,0.22989 0.573511,0.31852 0.627829,0.71762 0.200231,0.4222 0.738598,0.48053 0.778605,0.98617 0.266495,0.44569 0.731174,0.70097 0.970741,1.16799 0.331324,0.21654 0.589933,0.39447 0.660391,0.80642 0.209555,0.43612 0.8154,0.32683 0.945312,0.83222 0.414904,0.34411 0.800874,0.67218 1.117956,1.10751 0.558592,0.16682 0.611251,0.93401 1.234458,0.96438 0.309969,0.33075 0.580417,0.73923 1.08138,0.80851 0.234217,0.43877 0.756223,0.50274 1.105095,0.77515 0.299923,0.52168 0.90667,0.61586 1.282604,1.04263 0.349537,0.22424 0.794401,0.18583 1.009845,0.58742 0.371237,0.27772 0.845959,0.32856 1.146141,0.7061 0.441924,0.20975 0.885875,0.33084 1.25322,0.66575 0.625837,0.0939 1.040262,0.72815 1.714028,0.60987 0.300891,0.33658 0.798293,0.39269 1.163135,0.53176 0.25309,0.46505 0.787093,0.2849 1.154843,0.43209 0.253912,0.45353 0.810724,0.45186 1.231606,0.40119 0.349251,0.27462 0.840489,0.29953 1.213287,0.34442 0.412668,0.44941 1.083025,0.1 1.501262,0.50162 0.387623,0.19068 0.806534,-0.1319 1.137681,0.21372 0.470457,0.21599 0.981643,-0.0713 1.429407,0.22675 0.417586,0.0717 0.821159,-0.0693 1.147036,0.26554 0.401835,0.25225 0.731797,-0.41369 1.04935,-0.005 0.459004,0.3072 0.92145,-0.18524 1.358459,0.12525 0.457425,0.14135 0.869047,-0.22496 1.309218,0.034 0.4741199,0.11454 0.8792974,-0.24291 1.3464012,-0.0532 0.4468804,-0.0551 0.8488649,-0.21348 1.2992279,-0.0475 0.5991504,-0.19893 1.2434952,0.0877 1.826383,-0.2002 0.4619589,0.055 0.9151212,-0.11219 1.3289929,-0.2444 0.5749677,0.19937 1.0367921,-0.34336 1.602094,-0.19679 0.4553193,-0.0235 0.7967511,-0.35641 1.2623148,-0.27186 0.4223095,-0.24737 0.88282953,-0.2386 1.34826004,-0.31654 0.37735967,-0.2169 0.72253163,-0.37301 1.1709911,-0.39477 0.55637416,-0.36212 1.25789296,-0.28947 1.81093086,-0.67419 0.6759747,0.14789 1.0392142,-0.59912 1.6841135,-0.58142 0.8523493,-0.33985 1.5602133,-0.94982 2.4385975,-1.22092 1.6155302,-0.87266 3.2130662,-1.7873 4.6168932,-2.98141 0.760367,-0.40785 1.348695,-1.04662 1.997926,-1.57773 0.494542,-0.35852 0.849881,-0.83495 1.37034,-1.14045 0.263782,-0.51987 0.883375,-0.73185 1.146902,-1.26052 0.595335,-0.29212 0.665147,-1.00244 1.227347,-1.31442 0.263135,-0.30415 0.337648,-0.68693 0.734098,-0.8606 0.340106,-0.32935 0.416857,-0.82047 0.843016,-1.075 0.278822,-0.31311 0.255773,-0.76376 0.661976,-0.96046 0.290089,-0.32678 0.282048,-0.78585 0.693438,-1.00065 0.287016,-0.34988 0.215446,-0.88655 0.664276,-1.11424 0.281623,-0.36094 0.261177,-0.81627 0.641235,-1.11021 0.153125,-0.47825 0.438867,-0.86242 0.710197,-1.2751 0.06593,-0.30428 -0.02908,-0.58503 0.302373,-0.76018 0.316434,-0.35178 0.142094,-0.88567 0.58068,-1.13655 0.348025,-0.34375 0.02209,-0.91747 0.464368,-1.16872 0.349027,-0.29665 -0.02475,-0.75821 0.151651,-1.04248 0.508098,-0.3646 0.277067,-1.06476 0.692185,-1.49434 0.197031,-0.35422 -0.115598,-0.75311 0.234113,-1.04002 0.321387,-0.67354 0.290088,-1.45824 0.450487,-2.1546 0.371202,-0.34712 0.229498,-0.88241 0.187707,-1.28108 0.271947,-0.47454 -0.06652,-1.07095 0.34286,-1.46826 0.218272,-0.44471 -0.230248,-0.84346 0.06957,-1.25921 0.08321,-0.46554 -0.04965,-0.91465 0.156173,-1.36058 0.122384,-0.41227 -0.293662,-0.78649 0.02572,-1.14114 0.07289,-0.50181 -0.221288,-0.967 -0.06163,-1.47292 0.0029,-0.33232 -0.32032,-0.62463 0.02521,-0.89371 0.250226,-0.52553 -0.359899,-0.93774 -0.14036,-1.47015 -0.08759,-0.41722 -0.253462,-0.78149 -0.167851,-1.21806 -0.03453,-0.42382 -0.336203,-0.77867 -0.164817,-1.21091 0.007,-0.4097 -0.390249,-0.66975 -0.211039,-1.08816 0.0633,-0.49412 -0.458157,-0.79231 -0.287158,-1.28421 -0.13509,-0.50231 -0.263991,-0.9856 -0.345085,-1.50287 -0.368859,-0.52465 -0.2608,-1.21822 -0.660372,-1.74062 -0.0034,-0.66586 -0.496367,-1.19294 -0.547329,-1.84945 -0.305428,-0.47024 -0.47799,-1.02265 -0.753282,-1.50367 0.08374,-0.4954 -0.325602,-0.81202 -0.595107,-1.12659 -0.142926,-0.61166 -0.626382,-1.03657 -0.785341,-1.64024 -0.234712,-0.30869 -0.505095,-0.51267 -0.519412,-0.92535 -0.151398,-0.40551 -0.656423,-0.51597 -0.644026,-1.00407 -0.14537,-0.44739 -0.667805,-0.58088 -0.709999,-1.06967 -0.217819,-0.41108 -0.740397,-0.48004 -0.776216,-1.00001 -0.409239,-0.58143 -0.959306,-0.99908 -1.331335,-1.61556 -0.509246,-0.62704 -0.977742,-1.32996 -1.659634,-1.76654 -0.21736,-0.62111 -0.957291,-0.65518 -1.242917,-1.21423 -0.443439,-0.30776 -0.684746,-0.77272 -1.096793,-1.09573 -0.536957,-0.15965 -0.710647,-0.92064 -1.369498,-0.88364 -0.167218,-0.41394 -0.522766,-0.79278 -0.984175,-0.82316 -0.162313,-0.49515 -0.696207,-0.67418 -1.114595,-0.75147 -0.3276019,-0.47318 -0.9672467,-0.45487 -1.2958987,-0.91503 -0.3970267,-0.26011 -0.89198,-0.28213 -1.1912135,-0.68179 -0.3331593,-0.20089 -0.7236838,-0.17506 -0.9667417,-0.51641 -0.3545631,-0.26043 -0.8447076,-0.0517 -1.0926188,-0.48542 -0.3093799,-0.36077 -0.8397724,-0.0176 -1.0495817,-0.4852 -0.2544546,-0.30842 -0.7238609,-0.16292 -0.9957807,-0.27188 -0.4090394,-0.55419 -1.2089501,-0.35738 -1.665867,-0.8336 -0.3461429,-0.10445 -0.68361967,0.13622 -0.94529401,-0.21001 -0.45186853,-0.1879 -0.9704624,-0.0275 -1.34318718,-0.41446 -0.36886531,-0.1277 -0.73394111,0.10623 -1.01849431,-0.2526 -0.4380515,-0.20076 -0.9394816,0.12064 -1.3241876,-0.257 -0.4258306,-0.10256 -0.8727654,0.10316 -1.2446665,-0.21602 -0.4785311,-0.0633 -0.9485934,0.0429 -1.3877728,-0.21306 -0.3473995,-9.2e-4 -0.6746227,0.18827 -0.9659134,-0.1113 -0.4064957,-0.25385 -0.8261216,0.35536 -1.155161,-0.0504 -0.455719,-0.28913 -0.8824368,0.3105 -1.2941649,-0.0276 -0.3627217,-0.19045 -0.7573728,0.12155 -1.0687142,0.0962 -0.486301,-0.38884 -0.913854,0.29546 -1.404253,0.0298 -0.529091,-0.0306 -1.018596,0.10736 -1.54928,0.0368 -0.426466,0.0908 -0.793553,0.27759 -1.245349,0.18924 -0.533271,0.26848 -1.138753,-0.094 -1.632568,0.28918 -0.323092,0.26832 -0.833092,-0.0768 -1.212028,0.20041 -0.42869,0.22311 -1.000322,0.009 -1.360014,0.41828 -0.461451,-0.0925 -0.88968,0.16306 -1.247774,0.36626 -0.49873,-0.1226 -0.868929,0.293 -1.297698,0.37292 -0.602933,0.0151 -1.032009,0.4805 -1.62723,0.50305 -1.734847,0.83279 -3.520998,1.5801 -5.158035,2.61563 -0.488854,-0.0754 -0.668901,0.40963 -0.942061,0.65957 -0.534382,-0.13835 -0.713415,0.41922 -1.023093,0.67583 -0.683486,-0.0976 -0.811825,0.73478 -1.41103,0.87468 -0.368881,0.31642 -0.716766,0.59318 -1.145319,0.80327 -0.221248,0.3288 -0.386326,0.6287 -0.800009,0.75723 -0.372678,0.3481 -0.686418,0.70075 -1.108736,1.00249 -0.518039,0.85175 -1.489638,1.33872 -1.950145,2.23902 -0.41549,0.20237 -0.685976,0.59266 -0.849507,1.00272 -0.380499,0.17632 -0.633476,0.55085 -0.753789,0.9313 -0.591761,0.23884 -0.571854,0.98521 -1.128289,1.25452 -0.315342,0.18769 -0.190177,0.68407 -0.368843,0.85602 -0.601985,0.17501 -0.383173,0.93702 -0.876659,1.21373 -0.321874,0.42439 -0.437654,0.93688 -0.760463,1.35395 -0.03407,0.40257 -0.18219,0.66787 -0.459243,0.94905 -0.216929,0.36243 -0.208716,0.80928 -0.581072,1.06882 -0.288225,0.37058 -0.01203,0.88391 -0.428907,1.19219 -0.162593,0.40913 -0.234464,0.82006 -0.592907,1.10547 -0.230561,0.37096 -0.01019,0.80905 -0.329916,1.14517 -0.185501,0.41189 -0.01337,0.88094 -0.341297,1.24183 -0.130435,0.45043 -0.191503,0.88823 -0.481502,1.26143 -0.114071,0.37681 0.122345,0.73688 -0.162461,1.0716 -0.188256,0.41131 0.06859,0.87399 -0.267246,1.225 -0.153302,0.45415 -0.05857,0.93148 -0.322524,1.34656 -0.07748,0.39974 0.243879,0.79486 -0.124746,1.12446 -0.216212,0.42874 0.243379,0.86484 -0.09061,1.2559 -0.08976,0.44062 0.08957,0.85297 -0.102371,1.28311 -0.09091,0.44116 0.26607,0.81267 0.05641,1.24669 0.02673,0.42879 0.110039,0.81917 -0.09619,1.21449 -0.04386,0.45889 0.260385,0.84696 0.08691,1.31113 0.05002,0.45199 0.218767,0.852 0.118881,1.31405 0.07708,0.41695 0.181447,0.76099 0.106336,1.18292 0.06515,0.39635 0.339484,0.71862 0.208503,1.1424 0.14854,0.4991 0.257993,0.96916 0.283754,1.49301 0.287381,0.53144 0.182222,1.17395 0.504532,1.68882 -0.104597,0.62074 0.360765,1.11646 0.318739,1.7151 0.178758,0.47653 0.414865,0.89663 0.479286,1.40748 0.555575,1.12775 1.04024,2.30293 1.495558,3.45857 0.454299,0.37542 0.307552,1.11619 0.893077,1.38293 -0.03622,0.53541 0.398845,0.87023 0.625154,1.26474 0.343196,0.75402 0.831555,1.47596 1.31345,2.11276 0.0058,0.1732 0.07185,0.34322 0.183957,0.47521 z m 3.906174,4.04905 c -0.114621,0.0456 -0.243558,0.0237 0,0 z m 2.664954,2.48345 c -0.0232,0.0213 -0.179746,0.0271 0,0 z"
       id="path1596-1"
       inkscape:connector-curvature="0"
       inkscape:export-filename="C:\Users\Jesse\106.png"
       inkscape:export-xdpi="73.387878"
       inkscape:export-ydpi="73.387878" />
  </defs>
  <sodipodi:namedview
     id="base"
     pagecolor="#ffffff"
     bordercolor="#666666"
     borderopacity="1.0"
     inkscape:pageopacity="0.0"
     inkscape:pageshadow="2"
     inkscape:zoom="0.69999999"
     inkscape:cx="19.552121"
     inkscape:cy="340.53228"
     inkscape:document-units="mm"
     inkscape:current-layer="layer1"
     showgrid="false"
     inkscape:window-width="1920"
     inkscape:window-height="1017"
     inkscape:window-x="-8"
     inkscape:window-y="-8"
     inkscape:window-maximized="1"
     inkscape:snap-global="false"
     showguides="true"
     inkscape:snap-bbox="true"
     inkscape:bbox-paths="true"
     inkscape:bbox-nodes="true"
     inkscape:snap-bbox-edge-midpoints="true"
     inkscape:snap-bbox-midpoints="true"
     fit-margin-top="0"
     fit-margin-left="0"
     fit-margin-right="0"
     fit-margin-bottom="0" />
  <metadata
     id="metadata5">
    <rdf:RDF>
      <cc:Work
         rdf:about="">
        <dc:format>image/svg+xml</dc:format>
        <dc:type
           rdf:resource="http://purl.org/dc/dcmitype/StillImage" />
        <dc:title />
      </cc:Work>
    </rdf:RDF>
  </metadata>
  <g
     inkscape:label="Layer 1"
     inkscape:groupmode="layer"
     id="layer1"
     transform="translate(76.170712,-655.94485)"
     style="display:inline">
    <g
       id="g1049">
      <g
         inkscape:export-ydpi="47.709198"
         inkscape:export-xdpi="47.709198"
         id="g904"
         transform="translate(-124.90444,744.35381)">
        <path
           style="opacity:1;fill:#ff0000;fill-opacity:1;fill-rule:nonzero;stroke:none;stroke-width:0.08202439;stroke-linecap:round;stroke-linejoin:round;stroke-miterlimit:4;stroke-dasharray:none;stroke-dashoffset:0;stroke-opacity:1;paint-order:normal"
           d="m 112.96912,-78.34179 c -1.72791,0.117302 -3.60917,-0.220996 -5.21261,0.503329 -0.21524,4.345326 -0.0327,8.75137 -0.0915,13.120129 0.0695,3.733535 -0.10003,7.497309 0.19121,11.214819 -0.18179,0.09929 -0.30171,0.303715 -0.28474,0.515215 0.004,0.265099 -0.0366,0.580843 0.18242,0.77773 0.2202,0.218596 0.61828,0.176381 0.79478,-0.07648 0.11818,-0.185184 0.26696,-0.364395 0.31781,-0.581877 0.023,-0.105177 0.006,-0.210643 -0.0356,-0.305408 0.37028,-0.319662 0.68032,-0.9398 0.94516,-1.245402 1.60563,-2.38824 3.56485,-4.545986 5.67665,-6.51433 2.30244,2.498926 4.3538,5.209487 6.30401,7.986075 0.0479,0.0922 0.10631,0.165706 0.17053,0.223242 -0.0844,0.217636 0.0205,0.449093 0.14315,0.631486 0.11424,0.223885 0.36693,0.388361 0.62218,0.328144 0.26898,-0.04485 0.44554,-0.315036 0.43718,-0.578257 0.0108,-0.222694 0.0173,-0.48324 -0.16329,-0.643374 0.0557,-0.134522 0.0729,-0.29341 0.0258,-0.470771 0.15269,-7.712109 0.21,-15.434886 -0.0253,-23.14484 0.19911,-1.196214 -0.7781,-1.630082 -1.8066,-1.55236 -2.72209,-0.212593 -5.46258,-0.17428 -8.19123,-0.187069 z m -31.406874,48.628038 c -0.131352,0.0059 -0.259274,0.06324 -0.3514,0.157097 -0.01315,0.01321 -0.02354,0.02886 -0.03514,0.04341 -0.625265,-0.223777 -1.635704,0.126301 -2.25981,-0.03824 -3.955069,-0.01264 -7.910332,-0.04271 -11.865426,-0.04857 -1.318365,-0.002 -2.63643,-8.33e-4 -3.954797,0.0041 -1.374439,0.110889 -2.854264,-0.173908 -4.167188,0.293004 -0.745883,1.090991 -0.462272,2.595973 -0.65629,3.853511 -0.159562,3.587914 -0.137952,7.203615 0.332279,10.766785 0.654518,0.811477 1.950666,0.281146 2.859257,0.480073 3.250111,0.0097 6.53873,0.117607 9.764262,-0.04186 0.763354,-0.687131 0.720564,-2.004584 1.200443,-2.938322 1.334564,-3.665802 3.649477,-6.90226 6.585128,-9.458338 0.712407,-0.778487 1.706354,-1.236819 2.408638,-1.987476 0.07313,0.03013 0.152443,0.04526 0.231511,0.04031 0.09635,-0.0049 0.189937,-0.03808 0.270268,-0.09095 0.06091,-0.03857 0.125228,-0.07319 0.176733,-0.12454 0.102494,-0.09871 0.162191,-0.240075 0.160714,-0.382407 4.2e-5,-0.145241 -0.06323,-0.289216 -0.170532,-0.387057 -0.09211,-0.08535 -0.215687,-0.13512 -0.341065,-0.139525 -0.06249,-0.0019 -0.125081,-0.0018 -0.187585,-0.001 z m 67.463584,0.0036 c -0.13456,0.0019 -0.27666,-0.0087 -0.40049,0.05426 -0.18752,0.08539 -0.31188,0.289335 -0.30283,0.495062 0.004,0.175474 0.10329,0.342577 0.25115,0.435631 0.12937,0.08335 0.25909,0.165846 0.39015,0.246496 0.14432,0.08402 0.32632,0.08751 0.47801,0.01964 0.27888,0.346882 0.76601,0.662649 1.01958,0.903822 4.22987,3.196248 7.19719,7.903255 8.53333,13.012642 0.74736,0.80713 2.1243,0.168013 3.12384,0.371552 2.83187,-0.0494 5.70398,0.0986 8.51111,-0.07286 0.72056,-0.640281 0.33706,-1.941685 0.54312,-2.863908 0.10497,-3.986176 0.2599,-8.006138 -0.24805,-11.971361 -0.2755,-0.418928 -0.72121,-0.518705 -1.21853,-0.517282 -0.63942,0.0018 -1.36423,0.170916 -1.92288,0.04289 -4.49694,-0.01593 -8.99367,-0.05758 -13.49065,-0.03669 -1.51978,0.04993 -3.05819,-0.04543 -4.56871,0.120406 -0.0333,-0.05004 -0.072,-0.09626 -0.12093,-0.131775 -0.10345,-0.07854 -0.23538,-0.110459 -0.3638,-0.108003 -0.0712,-0.0011 -0.14221,-5.19e-4 -0.21342,-5.19e-4 z m -58.379902,2.933155 c -7.38409,0.09232 -14.47053,4.426207 -17.986498,10.906313 -0.950321,0.879496 -0.455314,2.139886 0.886251,1.699636 4.211567,-0.04936 8.462881,0.0957 12.649874,-0.07493 1.193514,-1.182116 2.071378,-2.76546 3.315044,-3.963583 2.292048,-2.489073 4.916516,-4.737201 7.831045,-6.493142 0.74854,-0.733132 -0.4532,-1.333709 -1.099159,-1.382864 -1.829334,-0.431913 -3.711972,-0.731419 -5.596557,-0.69143 z m 48.670932,0.02119 c -1.90123,0.134191 -4.04358,0.0223 -5.69578,1.108459 -0.88416,0.973883 0.53201,1.895009 1.27073,2.380218 3.53077,2.363806 6.57573,5.417764 8.99531,8.881628 1.20912,0.507175 2.67439,0.06796 3.98064,0.214456 3.42797,-0.04885 6.89532,0.09777 10.29859,-0.07286 0.87848,-0.609936 -0.3963,-1.61213 -0.66404,-2.33009 -3.19842,-5.3604 -8.83495,-9.165561 -15.03681,-9.990603 -1.04134,-0.155464 -2.09668,-0.202391 -3.14864,-0.191204 z m -28.25409,20.7124297 c -0.0718,0.00533 -0.15153,0.026072 -0.23926,0.064595 -0.99908,0.7657359 -2.48879,1.1094508 -3.1595,2.168345 0.1023,2.5635744 -0.20018,5.1724983 0.17828,7.7127073 -0.13066,0.074959 -0.23228,0.2005833 -0.25993,0.3503665 -0.0226,0.1210787 -0.01,0.2454143 -0.0139,0.3679349 0.002,0.1668859 -0.006,0.3349678 0.0103,0.5012611 0.0291,0.2182045 0.20633,0.4065164 0.42374,0.4449339 0.20295,0.042677 0.42091,-0.050197 0.5395,-0.2185908 0.1391,-0.2054146 0.26492,-0.4195445 0.39378,-0.6314864 0.0799,-0.1437772 0.0826,-0.3225561 0.0165,-0.4718049 0.22963,-0.175313 0.4162,-0.4384623 0.47336,-0.7033155 1.28011,-2.62958784 2.18315,-5.5327073 2.27066,-8.4692515 4.7e-4,-0.4480957 -0.13057,-1.1529668 -0.63355,-1.115695 z m 8.4522,0.3746553 -0.0124,0.00103 c -1.04364,0.3758962 -0.45275,1.8017596 -0.4656,2.626196 0.42111,2.66314758 1.21017,5.3826621 2.75177,7.6171053 0.0315,0.04481 0.0646,0.083746 0.0987,0.1183376 -0.0447,0.1058439 -0.0587,0.2245677 -0.0269,0.3374495 0.0545,0.1839675 0.179,0.3373226 0.28681,0.4929929 0.14831,0.2037767 0.44395,0.2827364 0.66972,0.1653645 0.20416,-0.096295 0.31223,-0.3245802 0.30438,-0.5441526 -8e-4,-0.2121244 0.0318,-0.4515935 -0.11472,-0.6273536 -0.0127,-0.016767 -0.0298,-0.029083 -0.0444,-0.043923 0.10168,-0.1824329 0.1454,-0.4063974 0.0884,-0.6366537 0.0913,-2.519627 0.14513,-5.0814498 5.1e-4,-7.5783492 -0.89426,-0.8632481 -2.2579,-1.3247422 -3.39049,-1.9161627 z m -4.26796,6.30917472 c -0.1558,0.0119063 -0.30384,0.0968137 -0.39274,0.22530858 -0.043,0.064733 -0.0788,0.1344136 -0.10594,0.2072243 -0.0593,0.164428 -0.0285,0.3564837 0.078,0.4950592 -1.10086,1.2102095 -1.74743,2.8267898 -2.89647,4.0245612 -1.18686,1.5485401 -2.7573,2.7572599 -4.15375,4.0679687 -0.24432,2.4610533 -0.0132,5.0358723 -0.0791,7.5395903 0.0202,5.550313 0.0405,11.100866 0.0605,16.651182 0.44752,0.985419 1.91005,0.557514 2.81326,0.706416 3.91492,-0.04465 7.85997,0.135789 11.75432,-0.29404 1.06303,-0.386627 0.418,-1.901171 0.6811,-2.776058 0.1874,-7.146809 0.0995,-14.297678 0.12195,-21.446236 -0.59708,-1.0438181 -1.901,-1.5328343 -2.6727,-2.4835695 -1.88119,-1.7801166 -3.27759,-3.9035989 -4.65708,-6.0766298 0.0312,-0.06241 0.0544,-0.1290134 0.0584,-0.198956 0.009,-0.109011 -0.0223,-0.2175431 -0.0734,-0.31315822 -0.048,-0.10271124 -0.12171,-0.19551649 -0.22014,-0.25373012 -0.0942,-0.0575072 -0.2063,-0.0833596 -0.31626,-0.0749326 z"
           id="path1358"
           inkscape:connector-curvature="0" />
        <path
           style="opacity:1;fill:#6f71c4;fill-opacity:1;fill-rule:nonzero;stroke:#4a4a4a;stroke-width:0.058;stroke-linecap:round;stroke-linejoin:round;stroke-miterlimit:4;stroke-dasharray:none;stroke-dashoffset:0;stroke-opacity:1;paint-order:normal"
           d="m 100.74867,-68.779066 c -6.205257,1.887169 -12.003527,5.099567 -16.993793,9.236645 -4.07056,3.536757 -7.729338,7.58744 -10.485665,12.24008 -2.087642,3.450211 -3.822999,7.157582 -4.950085,11.021549 0.114332,0.962493 1.413252,0.433901 2.08256,0.568957 7.74795,-0.03605 15.501585,0.08559 23.246125,-0.108002 0.869357,-0.421556 0.05736,-1.42494 -0.06201,-2.078427 -0.891786,-2.502747 -1.42825,-5.080114 -1.292429,-7.738028 -0.230203,-4.749384 1.396275,-9.504121 4.080373,-13.384196 -2.707929,5.873834 -2.563207,13.038608 0.651124,18.689814 0.769641,1.326087 1.515051,2.761136 2.695442,3.765661 0.657208,0.382022 1.995928,0.31236 1.760098,-0.734322 -0.0351,-10.312003 0.0849,-20.626321 -0.10852,-30.936612 0.005,-0.319583 -0.32582,-0.569444 -0.62322,-0.543119 z m 28.97084,0.03204 -0.12764,0.03411 -0.11162,0.03049 c -0.51289,0.731052 -0.1689,1.758065 -0.29869,2.606042 -0.0911,9.729753 -0.0372,19.459909 -0.0522,29.18995 0.24048,0.855266 1.54005,0.552675 2.03398,0.04134 5.05282,-5.803746 6.36375,-14.51284 3.30833,-21.567158 -0.35726,-0.74014 -0.24167,-0.622083 0.14262,-0.0031 3.86142,5.834875 4.79312,13.385141 2.54145,19.998777 -0.15001,0.736878 -0.69534,1.410187 -0.65784,2.163694 0.43687,0.737872 1.49739,0.379973 2.20297,0.507979 7.65208,0.03314 15.30755,0.09981 22.95777,-0.07493 0.91913,-0.171411 0.36914,-1.236065 0.1819,-1.79214 -4.66972,-13.806757 -15.75475,-25.30635 -29.46487,-30.30771 -0.87796,-0.26335 -1.74082,-0.805214 -2.65617,-0.82734 z M 81.773602,-8.0814794 c -0.405272,-0.017841 -0.888686,0.072953 -1.206645,0.018603 -3.353919,0.00532 -6.744337,-0.029096 -10.077937,0.069763 -0.659075,-0.07725 -1.411418,-0.1795356 -2.032434,0.066664 -0.408281,0.790583 0.369497,1.6386863 0.507462,2.4463613 2.078258,5.8483129 5.251744,11.337528 9.384957,15.9737021 3.154544,3.38282 6.513428,6.635967 10.492899,9.043374 3.745682,2.360009 7.801322,4.298905 12.034926,5.565037 0.93959,-0.104857 0.46834,-1.324496 0.59273,-1.971458 -0.0363,-3.181165 0.12147,-6.375062 -0.092,-9.54877 -0.11438,-0.731235 -0.92528,-0.561819 -1.403013,-0.337447 -0.627845,0.153892 -1.269841,0.259739 -1.898592,0.351401 1.137899,-0.4968 2.395925,-0.881938 3.363105,-1.651064 0.0964,-4.2709831 0.0137,-8.560117 0.0413,-12.83797435 -0.28483,-1.00334765 -1.3808,-0.18720855 -2.059824,-0.095086 -4.104738,1.10268278 -8.394629,1.31699792 -12.617318,0.94051172 -2.175459,-0.29350758 -4.343911,-0.81184749 -6.37532,-1.54512427 0.563544,-1.9831288 1.300782,-3.9500704 2.084111,-5.8549407 -0.006,-0.4889315 -0.333184,-0.6157119 -0.738457,-0.6335527 z m 74.529298,0.021188 c -1.33237,-0.00397 -2.66486,-5.159e-4 -3.99717,0.00103 -1.41523,0.021669 -2.83507,-0.021503 -4.2478,0.051676 -0.8534,0.4938633 0.0124,1.4787774 0.10955,2.183331 0.46118,1.5198116 0.90951,3.0593136 1.2361,4.60747 -5.06028,0.8644149 -10.1948,1.27346337 -15.26935,0.53226757 -1.557,-0.15279423 -3.08432,-0.64097957 -4.61522,-0.81183687 -0.74171,0.3988011 -0.24625,1.49462326 -0.38964,2.1993489 0.0321,3.716729 -0.0637,7.457506 0.0475,11.1595248 0.46385,0.712877 1.47128,0.926089 2.21847,1.315167 0.24412,0.129627 1.23455,0.424548 1.03249,0.418579 -0.89969,-0.115449 -1.78197,-0.331137 -2.63911,-0.619602 -0.9867,0.11365 -0.51033,1.334202 -0.64079,1.996779 -0.002,3.24322 -0.0759,6.5089 0.0289,9.737388 0.39352,0.84001 1.41518,0.01958 2.06912,-0.07752 13.68758,-4.70862 25.08344,-15.7191898 30.06845,-29.3305099 0.27284,-0.9247505 0.81431,-1.834888 0.85318,-2.7967278 -0.22553,-0.7791265 -1.26415,-0.4010819 -1.8681,-0.5234808 -1.33211,-0.027546 -2.66429,-0.03892 -3.99666,-0.042892 z"
           id="path1347"
           inkscape:connector-curvature="0" />
        <g
           id="g1277"
           transform="translate(0,-160.86667)">
          <path
             style="opacity:1;fill:#000000;fill-opacity:1;fill-rule:nonzero;stroke:none;stroke-width:0.08385056;stroke-linecap:round;stroke-linejoin:round;stroke-miterlimit:4;stroke-dasharray:none;stroke-dashoffset:0;stroke-opacity:1;paint-order:normal"
             d="m 122.60444,81.96595 2.17332,-0.362396 c 0,35.079086 -0.005,70.520566 -0.005,105.599656 v 0 h -2.16799 v 0 z"
             id="path1241"
             inkscape:connector-curvature="0"
             sodipodi:nodetypes="ccccccc" />
          <path
             sodipodi:nodetypes="ccccccc"
             inkscape:connector-curvature="0"
             id="path1243"
             d="m 127.48441,89.423815 2.17332,-0.336714 c 0,32.593129 -0.005,65.522979 -0.005,98.116109 v 0 h -2.16799 v 0 z"
             style="opacity:1;fill:#000000;fill-opacity:1;fill-rule:nonzero;stroke:none;stroke-width:0.08082484;stroke-linecap:round;stroke-linejoin:round;stroke-miterlimit:4;stroke-dasharray:none;stroke-dashoffset:0;stroke-opacity:1;paint-order:normal" />
          <path
             sodipodi:nodetypes="ccccccc"
             inkscape:connector-curvature="0"
             id="path1245"
             d="m 101.04494,88.367217 2.17332,-0.340377 c 0,32.94771 -0.005,66.2358 -0.005,99.18351 v 0 h -2.16799 v 0 z"
             style="opacity:1;fill:#000000;fill-opacity:1;fill-rule:nonzero;stroke:none;stroke-width:0.0812633;stroke-linecap:round;stroke-linejoin:round;stroke-miterlimit:4;stroke-dasharray:none;stroke-dashoffset:0;stroke-opacity:1;paint-order:normal" />
          <path
             style="opacity:1;fill:#000000;fill-opacity:1;fill-rule:nonzero;stroke:none;stroke-width:0.08082484;stroke-linecap:round;stroke-linejoin:round;stroke-miterlimit:4;stroke-dasharray:none;stroke-dashoffset:0;stroke-opacity:1;paint-order:normal"
             d="m 105.92491,89.430955 2.17332,-0.336714 c 0,32.593129 -0.005,65.522979 -0.005,98.116109 v 0 h -2.16799 v 0 z"
             id="path1247"
             inkscape:connector-curvature="0"
             sodipodi:nodetypes="ccccccc" />
          <path
             sodipodi:nodetypes="ccccccc"
             inkscape:connector-curvature="0"
             id="path1261"
             d="m 172.28346,146.19229 0.40598,2.17332 c -39.2983,0 -79.002591,-0.005 -118.300901,-0.005 v 0 -2.16799 0 z"
             style="opacity:1;fill:#000000;fill-opacity:1;fill-rule:nonzero;stroke:none;stroke-width:0.08875008;stroke-linecap:round;stroke-linejoin:round;stroke-miterlimit:4;stroke-dasharray:none;stroke-dashoffset:0;stroke-opacity:1;paint-order:normal" />
          <path
             style="opacity:1;fill:#000000;fill-opacity:1;fill-rule:nonzero;stroke:none;stroke-width:0.08082484;stroke-linecap:round;stroke-linejoin:round;stroke-miterlimit:4;stroke-dasharray:none;stroke-dashoffset:0;stroke-opacity:1;paint-order:normal"
             d="m 164.86919,151.07226 0.33672,2.17332 c -32.59313,0 -65.522988,-0.005 -98.116118,-0.005 v 0 -2.16799 0 z"
             id="path1263"
             inkscape:connector-curvature="0"
             sodipodi:nodetypes="ccccccc" />
          <path
             style="opacity:1;fill:#000000;fill-opacity:1;fill-rule:nonzero;stroke:none;stroke-width:0.08047364;stroke-linecap:round;stroke-linejoin:round;stroke-miterlimit:4;stroke-dasharray:none;stroke-dashoffset:0;stroke-opacity:1;paint-order:normal"
             d="m 164.01414,124.63279 0.3338,2.17332 c -32.3105,0 -64.954791,-0.005 -97.265288,-0.005 v 0 -2.16799 0 z"
             id="path1265"
             inkscape:connector-curvature="0"
             sodipodi:nodetypes="ccccccc" />
          <path
             sodipodi:nodetypes="ccccccc"
             inkscape:connector-curvature="0"
             id="path1267"
             d="m 164.82572,129.51276 0.37304,2.17332 c -36.1088,0 -72.59064,-0.005 -108.699441,-0.005 v 0 -2.16799 0 z"
             style="opacity:1;fill:#000000;fill-opacity:1;fill-rule:nonzero;stroke:none;stroke-width:0.08507233;stroke-linecap:round;stroke-linejoin:round;stroke-miterlimit:4;stroke-dasharray:none;stroke-dashoffset:0;stroke-opacity:1;paint-order:normal" />
        </g>
        <path
           style="opacity:1;fill:#000000;fill-opacity:1;fill-rule:nonzero;stroke:none;stroke-width:5.46843719;stroke-linecap:round;stroke-linejoin:miter;stroke-miterlimit:4;stroke-dasharray:none;stroke-dashoffset:0;stroke-opacity:1;paint-order:fill markers stroke"
           d="m 130.7026,-63.600455 c 0.12549,0.134974 0.24914,0.27165 0.37092,0.409976 0.43045,0.526483 0.83431,1.074162 1.21006,1.640985 0.37577,0.566829 0.72296,1.152098 1.04025,1.753608 0.31729,0.60151 0.6043,1.21851 0.85995,1.8487 0.25565,0.63017 0.47962,1.27273 0.67108,1.92527 0.19146,0.65255 0.35017,1.31428 0.47552,1.9827 0.12538,0.6684 0.21724,1.34264 0.27525,2.0202 0.058,0.6776 0.0821,1.35766 0.0722,2.03766 -0.01,0.67998 -0.0538,1.35904 -0.13163,2.03463 -0.0778,0.67561 -0.18926,1.3469 -0.33409,2.01137 -0.14482,0.66445 -0.32279,1.32125 -0.53323,1.96793 -0.21044,0.64667 -0.45308,1.28242 -0.72702,1.90486 -0.27395,0.62245 -0.57886,1.23081 -0.91358,1.8228 -0.33473,0.59198 -0.69883,1.16685 -1.09099,1.72246 -0.39214,0.55561 -0.81182,1.09126 -1.25748,1.60493 -0.31548,0.36364 -0.64372,0.71599 -0.98413,1.05639 -0.48088,0.48088 -0.9855,0.93741 -1.51199,1.36788 -0.52647,0.43047 -1.07413,0.83435 -1.64093,1.21011 -0.56683,0.37575 -1.15211,0.72292 -1.75362,1.04021 -0.60151,0.31729 -1.2185,0.60429 -1.84869,0.85994 -0.63017,0.25565 -1.27273,0.47962 -1.92527,0.67109 -0.65255,0.19145 -1.31428,0.35017 -1.9827,0.47552 -0.6684,0.12537 -1.34264,0.21724 -2.02021,0.27525 -0.67759,0.0579 -1.35765,0.0821 -2.03764,0.0722 -0.67999,-0.01 -1.35905,-0.0538 -2.03464,-0.13162 -0.67561,-0.0778 -1.3469,-0.18926 -2.01137,-0.33409 -0.66446,-0.14483 -1.32126,-0.3228 -1.96793,-0.53324 -0.64668,-0.21044 -1.28242,-0.45308 -1.90487,-0.72702 -0.62244,-0.27394 -1.2308,-0.57886 -1.8228,-0.91358 -0.59197,-0.33473 -1.16684,-0.69883 -1.72246,-1.09099 -0.55561,-0.39214 -1.09124,-0.81182 -1.60493,-1.25748 -0.36363,-0.31548 -0.71598,-0.64372 -1.05638,-0.98413 -0.48088,-0.48086 -0.937409,-0.98547 -1.36788,-1.51194 -0.430475,-0.52648 -0.834349,-1.07416 -1.210112,-1.64098 -0.375752,-0.56683 -0.722921,-1.1521 -1.040205,-1.75361 -0.317289,-0.60151 -0.604295,-1.21851 -0.859947,-1.8487 -0.255648,-0.63017 -0.479624,-1.27273 -0.671085,-1.92527 -0.19146,-0.65255 -0.350167,-1.31428 -0.475525,-1.9827 -0.125367,-0.66839 -0.21723,-1.34264 -0.275245,-2.0202 -0.058,-0.6776 -0.08209,-1.35766 -0.07215,-2.03765 0.0099,-0.67999 0.05387,-1.35904 0.131623,-2.03464 0.07776,-0.67561 0.189264,-1.3469 0.334086,-2.01137 0.144832,-0.66445 0.322803,-1.32126 0.533246,-1.96793 0.210431,-0.64667 0.45307,-1.28242 0.72701,-1.90486 0.273952,-0.62245 0.57886,-1.23081 0.913585,-1.8228 0.334717,-0.59198 0.69883,-1.166853 1.090976,-1.722462 0.352481,-0.493722 0.726815,-0.971465 1.121881,-1.43182 -5.087758,4.465002 -8.0096,10.902362 -8.020878,17.671512 0.0026,4.69355 1.406863,9.27937 4.032691,13.16967 -0.546928,-0.0385 -1.095034,-0.0579 -1.643317,-0.0582 -13.01395,0 -23.563846,10.54989 -23.563834,23.5638401 0.0013,0.58737 0.02496,1.17449 0.07036,1.76011 0.0072,-0.21021 0.01776,-0.42029 0.03152,-0.63017 0.06789,-0.67667 0.16958,-1.34952 0.304686,-2.0160301 0.135106,-0.66649 0.303466,-1.32583 0.504436,-1.97551 0.200981,-0.64969 0.434329,-1.28893 0.699169,-1.91531 0.264815,-0.62637 0.560791,-1.23911 0.886815,-1.83592 0.326039,-0.5968 0.681721,-1.17693 1.065712,-1.7382 0.383991,-0.56128 0.795813,-1.10301 1.233921,-1.62316 0.438106,-0.52013 0.901947,-1.01803 1.38979,-1.49181 0.48785,-0.47382 0.99909,-0.92294 1.531809,-1.34568 0.532712,-0.42272 1.086227,-0.81854 1.658477,-1.18596 0.572244,-0.36744 1.162508,-0.70603 1.768577,-1.0145 0.606073,-0.30849 1.227194,-0.58646 1.861036,-0.83289 0.633842,-0.24642 1.279612,-0.46099 1.934889,-0.6429 0.655275,-0.18192 1.319241,-0.33093 1.989404,-0.44652 0.670163,-0.11559 1.345691,-0.19759 2.024043,-0.24571 0.480212,-0.034 0.961479,-0.0511 1.442897,-0.0511 0.680057,10e-6 1.359685,0.034 2.036342,0.10194 0.676669,0.0679 1.349518,0.16958 2.016029,0.30468 0.666501,0.13512 1.325826,0.30347 1.975508,0.50444 0.649675,0.20097 1.288894,0.43431 1.915258,0.69912 0.626392,0.26483 1.239142,0.56082 1.835962,0.88686 0.5968,0.32604 1.17693,0.68173 1.7382,1.06572 0.56128,0.38399 1.10298,0.79581 1.62312,1.23392 0.52014,0.4381 1.01805,0.90195 1.49186,1.38979 0.4738,0.48783 0.9229,0.99906 1.34562,1.53176 0.42274,0.53271 0.81858,1.08622 1.18603,1.65848 0.36743,0.57226 0.70602,1.16253 1.01449,1.76862 0.30846,0.60607 0.58641,1.2272 0.83283,1.86103 0.24643,0.63385 0.461,1.27962 0.64292,1.93489 0.18191,0.65528 0.33096,1.31924 0.44655,1.9894201 0.1156,0.67016 0.1976,1.34568 0.24571,2.02404 0.034,0.48019 0.0511,0.96144 0.0511,1.44285 0,0.68005 -0.034,1.35968 -0.10189,2.03633 -0.0679,0.67667 -0.16959,1.34952 -0.30469,2.01603 -0.1351,0.6665 -0.30346,1.32583 -0.50443,1.97551 -0.20097,0.64969 -0.4343,1.28893 -0.69913,1.9153 -0.26482,0.62638 -0.56081,1.23912 -0.88686,1.83592 -0.32604,0.59681 -0.68172,1.17694 -1.06571,1.73821 -0.384,0.56128 -0.79581,1.10302 -1.23392,1.62316 -0.43811,0.52013 -0.90194,1.01802 -1.38979,1.49182 -0.48785,0.47381 -0.99909,0.92293 -1.53181,1.3456699 -0.53271,0.42272 -1.08623,0.81854 -1.65848,1.18596 -0.57225,0.36745 -1.1625,0.70604 -1.76857,1.01451 -0.606069,0.30848 -1.227189,0.58645 -1.861032,0.83288 -0.633843,0.24642 -1.279612,0.461 -1.93489,0.6429 -0.655277,0.18192 -1.31924,0.33095 -1.989404,0.44653 -0.602754,0.10082 -1.209735,0.1745 -1.819106,0.22082 0.505216,0.0416 1.011646,0.067 1.518497,0.076 9.019845,-0.008 17.243935,-5.1635999 21.180815,-13.2789399 3.9349,8.11121 12.15288,13.2663899 21.16815,13.2788799 0.55389,0 1.10761,-0.0197 1.66012,-0.0588 -0.65704,-0.0476 -1.31138,-0.12703 -1.96074,-0.23797 -0.67015,-0.1156 -1.33413,-0.26465 -1.98939,-0.44657 -0.65528,-0.18192 -1.30106,-0.39649 -1.93489,-0.64291 -0.63385,-0.24641 -1.25496,-0.52437 -1.86105,-0.83283 -0.60608,-0.30847 -1.19636,-0.64706 -1.76862,-1.01451 -0.57225,-0.36743 -1.12577,-0.76327 -1.65848,-1.18601 -0.53269,-0.4227199 -1.04392,-0.8718199 -1.53175,-1.3456199 -0.48785,-0.47381 -0.95169,-0.97172 -1.38979,-1.49187 -0.43811,-0.52015 -0.84993,-1.06187 -1.23392,-1.62316 -0.384,-0.56127 -0.73968,-1.1414 -1.06571,-1.73821 -0.32605,-0.5968 -0.62204,-1.20953 -0.88686,-1.83591 -0.26483,-0.62637 -0.49816,-1.26559 -0.69913,-1.91526 -0.20097,-0.6497 -0.36933,-1.30904 -0.50443,-1.97556 -0.13511,-0.66649 -0.2368,-1.33933 -0.30469,-2.01598 -0.0679,-0.67667 -0.10193,-1.35632 -0.10194,-2.03638 1e-5,-0.4814 0.0171,-0.96266 0.0511,-1.44285 0.0481,-0.67836 0.13011,-1.35389 0.24571,-2.02405 0.11557,-0.6701701 0.2646,-1.3341201 0.4465,-1.9894001 0.18192,-0.65528 0.39649,-1.30105 0.64292,-1.93489 0.24643,-0.63384 0.5244,-1.25497 0.83288,-1.86104 0.30848,-0.60607 0.64707,-1.19633 1.0145,-1.76857 0.36742,-0.57226 0.76325,-1.12577 1.18597,-1.65848 0.42274,-0.53272 0.87185,-1.04395 1.34566,-1.53181 0.47381,-0.48784 0.9717,-0.95169 1.49183,-1.38979 0.52014,-0.43811 1.06186,-0.84993 1.62316,-1.23392 0.56127,-0.38399 1.1414,-0.73968 1.73821,-1.06572 0.59679,-0.32603 1.20953,-0.62202 1.83591,-0.88686 0.62638,-0.26481 1.26562,-0.49815 1.91531,-0.69912 0.64968,-0.20096 1.309,-0.36932 1.97551,-0.50444 0.66651,-0.1351 1.33935,-0.23678 2.01602,-0.30468 0.67667,-0.0679 1.35629,-0.1019 2.03634,-0.10189 0.4814,-10e-6 0.96266,0.017 1.44285,0.051 0.67835,0.0481 1.35388,0.13012 2.02405,0.2457 0.67016,0.11561 1.33413,0.26464 1.9894,0.44657 0.65528,0.18191 1.30105,0.39648 1.93489,0.6429 0.63384,0.24642 1.25497,0.52438 1.86104,0.83284 0.60608,0.30847 1.19636,0.64706 1.76862,1.0145 0.57225,0.36744 1.12577,0.76327 1.65848,1.18601 0.5327,0.42273 1.04392,0.87183 1.53176,1.34563 0.48784,0.4738 0.95168,0.97171 1.38979,1.49187 0.4381,0.52013 0.84992,1.06184 1.23392,1.6231 0.38399,0.5613 0.73967,1.14144 1.06572,1.73825 0.32603,0.59682 0.62202,1.20955 0.88686,1.83592 0.26481,0.62638 0.49814,1.26559 0.69911,1.91528 0.20097,0.64969 0.36933,1.30903 0.50443,1.97554 0.13512,0.6664901 0.2368,1.3393301 0.3047,2.0159801 0.009,0.15106 0.0168,0.3022 0.0227,0.45342 0.0442,-0.52674 0.0706,-1.05484 0.0792,-1.58336 -2e-5,-13.0139301 -10.5499,-23.5637901 -23.56383,-23.5637901 -0.56013,0.008 -1.1198,0.036 -1.67792,0.0839 2.64297,-3.89361 4.05954,-8.48945 4.06724,-13.19538 -0.006,-6.83314 -2.97677,-13.32744 -8.14365,-17.799048 z"
           id="path958-1"
           inkscape:connector-curvature="0"
           sodipodi:nodetypes="cccccccccccccccccccccccccccccccsccccccccccccccccccccccccccccccccccccccccccccccccccccccsccscccccscccccccccccccccccccccccccccccccccccccccccccccccccccccccccccc" />
        <path
           style="fill:#ffff00;fill-opacity:1;stroke:#000000;stroke-width:4.55608368;stroke-linecap:butt;stroke-linejoin:miter;stroke-miterlimit:4;stroke-dasharray:none;stroke-opacity:1"
           d="m 83.009784,-3.0189959 c 11.336118,-35.1404601 56.652776,-30.0617201 63.867726,0.10219 -37.75501,6.23658 -52.448083,-34.4480601 -31.54125,-55.3356301 27.60032,31.12743 -7.09002,63.1493501 -32.326476,55.2334401 z"
           id="path1020-9"
           inkscape:connector-curvature="0"
           sodipodi:nodetypes="cccc" />
        <circle
           style="opacity:1;fill:#000000;fill-opacity:1;fill-rule:nonzero;stroke:none;stroke-width:0.23551065;stroke-linecap:round;stroke-linejoin:round;stroke-miterlimit:4;stroke-dasharray:none;stroke-dashoffset:0;stroke-opacity:1;paint-order:normal"
           id="path1436"
           cx="115.28274"
           cy="-21.860708"
           r="14.746494" />
        <path
           style="fill:#000000;stroke-width:0.13313501"
           d="m 111.82094,44.612474 c -1.27984,-0.0596 -4.79135,-0.41888 -6.39046,-0.65388 -3.38679,-0.49769 -7.204058,-1.40323 -10.680528,-2.53361 -24.58645,-7.99441 -42.25499,-29.35864 -45.49568,-55.01189 -2.16096,-17.10604 2.4611,-34.48175 12.84371,-48.283396 8.46588,-11.253721 20.30687,-19.53061 33.87994,-23.682176 8.785498,-2.687208 18.564868,-3.511238 27.683248,-2.332652 25.75147,3.328471 47.0176,21.009288 54.98962,45.718784 5.28501,16.38102 3.94555,34.2702701 -3.7282,49.7923801 -8.01066,16.2036199 -22.06244,28.3056999 -39.3371,33.8790099 -7.52344,2.42729 -15.62329,3.48642 -23.76455,3.10743 z m 9.11973,-10.61693 c 0.87869,-0.11163 1.6126,-0.20421 1.6309,-0.20574 0.0183,-0.002 0.0332,-1.67915 0.0332,-3.72802 v -3.72524 l 0.29956,-0.0646 c 0.16475,-0.0356 1.10834,-0.22233 2.09687,-0.41507 12.21049,-2.38069 23.48464,-9.90384 30.61259,-20.4275099 3.67587,-5.42705 6.20032,-11.48943 7.4626,-17.9211901 0.22042,-1.12304 0.40074,-2.07345 0.40074,-2.11202 0,-0.0386 1.5799,-0.0702 3.51088,-0.0702 h 3.51087 l 0.0845,-0.76552 c 0.46491,-4.21053 0.45385,-9.58843 -0.0268,-13.01392 l -0.0933,-0.66567 -3.51528,-0.0665 -3.51528,-0.0665 -0.29342,-1.59762 c -2.77573,-15.11326 -12.88989,-28.27763 -26.84565,-34.941719 -3.82002,-1.824117 -8.01335,-3.194414 -12.02463,-3.929409 l -1.59761,-0.292733 -0.0354,-3.749944 c -0.0194,-2.062467 -0.0494,-3.751195 -0.0665,-3.752727 -0.0171,-0.0015 -0.75014,-0.09253 -1.62883,-0.202234 -2.34591,-0.292863 -7.43378,-0.396729 -10.05166,-0.205198 -1.2082,0.0884 -2.33153,0.193394 -2.49629,0.233333 l -0.29955,0.07262 v 3.779907 c 0,2.078947 -0.0296,3.779906 -0.0657,3.779906 -0.30206,0 -3.9077,0.76089 -5.12011,1.080487 -6.529918,1.721309 -12.815948,4.888243 -18.081688,9.109661 -8.86466,7.10662 -15.12214,17.36034 -17.2618,28.28581 -0.1936,0.98852 -0.38108,1.93212 -0.41663,2.09687 l -0.0646,0.29956 h -3.99569 c -3.07729,0 -4.00883,0.0383 -4.05287,0.16641 -0.17185,0.50007 -0.35736,3.07799 -0.42393,5.8912 -0.068,2.87574 0.0309,5.33726 0.3118,7.7551 l 0.0812,0.69896 h 4.04228 c 2.22326,0 4.04228,0.0315 4.04228,0.0702 0,0.0386 0.18162,0.99556 0.4036,2.12663 2.47037,12.5873501 9.85594,23.73688 20.49855,30.94538 5.86923,3.97537 12.219188,6.49804 19.604108,7.78819 l 0.49925,0.0872 v 3.78227 3.78227 l 0.43269,0.0769 c 2.04695,0.36348 9.58634,0.36993 12.41481,0.0106 z m -17.66913,-2.2931 -0.0378,-1.4189 -1.46448,-0.38012 c -4.175448,-1.08377 -8.704998,-2.90287 -12.514668,-5.02599 -12.70435,-7.0801 -22.10014,-19.2095499 -25.73892,-33.2275599 l -0.38015,-1.46447 -1.61856,-0.0374 c -1.24655,-0.0288 -1.6184,0.002 -1.61789,0.13314 0.001,0.41661 1.10933,4.34596 1.737,6.16158 2.36094,6.82936 5.8816,12.95892 10.56421,18.3924999 1.45243,1.68535 4.84506,5.03463 6.47013,6.38742 6.98163,5.8119 14.98576,9.74458 24.030818,11.8071 0.61915,0.14117 0.61,0.16245 0.57033,-1.3273 z m 26.33778,0.62801 c 8.28195,-2.34987 15.32381,-6.08422 21.68504,-11.49972 1.47499,-1.2557 4.53471,-4.29638 5.85214,-5.81572 4.96798,-5.7293399 8.71002,-12.3440199 11.03391,-19.5042299 0.581,-1.79015 1.41791,-4.87309 1.42,-5.23093 9.6e-4,-0.12949 -0.26647,-0.16227 -1.08517,-0.13313 l -1.08617,0.0387 -0.38,1.46448 c -3.33064,12.83617 -11.52909,24.1735599 -22.71324,31.4094399 -4.69605,3.03823 -10.17755,5.45236 -15.54021,6.84408 l -1.46449,0.38007 -0.0381,1.2858 c -0.0351,1.18743 -0.0188,1.28581 0.2146,1.28581 0.13898,0 1.08475,-0.23609 2.10168,-0.52463 z m -66.191128,-67.34081 c 0.86622,-3.72224 2.98139,-9.04053 5.1229,-12.88077 7.08939,-12.71303 19.20727,-22.099667 33.228188,-25.738918 l 1.46448,-0.380119 0.0379,-1.430491 0.0379,-1.43049 -0.43731,0.08858 c -4.919368,0.996485 -11.049778,3.325643 -15.747818,5.983164 -2.29696,1.299312 -5.44544,3.430184 -7.52211,5.090919 -2.09894,1.678544 -5.62812,5.085495 -7.40303,7.146645 -5.59266,6.4946 -9.60816,14.12851 -11.77547,22.38655 -0.28826,1.09837 -0.52441,2.04196 -0.52478,2.09687 -3.6e-4,0.055 0.73727,0.0999 1.63918,0.0999 h 1.63984 z m 106.182218,0.93195 c -0.004,-0.36678 -0.93822,-3.67879 -1.58716,-5.62495 -2.97786,-8.93046 -7.96575,-16.69005 -14.93956,-23.241238 -6.66793,-6.263829 -14.58882,-10.655306 -23.86847,-13.233106 -2.09597,-0.582241 -1.95747,-0.646113 -1.91218,0.881812 l 0.0381,1.285801 1.46449,0.380072 c 16.25609,4.218898 29.54647,15.869259 36.02608,31.580499 0.74605,1.80897 1.97069,5.51668 2.32499,7.03916 l 0.24011,1.0318 h 1.10731 c 0.60902,0 1.10685,-0.0449 1.1063,-0.0999 z"
           id="path963"
           inkscape:connector-curvature="0" />
        <g
           aria-label="21"
           style="font-size:39.51110077px;line-height:1.25;font-family:'MS UI Gothic';-inkscape-font-specification:'MS UI Gothic';letter-spacing:0px;stroke:#fbfbfb;stroke-width:1.5;stroke-miterlimit:4;stroke-dasharray:none;stroke-opacity:1"
           id="text2534-1">
          <path
             d="M 112.58272,-7.6367159 H 93.775434 q -0.750711,0 -1.106311,-0.3160888 -0.316088,-0.3555999 -0.316088,-1.1063108 v -6.7959095 q 0,-2.291644 0.434622,-3.753554 0.474133,-1.501422 1.303866,-2.449689 0.829733,-0.948266 1.975555,-1.501421 1.145822,-0.553156 2.489199,-0.948267 l 5.294483,-1.659466 q 0.63218,-0.158045 0.82974,-0.474133 0.23706,-0.316089 0.23706,-0.948267 0,-0.592666 -0.23706,-0.790222 -0.23707,-0.237066 -0.82974,-0.237066 h -8.573904 q -0.750711,0 -1.106311,-0.316089 -0.316089,-0.3556 -0.316089,-1.106311 v -4.622799 q 0,-0.750711 0.316089,-1.0668 0.3556,-0.355599 1.106311,-0.355599 h 11.655774 q 3.35844,0 5.13644,1.698977 1.81751,1.659466 1.81751,4.859865 v 3.714044 q 0,2.963332 -1.65946,4.543776 -1.65947,1.580444 -4.50427,2.449689 l -5.37351,1.698977 q -0.59266,0.158044 -0.82973,0.3556 -0.19756,0.197555 -0.19756,0.829733 v 0.829733 h 11.26067 q 0.75071,0 1.0668,0.3556 0.3556,0.316089 0.3556,1.0668 v 4.6227985 q 0,0.7507109 -0.3556,1.1063108 -0.31609,0.3160888 -1.0668,0.3160888 z"
             style="font-style:normal;font-variant:normal;font-weight:normal;font-stretch:normal;font-size:39.51110077px;font-family:bungee;-inkscape-font-specification:bungee;stroke:#fbfbfb;stroke-width:1.5;stroke-miterlimit:4;stroke-dasharray:none;stroke-opacity:1"
             id="path4968" />
          <path
             d="m 136.79006,-7.6367159 h -17.46391 q -0.75071,0 -1.10631,-0.3160888 -0.31609,-0.3555999 -0.31609,-1.1063108 v -4.7808435 q 0,-0.750711 0.31609,-1.066799 0.3556,-0.3556 1.10631,-0.3556 h 4.42525 v -13.196708 h -3.63503 q -0.75071,0 -1.10631,-0.316089 -0.31609,-0.3556 -0.31609,-1.106311 v -4.780843 q 0,-0.750711 0.31609,-1.0668 0.3556,-0.355599 1.10631,-0.355599 h 11.45822 q 0.75071,0 1.0668,0.355599 0.3556,0.316089 0.3556,1.0668 v 19.399951 h 3.79307 q 0.75071,0 1.0668,0.3556 0.3556,0.316088 0.3556,1.066799 v 4.7808435 q 0,0.7507109 -0.3556,1.1063108 -0.31609,0.3160888 -1.0668,0.3160888 z"
             style="font-style:normal;font-variant:normal;font-weight:normal;font-stretch:normal;font-size:39.51110077px;font-family:bungee;-inkscape-font-specification:bungee;stroke:#fbfbfb;stroke-width:1.5;stroke-miterlimit:4;stroke-dasharray:none;stroke-opacity:1"
             id="path4970" />
        </g>
      </g>
    </g>
  </g>
</svg>
