<?xml version="1.0" encoding="UTF-8"?>
<!-- Created with Inkscape (http://www.inkscape.org/) -->
<svg width="133.1mm" height="133.1mm" version="1.1" viewBox="0 0 133.1 133.1" xmlns="http://www.w3.org/2000/svg" xmlns:cc="http://creativecommons.org/ns#" xmlns:dc="http://purl.org/dc/elements/1.1/" xmlns:rdf="http://www.w3.org/1999/02/22-rdf-syntax-ns#">
 <title>Area-314</title>
 <defs>
  <clipPath id="clipPath13539">
   <path d="m116.31 197.46-1.3218-0.16474-0.23374-8.3042-3.6996-0.93063c-14.803-3.7237-27.323-13.835-34.312-27.711-2.083-4.1357-4.2658-10.419-4.7481-13.668l-0.28987-1.9526h-10.183v-15.595l10.046-0.23084 0.34354-1.8498c0.74175-3.9941 2.9487-10.275 5.0555-14.387 5.1714-10.095 13.022-17.945 23.052-23.052 4.0131-2.0432 10.178-4.2442 13.276-4.7395l1.6647-0.2662v-8.4155l1.9072-0.26141c1.0489-0.14377 4.4646-0.26141 7.5903-0.26141h5.6832l0.2343 8.4248 1.8498 0.3325c12.318 2.2142 22.102 7.3948 30.261 16.024 6.7141 7.1008 11.233 15.663 13.281 25.163l0.70895 3.2885 8.2505 0.23303 0.26265 2.5129c0.33196 3.176 0.33014 6.7543-5e-3 10.305l-0.26205 2.7747h-8.326l-0.52274 2.7556c-2.8174 14.852-13.648 29.07-27.635 36.278-5.3612 2.7627-8.4142 3.7589-17.144 5.5937-0.88439 0.18588-0.9249 0.37408-0.9249 4.2972l-2e-5 4.1028-6.2687-0.0658c-3.4478-0.0362-6.8636-0.13991-7.5906-0.23052z" fill="none" stroke="#f00" stroke-linecap="round" stroke-width=".5" style="paint-order:fill markers stroke"/>
  </clipPath>
  <clipPath id="clipPath13543">
   <path d="m116.31 197.46-1.3218-0.16474-0.23374-8.3042-3.6996-0.93063c-14.803-3.7237-27.323-13.835-34.312-27.711-2.083-4.1357-4.2658-10.419-4.7481-13.668l-0.28987-1.9526h-10.183v-15.595l10.046-0.23084 0.34354-1.8498c0.74175-3.9941 2.9487-10.275 5.0555-14.387 5.1714-10.095 13.022-17.945 23.052-23.052 4.0131-2.0432 10.178-4.2442 13.276-4.7395l1.6647-0.2662v-8.4155l1.9072-0.26141c1.0489-0.14377 4.4646-0.26141 7.5903-0.26141h5.6832l0.2343 8.4248 1.8498 0.3325c12.318 2.2142 22.102 7.3948 30.261 16.024 6.7141 7.1008 11.233 15.663 13.281 25.163l0.70895 3.2885 8.2505 0.23303 0.26265 2.5129c0.33196 3.176 0.33014 6.7543-5e-3 10.305l-0.26205 2.7747h-8.326l-0.52274 2.7556c-2.8174 14.852-13.648 29.07-27.635 36.278-5.3612 2.7627-8.4142 3.7589-17.144 5.5937-0.88439 0.18588-0.9249 0.37408-0.9249 4.2972l-2e-5 4.1028-6.2687-0.0658c-3.4478-0.0362-6.8636-0.13991-7.5906-0.23052z" fill="none" stroke="#f00" stroke-linecap="round" stroke-width=".5" style="paint-order:fill markers stroke"/>
  </clipPath>
 </defs>
 <metadata>
  <rdf:RDF>
   <cc:Work rdf:about="">
    <dc:format>image/svg+xml</dc:format>
    <dc:type rdf:resource="http://purl.org/dc/dcmitype/StillImage"/>
    <dc:title>Area-314</dc:title>
   </cc:Work>
  </rdf:RDF>
 </metadata>
 <path transform="translate(-57.427,-70.189)" d="m123.51 80.444h67.66v112.26h-67.66z" clip-path="url(#clipPath13543)" fill="#fff" stroke-width=".017118"/>
 <path transform="translate(-57.427,-70.189)" d="m58.121 80.444 65.327-0.45375 0.06482 112.71h-65.392z" clip-path="url(#clipPath13539)" fill="#fdd500" stroke-width=".016829"/>
 <g fill="#d51516" stroke="#000">
  <path transform="scale(.26458)" d="m197.83 372.46c-6.3004 0.01-14.353 1.531-16.209 5.0371h4e-3c-7.608 13.398-9.7308 39.801-10.48 56.189 10.821 4.9555 22.121 8.9629 33.807 11.902l6.4108 1.807 2.8864 25.249c16.215 0.43151 41.68-1.8068 63.675-2.2282 0.0706-10.256-0.17646-19.313 2.766-19.932 18.051-3.794 32.29-10.63 42.439-14.139 0.88796-1.2541-0.85913 1.409 0 0 7.6981-12.257-15.793-58.928-37.479-55-36.064 6.6002-68.278-7.6222-85.25-8.8008-0.80537-0.0589-1.6703-0.0873-2.5703-0.0859z" stroke-width="6.0472"/>
  <g stroke-width="1.6">
   <path d="m47.013 86.08c1.3928-1.8502 3.9914-1.3305 7.0889-1.1018 4.2201 0.1871 13.492-3.347 19.645-3.2846 3.742 0.14552 6.6316 1.6423 6.5484 5.0309-0.12473 2.6818 0.14552 9.1054-1.5384 12.743-0.99786 2.3699-15.488 1.9126-22.14-0.47814-1.9334-0.68603-9.147 0.64445-9.9786-0.60287-0.95629-1.3305-1.5592-9.7499 0.3742-12.307z"/>
   <path d="m54.753 64.29c3.6588 0.41577 18.149 0.16631 23.574 0.89391 3.7004 0.5613 3.6588 13.18 1.9334 15.134-1.8918 2.1828-11.039 0.74839-16.111 2.2452-4.823 1.372-5.218 2.8688-14.24 1.8502 2.2452-11.912 0.83155-20.622 4.8438-20.123z"/>
   <path d="m26.975 45.96c18.045 2.0997 54.362 1.9334 79.35 2.5778 2.3699 0.29104-1.7255 6.3821-2.7441 8.856-0.99786 2.4739-1.185 7.9829-6.9642 7.8373-21.225-0.62366-40.455-1.2057-61.098-1.8502-7.5047-0.22868-13.305-17.941-8.5442-17.421z"/>
  </g>
  <path d="m65.611 10.858c1.7396 0.30397 9.3776 8.3494 10.082 10.27 0.58212 1.9889-1.1449 19.491-3.1909 25.324-4.1781 1.0994-10.952 0.81956-14.885-0.18869-0.83558-1.5796-3.3078-22.49-2.708-25.578 0.70665-1.5189 9.1338-9.5097 10.702-9.8277z" stroke-width="1.6064"/>
 </g>
 <path d="m63.073 133.34c-1.2859-0.0599-4.8141-0.42087-6.4208-0.65698-3.4028-0.50006-7.2382-1.4099-10.731-2.5456-24.703-8.0323-42.455-29.498-45.711-55.273-2.1712-17.187 2.4728-34.645 12.905-48.512 8.506-11.307 20.403-19.623 34.041-23.794 8.8272-2.7 18.653-3.5279 27.815-2.3437 25.874 3.3443 47.241 21.109 55.25 45.936 5.3101 16.459 3.9643 34.433-3.7459 50.028-8.0486 16.28-22.167 28.44-39.524 34.04-7.5591 2.4388-15.697 3.503-23.877 3.1222zm8.7951-10.557 0.70227-0.0859v-7.5655l0.70227-0.091c2.7118-0.35137 7.314-1.4925 9.9902-2.4771 6.8778-2.5303 12.768-6.3136 18.001-11.563 5.8527-5.8704 10.115-13.141 12.358-21.078 0.55612-1.9684 1.2189-4.9939 1.2189-5.5641v-0.31397l7.6916-0.071 0.16162-1.3377c0.38227-3.164 0.35485-9.6097-0.0536-12.607l-0.0775-0.56851h-7.5832l-0.0547-0.30098c-0.564-3.1054-0.87435-4.5184-1.3589-6.1867-4.4095-15.181-15.752-27.219-30.687-32.569-3.1566-1.1308-6.7416-1.9744-8.9369-2.1031l-1.3711-0.08036v-7.8279l-1.1704-0.11233c-2.1397-0.20535-8.8582-0.12307-11.069 0.13557-1.1036 0.1291-2.0817 0.25968-2.1737 0.29019-0.12854 0.04262-0.1672 0.93387-0.1672 3.8537v3.7982l-1.1705 0.22653c-6.3319 1.2255-13.06 4.1439-18.592 8.0643-10.305 7.3028-17.417 18.398-19.768 30.839l-0.37284 1.973h-9.1909l0.0692 14.514 9.1959 0.1338 0.43121 2.1403c2.5269 12.542 9.9138 23.629 20.537 30.825 5.177 3.5065 11.259 6.1058 17.13 7.3204l1.7315 0.35826v7.6672l2.3075 0.22668c1.2691 0.12468 2.5182 0.24982 2.7756 0.27808 0.69222 0.076 7.9784-0.0397 8.7951-0.13966zm8.186-1.4089c8.4467-2.0545 16.696-6.3167 23.369-12.075 1.7192-1.4833 5.0928-4.8981 6.421-6.4993 5.3934-6.5018 9.3835-14.261 11.35-22.071 0.19449-0.7725 0.38344-1.5099 0.4199-1.6386 0.0601-0.21225-0.0643-0.23409-1.3329-0.23409h-1.3992l-0.23288 0.9698c-0.91988 3.8306-3.0131 9.0754-5.1384 12.875-7.2669 12.991-19.37 22.286-33.784 25.945l-2.274 0.57717-0.0766 2.7376 0.50648-0.0905c0.27856-0.0498 1.2557-0.27274 2.1714-0.49547zm-26.88-1.3537v-1.373l-1.6438-0.4887c-15.938-4.7384-28.433-16.002-34.754-31.327-0.71738-1.7395-1.9566-5.4748-2.3243-7.0057l-0.23289-0.9698h-1.3992c-1.2686 0-1.393 0.0218-1.3329 0.23409 0.0365 0.12875 0.22541 0.86613 0.4199 1.6386 1.8565 7.374 5.6292 14.908 10.583 21.135 1.8593 2.337 6.4093 6.8871 8.7463 8.7463 6.0062 4.7783 12.679 8.1886 20.321 10.387 0.70504 0.20276 1.3572 0.37502 1.4491 0.3828 0.12383 0.0105 0.16721-0.34208 0.16721-1.3588zm-38.939-65.878c0.072-0.27589 0.22924-0.89289 0.34954-1.3711 0.93311-3.7094 2.9414-8.6759 5.0032-12.373 6.8859-12.348 18.214-21.377 31.943-25.458l1.6438-0.4887v-1.373c0-0.75514-0.0345-1.373-0.0768-1.373-0.23883 0-3.5967 1.0101-5.1401 1.5463-5.9779 2.0766-11.725 5.2505-16.721 9.235-2.3236 1.8531-6.8944 6.4227-8.7254 8.723-5.2974 6.6555-8.9543 14.167-10.937 22.465l-0.23174 0.9698h2.762zm107.29-0.46818c-2.1448-8.976-6.281-17.096-12.224-23.998-1.7928-2.0819-5.3376-5.5015-7.4381-7.1755-5.4096-4.311-11.042-7.3628-17.59-9.5314-2.2694-0.75151-4.9668-1.4861-6.3922-1.7409l-0.50648-0.09051 0.0766 2.7376 2.274 0.57718c16.628 4.2205 30.015 15.852 36.589 31.791 0.68399 1.6584 1.8357 5.073 2.2014 6.5267 0.12029 0.47821 0.27759 1.0952 0.34955 1.3711l0.13082 0.50162h2.762z" stroke-width=".13377"/>
 <g transform="translate(-57.427,-70.189)" fill="#fff" fill-rule="evenodd" stroke-width="0">
  <path d="m69.145 124.26c0-1.1747 2.7578-8.8962 4.3455-12.167 2.7344-5.6327 5.973-10.115 10.756-14.887 6.5981-6.582 13.57-10.942 22.068-13.8l3.8408-1.2917 0.12404 0.9804c0.16039 1.2677-1e-3 1.3908-3.1478 2.3959-12.352 3.9457-23.925 13.488-30.197 24.898-1.9633 3.5717-4.0254 8.5499-4.993 12.054-0.60458 2.1891-0.73101 2.3624-1.7244 2.3624-0.68193 0-1.072-0.1984-1.072-0.54529z" style="paint-order:stroke fill markers"/>
  <path d="m106.75 190.22c-4.3841-1.5209-8.1657-3.2434-11.689-5.3244-8.6077-5.0842-16.781-13.897-21.39-23.064-1.3361-2.6573-3.6842-8.91-4.2989-11.447-0.24468-1.01-0.19772-1.0583 0.91866-0.94494 1.1354 0.11527 1.2197 0.25291 2.414 3.9414 5.2162 16.11 17.32 28.469 33.478 34.185 3.8124 1.3485 3.9734 1.4502 4.0872 2.5817 0.0651 0.64787-0.0199 1.1651-0.18899 1.1495s-1.6681-0.5005-3.3312-1.0774z" style="paint-order:stroke fill markers"/>
  <path d="m175.77 121.84c-3.5066-12.136-11.156-22.727-21.374-29.596-5.5094-3.7035-11.742-6.503-17.502-7.8618-1.8509-0.43663-1.9844-0.54464-1.9844-1.6064 0-1.109 0.0364-1.1317 1.4174-0.88147 2.6873 0.48693 9.3636 2.8967 12.757 4.6044 5.6078 2.8224 9.5189 5.6839 14.391 10.529 6.7942 6.7566 10.791 13.151 13.79 22.065 1.8026 5.3568 1.8296 5.7184 0.42684 5.7184-1.0029 0-1.1123-0.16906-1.9219-2.9708z" style="paint-order:stroke fill markers"/>
  <path d="m134.91 190.62c0-0.87184 0.17367-1.1837 0.66146-1.1878 0.3638-3e-3 2.6719-0.68205 5.1291-1.5089 16.893-5.6843 29.039-17.914 34.677-34.915 1.1539-3.4798 1.2524-3.6356 2.299-3.6356 0.99905 0 1.0727 0.0897 0.85319 1.0394-1.1878 5.1402-4.655 12.79-8.1315 17.942-3.2192 4.7704-10.412 11.925-15.043 14.963-5.9766 3.9206-14.165 7.4814-18.973 8.2502-1.447 0.23139-1.4719 0.21538-1.4719-0.94686z" style="paint-order:stroke fill markers"/>
 </g>
 <g stroke="#fff" stroke-width="1.5" aria-label="314">
  <path d="m32.432 73.306c-0.98778 0-1.4224 0.43462-1.4224 1.4224v4.6228c0 0.98778 0.43462 1.4224 1.4224 1.4224h12.485c5.0574 0 7.6651-2.4892 7.6651-6.5588v-3.9511c0-3.477-1.2248-5.2945-4.9784-5.7291 1.7385-0.75071 2.3311-2.2521 2.3311-4.2672v-2.2916c0-3.477-2.0941-5.6501-6.4798-5.6501h-11.024c-0.98778 0-1.4224 0.43462-1.4224 1.4224v4.7018c0 0.98778 0.43462 1.4224 1.4224 1.4224h7.349c1.2644 0 1.5014 0.55315 1.5014 1.1853v0.59266c0 0.63218-0.23707 1.1853-1.5014 1.1853h-4.1487c-0.98778 0-1.4224 0.43462-1.4224 1.4224v4.2277c0 0.98778 0.43462 1.4224 1.4224 1.4224h6.7169c1.2644 0 1.5014 0.51364 1.5014 1.1458v1.0668c0 0.63218-0.23707 1.1853-1.5014 1.1853z"/>
  <path d="m75.025 80.773c0.98778 0 1.4224-0.43462 1.4224-1.4224v-4.7808c0-0.98778-0.43462-1.4224-1.4224-1.4224h-3.7931v-19.4c0-0.98778-0.43462-1.4224-1.4224-1.4224h-11.458c-0.98778 0-1.4224 0.43462-1.4224 1.4224v4.7808c0 0.98778 0.43462 1.4224 1.4224 1.4224h3.635v13.197h-4.4252c-0.98778 0-1.4224 0.43462-1.4224 1.4224v4.7808c0 0.98778 0.43462 1.4224 1.4224 1.4224z"/>
  <path d="m93.16 74.175v5.1759c0 0.98778 0.43462 1.4224 1.4224 1.4224h6.0847c0.98778 0 1.4224-0.43462 1.4224-1.4224v-25.603c0-0.98778-0.43462-1.4224-1.4224-1.4224h-6.0847c-0.98778 0-1.4224 0.43462-1.4224 1.4224v12.169h-3.6745c-0.75071 0-1.2248-0.51364-1.2248-1.3434v-10.826c0-0.98778-0.43462-1.4224-1.4224-1.4224h-6.1242c-0.98778 0-1.4224 0.43462-1.4224 1.4224v13.868c0 4.5043 2.0546 6.5588 7.191 6.5588z"/>
 </g>
</svg>
