<?xml version="1.0" encoding="UTF-8"?>
<!-- Created with Inkscape (http://www.inkscape.org/) -->
<svg width="133.1mm" height="133.1mm" version="1.1" viewBox="0 0 133.1 133.1" xmlns="http://www.w3.org/2000/svg" xmlns:cc="http://creativecommons.org/ns#" xmlns:dc="http://purl.org/dc/elements/1.1/" xmlns:rdf="http://www.w3.org/1999/02/22-rdf-syntax-ns#">
 <metadata>
  <rdf:RDF>
   <cc:Work rdf:about="">
    <dc:format>image/svg+xml</dc:format>
    <dc:type rdf:resource="http://purl.org/dc/dcmitype/StillImage"/>
   </cc:Work>
  </rdf:RDF>
 </metadata>
 <g transform="translate(-57.427 -70.189)">
  <path d="m116.31 197.46-1.3218-0.16474-0.23374-8.3042-3.6996-0.93063c-14.803-3.7237-27.323-13.835-34.312-27.711-2.083-4.1357-4.2658-10.419-4.7481-13.668l-0.28987-1.9526h-10.183v-15.595l10.046-0.23084 0.34354-1.8498c0.74175-3.9941 2.9487-10.275 5.0555-14.387 5.1714-10.095 13.022-17.945 23.052-23.052 4.0131-2.0432 10.178-4.2442 13.276-4.7395l1.6647-0.2662v-8.4155l1.9072-0.26141c1.0489-0.14377 4.4646-0.26141 7.5903-0.26141h5.6832l0.2343 8.4248 1.8498 0.3325c12.318 2.2142 22.102 7.3948 30.261 16.024 6.7141 7.1008 11.233 15.663 13.281 25.163l0.70895 3.2885 8.2505 0.23303 0.26265 2.5129c0.33196 3.176 0.33014 6.7543-5e-3 10.305l-0.26205 2.7747h-8.326l-0.52274 2.7556c-2.8174 14.852-13.648 29.07-27.635 36.278-5.3612 2.7627-8.4142 3.7589-17.144 5.5937-0.88439 0.18588-0.9249 0.37408-0.9249 4.2972l-2e-5 4.1028-6.2687-0.0658c-3.4478-0.0362-6.8636-0.13991-7.5906-0.23052z" fill="#d2d2d9" fill-rule="evenodd" stroke-width="0" style="paint-order:stroke fill markers"/>
  <path d="m120.5 203.53c-1.2859-0.0599-4.8141-0.42087-6.4208-0.65698-3.4028-0.50006-7.2382-1.4099-10.731-2.5456-24.703-8.0323-42.455-29.498-45.711-55.273-2.1712-17.187 2.4728-34.645 12.905-48.512 8.506-11.307 20.403-19.623 34.041-23.794 8.8272-2.7 18.653-3.5279 27.815-2.3437 25.874 3.3443 47.241 21.109 55.25 45.936 5.3101 16.459 3.9643 34.433-3.7459 50.028-8.0486 16.28-22.167 28.44-39.524 34.04-7.5591 2.4388-15.697 3.503-23.877 3.1222zm8.7951-10.557 0.70227-0.0859v-7.5655l0.70227-0.091c2.7118-0.35137 7.314-1.4925 9.9902-2.4771 6.8778-2.5303 12.768-6.3136 18.001-11.563 5.8527-5.8704 10.115-13.141 12.358-21.078 0.55612-1.9684 1.2189-4.9939 1.2189-5.5641v-0.31397l7.6916-0.071 0.16162-1.3377c0.38227-3.164 0.35485-9.6097-0.0536-12.607l-0.0775-0.56851h-7.5832l-0.0547-0.30098c-0.564-3.1054-0.87435-4.5184-1.3589-6.1867-4.4095-15.181-15.752-27.219-30.687-32.569-3.1566-1.1308-6.7416-1.9744-8.9369-2.1031l-1.3711-0.08036v-7.8279l-1.1704-0.11233c-2.1397-0.20535-8.8582-0.12307-11.069 0.13557-1.1036 0.1291-2.0817 0.25968-2.1737 0.29019-0.12854 0.04262-0.1672 0.93387-0.1672 3.8537v3.7982l-1.1705 0.22653c-6.3319 1.2255-13.06 4.1439-18.592 8.0643-10.305 7.3028-17.417 18.398-19.768 30.839l-0.37284 1.973h-9.1909l0.0692 14.514 9.1959 0.1338 0.43121 2.1403c2.5269 12.542 9.9138 23.629 20.537 30.825 5.177 3.5065 11.259 6.1058 17.13 7.3204l1.7315 0.35826v7.6672l2.3075 0.22668c1.2691 0.12468 2.5182 0.24982 2.7756 0.27808 0.69222 0.076 7.9784-0.0397 8.7951-0.13966zm8.186-1.4089c8.4467-2.0545 16.696-6.3167 23.369-12.075 1.7192-1.4833 5.0928-4.8981 6.421-6.4993 5.3934-6.5018 9.3835-14.261 11.35-22.071 0.19449-0.7725 0.38344-1.5099 0.4199-1.6386 0.0601-0.21225-0.0643-0.23409-1.3329-0.23409h-1.3992l-0.23288 0.9698c-0.91988 3.8306-3.0131 9.0754-5.1384 12.875-7.2669 12.991-19.37 22.286-33.784 25.945l-2.274 0.57717-0.0766 2.7376 0.50648-0.0905c0.27856-0.0498 1.2557-0.27274 2.1714-0.49547zm-26.88-1.3537v-1.373l-1.6438-0.4887c-15.938-4.7384-28.433-16.002-34.754-31.327-0.71738-1.7395-1.9566-5.4748-2.3243-7.0057l-0.23289-0.9698h-1.3992c-1.2686 0-1.393 0.0218-1.3329 0.23409 0.0365 0.12875 0.22541 0.86613 0.4199 1.6386 1.8565 7.374 5.6292 14.908 10.583 21.135 1.8593 2.337 6.4093 6.8871 8.7463 8.7463 6.0062 4.7783 12.679 8.1886 20.321 10.387 0.70504 0.20276 1.3572 0.37502 1.4491 0.3828 0.12383 0.0105 0.16721-0.34208 0.16721-1.3588zm-38.939-65.878c0.072-0.27589 0.22924-0.89289 0.34954-1.3711 0.93311-3.7094 2.9414-8.6759 5.0032-12.373 6.8859-12.348 18.214-21.377 31.943-25.458l1.6438-0.4887v-1.373c0-0.75514-0.0345-1.373-0.0768-1.373-0.23883 0-3.5967 1.0101-5.1401 1.5463-5.9779 2.0766-11.725 5.2505-16.721 9.235-2.3236 1.8531-6.8944 6.4227-8.7254 8.723-5.2974 6.6555-8.9543 14.167-10.937 22.465l-0.23174 0.9698h2.762zm107.29-0.46818c-2.1448-8.976-6.281-17.096-12.224-23.998-1.7928-2.0819-5.3376-5.5015-7.4381-7.1755-5.4096-4.311-11.042-7.3628-17.59-9.5314-2.2694-0.75151-4.9668-1.4861-6.3922-1.7409l-0.50648-0.09051 0.0766 2.7376 2.274 0.57718c16.628 4.2205 30.015 15.852 36.589 31.791 0.68399 1.6584 1.8357 5.073 2.2014 6.5267 0.12029 0.47821 0.27759 1.0952 0.34955 1.3711l0.13082 0.50162h2.762z" stroke-width=".13377"/>
  <g fill-rule="evenodd">
   <g fill="#fff" stroke-width="0">
    <path d="m69.145 124.26c0-1.1747 2.7578-8.8962 4.3455-12.167 2.7344-5.6327 5.973-10.115 10.756-14.887 6.5981-6.582 13.57-10.942 22.068-13.8l3.8408-1.2917 0.12404 0.9804c0.16039 1.2677-1e-3 1.3908-3.1478 2.3959-12.352 3.9457-23.925 13.488-30.197 24.898-1.9633 3.5717-4.0254 8.5499-4.993 12.054-0.60458 2.1891-0.73101 2.3624-1.7244 2.3624-0.68193 0-1.072-0.1984-1.072-0.54529z" style="paint-order:stroke fill markers"/>
    <path d="m106.75 190.22c-4.3841-1.5209-8.1657-3.2434-11.689-5.3244-8.6077-5.0842-16.781-13.897-21.39-23.064-1.3361-2.6573-3.6842-8.91-4.2989-11.447-0.24468-1.01-0.19772-1.0583 0.91866-0.94494 1.1354 0.11527 1.2197 0.25291 2.414 3.9414 5.2162 16.11 17.32 28.469 33.478 34.185 3.8124 1.3485 3.9734 1.4502 4.0872 2.5817 0.0651 0.64787-0.0199 1.1651-0.18899 1.1495s-1.6681-0.5005-3.3312-1.0774z" style="paint-order:stroke fill markers"/>
    <path d="m175.77 121.84c-3.5066-12.136-11.156-22.727-21.374-29.596-5.5094-3.7035-11.742-6.503-17.502-7.8618-1.8509-0.43663-1.9844-0.54464-1.9844-1.6064 0-1.109 0.0364-1.1317 1.4174-0.88147 2.6873 0.48693 9.3636 2.8967 12.757 4.6044 5.6078 2.8224 9.5189 5.6839 14.391 10.529 6.7942 6.7566 10.791 13.151 13.79 22.065 1.8026 5.3568 1.8296 5.7184 0.42684 5.7184-1.0029 0-1.1123-0.16906-1.9219-2.9708z" style="paint-order:stroke fill markers"/>
    <path d="m134.91 190.62c0-0.87184 0.17367-1.1837 0.66146-1.1878 0.3638-3e-3 2.6719-0.68205 5.1291-1.5089 16.893-5.6843 29.039-17.914 34.677-34.915 1.1539-3.4798 1.2524-3.6356 2.299-3.6356 0.99905 0 1.0727 0.0897 0.85319 1.0394-1.1878 5.1402-4.655 12.79-8.1315 17.942-3.2192 4.7704-10.412 11.925-15.043 14.963-5.9766 3.9206-14.165 7.4814-18.973 8.2502-1.447 0.23139-1.4719 0.21538-1.4719-0.94686z" style="paint-order:stroke fill markers"/>
   </g>
   <path d="m122.13 191.98c-1.1382-0.22498-1.7756-0.82939-1.9964-1.8934-0.25867-1.246 0.11022-2.3852 1.0754-3.3214 0.49711-0.48212 0.62913-0.70368 0.74677-1.2533 0.32233-1.506 0.38752-6.3698 0.35298-26.335l-0.0353-20.402-1.7365 2.7519c-2.6881 4.2598-3.6142 5.9081-3.9506 7.0313-0.13754 0.45914-0.12607 0.57817 0.10819 1.1227 0.47626 1.1071 0.2696 3.1642-0.37912 3.7736-0.48867 0.45909-1.188 0.67767-2.1808 0.68166-1.8391 7e-3 -2.6692-0.77535-2.7758-2.6174-0.0472-0.81545-0.0135-1.032 0.25028-1.6082 0.44633-0.97491 1.2318-1.4382 2.4384-1.4382 1.3841 0 1.6179-0.28963 6.3126-7.8226 1.0684-1.7143 1.919-3.1581 1.8902-3.2085-0.0287-0.0504-3.7067-0.0917-8.1732-0.0917h-8.121v36.932l0.96624 0.90896c1.0088 0.94898 1.595 1.7524 1.8389 2.52 0.1232 0.38777 0.10992 0.53072-0.0916 0.98637-0.63926 1.4451-2.5961 2.3838-4.0022 1.9197-0.7189-0.23726-1.4733-1.0745-1.7139-1.902-0.3851-1.3247 8e-3 -2.4194 1.1908-3.3178 0.78003-0.59235 0.89575-0.83665 1.094-2.3098 0.0837-0.62154 0.15175-7.1348 0.19181-18.351l0.0621-17.387h-11.238l0.0504 11.337c0.0277 6.2352 0.10025 11.947 0.16124 12.694 0.13878 1.6983 0.35503 2.2663 1.043 2.7397 1.064 0.73208 1.3746 2.1757 0.74483 3.4629-0.68426 1.3986-2.15 1.9156-3.5641 1.2571-1.0154-0.47283-1.63-1.3663-1.7348-2.5219-0.0818-0.90221 0.16365-1.4245 1.0088-2.1466 0.35362-0.30211 0.70352-0.69903 0.77757-0.88204 0.36318-0.89769 0.40947-2.2792 0.46888-13.992l0.0606-11.948h-10.021l-0.0896 3.3449c-0.11489 4.2895-0.0149 9.6086 0.19448 10.343 0.11573 0.4062 0.35378 0.73952 0.91653 1.2834 0.41811 0.40408 0.85699 0.9272 0.97528 1.1625 0.2995 0.59571 0.28142 1.6414-0.0392 2.2667-0.56196 1.096-1.9907 1.9995-2.9226 1.8483-1.2465-0.20228-2.2555-1.3705-2.3408-2.7102-0.0704-1.1056 0.1309-1.587 1.022-2.4437 0.50169-0.48237 0.81625-0.9007 0.91906-1.2223 0.11637-0.36395 0.16899-2.202 0.20587-7.1914l0.0495-6.7024-3.89 0.0523c-4.2688 0.0574-4.6617 0.11326-5.0161 0.71325-0.45912 0.77722-1.9373 1.4246-2.8906 1.2659-1.4715-0.24494-2.5225-1.4391-2.5225-2.8661 0-0.77116 0.21545-1.2986 0.79038-1.935 1.1058-1.224 2.3645-1.1135 4.0374 0.35445 1.3556 1.1895 2.0265 1.3266 6.5179 1.3323l2.973 4e-3 -0.0491-6.142c-0.036-4.5114-0.0903-6.2718-0.20442-6.6309-0.0998-0.31408-0.38958-0.70746-0.81035-1.1001-0.86781-0.80969-1.203-1.5624-1.1974-2.689 7e-3 -1.3436 0.51071-2.1365 1.5556-2.4468 0.78064-0.23183 1.6994-0.23052 2.4875 4e-3 1.1358 0.33731 1.7228 1.3725 1.5769 2.7809-0.0997 0.96237-0.45358 1.6073-1.3606 2.4799-0.49801 0.4791-0.82397 0.90965-0.9254 1.2223-0.11573 0.35674-0.16896 2.0531-0.20403 6.5024l-0.0474 6.0198h10.284l-7e-3 -8.4032c-9e-3 -10.437-0.13663-15.478-0.41538-16.38-0.13385-0.4328-0.4134-0.88326-0.8559-1.3792-0.629-0.70495-1.044-1.5531-1.044-2.1338 0-0.95002 0.91108-2.1549 2.0806-2.7515 0.6781-0.34594 1.1307-0.27401 2.0294 0.32252 1.2182 0.80858 1.8206 2.1837 1.5149 3.458-0.15418 0.64272-0.50107 1.0907-1.3329 1.7212-0.81483 0.61764-0.79349 0.27218-0.84007 13.598l-0.0418 11.948h11.135v-36.381l-1.1442-1.0911c-1.1958-1.1404-1.6671-1.8512-1.6671-2.5144 0-0.60206 0.42733-1.3554 1.1642-2.0522 1.4237-1.3465 2.4249-1.3181 3.8522 0.10921 1.5813 1.5813 1.4763 2.441-0.53865 4.4083l-1.1776 1.1497v36.371l5.9586-4e-3c3.2772-2e-3 6.656-0.0546 7.5084-0.11697 1.4511-0.10619 2.4226-0.34026 2.4226-0.58368 0-0.0581-0.33812-0.59713-0.75138-1.198s-1.5458-2.33-2.5168-3.8426c-1.9337-3.0122-2.8628-4.2448-3.4793-4.6158-0.22155-0.13332-0.71206-0.27217-1.09-0.30854-1.613-0.15523-2.6741-1.2617-2.6741-2.7885 0-1.8798 1.191-2.9654 3.0179-2.7507 1.3624 0.16013 2.2253 0.7838 2.4976 1.8052 0.13365 0.5012 0.1198 0.69679-0.11499 1.624-0.14681 0.5798-0.26693 1.2426-0.26693 1.4729 0 0.6622 0.41213 1.5982 1.4829 3.368 0.54688 0.90388 1.5724 2.606 2.2789 3.7824 0.70652 1.1764 1.4005 2.304 1.5421 2.5057l0.25749 0.36668 0.0885-1.0389c0.15847-1.8591 0.25607-39.524 0.10981-42.352-0.17148-3.3148-0.27355-3.7114-1.1541-4.4838-0.83618-0.73347-1.1255-1.3943-1.0272-2.3464 0.12614-1.2222 0.88132-2.2323 2.123-2.8398 0.78399-0.38357 0.97393-0.35064 2.0151 0.34939 1.0102 0.67925 1.4863 1.4242 1.4843 2.3229-2e-3 0.83546-0.22889 1.3486-0.97296 2.1989-0.69197 0.79075-0.84709 1.2119-1.0342 2.8083-0.15987 1.3636-0.29902 45.687-0.14343 45.687 0.21241-1e-3 4.5766-6.989 5.3412-8.5524l0.62611-1.2803 9e-3 -1.8366c0.0113-2.3536 0.21105-2.8588 1.3357-3.3779 0.66731-0.30798 2.1396-0.30865 2.8163-1e-3 0.95202 0.43244 1.4709 1.3771 1.3752 2.5035-0.0663 0.78072-0.352 1.3924-0.91175 1.9522-0.55091 0.55091-1.1037 0.8109-1.9907 0.93628-1.6225 0.22934-1.9134 0.56944-6.0414 7.0632-1.1231 1.7667-2.073 3.2931-2.1109 3.3918-0.0602 0.15688 0.97617 0.17959 8.1946 0.17959h8.2635v-36.369l-1.1306-1.1026c-1.2863-1.2544-1.8673-2.1702-1.7412-2.7444 0.20054-0.91305 1.9645-2.6707 2.8827-2.8724 0.81996-0.18009 2.5338 1.1628 3.121 2.4454l0.31367 0.68515-0.32013 0.65433c-0.20948 0.42816-0.72045 1.0485-1.4783 1.7946l-1.1582 1.1403v36.368h11.123v-24.771l-1.034-0.98659c-1.1553-1.1023-1.7772-1.9819-1.7772-2.5134 0-1.107 1.957-3.1419 3.0216-3.1419 0.77622 0 1.7686 0.67883 2.5578 1.7497 0.98829 1.3409 0.83416 1.8866-1.073 3.799l-1.2063 1.2096v24.654h10.634l-2e-3 -4.9808c-3e-3 -7.4517-0.10328-8.1925-1.2696-9.3755-0.31036-0.31482-0.65659-0.74736-0.7694-0.96121-0.5356-1.0153 0.0564-2.9251 1.0861-3.5038 0.78418-0.44073 2.2788-0.49107 3.0318-0.10209 0.98112 0.50685 1.474 1.7116 1.2289 3.0039-0.1693 0.89271-0.42523 1.3398-1.1715 2.0466-0.4087 0.38707-0.70189 0.7904-0.79966 1.1001-0.11282 0.35732-0.16759 2.1455-0.2035 6.6439l-0.0491 6.155 3.7676-0.0583c2.4947-0.0386 3.9327-0.10951 4.2565-0.20982 0.33383-0.10344 0.74094-0.41326 1.2834-0.9767 0.90967-0.94483 1.41-1.1688 2.3854-1.0682 1.5505 0.16003 2.6299 1.288 2.6232 2.7414-4e-3 0.798-0.33958 1.4736-1.0386 2.0889-1.3815 1.216-3.0458 1.0787-4.0234-0.332-0.20034-0.2891-0.57414-0.60659-0.90758-0.77086-0.54875-0.27035-0.69174-0.28055-4.4553-0.31768l-3.8883-0.0384 0.046 6.6998c0.0342 4.986 0.0859 6.8249 0.2019 7.1887 0.1014 0.31796 0.40375 0.72398 0.86468 1.1612 0.88716 0.84147 1.1422 1.3326 1.1423 2.2001 2.4e-4 1.5775-1.2647 2.9297-2.7438 2.9328-0.98301 2e-3 -2.1139-0.81342-2.6261-1.8939-0.55337-1.1671-0.25988-2.407 0.73965-3.1248 0.81481-0.58516 1.0399-1.1051 1.1726-2.7088 0.0627-0.75782 0.11489-3.8667 0.11598-6.9087l2e-3 -5.5308h-10.662l0.065 11.703c0.0639 11.5 0.11828 13.064 0.48093 13.816 0.0852 0.1767 0.47791 0.56647 0.87263 0.86616 1.4758 1.1205 1.7035 2.7376 0.6085 4.3219-0.19159 0.2772-0.59586 0.66342-0.89837 0.85826-0.47835 0.30809-0.6411 0.34812-1.2489 0.30716-0.56344-0.038-0.8279-0.13597-1.3648-0.50576-0.78371-0.53975-1.4894-1.3999-1.6854-2.0544-0.25154-0.83956 3e-3 -1.3308 1.44-2.784l1.2702-1.2841v-25.244h-11.123v36.858l0.98305 0.97496c1.0655 1.0568 1.6526 1.8716 1.8416 2.556 0.0965 0.34956 0.0741 0.54002-0.11329 0.96371-0.63713 1.4404-2.5962 2.3782-4 1.9149-0.7189-0.23726-1.4733-1.0745-1.7139-1.902-0.38511-1.3247 8e-3 -2.4194 1.1908-3.3178 0.78285-0.59449 0.90133-0.84651 1.0858-2.3098 0.072-0.57082 0.15232-8.0539 0.19711-18.36l0.0756-17.396-8.0789 0.0399c-6.221 0.0307-8.1138 0.0747-8.2304 0.1914-0.17926 0.17934-0.1491 0.23835 1.7028 3.332 1.7074 2.8523 3.6507 5.7834 4.3458 6.5549 0.61498 0.68251 1.2002 1.0233 1.7574 1.0233 1.4518 0 3.0791 1.5001 3.0869 2.8457 0.0124 2.1418-3.03 3.6334-4.7442 2.3259-0.66917-0.5104-0.78723-0.95601-0.80345-3.0327-0.014-1.7924-0.0234-1.854-0.41721-2.7501-0.22158-0.5042-0.65406-1.3567-0.96107-1.8946-1.0998-1.9266-4.2329-7.0281-4.3164-7.0281-0.21696 0-0.33995 43.197-0.12905 45.326 0.16815 1.6973 0.31196 2.1125 1.0066 2.9064 0.74318 0.84927 0.95035 1.2494 1.0403 2.0092 0.21673 1.8299-1.5449 3.2041-3.5893 2.8001zm1.5514-0.72911c0.76476-0.39015 1.1317-1.4094 0.8645-2.4016-0.18943-0.7035-0.63678-1.1021-1.4191-1.2645-1.8597-0.38607-2.875 0.82431-2.1347 2.545 0.38655 0.89858 0.95416 1.3667 1.6571 1.3667 0.31033 0 0.76079-0.10721 1.0322-0.24566zm-17.303-11.5c1.3636-0.34337 1.7464-2.0343 0.71812-3.1725-0.79661-0.88176-2.0034-0.89862-2.8139-0.0393-0.95916 1.017-0.49858 2.6752 0.87829 3.162 0.60374 0.21347 0.57267 0.2122 1.2175 0.0498zm34.969-3e-3c0.7984-0.20104 1.2763-0.7892 1.2763-1.5707 0-0.76242-0.16197-1.186-0.64491-1.6867-1.3208-1.3692-3.5672-0.14232-3.2115 1.754 0.10594 0.56471 0.72924 1.2369 1.3507 1.4566 0.60464 0.21379 0.57137 0.21252 1.2294 0.0468zm-46.965-11.606c0.25685-0.0713 0.6826-0.32446 0.9461-0.56251 0.84147-0.76022 0.90067-1.8034 0.14247-2.5104-0.46663-0.43513-0.75127-0.56106-1.4428-0.63835-1.4734-0.16468-2.24 0.77084-1.9861 2.424 0.18016 1.1731 1.0428 1.6476 2.3403 1.2873zm59.132-0.26781c0.22843-0.15214 0.51898-0.48818 0.64568-0.74675 0.20438-0.4171 0.21369-0.54457 0.0826-1.1304-0.2419-1.0809-1.012-1.7604-1.9897-1.7555-0.54779 3e-3 -1.3148 0.46164-1.6066 0.96114-0.30275 0.51837-0.29955 1.4577 7e-3 1.9805 0.5344 0.91216 1.9984 1.2657 2.8612 0.69102zm-69.656-11.629c0.41053-0.26899 0.82927-1.1144 0.82927-1.6743 0-0.58941-0.46957-1.4597-0.96535-1.7892-0.53414-0.35497-1.4978-0.37558-2.0421-0.0437-1.1888 0.7249-1.2743 2.6307-0.15552 3.4646 0.62705 0.46735 1.6568 0.48616 2.3337 0.0426zm80.912 0.0342c0.2482-0.12474 0.59459-0.4147 0.76976-0.64437 0.45601-0.59785 0.50319-1.119 0.16111-1.7794-0.63308-1.2224-2.5421-1.5085-3.4406-0.51571-0.52656 0.58184-0.48001 2.1301 0.0838 2.7855 0.47807 0.55579 1.4978 0.62055 2.426 0.15406zm-49.886-2.8967c0.59056-0.37522 1.2307-1.0486 1.5096-1.5879 0.15479-0.29933 0.15332-0.38835-0.012-0.7298-0.28101-0.58022-1.9333-2.1039-2.2814-2.1039-0.68566 0-2.2795 1.6591-2.2772 2.3705 2e-3 0.70127 1.6345 2.3792 2.3278 2.3927 0.10448 2e-3 0.4345-0.15165 0.73337-0.34154zm18.135-0.27074c0.87313-0.80482 1.0787-1.4555 0.78928-2.4981-0.15787-0.56864-0.89361-1.3554-1.3821-1.478-0.43793-0.10992-1.0073 0.15859-1.7102 0.8065-0.64445 0.59402-0.96481 1.2095-0.85574 1.644 0.18148 0.72307 1.7259 2.019 2.4065 2.0193 0.11914 5e-5 0.45768-0.2221 0.7523-0.49367zm43.863-14.872c0.84978-0.49046 1.0038-1.5076 0.38762-2.5592-0.31544-0.5383-1.1022-1.0224-1.6535-1.0174-1.6052 0.0145-2.6731 2.3441-1.5524 3.3865 0.58789 0.54687 2.0315 0.64426 2.8183 0.19014zm-105.44-0.0241c0.93991-0.42683 1.5739-1.6256 1.2208-2.3083-0.27554-0.53283-1.1096-1.2238-1.5849-1.313-1.1577-0.21718-2.2781 0.68635-2.2781 1.8371 0 0.77864 0.60964 1.6536 1.3445 1.9298 0.35042 0.13168 0.7974 0.0815 1.2976-0.14564zm43.866-13.985c0.62822-0.34092 1.1036-1.2268 0.98828-1.8416-0.24653-1.3141-1.807-2.1441-3.0395-1.6167-0.69919 0.29916-1.0993 0.84398-1.1603 1.58-0.14862 1.7922 1.545 2.7828 3.2116 1.8783zm17.667 0.01c0.69917-0.35257 1.0131-0.91927 0.91965-1.6602-0.15749-1.2487-0.87994-1.9765-1.9611-1.9757-1.1263 8e-4 -1.8954 0.75916-1.8963 1.8696-8e-4 0.94425 0.42309 1.5495 1.3054 1.8642 0.66289 0.23641 1.0106 0.21555 1.6323-0.0979zm-49.752-2.1825c0.89738-0.53797 1.8334-1.6759 1.8334-2.2288 0-0.37744-0.81865-1.4305-1.4903-1.9171-0.67089-0.48599-1.0846-0.46825-1.8294 0.0785-0.63854 0.46873-1.4472 1.4315-1.4472 1.723 0 0.40169 1.2558 1.8548 2.0745 2.4004 0.37565 0.25036 0.34461 0.25238 0.85896-0.056zm81.87-0.7072c1.2497-1.2304 1.2579-1.6568 0.0556-2.8882-1.1203-1.1475-1.7044-1.2253-2.4891-0.33157-0.95461 1.0872-0.97023 2.3368-0.043 3.4366 0.4585 0.5438 0.96752 0.75783 1.4239 0.59872 0.19085-0.0665 0.66447-0.43353 1.0525-0.81557zm-70.289-11.64c1.0467-0.50672 1.5166-1.8512 0.92556-2.6483-0.59364-0.80061-2.0956-1.1518-2.9769-0.69607-0.69854 0.36123-0.97554 1.5707-0.61201 2.6722 0.29796 0.90281 1.5396 1.2162 2.6634 0.67218zm58.765-0.10977c0.77827-0.48099 0.94324-1.5241 0.40912-2.5869-0.58445-1.1629-2.1011-1.3749-3.0241-0.42261-0.86879 0.89636-0.68017 2.3665 0.38712 3.0173 0.54285 0.331 1.6862 0.32703 2.2278-8e-3zm-46.816-11.541c0.94914-0.39657 1.2086-1.8123 0.52213-2.8496-0.99318-1.5008-3.2817-0.94174-3.4838 0.85106-0.096 0.85202 0.48421 1.7759 1.3103 2.0863 0.35434 0.13315 1.2346 0.08635 1.6513-0.0878zm34.957 0c1.1844-0.49488 1.2109-2.5482 0.0435-3.3807-0.55088-0.3929-1.6378-0.414-2.1367-0.04147-0.63816 0.47645-0.84156 0.87053-0.84156 1.6305 0 0.57451 0.06 0.78203 0.32753 1.1328 0.59665 0.78225 1.6656 1.0524 2.6072 0.65897zm-18.03-11.65c0.51777-0.25866 0.71667-0.75557 0.72647-1.815 0.0131-1.4228-0.27647-1.7625-1.4984-1.7573-1.1462 0.0049-2.0635 0.63362-2.2316 1.5296-0.27339 1.4573 1.6105 2.7386 3.0035 2.0427z" stop-color="#000000" stroke-width=".26101" style="paint-order:stroke fill markers"/>
  </g>
  <g transform="translate(-.21036 .57525)" stroke="#fff" stroke-width="1.5" aria-label="02">
   <path d="m121.38 142.92v-13.473c0-4.8204-2.3312-8.0998-12.051-8.0998s-12.09 3.2794-12.09 8.0998v13.473c0 4.8204 2.3707 8.0603 12.09 8.0603s12.051-3.2399 12.051-8.0603zm-15.212-1.4224v-10.628c0-1.0273 0.47414-1.8175 3.1609-1.8175 2.7263 0 3.1609 0.79022 3.1609 1.8175v10.628c0 1.0668-0.43462 1.857-3.1609 1.857-2.6868 0-3.1609-0.79022-3.1609-1.857z"/>
   <path d="m145.48 150.39c0.98778 0 1.4224-0.43462 1.4224-1.4224v-4.6228c0-0.98778-0.43462-1.4224-1.4224-1.4224h-11.261v-0.82974c0-0.86924 0.23706-0.94826 1.0273-1.1853l5.3735-1.699c3.8326-1.1853 6.1637-3.0028 6.1637-6.9935v-3.714c0-4.2672-2.4497-6.5588-6.954-6.5588h-11.656c-0.98778 0-1.4224 0.43462-1.4224 1.4224v4.6228c0 0.98778 0.43462 1.4224 1.4224 1.4224h8.5739c0.79022 0 1.0668 0.23707 1.0668 1.0273 0 0.86924-0.23707 1.1853-1.0668 1.4224l-5.2945 1.6595c-3.635 1.1063-6.2032 2.5287-6.2032 8.6529v6.7959c0 0.98778 0.43462 1.4224 1.4224 1.4224z"/>
  </g>
 </g>
</svg>
