<?xml version="1.0" encoding="UTF-8"?>
<svg width="133.73mm" height="133.73mm" version="1.1" viewBox="0 0 133.73 133.73" xml:space="preserve" xmlns="http://www.w3.org/2000/svg"><g transform="translate(-168.81 -97.45)"><path d="m228 225.04-1.3218-0.16474-0.11687-4.1521-0.11687-4.1521-3.6996-0.93063c-14.803-3.7237-27.323-13.835-34.312-27.711-2.083-4.1357-4.2658-10.419-4.7482-13.668l-0.28986-1.9526h-10.183v-15.595l10.046-0.23084 0.34353-1.8498c0.74176-3.9941 2.9487-10.275 5.0555-14.387 5.1714-10.095 13.022-17.945 23.052-23.052 4.0131-2.0432 10.178-4.2442 13.276-4.7395l1.6647-0.2662v-8.4155l1.9072-0.2614c1.0489-0.14378 4.4646-0.26141 7.5903-0.26141h5.6832l0.2343 8.4248 1.8498 0.3325c12.318 2.2142 22.102 7.3948 30.261 16.024 6.7141 7.1008 11.233 15.663 13.281 25.163l0.70895 3.2885 8.2505 0.23303 0.26265 2.5129c0.33196 3.176 0.33014 6.7543-5e-3 10.305l-0.26205 2.7747h-8.326l-0.52274 2.7556c-2.8174 14.852-13.648 29.07-27.635 36.278-5.3612 2.7627-8.4142 3.7589-17.144 5.5937-0.88439 0.18588-0.9249 0.37408-0.9249 4.2972l-2e-5 4.1028-6.2687-0.0658c-3.4478-0.0362-6.8636-0.13991-7.5906-0.23052z" fill="#447821" fill-rule="evenodd" style="paint-order:stroke fill markers"/><g transform="translate(471.06 60.057)" fill-rule="evenodd"><path d="m-52.712 136.67c0.41337-7.6875 2.8403-15.019 6.8672-21.345s9.6537-11.646 16.467-15.31c2.326-1.251 4.9945-2.3411 7.7477-3.1907 2.7532-0.84961 5.5912-1.4588 8.2561-1.7479 1.1578-0.12563 2.973-0.18844 4.7882-0.18844 1.8152 0 3.6304 0.06281 4.7882 0.18844 10.689 1.1599 20.222 6.1566 27.232 13.549 7.0095 7.3926 11.496 17.181 12.093 27.924l0.12964 2.3332h-5.0405l-0.0484-0.48737-0.0484-0.48736c-0.24655-2.4827-0.46091-4.2329-0.73083-5.741s-0.5954-2.7741-1.0642-4.2883c-1.0935-3.5318-2.6491-6.8282-4.6607-9.8796-2.0116-3.0514-4.4791-5.8579-7.3963-8.4099-2.2538-1.9716-5.0163-3.7591-8.0034-5.2232-2.987-1.464-6.1984-2.6045-9.3499-3.2821-1.5028-0.32313-3.4571-0.55583-5.4455-0.67343-1.9883-0.11759-4.0107-0.12007-5.6497 0.0172-2.5104 0.21033-4.8215 0.60768-7.0744 1.2311s-4.4478 1.473-6.7256 2.5876c-2.2319 1.0922-4.1388 2.2126-5.9142 3.5018s-3.4194 2.7472-5.1256 4.5146c-3.0829 3.1936-5.5659 6.799-7.3842 10.678-1.8183 3.8792-2.972 8.0323-3.3964 12.321-0.05557 0.56164-0.11621 1.161-0.16914 1.6742-0.05293 0.51318-0.09815 0.94021-0.12288 1.1572l-0.04497 0.39453-0.04497 0.39454h-5.0472l0.05951-1.1068z" fill="#2b2200" stop-color="#000000" stroke="#2b2200" stroke-width=".37133" style="paint-order:stroke fill markers"/><g fill="#332a07" stroke="#2b2200"><path d="m-46.852 161.03c-3.1159-5.4581-5.0044-11.113-5.7015-17.073-0.15268-1.3053-0.27761-2.9794-0.27761-3.7204v-1.3472h2.4866c2.7847 0 2.712-0.0375 2.712 1.3982 0 2.6833 1.2069 8.4071 2.5044 11.877 1.2584 3.3654 3.1681 6.9236 5.2064 9.7009l0.85163 1.1604h-6.6424z" stop-color="#000000" stroke-width=".37133" style="paint-order:stroke fill markers"/><path d="m22.93 161.87c2.3404-3.1898 4.5254-7.4597 5.7264-11.191 1.0906-3.3882 1.9877-8.3285 1.9877-10.947v-0.8428h5.0129l-1.55e-4 0.8819c-2.79e-4 1.5347-0.36095 4.8928-0.75277 7.0088-0.96134 5.1914-2.9843 10.548-5.6089 14.853l-0.79241 1.2996-6.4274 0.1018z" stop-color="#000000" stroke-width=".37133" style="paint-order:stroke fill markers"/><path d="m-36.558 162.55c-2.1067-2.3344-4.8535-6.8322-6.1561-10.08-1.5248-3.8024-2.459-7.9736-2.6968-12.041l-0.09019-1.5426h0.95468v1.0364c0 2.0468 0.39204 4.9751 1.0003 7.4719 1.2607 5.175 3.8337 10.288 7.2067 14.322l1.1087 1.3259h-0.4415c-0.34367 0-0.53995-0.10909-0.8858-0.49231z" stop-color="#000000" stroke-width=".26257" style="paint-order:stroke fill markers"/><path d="m18.299 162.48c5.3873-6.2926 8.3483-13.673 8.8229-21.99l0.09176-1.6082h0.49879c0.27434 0 0.53299 0.0554 0.5748 0.12299 0.09287 0.15026-0.13299 2.7269-0.40351 4.6032-0.30969 2.1481-0.80376 4.2119-1.5557 6.4986-1.4662 4.4587-3.4558 8.1148-6.4577 11.867-0.84166 1.052-0.85919 1.0648-1.4505 1.0648h-0.59853z" stop-color="#000000" stroke-width=".26257" style="paint-order:stroke fill markers"/><path d="m-45.535 137.41c0.29165-7.0746 2.9201-14.346 7.3021-20.2 5.7286-7.6533 14.159-12.788 23.625-14.39 2.5096-0.42465 7.2344-0.52972 10.212-0.22709 4.4193 0.44917 9.4348 2.0603 13.562 4.3566 6.582 3.6618 12.016 9.3806 15.306 16.109 2.2398 4.5806 3.3737 9.0291 3.8155 14.969l0.06387 0.85869h-1.1379l-9.52e-4 -0.85869c-0.0013-1.1345-0.14306-2.7861-0.37658-4.3863-1.9325-13.243-11.165-24.336-23.877-28.69-2.2784-0.7804-4.7385-1.3431-7.3551-1.6822-1.853-0.24017-6.6853-0.24033-8.5405-2.6e-4 -5.8228 0.7534-10.959 2.6516-15.642 5.7803-8.4718 5.6604-14.129 14.585-15.59 24.592-0.23352 1.6002-0.37532 3.2518-0.37658 4.3863l-0.0011 0.8587h-1.0502z" stop-color="#000000" stroke-width=".18566" style="paint-order:stroke fill markers"/></g><path d="m-39.268 162.15c-3.9361-4.8561-7.0962-12.713-7.9346-19.727-1.2867-10.764 3.0353-22.613 11.242-30.82 4.9295-4.9295 11.212-8.5125 17.898-10.207 3.5664-0.90405 5.2531-1.1031 9.3017-1.0979 4.3528 6e-3 6.1251 0.2091 9.6175 1.1042 4.652 1.1923 9.1663 3.2725 13.071 6.0231 1.9584 1.3795 6.1407 5.353 7.8106 7.4206 6.5763 8.1423 9.8329 19.832 8.1995 29.434-0.39305 2.3104-1.2515 5.6548-1.9322 7.5278-1.1621 3.1976-3.8426 8.0611-5.7001 10.342-0.62612 0.76893-0.67089 0.78907-1.7543 0.78907h-1.1118l0.85268-1.0468c5.7108-7.0105 8.8956-17.046 8.0938-25.503-0.97593-10.293-5.2576-18.772-12.822-25.394-4.4556-3.9001-10.675-6.9679-16.62-8.1984-4.3987-0.91042-10.616-0.91155-15.039-3e-3 -12.507 2.5702-23.14 11.832-27.378 23.848-1.5722 4.4572-2.1474 8.1686-1.9964 12.881 0.25849 8.0653 2.7546 15.144 7.5777 21.491l1.463 1.9251h-1.0997c-1.0696 0-1.1171-0.0216-1.7392-0.78907z" fill="#fea" stop-color="#000000" stroke="#fea" stroke-width=".37133" style="paint-order:stroke fill markers"/></g><g fill="#fff" fill-rule="evenodd" stroke-width="0"><path d="m180.84 151.84c0-1.1747 2.7578-8.8962 4.3455-12.167 2.7344-5.6327 5.973-10.115 10.756-14.887 6.5981-6.582 13.57-10.942 22.068-13.8l3.8408-1.2917 0.12404 0.98039c0.16039 1.2677-1e-3 1.3908-3.1478 2.3959-12.352 3.9457-23.925 13.488-30.197 24.898-1.9633 3.5717-4.0254 8.5499-4.993 12.054-0.60458 2.1891-0.73101 2.3624-1.7244 2.3624-0.68193 0-1.072-0.1984-1.072-0.54529z" style="paint-order:stroke fill markers"/><path d="m218.45 217.8c-4.3841-1.5209-8.1657-3.2434-11.689-5.3244-8.6077-5.0842-16.781-13.897-21.39-23.064-1.3361-2.6573-3.6842-8.91-4.2989-11.447-0.24468-1.01-0.19772-1.0583 0.91866-0.94495 1.1354 0.11528 1.2197 0.25291 2.414 3.9414 5.2162 16.11 17.32 28.469 33.478 34.185 3.8124 1.3485 3.9734 1.4502 4.0872 2.5817 0.0652 0.64786-0.0199 1.1651-0.18899 1.1495-0.16909-0.0156-1.6681-0.5005-3.3312-1.0774z" style="paint-order:stroke fill markers"/><path d="m287.47 149.41c-3.5066-12.136-11.156-22.727-21.374-29.596-5.5094-3.7035-11.742-6.503-17.502-7.8618-1.8509-0.43663-1.9844-0.54464-1.9844-1.6064 0-1.109 0.0364-1.1317 1.4174-0.88146 2.6873 0.48692 9.3636 2.8967 12.757 4.6044 5.6078 2.8224 9.5189 5.6839 14.391 10.529 6.7942 6.7566 10.791 13.151 13.79 22.065 1.8026 5.3567 1.8296 5.7184 0.42684 5.7184-1.0029 0-1.1123-0.16906-1.9219-2.9708z" style="paint-order:stroke fill markers"/><path d="m246.61 218.2c0-0.87184 0.17367-1.1837 0.66146-1.1878 0.3638-3e-3 2.6719-0.68205 5.1291-1.5089 16.893-5.6842 29.039-17.914 34.677-34.915 1.1539-3.4798 1.2524-3.6356 2.299-3.6356 0.99905 0 1.0727 0.0897 0.85319 1.0394-1.1878 5.1402-4.655 12.79-8.1315 17.942-3.2192 4.7704-10.412 11.925-15.043 14.963-5.9766 3.9206-14.165 7.4814-18.973 8.2502-1.447 0.23139-1.4719 0.21537-1.4719-0.94686z" style="paint-order:stroke fill markers"/></g><g fill-rule="evenodd"><rect x="424.61" y="252.74" width="32.63" height="20.396" ry="10.198" fill="#502d16" style="paint-order:stroke fill markers"/><path d="m425.55 268.81c-0.49062-0.32356-2.3097-0.80343-3.7069-0.97786-2.3192-0.28955-3.1021-0.4674-5.51-1.2516-2.8558-0.93003-4.4707-1.7118-6.4298-3.1127-2.7932-1.9974-4.9671-4.4409-6.3124-7.0952-1.218-2.4032-1.6309-4.0478-1.7914-7.1351-0.20715-3.985 0.32635-6.1899 2.6324-10.88 1.5516-3.1554 2.3983-4.2404 4.2908-5.4986 1.7264-1.1477 5.1893-2.6226 5.9112-2.5177 0.3325 0.0483 0.18825 0.26117-1.3014 1.9203-2.7571 3.0707-3.3415 4.1337-4.2724 7.7717-1.0136 3.9609-0.87399 5.3189 0.91303 8.8823 1.2645 2.5214 2.8232 3.7631 5.4427 4.3357 2.5415 0.55549 7.4067 0.47406 12.302-0.20589 1.5832-0.21992 2.0418-0.23149 2.596-0.0655l0.67304 0.20164-0.80151 0.44182c-1.6539 0.91165-2.841 1.8496-3.4953 2.7617-1.5981 2.2276-2.4155 4.8751-2.2231 7.2007 0.17042 2.0603 0.53071 3.3988 1.1613 4.3144 0.31599 0.45881 0.57452 0.88862 0.57452 0.95513 0 0.17091-0.36277 0.14565-0.65252-0.0454z" fill="#fff" style="paint-order:stroke fill markers"/><path d="m456.2 268.04c0.76645-1.2456 1.1525-3.0074 1.1525-5.2591 0-2.1681-0.20949-3.0741-1.1135-4.8159-0.78958-1.5212-2.6539-3.3888-4.1823-4.1894l-1.136-0.59509 0.64657-0.12325c0.39377-0.0751 1.6351-8e-3 3.1751 0.17206 3.5643 0.41627 9.1348 0.51957 10.93 0.20267 2.2807-0.40267 3.1888-0.82842 4.4483-2.0857 0.92059-0.91897 1.25-1.4094 1.982-2.9513 0.48285-1.017 0.96865-2.2456 1.0796-2.7302 0.31001-1.3543 0.10864-3.8301-0.48929-6.0156-0.87836-3.2105-1.4864-4.3111-3.9818-7.2075-0.88579-1.0281-1.5246-1.898-1.4196-1.933 0.52126-0.17376 4.2075 1.4359 5.8233 2.5428 1.8131 1.2421 2.6227 2.3282 4.3084 5.78 1.9133 3.9178 2.4415 5.9083 2.4415 9.2008 0 4.3459-0.82583 7.1179-3.101 10.409-1.7034 2.464-5.5676 5.6912-8.2183 6.8635-2.5526 1.1289-5.6124 2.0057-8.5094 2.4385-1.3767 0.20566-3.0754 0.62939-4.1012 1.023-0.14413 0.0553-0.0397-0.23044 0.26533-0.72621z" fill="#fff" style="paint-order:stroke fill markers"/></g><g fill="#f7e6a7" stroke="#41381a" stroke-linecap="round" stroke-width="1.5"><path d="m243.61 125.6-1.7053-1.232 2.2611-2.3367c1.2436-1.2852 2.8248-2.9928 3.5137-3.7948l1.2526-1.4581 1.9418 0.6254c1.068 0.34397 1.9418 0.69654 1.9418 0.78349 0 0.3133-2.9116 3.7933-5.1821 6.1938l-2.3183 2.451z"/><path d="m243.55 191.75 3.0679-9.7969 2.45 2.2284c0.27904 0.25379 4.3052-5.1638 5.3452-7.0962 3.9754-7.3867 4.3671-16.541 1.0374-24.243-2.5437-5.8836-6.0402-9.4053-20.236-20.382-4.6675-3.6091-9.1412-7.4798-11.244-9.7285-2.2488-2.4049-3.9801-4.7221-3.7755-5.0531 0.16772-0.27138 2.7984-1.121 3.471-1.121 0.20257 0 1.1655 0.92648 2.14 2.0588 2.0451 2.3766 6.2416 6.1853 10.52 9.548 9.3625 7.3584 11.419 9.0438 13.941 11.424 8.5993 8.118 11.687 14.71 11.632 24.835-0.0187 3.4548-0.1291 4.4962-0.70958 6.696-1.2706 4.815-3.0798 8.3285-6.8567 13.316l-2.527 3.1672 1.9015 2.5006z"/><path d="m269.25 164.09 10.32-6.4414v4.3683h12.769v4.1463h-12.769s0.10219 4.3573 0 4.3492c-0.1022-8e-3 -10.207-6.0733-10.32-6.4223z"/><path d="m247 210.02c-2.055-2.4112-6.7348-6.5014-12.871-11.25-10.569-8.1776-14.53-11.841-17.326-16.02-6.3565-9.503-7.364-19.815-2.9677-30.376 0.94826-2.2778 2.613-4.8497 5.0572-7.8126 0.95469-1.1573 1.827-2.2606 1.7358-2.3857l-1.8793-2.5753 10.358-1.8507-3.36 10.005-2.1928-2.3168c-0.18855-0.19921-3.2908 3.9152-4.2752 5.5488-1.2801 2.1244-2.5276 5.1857-3.1849 7.8155-0.78062 3.1234-0.71909 9.9508 0.11798 13.092 2.0558 7.7135 6.3558 12.847 18.735 22.369 2.4001 1.846 5.6521 4.4106 7.2265 5.6991 4.9419 4.0444 10.747 10.136 10.174 10.676-0.11981 0.11278-1.0156 0.43783-1.9906 0.72232l-1.7728 0.51725z"/><path d="m191.31 166.16h-13.757v-4.1463h13.757v-4.3683l11.133 6.4414-11.133 6.4223z"/><path d="m221.94 211.64-1.8285-0.54631 1.2559-1.6321c1.4904-1.9369 6.0448-6.7491 6.3876-6.7491 0.38488 0 2.9994 1.9566 2.9118 2.1791-0.0438 0.11123-1.6138 1.798-3.4889 3.7485l-3.4093 3.5462z"/></g><path d="m232.19 231.1c-1.2859-0.0599-4.8141-0.42087-6.4208-0.65698-3.4028-0.50006-7.2382-1.4099-10.731-2.5456-24.703-8.0323-42.455-29.498-45.711-55.273-2.1712-17.187 2.4728-34.645 12.905-48.512 8.506-11.307 20.403-19.623 34.041-23.794 8.8272-2.7 18.653-3.5279 27.815-2.3437 25.874 3.3443 47.241 21.109 55.25 45.936 5.3101 16.459 3.9643 34.433-3.7459 50.028-8.0486 16.28-22.167 28.44-39.524 34.04-7.5591 2.4388-15.697 3.503-23.877 3.1222zm8.7951-10.557 0.70227-0.0859v-7.5655l0.70227-0.091c2.7118-0.35137 7.314-1.4925 9.9902-2.4771 6.8778-2.5303 12.768-6.3136 18.001-11.563 5.8527-5.8704 10.115-13.141 12.358-21.078 0.55612-1.9684 1.2189-4.9939 1.2189-5.5641v-0.31397l7.6916-0.071 0.16162-1.3377c0.38227-3.164 0.35485-9.6097-0.0536-12.607l-0.0775-0.56851h-7.5832l-0.0547-0.30098c-0.564-3.1054-0.87435-4.5184-1.3589-6.1867-4.4095-15.181-15.752-27.219-30.687-32.569-3.1566-1.1308-6.7416-1.9744-8.9369-2.1031l-1.3711-0.0804v-7.8279l-1.1704-0.11233c-2.1397-0.20535-8.8582-0.12307-11.069 0.13557-1.1036 0.1291-2.0817 0.25968-2.1737 0.29019-0.12854 0.0426-0.1672 0.93387-0.1672 3.8537v3.7982l-1.1705 0.22653c-6.3319 1.2255-13.06 4.1439-18.592 8.0643-10.305 7.3028-17.417 18.398-19.768 30.839l-0.37284 1.973h-9.1909l0.0346 7.2568 0.0346 7.2568 9.1959 0.1338 0.43121 2.1403c2.5269 12.542 9.9138 23.629 20.537 30.825 5.177 3.5065 11.259 6.1058 17.13 7.3204l1.7315 0.35826v7.6672l2.3075 0.22668c1.2691 0.12468 2.5182 0.24982 2.7756 0.27808 0.69222 0.076 7.9784-0.0397 8.7951-0.13966zm8.186-1.4089c8.4467-2.0545 16.696-6.3167 23.369-12.075 1.7192-1.4833 5.0928-4.8981 6.421-6.4993 5.3934-6.5018 9.3835-14.261 11.35-22.071 0.19449-0.7725 0.38344-1.5099 0.4199-1.6386 0.0601-0.21225-0.0643-0.23409-1.3329-0.23409h-1.3992l-0.23288 0.9698c-0.91988 3.8306-3.0131 9.0753-5.1384 12.875-7.2669 12.991-19.37 22.286-33.784 25.945l-2.274 0.57717-0.0766 2.7376 0.50648-0.0905c0.27856-0.0498 1.2557-0.27274 2.1714-0.49547zm-26.88-1.3537v-1.373l-1.6438-0.4887c-15.938-4.7384-28.433-16.002-34.754-31.327-0.71738-1.7395-1.9566-5.4748-2.3243-7.0057l-0.23288-0.9698h-1.3992c-1.2686 0-1.393 0.0218-1.3329 0.23409 0.0365 0.12875 0.22541 0.86613 0.41989 1.6386 1.8565 7.374 5.6292 14.908 10.583 21.135 1.8593 2.337 6.4093 6.8871 8.7463 8.7463 6.0062 4.7783 12.679 8.1886 20.321 10.387 0.70504 0.20276 1.3572 0.37502 1.4491 0.3828 0.12383 0.0105 0.16721-0.34208 0.16721-1.3588zm-38.939-65.878c0.072-0.27589 0.22925-0.89289 0.34955-1.3711 0.93311-3.7093 2.9414-8.6759 5.0032-12.373 6.8859-12.348 18.214-21.377 31.943-25.458l1.6438-0.4887v-1.373c0-0.75515-0.0345-1.373-0.0768-1.373-0.23883 0-3.5967 1.0101-5.1401 1.5463-5.9779 2.0766-11.725 5.2505-16.721 9.235-2.3236 1.8531-6.8944 6.4226-8.7254 8.723-5.2974 6.6555-8.9543 14.167-10.937 22.465l-0.23174 0.9698h2.762zm107.29-0.46818c-2.1448-8.976-6.281-17.096-12.224-23.998-1.7928-2.0819-5.3376-5.5015-7.4381-7.1755-5.4096-4.311-11.042-7.3628-17.59-9.5314-2.2694-0.75152-4.9668-1.4861-6.3922-1.7409l-0.50648-0.0905 0.0383 1.3688 0.0383 1.3688 2.274 0.57718c16.628 4.2205 30.015 15.852 36.589 31.791 0.68399 1.6584 1.8357 5.073 2.2014 6.5267 0.12029 0.47821 0.27759 1.0952 0.34955 1.3711l0.13082 0.50162h2.762z" stroke-width=".13377"/><g stroke="#fff" stroke-width="1.5" aria-label="12"><path d="m233.07 179.28h-17.464q-0.75071 0-1.1063-0.31609-0.31609-0.3556-0.31609-1.1063v-4.7808q0-0.75071 0.31609-1.0668 0.3556-0.3556 1.1063-0.3556h4.4252v-13.197h-3.635q-0.75071 0-1.1063-0.31609-0.31609-0.3556-0.31609-1.1063v-4.7808q0-0.75071 0.31609-1.0668 0.3556-0.3556 1.1063-0.3556h11.458q0.75071 0 1.0668 0.3556 0.3556 0.31609 0.3556 1.0668v19.4h3.7931q0.75071 0 1.0668 0.3556 0.3556 0.31609 0.3556 1.0668v4.7808q0 0.75071-0.3556 1.1063-0.31609 0.31609-1.0668 0.31609z"/><path d="m257.85 179.28h-18.807q-0.75071 0-1.1063-0.31609-0.31609-0.3556-0.31609-1.1063v-6.7959q0-2.2916 0.43463-3.7536 0.47413-1.5014 1.3039-2.4497 0.82973-0.94826 1.9756-1.5014 1.1458-0.55315 2.4892-0.94826l5.2945-1.6595q0.63218-0.15805 0.82974-0.47413 0.23706-0.31609 0.23706-0.94827 0-0.59267-0.23706-0.79022-0.23707-0.23707-0.82974-0.23707h-8.5739q-0.75071 0-1.1063-0.31609-0.31609-0.3556-0.31609-1.1063v-4.6228q0-0.75071 0.31609-1.0668 0.3556-0.3556 1.1063-0.3556h11.656q3.3584 0 5.1364 1.699 1.8175 1.6595 1.8175 4.8599v3.714q0 2.9633-1.6595 4.5438-1.6595 1.5804-4.5043 2.4497l-5.3735 1.699q-0.59266 0.15805-0.82973 0.3556-0.19756 0.19756-0.19756 0.82973v0.82974h11.261q0.75071 0 1.0668 0.3556 0.3556 0.31609 0.3556 1.0668v4.6228q0 0.75071-0.3556 1.1063-0.31609 0.31609-1.0668 0.31609z"/></g></g></svg>
