<?xml version="1.0" encoding="UTF-8"?>
<!-- Created with Inkscape (http://www.inkscape.org/) -->
<svg width="133.1mm" height="133.1mm" version="1.1" viewBox="0 0 133.1 133.1" xmlns="http://www.w3.org/2000/svg" xmlns:cc="http://creativecommons.org/ns#" xmlns:dc="http://purl.org/dc/elements/1.1/" xmlns:rdf="http://www.w3.org/1999/02/22-rdf-syntax-ns#">
 <metadata>
  <rdf:RDF>
   <cc:Work rdf:about="">
    <dc:format>image/svg+xml</dc:format>
    <dc:type rdf:resource="http://purl.org/dc/dcmitype/StillImage"/>
   </cc:Work>
  </rdf:RDF>
 </metadata>
 <g transform="translate(-57.427 -70.189)">
  <path d="m116.63 192.54v-4.1937l-2.5914-0.47748c-11.886-2.1902-24.481-10.123-31.696-19.964-4.9747-6.7854-7.6727-12.997-9.7457-22.439l-0.24519-1.1167h-4.2127c-3.4668 0-4.2563-0.11373-4.4592-0.64234-0.13557-0.35328-0.24649-3.5381-0.24649-7.0774 0-7.977-0.1756-7.7113 5.0973-7.7113h3.821l0.25318-1.1167c1.4552-6.4188 3.1009-11.074 5.4691-15.471 7.2031-13.373 21.037-23.855 34.945-26.477 1.4276-0.26914 2.8241-0.77522 3.1033-1.1246 0.31824-0.39826 0.50761-1.9492 0.50761-4.1572v-3.5219l1.884-0.25824c2.4069-0.3299 6.0935-0.32871 10.021 0.0032l3.0933 0.26148 0.23016 8.1465 3.2487 0.70544c19.922 4.3261 35.875 20.553 39.986 40.675l0.47706 2.335 3.3214 6e-3c1.8268 3e-3 3.5459 0.14882 3.8202 0.32313 0.69806 0.44344 1.0916 6.4183 0.73552 11.167l-0.29496 3.9343h-7.5341l-0.49216 2.5016c-2.387 12.133-9.8 23.847-19.906 31.455-5.9278 4.4625-14.175 8.1951-21.026 9.5165l-2.538 0.4895v7.9144l-1.269 0.2538c-0.69795 0.13959-4.0786 0.2538-7.5125 0.2538h-6.2435z" fill="#0033a0" fill-rule="evenodd" stroke-width="0" style="paint-order:stroke fill markers"/>
  <path d="m120.51 203.21c-1.2798-0.0596-4.7914-0.41888-6.3905-0.65388-3.3868-0.49769-7.2041-1.4032-10.681-2.5336-24.586-7.9944-42.255-29.359-45.496-55.012-2.161-17.106 2.4611-34.482 12.844-48.283 8.4659-11.254 20.307-19.531 33.88-23.682 8.7855-2.6872 18.565-3.5112 27.683-2.3327 25.751 3.3285 47.018 21.009 54.99 45.719 5.285 16.381 3.9456 34.27-3.7282 49.792-8.0107 16.204-22.062 28.306-39.337 33.879-7.5234 2.4273-15.623 3.4864-23.765 3.1074zm9.1197-10.617c0.87869-0.11163 1.6126-0.20421 1.6309-0.20574 0.0183-2e-3 0.0332-1.6792 0.0332-3.728v-3.7252l0.29956-0.0646c0.16475-0.0356 1.1083-0.22233 2.0969-0.41507 12.21-2.3807 23.485-9.9038 30.613-20.428 3.6759-5.427 6.2003-11.489 7.4626-17.921 0.22042-1.123 0.40074-2.0734 0.40074-2.112 0-0.0386 1.5799-0.0702 3.5109-0.0702h3.5109l0.0845-0.76552c0.46491-4.2105 0.45385-9.5884-0.0268-13.014l-0.0933-0.66567-7.0306-0.133-0.29342-1.5976c-2.7757-15.113-12.89-28.278-26.846-34.942-3.82-1.8241-8.0134-3.1944-12.025-3.9294l-1.5976-0.29273-0.0354-3.7499c-0.0194-2.0625-0.0494-3.7512-0.0665-3.7527-0.0171-0.0015-0.75014-0.09253-1.6288-0.20223-2.3459-0.29286-7.4338-0.39673-10.052-0.2052-1.2082 0.0884-2.3315 0.19339-2.4963 0.23333l-0.29955 0.07262v3.7799c0 2.0789-0.0296 3.7799-0.0657 3.7799-0.30206 0-3.9077 0.76089-5.1201 1.0805-6.5299 1.7213-12.816 4.8882-18.082 9.1097-8.8647 7.1066-15.122 17.36-17.262 28.286-0.1936 0.98852-0.38108 1.9321-0.41663 2.0969l-0.06464 0.29956h-3.9957c-3.0773 0-4.0088 0.0383-4.0529 0.16641-0.17185 0.50007-0.35736 3.078-0.42394 5.8912-0.06805 2.8757 0.0309 5.3373 0.3118 7.7551l0.0812 0.69896h4.0423c2.2233 0 4.0423 0.0315 4.0423 0.0702 0 0.0386 0.18163 0.99556 0.40361 2.1266 2.4704 12.587 9.8559 23.737 20.499 30.945 5.8692 3.9754 12.219 6.498 19.604 7.7882l0.49925 0.0872v7.5645l0.43269 0.0769c2.047 0.36348 9.5863 0.36993 12.415 0.0106zm-17.669-2.2931-0.0378-1.4189-1.4645-0.38012c-4.1754-1.0838-8.705-2.9029-12.515-5.026-12.704-7.0801-22.1-19.21-25.739-33.228l-0.38015-1.4645-1.6186-0.0374c-1.2466-0.0288-1.6184 2e-3 -1.6179 0.13314 0.0015 0.41661 1.1093 4.346 1.737 6.1616 2.3609 6.8294 5.8816 12.959 10.564 18.392 1.4524 1.6854 4.8451 5.0346 6.4701 6.3874 6.9816 5.8119 14.986 9.7446 24.031 11.807 0.61915 0.14117 0.61 0.16245 0.57033-1.3273zm26.338 0.62801c8.282-2.3499 15.324-6.0842 21.685-11.5 1.475-1.2557 4.5347-4.2964 5.8521-5.8157 4.968-5.7293 8.71-12.344 11.034-19.504 0.581-1.7902 1.4179-4.8731 1.42-5.2309 9.6e-4 -0.12949-0.26647-0.16227-1.0852-0.13313l-1.0862 0.0387-0.38 1.4645c-3.3306 12.836-11.529 24.174-22.713 31.409-4.696 3.0382-10.178 5.4524-15.54 6.8441l-1.4645 0.38007-0.0381 1.2858c-0.0351 1.1874-0.0188 1.2858 0.2146 1.2858 0.13898 0 1.0848-0.23609 2.1017-0.52463zm-66.191-67.341c0.86622-3.7222 2.9814-9.0405 5.1229-12.881 7.0894-12.713 19.207-22.1 33.228-25.739l1.4645-0.38012 0.0379-1.4305 0.0379-1.4305-0.43731 0.08858c-4.9194 0.99648-11.05 3.3256-15.748 5.9832-2.297 1.2993-5.4454 3.4302-7.5221 5.0909-2.0989 1.6785-5.6281 5.0855-7.403 7.1466-5.5927 6.4946-9.6082 14.129-11.775 22.387-0.28827 1.0984-0.52442 2.042-0.52478 2.0969-3.62e-4 0.055 0.73726 0.0999 1.6392 0.0999h1.6398zm106.18 0.93195c-4e-3 -0.36678-0.93822-3.6788-1.5872-5.625-2.9779-8.9305-7.9658-16.69-14.94-23.241-6.6679-6.2638-14.589-10.655-23.868-13.233-2.096-0.58224-1.9575-0.64611-1.9122 0.88181l0.0381 1.2858 1.4645 0.38007c16.256 4.2189 29.546 15.869 36.026 31.58 0.74605 1.809 1.9707 5.5167 2.325 7.0392l0.24011 1.0318h1.1073c0.60902 0 1.1068-0.0449 1.1063-0.0999z" stroke-width=".13314"/>
  <g fill="#fff" fill-rule="evenodd">
   <g stroke-width="0">
    <path d="m69.505 121.91c4.0456-14.599 14.054-27.124 27.572-34.506 3.0206-1.6494 8.3436-3.7676 12.001-4.7755l2.7403-0.75516v1.2315c0 1.2247-0.019 1.2371-3.4546 2.2656-16.707 5.0011-30.112 18.304-35.558 35.289l-1.2415 3.8713-2.7867 6e-3z" style="paint-order:stroke fill markers"/>
    <path d="m175.58 121.99c-1.8883-7.3283-6.9382-16.077-12.848-22.259-6.3073-6.5976-13.052-10.871-22.003-13.94-4.1768-1.4321-4.5452-1.6355-4.6553-2.5693-0.0658-0.55775 0.0324-1.0141 0.21816-1.0141 0.91445 0 7.8742 2.534 11.035 4.0179 11.352 5.3288 21.294 15.271 26.613 26.615 1.6298 3.4757 3.2688 7.9783 3.8121 10.472 0.24271 1.1142 0.18474 1.2284-0.62368 1.2284-0.7834 0-0.97081-0.30874-1.5487-2.5513z" style="paint-order:stroke fill markers"/>
    <path d="m136.01 190.4c0.01-1.1167 0.45364-1.4 3.585-2.288 4.1965-1.19 12.248-5.2088 16.076-8.0241 6.6344-4.8793 12.586-11.966 16.338-19.454 1.6275-3.2479 4.0608-9.829 4.0608-10.983 0-0.32984 0.37353-0.54546 0.94494-0.54546 0.51972 0 0.94494 0.19107 0.94494 0.4246 0 0.96666-2.788 8.6801-4.1789 11.561-3.753 7.7749-10.785 16.156-17.633 21.016-4.2427 3.011-10.108 6.006-14.904 7.611-4.5505 1.5227-5.2417 1.6126-5.2336 0.6811z" style="paint-order:stroke fill markers"/>
    <path d="m107.96 190.5c-10.179-3.1218-18.08-7.9941-25.303-15.604-6.2819-6.6189-10.424-14.03-13.303-23.801l-0.58462-1.9844h1.477c1.4221 0 1.492 0.0597 1.8822 1.6064 2.3882 9.4672 8.8246 19.786 16.493 26.442 5.4886 4.7637 11.406 8.1079 18.609 10.517 4.2432 1.4193 4.4031 1.512 4.5173 2.6198 0.14239 1.3805 0.0598 1.385-3.788 0.20499z" style="paint-order:stroke fill markers"/>
   </g>
  </g>
  <g fill="#ffa300">
   <path transform="matrix(.26458 0 0 .26458 57.427 70.189)" d="m211.43 189.4c0-2.2929-0.39021-5.1857-0.86713-6.4286-1.2986-3.3842 2.0165-2.7486 6.8419 1.3117 2.3344 1.9643 3.5956 3.5714 2.8025 3.5714-0.79306 0-1.85 1.2857-2.3487 2.8572-0.49875 1.5714-2.1492 2.8571-3.6677 2.8571-2.0981 0-2.7609-1.0008-2.7609-4.1689z" stroke="#000" stroke-linecap="round" stroke-width="5.3993"/>
   <path transform="matrix(.21573 0 0 .21573 70.043 100.06)" d="m250 266.1-83.223-48.049-1e-5 -96.097 83.223-48.049 83.223 48.049 1e-5 96.097z"/>
  </g>
  <rect x="142.46" y="133.41" width="14.149" height="6.709" fill="#fff"/>
  <path transform="matrix(0 -.24039 .27068 0 246 299.14)" d="m677.14-278.46-31.028-53.743h62.057z" fill="#fff"/>
  <g fill="#fff">
   <rect transform="scale(-1,1)" x="-106.41" y="133.78" width="14.149" height="6.709"/>
   <path transform="matrix(0 -.24039 -.27068 0 2.8725 299.51)" d="m677.14-278.46-31.028-53.743h62.057z"/>
  </g>
  <g transform="rotate(60 124.29 136.37)" fill="#fff">
   <rect transform="scale(-1,1)" x="-106.41" y="133.78" width="14.149" height="6.709"/>
   <path transform="matrix(0 -.24039 -.27068 0 2.8725 299.51)" d="m677.14-278.46-31.028-53.743h62.057z"/>
  </g>
  <g transform="rotate(120 124.19 136.69)" fill="#fff">
   <rect transform="scale(-1,1)" x="-106.41" y="133.78" width="14.149" height="6.709"/>
   <path transform="matrix(0 -.24039 -.27068 0 2.8725 299.51)" d="m677.14-278.46-31.028-53.743h62.057z"/>
  </g>
  <g transform="translate(5.232 -3.7042)" fill="#fff">
   <g transform="matrix(.5 -.86603 -.86603 -.5 174.95 316.32)">
    <rect transform="scale(-1,1)" x="-106.41" y="133.78" width="14.149" height="6.709"/>
    <path transform="matrix(0 -.24039 -.27068 0 2.8725 299.51)" d="m677.14-278.46-31.028-53.743h62.057z"/>
   </g>
   <g transform="matrix(-.5 -.86603 -.86603 .5 299.38 179.38)">
    <rect transform="scale(-1,1)" x="-106.41" y="133.78" width="14.149" height="6.709"/>
    <path transform="matrix(0 -.24039 -.27068 0 2.8725 299.51)" d="m677.14-278.46-31.028-53.743h62.057z"/>
   </g>
  </g>
  <g stroke="#fff" stroke-width="1.5" aria-label="09">
   <path d="m122.36 143.49v-13.473c0-4.8204-2.3312-8.0998-12.051-8.0998-9.7197 0-12.09 3.2794-12.09 8.0998v13.473c0 4.8204 2.3707 8.0603 12.09 8.0603 9.7197 0 12.051-3.2399 12.051-8.0603zm-15.212-1.4224v-10.628c0-1.0273 0.47413-1.8175 3.1609-1.8175 2.7263 0 3.1609 0.79022 3.1609 1.8175v10.628c0 1.0668-0.43462 1.857-3.1609 1.857-2.6868 0-3.1609-0.79022-3.1609-1.857z"/>
   <path d="m140.02 150.96c7.4676 0 9.7197-3.2794 9.7197-8.0998v-12.96c0-4.8204-2.1336-7.9812-11.853-7.9812-9.0876 0-11.379 3.1609-11.379 7.9812v3.7931c0 4.7018 2.1336 7.112 9.2851 7.112 2.0941 0 3.7536-0.19755 5.0179-0.59266v0.86924c0 1.936-0.55316 2.3707-2.4892 2.3707h-7.3886c-0.98778 0-1.4224 0.43462-1.4224 1.4224v4.6623c0 0.98778 0.39511 1.4224 1.4224 1.4224zm0.79022-18.096c0 0.79023-0.3556 1.4224-2.6472 1.4224-2.3707 0-2.7263-0.63217-2.7263-1.4224v-2.3312c0-0.82974 0.3556-1.4619 2.7263-1.4619 2.2916 0 2.6472 0.63217 2.6472 1.4619z"/>
  </g>
 </g>
</svg>
