<?xml version="1.0" encoding="UTF-8"?>
<!-- Created with Inkscape (http://www.inkscape.org/) -->
<svg width="133.1mm" height="133.1mm" version="1.1" viewBox="0 0 133.1 133.1" xmlns="http://www.w3.org/2000/svg" xmlns:cc="http://creativecommons.org/ns#" xmlns:dc="http://purl.org/dc/elements/1.1/" xmlns:rdf="http://www.w3.org/1999/02/22-rdf-syntax-ns#">
 <defs>
  <style>.a{fill:#fff;}.b{fill:#b71234;}.c{fill:#584528;}.d{fill:#008542;}.e{fill:#bd8a5e;}</style>
  <style>.a{fill:#fff;}.b{fill:#b71234;}.c{fill:#584528;}.d{fill:#008542;}.e{fill:#bd8a5e;}</style>
  <style>.a{fill:#fff;}.b{fill:#b71234;}.c{fill:#584528;}.d{fill:#008542;}.e{fill:#bd8a5e;}</style>
  <clipPath id="clipPath7535">
   <path d="m116.76 188.66c-11.8-1.6384-22.399-7.0554-30.861-15.771-1.7559-1.8088-3.2908-3.2887-3.411-3.2887s-1.4863 0.73095-3.0359 1.6243c-1.5495 0.89337-2.8739 1.6243-2.943 1.6243-0.49308 0-7.5185-11.899-7.5185-12.734 0-0.0926 1.3248-0.94731 2.9441-1.8994s2.9707-1.7495 3.0032-1.7721-0.453-1.6057-1.0789-3.5179c-1.9191-5.8634-2.5667-10.932-2.3244-18.191 0.16565-4.9631 0.43311-7.1944 1.2237-10.209 3.2918-12.552 9.8138-22.312 20.012-29.95 5.5131-4.1287 14.016-7.8792 20.584-9.0794l2.741-0.50086v-7.4594l2.496-0.26089c3.1557-0.32983 7.6403-0.32886 10.397 2e-3l2.1319 0.25608v3.8012c0 3.4571 0.0695 3.8012 0.7677 3.8012 1.617 0 8.6822 2.0835 12.183 3.5926 13.97 6.0227 24.539 17.611 29.261 32.085 3.268 10.015 3.2802 21.729 0.0331 31.826-0.65932 2.0502-1.1603 3.7545-1.1133 3.7873 0.047 0.0327 1.4103 0.82545 3.0296 1.7616s2.9441 1.7899 2.9441 1.8973c0 0.6027-3.2453 6.5389-5.1478 9.4163l-2.2171 3.3531-6.295-3.4115-2.9964 3.1544c-7.1339 7.5101-16.399 12.827-26.349 15.12-4.9152 1.133-13.816 1.5872-18.461 0.94222z" fill="none" stroke="#f00" stroke-linecap="round" stroke-width=".76739" style="paint-order:stroke fill markers"/>
  </clipPath>
 </defs>
 <metadata>
  <rdf:RDF>
   <cc:Work rdf:about="">
    <dc:format>image/svg+xml</dc:format>
    <dc:type rdf:resource="http://purl.org/dc/dcmitype/StillImage"/>
   </cc:Work>
  </rdf:RDF>
 </metadata>
 <g transform="translate(-57.427 -70.189)">
  <g fill-rule="evenodd">
   <g fill="#fff">
    <g fill-opacity=".99216" stroke-width="5.3993">
     <path transform="matrix(.26458 0 0 .26458 57.427 70.189)" d="m225.71 459.26c-43.865-6.0884-84.333-25.036-116.19-54.403-9.1404-8.4252-10.776-10.552-8.9144-11.593 1.7382-0.97277 4.7683 0.97876 12.765 8.2212 30.82 27.914 66.482 45.225 105.89 51.405 19.138 3.0008 56.728 2.2602 73.592-1.45 36.423-8.013 68.678-24.753 94.504-49.047 8.9563-8.4247 11.722-10.278 14.175-9.4991 2.8981 0.91981 2.777 1.2496-2.4586 6.6969-9.413 9.7937-27.708 23.926-41.177 31.808-21.703 12.7-43.491 20.953-68.007 25.758-14.071 2.7581-50.792 3.9614-64.18 2.1032z"/>
     <path transform="matrix(.26458 0 0 .26458 57.427 70.189)" d="m447.25 312.99c-1.2871-1.5509-1.0195-4.5676 1.1724-13.214 6.5933-26.009 7.5603-61.935 2.3395-86.919-16.022-76.671-70.564-135.23-145.3-156.01-7.107-1.9759-8.3206-2.8001-8.3206-5.6506 0-4.3687 1.2883-4.2654 18.945 1.5185 52.673 17.254 97.837 56.125 122.72 105.62 7.6975 15.31 16.162 41.414 19.07 58.808 4.4933 26.884 2.6178 63.862-4.5465 89.643-2.3854 8.584-3.3174 9.5349-6.0814 6.2046z"/>
     <path transform="matrix(.26458 0 0 .26458 57.427 70.189)" d="m48.851 303.21c-5.142-20.694-6.4015-34.082-5.587-59.392 0.59261-18.416 1.5789-27.262 4.346-38.981 16.976-71.892 69.498-129.31 139.16-152.13 17.674-5.7896 18.945-5.89 18.945-1.4963 0 2.9419-1.1984 3.6779-9.6429 5.9221-62.528 16.618-115.36 66.241-136.7 128.39-12.343 35.955-14.252 79.561-5.0496 115.34 1.9428 7.5529 2.2594 10.943 1.1472 12.283-2.7666 3.3336-3.6557 1.9996-6.6211-9.9348z"/>
    </g>
    <path d="m117.1 189.11c-11.8-1.6384-22.399-7.0554-30.861-15.771-1.7559-1.8088-3.2908-3.2887-3.411-3.2887s-1.4863 0.73095-3.0359 1.6243c-1.5495 0.89337-2.8739 1.6243-2.943 1.6243-0.49308 0-7.5185-11.899-7.5185-12.734 0-0.0926 1.3248-0.94731 2.9441-1.8994s2.9707-1.7495 3.0032-1.7721-0.453-1.6057-1.0789-3.5179c-1.9191-5.8634-2.5667-10.932-2.3244-18.191 0.16565-4.9631 0.43311-7.1944 1.2237-10.209 3.2918-12.552 9.8138-22.312 20.012-29.95 5.5131-4.1287 14.016-7.8792 20.584-9.0793l2.741-0.50086v-7.4594l2.496-0.26089c3.1557-0.32984 7.6403-0.32887 10.397 0.0022l2.1319 0.25607v3.8012c0 3.4571 0.0695 3.8012 0.7677 3.8012 1.617 0 8.6822 2.0835 12.183 3.5926 13.97 6.0227 24.539 17.611 29.261 32.085 3.268 10.015 3.2802 21.729 0.0331 31.826-0.65932 2.0502-1.1603 3.7545-1.1133 3.7873 0.047 0.0327 1.4103 0.82545 3.0296 1.7616s2.9441 1.7899 2.9441 1.8973c0 0.6027-3.2453 6.5389-5.1478 9.4163l-2.2171 3.3531-6.295-3.4115-2.9964 3.1544c-7.1339 7.5101-16.399 12.827-26.349 15.12-4.9152 1.133-13.816 1.5872-18.461 0.94222z" style="paint-order:stroke fill markers"/>
    <path transform="matrix(.26458 0 0 .26458 57.427 70.189)" d="m50.054 307.59c-5.3927-18.159-7.1057-31.761-7.0728-56.164 0.03617-26.881 2.0183-40.256 9.4132-63.52 10.294-32.383 26.231-58.143 51.799-83.724 25.935-25.948 50.557-41.143 84.038-51.863 16.763-5.3669 18.197-5.46 18.197-1.1799 0 2.9353-1.4818 3.7017-13.912 7.1955-28.433 7.9917-57.39 24.621-80.1 45.998-53.428 50.295-75.885 125.41-58.321 195.08 3.0888 12.252 3.1242 12.963 0.70945 14.255-2.1923 1.1733-2.845 0.33773-4.7518-6.0829z" style="paint-order:stroke fill markers"/>
   </g>
   <g transform="matrix(2.6999 0 0 2.6999 250.43 -269.07)" fill="#b71234">
    <path transform="matrix(.26458 0 0 .26458 57.427 70.189)" d="m-384.64 296.65c0-0.20799 1.3733-1.5527 1.5857-1.5527 0.85236 1.209 2.651 4.052 2.8786 5.0656v0.47013h-1.7575c-0.96662 0-2.8709 0.0534-4.2317 0.11866l-2.4742 0.11866c1.3019-1.4194 2.8394-2.6973 3.9991-4.2203z" stop-color="#000000"/>
   </g>
   <path transform="matrix(.26458 0 0 .26458 57.427 70.189)" d="m447.66 313.49c-2.0593-1.1525-1.9604-2.5959 1.0243-14.942 21.983-90.932-21.986-185.35-105.96-227.53-11.27-5.661-27.293-11.687-38.799-14.591-5.1478-1.2994-6.0714-2.0848-6.0714-5.1624 0-3.3505 0.35739-3.552 4.6429-2.6178 36.573 7.9722 79.524 34.289 106.28 65.122 44.961 51.807 61.742 120.07 46.044 187.29-1.6037 6.8681-3.3595 12.762-3.9017 13.097-0.54223 0.33511-2.0116 0.0353-3.2654-0.66642z" fill="#fff" style="paint-order:stroke fill markers"/>
  </g>
  <path d="m65.542 210.09c0.20069 0 0.43356-0.0511 0.43356-0.3228 0-0.25559-0.22151-0.32186-0.46006-0.32186h-0.06342v0.64466h0.08993" fill="#006fff"/>
  <rect x="80.097" y="170.87" width="87.716" height="17.987" clip-path="url(#clipPath7535)" fill="#b71234" fill-rule="evenodd" stop-color="#000000"/>
  <path d="m123.98 70.189c-36.689 0-66.549 29.86-66.549 66.549s29.86 66.549 66.549 66.549 66.549-29.86 66.549-66.549-29.86-66.549-66.549-66.549zm0 10.992c2.4486 0 4.8586 0.15894 7.2223 0.46405v6.9345l1.9105 0.36327c5.0854 0.96618 9.95 2.7272 14.496 5.2483v-0.0026c4.8392 2.684 9.1641 6.1498 12.856 10.299 3.9012 4.3848 6.9459 9.3584 9.0547 14.797v3e-3h3e-3c2.1873 5.6347 3.2949 11.573 3.2949 17.678 0 5.5952-0.93308 11.053-2.7673 16.256l-0.64648 1.8355 5.7707 3.3512c-1.8958 4.4884-4.3659 8.6714-7.3153 12.462l-5.7371-3.3285-1.2754 1.4609c-4.1513 4.7649-9.2848 8.7781-14.875 11.606l-3e-3 3e-3c-3.347 1.6964-6.8913 3.0015-10.53 3.8752-3.7478 0.90103-7.6222 1.3648-11.514 1.3648-3.8867 0-7.7604-0.45892-11.498-1.3591h-3e-3c-3.6376-0.87357-7.1754-2.1777-10.525-3.869-5.5844-2.8216-10.718-6.8222-14.861-11.578l-1.2738-1.463-5.6632 3.2887c-2.9497-3.7906-5.4189-7.9735-7.3147-12.462l5.6927-3.3042-0.65267-1.8376c-1.847-5.2148-2.7848-10.693-2.7848-16.301 0-6.1125 1.107-12.057 3.3006-17.698h0.0026v-3e-3c2.1154-5.4518 5.165-10.426 9.08-14.818 3.7042-4.155 8.0354-7.6117 12.889-10.297 4.5516-2.5142 9.4298-4.2667 14.529-5.2266l1.9141-0.36174v-6.9169c2.3637-0.30512 4.7743-0.46405 7.2229-0.46405zm-11.922 1.2795v2.3652c-4.885 1.1089-9.6126 2.7789-14.016 5.211l-0.0026 0.0026c-5.3135 2.9392-10.069 6.7332-14.123 11.281-4.2817 4.8036-7.6352 10.272-9.9534 16.246-2.4039 6.1821-3.623 12.717-3.623 19.399 0 5.4614 0.94575 10.797 2.5549 15.945l-1.7689 1.0268c-1.753-5.413-2.7037-11.192-2.7037-17.199 0-26.654 18.643-48.84 43.635-54.277zm23.844 0c24.992 5.4374 43.635 27.624 43.635 54.277 0 6.0075-0.95046 11.787-2.7037 17.2l-1.8547-1.0769c1.597-5.133 2.5368-10.449 2.5368-15.896 0-6.675-1.2167-13.203-3.6132-19.377v-3e-3c-2.3111-5.9597-5.6577-11.426-9.9255-16.223-4.0402-4.5407-8.7872-8.3429-14.088-11.283-4.3966-2.4383-9.1124-4.1147-13.986-5.2302zm27.045 90.992 1.818 1.0552c-10.138 10.946-24.641 17.787-40.785 17.787-16.143 0-30.647-6.841-40.785-17.787l1.6578-0.96327c4.293 4.5778 9.3641 8.4585 14.928 11.27v3e-3c3.6694 1.8526 7.5475 3.2841 11.545 4.2442 4.1034 0.98827 8.3444 1.4883 12.6 1.4883 4.2645 0 8.5042-0.50866 12.611-1.496 3.9969-0.95983 7.8823-2.3908 11.555-4.2519 5.5644-2.8146 10.562-6.7715 14.855-11.348z" color="#000000" color-rendering="auto" dominant-baseline="auto" image-rendering="auto" shape-rendering="auto" solid-color="#000000" style="font-feature-settings:normal;font-variant-alternates:normal;font-variant-caps:normal;font-variant-ligatures:normal;font-variant-numeric:normal;font-variant-position:normal;isolation:auto;mix-blend-mode:normal;paint-order:markers stroke fill;shape-padding:0;text-decoration-color:#000000;text-decoration-line:none;text-decoration-style:solid;text-indent:0;text-orientation:mixed;text-transform:none;white-space:normal"/>
  <g fill="#b71234" fill-rule="evenodd" stroke-linecap="round">
   <g stroke-width="7.4077">
    <path transform="matrix(.26458 0 0 .26458 57.427 70.189)" d="m94.673 221.2c-1.1244-2.9753-1.1454-14.335-0.03624-19.654 1.3329-6.3926 2.3039-9.1536 6.2657-17.817 7.41-13.848 17.068-33.714 29.043-43.595 3.7783-2.4971 6.8701-5.6048 11.013-8.0755 23.866-13.66 51.744-17.907 79.21-21.743 10.577-1.4527 51.974-1.4755 62.719-0.0345 30.414 6.3418 78.131 10.741 93.983 33.325 3.2922 4.3973 6.8744 8.12 10.079 13.024 9.5762 15.962 21.837 31.041 22.586 53.452l0.23531 9.6476c-12.888 21.187-32.878 30.432-52.906 32.267-11.591-15.906-20.65-31.312-32.966-47.512-1.929-2.4036-3.7304-5.7461-3.392-6.2937 0.22117-0.35786 2.0635-1.4453 4.094-2.4166 5.2018-2.4881 5.3127-4.1294 0.55379-8.1951-35.825-25.809-90.085-27.493-126.77-11.117-16.937 8.435-23.706 13.517-22.431 16.84 0.20931 0.54546 1.8728 1.6337 3.6966 2.4183 4.4906 1.9318 4.8523 2.8066 2.5166 6.0859-10.749 17.606-24.029 31.76-33.608 49.024-16.824 8.1728-49.175-17.646-53.882-29.631z" stop-color="#000000" style="paint-order:stroke fill markers"/>
    <path transform="matrix(.26458 0 0 .26458 57.427 70.189)" d="m118.25 316.73 13.23-0.42931c19.63-0.69276 38.645-2.0699 58.266-3.0225 7.8818-0.37918 14.472-0.83104 14.645-1.0041 0.1731-0.17309 0.0942-0.53522-0.17526-0.80471-0.26949-0.26949-19.297-0.63698-42.283-0.81665l-41.793-0.32666c7.1698-10.52 14.706-21.348 21.548-31.359 12.325-17.835 26.5-38.611 35.67-51.741 3.0636-4.3827 5.5702-8.1535 5.5702-8.3794 0-0.22596 1.2686-2.079 2.8192-4.1178 5.545-7.2912 10.9-15.899 10.9-17.52 0-0.95928-0.83074-2.4715-2.0002-3.6409-1.1001-1.1001-1.7616-2.232-1.47-2.5154 12.176-7.7459 24.972-12.695 40.056-16.065 8.6773-1.8827 29.923-1.7139 39.199 0.31149 11.605 2.534 17.73 4.754 30.379 11.011 10.452 5.1704 10.16 4.8474 7.282 8.0326-2.4406 2.7015-2.9399 4.427-1.6531 5.7138 0.40093 0.40094 1.0624 1.3296 1.47 2.0636 17.549 26.183 36.843 54.167 52.651 77.174 7.071 9.5935 13.059 19.998 20.264 29.493l1.3307 1.7268-39.475 0.23318c-21.711 0.12824-39.695 0.45367-39.965 0.72316s-0.35642 0.62351-0.19323 0.78669c0.16319 0.16319 8.2235 0.61207 17.912 0.9975 18.019 0.65984 36.021 1.7202 54.038 2.4368l9.6364 0.37876v42.276h-267.86zm147.65-28.181c16-3.0474 31.898-10.919 43.199-19.134 7.0486-5.2009 17.56-15.444 17.56-17.113 0-1.7526-4.9188-6.7437-13.066-13.259-3.7729-3.0168-7.2149-5.7786-7.6489-6.1372-0.43399-0.3586-0.9681-0.65199-1.1869-0.65199s-1.3337-0.66222-2.4775-1.4716c-3.2968-2.3328-4.3013-2.9008-11.258-6.3653-10.923-5.5248-23.752-8.3414-34.154-8.889-14.259-0.67702-29.442 1.9261-40.293 6.9082-9.6428 3.6889-18.812 10.708-25.806 15.355-4.4303 2.8615-14.373 12.794-14.373 14.358 0 0.81397 1.2239 2.8703 2.7197 4.5697 22.389 18.558 38.831 28.869 64.899 32.644 3.266 0.46263 18.748-0.11431 21.886-0.8156z" stop-color="#000000" style="paint-order:stroke fill markers"/>
   </g>
   <path transform="matrix(.26458 0 0 .26458 57.427 70.189)" d="m226.83 273.26c-0.44464-0.58994-1.1791-1.5188-1.632-2.0642-0.45298-0.54537-0.95532-1.3452-1.1163-1.7774-3.9682-7.085-7.3883-16.603-4.3369-23.793 2.107-6.0839 5.0826-13.128 9.0066-17.272 43.618-31.411 41.87 16.841 24.621 12.666-2.5976-4.8664-8.2751-1.3074-11.157 1.462-3.4857 3.6426-5.274 10.875-2.5831 14.256 1.0343-0.43793 1.9987-0.80728 3.0401-0.74205 0.35763 0.20013 0.2705 0.36871-0.75761 1.4658-1.4895 1.5894-1.7659 2.1338-1.5818 3.1152 0.17054 0.90909 2.3091 3.3255 3.8707 4.3736 0.54446 0.36543 1.1685 0.84199 1.3868 1.059 33.033-34.74 39.028 18.954 8.2635 20.871-9.9836 0.1678-20.784-6.1471-27.023-13.62zm30.707 11.165c1.0016-0.5005 1.6065-1.0101 2.2402-1.8871l0.86806-1.2014 0.0117-3.2439c0.84526-7.1554-7.9976-8.7697-12.8-6.6926-2.2743 1.9302-2.2015 4.8773-2.2026 6.5611 0 3.2177 0.0515 3.7411 0.39382 4.0007 0.2166 0.16427 0.4978 0.57908 0.62489 0.92179 0.12709 0.34272 0.52156 0.8015 0.87659 1.0195s0.90537 0.56126 1.223 0.76277c0.79213 0.50259 2.4688 0.68329 5.1396 0.55392 1.904-0.0922 2.4644-0.21511 3.6244-0.79475zm-17.599-8.2294c1.4151-0.75768 2.1803-1.4867 2.8508-2.8918 0.39299-0.74372 0.46121-1.3229 0.46321-3.9325 0.0259-2.3781-0.3201-5.0287-1.9287-6.1799-0.53992-0.24687-1.1834-0.60482-1.43-0.79545-0.35114-0.27145-1.1716-0.3466-3.784-0.3466-2.8644 0-3.4373 0.0617-4.0558 0.43705-1.7422 0.52189-2.6793 1.5338-3.3188 2.8605-0.34787 0.38439-0.40422 0.93898-0.40422 3.9784-0.0369 2.3272 0.12883 5.636 2.5408 6.227 0.38112 0.0885 0.84886 0.29806 1.0394 0.4656 0.56533 0.49707 1.1064 0.55666 4.6018 0.50687 2.3806-0.0339 3.3582-0.12789 3.4254-0.32929zm-7.77-17.379c3.3978-1.1883 3.3214-4.9377 3.323-6.9568 0-3.2855-0.0455-3.7274-0.40422-3.928-0.76746-1.3197-2.0107-2.1023-3.2026-2.7111-1.1506-0.89626-7.0597-0.89857-8.0921-3e-3 -3.4949 1.9725-3.3044 5.6381-3.2295 8.0547 0.15275 1.8548 0.80477 4.3557 2.2785 5.3503 0.55142 0.36361 1.1479 0.42144 4.3608 0.42276 2.0471 9.2e-4 4.2818-0.10207 4.9661-0.22868zm6.9241-16.174c1.5538-0.29468 2.922-1.1763 3.1312-2.0176 0.0868-0.34912 0.35321-0.90044 0.59206-1.2252 0.59842-2.5813 1.0281-5.3862-0.20863-8.0302-0.39578-1.7058-1.3274-1.8712-2.6648-2.658-2.714-0.68991-4.7254-0.89553-7.7727-0.0644-1.5445 0.58069-2.3766 1.3743-3.3616 2.6423-0.43455 0.49062-0.47561 0.82002-0.46063 3.6957 0.0142 2.7182 0.0944 3.3819 0.57745 4.774 0.51639 1.4882 0.64372 1.6578 1.6004 2.1316 1.8038 0.89322 5.9178 1.2542 8.5672 0.75176zm17.418-20.809c-2.3996-0.33805-7.3632-0.12217-8.6038 0.37419-2.6438 2.5878-2.6424 7.1525-1.896 10.424 0.64137 1.2974 1.5218 2.0562 2.7041 2.796 10.382 5.4828 14.97-11.526 7.7957-13.594z" stop-color="#000000" stroke-width="2.619" style="paint-order:stroke fill markers"/>
  </g>
  <g transform="translate(-92.824 -20.048)">
   <g transform="translate(92.824 20.051)" stroke="#fff" aria-label="14">
    <path d="m119.89 150.96c0.98778 0 1.4224-0.43462 1.4224-1.4224v-4.7808c0-0.98777-0.43462-1.4224-1.4224-1.4224h-3.7931v-19.4c0-0.98777-0.43462-1.4224-1.4224-1.4224h-11.458c-0.98778 0-1.4224 0.43463-1.4224 1.4224v4.7808c0 0.98777 0.43462 1.4224 1.4224 1.4224h3.635v13.197h-4.4252c-0.98778 0-1.4224 0.43463-1.4224 1.4224v4.7808c0 0.98778 0.43462 1.4224 1.4224 1.4224z"/>
    <path d="m138.02 144.36v5.176c0 0.98778 0.43462 1.4224 1.4224 1.4224h6.0847c0.98778 0 1.4224-0.43462 1.4224-1.4224v-25.603c0-0.98777-0.43462-1.4224-1.4224-1.4224h-6.0847c-0.98778 0-1.4224 0.43463-1.4224 1.4224v12.169h-3.6745c-0.75071 0-1.2248-0.51364-1.2248-1.3434v-10.826c0-0.98777-0.43462-1.4224-1.4224-1.4224h-6.1242c-0.98778 0-1.4224 0.43463-1.4224 1.4224v13.868c0 4.5043 2.0546 6.5588 7.191 6.5588z"/>
   </g>
  </g>
 </g>
</svg>
