<?xml version="1.0" encoding="UTF-8"?>
<!-- Created with Inkscape (http://www.inkscape.org/) -->
<svg width="133.1mm" height="133.1mm" version="1.1" viewBox="0 0 133.1 133.1" xmlns="http://www.w3.org/2000/svg">
 <g transform="translate(-57.427 -70.189)">
  <g fill="#fff" fill-opacity=".99216" fill-rule="evenodd" stroke-width="5.3993">
   <path transform="matrix(.26458 0 0 .26458 57.427 70.189)" d="m225.71 459.26c-43.865-6.0884-84.333-25.036-116.19-54.403-9.1404-8.4252-10.776-10.552-8.9144-11.593 1.7382-0.97277 4.7683 0.97876 12.765 8.2212 30.82 27.914 66.482 45.225 105.89 51.405 19.138 3.0008 56.728 2.2602 73.592-1.45 36.423-8.013 68.678-24.753 94.504-49.047 8.9563-8.4247 11.722-10.278 14.175-9.4991 2.8981 0.91981 2.777 1.2496-2.4586 6.6969-9.413 9.7937-27.708 23.926-41.177 31.808-21.703 12.7-43.491 20.953-68.007 25.758-14.071 2.7581-50.792 3.9614-64.18 2.1032z"/>
   <path transform="matrix(.26458 0 0 .26458 57.427 70.189)" d="m447.25 312.99c-1.2871-1.5509-1.0195-4.5676 1.1724-13.214 6.5933-26.009 7.5603-61.935 2.3395-86.919-16.022-76.671-70.564-135.23-145.3-156.01-7.107-1.9759-8.3206-2.8001-8.3206-5.6506 0-4.3687 1.2883-4.2654 18.945 1.5185 52.673 17.254 97.837 56.125 122.72 105.62 7.6975 15.31 16.162 41.414 19.07 58.808 4.4933 26.884 2.6178 63.862-4.5465 89.643-2.3854 8.584-3.3174 9.5349-6.0814 6.2046z"/>
   <path transform="matrix(.26458 0 0 .26458 57.427 70.189)" d="m48.851 303.21c-5.142-20.694-6.4015-34.082-5.587-59.392 0.59261-18.416 1.5789-27.262 4.346-38.981 16.976-71.892 69.498-129.31 139.16-152.13 17.674-5.7896 18.945-5.89 18.945-1.4963 0 2.9419-1.1984 3.6779-9.6429 5.9221-62.528 16.618-115.36 66.241-136.7 128.39-12.343 35.955-14.252 79.561-5.0496 115.34 1.9428 7.5529 2.2594 10.943 1.1472 12.283-2.7666 3.3336-3.6557 1.9996-6.6211-9.9348z"/>
  </g>
  <path d="m112.62 189.79c-8.4776-1.8208-18.485-7.2008-25.231-13.564l-5.843-5.512-6.2772 3.528-2.9932-4.7884c-4.5271-7.2424-4.6253-8.0303-1.249-10.022l2.8682-1.6923-1.5364-5.5409c-3.8126-13.75-2.6234-25.842 3.8196-38.838 6.4631-13.036 18.343-23.152 31.833-27.105 3.226-0.94538 6.3368-1.8641 6.9129-2.0416 0.63634-0.1961 1.0474-1.8129 1.0474-4.1198v-3.797h15.829l0.2554 3.8685 0.25539 3.8685 6.2845 1.8383c15.022 4.394 26.311 13.883 33.548 28.199 5.4481 10.778 6.9027 26.672 3.4392 37.578-0.94054 2.9617-1.5165 5.6981-1.2798 6.081 0.23663 0.38287 1.5375 1.2687 2.8909 1.9686 1.3534 0.69984 2.4607 1.6945 2.4607 2.2103s-1.5838 3.5044-3.5194 6.6413l-3.5194 5.7034-6.2979-3.5396-5.843 5.512c-12.87 12.141-30.808 17.226-47.855 13.564z" fill="#008000" fill-rule="evenodd" stroke-linecap="round" stroke-width="1.5835" style="paint-order:stroke fill markers"/>
  <g transform="translate(.044668)">
   <path d="m116.07 120.48c-2.0974-3.7456-4.1949-7.4911-6.2923-11.237-3.4681-6.832 0.17972-12.965 3.6742-16.694 2.2513-2.4028 3.3097-2.932 5.7199 0.16203 1.4791 1.8987 4.6616 3.6013 4.6616 3.6013s3.0683-1.7941 4.6616-3.6013c2.7125-3.0765 4.3-2.5474 6.2491-0.16203 0 0 7.5977 10.305 3.7389 16.694 0 0 0.41497-0.0959-6.3208 11.193l-5.9018 7.6462-4.1703-0.0388z" fill="#ffe5b4" fill-rule="evenodd" stroke-linecap="round" stroke-width=".78813" style="paint-order:stroke fill markers"/>
   <path d="m116.07 153.57c-2.0974 3.7456-4.1949 7.4911-6.2923 11.237-3.4681 6.832 0.17972 12.965 3.6742 16.694 2.2513 2.4028 3.3097 2.932 5.7199-0.16203 1.4791-1.8987 4.6616-3.6013 4.6616-3.6013s3.0683 1.7941 4.6616 3.6013c2.7125 3.0765 4.3 2.5474 6.2491 0.16203 0 0 7.5977-10.305 3.7389-16.694 0 0 0.41497 0.0959-6.3208-11.193l-5.9018-7.6462-4.1703 0.0388z" fill="#ffe5b4" fill-rule="evenodd" stroke-linecap="round" stroke-width=".78813" style="paint-order:stroke fill markers"/>
   <g transform="rotate(-60 133.3 102.87)">
    <path d="m91.098 95.037c-2.0974-3.7456-4.1949-7.4911-6.2923-11.237-3.4681-6.832 0.17972-12.965 3.6742-16.694 2.2513-2.4028 3.3097-2.932 5.7199 0.16203 1.4791 1.8987 4.6616 3.6013 4.6616 3.6013s3.0683-1.7941 4.6616-3.6013c2.7125-3.0765 4.3-2.5474 6.2491-0.16203 0 0 7.5977 10.305 3.7388 16.694 0 0 0.41497-0.0959-6.3208 11.193l-5.9018 7.6462-5.0868 0.49037z" fill="#ffe5b4" fill-rule="evenodd" stroke-linecap="round" stroke-width=".78813" style="paint-order:stroke fill markers"/>
   </g>
   <path d="m104.91 138.84c-4.2888 0.18527-8.5777-0.68773-12.866-0.50243-7.6349 0.64226-10.934 7.499-12.269 12.432-0.86011 3.1784-0.75376 4.3569 3.1454 4.7802 2.3928 0.25982 5.5143 2.0717 5.5143 2.0717s0.0872 3.5532-0.6122 5.8587c-1.1907 3.9249 0.09414 4.997 3.1479 5.4007 0 0 12.76 1.0445 16.166-5.5976 0 0 0.13663 0.4034 6.1976-11.262l3.4008-9.0404-2.2257-4.056z" fill="#ffe5b4" fill-rule="evenodd" stroke-linecap="round" stroke-width=".78813" style="paint-order:stroke fill markers"/>
   <g transform="matrix(-.5 -.86603 -.86603 .5 270.3 166.41)">
    <path d="m91.098 95.037c-2.0974-3.7456-4.1949-7.4911-6.2923-11.237-3.4681-6.832 0.17972-12.965 3.6742-16.694 2.2513-2.4028 3.3097-2.932 5.7199 0.16203 1.4791 1.8987 4.6616 3.6013 4.6616 3.6013s3.0683-1.7941 4.6616-3.6013c2.7125-3.0765 4.3-2.5474 6.2491-0.16203 0 0 7.5977 10.305 3.7388 16.694 0 0 0.41497-0.0959-6.3208 11.193l-5.9018 7.6462-5.0868 0.49037z" fill="#ffe5b4" fill-rule="evenodd" stroke-linecap="round" stroke-width=".78813" style="paint-order:stroke fill markers"/>
   </g>
   <path d="m142.95 138.38c4.2888 0.18527 8.5777-0.68773 12.866-0.50243 7.6349 0.64226 10.934 7.499 12.269 12.432 0.86012 3.1784 0.75376 4.3569-3.1454 4.7802-2.3928 0.25982-5.5143 2.0717-5.5143 2.0717s-0.0872 3.5532 0.6122 5.8587c1.1907 3.9249-0.0941 4.997-3.1479 5.4007 0 0-12.76 1.0445-16.166-5.5976 0 0-0.13663 0.4034-6.1976-11.262l-3.4008-9.0404 2.2257-4.056z" fill="#ffe5b4" fill-rule="evenodd" stroke-linecap="round" stroke-width=".78813" style="paint-order:stroke fill markers"/>
  </g>
  <g stroke="#fff" aria-label="103">
   <path d="m106.79 150.96c0.98778 0 1.4224-0.43462 1.4224-1.4224v-4.7808c0-0.98777-0.43462-1.4224-1.4224-1.4224h-3.7931v-19.4c0-0.98777-0.43462-1.4224-1.4224-1.4224h-11.458c-0.98778 0-1.4224 0.43463-1.4224 1.4224v4.7808c0 0.98777 0.43462 1.4224 1.4224 1.4224h3.635v13.197h-4.4252c-0.98778 0-1.4224 0.43463-1.4224 1.4224v4.7808c0 0.98778 0.43462 1.4224 1.4224 1.4224z"/>
   <path d="m136.19 143.49v-13.473c0-4.8204-2.3312-8.0998-12.051-8.0998s-12.09 3.2794-12.09 8.0998v13.473c0 4.8204 2.3707 8.0603 12.09 8.0603s12.051-3.2399 12.051-8.0603zm-15.212-1.4224v-10.628c0-1.0273 0.47413-1.8175 3.1609-1.8175 2.7263 0 3.1609 0.79022 3.1609 1.8175v10.628c0 1.0668-0.43462 1.857-3.1609 1.857-2.6868 0-3.1609-0.79022-3.1609-1.857z"/>
   <path d="m141.64 143.49c-0.98778 0-1.4224 0.43462-1.4224 1.4224v4.6228c0 0.98778 0.43462 1.4224 1.4224 1.4224h12.486c5.0574 0 7.6652-2.4892 7.6652-6.5588v-3.9511c0-3.477-1.2248-5.2945-4.9784-5.7291 1.7385-0.75071 2.3312-2.2521 2.3312-4.2672v-2.2916c0-3.477-2.0941-5.6501-6.4798-5.6501h-11.024c-0.98778 0-1.4224 0.43463-1.4224 1.4224v4.7018c0 0.98777 0.43462 1.4224 1.4224 1.4224h7.3491c1.2644 0 1.5014 0.55316 1.5014 1.1853v0.59266c0 0.63218-0.23706 1.1853-1.5014 1.1853h-4.1487c-0.98778 0-1.4224 0.43462-1.4224 1.4224v4.2277c0 0.98778 0.43462 1.4224 1.4224 1.4224h6.7169c1.2644 0 1.5014 0.51365 1.5014 1.1458v1.0668c0 0.63217-0.23707 1.1853-1.5014 1.1853z"/>
  </g>
  <path d="m123.98 70.189c-36.689 0-66.549 29.86-66.549 66.549s29.86 66.549 66.549 66.549c36.689 0 66.549-29.86 66.549-66.549s-29.86-66.549-66.549-66.549zm0 10.992c2.4486 0 4.8586 0.15894 7.2223 0.46405v6.9345l1.9105 0.36327c5.0854 0.96618 9.95 2.7272 14.496 5.2483v-0.0026c4.8392 2.684 9.1641 6.1498 12.856 10.299 3.9012 4.3848 6.9459 9.3584 9.0547 14.797v3e-3h3e-3c2.1873 5.6347 3.2949 11.573 3.2949 17.678 0 5.5952-0.93308 11.053-2.7673 16.256l-0.64648 1.8355 5.7707 3.3512c-1.8958 4.4884-4.3659 8.6714-7.3153 12.462l-5.7371-3.3285-1.2754 1.4609c-4.1513 4.7649-9.2848 8.7781-14.875 11.606l-3e-3 3e-3c-3.347 1.6964-6.8913 3.0015-10.53 3.8752-3.7478 0.90103-7.6222 1.3648-11.514 1.3648-3.8867 0-7.7604-0.45892-11.498-1.3591h-3e-3c-3.6376-0.87357-7.1754-2.1777-10.525-3.869-5.5844-2.8216-10.718-6.8222-14.861-11.578l-1.2738-1.463-5.6632 3.2887c-2.9497-3.7906-5.4189-7.9735-7.3147-12.462l5.6927-3.3042-0.65267-1.8376c-1.847-5.2148-2.7848-10.693-2.7848-16.301 0-6.1125 1.107-12.057 3.3006-17.698h0.0026v-3e-3c2.1154-5.4518 5.165-10.426 9.08-14.818 3.7042-4.155 8.0354-7.6117 12.889-10.297 4.5516-2.5142 9.4298-4.2667 14.529-5.2266l1.9141-0.36174v-6.9169c2.3637-0.30512 4.7743-0.46405 7.2229-0.46405zm-11.922 1.2795v2.3652c-4.885 1.1089-9.6126 2.7789-14.016 5.211l-0.0026 0.0026c-5.3135 2.9392-10.069 6.7332-14.123 11.281-4.2817 4.8036-7.6352 10.272-9.9534 16.246-2.4039 6.1821-3.623 12.717-3.623 19.399 0 5.4614 0.94575 10.797 2.5549 15.945l-1.7689 1.0268c-1.753-5.413-2.7037-11.192-2.7037-17.199 0-26.654 18.643-48.84 43.635-54.277zm23.844 0c24.992 5.4374 43.635 27.624 43.635 54.277 0 6.0075-0.95046 11.787-2.7037 17.2l-1.8547-1.0769c1.597-5.133 2.5368-10.449 2.5368-15.896 0-6.675-1.2167-13.203-3.6132-19.377v-3e-3c-2.3111-5.9597-5.6577-11.426-9.9255-16.223-4.0402-4.5407-8.7872-8.3429-14.088-11.283-4.3966-2.4383-9.1124-4.1147-13.986-5.2302zm27.045 90.992 1.818 1.0552c-10.138 10.946-24.641 17.787-40.785 17.787-16.143 0-30.647-6.841-40.785-17.787l1.6578-0.96327c4.293 4.5778 9.3641 8.4585 14.928 11.27v3e-3c3.6694 1.8526 7.5475 3.2841 11.545 4.2442 4.1034 0.98827 8.3444 1.4883 12.6 1.4883 4.2645 0 8.5042-0.50866 12.611-1.496 3.9969-0.95983 7.8823-2.3908 11.555-4.2519 5.5644-2.8146 10.562-6.7715 14.855-11.348z" color="#000000" color-rendering="auto" dominant-baseline="auto" image-rendering="auto" shape-rendering="auto" solid-color="#000000" style="font-feature-settings:normal;font-variant-alternates:normal;font-variant-caps:normal;font-variant-ligatures:normal;font-variant-numeric:normal;font-variant-position:normal;isolation:auto;mix-blend-mode:normal;paint-order:markers stroke fill;shape-padding:0;text-decoration-color:#000000;text-decoration-line:none;text-decoration-style:solid;text-indent:0;text-orientation:mixed;text-transform:none;white-space:normal"/>
 </g>
</svg>
