<?xml version="1.0" encoding="UTF-8"?>
<!-- Created with Inkscape (http://www.inkscape.org/) -->
<svg width="133.1mm" height="133.1mm" version="1.1" viewBox="0 0 133.1 133.1" xmlns="http://www.w3.org/2000/svg" xmlns:cc="http://creativecommons.org/ns#" xmlns:dc="http://purl.org/dc/elements/1.1/" xmlns:rdf="http://www.w3.org/1999/02/22-rdf-syntax-ns#">
 <metadata>
  <rdf:RDF>
   <cc:Work rdf:about="">
    <dc:format>image/svg+xml</dc:format>
    <dc:type rdf:resource="http://purl.org/dc/dcmitype/StillImage"/>
   </cc:Work>
  </rdf:RDF>
 </metadata>
 <g transform="translate(-57.427 -70.189)">
  <g fill="#fff" fill-opacity=".99216" fill-rule="evenodd" stroke-width="5.3993">
   <path transform="matrix(.26458 0 0 .26458 57.427 70.189)" d="m225.71 459.26c-43.865-6.0884-84.333-25.036-116.19-54.403-9.1404-8.4252-10.776-10.552-8.9144-11.593 1.7382-0.97277 4.7683 0.97876 12.765 8.2212 30.82 27.914 66.482 45.225 105.89 51.405 19.138 3.0008 56.728 2.2602 73.592-1.45 36.423-8.013 68.678-24.753 94.504-49.047 8.9563-8.4247 11.722-10.278 14.175-9.4991 2.8981 0.91981 2.777 1.2496-2.4586 6.6969-9.413 9.7937-27.708 23.926-41.177 31.808-21.703 12.7-43.491 20.953-68.007 25.758-14.071 2.7581-50.792 3.9614-64.18 2.1032z"/>
   <path transform="matrix(.26458 0 0 .26458 57.427 70.189)" d="m447.25 312.99c-1.2871-1.5509-1.0195-4.5676 1.1724-13.214 6.5933-26.009 7.5603-61.935 2.3395-86.919-16.022-76.671-70.564-135.23-145.3-156.01-7.107-1.9759-8.3206-2.8001-8.3206-5.6506 0-4.3687 1.2883-4.2654 18.945 1.5185 52.673 17.254 97.837 56.125 122.72 105.62 7.6975 15.31 16.162 41.414 19.07 58.808 4.4933 26.884 2.6178 63.862-4.5465 89.643-2.3854 8.584-3.3174 9.5349-6.0814 6.2046z"/>
   <path transform="matrix(.26458 0 0 .26458 57.427 70.189)" d="m48.851 303.21c-5.142-20.694-6.4015-34.082-5.587-59.392 0.59261-18.416 1.5789-27.262 4.346-38.981 16.976-71.892 69.498-129.31 139.16-152.13 17.674-5.7896 18.945-5.89 18.945-1.4963 0 2.9419-1.1984 3.6779-9.6429 5.9221-62.528 16.618-115.36 66.241-136.7 128.39-12.343 35.955-14.252 79.561-5.0496 115.34 1.9428 7.5529 2.2594 10.943 1.1472 12.283-2.7666 3.3336-3.6557 1.9996-6.6211-9.9348z"/>
  </g>
  <path d="m117.1 189.11c-11.8-1.6384-22.399-7.0554-30.861-15.771-1.7559-1.8088-3.2908-3.2887-3.411-3.2887-0.1202 0-1.4863 0.73095-3.0359 1.6243-1.5495 0.89337-2.8739 1.6243-2.943 1.6243-0.49308 0-7.5185-11.899-7.5185-12.734 0-0.0926 1.3248-0.94731 2.9441-1.8994s2.9707-1.7495 3.0032-1.7721c0.0325-0.0226-0.453-1.6057-1.0789-3.5179-1.9191-5.8634-2.5667-10.932-2.3244-18.191 0.16565-4.9631 0.43311-7.1944 1.2237-10.209 3.2918-12.552 9.8138-22.312 20.012-29.95 5.5131-4.1287 14.016-7.8792 20.584-9.0793l2.741-0.50086v-7.4594l2.496-0.26089c3.1557-0.32984 7.6403-0.32887 10.397 0.0022l2.1319 0.25607v3.8012c0 3.4571 0.0695 3.8012 0.7677 3.8012 1.617 0 8.6822 2.0835 12.183 3.5926 13.97 6.0227 24.539 17.611 29.261 32.085 3.268 10.015 3.2802 21.729 0.0331 31.826-0.65932 2.0502-1.1603 3.7545-1.1133 3.7873 0.047 0.0327 1.4103 0.82545 3.0296 1.7616s2.9441 1.7899 2.9441 1.8973c0 0.6027-3.2453 6.5389-5.1478 9.4163l-2.2171 3.3531-6.295-3.4115-2.9964 3.1544c-7.1339 7.5101-16.399 12.827-26.349 15.12-4.9152 1.133-13.816 1.5872-18.461 0.94222z" fill="#7cc9f1" fill-rule="evenodd" style="paint-order:stroke fill markers"/>
  <g fill="#fff" fill-rule="evenodd">
   <path transform="matrix(.26458 0 0 .26458 57.427 70.189)" d="m50.054 307.59c-5.3927-18.159-7.1057-31.761-7.0728-56.164 0.03617-26.881 2.0183-40.256 9.4132-63.52 10.294-32.383 26.231-58.143 51.799-83.724 25.935-25.948 50.557-41.143 84.038-51.863 16.763-5.3669 18.197-5.46 18.197-1.1799 0 2.9353-1.4818 3.7017-13.912 7.1955-28.433 7.9917-57.39 24.621-80.1 45.998-53.428 50.295-75.885 125.41-58.321 195.08 3.0888 12.252 3.1242 12.963 0.70945 14.255-2.1923 1.1733-2.845 0.33773-4.7518-6.0829z" style="paint-order:stroke fill markers"/>
   <path transform="matrix(.26458 0 0 .26458 57.427 70.189)" d="m447.66 313.49c-2.0593-1.1525-1.9604-2.5959 1.0243-14.942 21.983-90.932-21.986-185.35-105.96-227.53-11.27-5.661-27.293-11.687-38.799-14.591-5.1478-1.2994-6.0714-2.0848-6.0714-5.1624 0-3.3505 0.35739-3.552 4.6429-2.6178 36.573 7.9722 79.524 34.289 106.28 65.122 44.961 51.807 61.742 120.07 46.044 187.29-1.6037 6.8681-3.3595 12.762-3.9017 13.097-0.54223 0.33511-2.0116 0.0353-3.2654-0.66642z" style="paint-order:stroke fill markers"/>
  </g>
  <path d="m65.542 210.09c0.20069 0 0.43356-0.0511 0.43356-0.3228 0-0.25559-0.22151-0.32186-0.46006-0.32186h-0.06342v0.64466h0.08993" fill="#006fff"/>
  <g fill="#c63431">
   <path d="m90.8 116.34c-0.18684-0.10976-1.2009-1.9848-1.3915-1.9657-0.97946 0.0982-2.1632-0.42004-5.843-1.4178 2.5325 2.6752 3.3328 3.2816 3.8194 4.2811 0.04758 0.16208 1.2177 0.28312 1.9741 0.38087 0.31947 0.0413 0.56556 0.0783 0.62315 0.11223 0.31659 0.51332 0.16869 0.73807 0.67039 1.0609 0.50164 0.32281 1.0345 0.24644 1.1763 0.0208 0 0 26.811 15.589 36.119 21.306 9.3081 5.7168 20.774 12.663 21.795 13.268 1.0177 0.60299 2.0667 4.9777 3.2314 5.823 0.078-0.17578 0.74908-1.6398 0.74908-1.6398l0.93766-1.4241 3.1955 1.8276c2.8513 1.6308 2.934 1.7371 2.6843 2.3347-0.49094 1.175-0.52012 0.42097 0.56268 0.73281l5.0603 1.4573 3.8096 1.1724-3.0579-2.7395-3.5123-3.878c-0.6494-0.71704 0.2775-1.1687-0.62673-0.24336-0.5832 0.59682-0.76047 0.57469-3.6671-1.1347l-3.0769-1.8095 0.94612-1.503 1.1833-1.4161c-1.4241-0.62294-5.6425 0.48021-6.7442-0.169-1.0693-0.63035-13.354-7.4206-22.419-12.541-9.0655-5.1205-19.353-10.978-36.318-20.898 0.0948-0.15061-0.12864-0.6021-0.65637-0.90798-0.52569-0.30367-0.66476 0.0165-1.2248-0.0909"/>
   <path d="m157.45 116.34c0.18684-0.10976 1.2009-1.9848 1.3915-1.9657 0.97946 0.0982 2.1632-0.42004 5.843-1.4178-2.5325 2.6752-3.3328 3.2816-3.8194 4.2811-0.0476 0.16208-1.2178 0.28312-1.9741 0.38087-0.31947 0.0413-0.56556 0.0783-0.62315 0.11223-0.31659 0.51332-0.16869 0.73807-0.67039 1.0609-0.50164 0.32281-1.0346 0.24644-1.1763 0.0208 0 0-26.811 15.589-36.119 21.306-9.3081 5.7168-20.774 12.663-21.795 13.268-1.0177 0.60299-2.0667 4.9777-3.2314 5.823-0.078-0.17578-0.74908-1.6398-0.74908-1.6398l-0.93766-1.4241-3.1955 1.8276c-2.8513 1.6308-2.934 1.7371-2.6843 2.3347 0.49094 1.175 0.52012 0.42097-0.56268 0.73281l-5.0603 1.4573-3.8096 1.1724 3.0579-2.7395 3.5123-3.878c0.6494-0.71704-0.2775-1.1687 0.62673-0.24336 0.5832 0.59682 0.76047 0.57469 3.6671-1.1347l3.0769-1.8095-0.94612-1.503-1.1833-1.4161c1.4241-0.62294 5.6425 0.48021 6.7442-0.169 1.0693-0.63035 13.354-7.4206 22.419-12.541 9.0655-5.1205 19.353-10.978 36.318-20.898-0.0948-0.15061 0.12863-0.6021 0.65637-0.90798 0.52569-0.30367 0.66476 0.0165 1.2248-0.0909"/>
   <path d="m125.14 176.59c2e-3 0.21669 1.1184 2.0324 1.0066 2.188-0.57478 0.79914-0.71784 2.0834-1.6937 5.7691-1.0505-3.5308-1.1755-4.5271-1.7978-5.4482-0.11657-0.12226 0.36369-1.1962 0.65723-1.9001 0.12397-0.29731 0.21497-0.52894 0.21438-0.59577-0.28626-0.53084-0.55484-0.51513-0.58359-1.111-0.0287-0.59584 0.30385-1.0192 0.57013-1.0291 0 0-0.0953-31.014-0.39221-41.933-0.29689-10.919-0.57949-24.322-0.59299-25.509-0.0133-1.1829-3.2774-4.2787-3.4272-5.71 0.19123 0.0203 1.7947 0.1712 1.7947 0.1712l1.7021-0.1 0.015-3.6812c0.0134-3.2847-0.0374-3.4095-0.67979-3.492-1.263-0.16234-0.62463 0.23995-0.35329-0.8537l1.2681-5.111 0.88945-3.8855 0.84354 4.018 1.6023 4.9807c0.29627 0.92092 1.1509 0.34403-0.10261 0.66444-0.80846 0.20666-0.87793 0.37125-0.85088 3.7432l0.0286 3.5694 1.7747-0.0678 1.818-0.31673c-0.17256 1.5448-3.2372 4.6465-3.2258 5.9252 0.0113 1.2412-0.25033 15.275-0.34861 25.686-0.0983 10.411-0.16938 22.249-0.0606 41.901 0.17784-7e-3 0.45712 0.41245 0.45815 1.0224 1.4e-4 0.6071-0.34667 0.56745-0.53367 1.1061"/>
  </g>
  <g transform="matrix(.9461 0 0 1.0319 7.2119 .51749)" fill="#006fff">
   <path d="m112.36 157.8c-5.5872-1.4343-10.576-2.9304-11.086-3.3247-0.80632-0.62334-0.9274-2.9734-0.9274-17.998v-17.281h46.709v17.263c0 15.754-0.0904 17.337-1.0347 18.104-0.99734 0.81058-20.897 5.988-22.645 5.8916-0.47132-0.0259-5.4283-1.2207-11.015-2.655z" fill-rule="evenodd" style="paint-order:stroke fill markers"/>
   <path d="m123.98 161.33c0.91313 0 2.1901 0.30836 0.91313 2.2783-1.2769 1.9757 2.693 3.112 2.693 3.112l1.5017-1.2875c-1.8263-1.3676-1.8263-1.8185 0.36399-3.0348 2.1901-1.2163 3.1032 1.6672 3.1032 1.6672l1.6444-0.60814 0.182-1.6672c4.3802 0.29959 6.9377 0 10.769-1.9698-7.3015 1.9698-11.5-0.30837-11.5-0.30837s8.0327-1.8185 10.954-2.4267c2.9142-0.60223 4.7404-1.2104 4.7404-4.3994v-30.668c0-9.7155 4.3801-8.6505 4.3801-8.6505l-4.744-6.3782c-12.049 3.4946-14.603-2.8864-25.008-2.8864-10.405 0-12.955 6.3811-25.008 2.8864l-4.7404 6.3782s4.3766-1.065 4.3766 8.6505v30.668c0 3.1891 1.8263 3.7913 4.7476 4.3994 2.9177 0.60814 10.95 2.4267 10.95 2.4267s-4.1983 2.2783-11.5 0.30837c3.8345 1.9698 6.3884 2.2694 10.769 1.9698l0.182 1.6672 1.6444 0.60814s0.90956-2.8835 3.0996-1.6672c2.1901 1.2104 2.1901 1.6672 0.22834 3.0704l1.3697 1.332s4.2446-1.2163 2.9641-3.192c-1.277-1.9698 0-2.2783 0.91314-2.2783l-0.18199-1.7088s-15.491-3.4531-19.165-4.2185c-3.6846-0.76242-3.4064-2.1419-3.4064-3.7527v-29.176h45.146v29.176c0 1.6109 0.27468 2.9903-3.4064 3.7527-3.674 0.76538-19.165 4.2185-19.165 4.2185l0.18199 1.7088"/>
  </g>
  <g stroke="#fff" aria-label="11">
   <path d="m121.36 150.43c0.98778 0 1.4224-0.43462 1.4224-1.4224v-4.7808c0-0.98777-0.43462-1.4224-1.4224-1.4224h-3.7931v-19.4c0-0.98777-0.43462-1.4224-1.4224-1.4224h-11.458c-0.98777 0-1.4224 0.43462-1.4224 1.4224v4.7808c0 0.98778 0.43462 1.4224 1.4224 1.4224h3.635v13.197h-4.4252c-0.98777 0-1.4224 0.43462-1.4224 1.4224v4.7808c0 0.98778 0.43463 1.4224 1.4224 1.4224z"/>
   <path d="m145.11 150.43c0.98778 0 1.4224-0.43462 1.4224-1.4224v-4.7808c0-0.98777-0.43462-1.4224-1.4224-1.4224h-3.7931v-19.4c0-0.98777-0.43462-1.4224-1.4224-1.4224h-11.458c-0.98778 0-1.4224 0.43462-1.4224 1.4224v4.7808c0 0.98778 0.43462 1.4224 1.4224 1.4224h3.635v13.197h-4.4252c-0.98778 0-1.4224 0.43462-1.4224 1.4224v4.7808c0 0.98778 0.43462 1.4224 1.4224 1.4224z"/>
  </g>
  <path d="m123.98 70.189c-36.689 0-66.549 29.86-66.549 66.549s29.86 66.549 66.549 66.549c36.689 0 66.549-29.86 66.549-66.549s-29.86-66.549-66.549-66.549zm0 10.992c2.4486 0 4.8586 0.15894 7.2223 0.46405v6.9345l1.9105 0.36327c5.0854 0.96618 9.95 2.7272 14.496 5.2483v-0.0026c4.8392 2.684 9.1641 6.1498 12.856 10.299 3.9012 4.3848 6.9459 9.3584 9.0547 14.797v3e-3h3e-3c2.1873 5.6347 3.2949 11.573 3.2949 17.678 0 5.5952-0.93308 11.053-2.7673 16.256l-0.64648 1.8355 5.7707 3.3512c-1.8958 4.4884-4.3659 8.6714-7.3153 12.462l-5.7371-3.3285-1.2754 1.4609c-4.1513 4.7649-9.2848 8.7781-14.875 11.606l-3e-3 3e-3c-3.347 1.6964-6.8913 3.0015-10.53 3.8752-3.7478 0.90103-7.6222 1.3648-11.514 1.3648-3.8867 0-7.7604-0.45892-11.498-1.3591h-3e-3c-3.6376-0.87357-7.1754-2.1777-10.525-3.869-5.5844-2.8216-10.718-6.8222-14.861-11.578l-1.2738-1.463-5.6632 3.2887c-2.9497-3.7906-5.4189-7.9735-7.3147-12.462l5.6927-3.3042-0.65267-1.8376c-1.847-5.2148-2.7848-10.693-2.7848-16.301 0-6.1125 1.107-12.057 3.3006-17.698h0.0026v-3e-3c2.1154-5.4518 5.165-10.426 9.08-14.818 3.7042-4.155 8.0354-7.6117 12.889-10.297 4.5516-2.5142 9.4298-4.2667 14.529-5.2266l1.9141-0.36174v-6.9169c2.3637-0.30512 4.7743-0.46405 7.2229-0.46405zm-11.922 1.2795v2.3652c-4.885 1.1089-9.6126 2.7789-14.016 5.211l-0.0026 0.0026c-5.3135 2.9392-10.069 6.7332-14.123 11.281-4.2817 4.8036-7.6352 10.272-9.9534 16.246-2.4039 6.1821-3.623 12.717-3.623 19.399 0 5.4614 0.94575 10.797 2.5549 15.945l-1.7689 1.0268c-1.753-5.413-2.7037-11.192-2.7037-17.199 0-26.654 18.643-48.84 43.635-54.277zm23.844 0c24.992 5.4374 43.635 27.624 43.635 54.277 0 6.0075-0.95046 11.787-2.7037 17.2l-1.8547-1.0769c1.597-5.133 2.5368-10.449 2.5368-15.896 0-6.675-1.2167-13.203-3.6132-19.377v-3e-3c-2.3111-5.9597-5.6577-11.426-9.9255-16.223-4.0402-4.5407-8.7872-8.3429-14.088-11.283-4.3966-2.4383-9.1124-4.1147-13.986-5.2302zm27.045 90.992 1.818 1.0552c-10.138 10.946-24.641 17.787-40.785 17.787-16.143 0-30.647-6.841-40.785-17.787l1.6578-0.96327c4.293 4.5778 9.3641 8.4585 14.928 11.27v3e-3c3.6694 1.8526 7.5475 3.2841 11.545 4.2442 4.1034 0.98827 8.3444 1.4883 12.6 1.4883 4.2645 0 8.5042-0.50866 12.611-1.496 3.9969-0.95983 7.8823-2.3908 11.555-4.2519 5.5644-2.8146 10.562-6.7715 14.855-11.348z" color="#000000" color-rendering="auto" dominant-baseline="auto" image-rendering="auto" shape-rendering="auto" solid-color="#000000" style="font-feature-settings:normal;font-variant-alternates:normal;font-variant-caps:normal;font-variant-ligatures:normal;font-variant-numeric:normal;font-variant-position:normal;isolation:auto;mix-blend-mode:normal;paint-order:markers stroke fill;shape-padding:0;text-decoration-color:#000000;text-decoration-line:none;text-decoration-style:solid;text-indent:0;text-orientation:mixed;text-transform:none;white-space:normal"/>
 </g>
</svg>
