<?xml version="1.0" encoding="UTF-8"?>
<!-- Created with Inkscape (http://www.inkscape.org/) -->
<svg width="133.1mm" height="133.1mm" version="1.1" viewBox="0 0 133.1 133.1" xmlns="http://www.w3.org/2000/svg" xmlns:cc="http://creativecommons.org/ns#" xmlns:dc="http://purl.org/dc/elements/1.1/" xmlns:rdf="http://www.w3.org/1999/02/22-rdf-syntax-ns#">
 <metadata>
  <rdf:RDF>
   <cc:Work rdf:about="">
    <dc:format>image/svg+xml</dc:format>
    <dc:type rdf:resource="http://purl.org/dc/dcmitype/StillImage"/>
   </cc:Work>
  </rdf:RDF>
 </metadata>
 <g transform="translate(-57.427 -70.189)">
  <path d="m117.1 189.11c-11.8-1.6384-22.399-7.0554-30.861-15.771-1.7559-1.8088-3.2908-3.2887-3.411-3.2887-0.1202 0-1.4863 0.73093-3.0359 1.6243-1.5495 0.89337-2.8739 1.6243-2.943 1.6243-0.49308 0-7.5185-11.899-7.5185-12.734 0-0.0926 1.3248-0.94732 2.9441-1.8994 1.6192-0.95208 2.9707-1.7495 3.0032-1.7721 0.0325-0.0226-0.453-1.6057-1.0789-3.518-1.9191-5.8634-2.5667-10.932-2.3244-18.191 0.16565-4.9631 0.43311-7.1944 1.2237-10.209 3.2918-12.552 9.8138-22.312 20.012-29.95 5.5131-4.1287 14.016-7.8792 20.584-9.0793l2.741-0.50086v-7.4594l2.496-0.26089c3.1557-0.32984 7.6403-0.32887 10.397 0.0022l2.1319 0.25607v3.8012c0 3.4571 0.0696 3.8012 0.7677 3.8012 1.617 0 8.6822 2.0835 12.183 3.5926 13.97 6.0227 24.539 17.611 29.261 32.085 3.268 10.015 3.2802 21.729 0.0332 31.826-0.65931 2.0502-1.1603 3.7545-1.1133 3.7873 0.0471 0.0327 1.4103 0.82545 3.0296 1.7616 1.6192 0.93612 2.9441 1.7899 2.9441 1.8973 0 0.60272-3.2453 6.5389-5.1478 9.4163l-2.2171 3.3531-6.295-3.4115-2.9964 3.1544c-7.1339 7.5101-16.399 12.827-26.349 15.12-4.9152 1.133-13.816 1.5872-18.461 0.9422z" fill="#c00" fill-rule="evenodd"/>
  <path d="m123.98 70.189c-36.689 0-66.549 29.86-66.549 66.549s29.86 66.549 66.549 66.549c36.689 0 66.549-29.86 66.549-66.549s-29.86-66.549-66.549-66.549zm0 10.992c2.4486 0 4.8586 0.15894 7.2223 0.46405v6.9345l1.9105 0.36327c5.0854 0.96618 9.95 2.7272 14.496 5.2483v-0.0026c4.8392 2.684 9.1641 6.1498 12.856 10.299 3.9012 4.3848 6.9459 9.3584 9.0547 14.797v3e-3h3e-3c2.1873 5.6347 3.2949 11.573 3.2949 17.678 0 5.5952-0.93308 11.053-2.7673 16.256l-0.64648 1.8355 5.7707 3.3512c-1.8958 4.4884-4.3659 8.6714-7.3153 12.462l-5.7371-3.3285-1.2754 1.4609c-4.1513 4.7649-9.2848 8.7781-14.875 11.606l-3e-3 3e-3c-3.347 1.6964-6.8913 3.0015-10.53 3.8752-3.7478 0.90103-7.6222 1.3648-11.514 1.3648-3.8867 0-7.7604-0.45892-11.498-1.3591h-3e-3c-3.6376-0.87357-7.1754-2.1777-10.525-3.869-5.5844-2.8216-10.718-6.8222-14.861-11.578l-1.2738-1.463-5.6632 3.2887c-2.9497-3.7906-5.4189-7.9735-7.3147-12.462l5.6927-3.3042-0.65267-1.8376c-1.847-5.2148-2.7848-10.693-2.7848-16.301 0-6.1125 1.107-12.057 3.3006-17.698h0.0026v-3e-3c2.1154-5.4518 5.165-10.426 9.08-14.818 3.7042-4.155 8.0354-7.6117 12.889-10.297 4.5516-2.5142 9.4298-4.2667 14.529-5.2266l1.9141-0.36174v-6.9169c2.3637-0.30512 4.7743-0.46405 7.2229-0.46405zm-11.922 1.2795v2.3652c-4.885 1.1089-9.6126 2.7789-14.016 5.211l-0.0026 0.0026c-5.3135 2.9392-10.069 6.7332-14.123 11.281-4.2817 4.8036-7.6352 10.272-9.9534 16.246-2.4039 6.1821-3.623 12.717-3.623 19.399 0 5.4614 0.94575 10.797 2.5549 15.945l-1.7689 1.0268c-1.753-5.413-2.7037-11.192-2.7037-17.199 0-26.654 18.643-48.84 43.635-54.277zm23.844 0c24.992 5.4374 43.635 27.624 43.635 54.277 0 6.0075-0.95046 11.787-2.7037 17.2l-1.8547-1.0769c1.597-5.133 2.5368-10.449 2.5368-15.896 0-6.675-1.2167-13.203-3.6132-19.377v-3e-3c-2.3111-5.9597-5.6577-11.426-9.9255-16.223-4.0402-4.5407-8.7872-8.3429-14.088-11.283-4.3966-2.4383-9.1124-4.1147-13.986-5.2302zm27.045 90.992 1.818 1.0552c-10.138 10.946-24.641 17.787-40.785 17.787-16.143 0-30.647-6.841-40.785-17.787l1.6578-0.96327c4.293 4.5778 9.3641 8.4585 14.928 11.27v3e-3c3.6694 1.8526 7.5475 3.2841 11.545 4.2442 4.1034 0.98827 8.3444 1.4883 12.6 1.4883 4.2645 0 8.5042-0.50866 12.611-1.496 3.9969-0.95983 7.8823-2.3908 11.555-4.2519 5.5644-2.8146 10.562-6.7715 14.855-11.348z" color="#000000" color-rendering="auto" dominant-baseline="auto" image-rendering="auto" shape-rendering="auto" solid-color="#000000" style="font-feature-settings:normal;font-variant-alternates:normal;font-variant-caps:normal;font-variant-ligatures:normal;font-variant-numeric:normal;font-variant-position:normal;isolation:auto;mix-blend-mode:normal;paint-order:markers stroke fill;shape-padding:0;text-decoration-color:#000000;text-decoration-line:none;text-decoration-style:solid;text-indent:0;text-orientation:mixed;text-transform:none;white-space:normal"/>
  <ellipse cx="130.94" cy="135.67" rx=".18899" ry=".66146" stroke-width=".26458"/>
  <circle cx="123.98" cy="136.74" r="41.397" fill="#002d65" stroke="#fff" stroke-width="2.2436"/>
  <g fill="#fff" fill-rule="evenodd">
   <g fill-opacity=".99216" stroke-width="5.3993">
    <path transform="matrix(.26458 0 0 .26458 57.427 70.189)" d="m225.71 459.26c-43.865-6.0884-84.333-25.036-116.19-54.403-9.1404-8.4252-10.776-10.552-8.9144-11.593 1.7382-0.97277 4.7683 0.97876 12.765 8.2212 30.82 27.914 66.482 45.225 105.89 51.405 19.138 3.0008 56.728 2.2602 73.592-1.45 36.423-8.013 68.678-24.753 94.504-49.047 8.9563-8.4247 11.722-10.278 14.175-9.4991 2.8981 0.91981 2.777 1.2496-2.4586 6.6969-9.413 9.7937-27.708 23.926-41.177 31.808-21.703 12.7-43.491 20.953-68.007 25.758-14.071 2.7581-50.792 3.9614-64.18 2.1032z"/>
    <path transform="matrix(.26458 0 0 .26458 57.427 70.189)" d="m447.25 312.99c-1.2871-1.5509-1.0195-4.5676 1.1724-13.214 6.5933-26.009 7.5603-61.935 2.3395-86.919-16.022-76.671-70.564-135.23-145.3-156.01-7.107-1.9759-8.3206-2.8001-8.3206-5.6506 0-4.3687 1.2883-4.2654 18.945 1.5185 52.673 17.254 97.837 56.125 122.72 105.62 7.6975 15.31 16.162 41.414 19.07 58.808 4.4933 26.884 2.6178 63.862-4.5465 89.643-2.3854 8.584-3.3174 9.5349-6.0814 6.2046z"/>
    <path transform="matrix(.26458 0 0 .26458 57.427 70.189)" d="m48.851 303.21c-5.142-20.694-6.4015-34.082-5.587-59.392 0.59261-18.416 1.5789-27.262 4.346-38.981 16.976-71.892 69.498-129.31 139.16-152.13 17.674-5.7896 18.945-5.89 18.945-1.4963 0 2.9419-1.1984 3.6779-9.6429 5.9221-62.528 16.618-115.36 66.241-136.7 128.39-12.343 35.955-14.252 79.561-5.0496 115.34 1.9428 7.5529 2.2594 10.943 1.1472 12.283-2.7666 3.3336-3.6557 1.9996-6.6211-9.9348z"/>
   </g>
   <path transform="matrix(-.23765 .13451 -.13451 -.23765 83.156 97.44)" d="m-67.857-182.82-9.3121 45.508 40.05 23.531-46.158 5.2065-10.003 45.361-19.215-42.29-46.232 4.5042 34.283-31.343-18.57-42.578 40.403 22.919z"/>
  </g>
  <rect x="107.28" y="120.54" width="33.333" height="19.803" fill="none"/>
  <path transform="matrix(.23531 .13855 -.13855 .23531 110.37 190.33)" d="m-67.857-182.82-9.3121 45.508 40.05 23.531-46.158 5.2065-10.003 45.361-19.215-42.29-46.232 4.5042 34.283-31.343-18.57-42.578 40.403 22.919z" fill="#fff" fill-rule="evenodd"/>
  <path transform="matrix(.0023355 -.27306 .27306 .0023355 178.29 119.6)" d="m-67.857-182.82-9.3121 45.508 40.05 23.531-46.158 5.2065-10.003 45.361-19.215-42.29-46.232 4.5042 34.283-31.343-18.57-42.578 40.403 22.919z" fill="#fff" fill-rule="evenodd"/>
  <g stroke="#fff" aria-label="38">
   <path d="m102.25 143.49c-0.98778 0-1.4224 0.43462-1.4224 1.4224v4.6228c0 0.98778 0.43462 1.4224 1.4224 1.4224h12.486c5.0574 0 7.6652-2.4892 7.6652-6.5588v-3.9511c0-3.477-1.2248-5.2945-4.9784-5.7291 1.7385-0.75071 2.3312-2.2521 2.3312-4.2672v-2.2916c0-3.477-2.0941-5.6501-6.4798-5.6501h-11.024c-0.98778 0-1.4224 0.43463-1.4224 1.4224v4.7018c0 0.98777 0.43462 1.4224 1.4224 1.4224h7.3491c1.2644 0 1.5014 0.55316 1.5014 1.1853v0.59266c0 0.63218-0.23707 1.1853-1.5014 1.1853h-4.1487c-0.98778 0-1.4224 0.43462-1.4224 1.4224v4.2277c0 0.98778 0.43462 1.4224 1.4224 1.4224h6.7169c1.2644 0 1.5014 0.51365 1.5014 1.1458v1.0668c0 0.63217-0.23707 1.1853-1.5014 1.1853z"/>
   <path d="m150.3 140.85c0-3.714-1.8175-5.6501-4.1882-6.1242 1.7385-0.75071 2.3312-2.2521 2.3312-4.2672v-2.2916c0-3.8721-2.3312-6.2428-10.273-6.2428-7.9417 0-10.391 2.3707-10.391 6.2428v2.2916c0 2.0151 0.59266 3.5165 2.3312 4.2672-2.3707 0.47414-4.1882 2.4102-4.1882 6.1242v3.8326c0 4.1092 2.6868 6.8749 12.209 6.8749 9.5222 0 12.169-2.7658 12.169-6.8749zm-14.659-8.8505v-1.7385c0-0.79022 0.27658-1.4224 2.4892-1.4224 2.2521 0 2.4497 0.63218 2.4497 1.4224v1.7385c0 0.82973-0.19755 1.4619-2.4497 1.4619-2.2126 0-2.4892-0.63218-2.4892-1.4619zm-0.98777 11.182v-2.0941c0-0.79022 0.63217-1.4224 3.477-1.4224 2.8843 0 3.4375 0.63218 3.4375 1.4224v2.0941c0 0.82973-0.55316 1.4619-3.4375 1.4619-2.8448 0-3.477-0.63218-3.477-1.4619z"/>
  </g>
 </g>
</svg>
