<?xml version="1.0" encoding="UTF-8"?>
<!-- Created with Inkscape (http://www.inkscape.org/) -->
<svg width="133.1mm" height="133.1mm" version="1.1" viewBox="0 0 133.1 133.1" xmlns="http://www.w3.org/2000/svg" xmlns:cc="http://creativecommons.org/ns#" xmlns:dc="http://purl.org/dc/elements/1.1/" xmlns:rdf="http://www.w3.org/1999/02/22-rdf-syntax-ns#">
 <metadata>
  <rdf:RDF>
   <cc:Work rdf:about="">
    <dc:format>image/svg+xml</dc:format>
    <dc:type rdf:resource="http://purl.org/dc/dcmitype/StillImage"/>
   </cc:Work>
  </rdf:RDF>
 </metadata>
 <g transform="translate(-57.427 -70.189)">
  <path d="m119.63 188.91c-0.34811-0.0597-1.6582-0.23626-2.9114-0.39246-8.8358-1.1013-18.087-5.1529-25.61-11.216-1.1358-0.91539-3.3619-3.0254-4.947-4.6888l-2.8819-3.0245-2.844 1.6558c-1.5642 0.91069-2.9952 1.5978-3.1801 1.5268-0.57626-0.22113-4.2535-5.9734-5.9147-9.2525-0.87195-1.7211-1.5854-3.2056-1.5854-3.2989 0-0.0933 1.3101-0.93821 2.9114-1.8776 1.6013-0.93937 2.9114-1.8716 2.9114-2.0716 0-0.2-0.22661-0.93854-0.50357-1.6412-0.27696-0.70266-0.84338-2.5582-1.2587-4.1234-2.8504-10.742-2.2261-21.751 1.827-32.22 6.1998-16.015 20.605-28.253 37.404-31.78 1.462-0.30688 2.8007-0.59664 2.9747-0.64391 0.23461-0.06372 0.31646-1.0323 0.31646-3.7447v-3.6587l1.7089-0.21003c2.1367-0.26261 10.077-0.25734 12.026 8e-3l1.4557 0.19818v3.6607c0 2.7139 0.0818 3.6829 0.31646 3.7466 0.17405 0.04727 1.5127 0.33626 2.9747 0.64218 20.815 4.3555 37.195 21.769 40.378 42.928 1.1842 7.8697 0.5358 15.874-1.9042 23.506-0.55293 1.7296-1.0053 3.2604-1.0053 3.4018s1.3102 1.018 2.9114 1.9478c1.6013 0.92985 2.9114 1.7976 2.9114 1.9282 0 0.4101-2.7756 5.7928-4.023 7.8019-0.65602 1.0566-1.7038 2.6225-2.3285 3.4799l-1.1357 1.5588-6.0508-3.4996-2.4803 2.6464c-8.2221 8.7728-18.393 14.264-30.058 16.228-2.2734 0.38275-11 0.71951-12.405 0.4787z" fill="#ececec" fill-rule="evenodd" stroke-linecap="round" stroke-width=".47843" style="paint-order:stroke fill markers"/>
  <path d="m93.811 162.97c-3e-3 1.6586 0.12178 3.287 0.13148 4.9236 3e-3 0.58002-0.024 1.2848-0.13581 1.8496-0.0947 0.47886-0.40312 0.95855-0.41104 1.4755-0.40949 0.0534-0.36174 0.57641-0.7378 0.62254-0.83634 1.6597 1.085 1.12 2.0763 1.1164 0.66275-2e-3 1.3574 0.1309 1.9678 0.10394 0.64896-0.0283-0.67449-0.2201 0 0-0.19786-0.24013 1.2944-0.12423 1.106-0.38353-0.33572-0.46162-0.25071-1.1064-0.32066-1.6531-0.12254-0.95771-0.1302-1.8676-0.13862-2.8409-8e-3 -0.8949-0.16492-1.804-0.25887-2.6497-0.0968-0.8735-3e-3 -1.8248-3e-3 -2.7069" fill="#8b5c29" stroke-width=".1402"/>
  <g fill="#fff" fill-rule="evenodd">
   <g fill-opacity=".99216" stroke-width="5.3993">
    <path transform="matrix(.26458 0 0 .26458 57.427 70.189)" d="m225.71 459.26c-43.865-6.0884-84.333-25.036-116.19-54.403-9.1404-8.4252-10.776-10.552-8.9144-11.593 1.7382-0.97277 4.7683 0.97876 12.765 8.2212 30.82 27.914 66.482 45.225 105.89 51.405 19.138 3.0008 56.728 2.2602 73.592-1.45 36.423-8.013 68.678-24.753 94.504-49.047 8.9563-8.4247 11.722-10.278 14.175-9.4991 2.8981 0.91981 2.777 1.2496-2.4586 6.6969-9.413 9.7937-27.708 23.926-41.177 31.808-21.703 12.7-43.491 20.953-68.007 25.758-14.071 2.7581-50.792 3.9614-64.18 2.1032z"/>
    <path transform="matrix(.26458 0 0 .26458 57.427 70.189)" d="m447.25 312.99c-1.2871-1.5509-1.0195-4.5676 1.1724-13.214 6.5933-26.009 7.5603-61.935 2.3395-86.919-16.022-76.671-70.564-135.23-145.3-156.01-7.107-1.9759-8.3206-2.8001-8.3206-5.6506 0-4.3687 1.2883-4.2654 18.945 1.5185 52.673 17.254 97.837 56.125 122.72 105.62 7.6975 15.31 16.162 41.414 19.07 58.808 4.4933 26.884 2.6178 63.862-4.5465 89.643-2.3854 8.584-3.3174 9.5349-6.0814 6.2046z"/>
    <path transform="matrix(.26458 0 0 .26458 57.427 70.189)" d="m48.851 303.21c-5.142-20.694-6.4015-34.082-5.587-59.392 0.59261-18.416 1.5789-27.262 4.346-38.981 16.976-71.892 69.498-129.31 139.16-152.13 17.674-5.7896 18.945-5.89 18.945-1.4963 0 2.9419-1.1984 3.6779-9.6429 5.9221-62.528 16.618-115.36 66.241-136.7 128.39-12.343 35.955-14.252 79.561-5.0496 115.34 1.9428 7.5529 2.2594 10.943 1.1472 12.283-2.7666 3.3336-3.6557 1.9996-6.6211-9.9348z"/>
   </g>
   <g stroke-linecap="round" stroke-width="2.6997">
    <path transform="matrix(.26458 0 0 .26458 57.427 70.189)" d="m221.65 458.57c-44.714-7.2967-82.834-25.953-115.22-56.393-6.9539-6.5354-7.5618-7.5444-5.3056-8.807 2.1017-1.1762 4.5008 0.41093 13.694 9.0588 36.371 34.215 84.071 52.572 136.61 52.572 54.501 0 101.15-18.818 140.96-56.868 4.3422-4.1497 7.4632-6.0776 8.9286-5.5152 1.2391 0.47549 2.2529 1.4488 2.2529 2.1628s-4.6607 5.469-10.357 10.566c-29.916 26.77-64.501 44.149-103.21 51.864-16.154 3.2192-52.515 3.9424-68.345 1.3592z" style="paint-order:stroke fill markers"/>
    <path transform="matrix(.26458 0 0 .26458 57.427 70.189)" d="m447.69 313.52c-2.0997-1.1855-2.002-2.576 1.0724-15.268 7.5144-31.022 7.4503-62.839-0.19027-94.394-17.301-71.452-74.466-129.72-144.64-147.43-5.1478-1.2994-6.0714-2.0848-6.0714-5.1624 0-3.3501 0.35785-3.552 4.6429-2.6196 2.5536 0.55567 11.022 3.2264 18.82 5.9349 59.986 20.837 108.22 69.965 128.71 131.09 11.948 35.642 13.7 78.092 4.7469 115.05-3.3119 13.672-3.8454 14.636-7.0907 12.803z" style="paint-order:stroke fill markers"/>
    <path transform="matrix(.26458 0 0 .26458 57.427 70.189)" d="m50.054 307.59c-5.3927-18.159-7.1057-31.761-7.0728-56.164 0.03617-26.881 2.0183-40.256 9.4132-63.52 10.297-32.392 26.235-58.151 51.799-83.715 25.653-25.653 51.305-41.496 84.038-51.903 16.865-5.3618 18.197-5.4376 18.197-1.036 0 3.0048-1.1152 3.676-9.6429 5.8033-5.3036 1.3231-15.429 4.7091-22.5 7.5244-92.027 36.639-144.37 138.92-120.19 234.84 3.0888 12.252 3.1242 12.963 0.70945 14.255-2.1923 1.1733-2.845 0.33773-4.7518-6.0829z" style="paint-order:stroke fill markers"/>
   </g>
  </g>
  <path d="m152.88 163.71c-0.16943 0.1635-0.54403 0.61602-0.85281 0.62684-0.17406 6e-3 -0.20336-0.16265-0.35531-0.17707-0.33244-0.0318-0.75846-0.0278-1.0937-0.0178-0.80164 0.0237-1.5876 0.0403-2.388-0.0414-1.3932-0.14229-2.4916-0.17812-3.8105 0.2129-0.56511 0.16774-1.1492 0.21079-1.7717 0.16053-0.67721-0.0545-1.4174-0.0687-2.0825-0.19445-0.52552-0.0992-1.3778-0.34799-0.80319-0.89891 0.53631-0.5136 1.5192-0.21184 2.0332-0.63128-1.521-0.12215-2.9603 0.41753-4.4337 0.25595-0.57206-0.0626-1.6658-0.0872-1.1636-0.77146 0.31804-0.43323 1.0384-0.81536 1.1775-1.3324 0.371-0.049 0.68338-0.57191 1.0202-0.7528 0.3638-0.1953 0.896-0.38403 1.3058-0.48433 0.20697-0.46292-0.34271-0.605-0.50649-0.94937-0.24219-0.50978 0.407-0.66056 0.55508-1.0783 0.071-0.0142 0.14192-0.0282 0.21314-0.0418 0.0164-0.0585 0.0332-0.11748 0.0504-0.17601 0.24296-0.0172 0.59287-0.34374 0.76616-0.482 0.24656-0.19657 0.84047-0.61411 0.914-0.82405-0.82453 0.011-0.20106-0.67646 0.0542-0.86858 0.41702-0.31426 0.79394-0.46652 1.2374-0.70657 0.26841-0.14547 0.82015-0.58251 0.70343-0.89148-0.14398-0.38128-0.85821-0.23008-1.0387-0.61326-0.28872-0.61305 0.97134-1.625 1.3616-2.1218 0.26224-0.3342 0.61344-0.56979 0.95976-0.83634 0.45584-0.35096 0.73994-0.81897 1.1757-1.1795-0.84406 0.0689-1.6483-0.13593-2.4435-0.11196-0.33758-0.82236 1.5758-1.5874 2.1026-2.0211 0.39388-0.32444 0.71474-0.78184 1.1338-1.122 0.36226-0.29412 0.87183-0.85713 1.3148-0.98139-0.70703-0.0104-1.3156 0.43895-2.0442 0.31553-0.16969-0.42941 0.86926-1.3902 1.1166-1.7798 0.35326-0.55602 1.0839-1.16 1.2477-1.8031 0.26687-1.0478-0.89652-0.59523-1.2852-1.2176-0.3818-0.61094 1.0328-0.86985 1.2755-1.1559 0.208-0.24492 0.22162-0.80814 5e-3 -1.049-0.21442-0.23878-0.52166-0.15608-0.54094-0.50278-0.0339-0.62175 0.92325-1.214 1.1544-1.7266 0.1504-0.33336-0.0453-0.65229-0.0866-0.971-0.0447-0.34163 0.1031-0.77465 0.27819-1.0677 0.11852-0.19848 0.38231-0.40014 0.50906-0.64761 0.0915-0.1794 0.16814-0.35435 0.26327-0.53439 0.19514-0.36982 0.40442-0.70148 0.59931-1.102 0.24553-0.50448 0.93945-0.75238 1.2403-1.2202 0.21108-0.32827 0.0751-0.71611 0.29824-1.0584 0.16814-0.25702 0.34477-0.41012 0.44298-0.69045-0.0476-0.0225-0.0715-0.0587-0.073-0.10921l1.0557-0.76171c0.18075 0.22521 0.22162 0.59015 0.36123 0.84377 0.12598 0.22902 0.25402 0.45719 0.398 0.67943 0.19745 0.30514 0.3913 0.60414 0.5358 0.89063 0.3548 0.70466 0.57488 1.365 1.005 2.0453 0.19488 0.30811 0.44993 0.56682 0.60547 0.86497 0.20029 0.3836 0.2026 0.75216 0.32215 1.1491 0.11056 0.36749 0.35763 0.68006 0.46227 1.035 0.10721 0.36262 0.57797 0.94471 0.51575 1.2908-0.20234 6e-3 -0.42936 3e-3 -0.62913 0.0384 0.39928 0.68642 1.3485 1.1782 1.9062 1.7736 0.27356 0.29264 0.31804 0.50554 0.46022 0.81048 0.10772 0.23156 0.29232 0.44892 0.25787 0.70402-0.0154 0.11473-0.14577 0.21757-0.15272 0.37195-0.0733 0.0119-0.14629 0.0239-0.21931 0.0367-0.14912 0.37322 0.24656 0.75682 0.4381 1.0704 0.2823 0.46186 0.17586 0.42857-0.10001 0.86222-0.28693 0.45168-0.23499 0.75026-0.0941 1.2051 0.0787 0.25447 0.0337 0.36559 0.25864 0.60012 0.15761 0.16413 0.37306 0.25808 0.42319 0.46695 0.0707 0.0153 0.14218 0.0284 0.21417 0.04 0.0689 0.39358 0.80833 0.84145 0.69238 1.2899-0.13704 0.52908-0.98213 0.36367-0.14475 1.0215 0.5921 0.46546 2.1067 1.1578 1.9673 2.0067-0.52629 0.0244-0.90988 0.27356-1.4174 0.25299 0.0643 0.37682 0.83481 0.58421 1.1274 0.876 0.41599 0.41478 0.76025 0.98584 1.3644 1.2365 0.68441 0.28373 2.8304 0.87643 1.1891 1.565-0.46304 0.19403-2.6322 0.12639-2.3178 0.77082 0.26276 0.53842 1.2945 0.3588 0.33784 0.8847-0.69881 0.38424-1.2518 0.37512-2.081 0.46228 0.24631 0.37958 1.0629 0.87558 1.4678 1.0276 0.29978 0.11282 0.70549 0.064 1.0294 0.14038 0.81759 0.19213 1.5048 0.61475 2.2923 0.86689 0.59416 0.19021 1.2156 0.40354 1.748 0.63511 0.50469 0.21968 1.0032 0.69066 1.5223 0.8919-0.70497 0.28904-2.1501 0.78121-3.0197 0.75407-0.31521-0.01-0.45481-0.0982-0.79779-0.0706-0.51292 0.0413-0.88983 0.20272-1.4156 0.1654 0.87466 0.29434 2.0728 0.15713 2.8204 0.64932 0.58002 0.38169 0.57771 1.0151 1.3827 1.2556 0.53862 0.16074 1.1001 0.15989 1.6652 0.29433 0.45533 0.10857 0.86232 0.13444 1.3014 0.22414 0.47719 0.0971 0.50367 0.26062 0.64482 0.60733-0.23988 0.13296-0.52861 0.17897-0.78313 0.29688-0.43734 0.20315-0.66744 0.60584-1.0541 0.7986-0.55585 0.27694-1.5894 0.5259-2.2399 0.4555-0.93894-0.10158-1.6689 0.0793-2.6309 0.10518-0.58054 0.0159-1.1066 0.2182-1.6874 0.23474 0.37512 0.2814 0.72298 0.56704 1.1446 0.80814 0.42836 0.24489 0.93482 0.38425 1.3058 0.72354-0.25296 0.60374-2.2286 0.285-2.797 0.18003-0.51292-0.095-0.98444-0.0937-1.5236-0.0956-0.84407-3e-3 -1.4241-0.15013-2.2442-0.27758-2.489-0.387-4.2918-2.1852-6.9924-1.8852-5e-3 0.16732 0.0961 0.24747 0.25016 0.31045z" fill="#009738"/>
  <path d="m122.83 114.54c-3e-3 1.6586 0.12178 3.287 0.13148 4.9236 3e-3 0.58002-0.024 1.2848-0.13581 1.8496-0.0947 0.47886-0.40312 0.95855-0.41104 1.4755-0.40949 0.0534-0.36174 0.57641-0.7378 0.62254-0.83634 1.6597 1.085 1.12 2.0763 1.1164 0.66275-2e-3 1.3574 0.1309 1.9678 0.10394 0.64896-0.0283-0.67449-0.2201 0 0-0.19786-0.24013 1.2944-0.12423 1.106-0.38353-0.33572-0.46162-0.25071-1.1064-0.32066-1.6531-0.12254-0.95771-0.1302-1.8676-0.13862-2.8409-8e-3 -0.8949-0.16492-1.804-0.25887-2.6497-0.0968-0.8735-3e-3 -1.8248-3e-3 -2.7069" fill="#8b5c29" stroke-width=".1402"/>
  <path d="m124.62 116.63c0.14734 0.14218 0.4731 0.53571 0.74162 0.54512 0.15137 5e-3 0.17685-0.14145 0.30899-0.15399 0.28909-0.0277 0.65957-0.0242 0.95112-0.0155 0.69713 0.0207 1.3806 0.035 2.0766-0.036 1.2116-0.12373 2.1667-0.1549 3.3137 0.18515 0.49143 0.14587 0.9994 0.1833 1.5407 0.1396 0.58892-0.0474 1.2326-0.0597 1.811-0.1691 0.457-0.0863 1.1982-0.30262 0.69847-0.78171-0.46639-0.44664-1.3212-0.18423-1.7681-0.54898 1.3227-0.10622 2.5743 0.3631 3.8557 0.22258 0.49748-0.0544 1.4486-0.0758 1.0119-0.67088-0.27658-0.37675-0.90306-0.70905-1.024-1.1586-0.32263-0.0426-0.59428-0.49735-0.88717-0.65465-0.31637-0.16984-0.77918-0.33396-1.1356-0.42119 0.59456-1.5308 0.42705-0.60486-0.0423-1.7633-0.0617-0.0123-0.12341-0.0245-0.18535-0.0363-0.0143-0.0509-0.0289-0.10216-0.0438-0.15306-0.21128-0.0149-0.51557-0.29893-0.66627-0.41916-0.21441-0.17095-0.73089-0.53405-0.79483-0.71661 0.71703 0.01 0.17484-0.58827-0.0471-0.75534-0.36265-0.27329-0.69042-0.4057-1.0761-0.61445-0.23342-0.1265-0.71322-0.50656-0.61172-0.77525 0.12521-0.33157 0.74632-0.20008 0.90328-0.53331 0.25107-0.53312-0.8447-1.4131-1.1841-1.8452-0.22805-0.29062-0.53346-0.4955-0.83463-0.7273-0.3964-0.3052-0.64346-0.71219-1.0224-1.0257 0.73401 0.0599 1.4334-0.11821 2.1249-0.0974 0.29357-0.71515-1.3703-1.3805-1.8284-1.7576-0.34252-0.28214-0.62155-0.67991-0.98599-0.9757-0.31503-0.25578-0.75816-0.74538-1.1434-0.85344 0.61485-9e-3 1.1441 0.38172 1.7777 0.27439 0.14757-0.37343-0.75593-1.209-0.97101-1.5477-0.3072-0.48353-0.94262-1.0087-1.085-1.568-0.23207-0.91116 0.77964-0.51762 1.1177-1.0589 0.33202-0.53129-0.89812-0.75644-1.1092-1.0052-0.18088-0.21299-0.19272-0.70278-4e-3 -0.91226 0.18647-0.20765 0.45365-0.13573 0.47042-0.43723 0.0295-0.54069-0.80288-1.0557-1.0039-1.5015-0.13079-0.2899 0.0394-0.56725 0.0753-0.8444 0.0389-0.29709-0.0897-0.67365-0.24192-0.9285-0.10307-0.1726-0.33246-0.34797-0.44269-0.56318-0.0796-0.15601-0.14622-0.30815-0.22894-0.46472-0.1697-0.3216-0.3517-0.61002-0.52118-0.95836-0.21352-0.43871-0.81696-0.65429-1.0786-1.0611-0.18356-0.28547-0.0653-0.62274-0.25936-0.92038-0.14622-0.22351-0.29982-0.35665-0.38523-0.60043 0.0414-0.01957 0.0622-0.05105 0.0635-0.09497l-0.91803-0.6624c-0.15718 0.19585-0.19272 0.51321-0.31413 0.73376-0.10956 0.19916-0.2209 0.39758-0.34611 0.59085-0.17171 0.26536-0.34029 0.52537-0.46595 0.77451-0.30854 0.61279-0.49992 1.187-0.87398 1.7786-0.16947 0.26794-0.39126 0.49292-0.52653 0.7522-0.17417 0.33359-0.17618 0.6541-0.28014 0.99931-0.0961 0.31958-0.31101 0.5914-0.402 0.90009-0.0932 0.31534-0.50262 0.82154-0.44851 1.1225 0.17596 0.0052 0.37338 0.0026 0.5471 0.03339-0.34722 0.59693-1.1727 1.0246-1.6576 1.5424-0.23789 0.25449-0.27657 0.43963-0.40022 0.70481-0.0937 0.20137-0.2542 0.39039-0.22424 0.61223 0.0134 0.09977 0.12676 0.1892 0.1328 0.32346 0.0637 0.01035 0.12722 0.02078 0.19072 0.03191 0.12968 0.32456-0.21441 0.65815-0.38098 0.93089-0.2455 0.40164-0.15293 0.37269 0.087 0.7498 0.24952 0.39279 0.20435 0.65244 0.0818 1.048-0.0684 0.22129-0.0293 0.31792-0.22492 0.52188-0.13706 0.14273-0.32442 0.22443-0.36801 0.40607-0.0615 0.01331-0.12365 0.0247-0.18625 0.03478-0.0599 0.34227-0.70294 0.73174-0.60211 1.1218 0.11917 0.46011 0.85408 0.31626 0.12588 0.88831-0.5149 0.40477-1.832 1.0069-1.7108 1.745 0.45767 0.0212 0.79125 0.23789 1.2326 0.22001-0.0559 0.32769-0.72597 0.50804-0.98041 0.76179-0.36175 0.3607-0.66113 0.8573-1.1865 1.0753-0.59518 0.24674-2.4614 0.76217-1.0341 1.3609 0.40267 0.16873 2.289 0.10991 2.0156 0.67032-0.2285 0.46822-1.1257 0.31202-0.29379 0.76935 0.6077 0.33415 1.0886 0.32622 1.8097 0.40201-0.2142 0.3301-0.92429 0.76143-1.2764 0.89365-0.26069 0.0981-0.61351 0.0556-0.89521 0.12207-0.711 0.16708-1.3086 0.53461-1.9935 0.75387-0.5167 0.16541-1.0571 0.35093-1.5201 0.5523-0.43889 0.19105-0.87242 0.60062-1.3238 0.77562 1.0806 0.59164 2.3392 0.52601 3.3197 0.59435 0.44605 0.0359 0.77382 0.1763 1.231 0.14384-1.8355-0.30958-2.9711 1.4321-3.6551 1.6565-0.46839 0.13978-0.95669 0.13905-1.4481 0.25596-0.39596 0.0944-0.74989 0.11691-1.1318 0.19492-0.41497 0.0845-0.438 0.22664-0.56075 0.52814 0.20861 0.11563 0.45969 0.15564 0.68103 0.25818 0.38032 0.17666 0.58042 0.52685 0.9167 0.69448 0.48338 0.24084 1.3822 0.45733 1.9478 0.39611 0.81652-0.0883 1.4513 0.069 2.2879 0.0915 0.50485 0.0138 0.9623 0.18975 1.4674 0.20414-0.32621 0.24471-0.62872 0.4931-0.99539 0.70277-0.37251 0.21296-0.81294 0.33415-1.1356 0.62921 0.21998 0.52502 1.938 0.24784 2.4324 0.15656 0.44605-0.0826 0.85609-0.0815 1.3249-0.0832 0.73402-3e-3 1.2384-0.13056 1.9516-0.24139 2.1645-0.33655 3.7322-1.9003 6.0808-1.6394 4e-3 0.1455-0.0836 0.2152-0.21754 0.26997z" fill="#009738"/>
  <path d="m95.015 163.71c0.16943 0.1635 0.54403 0.61602 0.85281 0.62684 0.17406 6e-3 0.20336-0.16265 0.35531-0.17707 0.33244-0.0318 0.75846-0.0278 1.0937-0.0178 0.80164 0.0237 1.5876 0.0403 2.388-0.0414 1.3932-0.14229 2.4916-0.17812 3.8105 0.2129 0.56511 0.16774 1.1492 0.21079 1.7717 0.16053 0.67721-0.0545 1.4174-0.0687 2.0825-0.19445 0.52552-0.0992 1.3778-0.34799 0.8032-0.89891-0.53631-0.5136-1.5192-0.21184-2.0332-0.63128 1.521-0.12215 2.9603 0.41753 4.4337 0.25595 0.57206-0.0626 1.6658-0.0872 1.1636-0.77146-0.31804-0.43323-1.0384-0.81536-1.1775-1.3324-0.371-0.049-0.68338-0.57191-1.0202-0.7528-0.3638-0.1953-0.896-0.38403-1.3058-0.48433-0.20697-0.46292 0.34271-0.605 0.50649-0.94937 0.24219-0.50978-0.407-0.66056-0.55508-1.0783-0.071-0.0142-0.14192-0.0282-0.21314-0.0418-0.0164-0.0585-0.0332-0.11748-0.0504-0.17601-0.24296-0.0172-0.59287-0.34374-0.76616-0.482-0.24656-0.19657-0.84047-0.61411-0.914-0.82405 0.82453 0.011 0.20106-0.67646-0.0542-0.86858-0.41702-0.31426-0.79394-0.46652-1.2374-0.70657-0.26841-0.14547-0.82015-0.58251-0.70343-0.89148 0.14398-0.38128 0.85821-0.23008 1.0387-0.61326 0.28872-0.61305-0.97134-1.625-1.3616-2.1218-0.26224-0.3342-0.61344-0.56979-0.95976-0.83634-0.45583-0.35096-0.73993-0.81897-1.1757-1.1795 0.84406 0.0689 1.6483-0.13593 2.4435-0.11196 0.33758-0.82236-1.5758-1.5874-2.1026-2.0211-0.39388-0.32444-0.71474-0.78184-1.1338-1.122-0.36226-0.29412-0.87183-0.85713-1.3148-0.98139 0.70702-0.0104 1.3156 0.43895 2.0442 0.31553 0.16969-0.42941-0.86926-1.3902-1.1166-1.7798-0.35326-0.55602-1.0839-1.16-1.2477-1.8031-0.26687-1.0478 0.89652-0.59523 1.2852-1.2176 0.3818-0.61094-1.0328-0.86985-1.2755-1.1559-0.208-0.24492-0.22162-0.80814-5e-3 -1.049 0.21442-0.23878 0.52166-0.15608 0.54094-0.50278 0.0339-0.62175-0.92325-1.214-1.1544-1.7266-0.1504-0.33336 0.0453-0.65229 0.0866-0.971 0.0447-0.34163-0.1031-0.77465-0.27819-1.0677-0.11852-0.19848-0.38231-0.40014-0.50906-0.64761-0.0915-0.1794-0.16814-0.35435-0.26327-0.53439-0.19514-0.36982-0.40442-0.70148-0.59931-1.102-0.24553-0.50448-0.93945-0.75238-1.2403-1.2202-0.21108-0.32827-0.0751-0.71611-0.29824-1.0584-0.16814-0.25702-0.34477-0.41012-0.44298-0.69045 0.0476-0.0225 0.0715-0.0587 0.073-0.10921l-1.0557-0.76171c-0.18075 0.22521-0.22162 0.59015-0.36123 0.84377-0.12598 0.22902-0.25402 0.45719-0.398 0.67943-0.19745 0.30514-0.3913 0.60414-0.5358 0.89063-0.3548 0.70466-0.57488 1.365-1.005 2.0453-0.19488 0.30811-0.44993 0.56682-0.60547 0.86497-0.20029 0.3836-0.2026 0.75216-0.32215 1.1491-0.11056 0.36749-0.35763 0.68006-0.46227 1.035-0.10721 0.36262-0.57797 0.94471-0.51575 1.2908 0.20234 6e-3 0.42936 3e-3 0.62913 0.0384-0.39928 0.68642-1.3485 1.1782-1.9062 1.7736-0.27356 0.29264-0.31804 0.50554-0.46022 0.81048-0.10772 0.23156-0.29232 0.44892-0.25787 0.70402 0.0154 0.11473 0.14577 0.21757 0.15272 0.37195 0.0733 0.0119 0.14629 0.0239 0.21931 0.0367 0.14912 0.37322-0.24656 0.75682-0.4381 1.0704-0.2823 0.46186-0.17586 0.42857 0.10001 0.86222 0.28693 0.45168 0.23499 0.75026 0.0941 1.2051-0.0787 0.25447-0.0337 0.36559-0.25864 0.60012-0.15761 0.16413-0.37306 0.25808-0.42319 0.46695-0.0707 0.0153-0.14218 0.0284-0.21417 0.04-0.0689 0.39358-0.80833 0.84145-0.69238 1.2899 0.13704 0.52908 0.98213 0.36367 0.14475 1.0215-0.5921 0.46546-2.1067 1.1578-1.9673 2.0067 0.52629 0.0244 0.90988 0.27356 1.4174 0.25299-0.0643 0.37682-0.83481 0.58421-1.1274 0.876-0.41599 0.41478-0.76025 0.98584-1.3644 1.2365-0.68441 0.28373-2.8304 0.87643-1.1891 1.565 0.46304 0.19403 2.6322 0.12639 2.3178 0.77082-0.26276 0.53842-1.2945 0.3588-0.33784 0.8847 0.69881 0.38424 1.2518 0.37512 2.081 0.46228-0.24631 0.37958-1.0629 0.87558-1.4678 1.0276-0.29978 0.11282-0.70549 0.064-1.0294 0.14038-0.81759 0.19213-1.5048 0.61475-2.2923 0.86689-0.59416 0.19021-1.2156 0.40354-1.748 0.63511-0.50469 0.21968-1.0032 0.69066-1.5223 0.8919 0.70497 0.28904 2.1501 0.78121 3.0197 0.75407 0.31521-0.01 0.45481-0.0982 0.79779-0.0706 0.51292 0.0413 0.88983 0.20272 1.4156 0.1654-0.87466 0.29434-2.0728 0.15713-2.8204 0.64932-0.58002 0.38169-0.57771 1.0151-1.3827 1.2556-0.53862 0.16074-1.1001 0.15989-1.6652 0.29433-0.45533 0.10857-0.86232 0.13444-1.3014 0.22414-0.47719 0.0971-0.50367 0.26062-0.64482 0.60733 0.23988 0.13296 0.52861 0.17897 0.78313 0.29688 0.43734 0.20315 0.66744 0.60584 1.0541 0.7986 0.55585 0.27694 1.5894 0.5259 2.2399 0.4555 0.93894-0.10158 1.6689 0.0793 2.6309 0.10518 0.58054 0.0159 1.1066 0.2182 1.6874 0.23474-0.37512 0.2814-0.72298 0.56704-1.1446 0.80814-0.42836 0.24489-0.93482 0.38425-1.3058 0.72354 0.25296 0.60374 2.2286 0.285 2.797 0.18003 0.51292-0.095 0.98444-0.0937 1.5236-0.0956 0.84407-3e-3 1.4241-0.15013 2.2442-0.27758 2.489-0.387 4.2918-2.1852 6.9924-1.8852 5e-3 0.16732-0.0961 0.24747-0.25016 0.31045z" fill="#009738"/>
  <g transform="translate(0 3.7042)">
   <g fill-rule="evenodd">
    <rect transform="matrix(.82021 .57206 -.82021 .57206 0 0)" x="220.47" y="69.322" width="12.544" height="12.544" fill="#666" stroke-linecap="round" stroke-width=".1603" style="paint-order:stroke fill markers"/>
    <rect transform="rotate(90)" x="136.6" y="-134.27" width="36.291" height="20.578" fill="#666" style="paint-order:stroke fill markers"/>
    <rect transform="matrix(.82021 .57206 -.82021 .57206 0 0)" x="188.7" y="37.549" width="12.544" height="12.544" fill="#4d4d4d" stroke-linecap="round" stroke-width=".1603" style="paint-order:stroke fill markers"/>
   </g>
   <path d="m123.98 143.51v36.593" fill="#4d4d4d" stroke="#4d4d4d" stroke-width=".2538px"/>
  </g>
  <path d="m123.98 70.189c-36.689 0-66.549 29.86-66.549 66.549s29.86 66.549 66.549 66.549c36.689 0 66.549-29.86 66.549-66.549s-29.86-66.549-66.549-66.549zm0 10.992c2.4485 0 4.8586 0.15894 7.2223 0.46405v6.9345l1.9105 0.36327c5.0854 0.96618 9.95 2.7272 14.496 5.2483v-0.0026c4.8392 2.684 9.1642 6.1498 12.856 10.299 3.9012 4.3848 6.9459 9.3584 9.0547 14.797v3e-3c2.1873 5.6347 3.2949 11.573 3.2949 17.678 0 5.5952-0.9331 11.053-2.7673 16.256l-0.6465 1.8355 5.7708 3.3512c-1.8959 4.4884-4.3659 8.6714-7.3154 12.462l-5.7371-3.3285-1.2754 1.4609c-4.1513 4.7649-9.2847 8.7781-14.874 11.606v3e-3c-3.347 1.6964-6.8913 3.0015-10.53 3.8752-3.7478 0.90103-7.6222 1.3648-11.514 1.3648-3.8867 0-7.7604-0.45892-11.498-1.3591-3.6376-0.87357-7.1754-2.1777-10.526-3.869-5.5844-2.8216-10.718-6.8222-14.861-11.578l-1.2738-1.463-5.6632 3.2887c-2.9497-3.7906-5.419-7.9735-7.3147-12.462l5.6926-3.3042-0.65271-1.8376c-1.847-5.2148-2.7848-10.693-2.7848-16.301 0-6.1125 1.107-12.057 3.3006-17.698v-3e-3c2.1154-5.4518 5.165-10.426 9.0801-14.818 3.7042-4.155 8.0353-7.6117 12.889-10.297 4.5516-2.5142 9.4297-4.2667 14.529-5.2266l1.9141-0.36174v-6.9169c2.3638-0.30512 4.7743-0.46405 7.2229-0.46405zm-11.922 1.2795v2.3652c-4.885 1.1089-9.6126 2.7789-14.016 5.211v0.0026c-5.3134 2.9392-10.069 6.7332-14.123 11.281-4.2818 4.8036-7.6352 10.272-9.9534 16.246-2.4039 6.1821-3.6231 12.717-3.6231 19.399 0 5.4614 0.9458 10.797 2.5549 15.945l-1.7689 1.0268c-1.753-5.413-2.7037-11.192-2.7037-17.199 0-26.654 18.643-48.84 43.635-54.277zm23.844 0c24.992 5.4374 43.635 27.624 43.635 54.277 0 6.0075-0.9505 11.787-2.7037 17.2l-1.8547-1.0769c1.597-5.133 2.5368-10.449 2.5368-15.896 0-6.675-1.2167-13.203-3.6132-19.377v-3e-3c-2.3111-5.9597-5.6577-11.426-9.9255-16.223-4.0402-4.5407-8.7872-8.3429-14.088-11.283-4.3966-2.4383-9.1124-4.1147-13.986-5.2302zm27.045 90.992 1.818 1.0552c-10.138 10.946-24.642 17.787-40.785 17.787-16.143 0-30.647-6.841-40.785-17.787l1.6578-0.96327c4.293 4.5778 9.3641 8.4585 14.928 11.27v3e-3c3.6694 1.8526 7.5476 3.2841 11.545 4.2442 4.1034 0.98827 8.3444 1.4883 12.6 1.4883 4.2645 0 8.5042-0.50866 12.611-1.496 3.9969-0.95983 7.8823-2.3908 11.555-4.2519 5.5643-2.8146 10.562-6.7715 14.855-11.348z" color="#000000" color-rendering="auto" dominant-baseline="auto" image-rendering="auto" shape-rendering="auto" solid-color="#000000" style="font-feature-settings:normal;font-variant-alternates:normal;font-variant-caps:normal;font-variant-ligatures:normal;font-variant-numeric:normal;font-variant-position:normal;isolation:auto;mix-blend-mode:normal;paint-order:markers stroke fill;shape-padding:0;text-decoration-color:#000000;text-decoration-line:none;text-decoration-style:solid;text-indent:0;text-orientation:mixed;text-transform:none;white-space:normal"/>
  <g stroke="#fff" aria-label="66">
   <path d="m110.52 151.26c9.0876 0 11.379-3.1609 11.379-7.9812v-3.7931c0-4.7018-2.1336-7.112-9.2851-7.112-2.0941 0-3.7536 0.19755-5.0179 0.59266v-0.86924c0-1.936 0.55316-2.3707 2.4892-2.3707h7.3886c0.98777 0 1.4224-0.43462 1.4224-1.4224v-4.6623c0-0.98777-0.39512-1.4224-1.4224-1.4224h-9.0876c-7.4676 0-9.7197 3.2794-9.7197 8.0998v12.96c0 4.8204 2.1336 7.9812 11.853 7.9812zm-2.9238-10.945c0-0.79022 0.3556-1.4224 2.6472-1.4224 2.3707 0 2.7263 0.63218 2.7263 1.4224v2.3312c0 0.82974-0.3556 1.4619-2.7263 1.4619-2.2916 0-2.6472-0.63217-2.6472-1.4619z"/>
   <path d="m137.9 151.26c9.0876 0 11.379-3.1609 11.379-7.9812v-3.7931c0-4.7018-2.1336-7.112-9.2851-7.112-2.0941 0-3.7536 0.19755-5.0179 0.59266v-0.86924c0-1.936 0.55316-2.3707 2.4892-2.3707h7.3886c0.98777 0 1.4224-0.43462 1.4224-1.4224v-4.6623c0-0.98777-0.39512-1.4224-1.4224-1.4224h-9.0876c-7.4676 0-9.7197 3.2794-9.7197 8.0998v12.96c0 4.8204 2.1336 7.9812 11.853 7.9812zm-2.9238-10.945c0-0.79022 0.3556-1.4224 2.6472-1.4224 2.3707 0 2.7263 0.63218 2.7263 1.4224v2.3312c0 0.82974-0.3556 1.4619-2.7263 1.4619-2.2916 0-2.6472-0.63217-2.6472-1.4619z"/>
  </g>
  <g fill="#8b5c29">
   <ellipse cx="124.16" cy="124.22" rx="2.5178" ry="1.3375" fill-rule="evenodd" style="paint-order:stroke fill markers"/>
   <path d="m126.54 115.07c3e-3 1.6586-0.12178 3.287-0.13148 4.9236-3e-3 0.58002 0.024 1.2848 0.13581 1.8496 0.0947 0.47886 0.40312 0.95855 0.41104 1.4755 0.40949 0.0534 0.36174 0.57641 0.7378 0.62254 0.83634 1.6597-1.085 1.12-2.0763 1.1164-0.66275-2e-3 -1.3574 0.1309-1.9678 0.10394-0.64896-0.0283 0.67449-0.2201 0 0 0.19786-0.24013-1.2944-0.12423-1.106-0.38353 0.33572-0.46162 0.25071-1.1064 0.32066-1.6531 0.12254-0.95771 0.1302-1.8676 0.13862-2.8409 8e-3 -0.8949 0.16492-1.804 0.25887-2.6497 0.0968-0.8735 3e-3 -1.8248 3e-3 -2.7069" stroke-width=".1402"/>
   <ellipse transform="scale(-1,1)" cx="-125.2" cy="124.75" rx="2.5178" ry="1.3375" fill-rule="evenodd" style="paint-order:stroke fill markers"/>
   <path d="m154.34 163.28c3e-3 1.6586-0.12178 3.287-0.13148 4.9236-3e-3 0.58002 0.024 1.2848 0.13581 1.8496 0.0947 0.47886 0.40312 0.95855 0.41104 1.4755 0.40949 0.0534 0.36174 0.57641 0.7378 0.62254 0.83634 1.6597-1.085 1.12-2.0763 1.1164-0.66275-2e-3 -1.3574 0.1309-1.9678 0.10394-0.64896-0.0283 0.67449-0.2201 0 0 0.19786-0.24013-1.2944-0.12423-1.106-0.38353 0.33572-0.46162 0.25071-1.1064 0.32066-1.6531 0.12254-0.95771 0.1302-1.8676 0.13862-2.8409 8e-3 -0.8949 0.16492-1.804 0.25887-2.6497 0.0968-0.8735 3e-3 -1.8248 3e-3 -2.7069" stroke-width=".1402"/>
   <ellipse transform="scale(-1,1)" cx="-153.01" cy="172.96" rx="2.5178" ry="1.3375" fill-rule="evenodd" style="paint-order:stroke fill markers"/>
   <ellipse transform="scale(-1,1)" cx="-95.129" cy="173.18" rx="2.5178" ry="1.3375" fill-rule="evenodd" style="paint-order:stroke fill markers"/>
  </g>
  <path d="m124.05 114.19c-0.14734 0.14218-0.4731 0.53571-0.74162 0.54512-0.15137 5e-3 -0.17685-0.14145-0.30899-0.15399-0.28909-0.0277-0.65957-0.0242-0.95112-0.0155-0.69713 0.0207-1.3806 0.035-2.0766-0.036-1.2116-0.12373-2.1667-0.1549-3.3137 0.18515-0.49143 0.14587-0.9994 0.1833-1.5407 0.1396-0.58892-0.0474-1.2326-0.0597-1.811-0.1691-0.457-0.0863-1.1982-0.30262-0.69847-0.78171 0.46639-0.44664 1.3212-0.18423 1.7681-0.54898-1.3227-0.10622-2.5743 0.3631-3.8557 0.22258-0.49748-0.0544-1.4486-0.0758-1.0119-0.67088 0.27658-0.37675 0.90306-0.70905 1.024-1.1586 0.32263-0.0426 0.59428-0.49735 0.88717-0.65465 0.31637-0.16984 0.77918-0.33396 1.1356-0.42119-0.59456-1.5308-0.42705-0.60486 0.0423-1.7633 0.0617-0.0123 0.12341-0.0245 0.18535-0.0363 0.0143-0.0509 0.0289-0.10216 0.0438-0.15306 0.21128-0.0149 0.51557-0.29893 0.66627-0.41916 0.21441-0.17095 0.73089-0.53405 0.79483-0.71661-0.71703 0.01-0.17484-0.58827 0.0471-0.75534 0.36265-0.27329 0.69042-0.4057 1.0761-0.61445 0.23342-0.1265 0.71322-0.50656 0.61172-0.77525-0.12521-0.33157-0.74632-0.20008-0.90328-0.53331-0.25107-0.53312 0.8447-1.4131 1.1841-1.8452 0.22805-0.29062 0.53346-0.4955 0.83463-0.7273 0.3964-0.3052 0.64346-0.71219 1.0224-1.0257-0.73401 0.0599-1.4334-0.11821-2.1249-0.0974-0.29357-0.71515 1.3703-1.3805 1.8284-1.7576 0.34252-0.28214 0.62155-0.6799 0.98599-0.9757 0.31503-0.25577 0.75816-0.74538 1.1434-0.85344-0.61485-9e-3 -1.1441 0.38172-1.7777 0.27439-0.14757-0.37342 0.75593-1.209 0.97101-1.5477 0.3072-0.48353 0.94262-1.0087 1.085-1.568 0.23207-0.91116-0.77964-0.51762-1.1177-1.0589-0.33202-0.53129 0.89812-0.75644 1.1092-1.0052 0.18088-0.21299 0.19272-0.70278 4e-3 -0.91226-0.18647-0.20765-0.45365-0.13573-0.47042-0.43723-0.0295-0.54069 0.80288-1.0557 1.0039-1.5015 0.13079-0.2899-0.0394-0.56725-0.0753-0.8444-0.0389-0.29709 0.0897-0.67365 0.24192-0.9285 0.10307-0.1726 0.33246-0.34797 0.44269-0.56318 0.0796-0.15601 0.14622-0.30815 0.22894-0.46472 0.1697-0.3216 0.3517-0.61002 0.52118-0.95836 0.21352-0.43871 0.81696-0.65429 1.0786-1.0611 0.18356-0.28547 0.0653-0.62274 0.25936-0.92038 0.14622-0.22351 0.29982-0.35665 0.38523-0.60043-0.0414-0.01957-0.0622-0.05105-0.0635-0.09497l0.91803-0.6624c0.15718 0.19585 0.19272 0.51321 0.31413 0.73376 0.10956 0.19916 0.2209 0.39758 0.34611 0.59085 0.17171 0.26536 0.34029 0.52537 0.46595 0.77451 0.30854 0.61279 0.49992 1.187 0.87398 1.7786 0.16947 0.26794 0.39126 0.49292 0.52653 0.7522 0.17417 0.33359 0.17618 0.6541 0.28014 0.99931 0.0961 0.31958 0.31101 0.5914 0.402 0.90009 0.0932 0.31534 0.50262 0.82154 0.44851 1.1225-0.17596 0.0052-0.37338 0.0026-0.5471 0.03339 0.34722 0.59693 1.1727 1.0246 1.6576 1.5424 0.23789 0.25449 0.27657 0.43963 0.40022 0.70481 0.0937 0.20137 0.2542 0.39039 0.22424 0.61223-0.0134 0.09977-0.12676 0.1892-0.1328 0.32346-0.0637 0.01035-0.12722 0.02078-0.19072 0.03191-0.12968 0.32456 0.21441 0.65815 0.38098 0.93089 0.2455 0.40164 0.15293 0.37269-0.087 0.7498-0.24952 0.39279-0.20435 0.65244-0.0818 1.048 0.0684 0.22129 0.0293 0.31792 0.22492 0.52188 0.13706 0.14273 0.32442 0.22443 0.36801 0.40607 0.0615 0.01331 0.12365 0.0247 0.18625 0.03478 0.0599 0.34227 0.70294 0.73174 0.60211 1.1218-0.11917 0.4601-0.85408 0.31626-0.12588 0.8883 0.5149 0.40477 1.832 1.0069 1.7108 1.745-0.45767 0.0212-0.79125 0.23789-1.2326 0.22001 0.0559 0.32769 0.72597 0.50804 0.98041 0.76179 0.36175 0.3607 0.66113 0.8573 1.1865 1.0753 0.59518 0.24674 2.4614 0.76217 1.0341 1.3609-0.40267 0.16873-2.289 0.10991-2.0156 0.67032 0.2285 0.46822 1.1257 0.31202 0.29379 0.76935-0.6077 0.33415-1.0886 0.32622-1.8097 0.40201 0.2142 0.3301 0.92429 0.76143 1.2764 0.89365 0.26069 0.0981 0.61351 0.0556 0.89521 0.12207 0.711 0.16708 1.3086 0.53461 1.9935 0.75387 0.5167 0.16541 1.0571 0.35093 1.5201 0.5523 0.43889 0.19105 0.87242 0.60062 1.3238 0.77562-1.0806 0.59164-2.3392 0.52601-3.3197 0.59435-0.44605 0.0359-0.77382 0.1763-1.231 0.14384 1.8355-0.30958 2.9711 1.4321 3.6551 1.6565 0.46839 0.13978 0.95669 0.13905 1.4481 0.25596 0.39596 0.0944 0.74989 0.11691 1.1318 0.19492 0.41497 0.0845 0.438 0.22664 0.56075 0.52814-0.20861 0.11563-0.45969 0.15564-0.68103 0.25818-0.38032 0.17666-0.58042 0.52685-0.9167 0.69448-0.48338 0.24084-1.3822 0.45733-1.9478 0.39611-0.81652-0.0883-1.4513 0.069-2.2879 0.0915-0.50485 0.0138-0.9623 0.18975-1.4674 0.20414 0.32621 0.24471 0.62872 0.4931 0.99539 0.70277 0.37251 0.21296 0.81294 0.33415 1.1356 0.62921-0.21998 0.52502-1.938 0.24784-2.4324 0.15656-0.44605-0.0826-0.85609-0.0815-1.3249-0.0832-0.73402-3e-3 -1.2384-0.13056-1.9516-0.24139-2.1645-0.33655-3.7322-1.9003-6.0808-1.6394-4e-3 0.1455 0.0836 0.2152 0.21754 0.26997z" fill="#009738"/>
 </g>
</svg>
