<?xml version="1.0" encoding="UTF-8"?>
<!-- Created with Inkscape (http://www.inkscape.org/) -->
<svg width="133.1mm" height="133.1mm" version="1.1" viewBox="0 0 133.1 133.1" xmlns="http://www.w3.org/2000/svg" xmlns:cc="http://creativecommons.org/ns#" xmlns:dc="http://purl.org/dc/elements/1.1/" xmlns:rdf="http://www.w3.org/1999/02/22-rdf-syntax-ns#">
 <defs>
  <style>.a{fill:#fff;}.b{fill:#b71234;}.c{fill:#584528;}.d{fill:#008542;}.e{fill:#bd8a5e;}</style>
 </defs>
 <metadata>
  <rdf:RDF>
   <cc:Work rdf:about="">
    <dc:format>image/svg+xml</dc:format>
    <dc:type rdf:resource="http://purl.org/dc/dcmitype/StillImage"/>
   </cc:Work>
  </rdf:RDF>
 </metadata>
 <g transform="translate(-57.427 -70.189)">
  <path d="m112.7 189.36c-8.413-1.8069-18.344-7.1459-25.038-13.461l-5.7985-5.47-6.2293 3.501-2.9703-4.7518c-4.4926-7.1871-4.59-7.969-1.2395-9.9459l2.8463-1.6794-1.5247-5.4986c-3.7835-13.645-2.6034-25.645 3.7905-38.541 6.4138-12.937 18.203-22.975 31.59-26.898 3.2014-0.93816 6.2885-1.8499 6.8602-2.0261 0.63149-0.1946 1.0394-1.7991 1.0394-4.0883v-3.768h15.708l0.25345 3.839 0.25345 3.839 6.2365 1.8242c14.907 4.3605 26.111 13.778 33.292 27.983 5.4065 10.695 6.8501 26.468 3.4129 37.291-0.93336 2.9391-1.5049 5.6546-1.2701 6.0346 0.23483 0.37994 1.5258 1.259 2.8688 1.9536 1.343 0.6945 2.4419 1.6816 2.4419 2.1935s-1.5717 3.4777-3.4926 6.5906l-3.4926 5.6599-3.1249-1.7563-3.1249-1.7563-5.7985 5.47c-12.772 12.049-30.573 17.094-47.49 13.461z" fill="#4585c5" fill-rule="evenodd" stroke-linecap="round" stroke-width="1.5714" style="paint-order:stroke fill markers"/>
  <g fill="#fff" fill-opacity=".99216" fill-rule="evenodd" stroke-width="5.3993">
   <path transform="matrix(.26458 0 0 .26458 57.427 70.189)" d="m225.71 459.26c-43.865-6.0884-84.333-25.036-116.19-54.403-9.1404-8.4252-10.776-10.552-8.9144-11.593 1.7382-0.97277 4.7683 0.97876 12.765 8.2212 30.82 27.914 66.482 45.225 105.89 51.405 19.138 3.0008 56.728 2.2602 73.592-1.45 36.423-8.013 68.678-24.753 94.504-49.047 8.9563-8.4247 11.722-10.278 14.175-9.4991 2.8981 0.91981 2.777 1.2496-2.4586 6.6969-9.413 9.7937-27.708 23.926-41.177 31.808-21.703 12.7-43.491 20.953-68.007 25.758-14.071 2.7581-50.792 3.9614-64.18 2.1032z"/>
   <path transform="matrix(.26458 0 0 .26458 57.427 70.189)" d="m447.25 312.99c-1.2871-1.5509-1.0195-4.5676 1.1724-13.214 6.5933-26.009 7.5603-61.935 2.3395-86.919-16.022-76.671-70.564-135.23-145.3-156.01-7.107-1.9759-8.3206-2.8001-8.3206-5.6506 0-4.3687 1.2883-4.2654 18.945 1.5185 52.673 17.254 97.837 56.125 122.72 105.62 7.6975 15.31 16.162 41.414 19.07 58.808 4.4933 26.884 2.6178 63.862-4.5465 89.643-2.3854 8.584-3.3174 9.5349-6.0814 6.2046z"/>
   <path transform="matrix(.26458 0 0 .26458 57.427 70.189)" d="m48.851 303.21c-5.142-20.694-6.4015-34.082-5.587-59.392 0.59261-18.416 1.5789-27.262 4.346-38.981 16.976-71.892 69.498-129.31 139.16-152.13 17.674-5.7896 18.945-5.89 18.945-1.4963 0 2.9419-1.1984 3.6779-9.6429 5.9221-62.528 16.618-115.36 66.241-136.7 128.39-12.343 35.955-14.252 79.561-5.0496 115.34 1.9428 7.5529 2.2594 10.943 1.1472 12.283-2.7666 3.3336-3.6557 1.9996-6.6211-9.9348z"/>
  </g>
  <polygon class="c" transform="matrix(.26458 0 0 .26458 -189.01 87.576)" points=""/>
  <polygon class="c" transform="matrix(.26458 0 0 .26458 -189.01 87.576)" points=""/>
  <polygon class="c" transform="matrix(.26458 0 0 .26458 -189.01 87.576)" points=""/>
  <polygon class="a" transform="matrix(.26458 0 0 .26458 -189.01 87.576)" points=""/>
  <polygon class="a" transform="matrix(.26458 0 0 .26458 -189.01 87.576)" points=""/>
  <polygon class="a" transform="matrix(.26458 0 0 .26458 -189.01 87.576)" points=""/>
  <polygon class="e" transform="matrix(.26458 0 0 .26458 -189.01 87.576)" points=""/>
  <polygon class="e" transform="matrix(.26458 0 0 .26458 -189.01 87.576)" points=""/>
  <g fill="#fff" fill-rule="evenodd" stroke-linecap="round" stroke-width="2.6997">
   <path transform="matrix(.26458 0 0 .26458 57.427 70.189)" d="m50.054 307.59c-5.3927-18.159-7.1057-31.761-7.0728-56.164 0.03617-26.881 2.0183-40.256 9.4132-63.52 10.297-32.392 26.235-58.151 51.799-83.715 25.653-25.653 51.305-41.496 84.038-51.903 16.865-5.3618 18.197-5.4376 18.197-1.036 0 3.0048-1.1152 3.676-9.6429 5.8033-5.3036 1.3231-15.429 4.7091-22.5 7.5244-92.027 36.639-144.37 138.92-120.19 234.84 3.0888 12.252 3.1242 12.963 0.70945 14.255-2.1923 1.1733-2.845 0.33773-4.7518-6.0829z" style="paint-order:stroke fill markers"/>
   <path transform="matrix(.26458 0 0 .26458 57.427 70.189)" d="m221.65 458.57c-44.714-7.2967-82.834-25.953-115.22-56.393-6.9539-6.5354-7.5618-7.5444-5.3056-8.807 2.1017-1.1762 4.5008 0.41093 13.694 9.0588 36.371 34.215 84.071 52.572 136.61 52.572 54.501 0 101.15-18.818 140.96-56.868 4.3422-4.1497 7.4632-6.0776 8.9286-5.5152 1.2391 0.47549 2.2529 1.4488 2.2529 2.1628s-4.6607 5.469-10.357 10.566c-29.916 26.77-64.501 44.149-103.21 51.864-16.154 3.2192-52.515 3.9424-68.345 1.3592z" style="paint-order:stroke fill markers"/>
  </g>
  <g>
   <g transform="matrix(1.2168 0 0 1.2168 -24.332 -27.997)" fill-rule="evenodd">
    <g fill="#ffab1a" stroke-linecap="round" stroke-width=".5564">
     <path d="m117.17 151.91c-0.31219-0.19121-2.8111-1.6454-5.5531-3.2315l-4.9855-2.8838-1.2097 0.64176c-0.75169 0.39878-1.3339 0.97062-1.5376 1.5103-0.59901 1.587-2.6188 1.8852-3.9245 0.57948-0.61099-0.61099-0.77561-2.174-0.30695-2.9145 0.1719-0.27161 0.07153-0.91131-0.28504-1.8158-2.1528-5.4616-1.8721-13.043 0.68461-18.489 0.70793-1.508 0.80787-1.3759-2.3993-3.1719-1.6048-0.89868-1.9752-1.0019-2.5901-0.72171-0.39466 0.17981-0.98103 0.32694-1.303 0.32694-0.71166 0-1.462 1.619-2.5244 5.447-0.84118 3.0308-1.2409 9.6554-0.76011 12.596l0.27833 1.7024-1.061 0.82988c-0.85308 0.66725-1.2775 0.80333-2.1659 0.69438l-1.1049-0.1355 1.2635-1.0246 1.2635-1.0246-0.23861-2.2554c-0.4869-4.6021 0.36944-10.773 2.1209-15.284 0.68294-1.7588 0.82221-2.4903 0.68875-3.6173-0.14749-1.2453-0.07721-1.5028 0.59346-2.1735 0.41843-0.41843 1.0649-0.7624 1.4366-0.76437 0.49013-2e-3 1.1613-0.62296 2.4424-2.2575 2.9564-3.7721 7.4333-7.2539 12.098-9.4092 1.4772-0.68251 2.1816-1.1716 2.1812-1.5144-4e-4 -0.27848 0.21218-1.6656 0.47225-3.0826l0.47283-2.5763h10.149l0.67076 1.4722h-4.6727c-5.3679 0-4.7057-0.45048-5.3475 3.6379-0.34455 2.1948-0.40969 2.3292-1.2746 2.6295-1.9163 0.66541-5.9965 2.9042-7.8517 4.3082-1.9624 1.4852-5.7058 5.2371-6.6254 6.6405-0.40865 0.62369-0.44013 0.90721-0.16722 1.5062 0.1849 0.40583 0.33619 0.98914 0.33619 1.2962 0 0.40011 0.84093 1.0345 2.9672 2.2384 2.1936 1.242 2.9292 1.8029 2.8214 2.1513-0.0802 0.2592-0.62091 1.5444-1.2017 2.856-2.0838 4.7059-2.3423 10.711-0.67508 15.68 0.60238 1.7951 0.72824 1.9579 1.6577 2.1434 0.78685 0.15705 1.251 0.046 2.132-0.51018l1.1262-0.71095 0.0762-15.485 0.0762-15.485 9.4218-5.4455c5.182-2.9951 9.5463-5.564 9.6985-5.7088 0.17069-0.16238 0.0319-0.6988-0.36214-1.4l-0.63885-1.1367 2.8648-0.18971c3.7923-0.25114 5.664-0.24184 5.6527 0.028-5e-3 0.12147-1.045 1.7872-2.3109 3.7018l-2.3017 3.4809-0.37068-0.89489c-0.20386-0.49219-0.53903-1.0346-0.74481-1.2054-0.27786-0.23061-2.713 1.0401-9.4637 4.9383l-9.0896 5.2488-0.0768 13.38c-0.0422 7.3592-0.0155 13.54 0.0593 13.735 0.0873 0.22769 1.6702-0.53085 4.4196-2.118 4.0073-2.3132 4.2836-2.4277 4.2836-1.7749 0 0.54254-0.37669 0.9102-1.693 1.6524-0.93113 0.52502-4.0261 2.3159-6.8776 3.9797-3.7619 2.195-5.3603 2.9792-5.8247 2.8577-0.79962-0.2091-1.7984 0.63827-1.7984 1.5257 0 1.6154 2.365 2.1127 2.9336 0.61696 0.18503-0.48664 2.0915-1.7467 6.4344-4.2525 7.6046-4.3878 7.5569-4.3652 8.1557-3.8683 0.40426 0.3355 0.2144 0.52448-1.4719 1.465-1.0648 0.59389-2.0672 1.211-2.2275 1.3713-0.19237 0.19236 0.81464 0.9246 2.9612 2.1533 1.789 1.024 3.3195 1.9698 3.4011 2.1018 0.0816 0.13204-0.23337 0.43746-0.69995 0.67873-0.81822 0.42312-0.93371 0.38895-3.2564-0.96389-1.3244-0.77141-2.6107-1.6919-2.8584-2.0455-0.79667-1.1374-2.478-0.67469-2.478 0.68199 0 0.82632 0.54274 1.323 1.4574 1.3338 0.41295 4e-3 2.0058 0.72915 3.5397 1.6095l2.7888 1.6007 1.7748-1.0296c3.889-2.256 4.0895-2.3262 4.9773-1.7445 0.43491 0.28495 0.75348 0.55502 0.70794 0.60014-0.0455 0.0451-2.0135 1.1963-4.3733 2.5582-3.6898 2.1294-4.37 2.4275-4.8581 2.1285zm-22.568-31.511c0.72092-0.50495 0.8867-1.8414 0.30106-2.4271-0.89045-0.89044-2.591-0.0567-2.591 1.2704 0 0.59264 0.93193 1.615 1.4722 1.615 0.0899 0 0.45787-0.20625 0.81777-0.45833z" style="paint-order:stroke fill markers"/>
     <path d="m146.85 159.06-2.0435-3.9041 2.8562-0.178v-21.094l-4.6373-2.6549c-2.5505-1.4602-7.8706-4.5242-11.822-6.8088-3.9518-2.2847-7.231-4.154-7.2872-4.154-0.0561 0-0.10216 2.1908-0.10216 4.8685 0 4.7772-0.011 4.8626-0.58886 4.5533-0.56595-0.30289-0.58886-0.61649-0.58886-8.062 0-6.4178 0.0785-7.9043 0.45781-8.6645 0.55705-1.1166 0.19693-2.0154-0.91982-2.2957-1.4201-0.35641-2.5526 1.6204-1.4518 2.5341 0.3725 0.30915 0.44165 1.6039 0.44165 8.2698 0 7.5124-0.0282 7.9183-0.56952 8.208-0.31322 0.16763-0.64446 0.30478-0.73607 0.30478-0.0917 0-0.16657-1.1262-0.16657-2.5027 0-1.3765-0.0864-2.5027-0.19189-2.5027-0.17815 0-3.7194 1.9742-5.9176 3.299l-0.9569 0.57669 8e-3 -1.1281c7e-3 -1.1071 0.0536-1.1542 2.502-2.5267 1.3722-0.76919 2.8217-1.3986 3.2212-1.3986 0.96668 0 1.515-0.99222 1.0781-1.951-0.42803-0.93943-1.6347-0.93527-2.2526 8e-3 -0.25463 0.38862-1.7151 1.4131-3.2455 2.2766l-2.7826 1.5701v6.8205l-2.061 0.98283 7e-3 -5.0742 7e-3 -5.0742 11.174-6.38-0.01-1.5209c-5e-3 -0.86777-0.19501-1.7663-0.44165-2.0924-0.71797-0.94924-0.53435-2.0873 0.47361-2.9355 1.1914-1.0025 2.1711-0.96932 3.2506 0.11023 0.63919 0.63919 1.3369 0.9567 2.6094 1.1874 6.3376 1.1492 11.616 4.6522 15.717 10.43 0.38588 0.54373 0.49864 0.5107 2.9448-0.86237 2.0859-1.1708 2.5436-1.5542 2.5436-2.1305 0-0.38651 0.13842-0.96139 0.3076-1.2775 0.2552-0.47684 0.0813-0.86886-1.0208-2.3011-3.1184-4.0526-8.8851-8.2597-13.621-9.9369-0.75667-0.26799-0.97702-0.54333-1.143-1.4282-0.20875-1.1128 0.4385-3.0917 1.0112-3.0917 0.14589 0 0.35632 0.72873 0.46759 1.6194 0.11128 0.89066 0.34173 1.6194 0.51209 1.6194 0.54615 0 4.8176 2.2455 6.7537 3.5505 2.1888 1.4752 5.9522 5.04 7.6659 7.2613 0.86315 1.1188 1.3991 1.5543 1.9128 1.5543 1.5352 0 2.6401 2.0842 1.8688 3.5254-0.21606 0.40371-0.098 0.97696 0.46174 2.2427 0.41359 0.93521 1.0956 2.9017 1.5156 4.37 0.68855 2.4074 0.76989 3.2305 0.8279 8.3777l0.0643 5.708 2.2594 1.9011c2.1321 1.794 2.2364 1.9369 1.8514 2.5361-0.22437 0.34922-1.3696 2.3242-2.545 4.3889-1.8099 3.1793-2.2457 3.754-2.8466 3.754-0.39024 0-0.70953-0.077-0.70953-0.17114 0-0.0942 0.9937-1.8806 2.2082-3.97 1.2145-2.0893 2.2082-3.9044 2.2082-4.0334s-0.99-1.0673-2.2-2.0849l-2.2-1.8502 0.21258-1.3795c0.41143-2.6699 0.22396-8.9079-0.34231-11.39-0.77625-3.4028-2.1779-6.9191-2.758-6.9191-0.26013 0-0.88025-0.14728-1.378-0.32729-0.83576-0.30221-1.1213-0.20072-3.7272 1.3249-1.5522 0.90873-2.943 1.6496-3.0906 1.6464-0.14769-3e-3 -0.66601-0.67546-1.1518-1.4939-1.1344-1.911-4.0663-4.8848-6.2358-6.3248-2.3457-1.557-5.7053-2.9663-8.0852-3.3916-1.9564-0.34963-2.0122-0.34209-2.5888 0.35046-0.39529 0.47471-0.59071 1.1441-0.59346 2.0327l-4e-3 1.3249 26.635 15.339 0.077 11.38 0.077 11.379 2.8953 0.1778-4.0268 7.8082zm4.3939-39.224c0.70392-1.5449-1.1865-2.88-2.454-1.733-1.088 0.98464-0.43026 2.457 1.0976 2.457 0.80461 0 1.0978-0.15649 1.3564-0.72402z" style="paint-order:stroke fill markers"/>
     <path d="m120.97 170.03c-0.34703-0.14006-0.81076-0.50962-1.0305-0.82129-0.29723-0.42152-1.0404-0.65854-2.9022-0.92554-4.935-0.70771-11.5-3.4358-15.099-6.2745-1.2257-0.96675-1.0836-0.97633-4.5538 0.3071l-2.4283 0.89806-1.2245-2.1138c-0.67346-1.1626-1.8-3.1047-2.5035-4.3158-1.3954-2.4025-1.4794-2.712-0.87254-3.2157 0.33041-0.2742 0.83317 0.40783 2.6865 3.6444 1.254 2.1899 2.3629 3.9808 2.4642 3.9796 0.10128-1e-3 1.3665-0.44098 2.8115-0.97748l2.6273-0.97547 2.0836 1.58c3.8896 2.9496 10.059 5.4553 14.464 5.8739 1.7093 0.16247 1.8183 0.13148 2.7235-0.77371l0.94296-0.94295v-6.9338l2.3491-0.18115c1.292-0.0996 3.18-0.39196 4.1956-0.64962 4.0175-1.0193 9.0073-4.1654 11.402-7.1894 0.95726-1.2086 0.97135-1.2662 0.53437-2.1826-0.24684-0.51766-0.91283-1.1911-1.48-1.4965l-1.0312-0.55532-3.0534 1.7708c-1.6794 0.97394-5.7696 3.3368-9.0893 5.2509-3.3197 1.914-7.93 4.5835-10.245 5.9322-2.3151 1.3487-4.2909 2.4522-4.3906 2.4522-0.0998 0-1.1866-0.58369-2.4154-1.2971-17.79-10.328-17.182-10.006-17.674-9.3736-0.25244 0.32461-0.60661 0.83776-0.78706 1.1404-0.28858 0.48395-0.59866 0.13544-2.5763-2.8955-1.2365-1.8951-2.2482-3.5182-2.2482-3.6068 0-0.21654 2.5524-0.20346 5.8403 0.0299l2.692 0.19108-0.58578 0.94779c-0.97941 1.5847-2.2101 0.64728 10.413 7.9319 6.2594 3.6122 7.1004 4.0187 7.7253 3.734 1.1385-0.51873 22.313-12.76 22.734-13.142 0.30604-0.2784-0.43318-0.81853-3.6098-2.6376-2.197-1.2581-4.0615-2.3956-4.1431-2.5277-0.0817-0.13213 0.12078-0.3257 0.44986-0.43016 0.80828-0.25653 13.934 7.282 14.379 8.2582 0.16819 0.36913 0.58536 0.75988 0.92704 0.86832 0.80189 0.25451 2.0646-0.55927 2.0646-1.3306 0-0.85901-1.1029-1.8406-1.8657-1.6605-0.45163 0.10664-2.6072-0.98985-7.4089-3.7686-6.0022-3.4735-6.7829-4.0108-6.8688-4.7269l-0.0969-0.80798 0.98017 0.5885c0.53909 0.32368 1.6095 0.94976 2.3787 1.3913l1.3986 0.80281v-8.2802l2.061 1.216-0.01 2.8416c-7e-3 1.9675-0.13613 3.0089-0.42143 3.3855-0.69284 0.91445-0.035 1.9456 1.2468 1.9543 0.87837 7e-3 1.4407-1.1407 0.98088-1.9999-0.18036-0.33701-0.32472-2.0501-0.32472-3.8533v-3.2466l-2.9406-1.7045c-2.7683-1.6046-2.9408-1.7606-2.9443-2.6614-2e-3 -0.52629 0.0787-0.9569 0.1796-0.9569 0.10084 0 2.0882 1.0873 4.4165 2.4163l4.2332 2.4163 4e-3 12.981 1.1019 0.62516c0.73757 0.41847 1.4151 0.57822 2.0494 0.48321 0.76786-0.11503 1.1168 0.0273 1.8402 0.75075 0.54528 0.54545 0.89251 1.1966 0.89251 1.674 0 0.9582-1.4601 2.5027-2.366 2.5027-0.42059 0-1.3126 0.72133-2.566 2.0751-4.1437 4.4756-9.0822 6.9645-15.457 7.7904l-1.3986 0.18118v2.8082c0 2.7618 0.0151 2.8222 0.91444 3.6624 1.1491 1.0734 2.1662 1.0992 5.9082 0.14998 4.4855-1.1378 8.9075-3.2905 12.168-5.9236 1.1755-0.94922 1.1798-0.95014 2.286-0.47395 0.61068 0.2629 1.3688 0.9067 1.6886 1.434 0.66534 1.0969 0.59568 1.1241-1.2601 0.49172l-1.3653-0.46518-1.893 1.3508c-3.9731 2.8351-10.343 5.3004-15.282 5.9144-0.93115 0.11576-1.693 0.32966-1.693 0.47532 0 0.30635-1.7706 1.4402-2.2082 1.4141-0.16194-0.01-0.57837-0.13215-0.9254-0.27219zm2.1302-1.6219c0.44678-0.68186 0.44678-0.79029 0-1.4722-0.77836-1.1879-2.8242-0.73211-2.8242 0.62925 0 1.6192 1.9368 2.1972 2.8242 0.84291z" style="paint-order:stroke fill markers"/>
    </g>
    <g fill="#4585c5" stroke="#4585c5" stroke-linejoin="round" stroke-miterlimit="0">
     <g stroke-width="1.5118">
      <path transform="matrix(.26458 0 0 .26458 57.427 70.189)" d="m228.8 371.16c-14.158-2.6433-21.549-4.6813-31.82-8.7741-10.536-4.1986-21.285-10.059-28.486-15.53-2.7175-2.0647-3.885-2.6464-5.3033-2.6422-1.6907 5e-3 -7.0167 1.7123-17.068 5.4715l-4.1381 1.5476-8.7935-15.255c-9.4428-16.382-10.245-18.057-9.4039-19.629 1.3069-2.4419 2.914-0.39301 12.741 16.243 3.1998 5.4169 6.1519 10.293 6.5604 10.835 0.72353 0.96089 1.0059 0.89084 10.983-2.7246 6.7735-2.4545 10.466-3.5579 10.907-3.2591 0.36665 0.24844 3.3419 2.4134 6.6118 4.811 10.864 7.9662 22.139 13.73 35.492 18.143 8.6305 2.8524 17.034 4.5644 22.996 4.6851 3.3373 0.0675 4.2305 0.23585 4.0304 0.75944-0.14136 0.36996-0.25703 1.9041-0.25703 3.4093 0 1.8847-0.19654 2.7179-0.63134 2.6764-0.34724-0.0331-2.336-0.37844-4.4194-0.76741z" stop-color="#000000" style="paint-order:stroke fill markers"/>
      <path transform="matrix(.26458 0 0 .26458 57.427 70.189)" d="m253.72 369.49c0.0469-1.2672-0.0834-2.9044-0.28946-3.6382l-0.37472-1.3344 2.1129 0.47474c4.6088 1.0355 18.26-1.9576 31.467-6.8994 10.314-3.8594 23.221-11.037 31.315-17.415 4.8027-3.7844 4.8873-3.8079 8.2269-2.2819 1.5866 0.725 3.6385 2.0446 4.5596 2.9323 1.9911 1.9189 3.8741 4.8199 3.422 5.2719-0.17691 0.17691-2.702-0.44768-5.6113-1.388l-5.2897-1.7096-2.4012 1.7113c-13.221 9.4221-25.736 15.818-39.894 20.388-7.5371 2.4329-12.572 3.6663-20.512 5.0253l-6.8157 1.1665z" stop-color="#000000" style="paint-order:stroke fill markers"/>
      <path transform="matrix(.26458 0 0 .26458 57.427 70.189)" d="m362.19 314.45c-0.56454-0.3574 0.75009-3.0305 6.3925-12.998 8.3092-14.678 9.4679-16.976 9.0758-17.998-0.16024-0.41759-3.8478-3.7942-8.1946-7.5035l-7.9033-6.7442 0.27665-2.2728c1.4572-11.972 1.544-24.6 0.2586-37.628-1.043-10.571-5.4937-25.149-10.429-34.159-0.096-0.1752 0.4466-0.47441 1.2057-0.66493s2.02-0.802 2.802-1.3588c1.3579-0.96692 1.4366-0.97109 1.7508-0.0927 0.18094 0.50587 1.1756 3.079 2.2104 5.718 2.396 6.1106 5.2955 15.1 6.5746 20.384 1.273 5.2585 1.9645 17.288 2.0076 34.922l0.0333 13.637 4.5868 3.7881c6.8901 5.6903 11.528 10.103 11.528 10.969 0 0.71744-11.777 21.479-15.41 27.165-2.9176 4.567-4.9263 6.0031-6.7668 4.8379z" stop-color="#000000" style="paint-order:stroke fill markers"/>
      <path transform="matrix(.26458 0 0 .26458 57.427 70.189)" d="m341.23 177.31c-0.89954-3.584-12.839-16.731-21.518-23.694-9.6616-7.7516-22.167-15.256-31.662-19-2.2742-0.89677-4.4771-2.0085-4.8952-2.4706-2.0226-2.2349-1.8996-8.5959 0.24761-12.805 1.6634-3.2605 2.4355-2.3555 3.4236 4.0128 0.66901 4.3119 1.44 6.1976 2.5359 6.2029 1.1256 5e-3 13.492 6.3241 19.789 10.112 6.4954 3.9066 11.665 7.9092 18.985 14.699 5.2678 4.886 7.7712 7.5109 16.428 17.226l3.3872 3.8012-2.211 0.84438c-1.216 0.46441-2.484 1.1734-2.8177 1.5754-0.86901 1.0471-1.3395 0.90703-1.6937-0.5042z" stop-color="#000000" style="paint-order:stroke fill markers"/>
     </g>
     <path d="m86.881 142.84c-0.18473-0.0732 0.0019-0.28078 0.91431-1.017l1.1464-0.92502-0.1125-1.212c-0.20431-2.201-0.13041-7.1953 0.13164-8.896 0.37899-2.4597 0.86522-4.4703 1.5835-6.5481 0.36844-1.0657 0.76089-2.3143 0.87212-2.7747l0.20222-0.83696 0.41269 0.40348c0.22698 0.22191 0.60317 0.47236 0.83599 0.55655l0.4233 0.15307-0.36437 0.54768c-0.48094 0.72291-0.96341 1.9646-1.5459 3.9783-1.2156 4.2026-1.596 11.314-0.79616 14.883 0.04604 0.20546-0.11052 0.40624-0.63599 0.81559-0.38339 0.29867-0.88953 0.64208-1.1247 0.76312-0.42898 0.22074-1.5081 0.28147-1.9426 0.10932z" stop-color="#000000" stroke-width=".4" style="paint-order:stroke fill markers"/>
     <path transform="matrix(.26458 0 0 .26458 57.427 70.189)" d="m144.02 177.5c-0.65202-0.52989-2.0834-1.2325-3.1809-1.5613l-1.9954-0.59784 2.7088-2.817c1.4898-1.5493 4.3425-4.7776 6.3392-7.1739 10.813-12.977 25.565-24.264 43.4-33.208 8.7931-4.4094 8.1313-3.4983 9.8018-13.494 0.78497-4.697 1.673-9.7332 1.9734-11.192l0.54625-2.6516h37.762l1.0338 2.337c0.56858 1.2854 1.0338 2.4218 1.0338 2.5254 0 0.10358-6.6481 0.19375-14.773 0.20038-8.1254 7e-3 -15.683 0.22201-16.794 0.47863-2.9103 0.67213-4.085 2.3133-4.7783 6.6757-2.3323 14.676-2.4425 15.093-4.2201 15.974-0.60671 0.30082-2.8077 1.2526-4.8912 2.115-8.1777 3.3851-20.694 10.641-27.779 16.105-4.9093 3.7857-18.88 17.589-22.131 21.865-1.1995 1.5778-2.3359 3.4343-2.5254 4.1255-0.34328 1.2521-0.34889 1.2532-1.53 0.29331z" stop-color="#000000" stroke-width="1.5118" style="paint-order:stroke fill markers"/>
    </g>
   </g>
   <path d="m123.98 70.189c-36.689 0-66.549 29.86-66.549 66.549s29.86 66.549 66.549 66.549c36.689 0 66.549-29.86 66.549-66.549s-29.86-66.549-66.549-66.549zm0 10.992c2.4486 0 4.8586 0.15894 7.2223 0.46405v6.9345l1.9105 0.36327c5.0854 0.96618 9.95 2.7272 14.496 5.2483v-0.0026c4.8392 2.684 9.1641 6.1498 12.856 10.299 3.9012 4.3848 6.9459 9.3584 9.0547 14.797v3e-3h3e-3c2.1873 5.6347 3.2949 11.573 3.2949 17.678 0 5.5952-0.93308 11.053-2.7673 16.256l-0.64648 1.8355 5.7707 3.3512c-1.8958 4.4884-4.3659 8.6714-7.3153 12.462l-5.7371-3.3285-1.2754 1.4609c-4.1513 4.7649-9.2848 8.7781-14.875 11.606l-3e-3 3e-3c-3.347 1.6964-6.8913 3.0015-10.53 3.8752-3.7478 0.90103-7.6222 1.3648-11.514 1.3648-3.8867 0-7.7604-0.45892-11.498-1.3591h-3e-3c-3.6376-0.87357-7.1754-2.1777-10.525-3.869-5.5844-2.8216-10.718-6.8222-14.861-11.578l-1.2738-1.463-5.6632 3.2887c-2.9497-3.7906-5.4189-7.9735-7.3147-12.462l5.6927-3.3042-0.65267-1.8376c-1.847-5.2148-2.7848-10.693-2.7848-16.301 0-6.1125 1.107-12.057 3.3006-17.698h0.0026v-3e-3c2.1154-5.4518 5.165-10.426 9.08-14.818 3.7042-4.155 8.0354-7.6117 12.889-10.297 4.5516-2.5142 9.4298-4.2667 14.529-5.2266l1.9141-0.36174v-6.9169c2.3637-0.30512 4.7743-0.46405 7.2229-0.46405zm-11.922 1.2795v2.3652c-4.885 1.1089-9.6126 2.7789-14.016 5.211l-0.0026 0.0026c-5.3135 2.9392-10.069 6.7332-14.123 11.281-4.2817 4.8036-7.6352 10.272-9.9534 16.246-2.4039 6.1821-3.623 12.717-3.623 19.399 0 5.4614 0.94575 10.797 2.5549 15.945l-1.7689 1.0268c-1.753-5.413-2.7037-11.192-2.7037-17.199 0-26.654 18.643-48.84 43.635-54.277zm23.844 0c24.992 5.4374 43.635 27.624 43.635 54.277 0 6.0075-0.95046 11.787-2.7037 17.2l-1.8547-1.0769c1.597-5.133 2.5368-10.449 2.5368-15.896 0-6.675-1.2167-13.203-3.6132-19.377v-3e-3c-2.3111-5.9597-5.6577-11.426-9.9255-16.223-4.0402-4.5407-8.7872-8.3429-14.088-11.283-4.3966-2.4383-9.1124-4.1147-13.986-5.2302zm27.045 90.992 1.818 1.0552c-10.138 10.946-24.641 17.787-40.785 17.787-16.143 0-30.647-6.841-40.785-17.787l1.6578-0.96327c4.293 4.5778 9.3641 8.4585 14.928 11.27v3e-3c3.6694 1.8526 7.5475 3.2841 11.545 4.2442 4.1034 0.98827 8.3444 1.4883 12.6 1.4883 4.2645 0 8.5042-0.50866 12.611-1.496 3.9969-0.95983 7.8823-2.3908 11.555-4.2519 5.5644-2.8146 10.562-6.7715 14.855-11.348z" color="#000000" color-rendering="auto" dominant-baseline="auto" image-rendering="auto" shape-rendering="auto" solid-color="#000000" style="font-feature-settings:normal;font-variant-alternates:normal;font-variant-caps:normal;font-variant-ligatures:normal;font-variant-numeric:normal;font-variant-position:normal;isolation:auto;mix-blend-mode:normal;paint-order:markers stroke fill;shape-padding:0;text-decoration-color:#000000;text-decoration-line:none;text-decoration-style:solid;text-indent:0;text-orientation:mixed;text-transform:none;white-space:normal"/>
   <path transform="matrix(1.5009 0 0 1.4995 37.466 -95.426)" d="m60.007 158.08-2.3577-1.6746-2.3454 1.6918 0.8641-2.7598-2.3338-1.7078 2.8917-0.031 0.90304-2.7473 0.9231 2.7406 2.8919 0.01-2.3212 1.7248z" fill="#fff" style="paint-order:normal"/>
  </g>
  <g stroke="#fff" aria-label="15">
   <path d="m122.81 150.96c0.98777 0 1.4224-0.43462 1.4224-1.4224v-4.7808c0-0.98777-0.43463-1.4224-1.4224-1.4224h-3.7931v-19.4c0-0.98777-0.43462-1.4224-1.4224-1.4224h-11.458c-0.98778 0-1.4224 0.43463-1.4224 1.4224v4.7808c0 0.98777 0.43462 1.4224 1.4224 1.4224h3.635v13.197h-4.4252c-0.98778 0-1.4224 0.43463-1.4224 1.4224v4.7808c0 0.98778 0.43462 1.4224 1.4224 1.4224z"/>
   <path d="m141.94 150.96c4.7413 0 7.7047-2.5287 7.7047-6.5588v-5.492c0-4.1882-2.6472-6.2823-6.9144-6.2823h-5.413v-2.5682h9.4827c0.98777 0 1.4224-0.43462 1.4224-1.4224v-4.7018c0-0.98777-0.43463-1.4224-1.4224-1.4224h-17.029c-0.98778 0-1.4224 0.43463-1.4224 1.4224v14.777c0 0.98777 0.43462 1.4224 1.4224 1.4224h9.7988c0.63218 0 1.0668 0.27657 1.0668 0.90875v1.5409c0 0.63218-0.43462 0.90876-1.0668 0.90876h-10.194c-0.98778 0-1.4224 0.43462-1.4224 1.4224v4.6228c0 0.98778 0.43462 1.4224 1.4224 1.4224z"/>
  </g>
 </g>
</svg>
