<?xml version="1.0" encoding="UTF-8"?>
<!DOCTYPE svg PUBLIC "-//W3C//DTD SVG 1.1//EN" "http://www.w3.org/Graphics/SVG/1.1/DTD/svg11.dtd">
<svg xmlns="http://www.w3.org/2000/svg" version="1.1" width="472px" height="472px" style="shape-rendering:geometricPrecision; text-rendering:geometricPrecision; image-rendering:optimizeQuality; fill-rule:evenodd; clip-rule:evenodd" xmlns:xlink="http://www.w3.org/1999/xlink">
<g><path style="opacity:0.98" fill="#010102" d="M 213.5,-0.5 C 228.167,-0.5 242.833,-0.5 257.5,-0.5C 339.398,9.93739 401.232,50.6041 443,121.5C 458.4,150.461 467.9,181.128 471.5,213.5C 471.5,228.167 471.5,242.833 471.5,257.5C 461.063,339.398 420.396,401.232 349.5,443C 320.539,458.4 289.873,467.9 257.5,471.5C 242.833,471.5 228.167,471.5 213.5,471.5C 131.601,461.062 69.768,420.395 28,349.5C 12.5995,320.539 3.09952,289.872 -0.5,257.5C -0.5,242.833 -0.5,228.167 -0.5,213.5C 9.93739,131.602 50.6041,69.7684 121.5,28C 150.461,12.5995 181.128,3.09952 213.5,-0.5 Z"/></g>
<g><path style="opacity:1" fill="#5e70f8" d="M 347.5,103.5 C 348.585,105.587 350.251,106.92 352.5,107.5C 356.167,111.833 360.167,115.833 364.5,119.5C 365.08,121.749 366.413,123.415 368.5,124.5C 410.716,177.621 420.049,236.121 396.5,300C 402.002,303.585 407.669,306.919 413.5,310C 414.99,310.745 415.99,311.912 416.5,313.5C 410.073,328.863 401.74,343.03 391.5,356C 384.75,352.707 377.917,349.207 371,345.5C 368.949,347.241 367.116,349.241 365.5,351.5C 360.167,356.167 355.167,361.167 350.5,366.5C 297.92,409.322 239.254,420.155 174.5,399C 155.901,391.708 138.901,381.875 123.5,369.5C 122.089,367.086 120.089,365.419 117.5,364.5C 114.167,360.833 110.833,357.167 107.5,353.5C 160.833,352.833 214.167,352.167 267.5,351.5C 286.512,351.833 305.512,351.5 324.5,350.5C 312.347,330.871 300.68,310.871 289.5,290.5C 291.903,290.448 294.236,290.781 296.5,291.5C 300.495,300.833 305.495,309.5 311.5,317.5C 337.336,318.829 363.336,318.829 389.5,317.5C 389.376,316.893 389.043,316.56 388.5,316.5C 383.412,307.483 378.579,298.15 374,288.5C 360.076,266.432 347.076,243.765 335,220.5C 329.923,213.355 325.589,205.689 322,197.5C 321.075,196.953 320.242,196.287 319.5,195.5C 304.471,167.251 288.971,139.251 273,111.5C 271,109.167 269,106.833 267,104.5C 254.076,127.762 241.242,151.095 228.5,174.5C 232.534,181.373 236.367,188.373 240,195.5C 240.667,198.5 240.667,201.5 240,204.5C 229.709,186.044 219.209,167.71 208.5,149.5C 206.833,147.5 205.167,145.5 203.5,143.5C 195.71,156.081 188.71,169.081 182.5,182.5C 179.941,182.802 177.607,182.468 175.5,181.5C 184.402,165.364 193.569,149.364 203,133.5C 211.037,144.93 218.537,156.596 225.5,168.5C 231.958,157.67 237.958,146.503 243.5,135C 237.045,122.308 230.211,109.808 223,97.5C 218.257,91.024 214.257,84.024 211,76.5C 208.137,73.162 205.971,69.4953 204.5,65.5C 206.117,64.962 207.784,64.6287 209.5,64.5C 209.5,56.1667 209.5,47.8333 209.5,39.5C 226.83,38.2035 244.164,38.2035 261.5,39.5C 261.183,48.0851 261.517,56.5851 262.5,65C 294.389,70.283 322.723,83.1164 347.5,103.5 Z"/></g>
<g><path style="opacity:0.955" fill="#fbfbfb" d="M 192.5,44.5 C 194.017,46.9358 193.684,49.1024 191.5,51C 122.046,69.7876 75.8792,113.288 53,181.5C 42.9103,218.245 43.0769,254.912 53.5,291.5C 52.5188,293.309 51.0188,294.643 49,295.5C 26.8199,218.722 43.3199,151.555 98.5,94C 122.522,71.3142 150.522,55.3142 182.5,46C 185.757,44.9571 189.09,44.4571 192.5,44.5 Z"/></g>
<g><path style="opacity:0.959" fill="#fafafa" d="M 278.5,44.5 C 340.662,59.16 385.828,95.16 414,152.5C 434.181,198.377 437.347,245.377 423.5,293.5C 422.609,294.11 421.609,294.443 420.5,294.5C 419.833,294.167 419.167,293.833 418.5,293.5C 418.737,292.209 418.404,291.209 417.5,290.5C 435.963,220.357 421.129,158.357 373,104.5C 347.008,77.9148 315.841,60.2481 279.5,51.5C 279.5,50.8333 279.167,50.5 278.5,50.5C 278.5,48.5 278.5,46.5 278.5,44.5 Z"/></g>
<g><path style="opacity:1" fill="#5e70f8" d="M 203.5,65.5 C 200.029,74.0792 195.529,82.0792 190,89.5C 186.411,97.6885 182.077,105.355 177,112.5C 160.843,142.149 144.177,171.482 127,200.5C 111.891,227.308 97.0573,254.308 82.5,281.5C 81.6236,281.369 80.9569,281.702 80.5,282.5C 106.491,283.5 132.491,283.833 158.5,283.5C 159.698,286.079 161.365,288.246 163.5,290C 158.328,298.587 153.662,307.421 149.5,316.5C 148.957,316.56 148.624,316.893 148.5,317.5C 186.167,318.833 223.833,318.833 261.5,317.5C 261.376,316.893 261.043,316.56 260.5,316.5C 255.258,307.017 250.258,297.35 245.5,287.5C 231.5,286.833 217.5,286.167 203.5,285.5C 210.447,273.933 217.113,262.267 223.5,250.5C 220.649,247.717 220.983,245.384 224.5,243.5C 226.316,245.118 227.649,247.118 228.5,249.5C 230.045,250.452 231.712,250.785 233.5,250.5C 233.5,252.167 233.5,253.833 233.5,255.5C 230.315,255.02 227.481,255.686 225,257.5C 220.515,265.802 216.015,274.135 211.5,282.5C 222.485,283.332 233.485,283.832 244.5,284C 246.167,284.833 247.833,285.667 249.5,286.5C 252.077,291.903 255.244,296.903 259,301.5C 262.295,307.923 265.461,314.423 268.5,321C 236.502,321.5 204.502,321.667 172.5,321.5C 161.986,321.828 151.653,321.494 141.5,320.5C 147.126,310.247 152.459,299.913 157.5,289.5C 158.043,289.44 158.376,289.107 158.5,288.5C 147.186,287.501 135.853,287.168 124.5,287.5C 121.401,287.172 119.068,288.338 117.5,291C 107.051,310.949 96.3845,330.783 85.5,350.5C 86.325,351.386 87.325,351.719 88.5,351.5C 85.8975,353.142 83.2308,354.808 80.5,356.5C 69.5708,343.661 60.9042,329.328 54.5,313.5C 59.7376,308.534 65.7376,304.534 72.5,301.5C 72.8333,300.833 73.1667,300.167 73.5,299.5C 50.4173,232.586 61.7506,172.253 107.5,118.5C 111.5,115.167 115.167,111.5 118.5,107.5C 130.697,97.2973 143.697,88.2973 157.5,80.5C 160.241,80.2927 162.574,79.2927 164.5,77.5C 177.12,72.2936 190.12,68.2936 203.5,65.5 Z"/></g>
<g><path style="opacity:1" fill="#fcfcfe" d="M 203.5,65.5 C 203.833,65.5 204.167,65.5 204.5,65.5C 205.971,69.4953 208.137,73.162 211,76.5C 214.257,84.024 218.257,91.024 223,97.5C 230.211,109.808 237.045,122.308 243.5,135C 237.958,146.503 231.958,157.67 225.5,168.5C 218.537,156.596 211.037,144.93 203,133.5C 193.569,149.364 184.402,165.364 175.5,181.5C 174.957,181.56 174.624,181.893 174.5,182.5C 177.309,183.8 179.976,183.8 182.5,182.5C 188.71,169.081 195.71,156.081 203.5,143.5C 205.167,145.5 206.833,147.5 208.5,149.5C 219.209,167.71 229.709,186.044 240,204.5C 240.667,201.5 240.667,198.5 240,195.5C 236.367,188.373 232.534,181.373 228.5,174.5C 241.242,151.095 254.076,127.762 267,104.5C 269,106.833 271,109.167 273,111.5C 288.971,139.251 304.471,167.251 319.5,195.5C 320.242,196.287 321.075,196.953 322,197.5C 325.589,205.689 329.923,213.355 335,220.5C 347.076,243.765 360.076,266.432 374,288.5C 378.579,298.15 383.412,307.483 388.5,316.5C 363.005,317.498 337.339,317.831 311.5,317.5C 305.495,309.5 300.495,300.833 296.5,291.5C 295.848,290.275 294.681,289.608 293,289.5C 291.615,289.514 290.449,289.848 289.5,290.5C 300.68,310.871 312.347,330.871 324.5,350.5C 305.512,351.5 286.512,351.833 267.5,351.5C 213.833,351.5 160.167,351.5 106.5,351.5C 104.833,350.167 103.167,348.833 101.5,347.5C 101.189,346.522 100.522,345.855 99.5,345.5C 95.8164,347.528 92.1497,349.528 88.5,351.5C 87.325,351.719 86.325,351.386 85.5,350.5C 96.3845,330.783 107.051,310.949 117.5,291C 119.068,288.338 121.401,287.172 124.5,287.5C 135.5,288.167 146.5,288.833 157.5,289.5C 152.459,299.913 147.126,310.247 141.5,320.5C 140.957,320.56 140.624,320.893 140.5,321.5C 151.326,322.823 161.993,322.823 172.5,321.5C 204.502,321.667 236.502,321.5 268.5,321C 265.461,314.423 262.295,307.923 259,301.5C 255.244,296.903 252.077,291.903 249.5,286.5C 247.833,285.667 246.167,284.833 244.5,284C 233.485,283.832 222.485,283.332 211.5,282.5C 216.015,274.135 220.515,265.802 225,257.5C 227.481,255.686 230.315,255.02 233.5,255.5C 233.5,253.833 233.5,252.167 233.5,250.5C 231.712,250.785 230.045,250.452 228.5,249.5C 227.649,247.118 226.316,245.118 224.5,243.5C 220.983,245.384 220.649,247.717 223.5,250.5C 217.113,262.267 210.447,273.933 203.5,285.5C 202.957,285.56 202.624,285.893 202.5,286.5C 216.818,287.499 231.151,287.833 245.5,287.5C 250.258,297.35 255.258,307.017 260.5,316.5C 223.5,317.833 186.5,317.833 149.5,316.5C 153.662,307.421 158.328,298.587 163.5,290C 161.365,288.246 159.698,286.079 158.5,283.5C 133.167,282.833 107.833,282.167 82.5,281.5C 97.0573,254.308 111.891,227.308 127,200.5C 144.177,171.482 160.843,142.149 177,112.5C 182.077,105.355 186.411,97.6885 190,89.5C 195.529,82.0792 200.029,74.0792 203.5,65.5 Z"/></g>
<g><path style="opacity:0.914" fill="#282e5d" d="M 164.5,77.5 C 162.574,79.2927 160.241,80.2927 157.5,80.5C 159.426,78.7073 161.759,77.7073 164.5,77.5 Z"/></g>
<g><path style="opacity:0.918" fill="#282e5e" d="M 347.5,103.5 C 349.749,104.08 351.415,105.413 352.5,107.5C 350.251,106.92 348.585,105.587 347.5,103.5 Z"/></g>
<g><path style="opacity:0.91" fill="#232955" d="M 118.5,107.5 C 115.167,111.5 111.5,115.167 107.5,118.5C 110.167,113.833 113.833,110.167 118.5,107.5 Z"/></g>
<g><path style="opacity:0.914" fill="#252c59" d="M 364.5,119.5 C 366.587,120.585 367.92,122.251 368.5,124.5C 366.413,123.415 365.08,121.749 364.5,119.5 Z"/></g>
<g><path style="opacity:1" fill="#6c7bf9" d="M 266.5,170.5 C 269.792,173.46 271.792,177.126 272.5,181.5C 268.299,180.363 264.299,180.363 260.5,181.5C 262.244,177.678 264.244,174.011 266.5,170.5 Z"/></g>
<g><path style="opacity:1" fill="#bac1fc" d="M 175.5,181.5 C 177.607,182.468 179.941,182.802 182.5,182.5C 179.976,183.8 177.309,183.8 174.5,182.5C 174.624,181.893 174.957,181.56 175.5,181.5 Z"/></g>
<g><path style="opacity:1" fill="#020202" d="M 266.5,184.5 C 277.953,183.949 289.287,184.782 300.5,187C 305.549,188.717 309.382,191.884 312,196.5C 313.523,204.102 313.856,211.768 313,219.5C 312.191,223.625 310.024,226.792 306.5,229C 312.247,231.079 316.414,234.912 319,240.5C 320.553,249.772 320.886,259.105 320,268.5C 318.861,272.112 317.194,275.446 315,278.5C 312.079,280.712 308.912,282.545 305.5,284C 286.401,288.895 267.401,288.562 248.5,283C 242.656,279.837 238.823,275.004 237,268.5C 236.114,259.105 236.447,249.772 238,240.5C 240.586,234.912 244.753,231.079 250.5,229C 246.976,226.792 244.809,223.625 244,219.5C 238.524,199.063 246.024,187.396 266.5,184.5 Z"/></g>
<g><path style="opacity:1" fill="#020202" d="M 153.5,186.5 C 176.502,186.333 199.502,186.5 222.5,187C 223,187.5 223.5,188 224,188.5C 224.667,202.5 224.667,216.5 224,230.5C 223.699,237.601 220.866,243.434 215.5,248C 208.475,251.23 201.308,254.063 194,256.5C 193.667,265.167 193.333,273.833 193,282.5C 192.692,283.308 192.192,283.975 191.5,284.5C 182.215,285.64 172.881,285.806 163.5,285C 163,284.5 162.5,284 162,283.5C 161.333,272.167 161.333,260.833 162,249.5C 162.566,241.862 166.066,236.028 172.5,232C 179.18,228.765 186.18,226.598 193.5,225.5C 193.5,221.167 193.5,216.833 193.5,212.5C 180.163,212.667 166.829,212.5 153.5,212C 152.874,211.25 152.374,210.416 152,209.5C 151.333,202.5 151.333,195.5 152,188.5C 152.717,187.956 153.217,187.289 153.5,186.5 Z"/></g>
<g><path style="opacity:1" fill="#f9f9f9" d="M 272.5,208.5 C 285,205.5 289.5,210.166 286,222.5C 285.5,223 285,223.5 284.5,224C 270.448,226.7 266.448,221.534 272.5,208.5 Z"/></g>
<g><path style="opacity:1" fill="#6575f9" d="M 142.5,248.5 C 141.957,248.56 141.624,248.893 141.5,249.5C 147.128,250.495 152.794,250.829 158.5,250.5C 158.5,251.833 158.5,253.167 158.5,254.5C 150.472,254.831 142.472,254.498 134.5,253.5C 141.2,241.48 147.866,229.48 154.5,217.5C 157.106,216.348 159.773,216.182 162.5,217C 156.004,227.651 149.338,238.151 142.5,248.5 Z"/></g>
<g><path style="opacity:1" fill="#f5f5f6" d="M 269.5,246.5 C 275.509,246.334 281.509,246.501 287.5,247C 288.333,247.833 289.167,248.667 290,249.5C 293.175,260.325 289.175,264.992 278,263.5C 267.349,264.505 263.682,259.838 267,249.5C 268.045,248.627 268.878,247.627 269.5,246.5 Z"/></g>
<g><path style="opacity:1" fill="#939ffb" d="M 142.5,248.5 C 147.833,249.167 153.167,249.833 158.5,250.5C 152.794,250.829 147.128,250.495 141.5,249.5C 141.624,248.893 141.957,248.56 142.5,248.5 Z"/></g>
<g><path style="opacity:1" fill="#717ff9" d="M 270.5,249.5 C 272.741,250.3 273.741,251.966 273.5,254.5C 272.167,254.5 270.833,254.5 269.5,254.5C 269.366,252.708 269.699,251.042 270.5,249.5 Z"/></g>
<g><path style="opacity:1" fill="#6676f9" d="M 314.5,283.5 C 318.884,283.826 323.217,283.492 327.5,282.5C 327.376,281.893 327.043,281.56 326.5,281.5C 323.382,277.616 322.382,273.283 323.5,268.5C 327.352,274.07 331.018,279.736 334.5,285.5C 326.187,286.665 317.853,286.832 309.5,286C 310.91,284.628 312.577,283.795 314.5,283.5 Z"/></g>
<g><path style="opacity:1" fill="#e2e5fd" d="M 82.5,281.5 C 107.833,282.167 133.167,282.833 158.5,283.5C 132.491,283.833 106.491,283.5 80.5,282.5C 80.9569,281.702 81.6236,281.369 82.5,281.5 Z"/></g>
<g><path style="opacity:1" fill="#99a4fb" d="M 326.5,281.5 C 327.043,281.56 327.376,281.893 327.5,282.5C 323.217,283.492 318.884,283.826 314.5,283.5C 318.5,282.833 322.5,282.167 326.5,281.5 Z"/></g>
<g><path style="opacity:1" fill="#d6dafd" d="M 203.5,285.5 C 217.5,286.167 231.5,286.833 245.5,287.5C 231.151,287.833 216.818,287.499 202.5,286.5C 202.624,285.893 202.957,285.56 203.5,285.5 Z"/></g>
<g><path style="opacity:1" fill="#dce0fd" d="M 124.5,287.5 C 135.853,287.168 147.186,287.501 158.5,288.5C 158.376,289.107 158.043,289.44 157.5,289.5C 146.5,288.833 135.5,288.167 124.5,287.5 Z"/></g>
<g><path style="opacity:1" fill="#a3acfb" d="M 289.5,290.5 C 290.449,289.848 291.615,289.514 293,289.5C 294.681,289.608 295.848,290.275 296.5,291.5C 294.236,290.781 291.903,290.448 289.5,290.5 Z"/></g>
<g><path style="opacity:0.631" fill="#5a64c5" d="M 417.5,290.5 C 418.404,291.209 418.737,292.209 418.5,293.5C 416.448,292.947 416.115,291.947 417.5,290.5 Z"/></g>
<g><path style="opacity:0.643" fill="#6c77de" d="M 423.5,293.5 C 422.947,295.552 421.947,295.885 420.5,294.5C 421.609,294.443 422.609,294.11 423.5,293.5 Z"/></g>
<g><path style="opacity:1" fill="#e6e8fd" d="M 149.5,316.5 C 186.5,317.833 223.5,317.833 260.5,316.5C 261.043,316.56 261.376,316.893 261.5,317.5C 223.833,318.833 186.167,318.833 148.5,317.5C 148.624,316.893 148.957,316.56 149.5,316.5 Z"/></g>
<g><path style="opacity:1" fill="#bac2fc" d="M 388.5,316.5 C 389.043,316.56 389.376,316.893 389.5,317.5C 363.336,318.829 337.336,318.829 311.5,317.5C 337.339,317.831 363.005,317.498 388.5,316.5 Z"/></g>
<g><path style="opacity:1" fill="#b6befc" d="M 141.5,320.5 C 151.653,321.494 161.986,321.828 172.5,321.5C 161.993,322.823 151.326,322.823 140.5,321.5C 140.624,320.893 140.957,320.56 141.5,320.5 Z"/></g>
<g><path style="opacity:1" fill="#606167" d="M 101.5,347.5 C 103.167,348.833 104.833,350.167 106.5,351.5C 106.5,351.833 106.5,352.167 106.5,352.5C 103.833,351.833 102.167,350.167 101.5,347.5 Z"/></g>
<g><path style="opacity:1" fill="#aab3fb" d="M 106.5,351.5 C 160.167,351.5 213.833,351.5 267.5,351.5C 214.167,352.167 160.833,352.833 107.5,353.5C 106.833,353.5 106.5,353.167 106.5,352.5C 106.5,352.167 106.5,351.833 106.5,351.5 Z"/></g>
<g><path style="opacity:0.765" fill="#1b1f3d" d="M 365.5,351.5 C 361.5,357.5 356.5,362.5 350.5,366.5C 355.167,361.167 360.167,356.167 365.5,351.5 Z"/></g>
<g><path style="opacity:0.892" fill="#fafafa" d="M 96.5,367.5 C 157.015,425.24 227.015,440.407 306.5,413C 331.494,402.33 353.494,387.33 372.5,368C 374.809,367.244 376.809,367.744 378.5,369.5C 352.928,397.502 321.594,416.336 284.5,426C 273.808,428.547 263.142,430.38 252.5,431.5C 189.83,435.233 136.664,414.9 93,370.5C 93.033,368.522 94.1996,367.522 96.5,367.5 Z"/></g>
<g><path style="opacity:0.902" fill="#272d5b" d="M 117.5,364.5 C 120.089,365.419 122.089,367.086 123.5,369.5C 120.911,368.581 118.911,366.914 117.5,364.5 Z"/></g>
</svg>
