<?xml version="1.0" encoding="UTF-8"?>
<!-- Created with Inkscape (http://www.inkscape.org/) -->
<svg width="133.1mm" height="133.1mm" version="1.1" viewBox="0 0 133.1 133.1" xmlns="http://www.w3.org/2000/svg" xmlns:cc="http://creativecommons.org/ns#" xmlns:dc="http://purl.org/dc/elements/1.1/" xmlns:rdf="http://www.w3.org/1999/02/22-rdf-syntax-ns#">
 <metadata>
  <rdf:RDF>
   <cc:Work rdf:about="">
    <dc:format>image/svg+xml</dc:format>
    <dc:type rdf:resource="http://purl.org/dc/dcmitype/StillImage"/>
   </cc:Work>
  </rdf:RDF>
 </metadata>
 <g transform="translate(-57.427 -70.189)">
  <g transform="translate(200.86)">
   <path d="m-76.453 70.542c-36.689 0-66.549 29.86-66.549 66.549s29.86 66.549 66.549 66.549c36.689 0 66.549-29.86 66.549-66.549s-29.86-66.549-66.549-66.549zm0 10.992c2.4486 0 4.8586 0.15894 7.2223 0.46405v6.9345l1.9105 0.36327c5.0854 0.96618 9.9501 2.7272 14.496 5.2483v-0.0026c4.8392 2.684 9.1642 6.1498 12.856 10.299 3.9012 4.3848 6.9459 9.3584 9.0548 14.797v3e-3h3e-3c2.1873 5.6347 3.2949 11.573 3.2949 17.678 0 5.5952-0.93309 11.053-2.7673 16.256l-0.64649 1.8355 5.7708 3.3512c-1.8959 4.4884-4.3659 8.6714-7.3154 12.462l-5.7372-3.3285-1.2754 1.4609c-4.1514 4.7649-9.2848 8.7781-14.875 11.606l-3e-3 3e-3c-3.347 1.6964-6.8914 3.0015-10.53 3.8752-3.7478 0.90103-7.6223 1.3648-11.514 1.3648-3.8868 0-7.7605-0.45892-11.498-1.3591h-3e-3c-3.6376-0.87357-7.1754-2.1777-10.526-3.869-5.5844-2.8216-10.718-6.8222-14.861-11.578l-1.2738-1.463-5.6632 3.2887c-2.9497-3.7906-5.4189-7.9735-7.3147-12.462l5.6926-3.3042-0.65267-1.8376c-1.847-5.2148-2.7848-10.693-2.7848-16.301 0-6.1125 1.107-12.057 3.3006-17.698h3e-3v-3e-3c2.1154-5.4518 5.165-10.426 9.08-14.818 3.7042-4.155 8.0354-7.6117 12.889-10.297 4.5516-2.5142 9.4298-4.2667 14.529-5.2266l1.9141-0.36174v-6.9169c2.3637-0.30512 4.7743-0.46405 7.2229-0.46405zm-11.922 1.2795v2.3652c-4.8851 1.1089-9.6126 2.7789-14.016 5.211l-3e-3 0.0026c-5.3135 2.9392-10.069 6.7332-14.123 11.281-4.2817 4.8036-7.6351 10.272-9.9534 16.246-2.4039 6.1821-3.623 12.717-3.623 19.399 0 5.4614 0.94575 10.797 2.5549 15.945l-1.7689 1.0268c-1.753-5.413-2.7037-11.192-2.7037-17.199 0-26.654 18.643-48.84 43.635-54.277zm23.844 0c24.992 5.4374 43.635 27.624 43.635 54.277 0 6.0075-0.95047 11.787-2.7038 17.2l-1.8547-1.0769c1.597-5.133 2.5368-10.449 2.5368-15.896 0-6.675-1.2168-13.203-3.6132-19.377v-3e-3c-2.3111-5.9597-5.6577-11.426-9.9256-16.223-4.0402-4.5407-8.7872-8.3429-14.088-11.283-4.3966-2.4383-9.1124-4.1147-13.986-5.2302zm27.045 90.992 1.818 1.0552c-10.138 10.946-24.642 17.787-40.785 17.787-16.144 0-30.647-6.841-40.785-17.787l1.6578-0.96327c4.293 4.5778 9.3641 8.4585 14.928 11.27v3e-3c3.6694 1.8526 7.5476 3.2841 11.545 4.2442 4.1034 0.98827 8.3445 1.4883 12.6 1.4883 4.2645 0 8.5043-0.50866 12.611-1.496 3.9969-0.95983 7.8824-2.3908 11.555-4.2519 5.5644-2.8146 10.562-6.7715 14.856-11.348z" color="#000000" color-rendering="auto" dominant-baseline="auto" image-rendering="auto" shape-rendering="auto" solid-color="#000000" style="font-feature-settings:normal;font-variant-alternates:normal;font-variant-caps:normal;font-variant-ligatures:normal;font-variant-numeric:normal;font-variant-position:normal;isolation:auto;mix-blend-mode:normal;paint-order:markers stroke fill;shape-padding:0;text-decoration-color:#000000;text-decoration-line:none;text-decoration-style:solid;text-indent:0;text-orientation:mixed;text-transform:none;white-space:normal"/>
   <g fill="#fff" fill-opacity=".99216" fill-rule="evenodd">
    <path transform="matrix(.26458 0 0 .26458 57.427 70.189)" d="m-524.29 436.96c-44.476-5.648-81.225-23.28-111.96-53.715-7.7543-7.6798-14.44-13.963-14.857-13.963s-5.1796 2.5491-10.584 5.6647l-9.8253 5.6647-6.2179-8.4464c-3.4198-4.6455-9.5186-14.872-13.553-22.726l-7.3349-14.28 8.9494-5.0676c4.9222-2.7872 9.7593-5.5978 10.749-6.2459 1.4171-0.92787 1.2322-2.8288-0.87003-8.9426-7.3756-21.45-9.3419-33.951-9.423-59.907-0.0594-19.013 0.54456-27.908 2.5218-37.143 10.673-49.849 38.574-90.754 80.63-118.21 19.472-12.712 43.16-22.488 63.556-26.229l9.6429-1.7687v-26.251l7.5-0.90086c9.7145-1.1669 30.275-1.176 38.729-0.01723l6.628 0.90846v26.261l9.6429 1.762c62.526 11.425 117.97 60.514 138.95 123.02 11.368 33.871 11.655 77.281 0.74016 112.14-1.968 6.2857-3.5878 12.177-3.5995 13.091-0.0114 0.91453 4.1289 3.9838 9.2015 6.8205 5.0726 2.8368 9.6077 5.7803 10.078 6.5412 1.2661 2.0486-6.6752 17.84-16.483 32.776l-8.6228 13.132-6.7403-3.9025c-3.7072-2.1464-8.0084-4.767-9.5582-5.8235-1.5498-1.0565-3.5673-1.9209-4.4832-1.9209-0.91594 0-6.7193 5.2011-12.896 11.558-34.725 35.736-77.768 54.798-126.95 56.219-10.214 0.29516-20.821 0.25093-23.571-0.0983z"/>
    <path transform="matrix(.26458 0 0 .26458 57.427 70.189)" d="m-310.1 315.03c-2.0104-1.1762-1.9108-2.6242 0.96583-14.035 11.589-45.97 6.1876-94.656-15.299-137.89-10.292-20.709-20.017-34.01-38.405-52.528-25.33-25.509-50.441-40.73-83.66-50.709-11.927-3.5831-13.504-4.4379-13.504-7.3197 0-4.2851 1.3473-4.1717 18.955 1.5962 70.912 23.229 124.13 82.532 139.87 155.86 3.5811 16.686 4.9665 51.439 2.7336 68.571-1.8381 14.103-7.2258 37.883-8.5674 37.814-0.46534-0.0239-1.8548-0.63364-3.0878-1.355z"/>
    <path transform="matrix(.26458 0 0 .26458 57.427 70.189)" d="m-527.14 461.25c-46.584-5.9312-88.059-24.705-119.76-54.211-9.7515-9.0759-11.489-11.312-9.6103-12.363 1.7653-0.9879 4.8386 1.0709 13.333 8.9316 37.149 34.378 84.921 52.799 136.97 52.814 51.952 0.0159 98.928-18.189 136.64-52.952 9.4898-8.7471 11.588-10.074 14.136-8.9367 2.7559 1.2297 2.147 2.1004-7.715 11.032-30.117 27.277-64.214 44.735-102.42 52.439-13.374 2.6968-50.511 4.6544-61.575 3.2458z"/>
    <path transform="matrix(.26458 0 0 .26458 57.427 70.189)" d="m-707.03 311.09c-10.019-37.483-10.757-72.123-2.2824-107.12 9.4828-39.163 29.837-74.199 59.611-102.61 22.914-21.866 49.124-37.585 78.508-47.084 18.259-5.9029 19.768-6.0382 19.761-1.7731-5e-3 2.8463-1.6518 3.6864-14.387 7.3385-57.899 16.604-108.61 63.905-130.39 121.62-10.359 27.45-14.944 60.303-12.326 88.329 1.3136 14.063 5.162 34.294 7.8329 41.179 0.61289 1.5798-0.0588 2.9182-1.9806 3.9467-2.6119 1.3978-3.0543 1.009-4.3447-3.819z"/>
   </g>
  </g>
  <g stroke="#fff" aria-label="01">
   <path d="m124.23 143.85v-13.473c0-4.8204-2.3312-8.0998-12.051-8.0998-9.7197 0-12.09 3.2794-12.09 8.0998v13.473c0 4.8204 2.3707 8.0603 12.09 8.0603 9.7197 0 12.051-3.2399 12.051-8.0603zm-15.212-1.4224v-10.628c0-1.0273 0.47413-1.8175 3.1609-1.8175 2.7263 0 3.1609 0.79023 3.1609 1.8175v10.628c0 1.0668-0.43462 1.857-3.1609 1.857-2.6868 0-3.1609-0.79022-3.1609-1.857z"/>
   <path d="m147.3 151.32c0.98777 0 1.4224-0.43462 1.4224-1.4224v-4.7808c0-0.98777-0.43463-1.4224-1.4224-1.4224h-3.7931v-19.4c0-0.98777-0.43462-1.4224-1.4224-1.4224h-11.458c-0.98778 0-1.4224 0.43462-1.4224 1.4224v4.7808c0 0.98778 0.43462 1.4224 1.4224 1.4224h3.635v13.197h-4.4252c-0.98778 0-1.4224 0.43462-1.4224 1.4224v4.7808c0 0.98778 0.43462 1.4224 1.4224 1.4224z"/>
  </g>
  <g stroke="#fff" stroke-width=".26458" aria-label="Overwatch">
   <path d="m96.665 110.84v-3.6089c0-1.2912-0.635-2.1696-3.2808-2.1696-2.6458 0-3.2914 0.87841-3.2914 2.1696v3.6089c0 1.2912 0.64558 2.159 3.2914 2.159 2.6458 0 3.2808-0.86783 3.2808-2.159zm-4.1698-0.381v-2.8469c0-0.27516 0.127-0.48683 0.889-0.48683 0.77258 0 0.889 0.21167 0.889 0.48683v2.8469c0 0.28575-0.11642 0.49742-0.889 0.49742-0.762 0-0.889-0.21167-0.889-0.49742z"/>
   <path d="m102.52 112.84c0.27517 0 0.43392-0.0847 0.53975-0.34925l1.0372-2.5929c0.254-0.635 0.33867-0.83608 0.33867-1.5028v-2.794c0-0.26459-0.10583-0.381-0.381-0.381h-1.6616c-0.26458 0-0.381 0.11641-0.381 0.381v2.9104c0 0.14817-0.0318 0.27517-0.0847 0.43392l-0.49742 1.4922c-0.0423 0.13759-0.0847 0.17992-0.20108 0.17992h-0.11642c-0.11641 0-0.15875-0.0423-0.20108-0.17992l-0.49741-1.4817c-0.0529-0.15875-0.0847-0.28575-0.0847-0.43391v-2.921c0-0.26459-0.14817-0.381-0.41275-0.381h-1.6827c-0.26458 0-0.381 0.11641-0.381 0.381v2.794c0 0.66675 0.08467 0.86783 0.33866 1.5028l1.0372 2.5929c0.10583 0.26459 0.26458 0.34925 0.53975 0.34925z"/>
   <path d="m111.03 112.84c0.26458 0 0.381-0.11641 0.381-0.381v-1.2382c0-0.26458-0.11642-0.381-0.381-0.381h-2.921v-0.91016h2.0637c0.26458 0 0.381-0.11642 0.381-0.381v-1.1324c0-0.26458-0.11642-0.38099-0.381-0.38099h-2.0637v-0.81492h2.921c0.26458 0 0.381-0.11641 0.381-0.381v-1.2382c0-0.26459-0.11642-0.381-0.381-0.381h-4.9106c-0.26458 0-0.381 0.11641-0.381 0.381v6.858c0 0.26459 0.11642 0.381 0.381 0.381z"/>
   <path d="m115.05 107.12h0.79374c0.37042 0 0.46567 0.21167 0.46567 0.49742v0.35983c0 0.28575-0.0952 0.49741-0.46567 0.49741h-0.79374zm-0.381 5.715c0.26458 0 0.381-0.11641 0.381-0.381v-2.0743h1.4817c0.29633 0 0.40216 0.13758 0.40216 0.45508v1.6192c0 0.26459 0.11642 0.381 0.381 0.381h1.6404c0.26459 0 0.381-0.11641 0.381-0.381v-2.2436c0-0.889-0.508-1.4499-1.2806-1.5346 0.4445-0.1905 0.59267-0.61383 0.59267-1.2065v-0.48683c0-1.0478-0.49742-1.7674-2.0849-1.7674h-3.5242c-0.26458 0-0.381 0.11641-0.381 0.381v6.858c0 0.26459 0.11642 0.381 0.381 0.381z"/>
   <path d="m125.94 105.22c-0.27517 0-0.381 0.11641-0.381 0.381v3.8946l-0.61383-1.3335c-0.11642-0.24342-0.28575-0.32809-0.56091-0.32809h-0.4445c-0.27517 0-0.4445 0.0847-0.56092 0.32809l-0.61383 1.3335v-3.8946c0-0.26459-0.11642-0.381-0.381-0.381h-1.6298c-0.26458 0-0.381 0.11641-0.381 0.381v4.0852c0 0.45508 0 0.79375 0.1905 1.3123l0.52917 1.4605c0.0741 0.22225 0.23283 0.381 0.46566 0.381h1.397c0.22225 0 0.381-0.10583 0.4445-0.3175l0.49741-1.7251c0.0423-0.13759 0.10584-0.17992 0.1905-0.17992h0.0952c0.0847 0 0.14817 0.0423 0.1905 0.17992l0.48683 1.7251c0.0635 0.22225 0.254 0.3175 0.48684 0.3175h1.4076c0.22225 0 0.34925-0.16933 0.42334-0.381l0.52916-1.4393c0.1905-0.51859 0.1905-0.85725 0.1905-1.3123v-4.1063c0-0.26459-0.11642-0.381-0.381-0.381z"/>
   <path d="m132.02 107.44c0.0529-0.127 0.11642-0.17992 0.20108-0.17992h0.26458c0.0847 0 0.14817 0.0529 0.20109 0.17992l0.49741 1.6087h-1.6616zm-0.60325 5.0165v-1.4817h1.8732v1.4817c0 0.26459 0.12699 0.381 0.41274 0.381h1.5981c0.26458 0 0.381-0.11641 0.381-0.381v-2.794c0-0.42333-0.127-0.95249-0.41275-1.6933l-0.92074-2.4024c-0.0847-0.24342-0.254-0.34925-0.52917-0.34925h-2.8469c-0.28575 0-0.45508 0.10583-0.53975 0.34925l-0.92074 2.4024c-0.28575 0.74083-0.41275 1.27-0.41275 1.6933v2.794c0 0.26459 0.11641 0.381 0.381 0.381h1.5557c0.26458 0 0.381-0.11641 0.381-0.381z"/>
   <path d="m140.16 112.84c0.26459 0 0.381-0.11641 0.381-0.381v-5.1964h1.5558c0.26458 0 0.381-0.11641 0.381-0.38099v-1.2806c0-0.26459-0.11642-0.381-0.381-0.381h-5.588c-0.26459 0-0.381 0.11641-0.381 0.381v1.2806c0 0.26458 0.11641 0.38099 0.381 0.38099h1.5557v5.1964c0 0.26459 0.11642 0.381 0.381 0.381z"/>
   <path d="m148.52 112.84c0.26458 0 0.381-0.11641 0.381-0.381v-1.2594c0-0.26458-0.11642-0.381-0.381-0.381h-2.1272c-0.4445 0-0.64558-0.15875-0.64558-0.508v-2.5188c0-0.35983 0.20108-0.52917 0.64558-0.52917h2.1272c0.26458 0 0.381-0.11641 0.381-0.38099v-1.2806c0-0.26459-0.11642-0.381-0.381-0.381h-2.5823c-1.778 0-2.6035 0.68791-2.6035 2.1696v3.2914c0 1.4711 0.8255 2.159 2.6035 2.159z"/>
   <path d="m152.12 112.84c0.26459 0 0.381-0.11641 0.381-0.381v-2.3495h1.7674v2.3495c0 0.26459 0.11642 0.381 0.381 0.381h1.6404c0.26459 0 0.381-0.11641 0.381-0.381v-6.858c0-0.26459-0.11641-0.381-0.381-0.381h-1.6404c-0.26458 0-0.381 0.11641-0.381 0.381v2.2966h-1.7674v-2.2966c0-0.26459-0.11641-0.381-0.381-0.381h-1.6404c-0.26458 0-0.381 0.11641-0.381 0.381v6.858c0 0.26459 0.11642 0.381 0.381 0.381z"/>
  </g>
  <g fill-rule="evenodd">
   <rect x="121.85" y="74.123" width="5.119" height="17.759" stroke-width=".6098"/>
   <rect transform="rotate(90)" x="114.57" y="-171.32" width="5.119" height="93.967" stroke-width="1.4027"/>
   <rect transform="rotate(146.52)" x="-1.0173" y="-224.4" width="5.119" height="84.138" stroke-width="1.3273"/>
   <rect transform="matrix(.83407 .55166 .55166 -.83407 0 0)" x="207.61" y="-88.003" width="5.119" height="84.138" stroke-width="1.3273"/>
   <path transform="matrix(.099889 0 0 .099889 171.77 83.428)" d="m-405.56 80.842-70.082 121.64-70.299-121.51 70.19-0.06271z" stroke-width="1.7575"/>
  </g>
  <g transform="rotate(121.16 47.715 189.57)" fill-rule="evenodd">
   <rect x="-40.228" y="87.93" width="5.119" height="17.759" stroke-width=".6098"/>
   <path transform="matrix(.099889 0 0 .099889 9.6994 97.235)" d="m-405.56 80.842-70.082 121.64-70.299-121.51 70.19-0.06271z" stroke-width="1.7575"/>
  </g>
  <g transform="matrix(.51748 .8557 .8557 -.51748 14.312 247.06)" fill-rule="evenodd">
   <rect x="-40.228" y="87.93" width="5.119" height="17.759" stroke-width=".6098"/>
   <path transform="matrix(.099889 0 0 .099889 9.6994 97.235)" d="m-405.56 80.842-70.082 121.64-70.299-121.51 70.19-0.06271z" stroke-width="1.7575"/>
  </g>
 </g>
</svg>
