<?xml version="1.0" encoding="UTF-8" standalone="no"?>
<svg
   viewBox="0 0 503.04796 503.04796"
   version="1.1"
   id="svg42"
   width="503.04797"
   height="503.04797"
   xmlns="http://www.w3.org/2000/svg"
   xmlns:svg="http://www.w3.org/2000/svg">
  <defs
     id="defs4">
    <style
       id="style2">
      .cls-1 {
        fill: rgba(255, 255, 255, .99);
        fill-rule: evenodd;
      }

      .cls-1, .cls-2 {
        stroke: #fff;
      }

      .cls-1, .cls-2, .cls-3 {
        stroke-miterlimit: 11.34;
      }

      .cls-4 {
        fill: #52ad3e;
      }

      .cls-4, .cls-5, .cls-6, .cls-7 {
        stroke-width: 0px;
      }

      .cls-2 {
        stroke-width: 2.83px;
      }

      .cls-6 {
        fill: #8dff74;
      }

      .cls-3 {
        fill: #002868;
        stroke: #000;
        stroke-width: .75px;
      }

      .cls-7 {
        fill: #fff;
      }
    </style>
  </defs>
  <g
     id="Layer_1"
     data-name="Layer 1"
     transform="scale(1.3333545)">
    <circle
       class="cls-7"
       cx="188.63"
       cy="188.64999"
       r="173.06"
       id="circle6" />
    <rect
       class="cls-4"
       x="74.93"
       y="165.16"
       width="227.63"
       height="46.98"
       id="rect8" />
    <polygon
       class="cls-4"
       points="25.22,135.54 93,51.28 93,339.79 21.51,233.06 "
       id="polygon10" />
    <polygon
       class="cls-4"
       points="284.03,51.28 338.24,101.83 340.8,274.94 284.03,339.79 "
       id="polygon12" />
    <g
       id="g18">
      <ellipse
         class="cls-6"
         cx="188.63"
         cy="130.67999"
         rx="40.560001"
         ry="41.110001"
         id="ellipse14" />
      <path
         class="cls-6"
         d="M 267.2,346.13 110.07,339.71 V 237.12 c 0,-30.96 24.76,-56.05 55.31,-56.05 h 46.51 c 30.55,0 55.31,25.1 55.31,56.05 z"
         id="path16" />
    </g>
    <g
       id="g26" />
    <path
       class="cls-5"
       color-rendering="auto"
       d="M 188.64,0 C 84.64,0 0,84.64 0,188.64 c 0,104 84.64,188.64 188.64,188.64 104,0 188.64,-84.64 188.64,-188.64 C 377.28,84.64 292.64,0 188.64,0 Z m 0,31.16 c 6.94,0 13.77,0.45 20.47,1.32 v 19.66 l 5.42,1.03 c 14.42,2.74 28.2,7.73 41.09,14.88 v 0 c 13.72,7.6 25.98,17.43 36.44,29.19 11.06,12.43 19.69,26.53 25.67,41.94 v 0 c 0,0 0,0 0,0 6.2,15.97 9.34,32.81 9.34,50.11 0,15.86 -2.64,31.33 -7.84,46.08 l -1.83,5.2 16.36,9.5 c -5.37,12.72 -12.38,24.58 -20.74,35.33 l -16.26,-9.44 -3.62,4.14 c -11.77,13.51 -26.32,24.88 -42.17,32.9 v 0 c -9.49,4.82 -19.53,8.52 -29.85,10.99 -10.62,2.55 -21.61,3.87 -32.64,3.87 -11.03,0 -22,-1.3 -32.59,-3.85 v 0 c -10.31,-2.48 -20.34,-6.17 -29.83,-10.97 -15.83,-8 -30.38,-19.34 -42.13,-32.82 l -3.61,-4.15 -16.05,9.32 C 55.91,274.64 48.91,262.79 43.54,250.06 l 16.14,-9.37 -1.85,-5.21 c -5.24,-14.78 -7.89,-30.31 -7.89,-46.21 0,-17.33 3.14,-34.18 9.36,-50.17 v 0 c 6,-15.46 14.64,-29.56 25.74,-42.01 10.5,-11.78 22.78,-21.58 36.54,-29.19 12.9,-7.13 26.73,-12.09 41.18,-14.82 l 5.43,-1.03 V 32.44 c 6.7,-0.86 13.53,-1.32 20.47,-1.32 v 0 z m -33.79,3.63 v 6.7 C 141,44.63 127.6,49.37 115.12,56.26 v 0 C 100.06,64.6 86.58,75.35 75.09,88.25 62.95,101.87 53.45,117.37 46.88,134.3 c -6.81,17.52 -10.27,36.05 -10.27,54.99 0,15.48 2.68,30.61 7.24,45.2 l -5.01,2.91 C 33.87,222.06 31.18,205.67 31.18,188.65 31.18,113.1 84.03,50.21 154.87,34.79 v 0 z m 67.59,0 c 70.84,15.41 123.69,78.3 123.69,153.86 0,17.03 -2.69,33.41 -7.66,48.76 l -5.26,-3.05 c 4.53,-14.55 7.19,-29.62 7.19,-45.06 0,-18.92 -3.45,-37.43 -10.24,-54.93 v 0 C 323.61,117.47 314.12,101.97 302.02,88.38 290.57,75.51 277.11,64.73 262.09,56.4 249.63,49.49 236.26,44.74 222.44,41.57 V 34.8 Z m 76.66,257.93 5.15,2.99 c -28.74,31.03 -69.85,50.42 -115.61,50.42 -45.76,0 -86.87,-19.39 -115.61,-50.42 l 4.7,-2.73 c 12.17,12.98 26.54,23.98 42.32,31.95 v 0 c 10.4,5.26 21.39,9.32 32.73,12.04 11.63,2.8 23.65,4.22 35.72,4.22 12.07,0 24.11,-1.44 35.75,-4.24 11.33,-2.72 22.34,-6.78 32.75,-12.05 15.77,-7.98 29.94,-19.19 42.11,-32.17 v 0 z"
       image-rendering="auto"
       shape-rendering="auto"
       id="path28" />
    <circle
       class="cls-3"
       cx="189.63"
       cy="28.93"
       r="0.75999999"
       id="circle30" />
    <circle
       class="cls-3"
       cx="189.63"
       cy="28.93"
       r="0.75999999"
       id="circle32" />
  </g>
  <g
     id="Layer_2"
     data-name="Layer 2"
     transform="matrix(1.0411646,0,0,1.0411646,55.118697,55.097873)">
    <g
       id="g39">
      <path
         class="cls-2"
         d="m 270.57,135.55 h -68.59 c -3.69,0 -5.31,1.62 -5.31,5.31 v 17.85 c 0,3.69 1.62,5.31 5.31,5.31 h 40.42 v 13.28 l -11.95,3.25 c -15.78,4.72 -23.01,10.47 -23.01,29.21 v 26.7 c 0,3.69 1.62,5.31 5.31,5.31 h 23.9 c 3.69,0 5.31,-1.62 5.31,-5.31 v -25.81 l 10.92,-3.25 c 15.78,-4.72 23.01,-10.47 23.01,-29.21 v -37.32 c 0,-3.69 -1.62,-5.31 -5.31,-5.31 v 0 z"
         id="path35" />
      <path
         class="cls-2"
         d="m 106.7,213.87 c -3.69,0 -5.31,1.62 -5.31,5.31 v 17.26 c 0,3.69 1.62,5.31 5.31,5.31 h 46.61 c 18.88,0 28.62,-9.29 28.62,-24.49 v -14.75 c 0,-12.98 -4.57,-19.77 -18.59,-21.39 6.49,-2.8 8.7,-8.41 8.7,-15.93 v -8.55 c 0,-12.98 -7.82,-21.09 -24.19,-21.09 H 106.7 c -3.69,0 -5.31,1.62 -5.31,5.31 v 17.55 c 0,3.69 1.62,5.31 5.31,5.31 h 27.44 c 4.72,0 5.61,2.06 5.61,4.42 v 2.21 c 0,2.36 -0.89,4.42 -5.61,4.42 h -15.49 c -3.69,0 -5.31,1.62 -5.31,5.31 v 15.78 c 0,3.69 1.62,5.31 5.31,5.31 h 25.08 c 4.72,0 5.61,1.92 5.61,4.28 v 3.98 c 0,2.36 -0.89,4.42 -5.61,4.42 h -37.02 z"
         id="path37" />
    </g>
  </g>
  <g
     id="g984"
     transform="matrix(1.0028695,0,0,1.0028695,83.195737,85.77148)">
    <path
       style="fill:#ffffff;stroke-width:5.34654;paint-order:stroke fill markers"
       d="m -33.657156,222.39343 c -14.305075,-51.56534 -9.430981,-104.05711 14.032403,-151.122585 23.0739695,-46.28433 62.22298,-82.248418 110.34018,-101.36356 8.76207,-3.48084 22.496193,-7.84329 29.213453,-9.27924 l 2.33595,-0.49936 -0.21404,4.04321 -0.21405,4.04322 -8.48763,2.32595 c -26.097643,7.151813 -48.397333,18.158669 -69.274603,34.193093 -47.0740905,36.154437 -76.199243,91.566327 -78.78028,149.882992 -0.97164,21.95348 0.907818,40.35385 6.19111,60.61257 l 2.70183,10.36015 -2.72665,1.72126 c -1.49967,0.9467 -2.850245,1.72127 -3.00129,1.72127 -0.151044,0 -1.103417,-2.98754 -2.116383,-6.63897 z"
       id="path920" />
    <path
       style="fill:#ffffff;stroke-width:5.34654;paint-order:stroke fill markers"
       d="m 156.84822,373.91201 c -49.07479,-2.10859 -97.468403,-22.97913 -133.641793,-57.63524 -4.68785,-4.49122 -8.34464,-8.45505 -8.12619,-8.80851 0.21844,-0.35346 1.34548,-1.13303 2.50451,-1.73239 l 2.10733,-1.08975 7.21958,6.82923 c 34.27167,32.41866 74.244973,51.08968 119.483733,55.80932 29.83694,3.11281 60.62984,-0.46479 88.62967,-10.29724 27.5963,-9.69075 48.21973,-22.52614 72.47859,-45.10845 l 8.13398,-7.57183 2.65048,1.44109 c 1.45776,0.79259 2.65133,1.64161 2.65238,1.88669 7.1e-4,0.24508 -3.95835,4.27365 -8.79868,8.95237 -35.46281,34.27879 -84.10345,55.18423 -133.36721,57.32038 -6.02976,0.26146 -15.89663,0.26341 -21.92638,0.004 z"
       id="path924" />
    <path
       style="fill:#ffffff;stroke-width:5.34654;paint-order:stroke fill markers"
       d="m 364.66417,227.55823 c -1.43361,-0.738 -2.75401,-1.5835 -2.93423,-1.87891 -0.18021,-0.2954 0.90012,-5.35098 2.40073,-11.23461 4.73683,-18.5723 5.89793,-28.28157 5.91032,-49.42319 0.008,-14.0042 -0.28877,-20.41403 -1.2453,-26.8775 -4.20536,-28.41647 -13.00413,-53.406945 -27.03884,-76.796325 -25.87708,-43.12512 -67.55043,-75.630091 -114.53203,-89.334301 -4.6682,-1.361679 -9.68121,-2.689529 -11.14002,-2.950779 l -2.65238,-0.47499 v -4.16509 c 0,-2.29081 0.26403,-4.1651 0.58674,-4.1651 0.3227,0 4.53999,1.08363 9.37175,2.40806 52.86804,14.491691 97.54036,48.897156 125.74707,96.84714 25.56312,43.456045 34.28661,96.818325 24.07027,147.239735 -1.31216,6.47597 -5.22004,21.45455 -5.72461,21.94198 -0.11711,0.11313 -1.38587,-0.39812 -2.81947,-1.13612 z"
       id="path926" />
  </g>
</svg>
