<?xml version="1.0" encoding="UTF-8"?>
<!-- Created with Inkscape (http://www.inkscape.org/) -->
<svg width="133.1mm" height="133.1mm" version="1.1" viewBox="0 0 133.1 133.1" xmlns="http://www.w3.org/2000/svg" xmlns:cc="http://creativecommons.org/ns#" xmlns:dc="http://purl.org/dc/elements/1.1/" xmlns:rdf="http://www.w3.org/1999/02/22-rdf-syntax-ns#">
 <metadata>
  <rdf:RDF>
   <cc:Work rdf:about="">
    <dc:format>image/svg+xml</dc:format>
    <dc:type rdf:resource="http://purl.org/dc/dcmitype/StillImage"/>
   </cc:Work>
  </rdf:RDF>
 </metadata>
 <g transform="translate(-57.427 -70.189)">
  <ellipse cx="130.94" cy="135.67" rx=".18899" ry=".66146" stroke-width=".26458"/>
  <g fill="#fff">
   <circle cx="123.98" cy="136.74" r="28.537" stroke-width=".30498"/>
   <g fill-opacity=".99216" fill-rule="evenodd" stroke-width="5.3993">
    <path transform="matrix(.26458 0 0 .26458 57.427 70.189)" d="m222.86 434.07c-38.32-5.8662-75.582-25.428-104.05-54.626-13.451-13.795-10.194-13.309-26.227-3.911l-6.7069 3.9314-5.0231-6.8753c-7.139-9.7713-19.936-33.174-20.044-36.656-0.06627-2.1368 2.3617-4.3708 8.9191-8.2067 4.9556-2.8988 9.3418-5.6023 9.7472-6.0077s-0.8812-5.8599-2.8591-12.121c-6.8355-21.638-8.676-33.826-8.676-57.455 0-15.821 0.73113-25.609 2.561-34.286 8.2012-38.885 25.763-70.748 53.858-97.714 26.241-25.187 55.995-40.926 91.06-48.169l8.8705-1.8322v-26.164l8.781-0.9178c11.198-1.1705 25.525-1.1705 36.724 0l8.781 0.9178v26.364l8.9286 1.722c21.554 4.1571 47.419 15.172 68.203 29.046 13.508 9.0165 38.596 34.22 47.634 47.851 14.056 21.201 25.049 48.294 29.693 73.182 2.3341 12.509 2.308 46.776-0.0457 60-1.0488 5.8928-3.7924 17.083-6.0968 24.866-3.3502 11.316-3.816 14.402-2.3243 15.398 1.026 0.68545 5.868 3.5244 10.76 6.3088l8.8943 5.0626-5.1544 10.253c-5.6179 11.175-18.135 31.278-20.903 33.57-1.22 1.0105-4.4745-0.20119-11.017-4.1018-5.1071-3.0447-10.03-5.5601-10.939-5.5898-0.90933-0.0297-4.6527 3.321-8.3187 7.446-40.373 45.429-103.98 68.059-165.03 58.714z"/>
    <path transform="matrix(.26458 0 0 .26458 57.427 70.189)" d="m447.25 312.99c-1.2871-1.5509-1.0195-4.5676 1.1724-13.214 6.5933-26.009 7.5603-61.935 2.3395-86.919-16.022-76.671-70.564-135.23-145.3-156.01-7.107-1.9759-8.3206-2.8001-8.3206-5.6506 0-4.3687 1.2883-4.2654 18.945 1.5185 52.673 17.254 97.837 56.125 122.72 105.62 7.6975 15.31 16.162 41.414 19.07 58.808 4.4933 26.884 2.6178 63.862-4.5465 89.643-2.3854 8.584-3.3174 9.5349-6.0814 6.2046z"/>
    <path transform="matrix(.26458 0 0 .26458 57.427 70.189)" d="m225.71 459.26c-43.865-6.0884-84.333-25.036-116.19-54.403-9.1404-8.4252-10.776-10.552-8.9144-11.593 1.7382-0.97277 4.7683 0.97876 12.765 8.2212 30.82 27.914 66.482 45.225 105.89 51.405 19.138 3.0008 56.728 2.2602 73.592-1.45 36.423-8.013 68.678-24.753 94.504-49.047 8.9563-8.4247 11.722-10.278 14.175-9.4991 2.8981 0.91981 2.777 1.2496-2.4586 6.6969-9.413 9.7937-27.708 23.926-41.177 31.808-21.703 12.7-43.491 20.953-68.007 25.758-14.071 2.7581-50.792 3.9614-64.18 2.1032z"/>
   </g>
  </g>
  <g fill="none" stroke-width="5.3993">
   <path transform="matrix(.26458 0 0 .26458 57.427 70.189)" d="m48.851 303.21c-5.142-20.694-6.4015-34.082-5.587-59.392 0.59261-18.416 1.5789-27.262 4.346-38.981 16.976-71.892 69.498-129.31 139.16-152.13 17.674-5.7896 18.945-5.89 18.945-1.4963 0 2.9419-1.1984 3.6779-9.6429 5.9221-62.528 16.618-115.36 66.241-136.7 128.39-12.343 35.955-14.252 79.561-5.0496 115.34 1.9428 7.5529 2.2594 10.943 1.1472 12.283-2.7666 3.3336-3.6557 1.9996-6.6211-9.9348z"/>
   <path transform="matrix(.26458 0 0 .26458 57.427 70.189)" d="m48.851 303.21c-5.142-20.694-6.4015-34.082-5.587-59.392 0.59261-18.416 1.5789-27.262 4.346-38.981 16.976-71.892 69.498-129.31 139.16-152.13 17.674-5.7896 18.945-5.89 18.945-1.4963 0 2.9419-1.1984 3.6779-9.6429 5.9221-62.528 16.618-115.36 66.241-136.7 128.39-12.343 35.955-14.252 79.561-5.0496 115.34 1.9428 7.5529 2.2594 10.943 1.1472 12.283-2.7666 3.3336-3.6557 1.9996-6.6211-9.9348z"/>
   <path transform="matrix(.26458 0 0 .26458 57.427 70.189)" d="m48.851 303.21c-5.142-20.694-6.4015-34.082-5.587-59.392 0.59261-18.416 1.5789-27.262 4.346-38.981 16.976-71.892 69.498-129.31 139.16-152.13 17.674-5.7896 18.945-5.89 18.945-1.4963 0 2.9419-1.1984 3.6779-9.6429 5.9221-62.528 16.618-115.36 66.241-136.7 128.39-12.343 35.955-14.252 79.561-5.0496 115.34 1.9428 7.5529 2.2594 10.943 1.1472 12.283-2.7666 3.3336-3.6557 1.9996-6.6211-9.9348z"/>
   <path transform="matrix(.26458 0 0 .26458 57.427 70.189)" d="m447.25 312.99c-1.2871-1.5509-1.0195-4.5676 1.1724-13.214 6.5933-26.009 7.5603-61.935 2.3395-86.919-16.022-76.671-70.564-135.23-145.3-156.01-7.107-1.9759-8.3206-2.8001-8.3206-5.6506 0-4.3687 1.2883-4.2654 18.945 1.5185 52.673 17.254 97.837 56.125 122.72 105.62 7.6975 15.31 16.162 41.414 19.07 58.808 4.4933 26.884 2.6178 63.862-4.5465 89.643-2.3854 8.584-3.3174 9.5349-6.0814 6.2046z"/>
   <path transform="matrix(.26458 0 0 .26458 57.427 70.189)" d="m225.71 459.26c-43.865-6.0884-84.333-25.036-116.19-54.403-9.1404-8.4252-10.776-10.552-8.9144-11.593 1.7382-0.97277 4.7683 0.97876 12.765 8.2212 30.82 27.914 66.482 45.225 105.89 51.405 19.138 3.0008 56.728 2.2602 73.592-1.45 36.423-8.013 68.678-24.753 94.504-49.047 8.9563-8.4247 11.722-10.278 14.175-9.4991 2.8981 0.91981 2.777 1.2496-2.4586 6.6969-9.413 9.7937-27.708 23.926-41.177 31.808-21.703 12.7-43.491 20.953-68.007 25.758-14.071 2.7581-50.792 3.9614-64.18 2.1032z"/>
  </g>
  <path transform="matrix(.26458 0 0 .26458 57.427 70.189)" d="m50.054 307.59c-5.3927-18.159-7.1057-31.761-7.0728-56.164 0.03617-26.881 2.0183-40.256 9.4132-63.52 10.297-32.392 26.235-58.151 51.799-83.715 25.653-25.653 51.305-41.496 84.038-51.903 16.865-5.3618 18.197-5.4376 18.197-1.036 0 3.0048-1.1152 3.676-9.6429 5.8033-5.3036 1.3231-15.429 4.7091-22.5 7.5244-92.027 36.639-144.37 138.92-120.19 234.84 3.0888 12.252 3.1242 12.963 0.70945 14.255-2.1923 1.1733-2.845 0.33773-4.7518-6.0829z" fill="#fff" fill-opacity=".99216" fill-rule="evenodd" stroke-width="5.3993"/>
  <g>
   <path d="m123.98 70.189c-36.689 0-66.549 29.86-66.549 66.549s29.86 66.549 66.549 66.549c36.689 0 66.549-29.86 66.549-66.549s-29.86-66.549-66.549-66.549zm0 10.992c2.4486 0 4.8586 0.15894 7.2223 0.46405v6.9345l1.9105 0.36327c5.0854 0.96618 9.95 2.7272 14.496 5.2483v-0.0026c4.8392 2.684 9.1641 6.1498 12.856 10.299 3.9012 4.3848 6.9459 9.3584 9.0547 14.797v3e-3h3e-3c2.1873 5.6347 3.2949 11.573 3.2949 17.678 0 5.5952-0.93308 11.053-2.7673 16.256l-0.64648 1.8355 5.7707 3.3512c-1.8958 4.4884-4.3659 8.6714-7.3153 12.462l-5.7371-3.3285-1.2754 1.4609c-4.1513 4.7649-9.2848 8.7781-14.875 11.606l-3e-3 3e-3c-3.347 1.6964-6.8913 3.0015-10.53 3.8752-3.7478 0.90103-7.6222 1.3648-11.514 1.3648-3.8867 0-7.7604-0.45892-11.498-1.3591h-3e-3c-3.6376-0.87357-7.1754-2.1777-10.525-3.869-5.5844-2.8216-10.718-6.8222-14.861-11.578l-1.2738-1.463-5.6632 3.2887c-2.9497-3.7906-5.4189-7.9735-7.3147-12.462l5.6927-3.3042-0.65267-1.8376c-1.847-5.2148-2.7848-10.693-2.7848-16.301 0-6.1125 1.107-12.057 3.3006-17.698h0.0026v-3e-3c2.1154-5.4518 5.165-10.426 9.08-14.818 3.7042-4.155 8.0354-7.6117 12.889-10.297 4.5516-2.5142 9.4298-4.2667 14.529-5.2266l1.9141-0.36174v-6.9169c2.3637-0.30512 4.7743-0.46405 7.2229-0.46405zm-11.922 1.2795v2.3652c-4.885 1.1089-9.6126 2.7789-14.016 5.211l-0.0026 0.0026c-5.3135 2.9392-10.069 6.7332-14.123 11.281-4.2817 4.8036-7.6352 10.272-9.9534 16.246-2.4039 6.1821-3.623 12.717-3.623 19.399 0 5.4614 0.94575 10.797 2.5549 15.945l-1.7689 1.0268c-1.753-5.413-2.7037-11.192-2.7037-17.199 0-26.654 18.643-48.84 43.635-54.277zm23.844 0c24.992 5.4374 43.635 27.624 43.635 54.277 0 6.0075-0.95046 11.787-2.7037 17.2l-1.8547-1.0769c1.597-5.133 2.5368-10.449 2.5368-15.896 0-6.675-1.2167-13.203-3.6132-19.377v-3e-3c-2.3111-5.9597-5.6577-11.426-9.9255-16.223-4.0402-4.5407-8.7872-8.3429-14.088-11.283-4.3966-2.4383-9.1124-4.1147-13.986-5.2302zm27.045 90.992 1.818 1.0552c-10.138 10.946-24.641 17.787-40.785 17.787-16.143 0-30.647-6.841-40.785-17.787l1.6578-0.96327c4.293 4.5778 9.3641 8.4585 14.928 11.27v3e-3c3.6694 1.8526 7.5475 3.2841 11.545 4.2442 4.1034 0.98827 8.3444 1.4883 12.6 1.4883 4.2645 0 8.5042-0.50866 12.611-1.496 3.9969-0.95983 7.8823-2.3908 11.555-4.2519 5.5644-2.8146 10.562-6.7715 14.855-11.348z" color="#000000" color-rendering="auto" dominant-baseline="auto" image-rendering="auto" shape-rendering="auto" solid-color="#000000" style="font-feature-settings:normal;font-variant-alternates:normal;font-variant-caps:normal;font-variant-ligatures:normal;font-variant-numeric:normal;font-variant-position:normal;isolation:auto;mix-blend-mode:normal;paint-order:markers stroke fill;shape-padding:0;text-decoration-color:#000000;text-decoration-line:none;text-decoration-style:solid;text-indent:0;text-orientation:mixed;text-transform:none;white-space:normal"/>
  </g>
  <g transform="translate(-122.45 -35.557)" fill="#b10021" fill-rule="evenodd">
   <g stroke-width="5.3993">
    <path transform="matrix(.26458 0 0 .26458 57.427 70.189)" d="m865.7 452.86c0.40443-2.3571 1.134-8.7857 1.6213-14.286 3.4431-38.864-29.276-73.865-68.697-73.489-19.283 0.18404-38.049 8.5058-51.002 22.618-6.3912 6.963-7.3678 7.5393-10.204 6.0212-2.5737-1.3774-3.1368-2.9332-3.1368-8.6666 0-8.1561-3.489-13.918-10.413-17.197-3.6482-1.7278-4.5307-3.0103-4.5557-6.6211-0.0301-4.3632 0.17144-4.5035 7.8443-5.4622 11.319-1.4142 26.621-9.5559 36.469-19.403 26.008-26.008 26.072-69.567 0.14083-95.439-8.6997-8.6798-21.907-16.509-30.556-18.113-2.9464-0.54658-5.3572-1.5773-5.3572-2.2906 0-2.4759 18.029 2.7056 29.889 8.5902 33.403 16.573 54.136 51.577 52.722 89.013l-0.46874 12.417 10.713 5.36c15.855 7.9332 33.32 25.706 41.223 41.95 8.7041 17.891 10.679 27.355 9.8282 47.106-0.5195 12.067-1.5216 18.564-3.7514 24.323-1.7111 4.4187-2.7208 5.9816-2.3073 3.5714z"/>
    <path transform="matrix(.26458 0 0 .26458 57.427 70.189)" d="m560.08 448.24c-3.7869-12.6-4.5194-34.92-1.5797-48.133 6.3433-28.512 29.1-56.013 55.465-67.029l5.0667-2.117-0.77306-11.279c-1.0449-15.245 2.4391-32.042 9.835-47.416 10.513-21.852 35.276-42.929 57.973-49.341 11.408-3.2232 14.647-3.7543 14.647-2.402 0 0.71324-2.179 1.7056-4.8421 2.2052-8.4891 1.5926-21.876 9.3005-29.946 17.243-9.6808 9.5274-17.386 24.658-19.746 38.775-4.44 26.563 10.442 56.705 34.378 69.63 8.1702 4.4117 19.899 8.003 26.227 8.0303 3.405 0.0147 3.9286 0.58558 3.9286 4.2835 0 3.4897-0.87173 4.6308-4.7876 6.267-7.0025 2.9258-11.238 9.6488-11.365 18.039-0.0841 5.5761-0.70889 7.2727-3.1615 8.5853-2.7391 1.4659-4.0136 0.67887-12.269-7.5763-5.0667-5.0667-12.454-10.855-16.417-12.863-28.142-14.26-59.585-9.3992-81.6 12.616-15.817 15.817-22.46 36.129-19.068 58.308 0.94329 6.1677 1.4441 11.485 1.1129 11.816-0.33119 0.3312-1.7172-3.1079-3.0801-7.6425z"/>
    <path transform="matrix(.26458 0 0 .26458 57.427 70.189)" d="m667.93 326.89c-3.2426-3.6838-5.7094-7.6653-5.4817-8.8477 0.60548-3.144 14.223-10.862 25.942-14.703 8.1686-2.6772 13.286-3.3366 25.895-3.3366 18.348 0 30.282 3.1071 44.574 11.605 10.004 5.9483 10.02 6.2349 0.90663 16.323l-4.9976 5.5317-5.2416-3.4597c-19.791-13.063-52.094-12.625-71.9 0.97515l-3.8013 2.6102z"/>
    <path transform="matrix(.26458 0 0 .26458 57.427 70.189)" d="m635.11 514.97c-19.493-4.1136-34.735-12.014-48.829-25.309-5.4545-5.1455-9.5939-9.6788-9.1987-10.074 0.3952-0.39519 3.4999 1.8452 6.8994 4.9788 8.5721 7.9015 22.881 14.614 35.226 16.525 49.135 7.6054 90.322-37.465 77.366-84.662-1.4019-5.1071-2.9968-10.296-3.5443-11.531-0.70069-1.5808 0.13307-2.7597 2.8165-3.9823 3.2099-1.4625 4.2373-1.3518 6.5059 0.70127 1.5892 1.4382 5.9529 2.7083 10.641 3.0971 6.5303 0.54155 8.6802 0.11659 12.063-2.3843 4.79-3.5414 5.6912-3.6662 9.0009-1.2461 2.3096 1.6888 2.2708 2.3137-0.64328 10.357-4.3295 11.95-4.3459 32.269-0.0357 44.159 14.169 39.085 57.608 57.2 95.096 39.657 5.0515-2.3639 12.136-7.0183 15.743-10.343 3.6071-3.3249 6.8817-5.7219 7.2769-5.3267 1.2866 1.2866-19.127 19.514-26.839 23.964-4.1304 2.3836-12.653 6.0527-18.938 8.1536-9.9294 3.3187-13.771 3.8231-29.286 3.8447-23.49 0.0327-37.212-4.0839-55.57-16.671-5.0203-3.442-6.7447-3.9822-8.5714-2.6853-7.5217 5.3403-23.593 13.529-31.572 16.088-10.578 3.3916-35.353 4.852-45.607 2.6883z"/>
    <path transform="matrix(.26458 0 0 .26458 57.427 70.189)" d="m674.14 461.3c-15.869-8.3898-28.001-20.545-36.161-36.23-7.0174-13.488-10.074-25.72-10.102-40.427l-0.0211-11.071 6.0714 0.16902c3.3393 0.093 8 0.57938 10.357 1.0809l4.2857 0.91192 0.80238 13.632c0.65487 11.126 1.5968 15.326 5.1233 22.848 5.5195 11.772 16.819 24.116 26.896 29.381 4.3372 2.2663 7.8873 4.9057 7.8892 5.8655 4e-3 2.0113-6.6913 17.541-7.5624 17.541-0.31907 0-3.7294-1.6651-7.5786-3.7002z"/>
   </g>
   <path transform="matrix(.26458 0 0 .26458 57.427 70.189)" d="m743.6 458.93c-5.3937-12.256-5.2951-12.755 3.4151-17.275 9.526-4.9437 20.653-16.406 25.815-26.592 4.4886-8.8578 8.257-25.467 7.6211-33.59-0.4166-5.3212-0.1568-5.7703 3.8389-6.6351 2.3572-0.51016 7.0908-1.0036 10.519-1.0966l6.2335-0.16902-0.61786 14.643c-1.3161 31.191-15.835 55.2-43.428 71.816-4.539 2.7333-8.8089 4.9696-9.4886 4.9696s-2.4382-2.7321-3.9079-6.0714z"/>
   <path transform="matrix(.26458 0 0 .26458 57.427 70.189)" d="m558.92 440c-1.8037-9.9659-1.1789-33.965 1.1134-42.766 3.2718-12.561 12.734-29.519 22.293-39.95 8.4226-9.1917 23.316-20.093 32.314-23.652l4.6428-1.8364v-15.213c0-17.867 3.2084-31.397 10.929-46.089 9.2027-17.513 28.236-35.146 46.797-43.354 10.903-4.8219 14.784-4.548 5.0923 0.3595-15.914 8.0582-30.098 26.354-35.165 45.357-7.046 26.426 5.6861 58.296 29.358 73.486 7.7013 4.9419 21.579 10.085 27.213 10.085 7.955 0 8.5818 5.8928 1.1396 10.714-6.3743 4.1296-9.7458 9.3642-10.661 16.552-0.78535 6.1694-2.5492 9.8763-4.6995 9.8763-0.59171 0-5.8077-4.243-11.591-9.4288-16.208-14.534-27.766-19.143-48.002-19.143-19.091 0-32.762 5.521-47.155 19.044-14.662 13.776-20.187 25.88-21.627 47.385-0.80006 11.948-1.1259 13.351-1.9908 8.5714z"/>
  </g>
  <g stroke="#fff" aria-label="234">
   <path d="m107.34 150.96c0.98778 0 1.4224-0.43462 1.4224-1.4224v-4.6228c0-0.98778-0.43462-1.4224-1.4224-1.4224h-11.261v-0.82973c0-0.86925 0.23707-0.94827 1.0273-1.1853l5.3735-1.699c3.8326-1.1853 6.1637-3.0028 6.1637-6.9935v-3.714c0-4.2672-2.4497-6.5588-6.954-6.5588h-11.656c-0.98778 0-1.4224 0.43463-1.4224 1.4224v4.6228c0 0.98778 0.43462 1.4224 1.4224 1.4224h8.5739c0.79022 0 1.0668 0.23707 1.0668 1.0273 0 0.86925-0.23707 1.1853-1.0668 1.4224l-5.2945 1.6595c-3.635 1.1063-6.2032 2.5287-6.2032 8.6529v6.7959c0 0.98778 0.43462 1.4224 1.4224 1.4224z"/>
   <path d="m114.14 143.49c-0.98778 0-1.4224 0.43462-1.4224 1.4224v4.6228c0 0.98778 0.43462 1.4224 1.4224 1.4224h12.486c5.0574 0 7.6652-2.4892 7.6652-6.5588v-3.9511c0-3.477-1.2248-5.2945-4.9784-5.7291 1.7385-0.75071 2.3312-2.2521 2.3312-4.2672v-2.2916c0-3.477-2.0941-5.6501-6.4798-5.6501h-11.024c-0.98778 0-1.4224 0.43463-1.4224 1.4224v4.7018c0 0.98777 0.43462 1.4224 1.4224 1.4224h7.3491c1.2644 0 1.5014 0.55316 1.5014 1.1853v0.59266c0 0.63218-0.23706 1.1853-1.5014 1.1853h-4.1487c-0.98778 0-1.4224 0.43462-1.4224 1.4224v4.2277c0 0.98778 0.43462 1.4224 1.4224 1.4224h6.7169c1.2644 0 1.5014 0.51365 1.5014 1.1458v1.0668c0 0.63217-0.23707 1.1853-1.5014 1.1853z"/>
   <path d="m151.91 144.36v5.176c0 0.98778 0.43462 1.4224 1.4224 1.4224h6.0847c0.98777 0 1.4224-0.43462 1.4224-1.4224v-25.603c0-0.98777-0.43463-1.4224-1.4224-1.4224h-6.0847c-0.98778 0-1.4224 0.43463-1.4224 1.4224v12.169h-3.6745c-0.75071 0-1.2248-0.51364-1.2248-1.3434v-10.826c0-0.98777-0.43462-1.4224-1.4224-1.4224h-6.1242c-0.98778 0-1.4224 0.43463-1.4224 1.4224v13.868c0 4.5043 2.0546 6.5588 7.191 6.5588z"/>
  </g>
 </g>
</svg>
