<?xml version="1.0" encoding="UTF-8" standalone="no"?>
<!-- Created with Inkscape (http://www.inkscape.org/) -->

<svg
   width="133.09781mm"
   height="133.09781mm"
   viewBox="0 0 133.09781 133.09781"
   version="1.1"
   id="svg9950"
   inkscape:version="1.2.1 (9c6d41e4, 2022-07-14)"
   sodipodi:docname="site-75-vn.svg"
   inkscape:export-filename="C:\Users\jorda\OneDrive\Documents\Fiction\SCP Foundation\Site Insignia\Site-00.png"
   inkscape:export-xdpi="99.235291"
   inkscape:export-ydpi="99.235291"
   xml:space="preserve"
   xmlns:inkscape="http://www.inkscape.org/namespaces/inkscape"
   xmlns:sodipodi="http://sodipodi.sourceforge.net/DTD/sodipodi-0.dtd"
   xmlns="http://www.w3.org/2000/svg"
   xmlns:svg="http://www.w3.org/2000/svg"
   xmlns:rdf="http://www.w3.org/1999/02/22-rdf-syntax-ns#"
   xmlns:cc="http://creativecommons.org/ns#"
   xmlns:dc="http://purl.org/dc/elements/1.1/"><defs
     id="defs9944"><rect
       x="548.37299"
       y="807.03949"
       width="182.10122"
       height="368.3411"
       id="rect3094" /></defs><sodipodi:namedview
     id="base"
     pagecolor="#ffffff"
     bordercolor="#666666"
     borderopacity="1.0"
     inkscape:pageopacity="0.0"
     inkscape:pageshadow="2"
     inkscape:zoom="0.61319569"
     inkscape:cx="764.03016"
     inkscape:cy="449.28561"
     inkscape:document-units="mm"
     inkscape:current-layer="layer1"
     showgrid="false"
     fit-margin-top="0"
     fit-margin-left="0"
     fit-margin-right="0"
     fit-margin-bottom="0"
     inkscape:window-width="1440"
     inkscape:window-height="757"
     inkscape:window-x="0"
     inkscape:window-y="25"
     inkscape:window-maximized="0"
     inkscape:pagecheckerboard="0"
     inkscape:showpageshadow="2"
     inkscape:deskcolor="#d1d1d1" /><metadata
     id="metadata9947"><rdf:RDF><cc:Work
         rdf:about=""><dc:format>image/svg+xml</dc:format><dc:type
           rdf:resource="http://purl.org/dc/dcmitype/StillImage" /></cc:Work></rdf:RDF></metadata><g
     inkscape:label="Layer 1"
     inkscape:groupmode="layer"
     id="layer1"
     transform="translate(-57.427285,-70.189195)"><path
       style="fill:#ffffff;fill-opacity:0.992157;fill-rule:evenodd;stroke-width:5.39933"
       d=""
       id="path901"
       transform="matrix(0.26458333,0,0,0.26458333,57.427285,70.189195)" /><path
       style="fill:#ffffff;fill-opacity:0.992157;fill-rule:evenodd;stroke-width:5.39933"
       d="m 225.71429,459.2571 c -43.8651,-6.08836 -84.33307,-25.03594 -116.1937,-54.40325 -9.14045,-8.42515 -10.775607,-10.55168 -8.91441,-11.59326 1.73824,-0.97277 4.76834,0.97876 12.76489,8.22121 30.82041,27.91393 66.48187,45.22546 105.89414,51.40532 19.13798,3.00085 56.72755,2.26021 73.59193,-1.44999 36.42253,-8.01305 68.67785,-24.75315 94.50433,-49.04655 8.9563,-8.42466 11.72173,-10.27783 14.17523,-9.49912 2.89806,0.91981 2.777,1.24956 -2.45856,6.69689 -9.413,9.79373 -27.70791,23.92585 -41.17711,31.80775 -21.7032,12.70026 -43.49113,20.95253 -68.00663,25.75779 -14.07113,2.75808 -50.79207,3.96143 -64.18011,2.10321 z"
       id="path940"
       transform="matrix(0.26458333,0,0,0.26458333,57.427285,70.189195)" /><path
       style="fill:#ffffff;fill-opacity:0.992157;fill-rule:evenodd;stroke-width:5.39933"
       d="m 447.25337,312.9903 c -1.28714,-1.5509 -1.01948,-4.56761 1.17244,-13.21429 6.5933,-26.0092 7.56028,-61.93535 2.33946,-86.91887 -16.02194,-76.67087 -70.56395,-135.233263 -145.3018,-156.012234 -7.10703,-1.975931 -8.32061,-2.800078 -8.32061,-5.65055 0,-4.368681 1.28832,-4.265419 18.94503,1.518489 52.67255,17.254246 97.83719,56.125145 122.72375,105.622055 7.69753,15.30962 16.16245,41.41424 19.0696,58.80796 4.49327,26.88357 2.61782,63.86171 -4.5465,89.64285 -2.3854,8.58396 -3.31745,9.5349 -6.08137,6.20459 z"
       id="path979"
       transform="matrix(0.26458333,0,0,0.26458333,57.427285,70.189195)" /><path
       style="fill:#ffffff;fill-opacity:0.992157;fill-rule:evenodd;stroke-width:5.39933"
       d="m 48.850869,303.21429 c -5.142043,-20.69395 -6.401492,-34.08242 -5.587025,-59.39238 0.592614,-18.41575 1.578907,-27.26207 4.346045,-38.9808 16.975865,-71.8921 69.497841,-129.308841 139.159371,-152.128265 17.67411,-5.789613 18.94503,-5.889991 18.94503,-1.496303 0,2.941916 -1.19835,3.677878 -9.64286,5.922134 C 133.54372,73.756357 80.70944,123.38011 59.374383,185.52919 47.03141,221.4843 45.122289,265.09001 54.324767,300.86611 c 1.942799,7.55293 2.25942,10.94286 1.147239,12.28296 -2.766632,3.33359 -3.655671,1.99962 -6.621137,-9.93478 z"
       id="path1135"
       transform="matrix(0.26458333,0,0,0.26458333,57.427285,70.189195)" /><path
       style="opacity:1;fill:#ff0000;fill-rule:evenodd;stroke:none;stroke-width:0.767392;stroke-linecap:round;paint-order:stroke fill markers;fill-opacity:1"
       d="m 117.10249,189.1116 c -11.79995,-1.63845 -22.399423,-7.05536 -30.860559,-15.77143 -1.755869,-1.80877 -3.290834,-3.28868 -3.411034,-3.28868 -0.120197,0 -1.486344,0.73095 -3.035879,1.62432 -1.549534,0.89337 -2.873861,1.62431 -2.94295,1.62431 -0.493078,0 -7.518533,-11.89852 -7.518533,-12.73361 0,-0.0926 1.324831,-0.94731 2.944069,-1.89938 1.619238,-0.95207 2.970661,-1.74953 3.003163,-1.77212 0.0325,-0.0226 -0.452996,-1.60566 -1.078883,-3.51794 -1.919069,-5.86335 -2.566714,-10.93193 -2.324421,-18.19131 0.165652,-4.96312 0.433109,-7.19438 1.223732,-10.20898 3.291828,-12.55157 9.813836,-22.31214 20.01244,-29.949797 5.513108,-4.128726 14.015845,-7.879183 20.583975,-9.079346 l 2.74103,-0.500855 V 81.717076 77.98737 l 2.49604,-0.260888 c 3.15569,-0.329835 7.64031,-0.328866 10.39695,0.0022 l 2.13192,0.256073 v 3.801182 c 0,3.45709 0.0695,3.801182 0.7677,3.801182 1.61703,0 8.68223,2.083506 12.1827,3.592643 13.96967,6.022654 24.53855,17.611308 29.26124,32.084618 3.26804,10.01536 3.28022,21.72884 0.0331,31.82616 -0.65932,2.05024 -1.16029,3.75451 -1.11327,3.78726 0.047,0.0327 1.41033,0.82545 3.02957,1.76156 1.61924,0.93611 2.94407,1.78989 2.94407,1.89729 0,0.6027 -3.24528,6.53886 -5.14784,9.41626 l -2.21711,3.35313 -3.1475,-1.70576 -3.1475,-1.70575 -2.99636,3.15439 c -7.13386,7.51011 -16.39898,12.82691 -26.349,15.12041 -4.91519,1.13297 -13.81555,1.58723 -18.46086,0.94222 z"
       id="path1016" /><path
       style="opacity:1;fill:#ffffff;fill-rule:evenodd;stroke:none;stroke-width:2.69966;stroke-linecap:round;paint-order:stroke fill markers"
       d="m 50.053792,307.59263 c -5.392728,-18.15929 -7.105661,-31.76137 -7.072827,-56.16406 0.03617,-26.88073 2.018252,-40.25574 9.413164,-63.51959 10.293671,-32.38315 26.230972,-58.14278 51.799441,-83.724 25.93472,-25.947651 50.55744,-41.143227 84.0378,-51.862792 16.76253,-5.36694 18.1972,-5.459961 18.1972,-1.179871 0,2.935277 -1.48177,3.701657 -13.91236,7.195517 C 164.08313,66.329517 135.12587,82.95862 112.4167,104.33608 58.988454,154.63119 36.531703,229.7498 54.096103,299.4205 c 3.088807,12.25201 3.124176,12.96267 0.709447,14.255 -2.192327,1.1733 -2.845045,0.33773 -4.751758,-6.08287 z"
       id="path1055"
       transform="matrix(0.26458333,0,0,0.26458333,57.427285,70.189195)" /><path
       style="opacity:1;fill:#ffffff;fill-rule:evenodd;stroke:none;stroke-width:2.69966;stroke-linecap:round;paint-order:stroke fill markers"
       d="m 447.65941,313.48917 c -2.05934,-1.15247 -1.9604,-2.59591 1.02428,-14.94181 21.98318,-90.93235 -21.98642,-185.3543 -105.9559,-227.533637 -11.26985,-5.66104 -27.29251,-11.686703 -38.79922,-14.591274 -5.14777,-1.299422 -6.07143,-2.084794 -6.07143,-5.162448 0,-3.350458 0.35739,-3.55197 4.64286,-2.617837 36.5734,7.97216 79.5238,34.289062 106.28222,65.122056 44.96112,51.80746 61.74205,120.06732 46.04434,187.29464 -1.60372,6.86808 -3.35949,12.76161 -3.90172,13.09673 -0.54223,0.33511 -2.01165,0.0353 -3.26543,-0.66642 z"
       id="path1094"
       transform="matrix(0.26458333,0,0,0.26458333,57.427285,70.189195)" /><path
       style="opacity:1;fill:#ffffff;fill-rule:evenodd;stroke:none;stroke-width:2.69966;stroke-linecap:round;paint-order:stroke fill markers"
       d=""
       id="path1133"
       transform="matrix(0.26458333,0,0,0.26458333,57.427285,70.189195)" /><path
       inkscape:connector-curvature="0"
       style="color:#000000;font-style:normal;font-variant:normal;font-weight:normal;font-stretch:normal;font-size:medium;line-height:normal;font-family:sans-serif;font-variant-ligatures:normal;font-variant-position:normal;font-variant-caps:normal;font-variant-numeric:normal;font-variant-alternates:normal;font-feature-settings:normal;text-indent:0;text-align:start;text-decoration:none;text-decoration-line:none;text-decoration-style:solid;text-decoration-color:#000000;letter-spacing:normal;word-spacing:normal;text-transform:none;writing-mode:lr-tb;direction:ltr;text-orientation:mixed;dominant-baseline:auto;baseline-shift:baseline;text-anchor:start;white-space:normal;shape-padding:0;clip-rule:nonzero;display:inline;overflow:visible;visibility:visible;opacity:1;isolation:auto;mix-blend-mode:normal;color-interpolation:sRGB;color-interpolation-filters:linearRGB;solid-color:#000000;solid-opacity:1;vector-effect:none;fill:#000000;fill-opacity:1;fill-rule:nonzero;stroke:none;stroke-width:10.99190521;stroke-linecap:round;stroke-linejoin:bevel;stroke-miterlimit:4;stroke-dasharray:none;stroke-dashoffset:341.41040039;stroke-opacity:1;paint-order:markers stroke fill;color-rendering:auto;image-rendering:auto;shape-rendering:auto;text-rendering:auto;enable-background:accumulate"
       d="m 123.97619,70.189195 c -36.688665,0 -66.548905,29.860245 -66.548905,66.548905 0,36.68866 29.86024,66.5489 66.548905,66.5489 36.68866,0 66.54891,-29.86024 66.54891,-66.5489 0,-36.68866 -29.86025,-66.548905 -66.54891,-66.548905 z m 0,10.992088 c 2.44856,0 4.85859,0.158935 7.2223,0.464053 V 88.5798 l 1.91048,0.363273 c 5.08542,0.966179 9.95,2.727219 14.49575,5.248275 v -0.0026 c 4.83918,2.68404 9.16414,6.149842 12.85555,10.298592 3.90123,4.38481 6.9459,9.35842 9.05473,14.79703 v 0.003 h 0.003 c 2.18728,5.63467 3.29491,11.57264 3.29491,17.67798 0,5.59517 -0.93308,11.05347 -2.76728,16.25587 l -0.64648,1.83554 5.77072,3.35122 c -1.89585,4.48836 -4.36586,8.67142 -7.31533,12.46177 l -5.73712,-3.32849 -1.27537,1.4609 c -4.15132,4.76486 -9.28479,8.77808 -14.87454,11.6055 l -0.003,0.003 c -3.34703,1.69637 -6.89134,3.00151 -10.5296,3.87522 -3.74782,0.90103 -7.62224,1.36477 -11.5135,1.36477 -3.88673,0 -7.76044,-0.45892 -11.49802,-1.35909 h -0.003 c -3.63763,-0.87357 -7.17537,-2.17768 -10.52545,-3.86902 -5.584398,-2.82155 -10.718452,-6.82218 -14.861113,-11.5781 l -1.273836,-1.46296 -5.663221,3.2887 c -2.949672,-3.79056 -5.418949,-7.97347 -7.314715,-12.46162 l 5.692669,-3.3042 -0.652674,-1.83761 c -1.84703,-5.21475 -2.784819,-10.69321 -2.784819,-16.30082 0,-6.11251 1.107017,-12.05711 3.300571,-17.69761 h 0.0026 v -0.003 c 2.115397,-5.45176 5.165011,-10.42598 9.08005,-14.8182 3.704246,-4.15499 8.03537,-7.611691 12.888618,-10.296524 4.5516,-2.514177 9.42978,-4.266724 14.52936,-5.226553 l 1.9141,-0.361738 v -6.916943 c 2.36373,-0.305117 4.7743,-0.464052 7.22286,-0.464052 z m -11.92176,1.279499 v 2.365242 c -4.88503,1.108922 -9.6126,2.778919 -14.015694,5.211048 l -0.0026,0.0026 c -5.313469,2.93923 -10.068798,6.733249 -14.123168,11.280958 -4.281725,4.80357 -7.63516,10.27152 -9.953387,16.24605 -2.403924,6.18207 -3.623045,12.71728 -3.623045,19.3988 0,5.46135 0.945753,10.79683 2.554896,15.9453 l -1.768898,1.0268 c -1.75305,-5.413 -2.703698,-11.19182 -2.703698,-17.19895 0,-26.65362 18.642753,-48.839966 43.635054,-54.277312 z m 23.84351,0 c 24.99218,5.437425 43.63456,27.623798 43.63456,54.277318 0,6.00749 -0.95046,11.78668 -2.70373,17.19998 l -1.85467,-1.07694 c 1.59697,-5.13302 2.5368,-10.44924 2.5368,-15.89619 0,-6.67496 -1.21674,-13.20287 -3.61321,-19.37711 v -0.003 c -2.31111,-5.95968 -5.65766,-11.42595 -9.9255,-16.22279 -4.04016,-4.5407 -8.78721,-8.342895 -14.08803,-11.283025 -4.39656,-2.43832 -9.11238,-4.11472 -13.98622,-5.230177 z m 27.04487,90.992378 1.81797,1.05524 c -10.1382,10.94574 -24.64144,17.78651 -40.78459,17.78651 -16.14342,0 -30.646905,-6.84096 -40.785103,-17.78701 l 1.657773,-0.96327 c 4.29305,4.57777 9.364107,8.45854 14.927766,11.26961 v 0.003 c 3.669404,1.85256 7.547534,3.28406 11.545044,4.24418 4.10342,0.98827 8.34443,1.48828 12.59975,1.48828 4.26447,0 8.50423,-0.50866 12.6111,-1.49603 3.99692,-0.95983 7.88233,-2.39075 11.55485,-4.25194 5.56435,-2.81456 10.56196,-6.77151 14.85544,-11.34763 z"
       id="circle1064"
       inkscape:export-filename="C:\Users\Jesse\circle1064.png"
       inkscape:export-xdpi="57.251118"
       inkscape:export-ydpi="57.251118" /><path
       style="fill:#ffff01;fill-opacity:1;stroke-width:0.920528"
       d=""
       id="path14883"
       transform="matrix(0.26458333,0,0,0.26458333,57.427285,70.189195)" /><path
       style="fill:#ffff01;fill-opacity:1;stroke-width:0.920528"
       d=""
       id="path14885"
       transform="matrix(0.26458333,0,0,0.26458333,57.427285,70.189195)" /><path
       style="fill:#ffff01;fill-opacity:1;stroke-width:0.920528"
       d=""
       id="path14887"
       transform="matrix(0.26458333,0,0,0.26458333,57.427285,70.189195)" /><path
       style="fill:#ffff01;fill-opacity:1;stroke-width:0.920528"
       d=""
       id="path14889"
       transform="matrix(0.26458333,0,0,0.26458333,57.427285,70.189195)" /><path
       style="fill:#ffff01;fill-opacity:1;stroke-width:0.920528"
       d=""
       id="path14891"
       transform="matrix(0.26458333,0,0,0.26458333,57.427285,70.189195)" /><path
       style="fill:#ffff01;fill-opacity:1;stroke-width:0.920528"
       d=""
       id="path14895"
       transform="matrix(0.26458333,0,0,0.26458333,57.427285,70.189195)" /><path
       style="opacity:1;fill:#ffff01;fill-opacity:1;stroke-width:0.197368"
       d=""
       id="path15208"
       transform="matrix(0.26458333,0,0,0.26458333,57.427285,70.189195)" /><text
       xml:space="preserve"
       id="text3092"
       style="fill:#da251c;fill-opacity:1;white-space:pre;shape-inside:url(#rect3094)"
       transform="matrix(0.26458333,0,0,0.26458333,57.427285,70.189195)" /><text
       xml:space="preserve"
       style="font-size:40.2025px;line-height:1.25;font-family:'MS UI Gothic';-inkscape-font-specification:'MS UI Gothic';letter-spacing:0px;opacity:0.931099;stroke:#ffffff;stroke-width:1.26218;stroke-miterlimit:4;stroke-dasharray:none"
       x="95.295372"
       y="162.63177"
       id="text2534"
       transform="scale(1.0625398,0.94114122)"><tspan
         sodipodi:role="line"
         style="font-style:normal;font-variant:normal;font-weight:normal;font-stretch:normal;font-size:40.2025px;font-family:sans-serif;-inkscape-font-specification:sans-serif;stroke:#ffffff;stroke-width:1.26218;stroke-miterlimit:4;stroke-dasharray:none"
         x="95.295372"
         y="162.63177"
         id="tspan2362" /></text><path
       style="fill:#ffffff;fill-opacity:0.992157;fill-rule:evenodd;stroke-width:1.42857"
       d=""
       id="path901-3" /><path
       style="fill:#ffffff;fill-rule:evenodd;stroke:none;stroke-width:0.714285;stroke-linecap:round;paint-order:stroke fill markers"
       d=""
       id="path1133-3" /><path
       style="fill:#ffff00;stroke-width:0.0825825;opacity:0.6"
       d="m 104.75159,148.40469 c -0.0182,0.13169 -0.077,0.5528 -0.13072,0.93581 -0.43909,3.1332 0.63189,6.74728 2.80858,9.47762 1.90307,2.38716 5.19083,5.04098 7.83048,6.32065 2.4261,1.17613 5.44965,1.9983 8.67038,2.35764 0.85695,0.0956 1.62703,0.16681 1.71126,0.15823 0.19893,-0.0203 0.18505,-0.0823 -0.1338,-0.59782 l -0.26611,-0.43027 -1.0131,-0.11237 c -1.44529,-0.16032 -2.55091,-0.3423 -2.79782,-0.46052 -0.17163,-0.0822 -0.23741,-0.21766 -0.339,-0.69824 -0.0868,-0.41051 -0.091,-0.59984 -0.0136,-0.60773 0.0618,-0.006 0.35516,0.0232 0.65186,0.0657 0.68109,0.0975 2.70177,0.28301 2.73476,0.25113 0.0136,-0.0132 -0.0217,-0.15306 -0.0784,-0.31092 l -0.10326,-0.287 -2.03261,-0.24199 c -1.11794,-0.1331 -2.50388,-0.3139 -3.07986,-0.40177 l -1.04725,-0.15977 -0.17705,-0.31756 c -0.0974,-0.17465 -0.25452,-0.68226 -0.34919,-1.12801 l -0.17215,-0.81045 0.73569,0.20811 c 1.46994,0.41581 4.35288,0.93802 5.5356,1.00271 0.25961,0.0142 0.28184,-7.5e-4 0.258,-0.17475 -0.0223,-0.16269 -0.0833,-0.19557 -0.42078,-0.22683 -1.15911,-0.10736 -4.64035,-0.97369 -6.73915,-1.67707 l -0.82937,-0.27795 -0.0688,-0.50727 c -0.0691,-0.50993 -0.0337,-1.17224 0.0883,-1.65116 l 0.0657,-0.25782 1.16176,0.4574 c 2.8622,1.12696 6.25347,2.06088 9.53869,2.62688 l 1.13393,0.19536 0.25916,1.65734 c 0.31427,2.01009 0.68264,2.98645 1.65913,4.39782 l 0.3378,0.48826 1.38037,-0.14072 c 3.16785,-0.32294 5.58301,-1.12536 7.51994,-2.49844 0.26621,-0.18871 0.60969,-0.47536 0.76328,-0.63698 l 0.27927,-0.29385 -0.83455,0.27913 c -1.11175,0.37185 -2.67015,0.74252 -3.78114,0.89934 l -0.90529,0.12776 -0.35903,-0.25951 c -0.19746,-0.14274 -0.55175,-0.41597 -0.7873,-0.60719 l -0.42826,-0.34768 1.50958,-0.10726 c 1.63013,-0.11584 3.73667,-0.41322 5.24285,-0.74009 l 0.92166,-0.20003 0.33838,0.18583 0.33837,0.18583 -0.20981,0.42879 c -0.73638,1.50498 -2.36179,2.68473 -4.83871,3.512 -1.66101,0.55477 -2.3757,0.71037 -4.40643,0.95935 -6.08172,0.74567 -12.18599,0.0108 -17.13427,-2.06267 -5.64765,-2.36654 -10.26241,-6.42016 -12.92055,-11.34944 -0.68225,-1.26519 -1.07165,-2.16629 -1.02354,-2.36859 0.0471,-0.19782 1.14503,-1.61786 1.74016,-2.25057 0.42062,-0.44719 1.52944,-1.5514 2.02834,-2.01991 l 0.21075,-0.19793 z m -5.00917,6.83274 c 0.50638,0.90802 1.86453,2.87432 2.56559,3.71439 2.32231,2.78276 5.13869,5.01635 8.50691,6.74662 5.91643,3.03925 12.83711,4.0957 20.68354,3.15735 3.41052,-0.4079 5.6942,-1.07279 7.54514,-2.19691 1.21402,-0.73729 2.25738,-1.90316 2.53499,-2.83266 0.0639,-0.21401 0.15049,-0.30787 0.32891,-0.35662 0.73068,-0.19964 0.8921,-0.84215 0.28883,-1.14971 -0.53676,-0.27366 -1.31496,-0.088 -1.47929,0.35295 -0.089,0.23868 -0.17282,0.26046 -2.20762,0.57335 -1.45622,0.22393 -3.64579,0.42705 -5.272,0.48907 l -0.6825,0.026 -0.4217,-0.50404 c -0.53053,-0.63414 -0.88288,-1.16224 -0.81388,-1.21986 0.0292,-0.0244 0.44462,-0.0334 0.92317,-0.0198 2.86077,0.0806 4.67703,-0.004 7.73156,-0.3621 3.09057,-0.36192 4.77253,-0.70159 7.3381,-1.48201 1.27697,-0.38844 2.6914,-0.91209 3.70721,-1.37247 0.43123,-0.19544 0.85332,-0.36241 0.93798,-0.37104 0.36235,-0.037 0.1414,0.27263 -0.63692,0.89235 -2.26078,1.80014 -5.26497,3.55334 -8.02159,4.68126 -0.64456,0.26374 -0.9003,0.40792 -0.99934,0.56338 -1.48397,2.32952 -4.3912,3.99676 -8.6814,4.97863 -0.64246,0.14705 -1.16496,0.29031 -1.16111,0.31838 0.003,0.028 0.32223,0.27189 0.70753,0.54185 0.84666,0.59322 2.82676,1.64246 4.01638,2.12825 0.47791,0.19516 0.91246,0.37334 0.96564,0.39595 0.21452,0.0912 -1.6235,1.97762 -3.05723,3.13778 -1.63716,1.32477 -3.04633,2.23761 -5.21451,3.37791 -1.20108,0.63167 -3.73964,1.81171 -3.8149,1.77334 -0.0223,-0.0113 -0.19234,-0.2917 -0.37816,-0.62309 -0.38897,-0.69372 -0.67464,-1.5044 -0.76665,-2.17571 l -0.0641,-0.46735 1.14751,-0.41737 c 1.46599,-0.53322 3.09067,-1.25593 4.42271,-1.96737 1.15394,-0.61629 2.51852,-1.43649 2.50872,-1.50789 -0.008,-0.0552 -0.38046,-0.23061 -0.47061,-0.22141 -0.0354,0.004 -0.4636,0.219 -0.95161,0.47866 -1.57102,0.8359 -5.38115,2.48143 -5.5483,2.3962 -0.24693,-0.12588 -0.68465,-2.14668 -0.49864,-2.30199 0.0467,-0.039 0.47587,-0.1883 0.95391,-0.33195 1.02153,-0.30696 2.02092,-0.67387 3.22809,-1.18515 0.47968,-0.20316 0.88705,-0.37767 0.90525,-0.38778 0.0182,-0.0101 -0.0573,-0.0977 -0.16771,-0.19461 l -0.20083,-0.17623 -0.93467,0.38041 c -1.07317,0.43678 -2.67935,0.96592 -3.29626,1.08591 l -0.42196,0.0821 -0.0998,-0.25052 c -0.12757,-0.32008 -0.20127,-0.84465 -0.17408,-1.23741 l 0.0214,-0.3073 0.91258,-0.17168 c 0.90875,-0.17096 2.64257,-0.58329 2.71817,-0.64641 0.0699,-0.0584 -0.58232,-0.58794 -0.78314,-0.63584 -0.10644,-0.0254 -0.43546,-0.0218 -0.73116,0.008 -0.67094,0.0677 -3.005,0.13564 -4.17767,0.1218 -6.14714,-0.0725 -13.10488,-2.05476 -17.78013,-5.06543 -2.75743,-1.77565 -6.05108,-4.66696 -7.03521,-6.1758 l -0.29716,-0.45559 0.0881,-0.70337 c 0.10253,-0.81807 0.52203,-2.28463 0.86927,-3.0389 0.13304,-0.289 0.25528,-0.53662 0.27165,-0.55029 0.0163,-0.0136 0.20208,0.28416 0.4127,0.66184 z"
       id="path1030" /><path
       style="fill:#ffff00;stroke-width:0.0860038;opacity:0.6"
       d="m 123.313,155.17082 c -3.36535,-0.31148 -6.73199,-1.40038 -9.59204,-3.10243 -2.87563,-1.71132 -5.6458,-4.40036 -7.40876,-7.19176 -3.1101,-4.92439 -4.05095,-10.82127 -2.628,-16.47119 0.39967,-1.58688 0.85246,-2.78747 1.64577,-4.36385 1.74497,-3.46735 4.36144,-6.36046 7.70239,-8.51677 6.67626,-4.309 15.15576,-4.81718 22.31683,-1.33746 3.62199,1.76002 6.94307,4.72113 9.06731,8.08456 4.01754,6.36123 4.36586,14.31219 0.91974,20.99474 -1.81312,3.5159 -4.86359,6.73972 -8.3285,8.80173 -4.0563,2.41395 -9.0095,3.53606 -13.69474,3.10243 z m 2.38214,-1.68918 c 3.68806,-0.39196 6.73294,-2.46229 8.27809,-5.6286 0.21505,-0.44071 0.49421,-1.17409 0.62034,-1.62975 0.20512,-0.74099 0.22933,-0.98059 0.22933,-2.26897 0,-1.29265 -0.0239,-1.52748 -0.23297,-2.28785 -0.75209,-2.73573 -2.81393,-5.13473 -5.4284,-6.31604 -1.44581,-0.65328 -2.45345,-0.88644 -4.38197,-1.0139 -2.21715,-0.14646 -3.33704,-0.38854 -4.72984,-1.02211 -5.07069,-2.3066 -7.55814,-7.99617 -5.75553,-13.16464 0.26374,-0.75618 1.05703,-2.20781 1.5777,-2.88699 0.55842,-0.72841 1.55686,-1.70033 2.27608,-2.21561 0.62657,-0.4489 0.50304,-0.4277 -0.90177,0.15469 -7.52706,3.1208 -12.48272,10.39662 -12.48272,18.32698 0,7.72223 4.47505,14.65525 11.65346,18.05422 1.83438,0.86857 3.86712,1.47911 5.8922,1.76973 1.60584,0.23043 2.21245,0.2535 3.386,0.12871 z m -0.84305,-6.52401 c -0.59343,-0.11602 -1.09414,-0.38957 -1.51779,-0.82923 -1.31084,-1.36034 -0.86023,-3.53705 0.89457,-4.32127 1.0116,-0.45206 2.3057,-0.21988 3.10071,0.55631 0.77936,0.76092 1.03103,1.86692 0.65126,2.8619 -0.45973,1.20451 -1.8607,1.9802 -3.12875,1.73229 z m 1.38517,-20.86062 c 1.05329,-0.30972 1.82563,-1.28657 1.90116,-2.4046 0.15532,-2.29729 -2.42413,-3.71695 -4.37997,-2.41071 -1.42687,0.95296 -1.59646,3.01052 -0.34389,4.17196 0.77795,0.72135 1.78043,0.94982 2.8227,0.64335 z"
       id="path1044" /><path
       style="fill:#ffff00;stroke-width:0.122514;opacity:0.6"
       d="m 117.16586,107.87092 c 0.48347,-1.45252 2.33773,-6.90206 2.41473,-7.09671 0.0295,-0.0745 -1.65177,-1.311416 -3.73612,-2.748629 l -3.78972,-2.613117 4.66812,-0.03135 4.66812,-0.03135 0.16574,-0.386932 c 0.0911,-0.212811 0.75208,-2.120866 1.46874,-4.240119 0.71665,-2.119254 1.33126,-3.853188 1.3658,-3.853188 0.0346,0 0.64915,1.733934 1.36581,3.853188 0.71665,2.119253 1.37758,4.027308 1.46873,4.240119 l 0.16574,0.386932 4.66935,0.03135 4.66935,0.03135 -3.79059,2.614002 c -2.08483,1.437708 -3.76663,2.674584 -3.73735,2.748624 0.0768,0.19406 1.93224,5.64733 2.41437,7.09583 0.22424,0.67371 0.37172,1.22385 0.32773,1.22253 -0.044,-0.001 -1.74732,-1.1561 -3.78516,-2.56616 -2.03785,-1.41008 -3.73344,-2.56328 -3.76798,-2.56269 -0.0346,4.6e-4 -1.73013,1.15452 -3.76797,2.56429 -2.03785,1.40975 -3.74117,2.56404 -3.78516,2.56508 -0.044,9e-4 0.10348,-0.54934 0.32772,-1.22305 z"
       id="path2522" /><text
       xml:space="preserve"
       style="font-style:normal;font-variant:normal;font-weight:bold;font-stretch:normal;font-size:46.3178px;line-height:1.25;font-family:Arial;-inkscape-font-specification:'Arial Bold';letter-spacing:0px;stroke:#ffffff;stroke-width:1.17228;stroke-miterlimit:4;stroke-dasharray:none"
       x="95.215332"
       y="156.14919"
       id="text2534-7"
       transform="scale(1.0259317,0.97472376)"><tspan
         sodipodi:role="line"
         id="tspan2532"
         style="font-style:normal;font-variant:normal;font-weight:bold;font-stretch:normal;font-size:46.3178px;font-family:Arial;-inkscape-font-specification:'Arial Bold';stroke:#ffffff;stroke-width:1.17228;stroke-miterlimit:4;stroke-dasharray:none"
         x="95.215332"
         y="156.14919">75</tspan></text></g></svg>
