<?xml version="1.0" encoding="utf-8"?>
<!-- Generator: Adobe Illustrator 26.2.1, SVG Export Plug-In . SVG Version: 6.00 Build 0)  -->
<svg version="1.1"
	 id="svg9950" xmlns:cc="http://creativecommons.org/ns#" xmlns:dc="http://purl.org/dc/elements/1.1/" xmlns:inkscape="http://www.inkscape.org/namespaces/inkscape" xmlns:rdf="http://www.w3.org/1999/02/22-rdf-syntax-ns#" xmlns:sodipodi="http://sodipodi.sourceforge.net/DTD/sodipodi-0.dtd" xmlns:svg="http://www.w3.org/2000/svg"
	 xmlns="http://www.w3.org/2000/svg" xmlns:xlink="http://www.w3.org/1999/xlink" x="0px" y="0px" viewBox="0 0 377.3 377.3"
	 style="enable-background:new 0 0 377.3 377.3;" xml:space="preserve">
<style type="text/css">
	.st0{fill:none;}
	.st1{fill-rule:evenodd;clip-rule:evenodd;fill:#FFFFFF;fill-opacity:0.9922;}
	.st2{fill-rule:evenodd;clip-rule:evenodd;fill:#FFFFFF;}
	.st3{fill:none;stroke:#000000;stroke-width:8;stroke-miterlimit:10;}
	.st4{fill:#C30233;}
	.st5{fill:#0086BC;}
	.st6{fill:#FDD200;}
	.st7{fill:#009E6A;}
	.st8{fill:#FD6C00;}
	.st9{fill:#010100;}
</style>
<sodipodi:namedview  bordercolor="#666666" borderopacity="1.0" fit-margin-bottom="0" fit-margin-left="0" fit-margin-right="0" fit-margin-top="0" id="base" inkscape:current-layer="layer1" inkscape:cx="-110.71429" inkscape:cy="217.14286" inkscape:document-units="mm" inkscape:pagecheckerboard="0" inkscape:pageopacity="0.0" inkscape:pageshadow="2" inkscape:window-height="974" inkscape:window-maximized="1" inkscape:window-width="1920" inkscape:window-x="-11" inkscape:window-y="-11" inkscape:zoom="0.7" pagecolor="#ffffff" showgrid="false">
	</sodipodi:namedview>
<g id="layer1" transform="translate(-57.427285,-70.189195)" inkscape:groupmode="layer" inkscape:label="Layer 1">
	<path id="path901" class="st0" d="M57.4,70.2"/>
	<path id="path940" class="st1" d="M226.7,414.6c-32.9-4.6-63.2-18.8-87.1-40.8c-6.9-6.3-8.1-7.9-6.7-8.7c1.3-0.7,3.6,0.7,9.6,6.2
		c23.1,20.9,49.9,33.9,79.4,38.6c14.4,2.3,42.5,1.7,55.2-1.1c27.3-6,51.5-18.6,70.9-36.8c6.7-6.3,8.8-7.7,10.6-7.1
		c2.2,0.7,2.1,0.9-1.8,5c-7.1,7.3-20.8,17.9-30.9,23.9c-16.3,9.5-32.6,15.7-51,19.3C264.3,415.1,236.8,416,226.7,414.6L226.7,414.6z
		"/>
	<path id="path979" class="st1" d="M392.9,304.9c-1-1.2-0.8-3.4,0.9-9.9c4.9-19.5,5.7-46.5,1.8-65.2c-12-57.5-52.9-101.4-109-117
		c-5.3-1.5-6.2-2.1-6.2-4.2c0-3.3,1-3.2,14.2,1.1c39.5,12.9,73.4,42.1,92,79.2c5.8,11.5,12.1,31.1,14.3,44.1
		c3.4,20.2,2,47.9-3.4,67.2C395.6,306.7,394.9,307.4,392.9,304.9z"/>
	<path id="path1135" class="st1" d="M94.1,297.6c-3.9-15.5-4.8-25.6-4.2-44.5c0.4-13.8,1.2-20.4,3.3-29.2
		c12.7-53.9,52.1-97,104.4-114.1c13.3-4.3,14.2-4.4,14.2-1.1c0,2.2-0.9,2.8-7.2,4.4c-46.9,12.5-86.5,49.7-102.5,96.3
		c-9.3,27-10.7,59.7-3.8,86.5c1.5,5.7,1.7,8.2,0.9,9.2C97,307.6,96.3,306.6,94.1,297.6z"/>
	<path id="path1016" class="st2" d="M226.6,407.3c-33.4-4.6-63.5-20-87.5-44.7c-5-5.1-9.3-9.3-9.7-9.3c-0.3,0-4.2,2.1-8.6,4.6
		s-8.1,4.6-8.3,4.6c-1.4,0-21.3-33.7-21.3-36.1c0-0.3,3.8-2.7,8.3-5.4s8.4-5,8.5-5c0.1-0.1-1.3-4.6-3.1-10
		c-5.4-16.6-7.3-31-6.6-51.6c0.5-14.1,1.2-20.4,3.5-28.9c9.3-35.6,27.8-63.2,56.7-84.9c15.6-11.7,39.7-22.3,58.3-25.7l7.8-1.4v-10.6
		V92.3l7.1-0.7c8.9-0.9,21.7-0.9,29.5,0l6,0.7v10.8c0,9.8,0.2,10.8,2.2,10.8c4.6,0,24.6,5.9,34.5,10.2
		c39.6,17.1,69.6,49.9,82.9,90.9c9.3,28.4,9.3,61.6,0.1,90.2c-1.9,5.8-3.3,10.6-3.2,10.7c0.1,0.1,4,2.3,8.6,5s8.3,5.1,8.3,5.4
		c0,1.7-9.2,18.5-14.6,26.7l-6.3,9.5l-8.9-4.8l-8.9-4.8l-8.5,8.9c-20.2,21.3-46.5,36.4-74.7,42.9C265,407.8,239.8,409.1,226.6,407.3
		L226.6,407.3z"/>
	<g>
		<line class="st0" x1="246.3" y1="206" x2="246" y2="90.6"/>
		<g>
			<line class="st3" x1="246.2" y1="181.3" x2="246" y2="90.6"/>
			<g>
				<polygon points="263.4,176.3 246.3,206 229.1,176.4 				"/>
			</g>
		</g>
	</g>
	<g>
		<line class="st0" x1="246.2" y1="309.6" x2="246.5" y2="405.3"/>
		<g>
			<line class="st3" x1="246.2" y1="334.3" x2="246.5" y2="405.3"/>
			<g>
				<polygon points="229.1,339.4 246.2,309.6 263.4,339.3 				"/>
			</g>
		</g>
	</g>
	<g>
		<line class="st0" x1="298.3" y1="258.9" x2="393.9" y2="258.6"/>
		<g>
			<line class="st3" x1="322.9" y1="258.8" x2="393.9" y2="258.6"/>
			<g>
				<polygon points="328,276 298.3,258.9 327.9,241.7 				"/>
			</g>
		</g>
	</g>
	<g>
		<line class="st0" x1="194.7" y1="258.8" x2="98.3" y2="259.1"/>
		<g>
			<line class="st3" x1="170" y1="258.8" x2="98.3" y2="259.1"/>
			<g>
				<polygon points="164.9,241.7 194.7,258.8 165,276 				"/>
			</g>
		</g>
	</g>
	<path id="path1055" class="st2" d="M95,300.9c-4-13.6-5.3-23.8-5.3-42.1c0-20.2,1.5-30.2,7.1-47.6c7.7-24.3,19.7-43.6,38.8-62.8
		c19.5-19.5,37.9-30.9,63-38.9c12.6-4,13.6-4.1,13.6-0.9c0,2.2-1.1,2.8-10.4,5.4c-21.3,6-43,18.5-60.1,34.5
		c-40.1,37.7-56.9,94.1-43.7,146.3c2.3,9.2,2.3,9.7,0.5,10.7C96.9,306.3,96.4,305.7,95,300.9L95,300.9z"/>
	<path id="path1094" class="st2" d="M393.2,305.3c-1.5-0.9-1.5-1.9,0.8-11.2c16.5-68.2-16.5-139-79.5-170.7
		c-8.5-4.2-20.5-8.8-29.1-10.9c-3.9-1-4.6-1.6-4.6-3.9c0-2.5,0.3-2.7,3.5-2c27.4,6,59.6,25.7,79.7,48.8
		c33.7,38.9,46.3,90.1,34.5,140.5c-1.2,5.2-2.5,9.6-2.9,9.8C395.2,306.1,394.1,305.8,393.2,305.3L393.2,305.3z"/>
	<path id="path1133" class="st2" d="M57.4,70.2"/>
	
		<path id="circle1064" inkscape:connector-curvature="0" inkscape:export-filename="C:\Users\Jesse\circle1064.png" inkscape:export-xdpi="57.251118" inkscape:export-ydpi="57.251118" d="
		M246.1,70.2c-104,0-188.6,84.6-188.6,188.6s84.6,188.6,188.6,188.6s188.6-84.6,188.6-188.6S350.1,70.2,246.1,70.2z M246.1,101.3
		c6.9,0,13.8,0.5,20.5,1.3v19.7l5.4,1c14.4,2.7,28.2,7.7,41.1,14.9l0,0c13.7,7.6,26,17.4,36.4,29.2c11.1,12.4,19.7,26.5,25.7,41.9
		l0,0l0,0c6.2,16,9.3,32.8,9.3,50.1c0,15.9-2.6,31.3-7.8,46.1l-1.8,5.2l16.4,9.5c-5.4,12.7-12.4,24.6-20.7,35.3l-16.3-9.4l-3.6,4.1
		c-11.8,13.5-26.3,24.9-42.2,32.9l0,0c-9.5,4.8-19.5,8.5-29.8,11c-10.6,2.6-21.6,3.9-32.6,3.9s-22-1.3-32.6-3.9l0,0
		c-10.3-2.5-20.3-6.2-29.8-11c-15.8-8-30.4-19.3-42.1-32.8l-3.6-4.1l-16.1,9.3c-8.4-10.7-15.4-22.6-20.7-35.3l16.1-9.4l-1.9-5.2
		c-5.2-14.8-7.9-30.3-7.9-46.2c0-17.3,3.1-34.2,9.4-50.2l0,0l0,0c6-15.5,14.6-29.6,25.7-42c10.5-11.8,22.8-21.6,36.5-29.2
		c12.9-7.1,26.7-12.1,41.2-14.8l5.4-1v-19.6C232.3,101.8,239.1,101.3,246.1,101.3L246.1,101.3z M212.3,105v6.7
		c-13.8,3.1-27.2,7.9-39.7,14.8l0,0c-15.1,8.3-28.5,19.1-40,32c-12.1,13.6-21.6,29.1-28.2,46.1c-6.8,17.5-10.3,36-10.3,55
		c0,15.5,2.7,30.6,7.2,45.2l-5,2.9c-5-15.3-7.7-31.7-7.7-48.8C88.6,183.3,141.4,120.4,212.3,105L212.3,105z M279.9,105
		c70.8,15.4,123.7,78.3,123.7,153.9c0,17-2.7,33.4-7.7,48.8l-5.3-3.1c4.5-14.6,7.2-29.6,7.2-45.1c0-18.9-3.4-37.4-10.2-54.9l0,0
		c-6.6-16.9-16-32.4-28.1-46c-11.5-12.9-24.9-23.6-39.9-32c-12.5-6.9-25.8-11.7-39.6-14.8L279.9,105L279.9,105z M356.5,362.9l5.2,3
		c-28.7,31-69.8,50.4-115.6,50.4s-86.9-19.4-115.6-50.4l4.7-2.7c12.2,13,26.5,24,42.3,31.9l0,0c10.4,5.3,21.4,9.3,32.7,12
		c11.6,2.8,23.7,4.2,35.7,4.2c12.1,0,24.1-1.4,35.7-4.2c11.3-2.7,22.3-6.8,32.8-12.1C330.2,387.1,344.4,375.9,356.5,362.9
		L356.5,362.9z"/>
</g>
<g>
	<g id="XMLID_00000029019025963007722240000006165827886934890642_">
		<g>
			<path class="st4" d="M206.5,206.1c0-0.1,0.1-0.1,0.1-0.2c0,0,0,0.1,0,0.2c0,0.2-0.1,0.3-0.1,0.5c-4.5,0-8.8,0-13.2-0.1
				c-7.1,0-14.2,0-21.3,0c-0.5,0-0.8-0.1-0.9-0.3c-0.1-0.1-0.1-0.1-0.1-0.2c-0.1-0.2-0.1-0.3-0.1-0.5c0-11.2,0-22.6,0-33.8
				c0-0.2,0.1-0.5,0.1-0.9c2,0,4,0.1,6,0.1c9.6,0.1,19.1,0,28.6,0c0.5,0,0.8,0.1,0.9,0.4c0,0.1,0,0.3,0.1,0.6c0,11.3,0,22.6-0.1,34
				C206.5,206,206.5,206,206.5,206.1z"/>
			<path class="st5" d="M269.2,239.6c4.1,5.8,5,12.1,2.9,18.9c-1.4,4.5-4.1,8.1-8.2,10.8c-5.1,3.6-10.8,4.7-16.9,3.4
				c-4.6-1-8.5-3.3-11.6-7c-3.4-4.1-5.1-8.8-5.1-14.1c0-6.8,0-13.5,0-20.3c0-0.3,0-0.7,0-1.1c2.6,0.1,5.1,0.1,7.7,0.2
				c4.9,0,9.8-0.1,14.7,0.1C259.7,230.8,265.2,233.9,269.2,239.6z"/>
			<path class="st6" d="M147.1,231.5c0,6.9,0.1,13.7,0,20.6c-0.1,7.4-3.3,13.4-9.8,17.5c-7.6,4.8-15.5,4.8-23.1,0.1
				c-6.1-3.7-9.4-9.3-9.9-16.4c-0.5-7.5,2.3-13.7,8.1-18.4c3.6-2.8,7.8-4.4,12.3-4.5c7.4-0.1,14.8,0.1,22.3,0.1
				C147,230.8,147.1,231.1,147.1,231.5z"/>
			<path class="st7" d="M272.9,122.3c1.2,7.1-1,13.3-5.6,18.2c-5,4.9-10.4,6.8-16.6,6.6c-6.3-0.1-12.7,0-19.1,0
				c-1,0-1.2-0.2-1.2-1.1c0-6.9-0.1-13.8,0-20.7c0.2-7.8,3.6-13.8,10.2-17.8c6.3-4,13.1-4.4,19.9-1.3
				C267.4,109.3,271.7,114.8,272.9,122.3z"/>
			<path class="st8" d="M147.1,146.1c0,0.3,0.1,0.7,0.2,1.1c-3.3,0-6.4,0-9.8,0.1c-3.8-0.1-7.8-0.1-11.7-0.1
				c-10.5,0-19.5-7.4-21.3-17.7c-1.2-6.6,0.4-12.5,4.8-17.7c6.8-7.9,18.5-9.5,26.9-4.5c6.1,3.5,9.6,8.8,10.6,15.7
				c0.1,0.9,0.2,1.8,0.2,2.8C147.1,132.6,147.1,139.3,147.1,146.1z"/>
			<path class="st9" d="M296.7,246.5c1.4,13.6-2.5,25.7-11.6,35.8c-5.8,6.5-13.1,10.9-21.5,13.1c-11.4,3-22.5,1.9-33-3.6
				c-10.6-5.6-17.9-14.2-21.9-25.7c-1.7-4.9-2.4-9.9-2.4-15.1c0-6.5,0-13.1,0-19.6c0.1-0.2,0.1-0.5,0.1-0.9c-11.9,0-23.6,0-35.5-0.1
				c0.1,0.3,0.2,0.6,0.2,0.9c0,7.1,0.1,14.2-0.1,21.3c-0.2,11.1-4.2,20.9-11.6,29.1c-5.3,5.9-11.8,10.2-19.4,12.7
				c-11.2,3.6-22.2,3.1-32.9-1.6c-6.2-2.7-11.5-6.7-15.9-11.9c-6.8-8-10.5-17.3-10.8-27.8c-0.4-12.5,3.7-23.4,12.1-32.6
				c6.1-6.6,13.5-10.9,22.3-13.1c5.1-1.3,10.3-1.4,15.6-1.3c5.2,0,10.4,0,15.6,0c0.3,0,0.6-0.1,0.8,0c0-11.8,0-23.4,0-35.2
				c-3.2,0-6.5,0.1-9.8,0.1c-5.1-0.1-10.3,0.1-15.3-0.3c-7.6-0.5-14.6-2.9-20.9-7.3c-12.4-8.5-19.4-20.3-20.3-35.4
				c-0.8-13.6,3.9-25.3,13.5-34.9c5.7-5.7,12.6-9.6,20.5-11.6c10.8-2.7,21.5-1.8,31.4,3.4c15.8,8.3,24.3,21.5,25.1,39.4
				c0.3,7.1,0.1,14.3,0.1,21.4c0,0.3-0.1,0.6-0.1,0.8c11.8,0,23.4,0,35.4,0c-0.1-0.2-0.2-0.5-0.2-0.8c0-7.1-0.1-14.2,0.1-21.3
				c0.2-9.8,3.4-18.5,9.2-26.3c3.2-4.3,7.2-8,11.8-10.8c6.1-3.8,12.7-6.2,19.9-6.8c8.9-0.8,17.3,0.7,25.2,4.8
				c11,5.7,18.6,14.4,22.3,26.2c5.1,16.2,2.1,31-8.9,43.9c-6.3,7.5-14.6,12.3-24.2,14.5c-4.8,1.1-9.5,1.1-14.4,1.1
				c-5.3,0-10.7,0-16-0.1c-0.3,0-0.5,0-0.8,0c0,11.7,0,23.4,0,35.2c0.2,0,0.5,0.1,0.7,0.1c7.3,0,14.6-0.1,21.9,0.1
				c7.3,0.2,14.2,2.1,20.5,5.6c5.1,2.8,9.5,6.4,13.1,11C292.4,229.8,295.8,237.6,296.7,246.5z M267.3,140.5
				c4.6-4.9,6.8-11.1,5.6-18.2c-1.2-7.5-5.5-13-12.4-16.1c-6.8-3.1-13.6-2.7-19.9,1.3c-6.6,4-10,10-10.2,17.8
				c-0.1,6.9,0,13.8,0,20.7c0,0.9,0.2,1.1,1.2,1.1c6.4,0,12.8-0.1,19.1,0C256.9,147.3,262.3,145.4,267.3,140.5z M272.1,258.5
				c2.1-6.8,1.2-13.1-2.9-18.9c-4-5.7-9.5-8.8-16.5-9.1c-4.9-0.2-9.8-0.1-14.7-0.1c-2.6-0.1-5.1-0.1-7.7-0.2c0,0.4,0,0.8,0,1.1
				c0,6.8,0,13.5,0,20.3c0,5.3,1.7,10,5.1,14.1c3.1,3.7,7,6,11.6,7c6.1,1.3,11.8,0.2,16.9-3.4C268,266.6,270.7,263,272.1,258.5z
				 M206.6,206.1c0-0.1,0-0.2,0-0.2c0-11.3,0-22.7,0-34c0-0.3,0-0.5-0.1-0.6c-0.1-0.3-0.4-0.4-0.9-0.4c-9.5,0-19,0.1-28.6,0
				c-2,0-4-0.1-6-0.1c0,0.4-0.1,0.7-0.1,0.9c0,11.2,0,22.6,0,33.8c0,0.2,0,0.3,0.1,0.5c0,0.1,0,0.1,0.1,0.2c0.1,0.3,0.4,0.4,0.9,0.4
				c7.1,0,14.2,0,21.3,0c4.4,0,8.7,0,13.2,0C206.5,206.4,206.6,206.3,206.6,206.1z M147.1,252.1c0.1-6.9,0-13.7,0-20.6
				c0-0.4-0.1-0.7-0.1-1c-7.5,0-14.9-0.2-22.3-0.1c-4.5,0.1-8.7,1.7-12.3,4.5c-5.8,4.7-8.6,10.9-8.1,18.4c0.5,7.1,3.8,12.7,9.9,16.4
				c7.6,4.7,15.5,4.7,23.1-0.1C143.8,265.5,147,259.5,147.1,252.1z M147.3,147.2c-0.1-0.4-0.2-0.8-0.2-1.1c0-6.8,0-13.5-0.1-20.3
				c0-1-0.1-1.9-0.2-2.8c-1-6.9-4.5-12.2-10.6-15.7c-8.4-5-20.1-3.4-26.9,4.5c-4.4,5.2-6,11.1-4.8,17.7
				c1.8,10.3,10.8,17.7,21.3,17.7c3.9,0,7.9,0,11.7,0.1C140.9,147.2,144,147.2,147.3,147.2z"/>
			<path class="st4" d="M206.6,171.9c-0.1-0.3-0.1-0.5-0.1-0.6C206.6,171.4,206.6,171.6,206.6,171.9z"/>
			<path class="st4" d="M206.6,205.9c0,0.1-0.1,0.1-0.1,0.2c0-0.1,0-0.1,0-0.2c0.1-11.4,0.1-22.7,0.1-34
				C206.6,183.2,206.6,194.6,206.6,205.9z"/>
			<path class="st4" d="M193.3,206.5c4.4,0.1,8.7,0.1,13.2,0.1c-4.5,0-8.8,0-13.2,0c-7.1,0-14.2,0-21.3,0c-0.5,0-0.8-0.1-0.9-0.4
				c0.1,0.2,0.4,0.3,0.9,0.3C179.1,206.5,186.2,206.5,193.3,206.5z"/>
		</g>
		<g>
		</g>
	</g>
</g>
</svg>
