<?xml version="1.0" encoding="UTF-8" standalone="no"?>
<svg
   xmlns:dc="http://purl.org/dc/elements/1.1/"
   xmlns:cc="http://creativecommons.org/ns#"
   xmlns:rdf="http://www.w3.org/1999/02/22-rdf-syntax-ns#"
   xmlns:svg="http://www.w3.org/2000/svg"
   xmlns="http://www.w3.org/2000/svg"
   id="svg9950"
   version="1.1"
   viewBox="0 0 133.09781 133.09781"
   height="133.09781mm"
   width="133.09781mm">
  <defs
     id="defs9944">
    <clipPath
       id="artboard_clip_path">
      <path
         id="path886"
         d="M 58.5 72 L 306 72 L 306 374.60196 L 306 400.5 L 58.5 400.5 Z" />
    </clipPath>
    <clipPath
       id="inner_stroke_clip_path">
      <path
         id="path889"
         d="M 149.34863 77.34766 C 146.73953 80.081 143.50923 82.56585 142.2668 83.06282 C 141.02437 83.43555 139.53346 85.79616 138.66376 88.90222 C 134.81224 103.93558 133.19709 108.15983 131.70618 107.53862 C 129.7183 106.79316 120.15161 92.38102 116.30009 84.42949 C 114.68493 81.19918 113.06978 78.59009 112.57281 78.59009 C 111.0819 78.59009 116.17585 95.48708 119.65464 102.56891 C 121.39404 106.17195 124.87283 111.01741 127.23344 113.62651 C 130.71223 117.22954 131.95466 119.7144 133.19709 126.67198 C 135.80618 140.58716 139.40922 153.13566 143.75771 163.07508 C 150.46681 178.6054 162.14562 208.79636 163.01532 212.77213 C 164.38199 218.86002 161.15168 217.49335 146.61529 205.31757 C 132.70012 193.63876 127.73041 188.17209 121.39404 177.1145 C 118.03949 171.27509 117.66676 169.5357 117.66676 159.84477 C 117.66676 141.20837 112.20008 126.05077 104.00007 122.19925 C 98.65764 119.7144 94.93036 112.63257 92.81823 100.45679 C 91.94853 95.61133 90.83035 90.76586 90.33338 89.77192 C 88.71822 86.7901 87.4758 96.23254 88.09701 107.66286 C 88.59398 116.60833 89.09095 118.47197 92.19702 122.32349 C 94.1849 124.80834 97.78794 128.03865 100.27279 129.40532 C 106.48492 132.88412 109.21826 140.33867 109.3425 153.2599 C 109.3425 158.60234 109.09402 163.32356 108.72129 163.69629 C 107.10613 165.31144 99.03036 162.5781 94.68187 158.97507 C 88.59398 154.00536 82.87882 142.07807 82.87882 134.12654 C 82.87882 130.89623 82.38185 128.28714 81.76064 128.28714 C 79.15154 128.28714 78.28184 144.31444 80.51821 152.51445 C 83.00306 161.58416 92.94247 172.26903 100.27279 173.75994 C 108.10008 175.3751 111.20614 178.10843 115.92736 187.79936 C 120.77282 197.61453 123.00919 200.09938 152.82742 228.92367 C 165.8729 241.47218 169.84866 246.56612 169.84866 250.66613 C 169.84866 252.77826 167.86078 253.15098 166.7426 251.28734 C 165.50017 249.17522 151.33651 242.34187 141.27286 238.98732 L 132.0789 235.75702 L 128.8486 228.05397 C 125.61829 220.35093 123.38192 217.3691 114.68493 209.1691 C 111.57887 206.3115 109.46674 202.70848 108.10008 197.98725 L 105.98795 191.02967 L 104.86977 195.75089 C 102.88188 203.9509 104.74552 208.9206 112.20008 216.12668 C 115.92736 219.60547 120.02737 224.9479 121.39404 227.92973 C 123.75465 233.27216 123.75465 233.27216 121.39404 233.6449 C 117.04554 234.39035 105.36674 228.05397 98.53339 221.22063 C 88.3455 211.03273 81.88488 194.6327 80.02124 174.25691 L 79.64851 169.90842 L 77.412145 174.87813 C 75.30002 179.35086 75.17578 180.96601 76.54245 191.4024 C 77.66063 200.4721 78.90306 204.8206 82.75458 212.52364 C 87.84853 222.71154 98.40915 234.14186 106.48492 238.24187 C 112.20008 241.09945 112.32432 241.2237 110.2122 242.59036 C 106.60916 244.95097 93.81217 243.95703 87.22731 240.85096 C 80.14548 237.62065 70.82729 228.17821 66.60304 220.10244 C 63.12424 213.51758 62.00606 216.00244 64.24243 225.07215 C 68.34243 241.47218 85.48792 255.01462 102.50916 255.01462 C 106.73341 255.01462 112.32432 254.14492 114.80918 253.15098 C 117.41827 252.0328 123.13343 251.28734 128.72435 251.28734 C 136.55164 251.28734 139.40922 251.90856 145.62135 254.89038 C 152.82742 258.24493 164.87896 267.8116 163.63653 269.05404 C 163.2638 269.42677 158.04561 269.05404 151.83348 268.43283 C 136.30315 266.5692 119.40615 269.30253 112.57281 274.89344 C 109.96371 277.00557 106.60916 279.1177 104.99401 279.7389 C 100.64552 281.35406 94.43339 279.24194 89.09095 274.39647 C 83.50003 269.42677 83.62428 269.42677 76.04548 271.2904 C 69.21213 273.0298 63 278.8692 63 283.71467 C 63 288.1874 63.745456 288.1874 69.21213 283.59043 C 75.051535 278.49648 79.77276 278.74497 86.73034 284.0874 C 97.41521 292.2874 105.2425 292.41166 117.16979 284.21164 C 122.51222 280.48436 125.24556 279.61466 134.19103 278.49648 C 140.03043 277.62678 146.73953 277.3783 149.10014 277.87527 C 155.18803 278.99345 163.13956 285.20558 166.12138 291.045 C 168.60624 295.89045 168.73048 297.87833 168.35775 327.57232 C 168.35775 327.57232 170.15927 354.09812 166.19904 361.31972 C 162.2388 368.54133 155.31228 373.7906 149.96984 375.033 C 139.40922 377.51786 136.92437 378.5118 133.19709 382.11484 C 128.97284 386.21484 124.37586 397.27244 126.36374 398.51486 C 126.98496 398.8876 127.9789 398.14213 128.72435 396.8997 C 130.83648 392.92394 139.16073 388.20272 146.49105 386.83606 C 150.46681 386.0906 155.31228 384.72393 157.30016 383.60575 C 162.26986 381.1209 162.6426 381.24514 160.9032 384.84817 C 159.53652 387.95424 158.66683 388.32697 151.585 389.8179 C 147.98196 390.56333 142.51528 395.4088 142.51528 398.0179 C 142.51528 399.63305 161.5244 397.7694 164.75472 395.78152 C 166.36987 394.7876 169.1032 390.56333 170.8426 386.58757 C 174.69413 377.6421 177.30322 376.89664 177.30322 384.84817 C 177.30322 391.6815 180.1608 399.13608 182.7699 399.13608 C 185.00626 399.13608 187.24263 391.93 187.24263 384.47545 C 187.24263 381.61786 187.86385 379.25725 188.48506 379.25725 C 189.23051 379.25725 191.46688 382.8603 193.33052 387.2088 C 198.17598 397.7694 200.41235 399.13608 212.33964 399.13608 C 217.68208 399.13608 222.03057 398.6391 222.03057 398.0179 C 222.03057 395.6573 214.32753 390.4391 210.84873 390.4391 C 208.48812 390.4391 206.376 389.3209 204.76084 387.08454 C 203.26993 385.34514 202.276 383.60575 202.52448 383.35726 C 202.77296 383.10878 205.5063 384.1027 208.48812 385.4694 C 211.46995 386.83606 215.56995 387.95424 217.4336 387.95424 C 222.27905 387.95424 228.2427 390.6876 233.4609 395.28455 C 235.94574 397.3967 238.1821 399.13608 238.55484 399.13608 C 238.92757 399.13608 238.4306 396.527 237.3124 393.17243 C 234.0821 383.4815 228.8639 379.133 217.1851 376.64816 C 208.9851 374.90876 201.90326 369.56633 198.5487 362.85723 C 196.06386 357.63904 195.93962 355.40267 195.93962 326.20565 C 195.93962 326.20565 194.8525 298.65485 196.71613 295.02075 C 198.57977 291.38665 200.03962 289.55407 200.03962 289.55407 C 202.276 286.6965 206.376 282.9692 208.9851 281.35406 C 213.58207 278.74497 214.94874 278.49648 225.6336 279.24194 C 237.80938 279.9874 243.4003 281.85103 251.72456 287.93892 C 257.9367 292.41166 266.88216 292.2874 274.46096 287.44195 C 277.56703 285.45407 280.54885 283.2177 280.92158 282.47224 C 282.7852 279.61466 291.10947 280.98133 296.07918 284.9571 C 300.92464 288.80862 300.92464 288.80862 301.29737 285.95104 C 302.2913 279.7389 295.20948 273.2783 285.89128 271.66314 C 281.41855 271.04192 280.30036 271.41465 276.5731 274.5207 C 267.2549 282.72073 261.41548 283.2177 253.3397 276.7571 C 247.12758 271.91162 247.25182 271.91162 233.58513 269.7995 C 226.13058 268.6813 220.53966 268.55707 212.46389 269.551 C 206.50024 270.17222 201.28205 270.54495 201.03356 270.29647 C 199.6669 269.17828 209.6063 260.85403 216.93662 257.12675 C 228.11846 251.28734 237.68514 250.2934 247.99728 253.7722 C 252.0973 255.13887 258.5579 256.25705 262.28518 256.25705 C 278.31248 256.25705 295.8307 242.7146 300.1792 226.81155 C 302.91252 217.12062 301.0489 212.52364 297.81857 221.09638 C 295.33372 228.05397 282.4125 240.47824 274.95793 242.9631 C 266.50943 245.82067 253.09123 245.57218 253.09123 242.46612 C 253.09123 241.96915 255.20335 240.47824 257.81245 239.2358 C 265.88822 235.50853 277.56703 222.71154 282.4125 212.27516 C 287.63068 200.84484 289.9913 186.05996 288.0034 178.23268 C 285.76704 170.4054 284.5246 171.0266 283.6549 180.46904 C 282.66097 192.2721 278.064 205.93878 272.34883 214.51153 C 265.5155 224.82366 250.9791 235.1358 243.27606 235.1358 C 238.80332 235.1358 243.4003 225.8176 251.72456 217.74183 C 259.55184 210.28728 260.79427 206.93272 259.4276 197.86301 L 258.43366 192.2721 L 256.8185 198.48423 C 255.45184 203.45393 253.5882 206.3115 247.00334 212.77213 C 240.66696 219.1085 238.05787 222.71154 235.69726 228.92367 L 232.5912 236.99944 L 222.65178 240.22975 C 213.83056 243.08733 206.87297 246.31764 198.67295 251.4116 C 195.06992 253.64795 194.20022 252.2813 195.81537 247.31158 C 196.80931 244.454 203.89114 236.99944 218.42753 223.33275 C 239.3003 203.70242 245.38818 196.49634 250.3579 185.19026 C 252.96698 179.10237 252.96698 179.10237 266.50943 173.51146 C 273.59126 170.65388 282.28825 160.71447 284.02764 153.63264 C 286.264 144.93565 285.3943 129.52956 282.7852 129.52956 C 282.164 129.52956 281.66703 132.01442 281.66703 135.12048 C 281.66703 142.07807 275.57914 155.49627 270.36095 159.84477 C 265.88822 163.69629 258.06093 166.0569 256.32154 164.3175 C 254.2094 162.20538 254.95487 145.18414 257.31548 138.972 C 258.93063 134.74776 260.79427 132.63563 264.3973 130.5235 C 267.13064 129.0326 270.98217 125.30532 272.97005 122.19925 C 276.3246 117.1053 276.69733 115.86288 276.5731 106.66892 C 276.44884 95.85981 275.2064 88.40525 273.964 90.39314 C 273.59126 91.01435 272.59732 95.85981 271.72762 100.95376 C 269.6155 113.37802 265.5155 121.57804 259.92457 123.8144 C 252.22153 127.04471 247.00334 141.82959 246.8791 160.8387 C 246.8791 171.39933 246.75485 172.02054 241.6609 180.59329 C 235.32453 191.02967 231.22452 195.25392 211.96692 211.03273 C 203.51842 217.86608 200.90932 219.1085 200.90932 216.00244 C 200.90932 214.01455 216.81238 171.64782 218.3033 169.90842 C 221.16087 166.42963 231.84574 130.39926 231.96998 124.31137 C 231.96998 122.19925 233.83362 118.72046 237.18817 114.99318 C 240.04575 111.76287 243.6488 106.17195 245.26394 102.56891 C 248.6185 95.36284 253.21547 79.83251 251.97304 79.83251 C 251.60032 79.83251 248.86698 84.30525 245.88515 89.64768 C 240.54272 99.3386 233.83362 108.40832 232.09422 108.40832 C 231.10028 108.40832 228.61543 100.95376 225.75785 90.02041 C 225.0124 87.03858 223.39724 84.30525 222.27905 83.93252 C 221.16087 83.55979 217.80632 80.9507 214.94874 78.21736 C 211.96692 75.35978 209.6063 73.86887 209.6063 74.73856 C 209.6063 76.6022 215.32147 86.7901 218.3033 90.39314 C 220.78814 93.37496 224.51542 111.76287 224.51542 121.20531 C 224.51542 128.03865 221.78208 137.60534 217.1851 146.30232 C 215.6942 148.91142 214.576 151.89324 214.576 152.76294 C 214.576 156.11749 207.99115 170.52963 206.50024 170.52963 C 204.6366 170.52963 195.44265 157.11143 189.97597 146.17808 L 186.2487 138.72352 L 190.47294 123.31743 C 194.94568 106.79316 197.80326 82.31736 194.94568 84.05676 C 194.07598 84.55373 193.45476 85.9204 193.45476 87.16283 C 193.45476 92.50526 182.11762 126.81176 182.11762 126.81176 C 182.11762 126.81176 178.54565 117.1053 173.57594 97.84769 C 171.46382 89.77192 169.47594 82.81434 169.22745 82.44161 C 168.10927 81.44767 168.60624 96.48102 169.84866 104.68104 C 170.59412 109.15377 172.83049 118.47197 174.94261 125.5538 L 178.6699 138.22655 L 171.96079 149.78111 C 163.2638 164.69023 159.53652 170.4054 158.2941 170.52963 C 156.92743 170.52963 149.96984 155.12355 149.96984 152.26597 C 149.96984 151.02354 148.72742 147.79323 147.36075 145.0599 C 142.88801 136.73564 140.03043 127.04471 140.03043 119.96288 C 140.03043 110.52044 143.75771 92.13253 146.24256 89.15071 C 149.59711 85.17495 155.18803 74.86281 154.69106 73.49614 C 154.44258 72.874925 152.08197 74.49008 149.34863 77.34766 Z M 186.99415 156.7387 C 189.23051 160.71447 192.9578 167.29932 195.3184 171.27509 C 200.78508 180.3448 200.78508 183.8236 195.44265 201.09332 C 191.2184 215.0085 185.379 226.43882 182.64565 226.43882 C 179.66383 226.43882 173.57594 214.76 169.22745 200.84484 C 163.13956 181.46298 163.2638 180.09632 173.07897 163.32356 C 177.67595 155.74476 182.11762 148.47657 182.11762 148.47657 C 182.11762 148.47657 184.75778 152.76294 186.99415 156.7387 Z" />
    </clipPath>
    <clipPath
       id="artboard_clip_path-0">
      <path
         id="path886-0"
         d="M 58.5,72 H 306 V 374.60196 400.5 H 58.5 Z" />
    </clipPath>
    <clipPath
       id="inner_stroke_clip_path-6">
      <path
         id="path889-5"
         d="m 149.34863,77.34766 c -2.6091,2.73334 -5.8394,5.21819 -7.08183,5.71516 -1.24243,0.37273 -2.73334,2.73334 -3.60304,5.8394 -3.85152,15.03336 -5.46667,19.25761 -6.95758,18.6364 -1.98788,-0.74546 -11.55457,-15.1576 -15.40609,-23.10913 -1.61516,-3.23031 -3.23031,-5.8394 -3.72728,-5.8394 -1.49091,0 3.60304,16.89699 7.08183,23.97882 1.7394,3.60304 5.21819,8.4485 7.5788,11.0576 3.47879,3.60303 4.72122,6.08789 5.96365,13.04547 2.60909,13.91518 6.21213,26.46368 10.56062,36.4031 6.7091,15.53032 18.38791,45.72128 19.25761,49.69705 1.36667,6.08789 -1.86364,4.72122 -16.40003,-7.45456 -13.91517,-11.67881 -18.88488,-17.14548 -25.22125,-28.20307 -3.35455,-5.83941 -3.72728,-7.5788 -3.72728,-17.26973 0,-18.6364 -5.46668,-33.794 -13.66669,-37.64552 -5.34243,-2.48485 -9.06971,-9.56668 -11.18184,-21.74246 -0.8697,-4.84546 -1.98788,-9.69093 -2.48485,-10.68487 -1.61516,-2.98182 -2.85758,6.46062 -2.23637,17.89094 0.49697,8.94547 0.99394,10.80911 4.10001,14.66063 1.98788,2.48485 5.59092,5.71516 8.07577,7.08183 6.21213,3.4788 8.94547,10.93335 9.06971,23.85458 0,5.34244 -0.24848,10.06366 -0.62121,10.43639 -1.61516,1.61515 -9.69093,-1.11819 -14.03942,-4.72122 -6.08789,-4.96971 -11.80305,-16.897 -11.80305,-24.84853 0,-3.23031 -0.49697,-5.8394 -1.11818,-5.8394 -2.6091,0 -3.4788,16.0273 -1.24243,24.22731 2.48485,9.06971 12.42426,19.75458 19.75458,21.24549 7.82729,1.61516 10.93335,4.34849 15.65457,14.03942 4.84546,9.81517 7.08183,12.30002 36.90006,41.12431 13.04548,12.54851 17.02124,17.64245 17.02124,21.74246 0,2.11213 -1.98788,2.48485 -3.10606,0.62121 -1.24243,-2.11212 -15.40609,-8.94547 -25.46974,-12.30002 l -9.19396,-3.2303 -3.2303,-7.70305 c -3.23031,-7.70304 -5.46668,-10.68487 -14.16367,-18.88487 -3.10606,-2.8576 -5.21819,-6.46062 -6.58485,-11.18185 l -2.11213,-6.95758 -1.11818,4.72122 c -1.98789,8.20001 -0.12425,13.16971 7.33031,20.37579 3.72728,3.47879 7.82729,8.82122 9.19396,11.80305 2.36061,5.34243 2.36061,5.34243 0,5.71517 -4.3485,0.74545 -16.0273,-5.59093 -22.86065,-12.42427 C 88.3455,211.03273 81.88488,194.6327 80.02124,174.25691 l -0.37273,-4.34849 -2.236365,4.96971 c -2.112125,4.47273 -2.236365,6.08788 -0.869695,16.52427 1.11818,9.0697 2.36061,13.4182 6.21213,21.12124 5.09395,10.1879 15.65457,21.61822 23.73034,25.71823 5.71516,2.85758 5.8394,2.98183 3.72728,4.34849 -3.60304,2.36061 -16.40003,1.36667 -22.98489,-1.7394 -7.08183,-3.23031 -16.40002,-12.67275 -20.62427,-20.74852 -3.4788,-6.58486 -4.59698,-4.1 -2.36061,4.96971 4.1,16.40003 21.24549,29.94247 38.26673,29.94247 4.22425,0 9.81516,-0.8697 12.30002,-1.86364 2.60909,-1.11818 8.32425,-1.86364 13.91517,-1.86364 7.82729,0 10.68487,0.62122 16.897,3.60304 7.20607,3.35455 19.25761,12.92122 18.01518,14.16366 -0.37273,0.37273 -5.59092,0 -11.80305,-0.62121 -15.53033,-1.86363 -32.42733,0.8697 -39.26067,6.46061 -2.6091,2.11213 -5.96365,4.22426 -7.5788,4.84546 -4.34849,1.61516 -10.56062,-0.49696 -15.90306,-5.34243 -5.59092,-4.9697 -5.46667,-4.9697 -13.04547,-3.10607 C 69.21213,273.0298 63,278.8692 63,283.71467 c 0,4.47273 0.745456,4.47273 6.21213,-0.12424 5.839405,-5.09395 10.56063,-4.84546 17.51821,0.49697 10.68487,8.2 18.51216,8.32426 30.43945,0.12424 5.34243,-3.72728 8.07577,-4.59698 17.02124,-5.71516 5.8394,-0.8697 12.5485,-1.11818 14.90911,-0.62121 6.08789,1.11818 14.03942,7.33031 17.02124,13.16973 2.48486,4.84545 2.6091,6.83333 2.23637,36.52732 0,0 1.80152,26.5258 -2.15871,33.7474 -3.96024,7.22161 -10.88676,12.47088 -16.2292,13.71328 -10.56062,2.48486 -13.04547,3.4788 -16.77275,7.08184 -4.22425,4.1 -8.82123,15.1576 -6.83335,16.40002 0.62122,0.37274 1.61516,-0.37273 2.36061,-1.61516 2.11213,-3.97576 10.43638,-8.69698 17.7667,-10.06364 3.97576,-0.74546 8.82123,-2.11213 10.80911,-3.23031 4.9697,-2.48485 5.34244,-2.36061 3.60304,1.24242 -1.36668,3.10607 -2.23637,3.4788 -9.3182,4.96973 -3.60304,0.74543 -9.06972,5.5909 -9.06972,8.2 0,1.61515 19.00912,-0.2485 22.23944,-2.23638 1.61515,-0.99392 4.34848,-5.21819 6.08788,-9.19395 3.85153,-8.94547 6.46062,-9.69093 6.46062,-1.7394 0,6.83333 2.85758,14.28791 5.46668,14.28791 2.23636,0 4.47273,-7.20608 4.47273,-14.66063 0,-2.85759 0.62122,-5.2182 1.24243,-5.2182 0.74545,0 2.98182,3.60305 4.84546,7.95155 4.84546,10.5606 7.08183,11.92728 19.00912,11.92728 5.34244,0 9.69093,-0.49698 9.69093,-1.11818 0,-2.3606 -7.70304,-7.5788 -11.18184,-7.5788 -2.36061,0 -4.47273,-1.1182 -6.08789,-3.35456 -1.49091,-1.7394 -2.48484,-3.47879 -2.23636,-3.72728 0.24848,-0.24848 2.98182,0.74544 5.96364,2.11214 2.98183,1.36666 7.08183,2.48484 8.94548,2.48484 4.84545,0 10.8091,2.73336 16.0273,7.33031 2.48484,2.11215 4.7212,3.85153 5.09394,3.85153 0.37273,0 -0.12424,-2.60908 -1.24244,-5.96365 -3.2303,-9.69093 -8.4485,-14.03943 -20.1273,-16.52427 -8.2,-1.7394 -15.28184,-7.08183 -18.6364,-13.79093 -2.48484,-5.21819 -2.60908,-7.45456 -2.60908,-36.65158 0,0 -1.08712,-27.5508 0.77651,-31.1849 1.86364,-3.6341 3.32349,-5.46668 3.32349,-5.46668 2.23638,-2.85757 6.33638,-6.58487 8.94548,-8.20001 4.59697,-2.60909 5.96364,-2.85758 16.6485,-2.11212 12.17578,0.74546 17.7667,2.60909 26.09096,8.69698 6.21214,4.47274 15.1576,4.34848 22.7364,-0.49697 3.10607,-1.98788 6.08789,-4.22425 6.46062,-4.96971 1.86362,-2.85758 10.18789,-1.49091 15.1576,2.48486 4.84546,3.85152 4.84546,3.85152 5.21819,0.99394 0.99393,-6.21214 -6.08789,-12.67274 -15.40609,-14.2879 -4.47273,-0.62122 -5.59092,-0.24849 -9.31818,2.85756 -9.3182,8.20003 -15.15762,8.697 -23.2334,2.2364 -6.21212,-4.84548 -6.08788,-4.84548 -19.75457,-6.9576 -7.45455,-1.1182 -13.04547,-1.24243 -21.12124,-0.2485 -5.96365,0.62122 -11.18184,0.99395 -11.43033,0.74547 -1.36666,-1.11819 8.57274,-9.44244 15.90306,-13.16972 11.18184,-5.83941 20.74852,-6.83335 31.06066,-3.35455 4.10002,1.36667 10.56062,2.48485 14.2879,2.48485 16.0273,0 33.54552,-13.54245 37.89402,-29.4455 2.73332,-9.69093 0.8697,-14.28791 -2.36063,-5.71517 -2.48485,6.95759 -15.40607,19.38186 -22.86064,21.86672 -8.4485,2.85757 -21.8667,2.60908 -21.8667,-0.49698 0,-0.49697 2.11212,-1.98788 4.72122,-3.23032 8.07577,-3.72727 19.75458,-16.52426 24.60005,-26.96064 5.21818,-11.43032 7.5788,-26.2152 5.5909,-34.04248 -2.23636,-7.82728 -3.4788,-7.20608 -4.3485,2.23636 -0.99393,11.80306 -5.5909,25.46974 -11.30607,34.04249 -6.83333,10.31213 -21.36973,20.62427 -29.07277,20.62427 -4.47274,0 0.12424,-9.3182 8.4485,-17.39397 7.82728,-7.45455 9.06971,-10.80911 7.70304,-19.87882 l -0.99394,-5.59091 -1.61516,6.21213 c -1.36666,4.9697 -3.2303,7.82727 -9.81516,14.2879 -6.33638,6.33637 -8.94547,9.93941 -11.30608,16.15154 l -3.10606,8.07577 -9.93942,3.23031 c -8.82122,2.85758 -15.77881,6.08789 -23.97883,11.18185 -3.60303,2.23635 -4.47273,0.8697 -2.85758,-4.10002 0.99394,-2.85758 8.07577,-10.31214 22.61216,-23.97883 20.87277,-19.63033 26.96065,-26.83641 31.93037,-38.14249 2.60908,-6.08789 2.60908,-6.08789 16.15153,-11.6788 7.08183,-2.85758 15.77882,-12.79699 17.51821,-19.87882 2.23636,-8.69699 1.36666,-24.10308 -1.24244,-24.10308 -0.6212,0 -1.11817,2.48486 -1.11817,5.59092 0,6.95759 -6.08789,20.37579 -11.30608,24.72429 -4.47273,3.85152 -12.30002,6.21213 -14.03941,4.47273 -2.11214,-2.11212 -1.36667,-19.13336 0.99394,-25.3455 1.61515,-4.22424 3.47879,-6.33637 7.08182,-8.4485 2.73334,-1.4909 6.58487,-5.21818 8.57275,-8.32425 3.35455,-5.09395 3.72728,-6.33637 3.60305,-15.53033 -0.12426,-10.80911 -1.3667,-18.26367 -2.6091,-16.27578 -0.37274,0.62121 -1.36668,5.46667 -2.23638,10.56062 -2.11212,12.42426 -6.21212,20.62428 -11.80305,22.86064 -7.70304,3.23031 -12.92123,18.01519 -13.04547,37.0243 0,10.56063 -0.12425,11.18184 -5.2182,19.75459 -6.33637,10.43638 -10.43638,14.66063 -29.69398,30.43944 -8.4485,6.83335 -11.0576,8.07577 -11.0576,4.96971 0,-1.98789 15.90306,-44.35462 17.39398,-46.09402 2.85757,-3.47879 13.54244,-39.50916 13.66668,-45.59705 0,-2.11212 1.86364,-5.59091 5.21819,-9.31819 2.85758,-3.23031 6.46063,-8.82123 8.07577,-12.42427 3.35456,-7.20607 7.95153,-22.7364 6.7091,-22.7364 -0.37272,0 -3.10606,4.47274 -6.08789,9.81517 -5.34243,9.69092 -12.05153,18.76064 -13.79093,18.76064 -0.99394,0 -3.47879,-7.45456 -6.33637,-18.38791 -0.74545,-2.98183 -2.36061,-5.71516 -3.4788,-6.08789 -1.11818,-0.37273 -4.47273,-2.98182 -7.33031,-5.71516 -2.98182,-2.85758 -5.34244,-4.34849 -5.34244,-3.4788 0,1.86364 5.71517,12.05154 8.697,15.65458 2.48484,2.98182 6.21212,21.36973 6.21212,30.81217 0,6.83334 -2.73334,16.40003 -7.33032,25.09701 -1.4909,2.6091 -2.6091,5.59092 -2.6091,6.46062 0,3.35455 -6.58485,17.76669 -8.07576,17.76669 -1.86364,0 -11.05759,-13.4182 -16.52427,-24.35155 l -3.72727,-7.45456 4.22424,-15.40609 c 4.47274,-16.52427 7.33032,-41.00007 4.47274,-39.26067 -0.8697,0.49697 -1.49092,1.86364 -1.49092,3.10607 0,5.34243 -11.33714,39.64893 -11.33714,39.64893 0,0 -3.57197,-9.70646 -8.54168,-28.96407 -2.11212,-8.07577 -4.1,-15.03335 -4.34849,-15.40608 -1.11818,-0.99394 -0.62121,14.03941 0.62121,22.23943 0.74546,4.47273 2.98183,13.79093 5.09395,20.87276 l 3.72729,12.67275 -6.70911,11.55456 c -8.69699,14.90912 -12.42427,20.62429 -13.66669,20.74852 -1.36667,0 -8.32426,-15.40608 -8.32426,-18.26366 0,-1.24243 -1.24242,-4.47274 -2.60909,-7.20607 -4.47274,-8.32426 -7.33032,-18.01519 -7.33032,-25.09702 0,-9.44244 3.72728,-27.83035 6.21213,-30.81217 3.35455,-3.97576 8.94547,-14.2879 8.4485,-15.65457 -0.24848,-0.621215 -2.60909,0.99394 -5.34243,3.85152 z m 37.64552,79.39104 c 2.23636,3.97577 5.96365,10.56062 8.32425,14.53639 5.46668,9.06971 5.46668,12.54851 0.12425,29.81823 -4.22425,13.91518 -10.06365,25.3455 -12.797,25.3455 -2.98182,0 -9.06971,-11.67882 -13.4182,-25.59398 -6.08789,-19.38186 -5.96365,-20.74852 3.85152,-37.52128 4.59698,-7.5788 9.03865,-14.84699 9.03865,-14.84699 0,0 2.64016,4.28637 4.87653,8.26213 z" />
    </clipPath>
    <clipPath
       id="artboard_clip_path-0-1">
      <path
         id="path886-0-0"
         d="M 58.5,72 H 306 V 374.60196 400.5 H 58.5 Z" />
    </clipPath>
    <clipPath
       id="inner_stroke_clip_path-6-3">
      <path
         id="path889-5-4"
         d="m 149.34863,77.34766 c -2.6091,2.73334 -5.8394,5.21819 -7.08183,5.71516 -1.24243,0.37273 -2.73334,2.73334 -3.60304,5.8394 -3.85152,15.03336 -5.46667,19.25761 -6.95758,18.6364 -1.98788,-0.74546 -11.55457,-15.1576 -15.40609,-23.10913 -1.61516,-3.23031 -3.23031,-5.8394 -3.72728,-5.8394 -1.49091,0 3.60304,16.89699 7.08183,23.97882 1.7394,3.60304 5.21819,8.4485 7.5788,11.0576 3.47879,3.60303 4.72122,6.08789 5.96365,13.04547 2.60909,13.91518 6.21213,26.46368 10.56062,36.4031 6.7091,15.53032 18.38791,45.72128 19.25761,49.69705 1.36667,6.08789 -1.86364,4.72122 -16.40003,-7.45456 -13.91517,-11.67881 -18.88488,-17.14548 -25.22125,-28.20307 -3.35455,-5.83941 -3.72728,-7.5788 -3.72728,-17.26973 0,-18.6364 -5.46668,-33.794 -13.66669,-37.64552 -5.34243,-2.48485 -9.06971,-9.56668 -11.18184,-21.74246 -0.8697,-4.84546 -1.98788,-9.69093 -2.48485,-10.68487 -1.61516,-2.98182 -2.85758,6.46062 -2.23637,17.89094 0.49697,8.94547 0.99394,10.80911 4.10001,14.66063 1.98788,2.48485 5.59092,5.71516 8.07577,7.08183 6.21213,3.4788 8.94547,10.93335 9.06971,23.85458 0,5.34244 -0.24848,10.06366 -0.62121,10.43639 -1.61516,1.61515 -9.69093,-1.11819 -14.03942,-4.72122 -6.08789,-4.96971 -11.80305,-16.897 -11.80305,-24.84853 0,-3.23031 -0.49697,-5.8394 -1.11818,-5.8394 -2.6091,0 -3.4788,16.0273 -1.24243,24.22731 2.48485,9.06971 12.42426,19.75458 19.75458,21.24549 7.82729,1.61516 10.93335,4.34849 15.65457,14.03942 4.84546,9.81517 7.08183,12.30002 36.90006,41.12431 13.04548,12.54851 17.02124,17.64245 17.02124,21.74246 0,2.11213 -1.98788,2.48485 -3.10606,0.62121 -1.24243,-2.11212 -15.40609,-8.94547 -25.46974,-12.30002 l -9.19396,-3.2303 -3.2303,-7.70305 c -3.23031,-7.70304 -5.46668,-10.68487 -14.16367,-18.88487 -3.10606,-2.8576 -5.21819,-6.46062 -6.58485,-11.18185 l -2.11213,-6.95758 -1.11818,4.72122 c -1.98789,8.20001 -0.12425,13.16971 7.33031,20.37579 3.72728,3.47879 7.82729,8.82122 9.19396,11.80305 2.36061,5.34243 2.36061,5.34243 0,5.71517 -4.3485,0.74545 -16.0273,-5.59093 -22.86065,-12.42427 C 88.3455,211.03273 81.88488,194.6327 80.02124,174.25691 l -0.37273,-4.34849 -2.236365,4.96971 c -2.112125,4.47273 -2.236365,6.08788 -0.869695,16.52427 1.11818,9.0697 2.36061,13.4182 6.21213,21.12124 5.09395,10.1879 15.65457,21.61822 23.73034,25.71823 5.71516,2.85758 5.8394,2.98183 3.72728,4.34849 -3.60304,2.36061 -16.40003,1.36667 -22.98489,-1.7394 -7.08183,-3.23031 -16.40002,-12.67275 -20.62427,-20.74852 -3.4788,-6.58486 -4.59698,-4.1 -2.36061,4.96971 4.1,16.40003 21.24549,29.94247 38.26673,29.94247 4.22425,0 9.81516,-0.8697 12.30002,-1.86364 2.60909,-1.11818 8.32425,-1.86364 13.91517,-1.86364 7.82729,0 10.68487,0.62122 16.897,3.60304 7.20607,3.35455 19.25761,12.92122 18.01518,14.16366 -0.37273,0.37273 -5.59092,0 -11.80305,-0.62121 -15.53033,-1.86363 -32.42733,0.8697 -39.26067,6.46061 -2.6091,2.11213 -5.96365,4.22426 -7.5788,4.84546 -4.34849,1.61516 -10.56062,-0.49696 -15.90306,-5.34243 -5.59092,-4.9697 -5.46667,-4.9697 -13.04547,-3.10607 C 69.21213,273.0298 63,278.8692 63,283.71467 c 0,4.47273 0.745456,4.47273 6.21213,-0.12424 5.839405,-5.09395 10.56063,-4.84546 17.51821,0.49697 10.68487,8.2 18.51216,8.32426 30.43945,0.12424 5.34243,-3.72728 8.07577,-4.59698 17.02124,-5.71516 5.8394,-0.8697 12.5485,-1.11818 14.90911,-0.62121 6.08789,1.11818 14.03942,7.33031 17.02124,13.16973 2.48486,4.84545 2.6091,6.83333 2.23637,36.52732 0,0 1.80152,26.5258 -2.15871,33.7474 -3.96024,7.22161 -10.88676,12.47088 -16.2292,13.71328 -10.56062,2.48486 -13.04547,3.4788 -16.77275,7.08184 -4.22425,4.1 -8.82123,15.1576 -6.83335,16.40002 0.62122,0.37274 1.61516,-0.37273 2.36061,-1.61516 2.11213,-3.97576 10.43638,-8.69698 17.7667,-10.06364 3.97576,-0.74546 8.82123,-2.11213 10.80911,-3.23031 4.9697,-2.48485 5.34244,-2.36061 3.60304,1.24242 -1.36668,3.10607 -2.23637,3.4788 -9.3182,4.96973 -3.60304,0.74543 -9.06972,5.5909 -9.06972,8.2 0,1.61515 19.00912,-0.2485 22.23944,-2.23638 1.61515,-0.99392 4.34848,-5.21819 6.08788,-9.19395 3.85153,-8.94547 6.46062,-9.69093 6.46062,-1.7394 0,6.83333 2.85758,14.28791 5.46668,14.28791 2.23636,0 4.47273,-7.20608 4.47273,-14.66063 0,-2.85759 0.62122,-5.2182 1.24243,-5.2182 0.74545,0 2.98182,3.60305 4.84546,7.95155 4.84546,10.5606 7.08183,11.92728 19.00912,11.92728 5.34244,0 9.69093,-0.49698 9.69093,-1.11818 0,-2.3606 -7.70304,-7.5788 -11.18184,-7.5788 -2.36061,0 -4.47273,-1.1182 -6.08789,-3.35456 -1.49091,-1.7394 -2.48484,-3.47879 -2.23636,-3.72728 0.24848,-0.24848 2.98182,0.74544 5.96364,2.11214 2.98183,1.36666 7.08183,2.48484 8.94548,2.48484 4.84545,0 10.8091,2.73336 16.0273,7.33031 2.48484,2.11215 4.7212,3.85153 5.09394,3.85153 0.37273,0 -0.12424,-2.60908 -1.24244,-5.96365 -3.2303,-9.69093 -8.4485,-14.03943 -20.1273,-16.52427 -8.2,-1.7394 -15.28184,-7.08183 -18.6364,-13.79093 -2.48484,-5.21819 -2.60908,-7.45456 -2.60908,-36.65158 0,0 -1.08712,-27.5508 0.77651,-31.1849 1.86364,-3.6341 3.32349,-5.46668 3.32349,-5.46668 2.23638,-2.85757 6.33638,-6.58487 8.94548,-8.20001 4.59697,-2.60909 5.96364,-2.85758 16.6485,-2.11212 12.17578,0.74546 17.7667,2.60909 26.09096,8.69698 6.21214,4.47274 15.1576,4.34848 22.7364,-0.49697 3.10607,-1.98788 6.08789,-4.22425 6.46062,-4.96971 1.86362,-2.85758 10.18789,-1.49091 15.1576,2.48486 4.84546,3.85152 4.84546,3.85152 5.21819,0.99394 0.99393,-6.21214 -6.08789,-12.67274 -15.40609,-14.2879 -4.47273,-0.62122 -5.59092,-0.24849 -9.31818,2.85756 -9.3182,8.20003 -15.15762,8.697 -23.2334,2.2364 -6.21212,-4.84548 -6.08788,-4.84548 -19.75457,-6.9576 -7.45455,-1.1182 -13.04547,-1.24243 -21.12124,-0.2485 -5.96365,0.62122 -11.18184,0.99395 -11.43033,0.74547 -1.36666,-1.11819 8.57274,-9.44244 15.90306,-13.16972 11.18184,-5.83941 20.74852,-6.83335 31.06066,-3.35455 4.10002,1.36667 10.56062,2.48485 14.2879,2.48485 16.0273,0 33.54552,-13.54245 37.89402,-29.4455 2.73332,-9.69093 0.8697,-14.28791 -2.36063,-5.71517 -2.48485,6.95759 -15.40607,19.38186 -22.86064,21.86672 -8.4485,2.85757 -21.8667,2.60908 -21.8667,-0.49698 0,-0.49697 2.11212,-1.98788 4.72122,-3.23032 8.07577,-3.72727 19.75458,-16.52426 24.60005,-26.96064 5.21818,-11.43032 7.5788,-26.2152 5.5909,-34.04248 -2.23636,-7.82728 -3.4788,-7.20608 -4.3485,2.23636 -0.99393,11.80306 -5.5909,25.46974 -11.30607,34.04249 -6.83333,10.31213 -21.36973,20.62427 -29.07277,20.62427 -4.47274,0 0.12424,-9.3182 8.4485,-17.39397 7.82728,-7.45455 9.06971,-10.80911 7.70304,-19.87882 l -0.99394,-5.59091 -1.61516,6.21213 c -1.36666,4.9697 -3.2303,7.82727 -9.81516,14.2879 -6.33638,6.33637 -8.94547,9.93941 -11.30608,16.15154 l -3.10606,8.07577 -9.93942,3.23031 c -8.82122,2.85758 -15.77881,6.08789 -23.97883,11.18185 -3.60303,2.23635 -4.47273,0.8697 -2.85758,-4.10002 0.99394,-2.85758 8.07577,-10.31214 22.61216,-23.97883 20.87277,-19.63033 26.96065,-26.83641 31.93037,-38.14249 2.60908,-6.08789 2.60908,-6.08789 16.15153,-11.6788 7.08183,-2.85758 15.77882,-12.79699 17.51821,-19.87882 2.23636,-8.69699 1.36666,-24.10308 -1.24244,-24.10308 -0.6212,0 -1.11817,2.48486 -1.11817,5.59092 0,6.95759 -6.08789,20.37579 -11.30608,24.72429 -4.47273,3.85152 -12.30002,6.21213 -14.03941,4.47273 -2.11214,-2.11212 -1.36667,-19.13336 0.99394,-25.3455 1.61515,-4.22424 3.47879,-6.33637 7.08182,-8.4485 2.73334,-1.4909 6.58487,-5.21818 8.57275,-8.32425 3.35455,-5.09395 3.72728,-6.33637 3.60305,-15.53033 -0.12426,-10.80911 -1.3667,-18.26367 -2.6091,-16.27578 -0.37274,0.62121 -1.36668,5.46667 -2.23638,10.56062 -2.11212,12.42426 -6.21212,20.62428 -11.80305,22.86064 -7.70304,3.23031 -12.92123,18.01519 -13.04547,37.0243 0,10.56063 -0.12425,11.18184 -5.2182,19.75459 -6.33637,10.43638 -10.43638,14.66063 -29.69398,30.43944 -8.4485,6.83335 -11.0576,8.07577 -11.0576,4.96971 0,-1.98789 15.90306,-44.35462 17.39398,-46.09402 2.85757,-3.47879 13.54244,-39.50916 13.66668,-45.59705 0,-2.11212 1.86364,-5.59091 5.21819,-9.31819 2.85758,-3.23031 6.46063,-8.82123 8.07577,-12.42427 3.35456,-7.20607 7.95153,-22.7364 6.7091,-22.7364 -0.37272,0 -3.10606,4.47274 -6.08789,9.81517 -5.34243,9.69092 -12.05153,18.76064 -13.79093,18.76064 -0.99394,0 -3.47879,-7.45456 -6.33637,-18.38791 -0.74545,-2.98183 -2.36061,-5.71516 -3.4788,-6.08789 -1.11818,-0.37273 -4.47273,-2.98182 -7.33031,-5.71516 -2.98182,-2.85758 -5.34244,-4.34849 -5.34244,-3.4788 0,1.86364 5.71517,12.05154 8.697,15.65458 2.48484,2.98182 6.21212,21.36973 6.21212,30.81217 0,6.83334 -2.73334,16.40003 -7.33032,25.09701 -1.4909,2.6091 -2.6091,5.59092 -2.6091,6.46062 0,3.35455 -6.58485,17.76669 -8.07576,17.76669 -1.86364,0 -11.05759,-13.4182 -16.52427,-24.35155 l -3.72727,-7.45456 4.22424,-15.40609 c 4.47274,-16.52427 7.33032,-41.00007 4.47274,-39.26067 -0.8697,0.49697 -1.49092,1.86364 -1.49092,3.10607 0,5.34243 -11.33714,39.64893 -11.33714,39.64893 0,0 -3.57197,-9.70646 -8.54168,-28.96407 -2.11212,-8.07577 -4.1,-15.03335 -4.34849,-15.40608 -1.11818,-0.99394 -0.62121,14.03941 0.62121,22.23943 0.74546,4.47273 2.98183,13.79093 5.09395,20.87276 l 3.72729,12.67275 -6.70911,11.55456 c -8.69699,14.90912 -12.42427,20.62429 -13.66669,20.74852 -1.36667,0 -8.32426,-15.40608 -8.32426,-18.26366 0,-1.24243 -1.24242,-4.47274 -2.60909,-7.20607 -4.47274,-8.32426 -7.33032,-18.01519 -7.33032,-25.09702 0,-9.44244 3.72728,-27.83035 6.21213,-30.81217 3.35455,-3.97576 8.94547,-14.2879 8.4485,-15.65457 -0.24848,-0.621215 -2.60909,0.99394 -5.34243,3.85152 z m 37.64552,79.39104 c 2.23636,3.97577 5.96365,10.56062 8.32425,14.53639 5.46668,9.06971 5.46668,12.54851 0.12425,29.81823 -4.22425,13.91518 -10.06365,25.3455 -12.797,25.3455 -2.98182,0 -9.06971,-11.67882 -13.4182,-25.59398 -6.08789,-19.38186 -5.96365,-20.74852 3.85152,-37.52128 4.59698,-7.5788 9.03865,-14.84699 9.03865,-14.84699 0,0 2.64016,4.28637 4.87653,8.26213 z" />
    </clipPath>
    <clipPath
       id="clipPath1484"
       clipPathUnits="userSpaceOnUse">
      <path
         id="path1486"
         d="m -112.59515,420.87161 c -29.94067,-6.43051 -65.28311,-25.43129 -89.10749,-47.90602 l -20.63606,-19.46704 -11.08465,6.22993 -11.08465,6.22991 -10.57109,-16.9112 c -15.9886,-25.578 -16.33541,-28.36079 -4.41124,-35.39624 l 10.12981,-5.97672 -5.42629,-19.56886 c -13.46519,-48.55971 -9.26504,-91.26685 13.48982,-137.16434 22.82578,-46.04049 64.78308,-81.766072 112.42543,-95.727464 11.39347,-3.338828 22.38005,-6.58357 24.41461,-7.210523 2.24739,-0.692608 3.69918,-6.402852 3.69918,-14.549919 V 20.043177 h 27.951664 27.951603 l 0.902003,13.662572 0.901975,13.662571 22.195125,6.492275 c 53.053163,15.518496 92.92496,49.032685 118.481629,99.589725 19.241181,38.06352 24.378581,94.19734 12.146191,132.71599 -3.32174,10.45978 -5.35577,20.12412 -4.52009,21.47632 0.83571,1.35218 5.43011,4.48077 10.20981,6.95245 4.77974,2.47165 8.69042,5.98452 8.69042,7.80629 0,1.82178 -5.59338,12.3766 -12.42968,23.45521 L 99.2932,365.99956 88.171959,359.74904 77.050746,353.49855 56.414664,372.96559 c -45.454816,42.87973 -108.805103,60.83646 -169.009814,47.90602 z"
         style="fill:#008000;fill-rule:evenodd;stroke-width:5.59249;stroke-linecap:round;paint-order:stroke fill markers" />
    </clipPath>
    <clipPath
       id="clipPath1484-8"
       clipPathUnits="userSpaceOnUse">
      <path
         id="path1486-4"
         d="m -112.59515,420.87161 c -29.94067,-6.43051 -65.28311,-25.43129 -89.10749,-47.90602 l -20.63606,-19.46704 -11.08465,6.22993 -11.08465,6.22991 -10.57109,-16.9112 c -15.9886,-25.578 -16.33541,-28.36079 -4.41124,-35.39624 l 10.12981,-5.97672 -5.42629,-19.56886 c -13.46519,-48.55971 -9.26504,-91.26685 13.48982,-137.16434 22.82578,-46.04049 64.78308,-81.766072 112.42543,-95.727464 11.39347,-3.338828 22.38005,-6.58357 24.41461,-7.210523 2.24739,-0.692608 3.69918,-6.402852 3.69918,-14.549919 V 20.043177 h 27.951664 27.951603 l 0.902003,13.662572 0.901975,13.662571 22.195125,6.492275 c 53.053163,15.518496 92.92496,49.032685 118.481629,99.589725 19.241181,38.06352 24.378581,94.19734 12.146191,132.71599 -3.32174,10.45978 -5.35577,20.12412 -4.52009,21.47632 0.83571,1.35218 5.43011,4.48077 10.20981,6.95245 4.77974,2.47165 8.69042,5.98452 8.69042,7.80629 0,1.82178 -5.59338,12.3766 -12.42968,23.45521 L 99.2932,365.99956 88.171959,359.74904 77.050746,353.49855 56.414664,372.96559 c -45.454816,42.87973 -108.805103,60.83646 -169.009814,47.90602 z"
         style="fill:#008000;fill-rule:evenodd;stroke-width:5.59249;stroke-linecap:round;paint-order:stroke fill markers" />
    </clipPath>
    <clipPath
       id="artboard_clip_path-0-4">
      <path
         id="path886-0-4"
         d="M 58.5,72 H 306 V 374.60196 400.5 H 58.5 Z" />
    </clipPath>
    <clipPath
       id="inner_stroke_clip_path-6-9">
      <path
         id="path889-5-2"
         d="m 149.34863,77.34766 c -2.6091,2.73334 -5.8394,5.21819 -7.08183,5.71516 -1.24243,0.37273 -2.73334,2.73334 -3.60304,5.8394 -3.85152,15.03336 -5.46667,19.25761 -6.95758,18.6364 -1.98788,-0.74546 -11.55457,-15.1576 -15.40609,-23.10913 -1.61516,-3.23031 -3.23031,-5.8394 -3.72728,-5.8394 -1.49091,0 3.60304,16.89699 7.08183,23.97882 1.7394,3.60304 5.21819,8.4485 7.5788,11.0576 3.47879,3.60303 4.72122,6.08789 5.96365,13.04547 2.60909,13.91518 6.21213,26.46368 10.56062,36.4031 6.7091,15.53032 18.38791,45.72128 19.25761,49.69705 1.36667,6.08789 -1.86364,4.72122 -16.40003,-7.45456 -13.91517,-11.67881 -18.88488,-17.14548 -25.22125,-28.20307 -3.35455,-5.83941 -3.72728,-7.5788 -3.72728,-17.26973 0,-18.6364 -5.46668,-33.794 -13.66669,-37.64552 -5.34243,-2.48485 -9.06971,-9.56668 -11.18184,-21.74246 -0.8697,-4.84546 -1.98788,-9.69093 -2.48485,-10.68487 -1.61516,-2.98182 -2.85758,6.46062 -2.23637,17.89094 0.49697,8.94547 0.99394,10.80911 4.10001,14.66063 1.98788,2.48485 5.59092,5.71516 8.07577,7.08183 6.21213,3.4788 8.94547,10.93335 9.06971,23.85458 0,5.34244 -0.24848,10.06366 -0.62121,10.43639 -1.61516,1.61515 -9.69093,-1.11819 -14.03942,-4.72122 -6.08789,-4.96971 -11.80305,-16.897 -11.80305,-24.84853 0,-3.23031 -0.49697,-5.8394 -1.11818,-5.8394 -2.6091,0 -3.4788,16.0273 -1.24243,24.22731 2.48485,9.06971 12.42426,19.75458 19.75458,21.24549 7.82729,1.61516 10.93335,4.34849 15.65457,14.03942 4.84546,9.81517 7.08183,12.30002 36.90006,41.12431 13.04548,12.54851 17.02124,17.64245 17.02124,21.74246 0,2.11213 -1.98788,2.48485 -3.10606,0.62121 -1.24243,-2.11212 -15.40609,-8.94547 -25.46974,-12.30002 l -9.19396,-3.2303 -3.2303,-7.70305 c -3.23031,-7.70304 -5.46668,-10.68487 -14.16367,-18.88487 -3.10606,-2.8576 -5.21819,-6.46062 -6.58485,-11.18185 l -2.11213,-6.95758 -1.11818,4.72122 c -1.98789,8.20001 -0.12425,13.16971 7.33031,20.37579 3.72728,3.47879 7.82729,8.82122 9.19396,11.80305 2.36061,5.34243 2.36061,5.34243 0,5.71517 -4.3485,0.74545 -16.0273,-5.59093 -22.86065,-12.42427 C 88.3455,211.03273 81.88488,194.6327 80.02124,174.25691 l -0.37273,-4.34849 -2.236365,4.96971 c -2.112125,4.47273 -2.236365,6.08788 -0.869695,16.52427 1.11818,9.0697 2.36061,13.4182 6.21213,21.12124 5.09395,10.1879 15.65457,21.61822 23.73034,25.71823 5.71516,2.85758 5.8394,2.98183 3.72728,4.34849 -3.60304,2.36061 -16.40003,1.36667 -22.98489,-1.7394 -7.08183,-3.23031 -16.40002,-12.67275 -20.62427,-20.74852 -3.4788,-6.58486 -4.59698,-4.1 -2.36061,4.96971 4.1,16.40003 21.24549,29.94247 38.26673,29.94247 4.22425,0 9.81516,-0.8697 12.30002,-1.86364 2.60909,-1.11818 8.32425,-1.86364 13.91517,-1.86364 7.82729,0 10.68487,0.62122 16.897,3.60304 7.20607,3.35455 19.25761,12.92122 18.01518,14.16366 -0.37273,0.37273 -5.59092,0 -11.80305,-0.62121 -15.53033,-1.86363 -32.42733,0.8697 -39.26067,6.46061 -2.6091,2.11213 -5.96365,4.22426 -7.5788,4.84546 -4.34849,1.61516 -10.56062,-0.49696 -15.90306,-5.34243 -5.59092,-4.9697 -5.46667,-4.9697 -13.04547,-3.10607 C 69.21213,273.0298 63,278.8692 63,283.71467 c 0,4.47273 0.745456,4.47273 6.21213,-0.12424 5.839405,-5.09395 10.56063,-4.84546 17.51821,0.49697 10.68487,8.2 18.51216,8.32426 30.43945,0.12424 5.34243,-3.72728 8.07577,-4.59698 17.02124,-5.71516 5.8394,-0.8697 12.5485,-1.11818 14.90911,-0.62121 6.08789,1.11818 14.03942,7.33031 17.02124,13.16973 2.48486,4.84545 2.6091,6.83333 2.23637,36.52732 0,0 1.80152,26.5258 -2.15871,33.7474 -3.96024,7.22161 -10.88676,12.47088 -16.2292,13.71328 -10.56062,2.48486 -13.04547,3.4788 -16.77275,7.08184 -4.22425,4.1 -8.82123,15.1576 -6.83335,16.40002 0.62122,0.37274 1.61516,-0.37273 2.36061,-1.61516 2.11213,-3.97576 10.43638,-8.69698 17.7667,-10.06364 3.97576,-0.74546 8.82123,-2.11213 10.80911,-3.23031 4.9697,-2.48485 5.34244,-2.36061 3.60304,1.24242 -1.36668,3.10607 -2.23637,3.4788 -9.3182,4.96973 -3.60304,0.74543 -9.06972,5.5909 -9.06972,8.2 0,1.61515 19.00912,-0.2485 22.23944,-2.23638 1.61515,-0.99392 4.34848,-5.21819 6.08788,-9.19395 3.85153,-8.94547 6.46062,-9.69093 6.46062,-1.7394 0,6.83333 2.85758,14.28791 5.46668,14.28791 2.23636,0 4.47273,-7.20608 4.47273,-14.66063 0,-2.85759 0.62122,-5.2182 1.24243,-5.2182 0.74545,0 2.98182,3.60305 4.84546,7.95155 4.84546,10.5606 7.08183,11.92728 19.00912,11.92728 5.34244,0 9.69093,-0.49698 9.69093,-1.11818 0,-2.3606 -7.70304,-7.5788 -11.18184,-7.5788 -2.36061,0 -4.47273,-1.1182 -6.08789,-3.35456 -1.49091,-1.7394 -2.48484,-3.47879 -2.23636,-3.72728 0.24848,-0.24848 2.98182,0.74544 5.96364,2.11214 2.98183,1.36666 7.08183,2.48484 8.94548,2.48484 4.84545,0 10.8091,2.73336 16.0273,7.33031 2.48484,2.11215 4.7212,3.85153 5.09394,3.85153 0.37273,0 -0.12424,-2.60908 -1.24244,-5.96365 -3.2303,-9.69093 -8.4485,-14.03943 -20.1273,-16.52427 -8.2,-1.7394 -15.28184,-7.08183 -18.6364,-13.79093 -2.48484,-5.21819 -2.60908,-7.45456 -2.60908,-36.65158 0,0 -1.08712,-27.5508 0.77651,-31.1849 1.86364,-3.6341 3.32349,-5.46668 3.32349,-5.46668 2.23638,-2.85757 6.33638,-6.58487 8.94548,-8.20001 4.59697,-2.60909 5.96364,-2.85758 16.6485,-2.11212 12.17578,0.74546 17.7667,2.60909 26.09096,8.69698 6.21214,4.47274 15.1576,4.34848 22.7364,-0.49697 3.10607,-1.98788 6.08789,-4.22425 6.46062,-4.96971 1.86362,-2.85758 10.18789,-1.49091 15.1576,2.48486 4.84546,3.85152 4.84546,3.85152 5.21819,0.99394 0.99393,-6.21214 -6.08789,-12.67274 -15.40609,-14.2879 -4.47273,-0.62122 -5.59092,-0.24849 -9.31818,2.85756 -9.3182,8.20003 -15.15762,8.697 -23.2334,2.2364 -6.21212,-4.84548 -6.08788,-4.84548 -19.75457,-6.9576 -7.45455,-1.1182 -13.04547,-1.24243 -21.12124,-0.2485 -5.96365,0.62122 -11.18184,0.99395 -11.43033,0.74547 -1.36666,-1.11819 8.57274,-9.44244 15.90306,-13.16972 11.18184,-5.83941 20.74852,-6.83335 31.06066,-3.35455 4.10002,1.36667 10.56062,2.48485 14.2879,2.48485 16.0273,0 33.54552,-13.54245 37.89402,-29.4455 2.73332,-9.69093 0.8697,-14.28791 -2.36063,-5.71517 -2.48485,6.95759 -15.40607,19.38186 -22.86064,21.86672 -8.4485,2.85757 -21.8667,2.60908 -21.8667,-0.49698 0,-0.49697 2.11212,-1.98788 4.72122,-3.23032 8.07577,-3.72727 19.75458,-16.52426 24.60005,-26.96064 5.21818,-11.43032 7.5788,-26.2152 5.5909,-34.04248 -2.23636,-7.82728 -3.4788,-7.20608 -4.3485,2.23636 -0.99393,11.80306 -5.5909,25.46974 -11.30607,34.04249 -6.83333,10.31213 -21.36973,20.62427 -29.07277,20.62427 -4.47274,0 0.12424,-9.3182 8.4485,-17.39397 7.82728,-7.45455 9.06971,-10.80911 7.70304,-19.87882 l -0.99394,-5.59091 -1.61516,6.21213 c -1.36666,4.9697 -3.2303,7.82727 -9.81516,14.2879 -6.33638,6.33637 -8.94547,9.93941 -11.30608,16.15154 l -3.10606,8.07577 -9.93942,3.23031 c -8.82122,2.85758 -15.77881,6.08789 -23.97883,11.18185 -3.60303,2.23635 -4.47273,0.8697 -2.85758,-4.10002 0.99394,-2.85758 8.07577,-10.31214 22.61216,-23.97883 20.87277,-19.63033 26.96065,-26.83641 31.93037,-38.14249 2.60908,-6.08789 2.60908,-6.08789 16.15153,-11.6788 7.08183,-2.85758 15.77882,-12.79699 17.51821,-19.87882 2.23636,-8.69699 1.36666,-24.10308 -1.24244,-24.10308 -0.6212,0 -1.11817,2.48486 -1.11817,5.59092 0,6.95759 -6.08789,20.37579 -11.30608,24.72429 -4.47273,3.85152 -12.30002,6.21213 -14.03941,4.47273 -2.11214,-2.11212 -1.36667,-19.13336 0.99394,-25.3455 1.61515,-4.22424 3.47879,-6.33637 7.08182,-8.4485 2.73334,-1.4909 6.58487,-5.21818 8.57275,-8.32425 3.35455,-5.09395 3.72728,-6.33637 3.60305,-15.53033 -0.12426,-10.80911 -1.3667,-18.26367 -2.6091,-16.27578 -0.37274,0.62121 -1.36668,5.46667 -2.23638,10.56062 -2.11212,12.42426 -6.21212,20.62428 -11.80305,22.86064 -7.70304,3.23031 -12.92123,18.01519 -13.04547,37.0243 0,10.56063 -0.12425,11.18184 -5.2182,19.75459 -6.33637,10.43638 -10.43638,14.66063 -29.69398,30.43944 -8.4485,6.83335 -11.0576,8.07577 -11.0576,4.96971 0,-1.98789 15.90306,-44.35462 17.39398,-46.09402 2.85757,-3.47879 13.54244,-39.50916 13.66668,-45.59705 0,-2.11212 1.86364,-5.59091 5.21819,-9.31819 2.85758,-3.23031 6.46063,-8.82123 8.07577,-12.42427 3.35456,-7.20607 7.95153,-22.7364 6.7091,-22.7364 -0.37272,0 -3.10606,4.47274 -6.08789,9.81517 -5.34243,9.69092 -12.05153,18.76064 -13.79093,18.76064 -0.99394,0 -3.47879,-7.45456 -6.33637,-18.38791 -0.74545,-2.98183 -2.36061,-5.71516 -3.4788,-6.08789 -1.11818,-0.37273 -4.47273,-2.98182 -7.33031,-5.71516 -2.98182,-2.85758 -5.34244,-4.34849 -5.34244,-3.4788 0,1.86364 5.71517,12.05154 8.697,15.65458 2.48484,2.98182 6.21212,21.36973 6.21212,30.81217 0,6.83334 -2.73334,16.40003 -7.33032,25.09701 -1.4909,2.6091 -2.6091,5.59092 -2.6091,6.46062 0,3.35455 -6.58485,17.76669 -8.07576,17.76669 -1.86364,0 -11.05759,-13.4182 -16.52427,-24.35155 l -3.72727,-7.45456 4.22424,-15.40609 c 4.47274,-16.52427 7.33032,-41.00007 4.47274,-39.26067 -0.8697,0.49697 -1.49092,1.86364 -1.49092,3.10607 0,5.34243 -11.33714,39.64893 -11.33714,39.64893 0,0 -3.57197,-9.70646 -8.54168,-28.96407 -2.11212,-8.07577 -4.1,-15.03335 -4.34849,-15.40608 -1.11818,-0.99394 -0.62121,14.03941 0.62121,22.23943 0.74546,4.47273 2.98183,13.79093 5.09395,20.87276 l 3.72729,12.67275 -6.70911,11.55456 c -8.69699,14.90912 -12.42427,20.62429 -13.66669,20.74852 -1.36667,0 -8.32426,-15.40608 -8.32426,-18.26366 0,-1.24243 -1.24242,-4.47274 -2.60909,-7.20607 -4.47274,-8.32426 -7.33032,-18.01519 -7.33032,-25.09702 0,-9.44244 3.72728,-27.83035 6.21213,-30.81217 3.35455,-3.97576 8.94547,-14.2879 8.4485,-15.65457 -0.24848,-0.621215 -2.60909,0.99394 -5.34243,3.85152 z m 37.64552,79.39104 c 2.23636,3.97577 5.96365,10.56062 8.32425,14.53639 5.46668,9.06971 5.46668,12.54851 0.12425,29.81823 -4.22425,13.91518 -10.06365,25.3455 -12.797,25.3455 -2.98182,0 -9.06971,-11.67882 -13.4182,-25.59398 -6.08789,-19.38186 -5.96365,-20.74852 3.85152,-37.52128 4.59698,-7.5788 9.03865,-14.84699 9.03865,-14.84699 0,0 2.64016,4.28637 4.87653,8.26213 z" />
    </clipPath>
    <clipPath
       id="clipPath20127"
       clipPathUnits="userSpaceOnUse">
      <path
         id="path20129"
         d="m 112.43588,189.72707 c -8.47762,-1.82078 -18.484736,-7.2008 -25.230545,-13.56446 l -5.843043,-5.51204 -3.13859,1.76399 -3.138589,1.76398 -2.993173,-4.78836 c -4.527129,-7.24234 -4.625328,-8.03028 -1.249033,-10.02235 l 2.868228,-1.69229 -1.536439,-5.54087 c -3.812632,-13.74955 -2.623369,-25.84196 3.819606,-38.83771 6.463059,-13.03624 18.343152,-23.151841 31.832958,-27.104973 3.22603,-0.945376 6.33685,-1.864116 6.91293,-2.041645 0.63634,-0.196101 1.04741,-1.812946 1.04741,-4.119767 v -3.796986 h 7.91444 7.91442 l 0.2554,3.86852 0.25539,3.868521 6.28449,1.838265 c 15.02186,4.394025 26.31145,13.883469 33.54775,28.198565 5.44809,10.77758 6.90273,26.67172 3.43916,37.57817 -0.94054,2.96166 -1.51647,5.69809 -1.27985,6.08096 0.23663,0.38287 1.53752,1.26872 2.89088,1.96857 1.35337,0.69984 2.46067,1.6945 2.46067,2.21033 0,0.51583 -1.58375,3.5044 -3.51943,6.64128 l -3.51943,5.70343 -3.14895,-1.76982 -3.14894,-1.76981 -5.84305,5.51204 c -12.87041,12.14128 -30.80787,17.22568 -47.85467,13.56446 z"
         style="fill:#84bc84;fill-opacity:1;fill-rule:evenodd;stroke-width:1.5835;stroke-linecap:round;paint-order:stroke fill markers" />
    </clipPath>
    <clipPath
       id="clipPath20131"
       clipPathUnits="userSpaceOnUse">
      <path
         id="path20133"
         d="m 112.43588,189.72707 c -8.47762,-1.82078 -18.484736,-7.2008 -25.230545,-13.56446 l -5.843043,-5.51204 -3.13859,1.76399 -3.138589,1.76398 -2.993173,-4.78836 c -4.527129,-7.24234 -4.625328,-8.03028 -1.249033,-10.02235 l 2.868228,-1.69229 -1.536439,-5.54087 c -3.812632,-13.74955 -2.623369,-25.84196 3.819606,-38.83771 6.463059,-13.03624 18.343152,-23.151841 31.832958,-27.104973 3.22603,-0.945376 6.33685,-1.864116 6.91293,-2.041645 0.63634,-0.196101 1.04741,-1.812946 1.04741,-4.119767 v -3.796986 h 7.91444 7.91442 l 0.2554,3.86852 0.25539,3.868521 6.28449,1.838265 c 15.02186,4.394025 26.31145,13.883469 33.54775,28.198565 5.44809,10.77758 6.90273,26.67172 3.43916,37.57817 -0.94054,2.96166 -1.51647,5.69809 -1.27985,6.08096 0.23663,0.38287 1.53752,1.26872 2.89088,1.96857 1.35337,0.69984 2.46067,1.6945 2.46067,2.21033 0,0.51583 -1.58375,3.5044 -3.51943,6.64128 l -3.51943,5.70343 -3.14895,-1.76982 -3.14894,-1.76981 -5.84305,5.51204 c -12.87041,12.14128 -30.80787,17.22568 -47.85467,13.56446 z"
         style="fill:#84bc84;fill-opacity:1;fill-rule:evenodd;stroke-width:1.5835;stroke-linecap:round;paint-order:stroke fill markers" />
    </clipPath>
  </defs>
  <metadata
     id="metadata9947">
    <rdf:RDF>
      <cc:Work
         rdf:about="">
        <dc:format>image/svg+xml</dc:format>
        <dc:type
           rdf:resource="http://purl.org/dc/dcmitype/StillImage" />
        <dc:title></dc:title>
      </cc:Work>
    </rdf:RDF>
  </metadata>
  <g
     transform="translate(-57.427285,-70.189195)"
     id="layer1">
    <path
       clip-path="url(#clipPath20131)"
       id="rect12373"
       d="M 71.197502,80.172763 H 179.56676 V 190.43953 H 166.0206 71.197502 Z"
       style="fill:#bcbdc1;fill-opacity:1;stroke:none;stroke-width:0.465958" />
    <path
       clip-path="url(#clipPath20127)"
       style="fill:#d6b48e;fill-opacity:1;stroke:none;stroke-width:0.465958"
       d="M 71.197502,135.83532 H 179.31202 c 0.35036,54.07504 -0.0956,0.52917 0.25474,54.60421 H 71.197502 Z"
       id="path19819" />
    <path
       transform="matrix(0.26458333,0,0,0.26458333,57.427285,70.189195)"
       id="path901"
       d=""
       style="fill:#ffffff;fill-opacity:0.992157;fill-rule:evenodd;stroke-width:5.39933" />
    <path
       transform="matrix(0.26458333,0,0,0.26458333,57.427285,70.189195)"
       id="path940"
       d="m 225.71429,459.2571 c -43.8651,-6.08836 -84.33307,-25.03594 -116.1937,-54.40325 -9.14045,-8.42515 -10.775607,-10.55168 -8.91441,-11.59326 1.73824,-0.97277 4.76834,0.97876 12.76489,8.22121 30.82041,27.91393 66.48187,45.22546 105.89414,51.40532 19.13798,3.00085 56.72755,2.26021 73.59193,-1.44999 36.42253,-8.01305 68.67785,-24.75315 94.50433,-49.04655 8.9563,-8.42466 11.72173,-10.27783 14.17523,-9.49912 2.89806,0.91981 2.777,1.24956 -2.45856,6.69689 -9.413,9.79373 -27.70791,23.92585 -41.17711,31.80775 -21.7032,12.70026 -43.49113,20.95253 -68.00663,25.75779 -14.07113,2.75808 -50.79207,3.96143 -64.18011,2.10321 z"
       style="fill:#ffffff;fill-opacity:0.992157;fill-rule:evenodd;stroke-width:5.39933" />
    <path
       transform="matrix(0.26458333,0,0,0.26458333,57.427285,70.189195)"
       id="path979"
       d="m 447.25337,312.9903 c -1.28714,-1.5509 -1.01948,-4.56761 1.17244,-13.21429 6.5933,-26.0092 7.56028,-61.93535 2.33946,-86.91887 -16.02194,-76.67087 -70.56395,-135.233263 -145.3018,-156.012234 -7.10703,-1.975931 -8.32061,-2.800078 -8.32061,-5.65055 0,-4.368681 1.28832,-4.265419 18.94503,1.518489 52.67255,17.254246 97.83719,56.125145 122.72375,105.622055 7.69753,15.30962 16.16245,41.41424 19.0696,58.80796 4.49327,26.88357 2.61782,63.86171 -4.5465,89.64285 -2.3854,8.58396 -3.31745,9.5349 -6.08137,6.20459 z"
       style="fill:#ffffff;fill-opacity:0.992157;fill-rule:evenodd;stroke-width:5.39933" />
    <path
       transform="matrix(0.26458333,0,0,0.26458333,57.427285,70.189195)"
       id="path1135"
       d="m 48.850869,303.21429 c -5.142043,-20.69395 -6.401492,-34.08242 -5.587025,-59.39238 0.592614,-18.41575 1.578907,-27.26207 4.346045,-38.9808 16.975865,-71.8921 69.497841,-129.308841 139.159371,-152.128265 17.67411,-5.789613 18.94503,-5.889991 18.94503,-1.496303 0,2.941916 -1.19835,3.677878 -9.64286,5.922134 C 133.54372,73.756357 80.70944,123.38011 59.374383,185.52919 47.03141,221.4843 45.122289,265.09001 54.324767,300.86611 c 1.942799,7.55293 2.25942,10.94286 1.147239,12.28296 -2.766632,3.33359 -3.655671,1.99962 -6.621137,-9.93478 z"
       style="fill:#ffffff;fill-opacity:0.992157;fill-rule:evenodd;stroke-width:5.39933" />
    <path
       id="circle1064"
       d="m 123.97619,70.189195 c -36.688665,0 -66.548905,29.860245 -66.548905,66.548905 0,36.68866 29.86024,66.5489 66.548905,66.5489 36.68866,0 66.54891,-29.86024 66.54891,-66.5489 0,-36.68866 -29.86025,-66.548905 -66.54891,-66.548905 z m 0,10.992088 c 2.44856,0 4.85859,0.158935 7.2223,0.464053 V 88.5798 l 1.91048,0.363273 c 5.08542,0.966179 9.95,2.727219 14.49575,5.248275 v -0.0026 c 4.83918,2.68404 9.16414,6.149842 12.85555,10.298592 3.90123,4.38481 6.9459,9.35842 9.05473,14.79703 v 0.003 h 0.003 c 2.18728,5.63467 3.29491,11.57264 3.29491,17.67798 0,5.59517 -0.93308,11.05347 -2.76728,16.25587 l -0.64648,1.83554 5.77072,3.35122 c -1.89585,4.48836 -4.36586,8.67142 -7.31533,12.46177 l -5.73712,-3.32849 -1.27537,1.4609 c -4.15132,4.76486 -9.28479,8.77808 -14.87454,11.6055 l -0.003,0.003 c -3.34703,1.69637 -6.89134,3.00151 -10.5296,3.87522 -3.74782,0.90103 -7.62224,1.36477 -11.5135,1.36477 -3.88673,0 -7.76044,-0.45892 -11.49802,-1.35909 h -0.003 c -3.63763,-0.87357 -7.17537,-2.17768 -10.52545,-3.86902 -5.584398,-2.82155 -10.718452,-6.82218 -14.861113,-11.5781 l -1.273836,-1.46296 -5.663221,3.2887 c -2.949672,-3.79056 -5.418949,-7.97347 -7.314715,-12.46162 l 5.692669,-3.3042 -0.652674,-1.83761 c -1.84703,-5.21475 -2.784819,-10.69321 -2.784819,-16.30082 0,-6.11251 1.107017,-12.05711 3.300571,-17.69761 h 0.0026 v -0.003 c 2.115397,-5.45176 5.165011,-10.42598 9.08005,-14.8182 3.704246,-4.15499 8.03537,-7.611691 12.888618,-10.296524 4.5516,-2.514177 9.42978,-4.266724 14.52936,-5.226553 l 1.9141,-0.361738 v -6.916943 c 2.36373,-0.305117 4.7743,-0.464052 7.22286,-0.464052 z m -11.92176,1.279499 v 2.365242 c -4.88503,1.108922 -9.6126,2.778919 -14.015694,5.211048 l -0.0026,0.0026 c -5.313469,2.93923 -10.068798,6.733249 -14.123168,11.280958 -4.281725,4.80357 -7.63516,10.27152 -9.953387,16.24605 -2.403924,6.18207 -3.623045,12.71728 -3.623045,19.3988 0,5.46135 0.945753,10.79683 2.554896,15.9453 l -1.768898,1.0268 c -1.75305,-5.413 -2.703698,-11.19182 -2.703698,-17.19895 0,-26.65362 18.642753,-48.839966 43.635054,-54.277312 z m 23.84351,0 c 24.99218,5.437425 43.63456,27.623798 43.63456,54.277318 0,6.00749 -0.95046,11.78668 -2.70373,17.19998 l -1.85467,-1.07694 c 1.59697,-5.13302 2.5368,-10.44924 2.5368,-15.89619 0,-6.67496 -1.21674,-13.20287 -3.61321,-19.37711 v -0.003 c -2.31111,-5.95968 -5.65766,-11.42595 -9.9255,-16.22279 -4.04016,-4.5407 -8.78721,-8.342895 -14.08803,-11.283025 -4.39656,-2.43832 -9.11238,-4.11472 -13.98622,-5.230177 z m 27.04487,90.992378 1.81797,1.05524 c -10.1382,10.94574 -24.64144,17.78651 -40.78459,17.78651 -16.14342,0 -30.646905,-6.84096 -40.785103,-17.78701 l 1.657773,-0.96327 c 4.29305,4.57777 9.364107,8.45854 14.927766,11.26961 v 0.003 c 3.669404,1.85256 7.547534,3.28406 11.545044,4.24418 4.10342,0.98827 8.34443,1.48828 12.59975,1.48828 4.26447,0 8.50423,-0.50866 12.6111,-1.49603 3.99692,-0.95983 7.88233,-2.39075 11.55485,-4.25194 5.56435,-2.81456 10.56196,-6.77151 14.85544,-11.34763 z"
       style="color:#000000;font-style:normal;font-variant:normal;font-weight:normal;font-stretch:normal;font-size:medium;line-height:normal;font-family:sans-serif;font-variant-ligatures:normal;font-variant-position:normal;font-variant-caps:normal;font-variant-numeric:normal;font-variant-alternates:normal;font-feature-settings:normal;text-indent:0;text-align:start;text-decoration:none;text-decoration-line:none;text-decoration-style:solid;text-decoration-color:#000000;letter-spacing:normal;word-spacing:normal;text-transform:none;writing-mode:lr-tb;direction:ltr;text-orientation:mixed;dominant-baseline:auto;baseline-shift:baseline;text-anchor:start;white-space:normal;shape-padding:0;clip-rule:nonzero;display:inline;overflow:visible;visibility:visible;opacity:1;isolation:auto;mix-blend-mode:normal;color-interpolation:sRGB;color-interpolation-filters:linearRGB;solid-color:#000000;solid-opacity:1;vector-effect:none;fill:#000000;fill-opacity:1;fill-rule:nonzero;stroke:none;stroke-width:10.99190521;stroke-linecap:round;stroke-linejoin:bevel;stroke-miterlimit:4;stroke-dasharray:none;stroke-dashoffset:341.41040039;stroke-opacity:1;paint-order:markers stroke fill;color-rendering:auto;image-rendering:auto;shape-rendering:auto;text-rendering:auto;enable-background:accumulate" />
    <path
       transform="matrix(0.26458333,0,0,0.26458333,57.427285,70.189195)"
       id="path12428"
       d=""
       style="fill:#554400;fill-opacity:1;fill-rule:evenodd;stroke-width:11.4537;stroke-miterlimit:10;paint-order:stroke fill markers;stop-color:#000000" />
    <path
       transform="matrix(0.26458333,0,0,0.26458333,57.427285,70.189195)"
       id="path12467"
       d=""
       style="fill:#554400;fill-opacity:1;fill-rule:evenodd;stroke-width:11.4537;stroke-miterlimit:10;paint-order:stroke fill markers;stop-color:#000000" />
    <path
       fill="#010101"
       style="fill:#ffdd55;stroke-width:0.529214;fill-opacity:1"
       id="path20235"
       d="m 158.63812,117.8621 v 0 L 132.28323,98.704529 c -5.18631,-3.757428 -12.11902,-3.757428 -17.30533,0 L 88.517155,117.8621 c -5.18631,3.75743 -7.303163,10.3726 -5.345086,16.40565 l 10.055093,31.11783 c 1.958098,6.08597 7.620688,10.21384 14.024218,10.21384 h 32.65255 c 6.40347,0 12.01316,-4.07495 14.02417,-10.21384 l 10.05509,-31.17073 c 1.9581,-5.98015 -0.21171,-12.59532 -5.34507,-16.35275 z m 1.64055,15.24138 -1.11134,3.49282 c -2.11685,3.81035 -4.65708,4.71001 -6.72103,5.45092 -1.11135,0.37045 -2.64608,0.58212 -4.71,0.58212 h -0.79384 c -3.2282,-0.053 -6.40348,-0.63505 -9.52586,-1.64056 l -3.7045,-1.21719 c -0.52921,-0.15882 -0.79381,-0.7409 -0.63506,-1.21719 0.2646,-0.84674 0.52921,-1.64057 0.79383,-2.48731 0.0528,-0.2646 0.15882,-0.47629 0.10583,-0.7409 -0.10583,-0.63506 -1.00552,-1.05844 -1.4818,-1.42888 -0.42338,-0.31752 -0.84674,-0.58215 -1.27011,-0.89967 -0.42339,-0.31753 -0.52922,-0.95259 -0.21168,-1.37595 l 2.11685,-2.91069 c 1.79933,-2.4873 3.9691,-4.76292 6.4035,-6.6681 2.16978,-1.69349 3.9691,-2.80484 5.29214,-3.17528 1.58764,-0.47631 3.06944,-0.58214 4.02203,-0.58214 h 0.68798 c 1.69349,0.15882 3.33406,0.63506 4.81585,1.42887 0.26461,0.10583 0.42338,0.2646 0.63507,0.37045 l 0.053,0.053 0.053,0.053 0.053,0.053 1.11134,0.84674 0.053,0.053 0.053,0.053 c 1.7464,1.4818 3.01652,3.38697 3.7045,5.55675 0.42339,1.27012 0.58213,2.54023 0.58213,3.81035 0.053,0.84673 -0.10583,1.69349 -0.37045,2.54023 z m -63.029486,31.11783 -0.053,-0.053 v -0.053 l -0.423359,-1.32301 v -0.053 -0.053 -0.10583 c -0.053,-0.21168 -0.105808,-0.47628 -0.158814,-0.74088 -0.899662,-4.92171 0.740906,-7.3561 2.063952,-9.26126 0.899662,-1.32305 2.857747,-2.91069 5.556757,-4.65711 2.38148,-1.53472 4.97462,-2.75191 7.72655,-3.65157 l 3.01651,-0.95259 c 0.52921,-0.15881 1.05843,0.10583 1.21719,0.63506 0.26461,0.89966 0.68798,2.11685 0.89966,2.64608 0.31752,0.74089 0.89969,0.74089 1.53474,0.74089 h 2.2227 c 0.52921,0 0.95258,0.42338 0.95258,0.95259 v 4.07495 c 0,3.54574 -0.52922,7.09148 -1.64056,10.42554 -0.58213,1.7464 -1.21719,3.12236 -1.90518,3.9691 -1.48181,1.9581 -3.22821,3.06944 -3.43989,3.17529 -1.42889,0.89966 -3.01653,1.42889 -4.71002,1.6935 -0.26461,0.053 -0.52922,0.053 -0.74089,0.053 h -0.10583 -0.053 -0.47628 -1.00551 -0.053 -0.053 c -2.2227,-0.15881 -4.39248,-0.95259 -6.24474,-2.27562 -1.905171,-1.27012 -3.281143,-3.06947 -4.127878,-5.18631 z m -6.456423,-24.50264 v 0 c -1.270114,-1.05842 -2.275606,-2.38147 -3.016513,-3.86328 l -0.899662,-2.69898 c -0.105807,-0.2646 -0.158814,-0.58213 -0.2117,-0.84674 -0.264603,-1.85227 -0.158813,-3.81034 0.476304,-5.60968 0.687983,-2.16979 2.011022,-4.07496 3.704496,-5.55675 l 0.053,-0.053 0.053,-0.053 1.11134,-0.84674 0.053,-0.053 0.053,-0.053 0.053,-0.053 c 0.211679,-0.10583 0.423378,-0.26461 0.635057,-0.37046 1.958098,-1.05841 3.810346,-1.58764 5.609665,-1.58764 1.534722,0 2.804832,0.37046 3.916212,0.68798 1.16427,0.37046 2.69899,1.21719 4.44542,2.54024 2.69898,2.01101 5.02752,4.44539 6.98563,7.1444 l 2.27563,3.12237 c 0.31753,0.42337 0.21168,1.05843 -0.21171,1.37596 -0.79381,0.58213 -1.90516,1.37595 -2.32852,1.69347 -0.63506,0.52924 -0.31754,1.2172 -0.10583,1.85225 0.21168,0.63506 0.42337,1.32305 0.63505,1.9581 0.15881,0.52923 -0.10583,1.05844 -0.63505,1.2172 l -3.6516,1.2172 c -3.06943,1.00549 -6.24472,1.58764 -9.47295,1.64055 h -0.793821 c -2.063952,0 -3.59867,-0.21168 -4.71001,-0.58213 -2.011022,-0.63506 -3.545742,-1.79932 -4.022046,-2.22271 z m 38.844389,-38.05055 c 0.10582,0.053 0.21168,0.15882 0.31753,0.2117 l 1.79932,1.32305 c 0.10583,0.053 0.15881,0.15882 0.26461,0.21168 3.65158,3.49281 3.70451,6.4035 3.81034,8.78495 0.053,1.37598 -0.42335,3.4399 -1.32302,5.92721 -1.05844,2.91068 -2.54023,5.66259 -4.3925,8.20282 l -2.16978,3.01654 c -0.31752,0.42337 -0.95259,0.5292 -1.37594,0.21167 -0.84676,-0.63506 -2.06395,-1.53472 -2.4344,-1.7464 -0.74089,-0.31752 -1.37595,0.37046 -1.9581,0.7409 -0.47629,0.31752 -0.89966,0.63505 -1.37595,1.0055 -0.42337,0.37046 -1.05843,0.2646 -1.42888,-0.15881 l -2.2227,-3.01653 c -1.85225,-2.54023 -3.33405,-5.29214 -4.39248,-8.20283 -0.89966,-2.4873 -1.37597,-4.55126 -1.32305,-5.9272 0.053,-2.43438 0.84676,-4.39247 0.89967,-4.60415 0.63505,-1.58765 1.58764,-2.96362 2.85776,-4.1808 0.10583,-0.10583 0.15881,-0.15882 0.26462,-0.21171 l 1.79932,-1.32303 c 0.10583,-0.053 0.21168,-0.15881 0.31753,-0.21169 1.85225,-1.05843 3.9162,-1.58765 6.03305,-1.58765 v 0 c 2.11685,-0.10583 4.1808,0.4763 6.03305,1.53472 z m 21.64489,59.27206 -1.05844,3.28113 c -1.42888,4.49833 -5.55675,7.51484 -10.26677,7.51484 h -4.4454 c -3.49282,-0.95259 -4.97462,-2.85775 -6.19181,-4.44541 -1.32304,-1.74639 -2.54023,-5.50381 -3.59867,-10.53135 -0.053,-0.21169 -0.053,-0.4763 -0.053,-0.68798 v -8.25574 c 0,-0.053 0.053,-0.10583 0.10583,-0.10583 1.21718,0 2.43438,0 3.65159,-0.053 0.68796,-0.053 0.95259,-0.42335 1.16426,-1.05842 0.31753,-0.95258 0.89966,-2.75193 1.05844,-3.22821 0,-0.053 0.053,-0.053 0.10583,-0.053 l 7.19734,2.32855 c 0.21168,0.0528 0.42336,0.15881 0.58213,0.2646 4.81586,2.64606 8.20282,5.13339 9.52586,6.98564 1.37595,2.011 1.90517,4.07494 1.9581,4.28663 0.26461,1.27012 0.37044,2.54023 0.26461,3.75742 z" />
    <g
       transform="matrix(0.26458333,0,0,0.26458333,11.909228,130.9926)"
       id="g20237">
      <path
         id="path20215"
         d="m 94.7,112.4 h 11.1 c 0.7,0 1.2,-0.8 0.7,-1.5 -1.9,-2.6 -3.7,-5.1 -5.6,-7.7 -0.4,-0.5 -1.1,-0.5 -1.5,0 -1.9,2.6 -3.7,5.1 -5.6,7.7 -0.3,0.7 0.2,1.5 0.9,1.5 z"
         fill="none" />
      <path
         id="path20217"
         d="m 111.2,108.8 c 1.1,-3.5 2.3,-7.1 3.4,-10.6 0.2,-0.7 -0.4,-1.4 -1.2,-1.2 -3,1 -6,1.9 -9,2.9 -0.6,0.2 -0.8,0.9 -0.5,1.4 1.9,2.6 3.7,5.1 5.6,7.7 0.5,0.7 1.4,0.6 1.7,-0.2 z"
         fill="none" />
      <path
         id="path20219"
         d="m 32.6,94.4 c 1.4,2.8 3.3,5.3 5.7,7.3 v 0 c 0.9,0.8 3.8,3 7.8,4.4 2.1,0.7 5,1.1 8.9,1.1 0.5,0 1,0 1.5,0 6.1,-0.1 12.1,-1.2 17.9,-3.1 l 6.9,-2.3 c 1,-0.3 1.5,-1.4 1.2,-2.3 -0.4,-1.2 -0.8,-2.5 -1.2,-3.7 -0.4,-1.2 -1,-2.5 0.2,-3.5 0.7,-0.6 2.8,-2.1 4.4,-3.2 0.8,-0.6 1,-1.8 0.4,-2.6 L 82,80.5 C 78.3,75.4 73.9,70.8 68.8,67 65.4,64.5 62.6,62.9 60.4,62.2 58.3,61.6 55.9,60.9 53,60.9 c -3.4,0 -6.9,1 -10.6,3 -0.5,0.2 -0.9,0.5 -1.2,0.7 l -0.1,0.1 -0.1,0.1 -0.1,0.1 -2.1,1.6 -0.1,0.1 -0.1,0.1 c -3.3,2.8 -5.7,6.4 -7,10.5 -1.1,3.4 -1.4,7.1 -0.9,10.6 0.1,0.5 0.3,1.1 0.4,1.6 z"
         fill="none" />
      <path
         id="path20221"
         d="m 73.1,162.2 h 0.2 c 0.4,0 0.9,-0.1 1.4,-0.1 3.2,-0.4 6.2,-1.5 8.9,-3.2 0.4,-0.2 3.7,-2.3 6.5,-6 1.2,-1.6 2.4,-4.2 3.6,-7.5 2.1,-6.3 3.1,-13 3.1,-19.7 V 118 c 0,-1 -0.8,-1.8 -1.8,-1.8 h -4.2 c -1.3,0 -2.4,0 -2.9,-1.4 -0.4,-1 -1.1,-3.3 -1.7,-5 -0.3,-1 -1.4,-1.5 -2.3,-1.2 l -5.7,1.8 c -5.1,1.7 -10,4 -14.6,6.9 -5.1,3.3 -8.8,6.3 -10.5,8.8 -2.5,3.6 -5.7,8.2 -3.9,17.5 0.1,0.5 0.2,1 0.3,1.4 v 0.2 0.1 0.1 l 0.8,2.5 v 0.1 l 0.1,0.1 c 1.6,3.9 4.3,7.3 7.7,9.9 3.5,2.5 7.5,4 11.8,4.3 h 0.1 0.1 1.9 1 z"
         fill="none" />
      <path
         id="path20223"
         d="m 84.9,32.6 c -0.2,0.1 -0.3,0.3 -0.5,0.4 -2.4,2.3 -4.2,5 -5.4,7.9 -0.2,0.4 -1.6,4.1 -1.7,8.7 -0.1,2.6 0.8,6.5 2.5,11.2 2,5.5 4.8,10.7 8.3,15.5 l 4.2,5.7 c 0.6,0.9 1.8,1 2.7,0.3 0.9,-0.6 1.7,-1.2 2.6,-1.9 1,-0.7 2.2,-2.1 3.7,-1.4 0.8,0.4 3,2.1 4.6,3.3 0.8,0.6 2,0.5 2.6,-0.4 l 4.1,-5.7 c 3.5,-4.8 6.3,-10 8.3,-15.5 1.7,-4.7 2.6,-8.6 2.5,-11.2 -0.1,-4.5 -0.2,-10 -7.2,-16.6 -0.2,-0.2 -0.3,-0.3 -0.5,-0.4 L 112.3,30 c -0.2,-0.1 -0.4,-0.3 -0.6,-0.4 -3.5,-2 -7.4,-3 -11.4,-3 v 0 c -4,0 -7.9,1.1 -11.4,3 -0.2,0.1 -0.4,0.3 -0.6,0.4 z"
         fill="none" />
      <path
         id="path20225"
         d="m 85.9,98.3 c 1.1,3.5 2.3,7.1 3.4,10.6 0.2,0.7 1.2,0.9 1.6,0.3 1.9,-2.6 3.7,-5.1 5.6,-7.7 0.4,-0.5 0.1,-1.2 -0.5,-1.4 l -9,-2.9 c -0.6,-0.3 -1.3,0.4 -1.1,1.1 z"
         fill="none" />
      <path
         id="path20227"
         d="m 97.4,96.5 c 0.6,0.2 1.2,-0.2 1.2,-0.9 0,-3.2 0,-6.3 0,-9.5 0,-0.7 -0.8,-1.2 -1.4,-0.7 l -9,6.5 c -0.6,0.4 -0.5,1.4 0.3,1.6 2.9,1.1 5.9,2.1 8.9,3 z"
         fill="none" />
      <path
         id="path20229"
         d="m 103.5,96.5 9,-2.9 c 0.7,-0.2 0.9,-1.2 0.3,-1.6 -3,-2.2 -6,-4.4 -9,-6.5 -0.6,-0.4 -1.4,0 -1.5,0.7 0,3.2 0,6.3 0,9.5 0,0.6 0.6,1 1.2,0.8 z"
         fill="none" />
      <path
         id="path20231"
         d="m 150.6,148 2,-6.2 c 0.2,-2.4 0,-4.7 -0.6,-7.1 -0.1,-0.4 -1.1,-4.3 -3.7,-8.1 -2.4,-3.5 -8.9,-8.2 -18,-13.2 -0.4,-0.2 -0.7,-0.4 -1.1,-0.5 l -13.6,-4.4 c -0.1,0 -0.2,0 -0.2,0.1 -0.3,0.8 -1.4,4.3 -2,6.1 -0.4,1.1 -0.9,1.9 -2.2,2 -2.3,0.1 -4.6,0.1 -6.9,0.1 -0.1,0 -0.2,0.1 -0.2,0.2 v 15.6 c 0,0.4 0,0.9 0.1,1.3 1.9,9.5 4.3,16.6 6.8,19.9 2.3,3 5.1,6.6 11.7,8.4 h 8.4 c 8.9,0 16.8,-5.7 19.5,-14.2 z"
         fill="none" />
      <path
         id="path20233"
         d="m 170.5,84.3 c 0,-2.4 -0.3,-4.9 -1.1,-7.2 -1.3,-4.1 -3.8,-7.7 -7,-10.5 l -0.1,-0.1 -0.1,-0.1 -2.1,-1.6 -0.1,-0.1 -0.1,-0.1 -0.1,-0.1 c -0.4,-0.2 -0.8,-0.5 -1.2,-0.7 -2.9,-1.5 -5.9,-2.5 -9.1,-2.7 -0.1,0 -0.6,0 -1.3,0 -1.8,0 -4.6,0.2 -7.6,1.1 -2.5,0.8 -6,2.9 -10,6 -4.6,3.6 -8.7,7.9 -12.1,12.6 l -4,5.5 c -0.6,0.8 -0.4,2 0.4,2.6 0.8,0.6 1.6,1.1 2.4,1.7 0.9,0.6 2.5,1.5 2.8,2.7 0.1,0.5 -0.1,0.9 -0.2,1.4 -0.5,1.6 -1,3.1 -1.5,4.7 -0.3,1 0.2,2 1.2,2.3 l 7,2.3 c 5.8,1.9 11.9,3 18,3.1 0.5,0 1,0 1.5,0 3.9,0 6.8,-0.4 8.9,-1.1 3.9,-1.4 8.8,-3.1 12.7,-10.3 l 2.1,-6.6 c 0.3,-1.5 0.6,-3.1 0.7,-4.8 z"
         fill="none" />
    </g>
    <path
       id="path25473"
       d="m 119.76489,132.48903 c 6.5e-4,-1.36341 0.10333,-2.11878 0.34662,-2.55166 0.20984,-0.37335 0.71162,-0.74624 1.24947,-0.92851 0.61198,-0.20738 2.08547,-0.29475 3.67584,-0.21793 1.29806,0.0627 1.46025,0.0878 1.87381,0.29014 0.5952,0.29121 0.98628,0.67012 1.11077,1.07621 0.0565,0.18421 0.11947,1.02982 0.14296,1.91888 l 0.042,1.58955 h -4.22105 -4.22105 z"
       style="fill:#bcbdc1;fill-opacity:1;fill-rule:evenodd;stroke:none;stroke-width:0.31209;stroke-linecap:round;stroke-linejoin:round;stroke-miterlimit:4;stroke-dasharray:none;paint-order:normal;stop-color:#000000" />
    <path
       id="path25473-2"
       d="m 119.75577,140.8427 c 6.5e-4,1.36341 0.10333,2.11878 0.34662,2.55166 0.20984,0.37335 0.71162,0.74624 1.24947,0.92851 0.61198,0.20738 2.08547,0.29475 3.67584,0.21793 1.29806,-0.0627 1.46025,-0.0878 1.87381,-0.29014 0.5952,-0.29121 0.98628,-0.67012 1.11077,-1.07621 0.0565,-0.18421 0.11947,-1.02982 0.14296,-1.91888 l 0.042,-1.58955 h -4.22105 -4.22105 z"
       style="fill:#d6b48e;fill-opacity:1;fill-rule:evenodd;stroke:none;stroke-width:0.31209;stroke-linecap:round;stroke-linejoin:round;stroke-miterlimit:4;stroke-dasharray:none;paint-order:normal;stop-color:#000000" />
    <path
       id="path13362"
       d="m 121.51036,151.63752 c -5.93032,-0.40101 -7.31388,-2.28975 -7.93493,-6.05353 -0.0703,-0.42623 -0.12714,-4.45257 -0.12624,-8.9474 0.001,-6.66735 0.04,-8.35347 0.20984,-9.15537 0.66591,-3.14369 1.33343,-4.80145 5.90643,-5.50908 1.83346,-0.28371 6.70307,-0.32475 8.46975,-0.0714 3.78393,0.54268 4.7243,1.88694 5.6961,3.87322 0.73325,1.49871 0.77012,2.01754 0.77188,10.8626 8.4e-4,4.49483 -0.0559,8.52117 -0.12624,8.9474 -0.40091,2.42961 -0.22833,4.12035 -2.61434,5.0209 -1.47783,0.55778 -3.25678,0.8933 -5.51062,1.03933 -2.26322,0.14663 -2.47867,0.14632 -4.74163,-0.006 z m 5.0752,-7.18886 c 1.13651,-0.56915 1.25797,-0.84325 1.31192,-2.96065 l 0.0464,-1.82199 h -3.95653 -3.95651 v 1.59055 c 0,1.37019 0.044,1.67718 0.31703,2.21601 0.55515,1.09527 1.49382,1.41433 3.99051,1.35642 1.32789,-0.0308 1.66213,-0.0874 2.24715,-0.38034 z m 1.33595,-12.35843 c 0,-1.97268 -0.18121,-2.44749 -1.14125,-2.99041 -0.54422,-0.30778 -0.82619,-0.35709 -2.30561,-0.40322 -2.0406,-0.0636 -3.00863,0.12267 -3.67425,0.7071 -0.61554,0.54045 -0.76777,1.11477 -0.76875,2.90008 l -8.4e-4,1.44426 h 3.94532 3.94533 z"
       style="fill:#000000;fill-rule:evenodd;stroke:#ffffff;stroke-width:1;stroke-linecap:round;stroke-linejoin:round;stroke-miterlimit:4;stroke-dasharray:none;paint-order:normal" />
  </g>
</svg>
