<?xml version="1.0" encoding="UTF-8"?>
<!-- Created with Inkscape (http://www.inkscape.org/) -->
<svg width="133.1mm" height="133.1mm" version="1.1" viewBox="0 0 133.1 133.1" xmlns="http://www.w3.org/2000/svg" xmlns:cc="http://creativecommons.org/ns#" xmlns:dc="http://purl.org/dc/elements/1.1/" xmlns:rdf="http://www.w3.org/1999/02/22-rdf-syntax-ns#">
 <defs>
  <clipPath id="clipPath57652">
   <path d="m-209.35 366.12c-633.61-156.99-1195.4-330.51-1635.8-505.2-91.377-36.253-171.45-67.11-177.93-68.571-6.4851-1.4617-81.551-12.053-166.81-23.537-85.261-11.484-158.07-21.567-161.8-22.407-26.854-6.0527-383.56-189.46-381.99-196.41 0.1831-0.81227 75.617 8.6318 167.63 20.985 92.014 12.353 163.44 20.008 158.71 17.011-83.844-53.227-163.99-145.45-156.25-179.8l4.802-21.305 5630.7 1269.1-4.4518 19.208c-6.4892 28.248-74.372 64.174-155.93 82.549-39.38 8.8717-69.573 16.819-67.098 17.66 2.4774 0.84188 74.561 23.95 160.19 51.352 85.626 27.403 155.52 50.547 155.32 51.431-1.1191 4.965-187.24 14.401-295.23 14.968l-125.85 0.66121-333.3-104.65-167.52-10.452c-398.84-24.885-908.6-93.756-1449.7-195.86-267.3-50.438-748.35-154.93-997.78-216.73z" fill="none" stroke="#008000" stroke-width="46.436"/>
  </clipPath>
 </defs>
 <metadata>
  <rdf:RDF>
   <cc:Work rdf:about="">
    <dc:format>image/svg+xml</dc:format>
    <dc:type rdf:resource="http://purl.org/dc/dcmitype/StillImage"/>
   </cc:Work>
  </rdf:RDF>
 </metadata>
 <g transform="translate(-57.427 -70.189)">
  <ellipse cx="130.94" cy="135.67" rx=".18899" ry=".66146" stroke-width=".26458"/>
  <g fill="#fff" fill-opacity=".99216" fill-rule="evenodd" stroke-width="5.3993">
   <path transform="matrix(.26458 0 0 .26458 57.427 70.189)" d="m225.71 459.26c-43.865-6.0884-84.333-25.036-116.19-54.403-9.1404-8.4252-10.776-10.552-8.9144-11.593 1.7382-0.97277 4.7683 0.97876 12.765 8.2212 30.82 27.914 66.482 45.225 105.89 51.405 19.138 3.0008 56.728 2.2602 73.592-1.45 36.423-8.013 68.678-24.753 94.504-49.047 8.9563-8.4247 11.722-10.278 14.175-9.4991 2.8981 0.91981 2.777 1.2496-2.4586 6.6969-9.413 9.7937-27.708 23.926-41.177 31.808-21.703 12.7-43.491 20.953-68.007 25.758-14.071 2.7581-50.792 3.9614-64.18 2.1032z"/>
   <path transform="matrix(.26458 0 0 .26458 57.427 70.189)" d="m447.25 312.99c-1.2871-1.5509-1.0195-4.5676 1.1724-13.214 6.5933-26.009 7.5603-61.935 2.3395-86.919-16.022-76.671-70.564-135.23-145.3-156.01-7.107-1.9759-8.3206-2.8001-8.3206-5.6506 0-4.3687 1.2883-4.2654 18.945 1.5185 52.673 17.254 97.837 56.125 122.72 105.62 7.6975 15.31 16.162 41.414 19.07 58.808 4.4933 26.884 2.6178 63.862-4.5465 89.643-2.3854 8.584-3.3174 9.5349-6.0814 6.2046z"/>
   <path transform="matrix(.26458 0 0 .26458 57.427 70.189)" d="m48.851 303.21c-5.142-20.694-6.4015-34.082-5.587-59.392 0.59261-18.416 1.5789-27.262 4.346-38.981 16.976-71.892 69.498-129.31 139.16-152.13 17.674-5.7896 18.945-5.89 18.945-1.4963 0 2.9419-1.1984 3.6779-9.6429 5.9221-62.528 16.618-115.36 66.241-136.7 128.39-12.343 35.955-14.252 79.561-5.0496 115.34 1.9428 7.5529 2.2594 10.943 1.1472 12.283-2.7666 3.3336-3.6557 1.9996-6.6211-9.9348z"/>
  </g>
  <path transform="matrix(.26458 0 0 .26458 57.427 70.189)" d="m227.34 434.91c-41.512-5.764-78.8-24.821-108.57-55.483-6.1771-6.3632-11.577-11.569-12-11.569-0.42285 0-5.2289 2.5714-10.68 5.7143-5.4512 3.1429-10.11 5.7143-10.353 5.7143-1.751 0-26.45-41.866-26.45-44.834 0-0.34654 4.8129-3.4184 10.695-6.8264 5.8824-3.408 10.421-6.8392 10.086-7.6249-5.947-13.952-12.21-44.091-12.21-58.759v-9.0986h367.14l-6e-3 8.2143c-9e-3 12.074-3.7174 32.893-8.5214 47.832-2.3195 7.2127-4.0819 13.208-3.9165 13.323s4.9615 2.9039 10.658 6.1971c5.6964 3.2932 10.357 6.2968 10.357 6.6746 0 2.1203-11.417 23.004-18.11 33.126l-7.7997 11.796-22.146-12.002-10.541 11.097c-25.097 26.42-57.691 45.125-92.695 53.193-17.291 3.9857-48.603 5.5838-64.945 3.3147z" fill="none" stroke-width="7.559"/>
  <g>
   <path d="m117.05 187.9c-11.564-1.5981-21.951-6.8817-30.242-15.383-1.7207-1.7643-3.2249-3.2077-3.3427-3.2077-0.11779 0-1.4566 0.71296-2.9751 1.5843-1.5185 0.8714-2.8163 1.5844-2.884 1.5844-0.48776 0-7.3679-11.608-7.3679-12.431 0-0.0962 1.3407-0.94781 2.9793-1.8927s2.903-1.8962 2.8097-2.1141c-1.6566-3.8683-3.4013-12.225-3.4013-16.291v-2.5227h102.27l-2e-3 2.2775c-2e-3 3.3478-1.0355 9.12-2.3737 13.262-0.64612 1.9998-1.137 3.6621-1.091 3.6941 0.0461 0.032 1.3821 0.80513 2.9689 1.7182 1.5868 0.91308 2.8851 1.7459 2.8851 1.8506 0 0.58788-3.1803 6.378-5.0447 9.1846l-2.1727 3.2706-6.1689-3.3276-2.9363 3.0768c-6.991 7.3253-16.071 12.511-25.821 14.748-4.8168 1.1051-13.539 1.5482-18.091 0.91903z" fill="#dc143c" fill-rule="evenodd" stroke-width="2.1008"/>
   <path d="m70.703 134.52c0.77817-12.92 5.8756-24.757 14.622-33.956 4.7061-4.9494 9.1541-8.196 15.433-11.265 4.3489-2.1254 7.8151-3.3318 12.241-4.2604l3.0973-0.6499v-7.4693l1.0956-0.23213c1.4234-0.3016 12.162-0.3016 13.585 0l1.0956 0.23213v7.4895l2.5563 0.50639c10.907 2.1606 21.723 8.386 29.206 16.811 7.8876 8.8795 12.822 20.64 13.432 32.013l0.17884 3.3372h-106.7zm61.169 0.94949c0-0.4017-0.13146-0.73037-0.29215-0.73037-0.16068 0-0.29215 0.32867-0.29215 0.73037 0 0.40171 0.13147 0.73038 0.29215 0.73038 0.16069 0 0.29215-0.32867 0.29215-0.73038z" fill="#fff"/>
   <path transform="matrix(.017285 -.022735 .0038959 .10087 119.28 148.05)" d="m-30-92.857 623.89 142.29-435.17 469.16z" clip-path="url(#clipPath57652)" fill="#dc143c" stroke="#000" stroke-linecap="round" stroke-width=".37795"/>
   <path d="m117.16 164.75c-17.796-2.1862-32.111-11.176-38.066-23.905-1.493-3.1916-1.5207-3.4052-0.71434-5.5154 4.0293-10.545 15.358-19.769 28.988-23.604 3.6693-1.0323 8.0349-1.8152 11.323-2.0308l2.6109-0.1711v-7.5892l-2.8511-0.17445c-1.5681-0.0959-2.8982-0.22156-2.9558-0.27914-0.23908-0.23908 7.2781-14.755 8.1464-15.731 0.39649-0.44564 0.4316-0.44564 0.73925 0 0.43945 0.63656 8.1465 15.703 8.1465 15.926 0 0.0975-1.323 0.17729-2.94 0.17729h-2.94v7.6705l2.6059 0.17313c18.121 1.2039 35.109 12.005 40.317 25.633 0.80637 2.1102 0.77871 2.3238-0.71433 5.5154-5.4536 11.658-18.26 20.44-33.934 23.271-4.1881 0.75633-7.8443 1.1388-7.84 0.67131 2e-3 -0.20396 0.79338-4.736 1.3057-9.8809 0.51235-5.1449 0.93178-9.5048 0.93207-9.6885 5.3e-4 -0.25586-1.2197-0.33408-5.2112-0.33408h-5.2118l8e-4 0.73499c1e-3 0.80512 1.494 16.344 1.7462 18.174l0.15657 1.1359-1.4195-0.04c-0.78069-0.022-1.7803-0.0844-2.2213-0.13855zm-3.2214-7.0009c-10.263-4.9876-15.218-16.808-11.597-27.663 1.9353-5.8023 5.8494-10.324 11.429-13.202l2.3205-1.1971-1.47 0.19473c-2.3284 0.30845-7.1112 1.5855-10.023 2.6762-8.2715 3.0987-14.8 8.0032-19.031 14.298-1.0545 1.5686-2.2168 3.8802-2.2168 4.4087 0 0.64976 1.4187 3.2824 2.8991 5.3799 5.1295 7.2676 14.822 13.106 25.696 15.478 4.0768 0.8893 4.4485 0.81966 1.9933-0.37356zm21.612 0.47041c10.487-2.1629 20.356-7.8621 25.567-14.763 1.4213-1.8825 3.4833-5.5086 3.4833-6.1255 0-0.58582-1.1132-2.8327-2.2168-4.4744-4.2316-6.2948-10.76-11.199-19.031-14.298-2.9114-1.0907-7.6942-2.3677-10.023-2.6762l-1.47-0.19473 2.3205 1.1971c5.5799 2.8786 9.494 7.3997 11.429 13.202 3.6185 10.849-1.4445 22.805-11.748 27.743-2.3006 1.1025-2.0479 1.161 1.6884 0.39033z" fill="#371d00" fill-rule="evenodd" stop-color="#000000" style="paint-order:stroke fill markers"/>
   <path d="m123.98 70.438c-36.689 0-66.549 29.86-66.549 66.549s29.86 66.549 66.549 66.549c36.689 0 66.549-29.86 66.549-66.549s-29.86-66.549-66.549-66.549zm0 10.992c2.4486 0 4.8586 0.15894 7.2223 0.46405v6.9345l1.9105 0.36327c5.0854 0.96618 9.95 2.7272 14.496 5.2483v-0.0026c4.8392 2.684 9.1641 6.1498 12.856 10.299 3.9012 4.3848 6.9459 9.3584 9.0547 14.797v3e-3h3e-3c2.1873 5.6347 3.2949 11.573 3.2949 17.678 0 5.5952-0.93308 11.053-2.7673 16.256l-0.64648 1.8355 5.7707 3.3512c-1.8958 4.4884-4.3659 8.6714-7.3153 12.462l-5.7371-3.3285-1.2754 1.4609c-4.1513 4.7649-9.2848 8.7781-14.875 11.606l-3e-3 3e-3c-3.347 1.6964-6.8913 3.0015-10.53 3.8752-3.7478 0.90103-7.6222 1.3648-11.514 1.3648-3.8867 0-7.7604-0.45892-11.498-1.3591h-3e-3c-3.6376-0.87357-7.1754-2.1777-10.525-3.869-5.5844-2.8216-10.718-6.8222-14.861-11.578l-1.2738-1.463-5.6632 3.2887c-2.9497-3.7906-5.4189-7.9735-7.3147-12.462l5.6927-3.3042-0.65267-1.8376c-1.847-5.2148-2.7848-10.693-2.7848-16.301 0-6.1125 1.107-12.057 3.3006-17.698h0.0026v-3e-3c2.1154-5.4518 5.165-10.426 9.08-14.818 3.7042-4.155 8.0354-7.6117 12.889-10.297 4.5516-2.5142 9.4298-4.2667 14.529-5.2266l1.9141-0.36174v-6.9169c2.3637-0.30512 4.7743-0.46405 7.2229-0.46405zm-11.922 1.2795v2.3652c-4.885 1.1089-9.6126 2.7789-14.016 5.211l-0.0026 0.0026c-5.3135 2.9392-10.069 6.7332-14.123 11.281-4.2817 4.8036-7.6352 10.272-9.9534 16.246-2.4039 6.1821-3.623 12.717-3.623 19.399 0 5.4614 0.94575 10.797 2.5549 15.945l-1.7689 1.0268c-1.753-5.413-2.7037-11.192-2.7037-17.199 0-26.654 18.643-48.84 43.635-54.277zm23.844 0c24.992 5.4374 43.635 27.624 43.635 54.277 0 6.0075-0.95046 11.787-2.7037 17.2l-1.8547-1.0769c1.597-5.133 2.5368-10.449 2.5368-15.896 0-6.675-1.2167-13.203-3.6132-19.377v-3e-3c-2.3111-5.9597-5.6577-11.426-9.9255-16.223-4.0402-4.5407-8.7872-8.3429-14.088-11.283-4.3966-2.4383-9.1124-4.1147-13.986-5.2302zm27.045 90.992 1.818 1.0552c-10.138 10.946-24.641 17.787-40.785 17.787-16.143 0-30.647-6.841-40.785-17.787l1.6578-0.96327c4.293 4.5778 9.3641 8.4585 14.928 11.27v3e-3c3.6694 1.8526 7.5475 3.2841 11.545 4.2442 4.1034 0.98827 8.3444 1.4883 12.6 1.4883 4.2645 0 8.5042-0.50866 12.611-1.496 3.9969-0.95983 7.8823-2.3908 11.555-4.2519 5.5644-2.8146 10.562-6.7715 14.855-11.348z" color="#000000" color-rendering="auto" dominant-baseline="auto" image-rendering="auto" shape-rendering="auto" solid-color="#000000" style="font-feature-settings:normal;font-variant-alternates:normal;font-variant-caps:normal;font-variant-ligatures:normal;font-variant-numeric:normal;font-variant-position:normal;isolation:auto;mix-blend-mode:normal;paint-order:markers stroke fill;shape-padding:0;text-decoration-color:#000000;text-decoration-line:none;text-decoration-style:solid;text-indent:0;text-orientation:mixed;text-transform:none;white-space:normal"/>
  </g>
  <g transform="translate(-131.5 -10.156)" stroke="#fff">
   <path d="m240.25 161.12c0.98778 0 1.4224-0.43462 1.4224-1.4224v-4.7808c0-0.98777-0.43462-1.4224-1.4224-1.4224h-3.7931v-19.4c0-0.98777-0.43462-1.4224-1.4224-1.4224h-11.458c-0.98778 0-1.4224 0.43463-1.4224 1.4224v4.7808c0 0.98777 0.43462 1.4224 1.4224 1.4224h3.635v13.197h-4.4252c-0.98778 0-1.4224 0.43463-1.4224 1.4224v4.7808c0 0.98778 0.43462 1.4224 1.4224 1.4224z"/>
   <path d="m265.02 161.12c0.98778 0 1.4224-0.43462 1.4224-1.4224v-4.6228c0-0.98778-0.43462-1.4224-1.4224-1.4224h-11.261v-0.82973c0-0.86925 0.23707-0.94827 1.0273-1.1853l5.3735-1.699c3.8326-1.1853 6.1637-3.0028 6.1637-6.9935v-3.714c0-4.2672-2.4497-6.5588-6.954-6.5588h-11.656c-0.98778 0-1.4224 0.43463-1.4224 1.4224v4.6228c0 0.98778 0.43462 1.4224 1.4224 1.4224h8.5739c0.79022 0 1.0668 0.23707 1.0668 1.0273 0 0.86925-0.23707 1.1853-1.0668 1.4224l-5.2945 1.6595c-3.635 1.1063-6.2032 2.5287-6.2032 8.6529v6.7959c0 0.98778 0.43462 1.4224 1.4224 1.4224z"/>
   <path d="m294.89 153.65v-13.473c0-4.8204-2.3312-8.0998-12.051-8.0998s-12.09 3.2794-12.09 8.0998v13.473c0 4.8204 2.3707 8.0603 12.09 8.0603s12.051-3.2399 12.051-8.0603zm-15.212-1.4224v-10.628c0-1.0273 0.47413-1.8175 3.1609-1.8175 2.7263 0 3.1609 0.79022 3.1609 1.8175v10.628c0 1.0668-0.43463 1.857-3.1609 1.857-2.6868 0-3.1609-0.79022-3.1609-1.857z"/>
  </g>
  <path d="m122.37 186.13-0.27121-0.0277-0.41579-5.8934c-0.63869-9.0527-0.87145-13.054-0.87821-15.098l-1e-3 -0.31739h6.2808l-1.6e-4 0.18375c-9e-5 0.10107-0.0595 0.80014-0.13213 1.5535-0.23322 2.4206-0.5189 6.3523-1.0365 14.266-0.12981 1.9845-0.26049 3.9763-0.2904 4.4262-0.0299 0.44993-0.0771 0.84081-0.10486 0.86863-0.0534 0.0535-2.6886 0.0856-3.1505 0.0384z" fill="#371d00" fill-rule="evenodd" stop-color="#000000" style="paint-order:stroke fill markers"/>
 </g>
</svg>
