<?xml version="1.0" encoding="UTF-8"?>
<!-- Created with Inkscape (http://www.inkscape.org/) -->
<svg width="133.1mm" height="133.1mm" version="1.1" viewBox="0 0 133.1 133.1" xmlns="http://www.w3.org/2000/svg" xmlns:cc="http://creativecommons.org/ns#" xmlns:dc="http://purl.org/dc/elements/1.1/" xmlns:rdf="http://www.w3.org/1999/02/22-rdf-syntax-ns#">
 <title>Site-34</title>
 <defs>
  <style type="text/css"><![CDATA[
    .str0 {stroke:#810281;stroke-width:0.689262}
    .str1 {stroke:#810281;stroke-width:0.450462}
    .fil2 {fill:none;fill-rule:nonzero}
    .fil3 {fill:#810281}
    .fil1 {fill:#FFE000}
    .fil0 {fill:white}
   ]]></style>
  <clipPath id="clipPath3302">
   <path d="m117.71 188.06c-1.1059-0.1286-3.4694-0.56099-5.2523-0.96085-9.7341-2.1832-17.966-6.8526-25.403-14.41l-3.3392-3.393-2.8411 1.651c-1.5626 0.90802-2.9552 1.5805-3.0946 1.4943-1.1047-0.68272-7.3587-11.677-7.0702-12.429 0.07775-0.20259 1.3842-1.0721 2.9032-1.9322l2.7619-1.5638-0.95332-2.8201c-1.6879-4.9932-2.3382-8.8041-2.511-14.717-0.26777-9.1588 1.1391-15.8 5.0405-23.794 6.8162-13.966 18.996-23.703 34.281-27.406 1.5325-0.37128 3.0665-0.67522 3.4089-0.67542 0.61449-3.71e-4 0.62251-0.048 0.62251-3.6969v-3.6965l1.4525-0.17447c1.88-0.22581 10.155-0.22581 12.035 0l1.4525 0.17447v7.2858l2.5592 0.48496c5.9035 1.1187 12.947 4.0615 18.227 7.6157 11.732 7.8964 19.348 19.615 21.992 33.836 0.6792 3.6541 0.80783 11.081 0.25973 14.997-0.50139 3.5824-1.7045 8.5749-2.6357 10.937-0.46947 1.1911-0.51578 1.5398-0.22908 1.7252 0.19764 0.12779 1.5653 0.91955 3.0392 1.7595l2.6798 1.5272-0.70014 1.5853c-1.3219 2.993-5.5748 10.006-6.5677 10.83-0.247 0.20499-1.1383-0.17582-3.2015-1.3678-1.5726-0.90854-2.9338-1.6433-3.0249-1.6328s-0.91268 0.88827-1.8257 1.9505c-4.8474 5.6398-12.692 11.022-20.292 13.922-6.9852 2.6657-16.143 3.78-23.773 2.8927z" fill="#fff" fill-rule="evenodd" stroke-miterlimit="2.613" stroke-width="1.0457"/>
  </clipPath>
 </defs>
 <metadata>
  <rdf:RDF>
   <cc:Work rdf:about="">
    <dc:format>image/svg+xml</dc:format>
    <dc:type rdf:resource="http://purl.org/dc/dcmitype/StillImage"/>
    <dc:title>Site-34</dc:title>
   </cc:Work>
  </rdf:RDF>
 </metadata>
 <g transform="translate(-57.427 -70.189)">
  <path d="m117.92 187.76c-1.1059-0.1286-3.4694-0.56099-5.2523-0.96086-9.7341-2.1832-17.966-6.8526-25.403-14.41l-3.3392-3.393-2.8411 1.651c-1.5626 0.90803-2.9552 1.5805-3.0946 1.4943-1.1047-0.68273-7.3587-11.677-7.0702-12.429 0.07775-0.2026 1.3842-1.0721 2.9032-1.9322l2.7619-1.5638-0.95332-2.8201c-1.6879-4.9932-2.3382-8.8041-2.511-14.717-0.26777-9.1588 1.1391-15.8 5.0405-23.794 6.8162-13.966 18.996-23.703 34.281-27.406 1.5325-0.37128 3.0665-0.67522 3.4089-0.67542 0.61449-3.59e-4 0.62251-0.048 0.62251-3.6969v-3.6965l1.4525-0.17447c1.88-0.22581 10.155-0.22581 12.035 0l1.4525 0.17447v7.2858l2.5592 0.48496c5.9035 1.1187 12.947 4.0615 18.227 7.6157 11.732 7.8964 19.348 19.615 21.992 33.836 0.6792 3.6541 0.80783 11.081 0.25973 14.997-0.50139 3.5824-1.7045 8.5749-2.6357 10.937-0.46947 1.1911-0.51578 1.5398-0.22908 1.7252 0.19764 0.12779 1.5653 0.91956 3.0392 1.7595l2.6798 1.5272-0.70014 1.5852c-1.3219 2.993-5.5748 10.006-6.5677 10.83-0.247 0.20499-1.1383-0.17582-3.2015-1.3678-1.5726-0.90854-2.9338-1.6433-3.0249-1.6328s-0.91268 0.88827-1.8257 1.9505c-4.8474 5.6398-12.692 11.022-20.292 13.922-6.9852 2.6657-16.143 3.78-23.773 2.8927z" fill="#fff" fill-rule="evenodd" stroke-miterlimit="2.613" stroke-width="1.0457"/>
  <path class="fil3" d="m102 73.689c4.9558 13.33 11.828 37.02 13.185 57.135-20.115-1.3572-43.806-8.2274-57.136-13.184v43.948c13.33-4.9558 37.02-11.828 57.136-13.185-1.3572 20.116-8.2292 43.806-13.185 57.136h43.95c-4.9558-13.33-11.828-37.02-13.185-57.136 20.116 1.3572 43.806 8.2293 57.136 13.186v-43.95c-13.33 4.9558-37.02 11.828-57.136 13.185 1.3572-20.116 8.1088-43.806 13.065-57.135z" clip-path="url(#clipPath3302)" clip-rule="evenodd" fill="#810281" fill-rule="evenodd" image-rendering="optimizeQuality" shape-rendering="geometricPrecision" stroke-width=".48588"/>
  <path d="m123.98 70.189c-36.689 0-66.549 29.86-66.549 66.549s29.86 66.549 66.549 66.549 66.549-29.86 66.549-66.549-29.86-66.549-66.549-66.549zm0 10.992c2.4486 0 4.8586 0.15894 7.2223 0.46405v6.9345l1.9105 0.36327c5.0854 0.96618 9.95 2.7272 14.496 5.2483v-0.0026c4.8392 2.684 9.1641 6.1498 12.856 10.299 3.9012 4.3848 6.9459 9.3584 9.0547 14.797v3e-3h3e-3c2.1873 5.6347 3.2949 11.573 3.2949 17.678 0 5.5952-0.93308 11.053-2.7673 16.256l-0.64648 1.8355 5.7707 3.3512c-1.8958 4.4884-4.3659 8.6714-7.3153 12.462l-5.7371-3.3285-1.2754 1.4609c-4.1513 4.7649-9.2848 8.7781-14.875 11.606l-3e-3 3e-3c-3.347 1.6964-6.8913 3.0015-10.53 3.8752-3.7478 0.90103-7.6222 1.3648-11.514 1.3648-3.8867 0-7.7604-0.45892-11.498-1.3591h-3e-3c-3.6376-0.87357-7.1754-2.1777-10.525-3.869-5.5844-2.8216-10.718-6.8222-14.861-11.578l-1.2738-1.463-5.6632 3.2887c-2.9497-3.7906-5.419-7.9735-7.3147-12.462l5.6927-3.3042-0.65267-1.8376c-1.847-5.2148-2.7848-10.693-2.7848-16.301 0-6.1125 1.107-12.057 3.3006-17.698h3e-3v-3e-3c2.1154-5.4518 5.165-10.426 9.08-14.818 3.7042-4.155 8.0354-7.6117 12.889-10.297 4.5516-2.5142 9.4298-4.2667 14.529-5.2266l1.9141-0.36174v-6.9169c2.3637-0.30512 4.7743-0.46405 7.2229-0.46405zm-11.922 1.2795v2.3652c-4.885 1.1089-9.6126 2.7789-14.016 5.211l-3e-3 0.0026c-5.3135 2.9392-10.069 6.7332-14.123 11.281-4.2817 4.8036-7.6352 10.272-9.9534 16.246-2.4039 6.1821-3.623 12.717-3.623 19.399 0 5.4614 0.94575 10.797 2.5549 15.945l-1.7689 1.0268c-1.753-5.413-2.7037-11.192-2.7037-17.199 0-26.654 18.643-48.84 43.635-54.277zm23.844 0c24.992 5.4374 43.635 27.624 43.635 54.277 0 6.0075-0.95046 11.787-2.7037 17.2l-1.8547-1.0769c1.597-5.133 2.5368-10.449 2.5368-15.896 0-6.675-1.2167-13.203-3.6132-19.377v-3e-3c-2.3111-5.9597-5.6577-11.426-9.9255-16.223-4.0402-4.5407-8.7872-8.3429-14.088-11.283-4.3966-2.4383-9.1124-4.1147-13.986-5.2302zm27.045 90.992 1.818 1.0552c-10.138 10.946-24.641 17.787-40.785 17.787-16.143 0-30.647-6.841-40.785-17.787l1.6578-0.96327c4.293 4.5778 9.3641 8.4585 14.928 11.27v3e-3c3.6694 1.8526 7.5475 3.2841 11.545 4.2442 4.1034 0.98827 8.3444 1.4883 12.6 1.4883 4.2645 0 8.5042-0.50866 12.611-1.496 3.9969-0.95983 7.8823-2.3908 11.555-4.2519 5.5644-2.8146 10.562-6.7715 14.855-11.348z" color="#000000" color-rendering="auto" dominant-baseline="auto" image-rendering="auto" shape-rendering="auto" solid-color="#000000" style="font-feature-settings:normal;font-variant-alternates:normal;font-variant-caps:normal;font-variant-ligatures:normal;font-variant-numeric:normal;font-variant-position:normal;isolation:auto;mix-blend-mode:normal;paint-order:markers stroke fill;shape-padding:0;text-decoration-color:#000000;text-decoration-line:none;text-decoration-style:solid;text-indent:0;text-orientation:mixed;text-transform:none;white-space:normal"/>
  <ellipse cx="130.94" cy="135.67" rx=".18899" ry=".66146" stroke-width=".26458"/>
  <g stroke="#fff" aria-label="34">
   <path d="m101.34 143.49c-0.98778 0-1.4224 0.43462-1.4224 1.4224v4.6228c0 0.98778 0.43462 1.4224 1.4224 1.4224h12.486c5.0574 0 7.6652-2.4892 7.6652-6.5588v-3.9511c0-3.477-1.2248-5.2945-4.9784-5.7291 1.7385-0.75071 2.3312-2.2521 2.3312-4.2672v-2.2916c0-3.477-2.0941-5.6501-6.4798-5.6501h-11.024c-0.98778 0-1.4224 0.43463-1.4224 1.4224v4.7018c0 0.98777 0.43462 1.4224 1.4224 1.4224h7.3491c1.2644 0 1.5014 0.55316 1.5014 1.1853v0.59266c0 0.63218-0.23707 1.1853-1.5014 1.1853h-4.1487c-0.98778 0-1.4224 0.43462-1.4224 1.4224v4.2277c0 0.98778 0.43462 1.4224 1.4224 1.4224h6.7169c1.2644 0 1.5014 0.51365 1.5014 1.1458v1.0668c0 0.63217-0.23707 1.1853-1.5014 1.1853z"/>
   <path d="m139.11 144.36v5.176c0 0.98778 0.43462 1.4224 1.4224 1.4224h6.0847c0.98777 0 1.4224-0.43462 1.4224-1.4224v-25.603c0-0.98777-0.43463-1.4224-1.4224-1.4224h-6.0847c-0.98778 0-1.4224 0.43463-1.4224 1.4224v12.169h-3.6745c-0.75072 0-1.2248-0.51364-1.2248-1.3434v-10.826c0-0.98777-0.43462-1.4224-1.4224-1.4224h-6.1242c-0.98778 0-1.4224 0.43463-1.4224 1.4224v13.868c0 4.5043 2.0546 6.5588 7.191 6.5588z"/>
  </g>
  <g fill="#fff" fill-opacity=".99216" fill-rule="evenodd">
   <path transform="matrix(.26458 0 0 .26458 57.427 70.189)" d="m51.5 314.99c0-0.27854-1.3294-5.791-2.9542-12.25-4.9877-19.827-6.3184-32.89-5.7805-56.744 0.39547-17.538 0.91805-23.209 3.1701-34.403 15.074-74.927 68.127-135.11 140.06-158.89 6.6-2.1818 13.688-4.266 15.75-4.6316l3.75-0.66476v7.7724l-5.75 1.2853c-10.025 2.2408-28.377 8.9966-39.486 14.535-50.825 25.342-88.522 70.878-104.25 125.93-4.6122 16.141-6.6345 29.925-7.1989 49.066-0.61458 20.844 0.88593 35.152 5.6752 54.115l3.0016 11.885-2.2444 1.7278c-2.2342 1.72-3.7444 2.2306-3.7444 1.2659z"/>
   <path transform="matrix(.26458 0 0 .26458 57.427 70.189)" d="m447.44 313.76-2.5574-1.5556 2.2103-7.6311c10.506-36.274 9.1628-80.17-3.5992-117.6-17.478-51.256-55.013-93.815-103.16-116.96-10.932-5.2563-31.328-12.579-39.09-14.035-3.5911-0.67348-3.75-0.87275-3.75-4.7033v-4l3.75 0.70328c15.053 2.823 46.473 16.336 63.051 27.117 53.112 34.539 87.464 89.19 95.151 151.38 1.3508 10.928 1.3477 39.162-5e-3 50.052-1.7818 14.341-7.4206 39.103-8.854 38.882-0.32621-0.0503-1.7439-0.79146-3.1505-1.647z"/>
   <path transform="matrix(.26458 0 0 .26458 57.427 70.189)" d="m238.5 460.39c-45.904-2.72-88.748-20.328-124.5-51.168-6.05-5.2186-12.055-10.629-13.344-12.022l-2.3445-2.5336 5.255-3.4432 7.717 7.576c24.865 24.411 55.251 41.417 89.656 50.178 18.876 4.8065 29.342 6.0105 51.561 5.9309 22.467-0.0804 37.644-2.2305 57-8.0754 30.618-9.2455 53.46-22.428 79.293-45.762l10.793-9.7486 5.3493 3.505-7.4673 6.9637c-45.042 42.005-99.601 62.116-158.97 58.599z"/>
  </g>
 </g>
 <path d="m57.849 50.188h4.6092c0.0026-0.92325 0.13088-2.364 1.3827-2.3726 0.82488-0.0057 1.733 0.67784 2.4582 1.015 1.679 0.78062 3.4847 1.5282 5.3774 1.1244 3.5503-0.75747 3.907-3.8802 4.4555-6.8342-0.88542-0.26173-3.5905-0.55358-4.3767 0.0042-0.77741 0.5517-0.29222 1.9984-1.6154 2.022-1.8105 0.03222-3.7059-1.6325-5.5308-1.955-4.5242-0.79942-6.7601 3.0652-6.7601 6.9961m14.749-5.8383h1.9973c-0.01429 0.68769-0.11446 1.3569-0.38072 1.9973-1.8438 4.4328-6.409 1.4742-9.2985 0.37912-1.7199-0.65184-3.2709 0.34688-3.6873 2.0791h-1.9973c0.01585-0.76303 0.14298-1.4734 0.51498-2.1509 1.9869-3.6191 5.6771-1.9225 8.5497-0.70359 1.8383 0.78002 3.7583 0.66003 4.3019-1.601" fill="#fff"/>
 <path d="m59.267 48.598c0-0.29555 0.20029-1.2276 0.3292-1.532 0.32604-0.76976 0.96846-1.5582 1.6089-1.9745 0.60358-0.39237 1.1963-0.55943 1.9944-0.56214 1.1585-0.0039 2.201 0.27613 4.4786 1.2032 1.3967 0.56851 1.7813 0.66878 2.5591 0.66712 0.52912-0.0011 0.6467-0.02825 1.0923-0.25192 0.58054-0.29138 0.97423-0.74985 1.1689-1.3612l0.12173-0.38232h1.9584l-0.05045 0.45514c-0.07998 0.72159-0.18056 1.0644-0.52248 1.781-0.73355 1.5373-1.9687 2.205-3.6621 1.9796-1.0114-0.13459-1.9526-0.45307-4.1352-1.3992-1.4572-0.63169-1.7966-0.72606-2.4884-0.69193-0.70258 0.03466-1.226 0.26638-1.7076 0.75593-0.33375 0.33925-0.77895 1.1233-0.77895 1.3718 0 0.10171-0.12868 0.11703-0.9831 0.11703h-0.9831z" fill-rule="evenodd" stop-color="#000000" stroke="#000" stroke-linecap="round" style="paint-order:fill markers stroke"/>
</svg>
