<?xml version="1.0" encoding="UTF-8"?>
<!-- Created with Inkscape (http://www.inkscape.org/) -->
<svg width="133.1mm" height="133.1mm" version="1.1" viewBox="0 0 133.1 133.1" xmlns="http://www.w3.org/2000/svg">
 <g transform="translate(-57.427 -70.189)">
  <path d="m113.09 188.22c-10.207-2.2546-20.747-8.2999-27.43-15.733l-2.6465-2.9435-2.8819 1.7733c-1.5851 0.9753-2.9705 1.7733-3.0787 1.7733-0.61768 0-7.2373-11.217-7.2373-12.263 0-0.14557 1.2984-1.106 2.8853-2.1343 1.7669-1.145 2.7709-2.1678 2.5901-2.6389-5.9844-15.595-3.8858-33.986 5.4559-47.811 7.3579-10.889 20.236-19.64 32.17-21.859l3.2754-0.60912 0.38585-3.9158 0.38584-3.9158h14.112l0.38536 3.9108 0.38535 3.9108 3.4783 0.71843c16.357 3.3786 30.658 15.678 37.109 31.918 2.7337 6.8817 3.6063 12.535 3.2587 21.112-0.28776 7.099-0.47135 8.0791-3.0732 16.406-0.18365 0.58775 0.69515 1.5128 2.6254 2.7636 1.5958 1.034 2.9015 1.9992 2.9015 2.1448 0 0.61952-3.1443 6.3953-5.0171 9.216l-2.0319 3.0603-6.1634-3.4784-3.8543 3.9074c-6.438 6.5267-15.555 11.868-24.202 14.179-5.258 1.4054-18.451 1.6877-23.787 0.50906z" fill="#046a38" style="paint-order:stroke fill markers"/>
  <g fill="#fff">
   <rect x="109.31" y="79.189" width="29.341" height="58.777" style="paint-order:stroke fill markers"/>
   <rect transform="rotate(240)" x="-195.44" y="-19.835" width="29.341" height="58.777" style="paint-order:stroke fill markers"/>
   <rect transform="rotate(120)" x="42.143" y="-233.5" width="29.341" height="58.777" style="paint-order:stroke fill markers"/>
  </g>
  <g fill="#ffb81c">
   <rect x="111.98" y="88.536" width="4.7822" height="44.446" style="paint-order:stroke fill markers"/>
   <rect x="131.2" y="88.519" width="4.7822" height="44.448" style="paint-order:stroke fill markers"/>
   <rect transform="matrix(-.49955 -.86629 .86577 -.50045 0 0)" x="-173.56" y="-10.385" width="4.8553" height="45.101" style="paint-order:stroke fill markers"/>
   <rect transform="matrix(-.49936 .86639 -.86566 -.50064 0 0)" x="44.676" y="-224.13" width="4.7452" height="44.066" style="paint-order:stroke fill markers"/>
   <rect transform="matrix(-.50171 .86504 -.86701 -.4983 0 0)" x="64.375" y="-225.25" width="4.8325" height="45.019" style="paint-order:stroke fill markers"/>
  </g>
  <path d="m76.301 166.16c-0.73349-1.2224-1.5856-2.7238-1.8937-3.3365l-0.6073-1.1612 39.21-22.641c1.0142-0.47483 2.8327-1.0814 4.0549-0.99925 2.1484 0 4.1853 0.81923 5.6707 2.4072 0.39944 0.45793 0.85794 0.99854 1.1983 1.5864l-1.437 0.8115c-0.79033 0.44632-10.904 6.2707-22.476 12.943-11.571 6.6723-21.796 12.622-22.006 12.703-0.2608 0.10008-0.80131-0.79078-1.7145-2.3127z" fill="#418fde" style="paint-order:stroke fill markers"/>
  <rect transform="matrix(.50171 .86504 .86701 -.4983 0 0)" x="187.92" y="-10.782" width="4.8325" height="45.019" fill="#ffb81c" style="paint-order:stroke fill markers"/>
  <g fill="#fff" fill-rule="evenodd">
   <g fill-opacity=".99216" stroke-width="5.3993">
    <path transform="matrix(.26458 0 0 .26458 57.427 70.189)" d="m225.71 459.26c-43.865-6.0884-84.333-25.036-116.19-54.403-9.1404-8.4252-10.776-10.552-8.9144-11.593 1.7382-0.97277 4.7683 0.97876 12.765 8.2212 30.82 27.914 66.482 45.225 105.89 51.405 19.138 3.0008 56.728 2.2602 73.592-1.45 36.423-8.013 68.678-24.753 94.504-49.047 8.9563-8.4247 11.722-10.278 14.175-9.4991 2.8981 0.91981 2.777 1.2496-2.4586 6.6969-9.413 9.7937-27.708 23.926-41.177 31.808-21.703 12.7-43.491 20.953-68.007 25.758-14.071 2.7581-50.792 3.9614-64.18 2.1032z"/>
    <path transform="matrix(.26458 0 0 .26458 57.427 70.189)" d="m447.25 312.99c-1.2871-1.5509-1.0195-4.5676 1.1724-13.214 6.5933-26.009 7.5603-61.935 2.3395-86.919-16.022-76.671-70.564-135.23-145.3-156.01-7.107-1.9759-8.3206-2.8001-8.3206-5.6506 0-4.3687 1.2883-4.2654 18.945 1.5185 52.673 17.254 97.837 56.125 122.72 105.62 7.6975 15.31 16.162 41.414 19.07 58.808 4.4933 26.884 2.6178 63.862-4.5465 89.643-2.3854 8.584-3.3174 9.5349-6.0814 6.2046z"/>
    <path transform="matrix(.26458 0 0 .26458 57.427 70.189)" d="m48.851 303.21c-5.142-20.694-6.4015-34.082-5.587-59.392 0.59261-18.416 1.5789-27.262 4.346-38.981 16.976-71.892 69.498-129.31 139.16-152.13 17.674-5.7896 18.945-5.89 18.945-1.4963 0 2.9419-1.1984 3.6779-9.6429 5.9221-62.528 16.618-115.36 66.241-136.7 128.39-12.343 35.955-14.252 79.561-5.0496 115.34 1.9428 7.5529 2.2594 10.943 1.1472 12.283-2.7666 3.3336-3.6557 1.9996-6.6211-9.9348z"/>
   </g>
   <path transform="matrix(.26458 0 0 .26458 57.427 70.189)" d="m50.054 307.59c-5.3927-18.159-7.1057-31.761-7.0728-56.164 0.03617-26.881 2.0183-40.256 9.4132-63.52 10.294-32.383 26.231-58.143 51.799-83.724 25.935-25.948 50.557-41.143 84.038-51.863 16.763-5.3669 18.197-5.46 18.197-1.1799 0 2.9353-1.4818 3.7017-13.912 7.1955-28.433 7.9917-57.39 24.621-80.1 45.998-53.428 50.295-75.885 125.41-58.321 195.08 3.0888 12.252 3.1242 12.963 0.70945 14.255-2.1923 1.1733-2.845 0.33773-4.7518-6.0829z" style="paint-order:stroke fill markers"/>
   <path transform="matrix(.26458 0 0 .26458 57.427 70.189)" d="m447.66 313.49c-2.0593-1.1525-1.9604-2.5959 1.0243-14.942 21.983-90.932-21.986-185.35-105.96-227.53-11.27-5.661-27.293-11.687-38.799-14.591-5.1478-1.2994-6.0714-2.0848-6.0714-5.1624 0-3.3505 0.35739-3.552 4.6429-2.6178 36.573 7.9722 79.524 34.289 106.28 65.122 44.961 51.807 61.742 120.07 46.044 187.29-1.6037 6.8681-3.3595 12.762-3.9017 13.097-0.54223 0.33511-2.0116 0.0353-3.2654-0.66642z" style="paint-order:stroke fill markers"/>
  </g>
  <g>
   <path d="m122.78 80.481c1.4254-0.024 3.1518-0.0113 3.8363 0.0283l1.3092 0.0546 3e-3 46.336c-0.0959 1.1158-0.47977 2.9939-1.1621 4.0113-1.0742 1.8606-2.8021 3.215-4.9201 3.7074-0.5963 0.11696-1.2937 0.24373-1.973 0.24458l0.0157-1.6502c9e-3 -0.90761 0.0217-12.579 0.029-25.936 7e-3 -13.357-0.0333-26.246 2e-3 -26.467 0.0437-0.2759 1.0855-0.29856 2.8601-0.32844z" fill="#418fde" style="paint-order:stroke fill markers"/>
   <path d="m173.19 164.14c-0.69192 1.2464-1.5661 2.7351-1.9427 3.3082l-0.70191 1.1065-39.213-22.636c-0.91832-0.64093-2.3529-1.9124-2.8928-3.012-1.0742-1.8606-1.3832-4.0342-0.75062-6.1146 0.19686-0.57489 0.43579-1.2423 0.7747-1.831l1.4213 0.8387c0.78152 0.4616 10.883 6.3082 22.447 12.993 11.564 6.6847 21.83 12.565 22.004 12.706 0.21708 0.1758-0.28419 1.0893-1.1456 2.6411z" fill="#418fde" style="paint-order:stroke fill markers"/>
   <g stroke="#fff" aria-label="64">
    <path d="m111.89 151.26q-3.635 0-5.9662-0.59266-2.2916-0.55316-3.5955-1.5804-1.3039-1.0668-1.8175-2.5287-0.47414-1.4619-0.47414-3.2794v-12.96q0-3.5955 2.0546-5.8476 2.0941-2.2521 7.6652-2.2521h9.0876q0.75071 0 1.0668 0.3556 0.3556 0.31609 0.3556 1.0668v4.6623q0 0.75071-0.3556 1.1063-0.31609 0.31609-1.0668 0.31609h-7.3886q-1.4619 0-1.9756 0.47414-0.51365 0.43462-0.51365 1.8965v0.86924q0.94827-0.27657 2.1731-0.43462 1.2644-0.15804 2.8448-0.15804 5.334 0 7.3096 1.8175 1.9756 1.778 1.9756 5.2945v3.7931q0 1.8175-0.51364 3.2794-0.47414 1.4619-1.778 2.5287-1.2644 1.0273-3.477 1.5804-2.2126 0.59266-5.6106 0.59266zm-2.9238-10.945v2.3312q0 0.63218 0.47414 1.0668 0.47413 0.39511 2.1731 0.39511 1.778 0 2.2521-0.39511 0.47413-0.43462 0.47413-1.0668v-2.3312q0-0.59267-0.47413-0.98778-0.47413-0.43462-2.2521-0.43462-1.699 0-2.1731 0.43462-0.47414 0.39511-0.47414 0.98778z"/>
    <path d="m141.11 144.07h-6.6774q-3.8326 0-5.5316-1.5804-1.6595-1.62-1.6595-4.9784v-13.868q0-0.75071 0.31609-1.0668 0.3556-0.3556 1.1063-0.3556h6.1242q0.75071 0 1.0668 0.3556 0.3556 0.31609 0.3556 1.0668v10.826q0 0.63218 0.31609 0.98778 0.3556 0.3556 0.90876 0.3556h3.6745v-12.169q0-0.75071 0.31609-1.0668 0.3556-0.3556 1.1063-0.3556h6.0847q0.75071 0 1.0668 0.3556 0.3556 0.31609 0.3556 1.0668v25.603q0 0.75071-0.3556 1.1063-0.31609 0.31609-1.0668 0.31609h-6.0847q-0.75071 0-1.1063-0.31609-0.31609-0.3556-0.31609-1.1063z"/>
   </g>
   <path d="m123.98 70.189c-36.689 0-66.549 29.86-66.549 66.549s29.86 66.549 66.549 66.549c36.689 0 66.549-29.86 66.549-66.549s-29.86-66.549-66.549-66.549zm0 10.992c2.4486 0 4.8586 0.15894 7.2223 0.46405v6.9345l1.9105 0.36327c5.0854 0.96618 9.95 2.7272 14.496 5.2483v-0.0026c4.8392 2.684 9.1641 6.1498 12.856 10.299 3.9012 4.3848 6.9459 9.3584 9.0547 14.797v3e-3h3e-3c2.1873 5.6347 3.2949 11.573 3.2949 17.678 0 5.5952-0.93308 11.053-2.7673 16.256l-0.64648 1.8355 5.7707 3.3512c-1.8958 4.4884-4.3659 8.6714-7.3153 12.462l-5.7371-3.3285-1.2754 1.4609c-4.1513 4.7649-9.2848 8.7781-14.875 11.606l-3e-3 3e-3c-3.347 1.6964-6.8913 3.0015-10.53 3.8752-3.7478 0.90103-7.6222 1.3648-11.514 1.3648-3.8867 0-7.7604-0.45892-11.498-1.3591h-3e-3c-3.6376-0.87357-7.1754-2.1777-10.525-3.869-5.5844-2.8216-10.718-6.8222-14.861-11.578l-1.2738-1.463-5.6632 3.2887c-2.9497-3.7906-5.4189-7.9735-7.3147-12.462l5.6927-3.3042-0.65267-1.8376c-1.847-5.2148-2.7848-10.693-2.7848-16.301 0-6.1125 1.107-12.057 3.3006-17.698h0.0026v-3e-3c2.1154-5.4518 5.165-10.426 9.08-14.818 3.7042-4.155 8.0354-7.6117 12.889-10.297 4.5516-2.5142 9.4298-4.2667 14.529-5.2266l1.9141-0.36174v-6.9169c2.3637-0.30512 4.7743-0.46405 7.2229-0.46405zm-11.922 1.2795v2.3652c-4.885 1.1089-9.6126 2.7789-14.016 5.211l-0.0026 0.0026c-5.3135 2.9392-10.069 6.7332-14.123 11.281-4.2817 4.8036-7.6352 10.272-9.9534 16.246-2.4039 6.1821-3.623 12.717-3.623 19.399 0 5.4614 0.94575 10.797 2.5549 15.945l-1.7689 1.0268c-1.753-5.413-2.7037-11.192-2.7037-17.199 0-26.654 18.643-48.84 43.635-54.277zm23.844 0c24.992 5.4374 43.635 27.624 43.635 54.277 0 6.0075-0.95046 11.787-2.7037 17.2l-1.8547-1.0769c1.597-5.133 2.5368-10.449 2.5368-15.896 0-6.675-1.2167-13.203-3.6132-19.377v-3e-3c-2.3111-5.9597-5.6577-11.426-9.9255-16.223-4.0402-4.5407-8.7872-8.3429-14.088-11.283-4.3966-2.4383-9.1124-4.1147-13.986-5.2302zm27.045 90.992 1.818 1.0552c-10.138 10.946-24.641 17.787-40.785 17.787-16.143 0-30.647-6.841-40.785-17.787l1.6578-0.96327c4.293 4.5778 9.3641 8.4585 14.928 11.27v3e-3c3.6694 1.8526 7.5475 3.2841 11.545 4.2442 4.1034 0.98827 8.3444 1.4883 12.6 1.4883 4.2645 0 8.5042-0.50866 12.611-1.496 3.9969-0.95983 7.8823-2.3908 11.555-4.2519 5.5644-2.8146 10.562-6.7715 14.855-11.348z" color="#000000" color-rendering="auto" dominant-baseline="auto" image-rendering="auto" shape-rendering="auto" solid-color="#000000" style="font-feature-settings:normal;font-variant-alternates:normal;font-variant-caps:normal;font-variant-ligatures:normal;font-variant-numeric:normal;font-variant-position:normal;isolation:auto;mix-blend-mode:normal;paint-order:markers stroke fill;shape-padding:0;text-decoration-color:#000000;text-decoration-line:none;text-decoration-style:solid;text-indent:0;text-orientation:mixed;text-transform:none;white-space:normal"/>
  </g>
 </g>
</svg>
