<?xml version="1.0" encoding="UTF-8"?>
<!-- Created with Inkscape (http://www.inkscape.org/) -->
<svg width="133.1mm" height="133.1mm" version="1.1" viewBox="0 0 133.1 133.1" xmlns="http://www.w3.org/2000/svg" xmlns:cc="http://creativecommons.org/ns#" xmlns:dc="http://purl.org/dc/elements/1.1/" xmlns:rdf="http://www.w3.org/1999/02/22-rdf-syntax-ns#">
 <metadata>
  <rdf:RDF>
   <cc:Work rdf:about="">
    <dc:format>image/svg+xml</dc:format>
    <dc:type rdf:resource="http://purl.org/dc/dcmitype/StillImage"/>
   </cc:Work>
  </rdf:RDF>
 </metadata>
 <g transform="translate(-57.427 -70.189)">
  <ellipse cx="130.94" cy="135.67" rx=".18899" ry=".66146" stroke-width=".26458"/>
  <g fill="#fff" fill-opacity=".99216" fill-rule="evenodd" stroke-width="5.3993">
   <path transform="matrix(.26458 0 0 .26458 57.427 70.189)" d="m225.71 459.26c-43.865-6.0884-84.333-25.036-116.19-54.403-9.1404-8.4252-10.776-10.552-8.9144-11.593 1.7382-0.97277 4.7683 0.97876 12.765 8.2212 30.82 27.914 66.482 45.225 105.89 51.405 19.138 3.0008 56.728 2.2602 73.592-1.45 36.423-8.013 68.678-24.753 94.504-49.047 8.9563-8.4247 11.722-10.278 14.175-9.4991 2.8981 0.91981 2.777 1.2496-2.4586 6.6969-9.413 9.7937-27.708 23.926-41.177 31.808-21.703 12.7-43.491 20.953-68.007 25.758-14.071 2.7581-50.792 3.9614-64.18 2.1032z"/>
   <path transform="matrix(.26458 0 0 .26458 57.427 70.189)" d="m447.25 312.99c-1.2871-1.5509-1.0195-4.5676 1.1724-13.214 6.5933-26.009 7.5603-61.935 2.3395-86.919-16.022-76.671-70.564-135.23-145.3-156.01-7.107-1.9759-8.3206-2.8001-8.3206-5.6506 0-4.3687 1.2883-4.2654 18.945 1.5185 52.673 17.254 97.837 56.125 122.72 105.62 7.6975 15.31 16.162 41.414 19.07 58.808 4.4933 26.884 2.6178 63.862-4.5465 89.643-2.3854 8.584-3.3174 9.5349-6.0814 6.2046z"/>
   <path transform="matrix(.26458 0 0 .26458 57.427 70.189)" d="m48.851 303.21c-5.142-20.694-6.4015-34.082-5.587-59.392 0.59261-18.416 1.5789-27.262 4.346-38.981 16.976-71.892 69.498-129.31 139.16-152.13 17.674-5.7896 18.945-5.89 18.945-1.4963 0 2.9419-1.1984 3.6779-9.6429 5.9221-62.528 16.618-115.36 66.241-136.7 128.39-12.343 35.955-14.252 79.561-5.0496 115.34 1.9428 7.5529 2.2594 10.943 1.1472 12.283-2.7666 3.3336-3.6557 1.9996-6.6211-9.9348z"/>
  </g>
  <path d="m78.34 119.27 91.175 0.019" fill="none" stroke="#000" stroke-width=".26458px"/>
  <path d="m117.21 186.52c-10.602-1.623-20.912-7.0354-28.789-15.114-3.7216-3.8168-2.8204-3.6824-7.2565-1.0821l-1.8556 1.0877-1.3898-1.9022c-1.9752-2.7035-5.5157-9.1785-5.5456-10.142-0.01834-0.59121 0.65344-1.2093 2.4677-2.2706 1.3711-0.80204 2.5847-1.55 2.6968-1.6622 0.11217-0.11216-0.24381-1.6213-0.79106-3.3536-1.8912-5.9868-2.4005-9.359-2.4005-15.896 0-6.4558 0.56579-10.278 2.2818-15.415l0.85825-2.5692 47.233-0.20385v69.176l-1.8774-0.0388c-1.0326-0.0213-3.5672-0.29745-5.6324-0.6136z" fill="#bf0a30" fill-rule="evenodd"/>
  <path d="m124.25 152.55v-34.557l47.162 0.20367 1.0563 3.4049c1.5833 5.1036 2.096 8.6654 2.096 14.563 0 5.9552-0.50306 9.413-2.2066 15.167-0.9261 3.1281-1.0549 3.9812-0.64252 4.2566 0.28363 0.18949 1.6221 0.97428 2.9744 1.744l2.4587 1.3995-1.4248 2.8344c-1.553 3.0893-5.0131 8.6463-5.7782 9.28-0.33725 0.27933-1.2369-0.0556-3.0455-1.1339-1.4118-0.84166-2.7726-1.537-3.0239-1.5452-0.25137-8e-3 -1.2862 0.91802-2.2996 2.0583-3.8169 4.2949-9.9451 8.9148-15.569 11.737-5.275 2.6471-15.145 5.1454-20.328 5.1454h-1.4302zm6.975-18.064c-0.10955-0.2715-0.19918-0.0494-0.19918 0.49363 0 0.543 0.0896 0.76514 0.19918 0.49364 0.10955-0.2715 0.10955-0.71577 0-0.98727z" fill="#fff" fill-rule="evenodd"/>
  <g fill="#002868">
   <path d="m77.901 117.38c4.3831-10.268 13.908-20.068 24.373-25.078 3.4131-1.6338 8.0407-3.1863 11.831-3.9692l2.4253-0.50094v-7.1535l2.4008-0.25093c3.0617-0.32002 6.9789-0.32002 10.041 0l2.4008 0.25093v7.2082l2.4412 0.47082c15.33 2.9566 29.286 14.076 35.938 28.632l1.0264 2.2459h-93.669z" fill-rule="evenodd"/>
   <g stroke="#000" stroke-width=".26458">
    <circle cx="121.31" cy="79.639" r=".2664"/>
    <circle cx="121.31" cy="79.639" r=".2664"/>
    <circle cx="123.57" cy="79.261" r=".2664"/>
   </g>
  </g>
  <path d="m123.98 70.189c-36.689 0-66.549 29.86-66.549 66.549s29.86 66.549 66.549 66.549c36.689 0 66.549-29.86 66.549-66.549s-29.86-66.549-66.549-66.549zm0 10.992c2.4486 0 4.8586 0.15894 7.2223 0.46405v6.9345l1.9105 0.36327c5.0854 0.96618 9.95 2.7272 14.496 5.2483v-0.0026c4.8392 2.684 9.1641 6.1498 12.856 10.299 3.9012 4.3848 6.9459 9.3584 9.0547 14.797v3e-3h3e-3c2.1873 5.6347 3.2949 11.573 3.2949 17.678 0 5.5952-0.93308 11.053-2.7673 16.256l-0.64648 1.8355 5.7707 3.3512c-1.8958 4.4884-4.3659 8.6714-7.3153 12.462l-5.7371-3.3285-1.2754 1.4609c-4.1513 4.7649-9.2848 8.7781-14.875 11.606l-3e-3 3e-3c-3.347 1.6964-6.8913 3.0015-10.53 3.8752-3.7478 0.90103-7.6222 1.3648-11.514 1.3648-3.8867 0-7.7604-0.45892-11.498-1.3591h-3e-3c-3.6376-0.87357-7.1754-2.1777-10.525-3.869-5.5844-2.8216-10.718-6.8222-14.861-11.578l-1.2738-1.463-5.6632 3.2887c-2.9497-3.7906-5.4189-7.9735-7.3147-12.462l5.6927-3.3042-0.65267-1.8376c-1.847-5.2148-2.7848-10.693-2.7848-16.301 0-6.1125 1.107-12.057 3.3006-17.698h0.0026v-3e-3c2.1154-5.4518 5.165-10.426 9.08-14.818 3.7042-4.155 8.0354-7.6117 12.889-10.297 4.5516-2.5142 9.4298-4.2667 14.529-5.2266l1.9141-0.36174v-6.9169c2.3637-0.30512 4.7743-0.46405 7.2229-0.46405zm-11.922 1.2795v2.3652c-4.885 1.1089-9.6126 2.7789-14.016 5.211l-0.0026 0.0026c-5.3135 2.9392-10.069 6.7332-14.123 11.281-4.2817 4.8036-7.6352 10.272-9.9534 16.246-2.4039 6.1821-3.623 12.717-3.623 19.399 0 5.4614 0.94575 10.797 2.5549 15.945l-1.7689 1.0268c-1.753-5.413-2.7037-11.192-2.7037-17.199 0-26.654 18.643-48.84 43.635-54.277zm23.844 0c24.992 5.4374 43.635 27.624 43.635 54.277 0 6.0075-0.95046 11.787-2.7037 17.2l-1.8547-1.0769c1.597-5.133 2.5368-10.449 2.5368-15.896 0-6.675-1.2167-13.203-3.6132-19.377v-3e-3c-2.3111-5.9597-5.6577-11.426-9.9255-16.223-4.0402-4.5407-8.7872-8.3429-14.088-11.283-4.3966-2.4383-9.1124-4.1147-13.986-5.2302zm27.045 90.992 1.818 1.0552c-10.138 10.946-24.641 17.787-40.785 17.787-16.143 0-30.647-6.841-40.785-17.787l1.6578-0.96327c4.293 4.5778 9.3641 8.4585 14.928 11.27v3e-3c3.6694 1.8526 7.5475 3.2841 11.545 4.2442 4.1034 0.98827 8.3444 1.4883 12.6 1.4883 4.2645 0 8.5042-0.50866 12.611-1.496 3.9969-0.95983 7.8823-2.3908 11.555-4.2519 5.5644-2.8146 10.562-6.7715 14.855-11.348z" color="#000000" color-rendering="auto" dominant-baseline="auto" image-rendering="auto" shape-rendering="auto" solid-color="#000000" style="font-feature-settings:normal;font-variant-alternates:normal;font-variant-caps:normal;font-variant-ligatures:normal;font-variant-numeric:normal;font-variant-position:normal;isolation:auto;mix-blend-mode:normal;paint-order:markers stroke fill;shape-padding:0;text-decoration-color:#000000;text-decoration-line:none;text-decoration-style:solid;text-indent:0;text-orientation:mixed;text-transform:none;white-space:normal"/>
  <circle cx="124.33" cy="80.395" r=".2664" fill="#002868" stroke="#000" stroke-width=".26458"/>
  <circle cx="124.33" cy="80.395" r=".2664" fill="#002868" stroke="#000" stroke-width=".26458"/>
  <g stroke="#fff" aria-label="73">
   <path d="m120.38 122.51h-18.373c-0.98778 0-1.4224 0.43462-1.4224 1.4224v4.7808c0 0.98778 0.43462 1.4224 1.4224 1.4224h10.826v3.556l-3.2004 0.86924c-4.2277 1.2644-6.1637 2.8053-6.1637 7.8232v7.1515c0 0.98778 0.43463 1.4224 1.4224 1.4224h6.4008c0.98778 0 1.4224-0.43462 1.4224-1.4224v-6.9144l2.9238-0.86925c4.2277-1.2644 6.1637-2.8053 6.1637-7.8232v-9.9963c0-0.98778-0.43462-1.4224-1.4224-1.4224z"/>
   <path d="m127.22 143.49c-0.98778 0-1.4224 0.43462-1.4224 1.4224v4.6228c0 0.98778 0.43462 1.4224 1.4224 1.4224h12.486c5.0574 0 7.6652-2.4892 7.6652-6.5588v-3.9511c0-3.477-1.2248-5.2945-4.9784-5.7291 1.7385-0.75071 2.3312-2.2521 2.3312-4.2672v-2.2916c0-3.477-2.0941-5.6501-6.4798-5.6501h-11.024c-0.98778 0-1.4224 0.43462-1.4224 1.4224v4.7018c0 0.98777 0.43462 1.4224 1.4224 1.4224h7.3491c1.2644 0 1.5014 0.55315 1.5014 1.1853v0.59267c0 0.63217-0.23707 1.1853-1.5014 1.1853h-4.1487c-0.98778 0-1.4224 0.43462-1.4224 1.4224v4.2277c0 0.98777 0.43462 1.4224 1.4224 1.4224h6.7169c1.2644 0 1.5014 0.51364 1.5014 1.1458v1.0668c0 0.63218-0.23707 1.1853-1.5014 1.1853z"/>
  </g>
  <path transform="matrix(.06671 -.048382 .048382 .06671 147.71 85.607)" d="m-208.94 50.494-108.33 2.0111-40.266 105.95-35.389-102.41-113.21-5.5548 86.46-65.303-29.701-109.38 88.824 62.049 94.853-62.049-31.564 103.65z" fill="#fff" fill-rule="evenodd"/>
 </g>
</svg>
