<?xml version="1.0" encoding="UTF-8"?>
<!-- Created with Inkscape (http://www.inkscape.org/) -->
<svg width="133.1mm" height="133.1mm" version="1.1" viewBox="0 0 133.1 133.1" xmlns="http://www.w3.org/2000/svg" xmlns:cc="http://creativecommons.org/ns#" xmlns:dc="http://purl.org/dc/elements/1.1/" xmlns:rdf="http://www.w3.org/1999/02/22-rdf-syntax-ns#">
 <defs>
  <clipPath id="clipPath5376">
   <ellipse cx="124.23" cy="136.07" rx="52.274" ry="50.29" fill="none" stroke="#000" stroke-miterlimit="2.613" stroke-width=".96214"/>
  </clipPath>
 </defs>
 <metadata>
  <rdf:RDF>
   <cc:Work rdf:about="">
    <dc:format>image/svg+xml</dc:format>
    <dc:type rdf:resource="http://purl.org/dc/dcmitype/StillImage"/>
   </cc:Work>
  </rdf:RDF>
 </metadata>
 <g transform="translate(-57.427 -70.189)">
  <path transform="translate(-.63624 -.50599)" d="m117.78 192.21c-11.952-1.7752-20.527-5.8776-29.418-14.073-5.77-5.3186-8.5993-6.824-10.53-5.6028-4.2123 2.6646-5.2366 2.1038-8.4445-4.6232-2.8415-5.9588-2.8362-6.4886 0.08681-8.6259 2.663-1.9472 2.8102-3.1496 1.0157-8.2972-1.2115-3.4754-1.7429-11.563-1.2571-19.133 1.4823-23.097 15.885-42.222 37.821-50.22 7.8509-2.8626 10.668-4.8229 11.08-7.7095 0.4586-3.2158 1.7787-3.8708 7.801-3.8708s7.3424 0.65504 7.801 3.8708c0.41166 2.8866 3.229 4.8469 11.08 7.7095 21.936 7.9983 36.339 27.123 37.821 50.22 0.48583 7.5701-0.0454 15.657-1.2571 19.133-1.7945 5.1477-2.0772 7.1497 1.0157 8.2972 3.1972 1.1862 2.9792 1.1862-0.34923 8.1899-3.923 8.2548-4.9784 7.5185-8.0085 5.0593-1.7738-1.4396-4.76 0.28419-10.53 5.6028-12.525 11.545-28.874 16.577-45.728 14.073z" clip-path="url(#clipPath5376)" fill="#002868" fill-rule="evenodd"/>
  <ellipse cx="130.94" cy="135.67" rx=".18899" ry=".66146" stroke-width=".26458"/>
  <g fill="#fff" fill-opacity=".99216" fill-rule="evenodd" stroke-width="5.3993">
   <path transform="matrix(.26458 0 0 .26458 57.427 70.189)" d="m225.71 459.26c-43.865-6.0884-84.333-25.036-116.19-54.403-9.1404-8.4252-10.776-10.552-8.9144-11.593 1.7382-0.97277 4.7683 0.97876 12.765 8.2212 30.82 27.914 66.482 45.225 105.89 51.405 19.138 3.0008 56.728 2.2602 73.592-1.45 36.423-8.013 68.678-24.753 94.504-49.047 8.9563-8.4247 11.722-10.278 14.175-9.4991 2.8981 0.91981 2.777 1.2496-2.4586 6.6969-9.413 9.7937-27.708 23.926-41.177 31.808-21.703 12.7-43.491 20.953-68.007 25.758-14.071 2.7581-50.792 3.9614-64.18 2.1032z"/>
   <path transform="matrix(.26458 0 0 .26458 57.427 70.189)" d="m447.25 312.99c-1.2871-1.5509-1.0195-4.5676 1.1724-13.214 6.5933-26.009 7.5603-61.935 2.3395-86.919-16.022-76.671-70.564-135.23-145.3-156.01-7.107-1.9759-8.3206-2.8001-8.3206-5.6506 0-4.3687 1.2883-4.2654 18.945 1.5185 52.673 17.254 97.837 56.125 122.72 105.62 7.6975 15.31 16.162 41.414 19.07 58.808 4.4933 26.884 2.6178 63.862-4.5465 89.643-2.3854 8.584-3.3174 9.5349-6.0814 6.2046z"/>
   <path transform="matrix(.26458 0 0 .26458 57.427 70.189)" d="m48.851 303.21c-5.142-20.694-6.4015-34.082-5.587-59.392 0.59261-18.416 1.5789-27.262 4.346-38.981 16.976-71.892 69.498-129.31 139.16-152.13 17.674-5.7896 18.945-5.89 18.945-1.4963 0 2.9419-1.1984 3.6779-9.6429 5.9221-62.528 16.618-115.36 66.241-136.7 128.39-12.343 35.955-14.252 79.561-5.0496 115.34 1.9428 7.5529 2.2594 10.943 1.1472 12.283-2.7666 3.3336-3.6557 1.9996-6.6211-9.9348z"/>
  </g>
  <g fill="#002868" fill-rule="evenodd" stroke-miterlimit="2.613" stroke-width=".77258">
   <rect x="115.25" y="81.134" width="17.534" height="7.6892"/>
   <rect transform="rotate(240)" x="-190.57" y="-18.197" width="17.534" height="7.6892"/>
   <rect transform="rotate(120)" x="47.905" y="-231.8" width="17.534" height="7.6892"/>
  </g>
  <rect x="59.732" y="118.16" width="115.44" height="36.279" fill="#fff" fill-rule="evenodd" stroke-linecap="round" stroke-width=".56681" style="paint-order:stroke fill markers"/>
  <g fill="#ffd700" fill-rule="evenodd" stroke-linecap="round" stroke-width="2.6725">
   <path transform="matrix(.26458 0 0 .26458 57.427 70.189)" d="m139.97 238.87c1.3924-13.002 5.5972-27.332 11.402-38.859l4.9348-9.7991h192.19l5.0144 10.425c5.1975 10.806 10.648 29.475 10.648 36.47v4.0164h-169.71v-9.8995c0-5.4447-0.39534-9.8995-0.87855-9.8995-0.4832 0-12.514 6.0458-26.735 13.435-14.221 7.3893-26.31 13.435-26.863 13.435-0.55387 0-0.55767-4.196-8e-3 -9.3245z" style="paint-order:stroke fill markers"/>
   <path transform="matrix(.26458 0 0 .26458 57.427 70.189)" d="m150.64 298.75c-2.9975-6.417-6.4194-15.486-7.6041-20.153-2.6208-10.324-4.4814-26.163-3.0733-26.163 0.56372 0 12.66 6.0458 26.881 13.435s26.252 13.435 26.735 13.435c0.48321 0 0.87855-4.4548 0.87855-9.8995v-9.8995h169.71v4.0164c0 7.1518-5.5493 25.961-10.787 36.56l-5.1067 10.335h-192.18z" style="paint-order:stroke fill markers"/>
   <path transform="matrix(.26458 0 0 .26458 57.427 70.189)" d="m174.76 168.16c4.6128-4.9354 24.371-17.884 33.127-21.711 20.034-8.7546 49.525-11.136 70.838-5.7195 14.045 3.5693 31.236 11.774 42.457 20.262 15.681 11.863 22.202 10.836-68.82 10.836h-81.03z" style="paint-order:stroke fill markers"/>
   <path transform="matrix(.26458 0 0 .26458 57.427 70.189)" d="m226.06 360.03c-18.873-5.111-36.149-14.234-49.283-26.025l-5.6569-5.0785 80.964-0.0589c44.53-0.0324 80.964 0.22298 80.964 0.56746 0 1.7202-21.638 17.234-29.687 21.285-16.81 8.4596-27.008 10.899-48.095 11.502-15.681 0.44904-20.899 0.0574-29.206-2.1922z" style="paint-order:stroke fill markers"/>
  </g>
  <g fill="#bf0a30" fill-rule="evenodd" stroke-linecap="round">
   <g stroke-width="2.6725">
    <path transform="matrix(.26458 0 0 .26458 57.427 70.189)" d="m386.79 205c-2.7224-1.7918-12.747-8.2955-22.278-14.453l-17.328-11.195 7.0747-3.8506c3.8911-2.1178 7.0747-4.3944 7.0747-5.0592 0-2.7951-21.925-24.21-31.718-30.98-13.002-8.9882-24.439-14.394-41.114-19.432-11.473-3.4662-14.96-3.8551-35.355-3.943-19.406-0.0836-24.339 0.3667-34.648 3.1626-20.685 5.6098-41.609 16.821-56.032 30.021-7.7541 7.0972-20.336 21.123-20.336 22.67 0 0.71513 5.4094 1.3002 12.021 1.3002s12.002 0.4773 11.979 1.0607c-0.0232 0.58336-2.4097 3.7935-5.3033 7.1336l-5.2611 6.073-26.521-0.83218 8.5821-12.824c8.7972-13.145 24.267-29.086 36.181-37.283 10.086-6.9392 31.677-16.737 44.189-20.052 13.082-3.4661 40.94-5.0109 53.489-2.9661l8.4402 1.3753 10.422-11.689 9.6835 3.3174c24.728 8.4714 40.355 18.584 61.084 39.529l16.045 16.212 5.6146-3.1556c3.088-1.7356 5.8302-2.9322 6.0938-2.6593 0.40706 0.42151 3.346 51.068 2.9938 51.592-0.0679 0.10099-2.3508-1.2824-5.0732-3.0743z" style="paint-order:stroke fill markers"/>
    <path transform="matrix(.26458 0 0 .26458 57.427 70.189)" d="m284.72 391.19-4.7064-5.4982-8.4853 1.3824c-12.62 2.0559-40.42 0.5109-53.74-2.9867-12.39-3.2533-33.791-13.012-44.119-20.117-11.787-8.1095-27.286-24.1-36.046-37.19l-8.5821-12.824 26.521-0.83218 5.2611 6.073c2.8936 3.3401 5.2801 6.5502 5.3033 7.1336 0.0232 0.58336-5.3672 1.0607-11.979 1.0607s-12.021 0.58511-12.021 1.3002c0 1.5468 12.582 15.572 20.336 22.67 14.423 13.201 35.347 24.412 56.032 30.021 10.309 2.7959 15.242 3.2461 34.648 3.1626 20.396-0.0878 23.883-0.47672 35.355-3.943 16.674-5.0378 28.112-10.444 41.114-19.432 9.7934-6.7702 31.718-28.185 31.718-30.98 0-0.66473-3.1981-2.9492-7.1069-5.0767l-7.1069-3.8681 13.117-8.4513c7.2145-4.6482 17.421-11.221 22.68-14.607l9.5629-6.1553-0.69008 5.3049c-0.37954 2.9177-1.0897 14.692-1.5782 26.165s-1.2126 20.86-1.6092 20.86c-0.39659 0-3.1998-1.3931-6.2293-3.0958l-5.5082-3.0958-12.153 13.024c-12.919 13.844-22.857 22.047-36.613 30.22-8.9205 5.2997-32.744 15.274-36.481 15.274-1.2041 0-4.3072-2.4742-6.8957-5.4982z" style="paint-order:stroke fill markers"/>
   </g>
   <g stroke-width="1.3363">
    <path transform="matrix(.26458 0 0 .26458 57.427 70.189)" d="m236.17 401.57c-7.5884-1.0712-16.446-2.7659-21.92-4.1939-43.564-11.363-79.895-41.362-99.103-81.829l-1.5943-3.3588h2.0535c1.8807 0 2.3311 0.55025 5.3535 6.5407 8.0265 15.909 21.66 32.996 35.699 44.742 17.323 14.494 40.445 26.157 60.976 30.758 3.5835 0.803 7.8458 1.7634 9.4718 2.1342 7.2352 1.65 24.261 2.3444 36.544 1.4904 11.201-0.77873 12.182-0.75091 13.001 0.36869 1.3391 1.8313 1.1175 2.1621-1.7662 2.6358-3.2357 0.53163-35.755 1.1297-38.714 0.71197z" style="paint-order:stroke fill markers"/>
    <path transform="matrix(.26458 0 0 .26458 57.427 70.189)" d="m117.12 309.18c-14.549-36.348-15.924-70.323-4.2672-105.41 5.024-15.124 4.6739-14.618 10.119-14.618h4.4982l-2.6662 6.1872c-12.204 28.32-14.715 59.991-7.0977 89.532 2.0073 7.7852 5.8417 18.446 8.6173 23.959l1.3351 2.6516h-4.8091c-4.7656 0-4.8174-0.0208-5.7289-2.2981z" style="paint-order:stroke fill markers"/>
    <path transform="matrix(.26458 0 0 .26458 57.427 70.189)" d="m115.15 185.09c7.7855-16.402 16.907-29.224 30.249-42.52 22.312-22.234 49.615-36.259 82.289-42.27 10.899-2.005 49.851-1.7018 49.851 0.3881 0 0.28362-0.39847 1.0606-0.88549 1.7267-0.81868 1.1196-1.7997 1.1474-13.001 0.36869-12.283-0.85399-29.309-0.15963-36.544 1.4904-1.626 0.37082-5.8883 1.3312-9.4718 2.1342-20.531 4.6007-43.653 16.264-60.976 30.758-14.038 11.746-27.672 28.833-35.699 44.742-3.0224 5.9905-3.4728 6.5407-5.3535 6.5407h-2.0535z" style="paint-order:stroke fill markers"/>
   </g>
  </g>
  <g stroke="#fff" aria-label="41">
   <path d="m113.98 144.36v5.176c0 0.98778 0.43463 1.4224 1.4224 1.4224h6.0847c0.98778 0 1.4224-0.43462 1.4224-1.4224v-25.603c0-0.98777-0.43462-1.4224-1.4224-1.4224h-6.0847c-0.98777 0-1.4224 0.43463-1.4224 1.4224v12.169h-3.6745c-0.75071 0-1.2248-0.51364-1.2248-1.3434v-10.826c0-0.98777-0.43462-1.4224-1.4224-1.4224h-6.1242c-0.98778 0-1.4224 0.43463-1.4224 1.4224v13.868c0 4.5043 2.0546 6.5588 7.191 6.5588z"/>
   <path d="m146.42 150.96c0.98778 0 1.4224-0.43462 1.4224-1.4224v-4.7808c0-0.98777-0.43462-1.4224-1.4224-1.4224h-3.7931v-19.4c0-0.98777-0.43462-1.4224-1.4224-1.4224h-11.458c-0.98778 0-1.4224 0.43463-1.4224 1.4224v4.7808c0 0.98777 0.43462 1.4224 1.4224 1.4224h3.635v13.197h-4.4252c-0.98778 0-1.4224 0.43463-1.4224 1.4224v4.7808c0 0.98778 0.43462 1.4224 1.4224 1.4224z"/>
  </g>
  <path d="m123.98 70.189c-36.689 0-66.549 29.86-66.549 66.549s29.86 66.549 66.549 66.549c36.689 0 66.549-29.86 66.549-66.549s-29.86-66.549-66.549-66.549zm0 10.992c2.4486 0 4.8586 0.15894 7.2223 0.46405v6.9345l1.9105 0.36327c5.0854 0.96618 9.95 2.7272 14.496 5.2483v-0.0026c4.8392 2.684 9.1641 6.1498 12.856 10.299 3.9012 4.3848 6.9459 9.3584 9.0547 14.797v3e-3h3e-3c2.1873 5.6347 3.2949 11.573 3.2949 17.678 0 5.5952-0.93308 11.053-2.7673 16.256l-0.64648 1.8355 5.7707 3.3512c-1.8958 4.4884-4.3659 8.6714-7.3153 12.462l-5.7371-3.3285-1.2754 1.4609c-4.1513 4.7649-9.2848 8.7781-14.875 11.606l-3e-3 3e-3c-3.347 1.6964-6.8913 3.0015-10.53 3.8752-3.7478 0.90103-7.6222 1.3648-11.514 1.3648-3.8867 0-7.7604-0.45892-11.498-1.3591h-3e-3c-3.6376-0.87357-7.1754-2.1777-10.525-3.869-5.5844-2.8216-10.718-6.8222-14.861-11.578l-1.2738-1.463-5.6632 3.2887c-2.9497-3.7906-5.4189-7.9735-7.3147-12.462l5.6927-3.3042-0.65267-1.8376c-1.847-5.2148-2.7848-10.693-2.7848-16.301 0-6.1125 1.107-12.057 3.3006-17.698h0.0026v-3e-3c2.1154-5.4518 5.165-10.426 9.08-14.818 3.7042-4.155 8.0354-7.6117 12.889-10.297 4.5516-2.5142 9.4298-4.2667 14.529-5.2266l1.9141-0.36174v-6.9169c2.3637-0.30512 4.7743-0.46405 7.2229-0.46405zm-11.922 1.2795v2.3652c-4.885 1.1089-9.6126 2.7789-14.016 5.211l-0.0026 0.0026c-5.3135 2.9392-10.069 6.7332-14.123 11.281-4.2817 4.8036-7.6352 10.272-9.9534 16.246-2.4039 6.1821-3.623 12.717-3.623 19.399 0 5.4614 0.94575 10.797 2.5549 15.945l-1.7689 1.0268c-1.753-5.413-2.7037-11.192-2.7037-17.199 0-26.654 18.643-48.84 43.635-54.277zm23.844 0c24.992 5.4374 43.635 27.624 43.635 54.277 0 6.0075-0.95046 11.787-2.7037 17.2l-1.8547-1.0769c1.597-5.133 2.5368-10.449 2.5368-15.896 0-6.675-1.2167-13.203-3.6132-19.377v-3e-3c-2.3111-5.9597-5.6577-11.426-9.9255-16.223-4.0402-4.5407-8.7872-8.3429-14.088-11.283-4.3966-2.4383-9.1124-4.1147-13.986-5.2302zm27.045 90.992 1.818 1.0552c-10.138 10.946-24.641 17.787-40.785 17.787-16.143 0-30.647-6.841-40.785-17.787l1.6578-0.96327c4.293 4.5778 9.3641 8.4585 14.928 11.27v3e-3c3.6694 1.8526 7.5475 3.2841 11.545 4.2442 4.1034 0.98827 8.3444 1.4883 12.6 1.4883 4.2645 0 8.5042-0.50866 12.611-1.496 3.9969-0.95983 7.8823-2.3908 11.555-4.2519 5.5644-2.8146 10.562-6.7715 14.855-11.348z" color="#000000" color-rendering="auto" dominant-baseline="auto" image-rendering="auto" shape-rendering="auto" solid-color="#000000" style="font-feature-settings:normal;font-variant-alternates:normal;font-variant-caps:normal;font-variant-ligatures:normal;font-variant-numeric:normal;font-variant-position:normal;isolation:auto;mix-blend-mode:normal;paint-order:markers stroke fill;shape-padding:0;text-decoration-color:#000000;text-decoration-line:none;text-decoration-style:solid;text-indent:0;text-orientation:mixed;text-transform:none;white-space:normal"/>
 </g>
</svg>
