<?xml version="1.0" encoding="UTF-8"?>
<!-- Created with Inkscape (http://www.inkscape.org/) -->
<svg width="133.1mm" height="133.1mm" version="1.1" viewBox="0 0 133.1 133.1" xmlns="http://www.w3.org/2000/svg" xmlns:cc="http://creativecommons.org/ns#" xmlns:dc="http://purl.org/dc/elements/1.1/" xmlns:rdf="http://www.w3.org/1999/02/22-rdf-syntax-ns#">
 <metadata>
  <rdf:RDF>
   <cc:Work rdf:about="">
    <dc:format>image/svg+xml</dc:format>
    <dc:type rdf:resource="http://purl.org/dc/dcmitype/StillImage"/>
   </cc:Work>
  </rdf:RDF>
 </metadata>
 <g transform="translate(-57.427 -70.189)">
  <g fill="#fff" fill-opacity=".99216" fill-rule="evenodd" stroke-width="5.3993">
   <path transform="matrix(.26458 0 0 .26458 57.427 70.189)" d="m225.71 459.26c-43.865-6.0884-84.333-25.036-116.19-54.403-9.1404-8.4252-10.776-10.552-8.9144-11.593 1.7382-0.97277 4.7683 0.97876 12.765 8.2212 30.82 27.914 66.482 45.225 105.89 51.405 19.138 3.0008 56.728 2.2602 73.592-1.45 36.423-8.013 68.678-24.753 94.504-49.047 8.9563-8.4247 11.722-10.278 14.175-9.4991 2.8981 0.91981 2.777 1.2496-2.4586 6.6969-9.413 9.7937-27.708 23.926-41.177 31.808-21.703 12.7-43.491 20.953-68.007 25.758-14.071 2.7581-50.792 3.9614-64.18 2.1032z"/>
   <path transform="matrix(.26458 0 0 .26458 57.427 70.189)" d="m447.25 312.99c-1.2871-1.5509-1.0195-4.5676 1.1724-13.214 6.5933-26.009 7.5603-61.935 2.3395-86.919-16.022-76.671-70.564-135.23-145.3-156.01-7.107-1.9759-8.3206-2.8001-8.3206-5.6506 0-4.3687 1.2883-4.2654 18.945 1.5185 52.673 17.254 97.837 56.125 122.72 105.62 7.6975 15.31 16.162 41.414 19.07 58.808 4.4933 26.884 2.6178 63.862-4.5465 89.643-2.3854 8.584-3.3174 9.5349-6.0814 6.2046z"/>
   <path transform="matrix(.26458 0 0 .26458 57.427 70.189)" d="m48.851 303.21c-5.142-20.694-6.4015-34.082-5.587-59.392 0.59261-18.416 1.5789-27.262 4.346-38.981 16.976-71.892 69.498-129.31 139.16-152.13 17.674-5.7896 18.945-5.89 18.945-1.4963 0 2.9419-1.1984 3.6779-9.6429 5.9221-62.528 16.618-115.36 66.241-136.7 128.39-12.343 35.955-14.252 79.561-5.0496 115.34 1.9428 7.5529 2.2594 10.943 1.1472 12.283-2.7666 3.3336-3.6557 1.9996-6.6211-9.9348z"/>
  </g>
  <path d="m117.1 189.11c-11.8-1.6384-22.399-7.0554-30.861-15.771-1.7559-1.8088-3.2908-3.2887-3.411-3.2887-0.1202 0-1.4863 0.73095-3.0359 1.6243-1.5495 0.89337-2.8739 1.6243-2.943 1.6243-0.49308 0-7.5185-11.899-7.5185-12.734 0-0.0926 1.3248-0.94731 2.9441-1.8994s2.9707-1.7495 3.0032-1.7721c0.0325-0.0226-0.453-1.6057-1.0789-3.5179-1.9191-5.8634-2.5667-10.932-2.3244-18.191 0.16565-4.9631 0.43311-7.1944 1.2237-10.209 3.2918-12.552 9.8138-22.312 20.012-29.95 5.5131-4.1287 14.016-7.8792 20.584-9.0793l2.741-0.50086v-7.4594l2.496-0.26089c3.1557-0.32984 7.6403-0.32887 10.397 0.0022l2.1319 0.25607v3.8012c0 3.4571 0.0695 3.8012 0.7677 3.8012 1.617 0 8.6822 2.0835 12.183 3.5926 13.97 6.0227 24.539 17.611 29.261 32.085 3.268 10.015 3.2802 21.729 0.0331 31.826-0.65932 2.0502-1.1603 3.7545-1.1133 3.7873 0.047 0.0327 1.4103 0.82545 3.0296 1.7616s2.9441 1.7899 2.9441 1.8973c0 0.6027-3.2453 6.5389-5.1478 9.4163l-2.2171 3.3531-6.295-3.4115-2.9964 3.1544c-7.1339 7.5101-16.399 12.827-26.349 15.12-4.9152 1.133-13.816 1.5872-18.461 0.94222z" fill="#ffca66" fill-rule="evenodd" style="paint-order:stroke fill markers"/>
  <path d="m123.98 70.189c-36.689 0-66.549 29.86-66.549 66.549s29.86 66.549 66.549 66.549c36.689 0 66.549-29.86 66.549-66.549s-29.86-66.549-66.549-66.549zm0 10.992c2.4486 0 4.8586 0.15894 7.2223 0.46405v6.9345l1.9105 0.36327c5.0854 0.96618 9.95 2.7272 14.496 5.2483v-0.0026c4.8392 2.684 9.1641 6.1498 12.856 10.299 3.9012 4.3848 6.9459 9.3584 9.0547 14.797v3e-3h3e-3c2.1873 5.6347 3.2949 11.573 3.2949 17.678 0 5.5952-0.93308 11.053-2.7673 16.256l-0.64648 1.8355 5.7707 3.3512c-1.8958 4.4884-4.3659 8.6714-7.3153 12.462l-5.7371-3.3285-1.2754 1.4609c-4.1513 4.7649-9.2848 8.7781-14.875 11.606l-3e-3 3e-3c-3.347 1.6964-6.8913 3.0015-10.53 3.8752-3.7478 0.90103-7.6222 1.3648-11.514 1.3648-3.8867 0-7.7604-0.45892-11.498-1.3591h-3e-3c-3.6376-0.87357-7.1754-2.1777-10.525-3.869-5.5844-2.8216-10.718-6.8222-14.861-11.578l-1.2738-1.463-5.6632 3.2887c-2.9497-3.7906-5.4189-7.9735-7.3147-12.462l5.6927-3.3042-0.65267-1.8376c-1.847-5.2148-2.7848-10.693-2.7848-16.301 0-6.1125 1.107-12.057 3.3006-17.698h0.0026v-3e-3c2.1154-5.4518 5.165-10.426 9.08-14.818 3.7042-4.155 8.0354-7.6117 12.889-10.297 4.5516-2.5142 9.4298-4.2667 14.529-5.2266l1.9141-0.36174v-6.9169c2.3637-0.30512 4.7743-0.46405 7.2229-0.46405zm-11.922 1.2795v2.3652c-4.885 1.1089-9.6126 2.7789-14.016 5.211l-0.0026 0.0026c-5.3135 2.9392-10.069 6.7332-14.123 11.281-4.2817 4.8036-7.6352 10.272-9.9534 16.246-2.4039 6.1821-3.623 12.717-3.623 19.399 0 5.4614 0.94575 10.797 2.5549 15.945l-1.7689 1.0268c-1.753-5.413-2.7037-11.192-2.7037-17.199 0-26.654 18.643-48.84 43.635-54.277zm23.844 0c24.992 5.4374 43.635 27.624 43.635 54.277 0 6.0075-0.95046 11.787-2.7037 17.2l-1.8547-1.0769c1.597-5.133 2.5368-10.449 2.5368-15.896 0-6.675-1.2167-13.203-3.6132-19.377v-3e-3c-2.3111-5.9597-5.6577-11.426-9.9255-16.223-4.0402-4.5407-8.7872-8.3429-14.088-11.283-4.3966-2.4383-9.1124-4.1147-13.986-5.2302zm27.045 90.992 1.818 1.0552c-10.138 10.946-24.641 17.787-40.785 17.787-16.143 0-30.647-6.841-40.785-17.787l1.6578-0.96327c4.293 4.5778 9.3641 8.4585 14.928 11.27v3e-3c3.6694 1.8526 7.5475 3.2841 11.545 4.2442 4.1034 0.98827 8.3444 1.4883 12.6 1.4883 4.2645 0 8.5042-0.50866 12.611-1.496 3.9969-0.95983 7.8823-2.3908 11.555-4.2519 5.5644-2.8146 10.562-6.7715 14.855-11.348z" color="#000000" color-rendering="auto" dominant-baseline="auto" image-rendering="auto" shape-rendering="auto" solid-color="#000000" style="font-feature-settings:normal;font-variant-alternates:normal;font-variant-caps:normal;font-variant-ligatures:normal;font-variant-numeric:normal;font-variant-position:normal;isolation:auto;mix-blend-mode:normal;paint-order:markers stroke fill;shape-padding:0;text-decoration-color:#000000;text-decoration-line:none;text-decoration-style:solid;text-indent:0;text-orientation:mixed;text-transform:none;white-space:normal"/>
  <path transform="matrix(.26458 0 0 .26458 57.427 70.189)" d="m50.054 307.59c-5.3927-18.159-7.1057-31.761-7.0728-56.164 0.03617-26.881 2.0183-40.256 9.4132-63.52 10.294-32.383 26.231-58.143 51.799-83.724 25.935-25.948 50.557-41.143 84.038-51.863 16.763-5.3669 18.197-5.46 18.197-1.1799 0 2.9353-1.4818 3.7017-13.912 7.1955-28.433 7.9917-57.39 24.621-80.1 45.998-53.428 50.295-75.885 125.41-58.321 195.08 3.0888 12.252 3.1242 12.963 0.70945 14.255-2.1923 1.1733-2.845 0.33773-4.7518-6.0829z" fill="#fff" fill-rule="evenodd" style="paint-order:stroke fill markers"/>
  <path class="st66" d="m124.48 95.901s10.436 2.7849 14.559 2.7849 8.8733-2.4504 8.8733-2.4504l10.464 9.5559s-5.2352 9.3306-5.0646 14.109c0 0-0.17063 4.6619 4.0408 17.747 2.075 6.4434 2.2729 15.358-0.79859 22.183-2.6756 5.9519-6.9417 11.945-17.289 15.016-10.354 3.0715-14.73 6.0885-15.187 8.0201h-0.19795c-0.45731-1.9316-4.8325-4.9486-15.187-8.0201-10.354-3.0715-14.614-9.0644-17.289-15.016-3.0715-6.8256-2.8668-15.74-0.7986-22.183 4.2114-13.085 4.0408-17.747 4.0408-17.747 0.17065-4.7779-5.0646-14.109-5.0646-14.109l10.464-9.5559s4.7506 2.4504 8.8733 2.4504 14.559-2.7849 14.559-2.7849z" stroke-width=".68256"/>
  <path class="st67" d="m123.98 177.8c-2.4026-1.7951-6.6618-3.9452-14.313-6.2181-9.392-2.7848-12.928-8.2112-15.153-13.146-2.8258-6.2727-2.3685-14.436-0.66208-19.74 4.0066-12.45 4.2114-17.719 4.2046-18.764 0.10239-4.1022-2.5118-9.9927-4.2251-13.392l6.8666-6.2659c2.0409 0.81908 5.1806 1.8293 8.2249 1.8293 4.0954 0 12.6-1.9726 15.057-2.7712 2.4572 0.79859 10.962 2.7712 15.057 2.7712 3.0374 0 6.184-1.0102 8.2249-1.8293l6.8598 6.2659c-1.7132 3.3992-4.3274 9.2965-4.2251 13.392-7e-3 1.0443 0.19794 6.3137 4.2046 18.764 1.7064 5.3035 2.1637 13.46-0.66209 19.74-2.2183 4.9349-5.7608 10.361-15.153 13.146-7.6447 2.2729-11.904 4.4298-14.306 6.2181z" stroke-width=".68256"/>
  <g transform="matrix(.68538 0 0 .68538 39.011 32.81)">
   <path class="st68" d="m117.22 111.98s-1.7951 5.0646-4.5254 7.1396h-1.4538s-1.0238 2.5869-6.2318 5.9178h30.545l1.2832-3.6722h-7.4263l2.819-2.86h-1.6245l-3.4128 2.7712h-4.266l5.2899-8.532-1.7064-0.34127-5.5902 9.0439h-7.9791s5.2079-5.0373 5.9724-9.474h-1.6928z"/>
   <g transform="matrix(.68256 0 0 .68256 -122.56 -35.082)">
    <path class="st69" d="m393.74 209.9c-0.06-0.04-0.11-0.09-0.11-0.09 0.1 0.13 0.13 0.14 0.11 0.09z"/>
    <path class="st69" d="m396.38 204.96c-3.58 2.33-5.47 1.32-8.15 4.02-2.37 2.39-5.37 8.15-7.62 12.94-1.16-0.1-2.82-0.26-4.88-0.46 0.59-1.75 1.16-3.36 1.57-4.26 1.16-2.51 1.43-3.98 4.18-7.86 2.34-3.29 4.54-1.19 4.69-0.94 0.16 0.08 0.42 0.15 0.55-0.29 0.54-1.88 1.28-3 2.08-4.17 0.5-0.72-0.58-0.66-0.58-0.66-3.25 2.66-5.21 1.87-7.54 4.8-2.03 2.55-4.31 8.38-6 13.26-10.99-1.11-31.16-3.45-43.5-6.78l-5.63 5.38s16.38 2.5 29.75 3.63c6.76 0.57 13.29 1.16 18.11 1.6-0.76 2.39-1.23 4.02-1.23 4.02h1.13s0.51-1.74 1.2-3.92c1.78 0.16 3.27 0.31 4.39 0.41-0.97 2.18-1.57 3.67-1.57 3.67l1.14 0.12s0.68-1.62 1.58-3.68c0.74 0.07 1.14 0.11 1.14 0.11l1.25-3.83s-0.26-0.02-0.71-0.06c0.8-1.74 1.57-3.34 2.1-4.21 1.45-2.41 1.88-3.87 5.09-7.47 2.72-3.07 4.71-0.7 4.84-0.43 0.15 0.1 0.41 0.2 0.59-0.23 0.75-1.83 1.62-2.89 2.56-3.98 0.57-0.66-0.53-0.73-0.53-0.73z"/>
    <path class="st69" d="m386.16 208.41c-0.07-0.04-0.12-0.08-0.12-0.08 0.12 0.11 0.15 0.12 0.12 0.08z"/>
   </g>
  </g>
  <g transform="matrix(.68538 0 0 .68538 39.011 82.133)">
   <path class="st68" d="m117.22 111.98s-1.7951 5.0646-4.5254 7.1396h-1.4538s-1.0238 2.5869-6.2318 5.9178h30.545l1.2832-3.6722h-7.4263l2.819-2.86h-1.6245l-3.4128 2.7712h-4.266l5.2899-8.532-1.7064-0.34127-5.5902 9.0439h-7.9791s5.2079-5.0373 5.9724-9.474h-1.6928z"/>
   <g transform="matrix(.68256 0 0 .68256 -122.56 -35.082)">
    <path class="st69" d="m393.74 209.9c-0.06-0.04-0.11-0.09-0.11-0.09 0.1 0.13 0.13 0.14 0.11 0.09z"/>
    <path class="st69" d="m396.38 204.96c-3.58 2.33-5.47 1.32-8.15 4.02-2.37 2.39-5.37 8.15-7.62 12.94-1.16-0.1-2.82-0.26-4.88-0.46 0.59-1.75 1.16-3.36 1.57-4.26 1.16-2.51 1.43-3.98 4.18-7.86 2.34-3.29 4.54-1.19 4.69-0.94 0.16 0.08 0.42 0.15 0.55-0.29 0.54-1.88 1.28-3 2.08-4.17 0.5-0.72-0.58-0.66-0.58-0.66-3.25 2.66-5.21 1.87-7.54 4.8-2.03 2.55-4.31 8.38-6 13.26-10.99-1.11-31.16-3.45-43.5-6.78l-5.63 5.38s16.38 2.5 29.75 3.63c6.76 0.57 13.29 1.16 18.11 1.6-0.76 2.39-1.23 4.02-1.23 4.02h1.13s0.51-1.74 1.2-3.92c1.78 0.16 3.27 0.31 4.39 0.41-0.97 2.18-1.57 3.67-1.57 3.67l1.14 0.12s0.68-1.62 1.58-3.68c0.74 0.07 1.14 0.11 1.14 0.11l1.25-3.83s-0.26-0.02-0.71-0.06c0.8-1.74 1.57-3.34 2.1-4.21 1.45-2.41 1.88-3.87 5.09-7.47 2.72-3.07 4.71-0.7 4.84-0.43 0.15 0.1 0.41 0.2 0.59-0.23 0.75-1.83 1.62-2.89 2.56-3.98 0.57-0.66-0.53-0.73-0.53-0.73z"/>
    <path class="st69" d="m386.16 208.41c-0.07-0.04-0.12-0.08-0.12-0.08 0.12 0.11 0.15 0.12 0.12 0.08z"/>
   </g>
  </g>
  <path class="st48" d="m88.731 100.86"/>
  <path transform="matrix(.26458 0 0 .26458 57.427 70.189)" d="m447.66 313.49c-2.0593-1.1525-1.9604-2.5959 1.0243-14.942 21.983-90.932-21.986-185.35-105.96-227.53-11.27-5.661-27.293-11.687-38.799-14.591-5.1478-1.2994-6.0714-2.0848-6.0714-5.1624 0-3.3505 0.35739-3.552 4.6429-2.6178 36.573 7.9722 79.524 34.289 106.28 65.122 44.961 51.807 61.742 120.07 46.044 187.29-1.6037 6.8681-3.3595 12.762-3.9017 13.097-0.54223 0.33511-2.0116 0.0353-3.2654-0.66642z" fill="#fff" fill-rule="evenodd" style="paint-order:stroke fill markers"/>
  <g transform="matrix(.68538 0 0 .68538 39.011 57.472)">
   <path class="st68" d="m117.22 111.98s-1.7951 5.0646-4.5254 7.1396h-1.4538s-1.0238 2.5869-6.2318 5.9178h30.545l1.2832-3.6722h-7.4263l2.819-2.86h-1.6245l-3.4128 2.7712h-4.266l5.2899-8.532-1.7064-0.34127-5.5902 9.0439h-7.9791s5.2079-5.0373 5.9724-9.474h-1.6928z"/>
   <g transform="matrix(.68256 0 0 .68256 -122.56 -35.082)">
    <path class="st69" d="m393.74 209.9c-0.06-0.04-0.11-0.09-0.11-0.09 0.1 0.13 0.13 0.14 0.11 0.09z"/>
    <path class="st69" d="m396.38 204.96c-3.58 2.33-5.47 1.32-8.15 4.02-2.37 2.39-5.37 8.15-7.62 12.94-1.16-0.1-2.82-0.26-4.88-0.46 0.59-1.75 1.16-3.36 1.57-4.26 1.16-2.51 1.43-3.98 4.18-7.86 2.34-3.29 4.54-1.19 4.69-0.94 0.16 0.08 0.42 0.15 0.55-0.29 0.54-1.88 1.28-3 2.08-4.17 0.5-0.72-0.58-0.66-0.58-0.66-3.25 2.66-5.21 1.87-7.54 4.8-2.03 2.55-4.31 8.38-6 13.26-10.99-1.11-31.16-3.45-43.5-6.78l-5.63 5.38s16.38 2.5 29.75 3.63c6.76 0.57 13.29 1.16 18.11 1.6-0.76 2.39-1.23 4.02-1.23 4.02h1.13s0.51-1.74 1.2-3.92c1.78 0.16 3.27 0.31 4.39 0.41-0.97 2.18-1.57 3.67-1.57 3.67l1.14 0.12s0.68-1.62 1.58-3.68c0.74 0.07 1.14 0.11 1.14 0.11l1.25-3.83s-0.26-0.02-0.71-0.06c0.8-1.74 1.57-3.34 2.1-4.21 1.45-2.41 1.88-3.87 5.09-7.47 2.72-3.07 4.71-0.7 4.84-0.43 0.15 0.1 0.41 0.2 0.59-0.23 0.75-1.83 1.62-2.89 2.56-3.98 0.57-0.66-0.53-0.73-0.53-0.73z"/>
    <path class="st69" d="m386.16 208.41c-0.07-0.04-0.12-0.08-0.12-0.08 0.12 0.11 0.15 0.12 0.12 0.08z"/>
   </g>
  </g>
  <g stroke="#fff" aria-label="83">
   <path d="m123.68 140.85c0-3.714-1.8175-5.6501-4.1882-6.1242 1.7385-0.75071 2.3312-2.2521 2.3312-4.2672v-2.2916c0-3.8721-2.3312-6.2428-10.273-6.2428s-10.391 2.3707-10.391 6.2428v2.2916c0 2.0151 0.59267 3.5165 2.3312 4.2672-2.3707 0.47414-4.1882 2.4102-4.1882 6.1242v3.8326c0 4.1092 2.6868 6.8749 12.209 6.8749 9.5222 0 12.169-2.7658 12.169-6.8749zm-14.659-8.8505v-1.7385c0-0.79022 0.27658-1.4224 2.4892-1.4224 2.2521 0 2.4497 0.63218 2.4497 1.4224v1.7385c0 0.82973-0.19756 1.4619-2.4497 1.4619-2.2126 0-2.4892-0.63218-2.4892-1.4619zm-0.98778 11.182v-2.0941c0-0.79022 0.63218-1.4224 3.477-1.4224 2.8843 0 3.4375 0.63218 3.4375 1.4224v2.0941c0 0.82973-0.55316 1.4619-3.4375 1.4619-2.8448 0-3.477-0.63218-3.477-1.4619z"/>
   <path d="m128.5 143.49c-0.98778 0-1.4224 0.43462-1.4224 1.4224v4.6228c0 0.98778 0.43462 1.4224 1.4224 1.4224h12.486c5.0574 0 7.6652-2.4892 7.6652-6.5588v-3.9511c0-3.477-1.2248-5.2945-4.9784-5.7291 1.7385-0.75071 2.3312-2.2521 2.3312-4.2672v-2.2916c0-3.477-2.0941-5.6501-6.4798-5.6501h-11.024c-0.98778 0-1.4224 0.43463-1.4224 1.4224v4.7018c0 0.98777 0.43462 1.4224 1.4224 1.4224h7.3491c1.2644 0 1.5014 0.55316 1.5014 1.1853v0.59266c0 0.63218-0.23706 1.1853-1.5014 1.1853h-4.1487c-0.98778 0-1.4224 0.43462-1.4224 1.4224v4.2277c0 0.98778 0.43462 1.4224 1.4224 1.4224h6.7169c1.2644 0 1.5014 0.51365 1.5014 1.1458v1.0668c0 0.63217-0.23706 1.1853-1.5014 1.1853z"/>
  </g>
 </g>
 <style type="text/css">.st0{fill:#FFCA66;}
	.st1{fill:#8D2353;}
	.st2{fill:#DC6026;}
	.st3{fill:#2484C6;}
	.st4{fill:none;}
	.st5{fill:#9BA7B9;stroke:#9BA7B9;stroke-width:0.5;stroke-miterlimit:10;}
	.st6{fill:#9BA7B9;stroke:#9BA7B9;stroke-width:0.5;stroke-linejoin:round;stroke-miterlimit:10;}
	.st7{fill:#9BA7B9;stroke:#9BA7B9;stroke-width:0.4;stroke-miterlimit:10;}
	.st8{fill:none;stroke:#000000;stroke-width:0.4;stroke-miterlimit:10;}
	.st9{fill:#81512B;stroke:#000000;stroke-width:0.35;stroke-linecap:round;stroke-linejoin:round;stroke-miterlimit:10;}
	.st10{fill:#F4D19F;}
	.st11{fill:none;stroke:#000000;stroke-width:0.25;stroke-linecap:round;stroke-miterlimit:10;}
	.st12{fill:none;stroke:#000000;stroke-width:0.3;stroke-linecap:round;stroke-miterlimit:10;}
	.st13{fill:none;stroke:#000000;stroke-width:0.25;stroke-miterlimit:10;}
	.st14{fill:none;stroke:#000000;stroke-width:0.25;stroke-linecap:round;stroke-linejoin:round;stroke-miterlimit:10;}
	.st15{fill:none;stroke:#000000;stroke-width:0.2;stroke-linecap:round;stroke-linejoin:round;stroke-miterlimit:10;}
	.st16{fill:none;stroke:#000000;stroke-width:0.16;stroke-linecap:round;stroke-linejoin:round;stroke-miterlimit:10;}
	.st17{fill:none;stroke:#000000;stroke-width:0.15;stroke-linecap:round;stroke-linejoin:round;stroke-miterlimit:10;}
	.st18{stroke:#000000;stroke-width:0.15;stroke-linecap:round;stroke-linejoin:round;stroke-miterlimit:10;}
	.st19{fill:#9BA7B9;stroke:#000000;stroke-width:0.6;stroke-linecap:round;stroke-linejoin:round;stroke-miterlimit:10;}
	.st20{fill:#D0202E;stroke:#000000;stroke-width:0.6;stroke-linecap:round;stroke-linejoin:round;stroke-miterlimit:10;}
	.st21{fill:none;stroke:#000000;stroke-width:0.5;stroke-miterlimit:10;}
	.st22{fill:#5C9243;stroke:#FFFFFF;stroke-width:0.125;stroke-miterlimit:10;}
	.st23{fill:#D0202E;}
	.st24{fill:#5F2A2B;}
	.st25{fill:#E88290;}
	.st26{fill:#645FAA;stroke:#443D64;stroke-width:0.1181;stroke-miterlimit:10;}
	.st27{fill:#B0ACD5;stroke:#9B95C9;stroke-width:0.1181;stroke-miterlimit:10;}
	.st28{fill:#5C9243;}
	.st29{fill:#5C9243;stroke:#FFFFFF;stroke-width:0.102;stroke-miterlimit:10;}
	.st30{fill:#645FAA;stroke:#443D64;stroke-width:0.1159;stroke-miterlimit:10;}
	.st31{fill:#B0ACD5;stroke:#9B95C9;stroke-width:0.1159;stroke-miterlimit:10;}
	.st32{fill:#C1AE31;stroke:#5F2A2B;stroke-width:0.62;stroke-linecap:round;stroke-linejoin:round;}
	.st33{fill:#C1AE31;stroke:#5F2A2B;stroke-width:0.64;stroke-linecap:round;stroke-linejoin:round;}
	.st34{fill:#C1AE31;stroke:#5F2A2B;stroke-width:0.65;stroke-linecap:round;stroke-linejoin:round;}
	.st35{fill:#C1AE31;stroke:#5F2A2B;stroke-width:0.63;stroke-linecap:round;stroke-linejoin:round;}
	.st36{fill:#C1AE31;stroke:#5F2A2B;stroke-width:0.66;stroke-linecap:round;stroke-linejoin:round;}
	.st37{fill:#C1AE31;stroke:#5F2A2B;stroke-width:0.69;stroke-linecap:round;stroke-linejoin:round;}
	.st38{fill:#C1AE31;stroke:#5F2A2B;stroke-width:0.68;stroke-linecap:round;stroke-linejoin:round;}
	.st39{fill:#C1AE31;stroke:#5F2A2B;stroke-width:0.67;stroke-linecap:round;stroke-linejoin:round;}
	.st40{fill:#C1AE31;stroke:#5F2A2B;stroke-width:0.74;stroke-linecap:round;stroke-linejoin:round;}
	.st41{fill:#C1AE31;stroke:#5F2A2B;stroke-width:0.75;stroke-linecap:round;stroke-linejoin:round;}
	.st42{fill:#C1AE31;stroke:#5F2A2B;stroke-width:0.76;stroke-linecap:round;stroke-linejoin:round;}
	.st43{fill:#C1AE31;stroke:#5F2A2B;stroke-width:0.77;stroke-linecap:round;stroke-linejoin:round;}
	.st44{fill:#C1AE31;stroke:#5F2A2B;stroke-width:0.78;stroke-linecap:round;stroke-linejoin:round;}
	.st45{fill:#C1AE31;stroke:#5F2A2B;stroke-width:0.79;stroke-linecap:round;stroke-linejoin:round;}
	.st46{fill:#C1AE31;stroke:#5F2A2B;stroke-width:0.8;stroke-linecap:round;stroke-linejoin:round;}
	.st47{fill:#C1AE31;stroke:#5F2A2B;stroke-width:0.61;stroke-linecap:round;stroke-linejoin:round;stroke-miterlimit:10;}
	.st48{fill:#F4D19F;stroke:#000000;stroke-width:0.5;stroke-miterlimit:10;}
	.st49{fill:#C1AE31;}
	.st50{fill:#C1AE31;stroke:#5F2A2B;stroke-width:0.7;stroke-linecap:round;stroke-linejoin:round;}
	.st51{fill:#C1AE31;stroke:#5F2A2B;stroke-width:0.71;stroke-linecap:round;stroke-linejoin:round;}
	.st52{fill:#C1AE31;stroke:#5F2A2B;stroke-width:0.72;stroke-linecap:round;stroke-linejoin:round;}
	.st53{fill:#C1AE31;stroke:#5F2A2B;stroke-width:0.73;stroke-linecap:round;stroke-linejoin:round;}
	.st54{fill:#F4D19F;stroke:#000000;stroke-width:0.3;stroke-miterlimit:10;}
	.st55{fill:#81512B;stroke:#000000;stroke-width:0.35;stroke-miterlimit:10;}
	.st56{fill:#5C9243;stroke:#000000;stroke-width:0.375;stroke-linecap:square;stroke-linejoin:round;stroke-miterlimit:10;}
	.st57{fill:#5C9243;stroke:#000000;stroke-width:0.395;stroke-linecap:square;stroke-linejoin:round;stroke-miterlimit:10;}
	.st58{fill:#9BA7B9;stroke:#000000;stroke-width:0.75;stroke-linecap:round;stroke-linejoin:round;stroke-miterlimit:10;}
	.st59{fill:#5C9243;stroke:#000000;stroke-width:0.5;stroke-miterlimit:10;}
	.st60{fill:#DC6026;stroke:#000000;stroke-width:0.75;stroke-linecap:round;stroke-linejoin:round;stroke-miterlimit:10;}
	.st61{fill:#DC6026;stroke:#000000;stroke-width:0.5;stroke-linecap:round;stroke-linejoin:round;stroke-miterlimit:10;}
	.st62{fill:#81512B;stroke:#000000;stroke-width:0.5;stroke-miterlimit:10;}
	.st63{fill:#2484C6;stroke:#000000;stroke-width:0.75;stroke-miterlimit:10;}
	.st64{fill:#9BA7B9;}
	.st65{fill:#F4D19F;stroke:#000000;stroke-width:0.5;stroke-linecap:round;stroke-linejoin:round;stroke-miterlimit:10;}
	.st66{fill:#2178B5;stroke:#2178B5;stroke-miterlimit:10;}
	.st67{fill:#2484C6;stroke:#9BA7B9;stroke-miterlimit:10;}
	.st68{fill:#9BA7B9;stroke:#000000;stroke-width:0.3;stroke-miterlimit:10;}
	.st69{fill:#B58C58;stroke:#000000;stroke-width:0.3;stroke-miterlimit:10;}
	.st70{fill:#9BA7B9;stroke:#000000;stroke-width:0.4;stroke-miterlimit:10;}
	.st71{fill:#F4D19F;stroke:#000000;stroke-width:0.5;stroke-linecap:round;stroke-miterlimit:10;}
	.st72{fill:#C1AE31;stroke:#000000;stroke-width:0.5;}
	.st73{fill:#C1AE31;stroke:#000000;stroke-width:0.5;stroke-linecap:round;stroke-linejoin:round;}
	.st74{fill:#8D2353;stroke:#000000;stroke-width:0.5;stroke-linecap:round;stroke-linejoin:round;}
	.st75{fill:#81512B;}
	.st76{fill:#020405;}
	.st77{fill:#5B95CF;}
	.st78{fill:#5B95CF;stroke:#000000;stroke-width:0.75;stroke-miterlimit:10;}
	.st79{fill:#9BA7B9;stroke:#000000;stroke-width:0.75;stroke-miterlimit:10;}</style>
</svg>
