<?xml version="1.0" encoding="UTF-8"?>
<!-- Created with Inkscape (http://www.inkscape.org/) -->
<svg width="133.1mm" height="133.1mm" version="1.1" viewBox="0 0 133.1 133.1" xmlns="http://www.w3.org/2000/svg" xmlns:cc="http://creativecommons.org/ns#" xmlns:dc="http://purl.org/dc/elements/1.1/" xmlns:rdf="http://www.w3.org/1999/02/22-rdf-syntax-ns#">
 <defs>
  <clipPath id="clipPath2669">
   <rect x="78.127" y="94.812" width="89.197" height="42.13" ry="0" fill="#606" fill-rule="evenodd" opacity=".99" stroke="#8ea0d7" stroke-width=".47021"/>
  </clipPath>
 </defs>
 <metadata>
  <rdf:RDF>
   <cc:Work rdf:about="">
    <dc:format>image/svg+xml</dc:format>
    <dc:type rdf:resource="http://purl.org/dc/dcmitype/StillImage"/>
   </cc:Work>
  </rdf:RDF>
 </metadata>
 <g transform="translate(-57.427 -70.189)">
  <rect x="57.616" y="70.378" width="133.24" height="133.24" fill-opacity="0" stroke-width=".99718"/>
  <g fill="#606" fill-opacity=".99608" fill-rule="evenodd">
   <rect x="81.877" y="136.68" width="13.56" height="19.182" opacity=".99"/>
   <rect x="152.51" y="135.78" width="13.56" height="20" opacity=".99"/>
   <circle cx="123.98" cy="136.74" r="42.116" clip-path="url(#clipPath2669)" opacity=".99"/>
  </g>
  <ellipse cx="130.94" cy="135.67" rx=".18899" ry=".66146" stroke-width=".26458"/>
  <ellipse cx="123.98" cy="136.74" rx="28.537" ry="28.537" fill="#fff" stroke-width=".30498"/>
  <path d="m121.7 189.54c-9.3452-0.44731-18.626-4.3054-26.179-10.883-2.6289-2.2894-5.5628-5.4499-7.4889-8.0674-0.60888-0.82742-1.1565-1.5086-1.217-1.5136-0.06045-5e-3 -1.2033 0.72618-2.5397 1.625-1.3364 0.8988-2.5555 1.7112-2.7092 1.8053-0.25201 0.1543-0.32871 0.0937-0.78145-0.61696l-0.50201-0.78805 0.0675-15.478 87.129 0.107-8e-3 15.974-0.70934 0.98229-2.6927-1.8098c-1.481-0.99536-2.7498-1.8098-2.8195-1.8098-0.0697 0-0.7238 0.7786-1.4535 1.7302-9.8204 12.807-23.323 19.45-38.098 18.742z" fill="#606" fill-opacity=".99608" fill-rule="evenodd" opacity=".99"/>
  <g stroke="#fff" aria-label="62">
   <path d="m111.67 151.26c9.0876 0 11.379-3.1609 11.379-7.9812v-3.7931c0-4.7018-2.1336-7.112-9.2851-7.112-2.0941 0-3.7536 0.19755-5.0179 0.59266v-0.86924c0-1.936 0.55316-2.3707 2.4892-2.3707h7.3886c0.98777 0 1.4224-0.43462 1.4224-1.4224v-4.6623c0-0.98777-0.39511-1.4224-1.4224-1.4224h-9.0876c-7.4676 0-9.7197 3.2794-9.7197 8.0998v12.96c0 4.8204 2.1336 7.9812 11.853 7.9812zm-2.9238-10.945c0-0.79022 0.3556-1.4224 2.6472-1.4224 2.3707 0 2.7263 0.63218 2.7263 1.4224v2.3312c0 0.82974-0.3556 1.4619-2.7263 1.4619-2.2916 0-2.6472-0.63217-2.6472-1.4619z"/>
   <path d="m146.71 150.67c0.98777 0 1.4224-0.43463 1.4224-1.4224v-4.6228c0-0.98778-0.43463-1.4224-1.4224-1.4224h-11.261v-0.82973c0-0.86925 0.23707-0.94827 1.0273-1.1853l5.3735-1.699c3.8326-1.1853 6.1637-3.0028 6.1637-6.9935v-3.714c0-4.2672-2.4497-6.5588-6.954-6.5588h-11.656c-0.98777 0-1.4224 0.43463-1.4224 1.4224v4.6228c0 0.98778 0.43463 1.4224 1.4224 1.4224h8.5739c0.79022 0 1.0668 0.23707 1.0668 1.0273 0 0.86924-0.23706 1.1853-1.0668 1.4224l-5.2945 1.6595c-3.635 1.1063-6.2032 2.5287-6.2032 8.6529v6.7959c0 0.98777 0.43462 1.4224 1.4224 1.4224z"/>
  </g>
  <path d="m123.93 70.071c-36.689 0-66.549 29.86-66.549 66.549 0 36.689 29.86 66.549 66.549 66.549 36.689 0 66.549-29.86 66.549-66.549 0-36.689-29.86-66.549-66.549-66.549zm0 10.992c2.4486 0 4.8586 0.15894 7.2223 0.46405v6.9345l1.9105 0.36327c5.0854 0.96618 9.95 2.7272 14.496 5.2483v-0.0026c4.8392 2.684 9.1641 6.1498 12.856 10.299 3.9012 4.3848 6.9459 9.3584 9.0547 14.797v3e-3h3e-3c2.1873 5.6347 3.2949 11.573 3.2949 17.678 0 5.5952-0.93308 11.053-2.7673 16.256l-0.64648 1.8355 5.7707 3.3512c-1.8958 4.4884-4.3659 8.6714-7.3153 12.462l-5.7371-3.3285-1.2754 1.4609c-4.1513 4.7649-9.2848 8.7781-14.875 11.606l-3e-3 3e-3c-3.347 1.6964-6.8913 3.0015-10.53 3.8752-3.7478 0.90103-7.6222 1.3648-11.514 1.3648-3.8867 0-7.7604-0.45892-11.498-1.3591h-3e-3c-3.6376-0.87357-7.1754-2.1777-10.525-3.869-5.5844-2.8216-10.718-6.8222-14.861-11.578l-1.2738-1.463-5.6632 3.2887c-2.9497-3.7906-5.4189-7.9735-7.3147-12.462l5.6927-3.3042-0.65267-1.8376c-1.847-5.2148-2.7848-10.693-2.7848-16.301 0-6.1125 1.107-12.057 3.3006-17.698h0.0026v-3e-3c2.1154-5.4518 5.165-10.426 9.08-14.818 3.7042-4.155 8.0354-7.6117 12.889-10.297 4.5516-2.5142 9.4298-4.2667 14.529-5.2266l1.9141-0.36174v-6.9169c2.3637-0.30512 4.7743-0.46405 7.2229-0.46405zm-11.922 1.2795v2.3652c-4.885 1.1089-9.6126 2.7789-14.016 5.211l-0.0026 0.0026c-5.3135 2.9392-10.069 6.7332-14.123 11.281-4.2817 4.8036-7.6352 10.272-9.9534 16.246-2.4039 6.1821-3.623 12.717-3.623 19.399 0 5.4614 0.94575 10.797 2.5549 15.945l-1.7689 1.0268c-1.753-5.413-2.7037-11.192-2.7037-17.199 0-26.654 18.643-48.84 43.635-54.277zm23.844 0c24.992 5.4374 43.635 27.624 43.635 54.277 0 6.0075-0.95046 11.787-2.7037 17.2l-1.8547-1.0769c1.597-5.133 2.5368-10.449 2.5368-15.896 0-6.675-1.2167-13.203-3.6132-19.377v-3e-3c-2.3111-5.9597-5.6577-11.426-9.9255-16.223-4.0402-4.5407-8.7872-8.3429-14.088-11.283-4.3966-2.4383-9.1124-4.1147-13.986-5.2302zm27.045 90.992 1.818 1.0552c-10.138 10.946-24.641 17.787-40.785 17.787-16.143 0-30.647-6.841-40.785-17.787l1.6578-0.96327c4.293 4.5778 9.3641 8.4585 14.928 11.27v3e-3c3.6694 1.8526 7.5475 3.2841 11.545 4.2442 4.1034 0.98827 8.3444 1.4883 12.6 1.4883 4.2645 0 8.5042-0.50866 12.611-1.496 3.9969-0.95983 7.8823-2.3908 11.555-4.2519 5.5644-2.8146 10.562-6.7715 14.855-11.348z" color="#000000" color-rendering="auto" dominant-baseline="auto" image-rendering="auto" shape-rendering="auto" solid-color="#000000" style="font-feature-settings:normal;font-variant-alternates:normal;font-variant-caps:normal;font-variant-ligatures:normal;font-variant-numeric:normal;font-variant-position:normal;isolation:auto;mix-blend-mode:normal;paint-order:markers stroke fill;shape-padding:0;text-decoration-color:#000000;text-decoration-line:none;text-decoration-style:solid;text-indent:0;text-orientation:mixed;text-transform:none;white-space:normal"/>
  <g fill="none">
   <path transform="matrix(.26458 0 0 .26458 57.427 70.189)" d="m242.44 436.56c-36.241-1.4992-72.232-14.43-101.52-36.473-10.195-7.6729-21.572-18.265-29.042-27.038-2.3612-2.7732-4.485-5.056-4.7194-5.073-0.23442-0.017-4.6665 2.4338-9.849 5.4461-5.1825 3.0123-9.9104 5.735-10.506 6.0504-0.97729 0.51716-1.2747 0.31422-3.0305-2.0677l-1.9468-2.6412 0.13088-25.938 0.13088-25.938 337.89 0.35827-0.0136 26.769-0.0136 26.769-2.7508 3.2922-10.442-6.0655c-5.7433-3.336-10.664-6.0655-10.934-6.0655s-2.8069 2.6095-5.6368 5.7989c-38.083 42.922-90.448 65.186-147.74 62.816zm31.87-11.415c-1.5589-5.1049-11.92-42.337-11.92-42.834 0-0.36317 0.44063-0.80015 0.97917-0.97108 1.6506-0.52389 6.5113-5.6827 7.8577-8.3397 4.8376-9.5465 3.1765-19.861-4.3553-27.046-8.6826-8.2818-21.999-8.2818-30.681 0-6.08 5.7993-8.4306 13.775-6.38 21.648 1.439 5.5245 4.8463 10.561 8.7754 12.97 1.1325 0.69448 2.0651 1.4995 2.0726 1.789 0.0103 0.40104-10.518 38.232-11.907 42.784-0.25408 0.83282 1.0619 0.88389 22.779 0.88389 21.718 0 23.033-0.0511 22.779-0.88389z" opacity=".99"/>
   <path transform="matrix(.26458 0 0 .26458 57.427 70.189)" d="m242.44 436.56c-36.241-1.4992-72.232-14.43-101.52-36.473-10.195-7.6729-21.572-18.265-29.042-27.038-2.3612-2.7732-4.485-5.056-4.7194-5.073-0.23442-0.017-4.6665 2.4338-9.849 5.4461-5.1825 3.0123-9.9104 5.735-10.506 6.0504-0.97729 0.51716-1.2747 0.31422-3.0305-2.0677l-1.9468-2.6412 0.13088-25.938 0.13088-25.938 337.89 0.35827-0.0136 26.769-0.0136 26.769-2.7508 3.2922-10.442-6.0655c-5.7433-3.336-10.664-6.0655-10.934-6.0655s-2.8069 2.6095-5.6368 5.7989c-38.083 42.922-90.448 65.186-147.74 62.816zm31.87-11.415c-1.5589-5.1049-11.92-42.337-11.92-42.834 0-0.36317 0.44063-0.80015 0.97917-0.97108 1.6506-0.52389 6.5113-5.6827 7.8577-8.3397 4.8376-9.5465 3.1765-19.861-4.3553-27.046-8.6826-8.2818-21.999-8.2818-30.681 0-6.08 5.7993-8.4306 13.775-6.38 21.648 1.439 5.5245 4.8463 10.561 8.7754 12.97 1.1325 0.69448 2.0651 1.4995 2.0726 1.789 0.0103 0.40104-10.518 38.232-11.907 42.784-0.25408 0.83282 1.0619 0.88389 22.779 0.88389 21.718 0 23.033-0.0511 22.779-0.88389z" opacity=".99"/>
   <path transform="matrix(.26458 0 0 .26458 57.427 70.189)" d="m242.44 436.56c-36.241-1.4992-72.232-14.43-101.52-36.473-10.195-7.6729-21.572-18.265-29.042-27.038-2.3612-2.7732-4.485-5.056-4.7194-5.073-0.23442-0.017-4.6665 2.4338-9.849 5.4461-5.1825 3.0123-9.9104 5.735-10.506 6.0504-0.97729 0.51716-1.2747 0.31422-3.0305-2.0677l-1.9468-2.6412 0.13088-25.938 0.13088-25.938 337.89 0.35827-0.0136 26.769-0.0136 26.769-2.7508 3.2922-10.442-6.0655c-5.7433-3.336-10.664-6.0655-10.934-6.0655s-2.8069 2.6095-5.6368 5.7989c-38.083 42.922-90.448 65.186-147.74 62.816zm31.87-11.415c-1.5589-5.1049-11.92-42.337-11.92-42.834 0-0.36317 0.44063-0.80015 0.97917-0.97108 1.6506-0.52389 6.5113-5.6827 7.8577-8.3397 4.8376-9.5465 3.1765-19.861-4.3553-27.046-8.6826-8.2818-21.999-8.2818-30.681 0-6.08 5.7993-8.4306 13.775-6.38 21.648 1.439 5.5245 4.8463 10.561 8.7754 12.97 1.1325 0.69448 2.0651 1.4995 2.0726 1.789 0.0103 0.40104-10.518 38.232-11.907 42.784-0.25408 0.83282 1.0619 0.88389 22.779 0.88389 21.718 0 23.033-0.0511 22.779-0.88389z" opacity=".99"/>
   <path transform="matrix(.26458 0 0 .26458 57.427 70.189)" d="m242.44 436.56c-36.241-1.4992-72.232-14.43-101.52-36.473-10.195-7.6729-21.572-18.265-29.042-27.038-2.3612-2.7732-4.485-5.056-4.7194-5.073-0.23442-0.017-4.6665 2.4338-9.849 5.4461-5.1825 3.0123-9.9104 5.735-10.506 6.0504-0.97729 0.51716-1.2747 0.31422-3.0305-2.0677l-1.9468-2.6412 0.13088-25.938 0.13088-25.938 337.89 0.35827-0.0136 26.769-0.0136 26.769-2.7508 3.2922-10.442-6.0655c-5.7433-3.336-10.664-6.0655-10.934-6.0655s-2.8069 2.6095-5.6368 5.7989c-38.083 42.922-90.448 65.186-147.74 62.816zm31.87-11.415c-1.5589-5.1049-11.92-42.337-11.92-42.834 0-0.36317 0.44063-0.80015 0.97917-0.97108 1.6506-0.52389 6.5113-5.6827 7.8577-8.3397 4.8376-9.5465 3.1765-19.861-4.3553-27.046-8.6826-8.2818-21.999-8.2818-30.681 0-6.08 5.7993-8.4306 13.775-6.38 21.648 1.439 5.5245 4.8463 10.561 8.7754 12.97 1.1325 0.69448 2.0651 1.4995 2.0726 1.789 0.0103 0.40104-10.518 38.232-11.907 42.784-0.25408 0.83282 1.0619 0.88389 22.779 0.88389 21.718 0 23.033-0.0511 22.779-0.88389z" opacity=".99"/>
  </g>
  <circle cx="123.98" cy="165.33" r="5.8799" fill-rule="evenodd" opacity=".99"/>
  <path transform="matrix(.10146 0 0 -.20789 70.428 249.11)" d="m527.8 424.38-59.154-102.46h59.154 59.154l-29.577 51.229z" fill-rule="evenodd" opacity=".99"/>
  <g fill="#fff" fill-opacity=".99216" fill-rule="evenodd">
   <path transform="matrix(.26458 0 0 .26458 57.427 70.189)" d="m237.99 322.68-94.158-0.18387 0.30644-41.962c0.25359-34.724 0.50376-42.947 1.4503-47.676 4.9599-24.777 17.634-47.051 35.475-62.345 15.055-12.906 32.724-21.31 52.512-24.978 8.9108-1.6516 27.743-1.6068 36.429 0.0867 18.454 3.598 33.855 10.517 47.749 21.452 19.936 15.691 33.311 37.271 39.17 63.201 1.4808 6.5529 1.5645 8.8448 1.8214 49.904l0.26935 43.036-13.434-0.17592c-7.3884-0.0967-55.804-0.25866-107.59-0.35978zm-12.628-19.827c7.2599-1.9424 11.777-4.378 15.218-8.2048 4.1666-4.6342 5.5146-9.5205 5.9885-21.707 0.84965-21.848-3.0995-30.486-15.741-34.432-7.1894-2.2441-26.175-2.1702-36.358 0.14144l-1.9643 0.44593v-4.2624c0-5.6844 1.0866-8.5327 3.8274-10.033 1.9141-1.0477 4.817-1.2603 19.744-1.4462 15.196-0.18922 17.618-0.37176 18.393-1.3865 1.1153-1.4597 1.2447-20.332 0.15344-22.371-0.70627-1.3197-1.7072-1.381-22.321-1.3675-22.962 0.0151-28.647 0.48618-35.276 2.9232-5.4708 2.0112-10.833 7.3843-13.175 13.202-1.6801 4.1732-1.7008 4.5423-1.9377 34.575-0.26939 34.145 0.0561 37.966 3.6976 43.415 3.8694 5.7898 11.907 9.8221 23.018 11.548 7.0582 1.0962 31.318 0.40957 36.735-1.0396zm115.55-12.042c0.13483-7.7506-0.0621-11.645-0.62317-12.321-0.66763-0.80445-5.1247-0.98841-23.947-0.98841h-23.127l0.01-2.6786c0.015-4.1154 0.7143-5.8632 2.7596-6.8973 1.0304-0.52098 7.3378-2.6416 14.016-4.7125 18.787-5.8253 25.05-9.5208 28.667-16.915 1.8292-3.7388 2.0017-4.8412 2.2778-14.56 0.46711-16.443-1.1897-23.011-7.0753-28.049-5.7652-4.9348-6.4625-5.0359-36.606-5.3081-19.999-0.18055-27.285-0.0253-28.036 0.59747-0.7948 0.65962-1.0115 3.176-1.0029 11.647 6e-3 5.943 0.25655 11.192 0.55675 11.664 0.39705 0.62465 5.7414 0.91668 19.608 1.0714 21.606 0.24113 21.456 0.20212 21.382 5.576-0.0712 5.1597 0.26915 4.9644-19.864 11.398-14.95 4.7774-19.004 6.9806-22.544 12.253-3.8922 5.7953-4.3631 8.6432-4.6902 28.362-0.16505 9.9498-0.1039 18.872 0.13587 19.828l0.43596 1.737 77.47-0.36943z"/>
   <path transform="matrix(.26458 0 0 .26458 57.427 70.189)" d="m81.669 374.2c-2.225-3.0936-6.0188-8.7671-8.4307-12.608-4.732-7.5354-14.31-26.121-14.31-27.769 0-0.5549 4.6607-3.687 10.357-6.9602 5.6964-3.2732 10.357-6.1106 10.357-6.3052 0-0.19466-1.4187-4.5775-3.1526-9.7396-6.7624-20.133-9.1997-35.448-9.2803-58.314-0.08028-22.787 2.2113-37.849 8.7848-57.738 9.4533-28.603 23.767-51.812 45.022-73.003 20.246-20.185 42.124-34.064 68.721-43.597 7.6414-2.7387 25.202-7.3092 31.511-8.2013l3.3929-0.47973v-26.179l3.3928-0.57948c1.8661-0.31872 12.393-0.57948 23.393-0.57948s21.527 0.26077 23.393 0.57948l3.3929 0.57948v25.99l9.6682 1.9985c48.079 9.9384 89.574 37.972 116.79 78.901 17.041 25.63 27.195 54.271 30.027 84.702 1.0501 11.281 0.49422 33.6-1.0969 44.036-1.4915 9.7836-4.6553 22.54-8.2246 33.161-1.5744 4.6852-2.7851 8.567-2.6905 8.6263 0.0946 0.0593 4.9081 2.8153 10.697 6.1244 5.7886 3.3091 10.53 6.4125 10.536 6.8964 6e-3 0.48389-2.3984 5.648-5.3432 11.476-6.9853 13.824-20.839 35.142-22.05 33.931-0.24924-0.24924-0.45316-12.935-0.45316-28.191v-27.738h-5l-2e-3 -39.107c-2e-3 -21.6-0.33851-42.784-0.75277-47.321-6.086-66.653-54.17-123.19-118.7-139.59-14.399-3.6575-23.305-4.6988-40.184-4.6988-16.313 0-25.651 1.0356-38.613 4.2827-28.637 7.1734-52.664 20.864-73.916 42.116-25.041 25.041-39.53 53.78-45.39 90.03-1.0124 6.2633-1.2653 14.596-1.5334 50.536l-0.32106 43.036h-5.5668l-0.18668 28.66-0.18667 28.66z"/>
   <path transform="matrix(.26458 0 0 .26458 57.427 70.189)" d="m447.6 313.47c-2.1215-1.2651-2.9285-2.1609-2.6352-2.9253 1.1941-3.1118 4.8423-18.449 6.0504-25.437 4.2499-24.581 3.7671-50.413-1.4111-75.508-5.1414-24.916-17.27-52.881-32.045-73.885-9.6401-13.704-26.94-32.203-39.346-42.071-23.037-18.325-48.48-30.753-78.393-38.29l-3.0357-0.76494v-3.901c0-2.7691 0.27556-3.901 0.94968-3.901 1.9322 0 19.119 5.0023 25.936 7.5486 29.208 10.911 53.713 26.626 75.643 48.513 16.568 16.535 29.56 34.568 39.633 55.01 15.198 30.842 21.668 58.671 21.671 93.214 2e-3 17.839-0.89042 27.071-4.1427 42.857-1.5013 7.2871-5.0168 20.564-5.5992 21.147-0.11968 0.11967-1.5937-0.603-3.2755-1.606z"/>
   <path transform="matrix(.26458 0 0 .26458 57.427 70.189)" d="m50.796 311.98c-5.4426-16.657-9.0051-40.752-9.0051-60.904 0-47.438 16.047-93.235 45.875-130.93 6.8714-8.6829 23.495-25.408 31.977-32.171 16.794-13.392 35.807-24.413 55.398-32.111 7.6302-2.9984 23.676-7.9846 27.995-8.6993l3.0357-0.50234v7.8288l-5.1786 1.2454c-14.936 3.5922-35.404 11.566-48.414 18.862-46.569 26.115-81.312 69.585-95.947 120.05-10.263 35.387-10.86 70.961-1.7816 106.07 1.219 4.7143 2.3601 9.2222 2.5356 10.018 0.24257 1.0988-0.36482 1.8306-2.5292 3.047l-2.8485 1.6009z"/>
   <path transform="matrix(.26458 0 0 .26458 57.427 70.189)" d="m240.36 460.24c-29.583-1.2711-59.99-9.6105-87.143-23.899-8.9871-4.7294-25.185-15.43-33.565-22.173-6.2683-5.0439-21.435-19.336-21.435-20.199 0-0.26874 1.1561-1.0399 2.569-1.7137l2.569-1.2251 6.9098 6.6285c31.399 30.12 68.004 48.23 111.17 54.996 8.507 1.3336 12.933 1.5677 29.643 1.5677 16.842 0 21.109-0.22901 29.924-1.606 30.713-4.7978 57.072-14.932 81.319-31.265 11.26-7.5845 17.888-12.991 28.043-22.87l8.2143-7.9915 2.6323 1.356c1.4478 0.74582 2.8126 1.6478 3.0329 2.0043s-2.9673 3.8638-7.0836 7.7939c-29.636 28.295-64.298 46.592-103.58 54.676-17.169 3.533-33.764 4.7555-53.214 3.9198z"/>
  </g>
 </g>
</svg>
