<?xml version="1.0" encoding="UTF-8"?>
<!-- Created with Inkscape (http://www.inkscape.org/) -->
<svg width="133.1mm" height="133.1mm" version="1.1" viewBox="0 0 133.1 133.1" xmlns="http://www.w3.org/2000/svg" xmlns:cc="http://creativecommons.org/ns#" xmlns:dc="http://purl.org/dc/elements/1.1/" xmlns:rdf="http://www.w3.org/1999/02/22-rdf-syntax-ns#">
 <defs>
  <clipPath id="artboard_clip_path">
   <path d="m58.5 72h247.5v302.6 25.898h-247.5z"/>
  </clipPath>
  <clipPath id="inner_stroke_clip_path">
   <path d="m149.35 77.348c-2.6091 2.7333-5.8394 5.2182-7.0818 5.7152-1.2424 0.37273-2.7333 2.7333-3.603 5.8394-3.8515 15.033-5.4667 19.258-6.9576 18.636-1.9879-0.74546-11.555-15.158-15.406-23.109-1.6152-3.2303-3.2303-5.8394-3.7273-5.8394-1.4909 0 3.603 16.897 7.0818 23.979 1.7394 3.603 5.2182 8.4485 7.5788 11.058 3.4788 3.603 4.7212 6.0879 5.9636 13.045 2.6091 13.915 6.2121 26.464 10.561 36.403 6.7091 15.53 18.388 45.721 19.258 49.697 1.3667 6.0879-1.8636 4.7212-16.4-7.4546-13.915-11.679-18.885-17.145-25.221-28.203-3.3546-5.8394-3.7273-7.5788-3.7273-17.27 0-18.636-5.4667-33.794-13.667-37.646-5.3424-2.4848-9.0697-9.5667-11.182-21.742-0.8697-4.8455-1.9879-9.6909-2.4848-10.685-1.6152-2.9818-2.8576 6.4606-2.2364 17.891 0.49697 8.9455 0.99394 10.809 4.1 14.661 1.9879 2.4848 5.5909 5.7152 8.0758 7.0818 6.2121 3.4788 8.9455 10.933 9.0697 23.855 0 5.3424-0.24848 10.064-0.62121 10.436-1.6152 1.6152-9.6909-1.1182-14.039-4.7212-6.0879-4.9697-11.803-16.897-11.803-24.849 0-3.2303-0.49697-5.8394-1.1182-5.8394-2.6091 0-3.4788 16.027-1.2424 24.227 2.4848 9.0697 12.424 19.755 19.755 21.245 7.8273 1.6152 10.933 4.3485 15.655 14.039 4.8455 9.8152 7.0818 12.3 36.9 41.124 13.045 12.549 17.021 17.642 17.021 21.742 0 2.1121-1.9879 2.4848-3.1061 0.62121-1.2424-2.1121-15.406-8.9455-25.47-12.3l-9.194-3.2303-3.2303-7.703c-3.2303-7.703-5.4667-10.685-14.164-18.885-3.1061-2.8576-5.2182-6.4606-6.5848-11.182l-2.1121-6.9576-1.1182 4.7212c-1.9879 8.2-0.12425 13.17 7.3303 20.376 3.7273 3.4788 7.8273 8.8212 9.194 11.803 2.3606 5.3424 2.3606 5.3424 0 5.7152-4.3485 0.74545-16.027-5.5909-22.861-12.424-10.188-10.188-16.649-26.588-18.512-46.964l-0.37273-4.3485-2.2364 4.9697c-2.1121 4.4727-2.2364 6.0879-0.8697 16.524 1.1182 9.0697 2.3606 13.418 6.2121 21.121 5.094 10.188 15.655 21.618 23.73 25.718 5.7152 2.8576 5.8394 2.9818 3.7273 4.3485-3.603 2.3606-16.4 1.3667-22.985-1.7394-7.0818-3.2303-16.4-12.673-20.624-20.749-3.4788-6.5849-4.597-4.1-2.3606 4.9697 4.1 16.4 21.245 29.942 38.267 29.942 4.2242 0 9.8152-0.8697 12.3-1.8636 2.6091-1.1182 8.3242-1.8636 13.915-1.8636 7.8273 0 10.685 0.62122 16.897 3.603 7.2061 3.3546 19.258 12.921 18.015 14.164-0.37273 0.37273-5.5909 0-11.803-0.62121-15.53-1.8636-32.427 0.8697-39.261 6.4606-2.6091 2.1121-5.9636 4.2243-7.5788 4.8455-4.3485 1.6152-10.561-0.49696-15.903-5.3424-5.5909-4.9697-5.4667-4.9697-13.045-3.1061-6.8334 1.7394-13.045 7.5788-13.045 12.424 0 4.4727 0.74546 4.4727 6.2121-0.12424 5.8394-5.094 10.561-4.8455 17.518 0.49697 10.685 8.2 18.512 8.3243 30.439 0.12424 5.3424-3.7273 8.0758-4.597 17.021-5.7152 5.8394-0.8697 12.548-1.1182 14.909-0.62121 6.0879 1.1182 14.039 7.3303 17.021 13.17 2.4849 4.8454 2.6091 6.8333 2.2364 36.527 0 0 1.8015 26.526-2.1587 33.747-3.9602 7.2216-10.887 12.471-16.229 13.713-10.561 2.4849-13.045 3.4788-16.773 7.0818-4.2242 4.1-8.8212 15.158-6.8334 16.4 0.62122 0.37274 1.6152-0.37273 2.3606-1.6152 2.1121-3.9758 10.436-8.697 17.767-10.064 3.9758-0.74546 8.8212-2.1121 10.809-3.2303 4.9697-2.4848 5.3424-2.3606 3.603 1.2424-1.3667 3.1061-2.2364 3.4788-9.3182 4.9697-3.603 0.74543-9.0697 5.5909-9.0697 8.2 0 1.6152 19.009-0.2485 22.239-2.2364 1.6152-0.99392 4.3485-5.2182 6.0879-9.194 3.8515-8.9455 6.4606-9.6909 6.4606-1.7394 0 6.8333 2.8576 14.288 5.4667 14.288 2.2364 0 4.4727-7.2061 4.4727-14.661 0-2.8576 0.62122-5.2182 1.2424-5.2182 0.74545 0 2.9818 3.603 4.8455 7.9516 4.8455 10.561 7.0818 11.927 19.009 11.927 5.3424 0 9.6909-0.49698 9.6909-1.1182 0-2.3606-7.703-7.5788-11.182-7.5788-2.3606 0-4.4727-1.1182-6.0879-3.3546-1.4909-1.7394-2.4848-3.4788-2.2364-3.7273 0.24848-0.24848 2.9818 0.74544 5.9636 2.1121 2.9818 1.3667 7.0818 2.4848 8.9455 2.4848 4.8454 0 10.809 2.7334 16.027 7.3303 2.4848 2.1122 4.7212 3.8515 5.0939 3.8515 0.37273 0-0.12424-2.6091-1.2424-5.9636-3.2303-9.6909-8.4485-14.039-20.127-16.524-8.2-1.7394-15.282-7.0818-18.636-13.791-2.4848-5.2182-2.6091-7.4546-2.6091-36.652 0 0-1.0871-27.551 0.77651-31.185 1.8636-3.6341 3.3235-5.4667 3.3235-5.4667 2.2364-2.8576 6.3364-6.5849 8.9455-8.2 4.597-2.6091 5.9636-2.8576 16.648-2.1121 12.176 0.74546 17.767 2.6091 26.091 8.697 6.2121 4.4727 15.158 4.3485 22.736-0.49697 3.1061-1.9879 6.0879-4.2242 6.4606-4.9697 1.8636-2.8576 10.188-1.4909 15.158 2.4849 4.8455 3.8515 4.8455 3.8515 5.2182 0.99394 0.99393-6.2121-6.0879-12.673-15.406-14.288-4.4727-0.62122-5.5909-0.24849-9.3182 2.8576-9.3182 8.2-15.158 8.697-23.233 2.2364-6.2121-4.8455-6.0879-4.8455-19.755-6.9576-7.4546-1.1182-13.045-1.2424-21.121-0.2485-5.9636 0.62122-11.182 0.99395-11.43 0.74547-1.3667-1.1182 8.5727-9.4424 15.903-13.17 11.182-5.8394 20.749-6.8334 31.061-3.3546 4.1 1.3667 10.561 2.4848 14.288 2.4848 16.027 0 33.546-13.542 37.894-29.446 2.7333-9.6909 0.8697-14.288-2.3606-5.7152-2.4848 6.9576-15.406 19.382-22.861 21.867-8.4485 2.8576-21.867 2.6091-21.867-0.49698 0-0.49697 2.1121-1.9879 4.7212-3.2303 8.0758-3.7273 19.755-16.524 24.6-26.961 5.2182-11.43 7.5788-26.215 5.5909-34.042-2.2364-7.8273-3.4788-7.2061-4.3485 2.2364-0.99393 11.803-5.5909 25.47-11.306 34.042-6.8333 10.312-21.37 20.624-29.073 20.624-4.4727 0 0.12424-9.3182 8.4485-17.394 7.8273-7.4546 9.0697-10.809 7.703-19.879l-0.99394-5.5909-1.6152 6.2121c-1.3667 4.9697-3.2303 7.8273-9.8152 14.288-6.3364 6.3364-8.9455 9.9394-11.306 16.152l-3.1061 8.0758-9.9394 3.2303c-8.8212 2.8576-15.779 6.0879-23.979 11.182-3.603 2.2364-4.4727 0.8697-2.8576-4.1 0.99394-2.8576 8.0758-10.312 22.612-23.979 20.873-19.63 26.961-26.836 31.93-38.142 2.6091-6.0879 2.6091-6.0879 16.152-11.679 7.0818-2.8576 15.779-12.797 17.518-19.879 2.2364-8.697 1.3667-24.103-1.2424-24.103-0.6212 0-1.1182 2.4849-1.1182 5.5909 0 6.9576-6.0879 20.376-11.306 24.724-4.4727 3.8515-12.3 6.2121-14.039 4.4727-2.1121-2.1121-1.3667-19.133 0.99394-25.346 1.6152-4.2242 3.4788-6.3364 7.0818-8.4485 2.7333-1.4909 6.5849-5.2182 8.5728-8.3242 3.3546-5.094 3.7273-6.3364 3.603-15.53-0.12426-10.809-1.3667-18.264-2.6091-16.276-0.37274 0.62121-1.3667 5.4667-2.2364 10.561-2.1121 12.424-6.2121 20.624-11.803 22.861-7.703 3.2303-12.921 18.015-13.045 37.024 0 10.561-0.12425 11.182-5.2182 19.755-6.3364 10.436-10.436 14.661-29.694 30.439-8.4485 6.8334-11.058 8.0758-11.058 4.9697 0-1.9879 15.903-44.355 17.394-46.094 2.8576-3.4788 13.542-39.509 13.667-45.597 0-2.1121 1.8636-5.5909 5.2182-9.3182 2.8576-3.2303 6.4606-8.8212 8.0758-12.424 3.3546-7.2061 7.9515-22.736 6.7091-22.736-0.37272 0-3.1061 4.4727-6.0879 9.8152-5.3424 9.6909-12.052 18.761-13.791 18.761-0.99394 0-3.4788-7.4546-6.3364-18.388-0.74545-2.9818-2.3606-5.7152-3.4788-6.0879-1.1182-0.37273-4.4727-2.9818-7.3303-5.7152-2.9818-2.8576-5.3424-4.3485-5.3424-3.4788 0 1.8636 5.7152 12.052 8.697 15.655 2.4848 2.9818 6.2121 21.37 6.2121 30.812 0 6.8333-2.7333 16.4-7.3303 25.097-1.4909 2.6091-2.6091 5.5909-2.6091 6.4606 0 3.3546-6.5848 17.767-8.0758 17.767-1.8636 0-11.058-13.418-16.524-24.352l-3.7273-7.4546 4.2242-15.406c4.4727-16.524 7.3303-41 4.4727-39.261-0.8697 0.49697-1.4909 1.8636-1.4909 3.1061 0 5.3424-11.337 39.649-11.337 39.649s-3.572-9.7065-8.5417-28.964c-2.1121-8.0758-4.1-15.033-4.3485-15.406-1.1182-0.99394-0.62121 14.039 0.62121 22.239 0.74546 4.4727 2.9818 13.791 5.094 20.873l3.7273 12.673-6.7091 11.555c-8.697 14.909-12.424 20.624-13.667 20.749-1.3667 0-8.3243-15.406-8.3243-18.264 0-1.2424-1.2424-4.4727-2.6091-7.2061-4.4727-8.3243-7.3303-18.015-7.3303-25.097 0-9.4424 3.7273-27.83 6.2121-30.812 3.3546-3.9758 8.9455-14.288 8.4485-15.655-0.24848-0.62122-2.6091 0.99394-5.3424 3.8515zm37.646 79.391c2.2364 3.9758 5.9636 10.561 8.3242 14.536 5.4667 9.0697 5.4667 12.549 0.12425 29.818-4.2242 13.915-10.064 25.346-12.797 25.346-2.9818 0-9.0697-11.679-13.418-25.594-6.0879-19.382-5.9636-20.749 3.8515-37.521 4.597-7.5788 9.0386-14.847 9.0386-14.847s2.6402 4.2864 4.8765 8.2621z"/>
  </clipPath>
 </defs>
 <metadata>
  <rdf:RDF>
   <cc:Work rdf:about="">
    <dc:format>image/svg+xml</dc:format>
    <dc:type rdf:resource="http://purl.org/dc/dcmitype/StillImage"/>
   </cc:Work>
  </rdf:RDF>
 </metadata>
 <g transform="translate(-57.427 -70.189)">
  <g>
   <path transform="matrix(.26458 0 0 .26458 57.427 70.189)" d="m208.57 426.75c0-2.2675 6.3512-7.0695 10.714-8.1009 5.0371-1.1907 9.2857-4.6649 9.2857-7.5933 0-1.4223-0.78577-1.7449-2.5-1.0264-1.375 0.57633-7.0013 2.4747-12.503 4.2186-12.342 3.9123-18.715 7.1352-20.533 10.384-2.1408 3.8254-3.3131 1.2857-1.5487-3.355 3.478-9.1477 8.1383-13.223 18.84-16.473 12.143-3.6884 21.677-11.5 23.929-19.607 2.2544-8.1164 1.8796-64.998-0.46524-70.599-2.6944-6.4361-12.601-14.959-18.723-16.107-5.7256-1.0741-19.014 0.17524-26.316 2.4742-2.6512 0.8347-7.8864 3.4236-11.634 5.753-9.7462 6.0586-17.264 5.8191-27.742-0.88368-9.4516-6.0461-13.875-6.3847-20.217-1.5476-5.6845 4.3358-6.3016 4.395-6.3016 0.6044 0-4.359 7.2345-10.849 14.178-12.718 5.2348-1.4096 6.5483-1.2797 9.6644 0.95557 7.8733 5.6479 14.158 8.9696 17.014 8.992 1.6496 0.0129 5.8282-1.9058 9.2857-4.2639 10.114-6.8978 18.27-8.6951 38.375-8.4566 11.072 0.13128 17.988-0.34232 18.291-1.2526 0.51976-1.5593-14.999-12.953-21.265-15.613-7.6373-3.2416-16.508-3.5658-29.116-1.064-15.125 3.0014-23.981 2.1826-33.72-3.1175-11.537-6.2792-19.999-17.782-21.957-29.847l-0.91656-5.6478 3.514 5.5102c4.4672 7.0049 13.191 15.994 19.061 19.64 2.5033 1.555 8.0774 3.4011 12.387 4.1024 12.632 2.0559 21.503-1.8884 12.57-5.5887-5.8156-2.4089-20.635-17.631-25.035-25.714-4.8137-8.8444-8.0452-21.579-8.0452-31.704 0-14.009 1.7661-14.5 4.4168-1.228 4.6742 23.403 12.668 37.713 26.116 46.752 7.2774 4.8911 17.405 8.6257 19.018 7.0129 1.5312-1.5312-3.3205-10.419-9.2855-17.011-8.3921-9.2735-10.265-12.653-10.265-18.518 0-6.4119 2.2438-7.1555 3.5565-1.1786 0.50952 2.3198 4.9835 8.7425 9.9422 14.273 5.2268 5.8291 10.318 13.262 12.113 17.686 2.9387 7.2406 3.4976 7.7573 10.919 10.097 4.3021 1.3561 13.422 5.2772 20.266 8.7135 6.8444 3.4363 12.692 6.0001 12.995 5.6972 2.5465-2.5466-4.3428-11.325-26.803-34.154-18.547-18.852-26.989-28.56-31.293-35.989-5.6644-9.7778-11.678-14.827-17.658-14.827-3.2444 0-12.384-8.3873-16.071-14.748-4.1879-7.2254-5.8219-17.184-4.319-26.323l1.1159-6.7857 1.1823 7.5339c2.3376 14.895 10.899 26.689 22.044 30.367 7.0909 2.3402 8.0762 0.50139 7.1344-13.314-0.93696-13.745-3.503-19.366-11.443-25.068-8.8581-6.3614-10.855-11.522-10.676-27.591l0.14873-13.356 2.0134 7.1429c6.129 21.743 6.2433 21.987 12.881 27.486 10.407 8.6213 14.808 20.574 14.808 40.213 0 16.649 8.8818 30.677 31.12 49.148 10.101 8.3904 15.982 12.438 18.072 12.438 2.6376 0-3.1236-16.833-19.713-57.598-2.8197-6.9287-7.0529-20.408-9.407-29.954-2.3542-9.5461-5.6041-19.147-7.2221-21.336-7.1246-9.6365-10.058-14.694-12.849-22.154-4.4057-11.775-2.9062-13.952 2.7267-3.9578 6.2505 11.09 11.439 17.857 13.693 17.857 1.0172 0 3.24-5.0023 5.1312-11.547 2.9922-10.355 4.043-12.139 10.179-17.276 7.906-6.6192 8.5196-5.8098 2.6328 3.4727-5.4734 8.6307-8.5667 19.195-9.5142 32.493-0.81342 11.417 0.52964 17.916 6.9381 33.571 1.9297 4.7143 4.5804 11.52 5.8904 15.124s3.2959 7.7824 4.4132 9.2857c1.9961 2.6858 2.0796 2.6837 4.8046-0.12383 1.5252-1.5714 6.6166-9.4229 11.314-17.448l8.541-14.591-4.0572-13.981c-4.3502-14.99-7.5437-33.489-6.7506-39.104 0.31526-2.2315 1.6561 0.83698 3.7991 8.6942 6.3013 23.103 8.9565 31.429 10.024 31.429 0.58949 0 3.5343-8.5179 6.544-18.929s5.9851-20.536 6.6121-22.5c1.1141-3.4906 1.1418-3.4745 1.2244 0.71429 0.14157 7.1798-2.5604 23.479-6.5334 39.412l-3.7718 15.126 6.2946 11.828c3.462 6.5052 8.3958 14.163 10.964 17.017l4.6693 5.1892 2.4736-3.4094c2.3437-3.2304 6.0913-12.496 14.221-35.162 3.0318-8.4523 3.4555-11.548 2.7374-20-1.1829-13.924-4.3419-24.977-9.4325-33.004-2.3862-3.7626-4.3385-7.3784-4.3385-8.0352 0-0.65679 2.8734 0.9155 6.3853 3.494 5.7306 4.2075 6.7584 5.8894 10.025 16.405 2.0018 6.4442 4.1729 12.046 4.8247 12.449 1.8749 1.1588 8.06-6.1533 14.38-17 3.1974-5.4875 5.8134-8.8772 5.8134-7.5326 0 5.1469-7.4783 21.98-13.034 29.338-4.4075 5.8377-6.4742 10.498-8.5858 19.359-3.797 15.934-9.0939 32.418-14.038 43.686-6.4992 14.813-17.2 44.263-17.2 47.337 0 1.5344 0.60471 2.7899 1.3438 2.7899 1.9404 0 22.302-16.59 30.91-25.185 4.0365-4.0302 9.495-11.096 12.13-15.701 4.3309-7.5697 4.8761-9.8145 5.68-23.387 1.1966-20.205 4.1224-28.607 12.329-35.405 7.8278-6.4844 11.279-12.872 13.619-25.21 0.98058-5.1692 2.2791-9.3985 2.8856-9.3985 0.60653 0 1.1028 5.4962 1.1028 12.214 0 14.589-1.4513 17.944-11.51 26.61-6.0684 5.2282-7.6774 7.6501-9.3395 14.058-2.0992 8.0927-2.6206 18.146-1.1409 22.002 1.2579 3.278 7.9166 2.7946 13.52-0.98154 6.6759-4.4989 12.478-14.515 14.69-25.363 1.7662-8.6587 1.9218-8.9003 2.8245-4.3869 3.7163 18.582-4.9348 35.078-22.596 43.085-9.8474 4.465-11.624 6.2186-17.277 17.048-2.8704 5.4995-11.678 15.485-29.355 33.277-22.819 22.97-28.996 30.878-26.256 33.617 0.46363 0.46363 4.6843-1.2688 9.3792-3.8499 4.6949-2.581 13.508-6.4958 19.584-8.6996 11.002-3.9902 11.065-4.0426 15.333-12.73 2.3572-4.798 7.6855-12.573 11.841-17.279 4.1552-4.7053 8.4172-10.606 9.471-13.112 1.8019-4.2853 1.9752-4.3705 2.9086-1.4297 1.7521 5.5203-0.62553 11.121-8.3597 19.693-8.075 8.9496-10.861 13.271-10.861 16.848 0 5.7802 16.211-1.525 26.732-12.047 10.532-10.532 16.216-23.865 19.753-46.332 1.2872-8.1768 3.4657-3.6546 3.4929 7.2507 0.0547 21.943-14.692 47.554-32.763 56.899-6.6921 3.4606-4.747 5.6875 5.3954 6.1769 14.763 0.71237 28.488-7.7513 37.647-23.215l4.2708-7.2105-0.87369 6.2025c-2.4516 17.404-19.987 33.892-37.871 35.611-3.6578 0.35147-10.684-0.39474-15.618-1.6586-11.883-3.0442-21.407-2.9002-30.242 0.45715-7.8826 2.9952-22.781 13.507-22.781 16.074 0 1.1189 3.5832 1.3176 12.038 0.66776 18.037-1.3864 32.641 1.0253 42.463 7.0121 10.557 6.4348 15.319 6.376 25.026-0.30926 7.3776-5.0811 7.7624-5.1788 13.558-3.4425 6.9762 2.0901 14.058 8.5885 14.058 12.899 0 2.9644-0.0957 2.9535-5.3316-0.6044-7.22-4.9061-13.108-4.6637-20.948 0.86218-8.3886 5.9129-18.03 6.9527-25.149 2.7124-11.581-6.8985-17.016-8.6478-29.505-9.4966-12.229-0.8312-12.833-0.72614-18.671 3.2481-3.3183 2.2589-7.6576 6.3086-9.6429 8.9995-3.6091 4.8918-3.6095 4.8962-3.6095 37.124 0 17.728 0.6302 34.429 1.4004 37.115 2.55 8.8912 10.775 15.496 24.3 19.512 8.0132 2.3797 13.562 6.4462 16.47 12.07 4.0052 7.7452 2.6183 8.6622-5.1721 3.4196-4.0075-2.6969-8.845-4.9034-10.75-4.9034-1.905 0-6.9832-1.2371-11.285-2.749-4.3018-1.512-7.8215-2.434-7.8215-2.049 0 2.7941 3.6809 6.2749 8.2033 7.7573 6.3108 2.0686 11.797 5.4192 11.797 7.205 0 1.7006-16.033 1.6155-20.569-0.10914-2.2719-0.86376-5.0199-4.1771-7.4052-8.9286-5.1408-10.24-6.4433-11.782-7.9489-9.4085-0.64661 1.0193-1.1855 4.2222-1.1975 7.1175-0.0246 5.9103-2.17 12.593-4.0429 12.593-1.8085 0-4.5474-6.6757-4.5699-11.139-0.0262-5.1904-1.4736-10.29-2.9205-10.29-0.648 0-3.2674 3.9198-5.8209 8.7107-2.5535 4.7909-5.9662 9.201-7.5838 9.8003-4.7864 1.7733-20.798 3.166-20.798 1.809zm46.975-187.91c4.4655-7.2254 13.025-34.158 13.025-40.983 0-4.8119-1.8305-9.274-8.8629-21.605-4.8746-8.5472-9.3536-15.54-9.9533-15.54-0.59971 0-4.7526 6.2226-9.2286 13.828-10.297 17.496-11 22.576-5.5498 40.068 5.728 18.381 11.516 28.961 15.842 28.961 0.99272 0 3.1201-2.128 4.7275-4.7288z" fill="#540" fill-rule="evenodd" stop-color="#000000" stroke-miterlimit="10" stroke-width="16.198" style="paint-order:stroke fill markers"/>
   <path d="m112.44 189.73c-8.4776-1.8208-18.485-7.2008-25.231-13.564l-5.843-5.512-6.2772 3.528-2.9932-4.7884c-4.5271-7.2423-4.6253-8.0303-1.249-10.022l2.8682-1.6923-1.5364-5.5409c-3.8126-13.75-2.6234-25.842 3.8196-38.838 6.4631-13.036 18.343-23.152 31.833-27.105 3.226-0.94538 6.3368-1.8641 6.9129-2.0416 0.63634-0.1961 1.0474-1.8129 1.0474-4.1198v-3.797h15.829l0.2554 3.8685 0.25539 3.8685 6.2845 1.8383c15.022 4.394 26.311 13.883 33.548 28.199 5.4481 10.778 6.9027 26.672 3.4392 37.578-0.94054 2.9617-1.5165 5.6981-1.2798 6.081 0.23663 0.38287 1.5375 1.2687 2.8909 1.9686 1.3534 0.69984 2.4607 1.6945 2.4607 2.2103s-1.5838 3.5044-3.5194 6.6413l-3.5194 5.7034-6.2979-3.5396-5.843 5.512c-12.87 12.141-30.808 17.226-47.855 13.564z" fill="#84bc84" fill-rule="evenodd" stroke-linecap="round" stroke-width="1.5835" style="paint-order:stroke fill markers"/>
   <g id="Tree_Blasted_(3)" transform="matrix(.3262 0 0 .26346 64.527 75.467)" fill="#540">
    <title>Tree Blasted (3)</title>
    <g id="Tree_Blasted_(3): Content" clip-path="url(#artboard_clip_path)" fill="#540">
     <title>Content</title>
     <g fill="#540">
      <g fill="#540">
       <path d="m149.35 77.348c-2.6091 2.7333-5.8394 5.2182-7.0818 5.7152-1.2424 0.37273-2.7333 2.7333-3.603 5.8394-3.8515 15.033-5.4667 19.258-6.9576 18.636-1.9879-0.74546-11.555-15.158-15.406-23.109-1.6152-3.2303-3.2303-5.8394-3.7273-5.8394-1.4909 0 3.603 16.897 7.0818 23.979 1.7394 3.603 5.2182 8.4485 7.5788 11.058 3.4788 3.603 4.7212 6.0879 5.9636 13.045 2.6091 13.915 6.2121 26.464 10.561 36.403 6.7091 15.53 18.388 45.721 19.258 49.697 1.3667 6.0879-1.8636 4.7212-16.4-7.4546-13.915-11.679-18.885-17.145-25.221-28.203-3.3546-5.8394-3.7273-7.5788-3.7273-17.27 0-18.636-5.4667-33.794-13.667-37.646-5.3424-2.4848-9.0697-9.5667-11.182-21.742-0.8697-4.8455-1.9879-9.6909-2.4848-10.685-1.6152-2.9818-2.8576 6.4606-2.2364 17.891 0.49697 8.9455 0.99394 10.809 4.1 14.661 1.9879 2.4848 5.5909 5.7152 8.0758 7.0818 6.2121 3.4788 8.9455 10.933 9.0697 23.855 0 5.3424-0.24848 10.064-0.62121 10.436-1.6152 1.6152-9.6909-1.1182-14.039-4.7212-6.0879-4.9697-11.803-16.897-11.803-24.849 0-3.2303-0.49697-5.8394-1.1182-5.8394-2.6091 0-3.4788 16.027-1.2424 24.227 2.4848 9.0697 12.424 19.755 19.755 21.245 7.8273 1.6152 10.933 4.3485 15.655 14.039 4.8455 9.8152 7.0818 12.3 36.9 41.124 13.045 12.549 17.021 17.642 17.021 21.742 0 2.1121-1.9879 2.4848-3.1061 0.62121-1.2424-2.1121-15.406-8.9455-25.47-12.3l-9.194-3.2303-3.2303-7.703c-3.2303-7.703-5.4667-10.685-14.164-18.885-3.1061-2.8576-5.2182-6.4606-6.5848-11.182l-2.1121-6.9576-1.1182 4.7212c-1.9879 8.2-0.12425 13.17 7.3303 20.376 3.7273 3.4788 7.8273 8.8212 9.194 11.803 2.3606 5.3424 2.3606 5.3424 0 5.7152-4.3485 0.74545-16.027-5.5909-22.861-12.424-10.188-10.188-16.649-26.588-18.512-46.964l-0.37273-4.3485-2.2364 4.9697c-2.1121 4.4727-2.2364 6.0879-0.8697 16.524 1.1182 9.0697 2.3606 13.418 6.2121 21.121 5.094 10.188 15.655 21.618 23.73 25.718 5.7152 2.8576 5.8394 2.9818 3.7273 4.3485-3.603 2.3606-16.4 1.3667-22.985-1.7394-7.0818-3.2303-16.4-12.673-20.624-20.749-3.4788-6.5849-4.597-4.1-2.3606 4.9697 4.1 16.4 21.245 29.942 38.267 29.942 4.2242 0 9.8152-0.8697 12.3-1.8636 2.6091-1.1182 8.3242-1.8636 13.915-1.8636 7.8273 0 10.685 0.62122 16.897 3.603 7.2061 3.3546 19.258 12.921 18.015 14.164-0.37273 0.37273-5.5909 0-11.803-0.62121-15.53-1.8636-32.427 0.8697-39.261 6.4606-2.6091 2.1121-5.9636 4.2243-7.5788 4.8455-4.3485 1.6152-10.561-0.49696-15.903-5.3424-5.5909-4.9697-5.4667-4.9697-13.045-3.1061-6.8334 1.7394-13.045 7.5788-13.045 12.424 0 4.4727 0.74546 4.4727 6.2121-0.12424 5.8394-5.094 10.561-4.8455 17.518 0.49697 10.685 8.2 18.512 8.3243 30.439 0.12424 5.3424-3.7273 8.0758-4.597 17.021-5.7152 5.8394-0.8697 12.548-1.1182 14.909-0.62121 6.0879 1.1182 14.039 7.3303 17.021 13.17 2.4849 4.8454 2.6091 6.8333 2.2364 36.527 0 0 1.8015 26.526-2.1587 33.747-3.9602 7.2216-10.887 12.471-16.229 13.713-10.561 2.4849-13.045 3.4788-16.773 7.0818-4.2242 4.1-8.8212 15.158-6.8334 16.4 0.62122 0.37274 1.6152-0.37273 2.3606-1.6152 2.1121-3.9758 10.436-8.697 17.767-10.064 3.9758-0.74546 8.8212-2.1121 10.809-3.2303 4.9697-2.4848 5.3424-2.3606 3.603 1.2424-1.3667 3.1061-2.2364 3.4788-9.3182 4.9697-3.603 0.74543-9.0697 5.5909-9.0697 8.2 0 1.6152 19.009-0.2485 22.239-2.2364 1.6152-0.99392 4.3485-5.2182 6.0879-9.194 3.8515-8.9455 6.4606-9.6909 6.4606-1.7394 0 6.8333 2.8576 14.288 5.4667 14.288 2.2364 0 4.4727-7.2061 4.4727-14.661 0-2.8576 0.62122-5.2182 1.2424-5.2182 0.74545 0 2.9818 3.603 4.8455 7.9516 4.8455 10.561 7.0818 11.927 19.009 11.927 5.3424 0 9.6909-0.49698 9.6909-1.1182 0-2.3606-7.703-7.5788-11.182-7.5788-2.3606 0-4.4727-1.1182-6.0879-3.3546-1.4909-1.7394-2.4848-3.4788-2.2364-3.7273 0.24848-0.24848 2.9818 0.74544 5.9636 2.1121 2.9818 1.3667 7.0818 2.4848 8.9455 2.4848 4.8454 0 10.809 2.7334 16.027 7.3303 2.4848 2.1122 4.7212 3.8515 5.0939 3.8515 0.37273 0-0.12424-2.6091-1.2424-5.9636-3.2303-9.6909-8.4485-14.039-20.127-16.524-8.2-1.7394-15.282-7.0818-18.636-13.791-2.4848-5.2182-2.6091-7.4546-2.6091-36.652 0 0-1.0871-27.551 0.77651-31.185 1.8636-3.6341 3.3235-5.4667 3.3235-5.4667 2.2364-2.8576 6.3364-6.5849 8.9455-8.2 4.597-2.6091 5.9636-2.8576 16.648-2.1121 12.176 0.74546 17.767 2.6091 26.091 8.697 6.2121 4.4727 15.158 4.3485 22.736-0.49697 3.1061-1.9879 6.0879-4.2242 6.4606-4.9697 1.8636-2.8576 10.188-1.4909 15.158 2.4849 4.8455 3.8515 4.8455 3.8515 5.2182 0.99394 0.99393-6.2121-6.0879-12.673-15.406-14.288-4.4727-0.62122-5.5909-0.24849-9.3182 2.8576-9.3182 8.2-15.158 8.697-23.233 2.2364-6.2121-4.8455-6.0879-4.8455-19.755-6.9576-7.4546-1.1182-13.045-1.2424-21.121-0.2485-5.9636 0.62122-11.182 0.99395-11.43 0.74547-1.3667-1.1182 8.5727-9.4424 15.903-13.17 11.182-5.8394 20.749-6.8334 31.061-3.3546 4.1 1.3667 10.561 2.4848 14.288 2.4848 16.027 0 33.546-13.542 37.894-29.446 2.7333-9.6909 0.8697-14.288-2.3606-5.7152-2.4848 6.9576-15.406 19.382-22.861 21.867-8.4485 2.8576-21.867 2.6091-21.867-0.49698 0-0.49697 2.1121-1.9879 4.7212-3.2303 8.0758-3.7273 19.755-16.524 24.6-26.961 5.2182-11.43 7.5788-26.215 5.5909-34.042-2.2364-7.8273-3.4788-7.2061-4.3485 2.2364-0.99393 11.803-5.5909 25.47-11.306 34.042-6.8333 10.312-21.37 20.624-29.073 20.624-4.4727 0 0.12424-9.3182 8.4485-17.394 7.8273-7.4546 9.0697-10.809 7.703-19.879l-0.99394-5.5909-1.6152 6.2121c-1.3667 4.9697-3.2303 7.8273-9.8152 14.288-6.3364 6.3364-8.9455 9.9394-11.306 16.152l-3.1061 8.0758-9.9394 3.2303c-8.8212 2.8576-15.779 6.0879-23.979 11.182-3.603 2.2364-4.4727 0.8697-2.8576-4.1 0.99394-2.8576 8.0758-10.312 22.612-23.979 20.873-19.63 26.961-26.836 31.93-38.142 2.6091-6.0879 2.6091-6.0879 16.152-11.679 7.0818-2.8576 15.779-12.797 17.518-19.879 2.2364-8.697 1.3667-24.103-1.2424-24.103-0.6212 0-1.1182 2.4849-1.1182 5.5909 0 6.9576-6.0879 20.376-11.306 24.724-4.4727 3.8515-12.3 6.2121-14.039 4.4727-2.1121-2.1121-1.3667-19.133 0.99394-25.346 1.6152-4.2242 3.4788-6.3364 7.0818-8.4485 2.7333-1.4909 6.5849-5.2182 8.5728-8.3242 3.3546-5.094 3.7273-6.3364 3.603-15.53-0.12426-10.809-1.3667-18.264-2.6091-16.276-0.37274 0.62121-1.3667 5.4667-2.2364 10.561-2.1121 12.424-6.2121 20.624-11.803 22.861-7.703 3.2303-12.921 18.015-13.045 37.024 0 10.561-0.12425 11.182-5.2182 19.755-6.3364 10.436-10.436 14.661-29.694 30.439-8.4485 6.8334-11.058 8.0758-11.058 4.9697 0-1.9879 15.903-44.355 17.394-46.094 2.8576-3.4788 13.542-39.509 13.667-45.597 0-2.1121 1.8636-5.5909 5.2182-9.3182 2.8576-3.2303 6.4606-8.8212 8.0758-12.424 3.3546-7.2061 7.9515-22.736 6.7091-22.736-0.37272 0-3.1061 4.4727-6.0879 9.8152-5.3424 9.6909-12.052 18.761-13.791 18.761-0.99394 0-3.4788-7.4546-6.3364-18.388-0.74545-2.9818-2.3606-5.7152-3.4788-6.0879-1.1182-0.37273-4.4727-2.9818-7.3303-5.7152-2.9818-2.8576-5.3424-4.3485-5.3424-3.4788 0 1.8636 5.7152 12.052 8.697 15.655 2.4848 2.9818 6.2121 21.37 6.2121 30.812 0 6.8333-2.7333 16.4-7.3303 25.097-1.4909 2.6091-2.6091 5.5909-2.6091 6.4606 0 3.3546-6.5848 17.767-8.0758 17.767-1.8636 0-11.058-13.418-16.524-24.352l-3.7273-7.4546 4.2242-15.406c4.4727-16.524 7.3303-41 4.4727-39.261-0.8697 0.49697-1.4909 1.8636-1.4909 3.1061 0 5.3424-11.337 39.649-11.337 39.649s-3.572-9.7065-8.5417-28.964c-2.1121-8.0758-4.1-15.033-4.3485-15.406-1.1182-0.99394-0.62121 14.039 0.62121 22.239 0.74546 4.4727 2.9818 13.791 5.094 20.873l3.7273 12.673-6.7091 11.555c-8.697 14.909-12.424 20.624-13.667 20.749-1.3667 0-8.3243-15.406-8.3243-18.264 0-1.2424-1.2424-4.4727-2.6091-7.2061-4.4727-8.3243-7.3303-18.015-7.3303-25.097 0-9.4424 3.7273-27.83 6.2121-30.812 3.3546-3.9758 8.9455-14.288 8.4485-15.655-0.24848-0.62122-2.6091 0.99394-5.3424 3.8515zm37.646 79.391c2.2364 3.9758 5.9636 10.561 8.3242 14.536 5.4667 9.0697 5.4667 12.549 0.12425 29.818-4.2242 13.915-10.064 25.346-12.797 25.346-2.9818 0-9.0697-11.679-13.418-25.594-6.0879-19.382-5.9636-20.749 3.8515-37.521 4.597-7.5788 9.0386-14.847 9.0386-14.847s2.6402 4.2864 4.8765 8.2621z"/>
       <g stroke="#000" stroke-linecap="round" stroke-linejoin="round">
        <path d="m149.35 77.348c-2.6091 2.7333-5.8394 5.2182-7.0818 5.7152-1.2424 0.37273-2.7333 2.7333-3.603 5.8394-3.8515 15.033-5.4667 19.258-6.9576 18.636-1.9879-0.74546-11.555-15.158-15.406-23.109-1.6152-3.2303-3.2303-5.8394-3.7273-5.8394-1.4909 0 3.603 16.897 7.0818 23.979 1.7394 3.603 5.2182 8.4485 7.5788 11.058 3.4788 3.603 4.7212 6.0879 5.9636 13.045 2.6091 13.915 6.2121 26.464 10.561 36.403 6.7091 15.53 18.388 45.721 19.258 49.697 1.3667 6.0879-1.8636 4.7212-16.4-7.4546-13.915-11.679-18.885-17.145-25.221-28.203-3.3546-5.8394-3.7273-7.5788-3.7273-17.27 0-18.636-5.4667-33.794-13.667-37.646-5.3424-2.4848-9.0697-9.5667-11.182-21.742-0.8697-4.8455-1.9879-9.6909-2.4848-10.685-1.6152-2.9818-2.8576 6.4606-2.2364 17.891 0.49697 8.9455 0.99394 10.809 4.1 14.661 1.9879 2.4848 5.5909 5.7152 8.0758 7.0818 6.2121 3.4788 8.9455 10.933 9.0697 23.855 0 5.3424-0.24848 10.064-0.62121 10.436-1.6152 1.6152-9.6909-1.1182-14.039-4.7212-6.0879-4.9697-11.803-16.897-11.803-24.849 0-3.2303-0.49697-5.8394-1.1182-5.8394-2.6091 0-3.4788 16.027-1.2424 24.227 2.4848 9.0697 12.424 19.755 19.755 21.245 7.8273 1.6152 10.933 4.3485 15.655 14.039 4.8455 9.8152 7.0818 12.3 36.9 41.124 13.045 12.549 17.021 17.642 17.021 21.742 0 2.1121-1.9879 2.4848-3.1061 0.62121-1.2424-2.1121-15.406-8.9455-25.47-12.3l-9.194-3.2303-3.2303-7.703c-3.2303-7.703-5.4667-10.685-14.164-18.885-3.1061-2.8576-5.2182-6.4606-6.5848-11.182l-2.1121-6.9576-1.1182 4.7212c-1.9879 8.2-0.12425 13.17 7.3303 20.376 3.7273 3.4788 7.8273 8.8212 9.194 11.803 2.3606 5.3424 2.3606 5.3424 0 5.7152-4.3485 0.74545-16.027-5.5909-22.861-12.424-10.188-10.188-16.649-26.588-18.512-46.964l-0.37273-4.3485-2.2364 4.9697c-2.1121 4.4727-2.2364 6.0879-0.8697 16.524 1.1182 9.0697 2.3606 13.418 6.2121 21.121 5.094 10.188 15.655 21.618 23.73 25.718 5.7152 2.8576 5.8394 2.9818 3.7273 4.3485-3.603 2.3606-16.4 1.3667-22.985-1.7394-7.0818-3.2303-16.4-12.673-20.624-20.749-3.4788-6.5849-4.597-4.1-2.3606 4.9697 4.1 16.4 21.245 29.942 38.267 29.942 4.2242 0 9.8152-0.8697 12.3-1.8636 2.6091-1.1182 8.3242-1.8636 13.915-1.8636 7.8273 0 10.685 0.62122 16.897 3.603 7.2061 3.3546 19.258 12.921 18.015 14.164-0.37273 0.37273-5.5909 0-11.803-0.62121-15.53-1.8636-32.427 0.8697-39.261 6.4606-2.6091 2.1121-5.9636 4.2243-7.5788 4.8455-4.3485 1.6152-10.561-0.49696-15.903-5.3424-5.5909-4.9697-5.4667-4.9697-13.045-3.1061-6.8334 1.7394-13.045 7.5788-13.045 12.424 0 4.4727 0.74546 4.4727 6.2121-0.12424 5.8394-5.094 10.561-4.8455 17.518 0.49697 10.685 8.2 18.512 8.3243 30.439 0.12424 5.3424-3.7273 8.0758-4.597 17.021-5.7152 5.8394-0.8697 12.548-1.1182 14.909-0.62121 6.0879 1.1182 14.039 7.3303 17.021 13.17 2.4849 4.8454 2.6091 6.8333 2.2364 36.527 0 0 1.8015 26.526-2.1587 33.747-3.9602 7.2216-10.887 12.471-16.229 13.713-10.561 2.4849-13.045 3.4788-16.773 7.0818-4.2242 4.1-8.8212 15.158-6.8334 16.4 0.62122 0.37274 1.6152-0.37273 2.3606-1.6152 2.1121-3.9758 10.436-8.697 17.767-10.064 3.9758-0.74546 8.8212-2.1121 10.809-3.2303 4.9697-2.4848 5.3424-2.3606 3.603 1.2424-1.3667 3.1061-2.2364 3.4788-9.3182 4.9697-3.603 0.74543-9.0697 5.5909-9.0697 8.2 0 1.6152 19.009-0.2485 22.239-2.2364 1.6152-0.99392 4.3485-5.2182 6.0879-9.194 3.8515-8.9455 6.4606-9.6909 6.4606-1.7394 0 6.8333 2.8576 14.288 5.4667 14.288 2.2364 0 4.4727-7.2061 4.4727-14.661 0-2.8576 0.62122-5.2182 1.2424-5.2182 0.74545 0 2.9818 3.603 4.8455 7.9516 4.8455 10.561 7.0818 11.927 19.009 11.927 5.3424 0 9.6909-0.49698 9.6909-1.1182 0-2.3606-7.703-7.5788-11.182-7.5788-2.3606 0-4.4727-1.1182-6.0879-3.3546-1.4909-1.7394-2.4848-3.4788-2.2364-3.7273 0.24848-0.24848 2.9818 0.74544 5.9636 2.1121 2.9818 1.3667 7.0818 2.4848 8.9455 2.4848 4.8454 0 10.809 2.7334 16.027 7.3303 2.4848 2.1122 4.7212 3.8515 5.0939 3.8515 0.37273 0-0.12424-2.6091-1.2424-5.9636-3.2303-9.6909-8.4485-14.039-20.127-16.524-8.2-1.7394-15.282-7.0818-18.636-13.791-2.4848-5.2182-2.6091-7.4546-2.6091-36.652 0 0-1.0871-27.551 0.77651-31.185 1.8636-3.6341 3.3235-5.4667 3.3235-5.4667 2.2364-2.8576 6.3364-6.5849 8.9455-8.2 4.597-2.6091 5.9636-2.8576 16.648-2.1121 12.176 0.74546 17.767 2.6091 26.091 8.697 6.2121 4.4727 15.158 4.3485 22.736-0.49697 3.1061-1.9879 6.0879-4.2242 6.4606-4.9697 1.8636-2.8576 10.188-1.4909 15.158 2.4849 4.8455 3.8515 4.8455 3.8515 5.2182 0.99394 0.99393-6.2121-6.0879-12.673-15.406-14.288-4.4727-0.62122-5.5909-0.24849-9.3182 2.8576-9.3182 8.2-15.158 8.697-23.233 2.2364-6.2121-4.8455-6.0879-4.8455-19.755-6.9576-7.4546-1.1182-13.045-1.2424-21.121-0.2485-5.9636 0.62122-11.182 0.99395-11.43 0.74547-1.3667-1.1182 8.5727-9.4424 15.903-13.17 11.182-5.8394 20.749-6.8334 31.061-3.3546 4.1 1.3667 10.561 2.4848 14.288 2.4848 16.027 0 33.546-13.542 37.894-29.446 2.7333-9.6909 0.8697-14.288-2.3606-5.7152-2.4848 6.9576-15.406 19.382-22.861 21.867-8.4485 2.8576-21.867 2.6091-21.867-0.49698 0-0.49697 2.1121-1.9879 4.7212-3.2303 8.0758-3.7273 19.755-16.524 24.6-26.961 5.2182-11.43 7.5788-26.215 5.5909-34.042-2.2364-7.8273-3.4788-7.2061-4.3485 2.2364-0.99393 11.803-5.5909 25.47-11.306 34.042-6.8333 10.312-21.37 20.624-29.073 20.624-4.4727 0 0.12424-9.3182 8.4485-17.394 7.8273-7.4546 9.0697-10.809 7.703-19.879l-0.99394-5.5909-1.6152 6.2121c-1.3667 4.9697-3.2303 7.8273-9.8152 14.288-6.3364 6.3364-8.9455 9.9394-11.306 16.152l-3.1061 8.0758-9.9394 3.2303c-8.8212 2.8576-15.779 6.0879-23.979 11.182-3.603 2.2364-4.4727 0.8697-2.8576-4.1 0.99394-2.8576 8.0758-10.312 22.612-23.979 20.873-19.63 26.961-26.836 31.93-38.142 2.6091-6.0879 2.6091-6.0879 16.152-11.679 7.0818-2.8576 15.779-12.797 17.518-19.879 2.2364-8.697 1.3667-24.103-1.2424-24.103-0.6212 0-1.1182 2.4849-1.1182 5.5909 0 6.9576-6.0879 20.376-11.306 24.724-4.4727 3.8515-12.3 6.2121-14.039 4.4727-2.1121-2.1121-1.3667-19.133 0.99394-25.346 1.6152-4.2242 3.4788-6.3364 7.0818-8.4485 2.7333-1.4909 6.5849-5.2182 8.5728-8.3242 3.3546-5.094 3.7273-6.3364 3.603-15.53-0.12426-10.809-1.3667-18.264-2.6091-16.276-0.37274 0.62121-1.3667 5.4667-2.2364 10.561-2.1121 12.424-6.2121 20.624-11.803 22.861-7.703 3.2303-12.921 18.015-13.045 37.024 0 10.561-0.12425 11.182-5.2182 19.755-6.3364 10.436-10.436 14.661-29.694 30.439-8.4485 6.8334-11.058 8.0758-11.058 4.9697 0-1.9879 15.903-44.355 17.394-46.094 2.8576-3.4788 13.542-39.509 13.667-45.597 0-2.1121 1.8636-5.5909 5.2182-9.3182 2.8576-3.2303 6.4606-8.8212 8.0758-12.424 3.3546-7.2061 7.9515-22.736 6.7091-22.736-0.37272 0-3.1061 4.4727-6.0879 9.8152-5.3424 9.6909-12.052 18.761-13.791 18.761-0.99394 0-3.4788-7.4546-6.3364-18.388-0.74545-2.9818-2.3606-5.7152-3.4788-6.0879-1.1182-0.37273-4.4727-2.9818-7.3303-5.7152-2.9818-2.8576-5.3424-4.3485-5.3424-3.4788 0 1.8636 5.7152 12.052 8.697 15.655 2.4848 2.9818 6.2121 21.37 6.2121 30.812 0 6.8333-2.7333 16.4-7.3303 25.097-1.4909 2.6091-2.6091 5.5909-2.6091 6.4606 0 3.3546-6.5848 17.767-8.0758 17.767-1.8636 0-11.058-13.418-16.524-24.352l-3.7273-7.4546 4.2242-15.406c4.4727-16.524 7.3303-41 4.4727-39.261-0.8697 0.49697-1.4909 1.8636-1.4909 3.1061 0 5.3424-11.337 39.649-11.337 39.649s-3.572-9.7065-8.5417-28.964c-2.1121-8.0758-4.1-15.033-4.3485-15.406-1.1182-0.99394-0.62121 14.039 0.62121 22.239 0.74546 4.4727 2.9818 13.791 5.094 20.873l3.7273 12.673-6.7091 11.555c-8.697 14.909-12.424 20.624-13.667 20.749-1.3667 0-8.3243-15.406-8.3243-18.264 0-1.2424-1.2424-4.4727-2.6091-7.2061-4.4727-8.3243-7.3303-18.015-7.3303-25.097 0-9.4424 3.7273-27.83 6.2121-30.812 3.3546-3.9758 8.9455-14.288 8.4485-15.655-0.24848-0.62122-2.6091 0.99394-5.3424 3.8515zm37.646 79.391c2.2364 3.9758 5.9636 10.561 8.3242 14.536 5.4667 9.0697 5.4667 12.549 0.12425 29.818-4.2242 13.915-10.064 25.346-12.797 25.346-2.9818 0-9.0697-11.679-13.418-25.594-6.0879-19.382-5.9636-20.749 3.8515-37.521 4.597-7.5788 9.0386-14.847 9.0386-14.847s2.6402 4.2864 4.8765 8.2621z" clip-path="url(#inner_stroke_clip_path)" stroke-width="3"/>
        <path d="m178.62 134.5c2.3943 7.4065 1.6016 8.2224 5.9501 16.376" stroke-width="1.5"/>
        <path d="m179.37 121.74c2.6006 6.7933 3.5559 13.905 8.2262 21.76" stroke-width="1.5"/>
       </g>
      </g>
     </g>
    </g>
   </g>
  </g>
  <g stroke="#fff" aria-label="104">
   <path d="m106.81 150.96c0.98778 0 1.4224-0.43462 1.4224-1.4224v-4.7808c0-0.98777-0.43462-1.4224-1.4224-1.4224h-3.7931v-19.4c0-0.98777-0.43462-1.4224-1.4224-1.4224h-11.458c-0.98778 0-1.4224 0.43463-1.4224 1.4224v4.7808c0 0.98777 0.43462 1.4224 1.4224 1.4224h3.635v13.197h-4.4252c-0.98778 0-1.4224 0.43463-1.4224 1.4224v4.7808c0 0.98778 0.43462 1.4224 1.4224 1.4224z"/>
   <path d="m136.21 143.49v-13.473c0-4.8204-2.3312-8.0998-12.051-8.0998s-12.09 3.2794-12.09 8.0998v13.473c0 4.8204 2.3707 8.0603 12.09 8.0603s12.051-3.2399 12.051-8.0603zm-15.212-1.4224v-10.628c0-1.0273 0.47413-1.8175 3.1609-1.8175 2.7263 0 3.1609 0.79022 3.1609 1.8175v10.628c0 1.0668-0.43462 1.857-3.1609 1.857-2.6868 0-3.1609-0.79022-3.1609-1.857z"/>
   <path d="m154.86 144.36v5.176c0 0.98778 0.43462 1.4224 1.4224 1.4224h6.0847c0.98777 0 1.4224-0.43462 1.4224-1.4224v-25.603c0-0.98777-0.43463-1.4224-1.4224-1.4224h-6.0847c-0.98778 0-1.4224 0.43463-1.4224 1.4224v12.169h-3.6745c-0.75071 0-1.2248-0.51364-1.2248-1.3434v-10.826c0-0.98777-0.43462-1.4224-1.4224-1.4224h-6.1242c-0.98778 0-1.4224 0.43463-1.4224 1.4224v13.868c0 4.5043 2.0546 6.5588 7.191 6.5588z"/>
  </g>
  <g fill="#fff" fill-opacity=".99216" fill-rule="evenodd" stroke-width="5.3993">
   <path transform="matrix(.26458 0 0 .26458 57.427 70.189)" d="m225.71 459.26c-43.865-6.0884-84.333-25.036-116.19-54.403-9.1404-8.4252-10.776-10.552-8.9144-11.593 1.7382-0.97277 4.7683 0.97876 12.765 8.2212 30.82 27.914 66.482 45.225 105.89 51.405 19.138 3.0008 56.728 2.2602 73.592-1.45 36.423-8.013 68.678-24.753 94.504-49.047 8.9563-8.4247 11.722-10.278 14.175-9.4991 2.8981 0.91981 2.777 1.2496-2.4586 6.6969-9.413 9.7937-27.708 23.926-41.177 31.808-21.703 12.7-43.491 20.953-68.007 25.758-14.071 2.7581-50.792 3.9614-64.18 2.1032z"/>
   <path transform="matrix(.26458 0 0 .26458 57.427 70.189)" d="m447.25 312.99c-1.2871-1.5509-1.0195-4.5676 1.1724-13.214 6.5933-26.009 7.5603-61.935 2.3395-86.919-16.022-76.671-70.564-135.23-145.3-156.01-7.107-1.9759-8.3206-2.8001-8.3206-5.6506 0-4.3687 1.2883-4.2654 18.945 1.5185 52.673 17.254 97.837 56.125 122.72 105.62 7.6975 15.31 16.162 41.414 19.07 58.808 4.4933 26.884 2.6178 63.862-4.5465 89.643-2.3854 8.584-3.3174 9.5349-6.0814 6.2046z"/>
   <path transform="matrix(.26458 0 0 .26458 57.427 70.189)" d="m48.851 303.21c-5.142-20.694-6.4015-34.082-5.587-59.392 0.59261-18.416 1.5789-27.262 4.346-38.981 16.976-71.892 69.498-129.31 139.16-152.13 17.674-5.7896 18.945-5.89 18.945-1.4963 0 2.9419-1.1984 3.6779-9.6429 5.9221-62.528 16.618-115.36 66.241-136.7 128.39-12.343 35.955-14.252 79.561-5.0496 115.34 1.9428 7.5529 2.2594 10.943 1.1472 12.283-2.7666 3.3336-3.6557 1.9996-6.6211-9.9348z"/>
  </g>
  <g>
   <path d="m123.98 70.189c-36.689 0-66.549 29.86-66.549 66.549s29.86 66.549 66.549 66.549c36.689 0 66.549-29.86 66.549-66.549s-29.86-66.549-66.549-66.549zm0 10.992c2.4486 0 4.8586 0.15894 7.2223 0.46405v6.9345l1.9105 0.36327c5.0854 0.96618 9.95 2.7272 14.496 5.2483v-0.0026c4.8392 2.684 9.1641 6.1498 12.856 10.299 3.9012 4.3848 6.9459 9.3584 9.0547 14.797v3e-3h3e-3c2.1873 5.6347 3.2949 11.573 3.2949 17.678 0 5.5952-0.93308 11.053-2.7673 16.256l-0.64648 1.8355 5.7707 3.3512c-1.8958 4.4884-4.3659 8.6714-7.3153 12.462l-5.7371-3.3285-1.2754 1.4609c-4.1513 4.7649-9.2848 8.7781-14.875 11.606l-3e-3 3e-3c-3.347 1.6964-6.8913 3.0015-10.53 3.8752-3.7478 0.90103-7.6222 1.3648-11.514 1.3648-3.8867 0-7.7604-0.45892-11.498-1.3591h-3e-3c-3.6376-0.87357-7.1754-2.1777-10.525-3.869-5.5844-2.8216-10.718-6.8222-14.861-11.578l-1.2738-1.463-5.6632 3.2887c-2.9497-3.7906-5.4189-7.9735-7.3147-12.462l5.6927-3.3042-0.65267-1.8376c-1.847-5.2148-2.7848-10.693-2.7848-16.301 0-6.1125 1.107-12.057 3.3006-17.698h0.0026v-3e-3c2.1154-5.4518 5.165-10.426 9.08-14.818 3.7042-4.155 8.0354-7.6117 12.889-10.297 4.5516-2.5142 9.4298-4.2667 14.529-5.2266l1.9141-0.36174v-6.9169c2.3637-0.30512 4.7743-0.46405 7.2229-0.46405zm-11.922 1.2795v2.3652c-4.885 1.1089-9.6126 2.7789-14.016 5.211l-0.0026 0.0026c-5.3135 2.9392-10.069 6.7332-14.123 11.281-4.2817 4.8036-7.6352 10.272-9.9534 16.246-2.4039 6.1821-3.623 12.717-3.623 19.399 0 5.4614 0.94575 10.797 2.5549 15.945l-1.7689 1.0268c-1.753-5.413-2.7037-11.192-2.7037-17.199 0-26.654 18.643-48.84 43.635-54.277zm23.844 0c24.992 5.4374 43.635 27.624 43.635 54.277 0 6.0075-0.95046 11.787-2.7037 17.2l-1.8547-1.0769c1.597-5.133 2.5368-10.449 2.5368-15.896 0-6.675-1.2167-13.203-3.6132-19.377v-3e-3c-2.3111-5.9597-5.6577-11.426-9.9255-16.223-4.0402-4.5407-8.7872-8.3429-14.088-11.283-4.3966-2.4383-9.1124-4.1147-13.986-5.2302zm27.045 90.992 1.818 1.0552c-10.138 10.946-24.641 17.787-40.785 17.787-16.143 0-30.647-6.841-40.785-17.787l1.6578-0.96327c4.293 4.5778 9.3641 8.4585 14.928 11.27v3e-3c3.6694 1.8526 7.5475 3.2841 11.545 4.2442 4.1034 0.98827 8.3444 1.4883 12.6 1.4883 4.2645 0 8.5042-0.50866 12.611-1.496 3.9969-0.95983 7.8823-2.3908 11.555-4.2519 5.5644-2.8146 10.562-6.7715 14.855-11.348z" color="#000000" color-rendering="auto" dominant-baseline="auto" image-rendering="auto" shape-rendering="auto" solid-color="#000000" style="font-feature-settings:normal;font-variant-alternates:normal;font-variant-caps:normal;font-variant-ligatures:normal;font-variant-numeric:normal;font-variant-position:normal;isolation:auto;mix-blend-mode:normal;paint-order:markers stroke fill;shape-padding:0;text-decoration-color:#000000;text-decoration-line:none;text-decoration-style:solid;text-indent:0;text-orientation:mixed;text-transform:none;white-space:normal"/>
  </g>
 </g>
</svg>
