<?xml version="1.0" encoding="UTF-8" standalone="no"?>
<svg
   xmlns:dc="http://purl.org/dc/elements/1.1/"
   xmlns:cc="http://creativecommons.org/ns#"
   xmlns:rdf="http://www.w3.org/1999/02/22-rdf-syntax-ns#"
   xmlns:svg="http://www.w3.org/2000/svg"
   xmlns="http://www.w3.org/2000/svg"
   id="svg9950"
   version="1.1"
   viewBox="0 0 133.09781 133.09781"
   height="133.09781mm"
   width="133.09781mm">
  <defs
     id="defs9944">
    <clipPath
       id="clipPath64267"
       clipPathUnits="userSpaceOnUse">
      <path
         id="path64269"
         d="m -164.47419,618.91933 c -24.93859,-6.19256 -47.34002,-26.66593 -65.2222,-59.60855 -3.71094,-6.83634 -6.955,-12.42966 -7.20903,-12.42966 -0.25404,0 -3.14131,2.76265 -6.41618,6.13916 -3.27485,3.37652 -6.07376,6.13913 -6.21977,6.13913 -1.0421,0 -15.89003,-44.97079 -15.89003,-48.12703 0,-0.34999 2.79996,-3.58039 6.22214,-7.17876 3.42218,-3.59838 6.27834,-6.6124 6.34703,-6.69778 0.0687,-0.0854 -0.9574,-6.06863 -2.28016,-13.29615 -4.05586,-22.16069 -5.42463,-41.31753 -4.91254,-68.75459 0.35009,-18.75825 0.91535,-27.19132 2.58629,-38.58513 6.95711,-47.43896 20.74102,-84.32931 42.29526,-113.1959 11.65167,-15.60461 29.62175,-29.77958 43.50315,-34.31561 l 5.79303,-1.89302 v -14.0965 -14.09654 l 5.27525,-0.98605 c 6.66939,-1.2466 16.1474,-1.24293 21.97341,0.008 l 4.50571,0.96783 v 14.3667 c 0,13.06617 0.14688,14.36667 1.62251,14.36667 3.41751,0 18.34945,7.87464 25.74751,13.57848 29.524178,22.76281 51.860957,66.56227 61.84212,121.26455 6.90683,37.85329 6.932574,82.12471 0.06995,120.28785 -1.39344,7.74894 -2.452214,14.19027 -2.352842,14.31405 0.09933,0.12359 2.980665,3.11977 6.402844,6.65787 3.422178,3.53805 6.222137,6.76493 6.222137,7.17086 0,2.27792 -6.858728,24.7138 -10.879692,35.58901 l -4.685748,12.67325 -6.652077,-6.44697 -6.652082,-6.44693 -6.332649,11.9221 c -15.077044,28.38467 -34.658391,48.47966 -55.687241,57.14801 -10.38803,4.28209 -29.19848,5.99898 -39.0161,3.56111 z"
         style="fill:#0b45a1;fill-opacity:1;fill-rule:evenodd;stroke:none;stroke-width:2.16886;stroke-linecap:round;paint-order:stroke fill markers" />
    </clipPath>
    <clipPath
       id="clipPath64271"
       clipPathUnits="userSpaceOnUse">
      <path
         id="path64273"
         d="m -164.32752,233.73934 c -24.68193,6.19355 -46.85282,26.67017 -64.55096,59.61803 -3.67275,6.83743 -6.88342,12.43164 -7.13485,12.43164 -0.25142,0 -3.10897,-2.76309 -6.35014,-6.14014 -3.24115,-3.37705 -6.01125,-6.1401 -6.15576,-6.1401 -1.03138,0 -15.72649,44.97794 -15.72649,48.13468 0,0.35005 2.77114,3.58096 6.1581,7.1799 3.38696,3.59896 6.21372,6.61346 6.2817,6.69885 0.068,0.0854 -0.94754,6.06959 -2.25669,13.29826 -4.01411,22.16422 -5.3688,41.32411 -4.86198,68.76553 0.34649,18.76123 0.90593,27.19564 2.55967,38.59127 6.88552,47.4465 20.52757,84.34272 41.85998,113.2139 11.53176,15.60709 29.3169,29.78431 43.05544,34.32107 l 5.73341,1.89331 v 14.09875 14.09878 l 5.22096,0.9862 c 6.60075,1.2468 15.98122,1.24313 21.74728,-0.008 l 4.45933,-0.96798 v -14.36898 c 0,-13.06825 0.14537,-14.36895 1.60581,-14.36895 3.38234,0 18.16061,-7.8759 25.48253,-13.58065 29.220331,-22.76642 51.327232,-66.57285 61.205673,-121.28383 6.835748,-37.85931 6.861228,-82.13777 0.06923,-120.30698 -1.379099,-7.75018 -2.426977,-14.19253 -2.328627,-14.31633 0.09831,-0.12361 2.949989,-3.12027 6.336948,-6.65893 3.38696,-3.53861 6.158103,-6.766 6.158103,-7.172 0,-2.27828 -6.788142,-24.71773 -10.767724,-35.59467 l -4.637525,-12.67527 -6.583617,6.448 -6.583622,6.44796 -6.267477,-11.924 c -14.921878,-28.38919 -34.301702,-48.48737 -55.114142,-57.1571 -10.28111,-4.28277 -28.89797,-5.99993 -38.61456,-3.56168 z"
         style="fill:#0b45a1;fill-opacity:1;fill-rule:evenodd;stroke:none;stroke-width:2.15784;stroke-linecap:round;paint-order:stroke fill markers" />
    </clipPath>
    <clipPath
       id="clipPath64275"
       clipPathUnits="userSpaceOnUse">
      <path
         id="path64277"
         d="m 117.12758,188.70232 c -11.79995,-1.63845 -22.399421,-7.05536 -30.860561,-15.77143 -1.75587,-1.80878 -3.29083,-3.28868 -3.41103,-3.28868 -0.1202,0 -1.48634,0.73095 -3.03588,1.62432 -1.54953,0.89337 -2.87386,1.62431 -2.94295,1.62431 -0.49308,0 -7.51853,-11.89852 -7.51853,-12.73361 0,-0.0926 1.32483,-0.94731 2.94407,-1.89938 1.61924,-0.95207 2.97066,-1.74953 3.00316,-1.77212 0.0325,-0.0226 -0.453,-1.60566 -1.07888,-3.51794 -1.91907,-5.86335 -2.56672,-10.93193 -2.32442,-18.19132 0.16565,-4.96312 0.43311,-7.19437 1.22373,-10.20898 3.29183,-12.55156 9.81383,-22.31213 20.012441,-29.949749 5.51311,-4.12872 14.01584,-7.87918 20.58397,-9.07934 l 2.74103,-0.50086 v -3.7297 -3.72971 l 2.49604,-0.26089 c 3.15569,-0.32983 7.64031,-0.32886 10.39695,0.002 l 2.13192,0.25607 v 3.80119 c 0,3.45709 0.0695,3.80118 0.76771,3.80118 1.61703,0 8.68223,2.0835 12.1827,3.59264 13.96967,6.02266 24.53855,17.611269 29.26124,32.084579 3.26804,10.01535 3.28022,21.72883 0.0331,31.82616 -0.65932,2.05024 -1.16029,3.75451 -1.11327,3.78726 0.047,0.0327 1.41033,0.82544 3.02957,1.76156 1.61924,0.93611 2.94407,1.78989 2.94407,1.89729 0,0.6027 -3.24528,6.53886 -5.14784,9.41626 l -2.21711,3.35313 -3.1475,-1.70576 -3.1475,-1.70575 -2.99636,3.15439 c -7.13386,7.51011 -16.39898,12.82691 -26.349,15.12041 -4.9152,1.13297 -13.81556,1.58723 -18.46087,0.94221 z"
         style="fill:#0b45a1;fill-opacity:1;fill-rule:evenodd;stroke:none;stroke-width:0.767392;stroke-linecap:round;paint-order:stroke fill markers" />
    </clipPath>
    <clipPath
       id="clipPath64301"
       clipPathUnits="userSpaceOnUse">
      <path
         id="path64303"
         d="m 117.12758,187.90862 c -11.79995,-1.58409 -22.399419,-6.82127 -30.860556,-15.24814 -1.75587,-1.74875 -3.290834,-3.17956 -3.411034,-3.17956 -0.120198,0 -1.486344,0.7067 -3.03588,1.57043 -1.549533,0.86373 -2.87386,1.57041 -2.94295,1.57041 -0.493077,0 -7.518532,-11.50372 -7.518532,-12.31111 0,-0.0895 1.32483,-0.91587 2.944068,-1.83636 1.619239,-0.92048 2.970661,-1.69148 3.003163,-1.71332 0.0325,-0.0219 -0.452995,-1.55238 -1.078882,-3.40121 -1.91907,-5.66881 -2.566714,-10.56921 -2.324421,-17.58772 0.165651,-4.79845 0.433109,-6.95567 1.223731,-9.87025 3.291828,-12.13511 9.813836,-21.57182 20.01244,-28.956084 5.513115,-3.991731 14.015843,-7.617751 20.583973,-8.778091 l 2.74103,-0.48424 v -3.60595 -3.60596 l 2.49604,-0.25223 c 3.15569,-0.31889 7.64031,-0.31795 10.39695,0.002 l 2.13192,0.24758 v 3.67506 c 0,3.34238 0.0695,3.67506 0.76771,3.67506 1.61703,0 8.68223,2.01437 12.1827,3.47344 13.96967,5.82282 24.53855,17.026975 29.26124,31.020065 3.26804,9.68305 3.28022,21.00787 0.0331,30.77017 -0.65932,1.98221 -1.16029,3.62993 -1.11327,3.66159 0.047,0.0316 1.41033,0.79807 3.02957,1.70312 1.61924,0.90505 2.94407,1.7305 2.94407,1.83433 0,0.58271 -3.24528,6.32191 -5.14784,9.10383 l -2.21711,3.24188 -3.1475,-1.64917 -3.1475,-1.64915 -2.99636,3.04973 c -7.13386,7.26092 -16.39898,12.40131 -26.349,14.61871 -4.9152,1.09538 -13.81556,1.53457 -18.46087,0.91096 z"
         style="fill:#0b45a1;fill-opacity:1;fill-rule:evenodd;stroke:none;stroke-width:0.754555;stroke-linecap:round;paint-order:stroke fill markers" />
    </clipPath>
  </defs>
  <metadata
     id="metadata9947">
    <rdf:RDF>
      <cc:Work
         rdf:about="">
        <dc:format>image/svg+xml</dc:format>
        <dc:type
           rdf:resource="http://purl.org/dc/dcmitype/StillImage" />
        <dc:title></dc:title>
      </cc:Work>
    </rdf:RDF>
  </metadata>
  <g
     transform="translate(-57.427285,-70.189195)"
     id="layer1">
    <path
       transform="matrix(0.26458333,0,0,0.26458333,57.427285,70.189195)"
       id="path901"
       d=""
       style="fill:#ffffff;fill-opacity:0.992157;fill-rule:evenodd;stroke-width:5.39933" />
    <path
       transform="matrix(0.26458333,0,0,0.26458333,57.427285,70.189195)"
       id="path940"
       d="m 225.71429,459.2571 c -43.8651,-6.08836 -84.33307,-25.03594 -116.1937,-54.40325 -9.14045,-8.42515 -10.775607,-10.55168 -8.91441,-11.59326 1.73824,-0.97277 4.76834,0.97876 12.76489,8.22121 30.82041,27.91393 66.48187,45.22546 105.89414,51.40532 19.13798,3.00085 56.72755,2.26021 73.59193,-1.44999 36.42253,-8.01305 68.67785,-24.75315 94.50433,-49.04655 8.9563,-8.42466 11.72173,-10.27783 14.17523,-9.49912 2.89806,0.91981 2.777,1.24956 -2.45856,6.69689 -9.413,9.79373 -27.70791,23.92585 -41.17711,31.80775 -21.7032,12.70026 -43.49113,20.95253 -68.00663,25.75779 -14.07113,2.75808 -50.79207,3.96143 -64.18011,2.10321 z"
       style="fill:#ffffff;fill-opacity:0.992157;fill-rule:evenodd;stroke-width:5.39933" />
    <path
       transform="matrix(0.26458333,0,0,0.26458333,57.427285,70.189195)"
       id="path979"
       d="m 447.25337,312.9903 c -1.28714,-1.5509 -1.01948,-4.56761 1.17244,-13.21429 6.5933,-26.0092 7.56028,-61.93535 2.33946,-86.91887 -16.02194,-76.67087 -70.56395,-135.233263 -145.3018,-156.012234 -7.10703,-1.975931 -8.32061,-2.800078 -8.32061,-5.65055 0,-4.368681 1.28832,-4.265419 18.94503,1.518489 52.67255,17.254246 97.83719,56.125145 122.72375,105.622055 7.69753,15.30962 16.16245,41.41424 19.0696,58.80796 4.49327,26.88357 2.61782,63.86171 -4.5465,89.64285 -2.3854,8.58396 -3.31745,9.5349 -6.08137,6.20459 z"
       style="fill:#ffffff;fill-opacity:0.992157;fill-rule:evenodd;stroke-width:5.39933" />
    <path
       transform="matrix(0.26458333,0,0,0.26458333,57.427285,70.189195)"
       id="path1135"
       d="m 48.850869,303.21429 c -5.142043,-20.69395 -6.401492,-34.08242 -5.587025,-59.39238 0.592614,-18.41575 1.578907,-27.26207 4.346045,-38.9808 16.975865,-71.8921 69.497841,-129.308841 139.159371,-152.128265 17.67411,-5.789613 18.94503,-5.889991 18.94503,-1.496303 0,2.941916 -1.19835,3.677878 -9.64286,5.922134 C 133.54372,73.756357 80.70944,123.38011 59.374383,185.52919 47.03141,221.4843 45.122289,265.09001 54.324767,300.86611 c 1.942799,7.55293 2.25942,10.94286 1.147239,12.28296 -2.766632,3.33359 -3.655671,1.99962 -6.621137,-9.93478 z"
       style="fill:#ffffff;fill-opacity:0.992157;fill-rule:evenodd;stroke-width:5.39933" />
    <path
       id="path1016"
       d="m 117.10249,189.1116 c -11.79995,-1.63845 -22.399423,-7.05536 -30.860559,-15.77143 -1.755869,-1.80877 -3.290834,-3.28868 -3.411034,-3.28868 -0.120197,0 -1.486344,0.73095 -3.035879,1.62432 -1.549534,0.89337 -2.873861,1.62431 -2.94295,1.62431 -0.493078,0 -7.518533,-11.89852 -7.518533,-12.73361 0,-0.0926 1.324831,-0.94731 2.944069,-1.89938 1.619238,-0.95207 2.970661,-1.74953 3.003163,-1.77212 0.0325,-0.0226 -0.452996,-1.60566 -1.078883,-3.51794 -1.919069,-5.86335 -2.566714,-10.93193 -2.324421,-18.19131 0.165652,-4.96312 0.433109,-7.19438 1.223732,-10.20898 3.291828,-12.55157 9.813836,-22.31214 20.01244,-29.949797 5.513108,-4.128726 14.015845,-7.879183 20.583975,-9.079346 l 2.74103,-0.500855 V 81.717076 77.98737 l 2.49604,-0.260888 c 3.15569,-0.329835 7.64031,-0.328866 10.39695,0.0022 l 2.13192,0.256073 v 3.801182 c 0,3.45709 0.0695,3.801182 0.7677,3.801182 1.61703,0 8.68223,2.083506 12.1827,3.592643 13.96967,6.022654 24.53855,17.611308 29.26124,32.084618 3.26804,10.01536 3.28022,21.72884 0.0331,31.82616 -0.65932,2.05024 -1.16029,3.75451 -1.11327,3.78726 0.047,0.0327 1.41033,0.82545 3.02957,1.76156 1.61924,0.93611 2.94407,1.78989 2.94407,1.89729 0,0.6027 -3.24528,6.53886 -5.14784,9.41626 l -2.21711,3.35313 -3.1475,-1.70576 -3.1475,-1.70575 -2.99636,3.15439 c -7.13386,7.51011 -16.39898,12.82691 -26.349,15.12041 -4.91519,1.13297 -13.81555,1.58723 -18.46086,0.94222 z"
       style="opacity:1;fill:#0b45a1;fill-rule:evenodd;stroke:none;stroke-width:0.767392;stroke-linecap:round;paint-order:stroke fill markers;fill-opacity:1" />
    <path
       id="path1016-7"
       d="m 117.12758,188.70237 c -11.79995,-1.58409 -22.399421,-6.82127 -30.860557,-15.24814 -1.75587,-1.74875 -3.290834,-3.17956 -3.411034,-3.17956 -0.120198,0 -1.486344,0.7067 -3.03588,1.57043 -1.549533,0.86373 -2.87386,1.57041 -2.94295,1.57041 -0.493077,0 -7.518532,-11.50372 -7.518532,-12.31111 0,-0.0895 1.32483,-0.91587 2.944068,-1.83636 1.619239,-0.92048 2.970661,-1.69148 3.003163,-1.71332 0.0325,-0.0219 -0.452995,-1.55238 -1.078882,-3.40121 -1.91907,-5.66881 -2.566714,-10.56921 -2.324421,-17.58772 0.165651,-4.79845 0.433109,-6.95567 1.223731,-9.87025 3.291828,-12.13511 9.813836,-21.57182 20.01244,-28.956064 5.513109,-3.991735 14.015844,-7.617752 20.583974,-8.778093 l 2.74103,-0.484237 v -3.605955 -3.605954 l 2.49604,-0.252232 c 3.15569,-0.318891 7.64031,-0.317954 10.39695,0.0021 l 2.13192,0.247577 v 3.675059 c 0,3.342383 0.0695,3.675058 0.76771,3.675058 1.61703,0 8.68223,2.014376 12.1827,3.47344 13.96967,5.822822 24.53855,17.026961 29.26124,31.020051 3.26804,9.68305 3.28022,21.00787 0.0331,30.77017 -0.65932,1.98221 -1.16029,3.62993 -1.11327,3.66159 0.047,0.0316 1.41033,0.79807 3.02957,1.70312 1.61924,0.90505 2.94407,1.7305 2.94407,1.83433 0,0.58271 -3.24528,6.32191 -5.14784,9.10383 l -2.21711,3.24188 -3.1475,-1.64917 -3.1475,-1.64915 -2.99636,3.04973 c -7.13386,7.26092 -16.39898,12.40131 -26.349,14.61871 -4.9152,1.09538 -13.81556,1.53457 -18.46087,0.91096 z"
       style="fill:#803408;fill-opacity:1;fill-rule:evenodd;stroke:none;stroke-width:0.754554;stroke-linecap:round;paint-order:stroke fill markers" />
    <path
       clip-path="url(#clipPath64301)"
       d="m 68.754059,175.31319 a 55.223228,57.103004 0 0 1 55.223231,-57.10301 55.223228,57.103004 0 0 1 55.22323,57.10301 h -55.22323 z"
       id="path3376"
       style="display:inline;overflow:visible;visibility:visible;opacity:1;fill:#f5dc0f;fill-opacity:1;fill-rule:evenodd;stroke:#000000;stroke-width:1.52532;stroke-linecap:round;stroke-linejoin:round;stroke-miterlimit:4;stroke-dasharray:none;stroke-dashoffset:0;stroke-opacity:1;marker:none;marker-start:none;marker-mid:none;marker-end:none;enable-background:accumulate" />
    <rect
       y="118.21017"
       x="122.32484"
       height="18.035931"
       width="3.3048387"
       id="rect3382"
       style="display:inline;overflow:visible;visibility:visible;fill:#c70f2e;fill-opacity:1;fill-rule:evenodd;stroke:none;stroke-width:7.46671;stroke-linecap:round;stroke-linejoin:round;stroke-miterlimit:4;stroke-dasharray:none;stroke-dashoffset:0;stroke-opacity:1;marker:none;marker-start:none;marker-mid:none;marker-end:none;enable-background:accumulate" />
    <path
       id="path3412"
       d="M 123.97726,118.21017 V 136.2461"
       style="fill:none;fill-rule:evenodd;stroke:#000000;stroke-width:1.13891;stroke-linecap:butt;stroke-linejoin:miter;stroke-miterlimit:4;stroke-dasharray:none;stroke-opacity:1" />
    <path
       id="path3440"
       d="m 130.39929,118.50204 -3.41056,30.17089"
       style="fill:none;fill-rule:evenodd;stroke:#000000;stroke-width:1.13891;stroke-linecap:butt;stroke-linejoin:miter;stroke-miterlimit:4;stroke-dasharray:none;stroke-opacity:1" />
    <path
       style="fill:none;fill-rule:evenodd;stroke:#000000;stroke-width:1.13891;stroke-linecap:butt;stroke-linejoin:miter;stroke-miterlimit:4;stroke-dasharray:none;stroke-opacity:1"
       d="m 136.71229,119.74931 -4.02234,17.54979"
       id="path3451" />
    <path
       style="fill:none;fill-rule:evenodd;stroke:#000000;stroke-width:1.13891;stroke-linecap:butt;stroke-linejoin:miter;stroke-miterlimit:4;stroke-dasharray:none;stroke-opacity:1"
       d="m 142.89613,121.5647 -10.04731,28.54439"
       id="path3453" />
    <path
       id="path3459"
       d="m 148.76085,124.28378 -7.82786,16.11759"
       style="fill:none;fill-rule:evenodd;stroke:#000000;stroke-width:1.13891;stroke-linecap:butt;stroke-linejoin:miter;stroke-miterlimit:4;stroke-dasharray:none;stroke-opacity:1" />
    <path
       id="path3461"
       d="m 154.37315,127.52484 -16.14243,25.37913"
       style="fill:none;fill-rule:evenodd;stroke:#000000;stroke-width:1.13891;stroke-linecap:butt;stroke-linejoin:miter;stroke-miterlimit:4;stroke-dasharray:none;stroke-opacity:1" />
    <path
       style="fill:none;fill-rule:evenodd;stroke:#000000;stroke-width:1.13891;stroke-linecap:butt;stroke-linejoin:miter;stroke-miterlimit:4;stroke-dasharray:none;stroke-opacity:1"
       d="m 159.47336,131.56914 -11.2114,13.81652"
       id="path3467" />
    <path
       style="fill:none;fill-rule:evenodd;stroke:#000000;stroke-width:1.13891;stroke-linecap:butt;stroke-linejoin:miter;stroke-miterlimit:4;stroke-dasharray:none;stroke-opacity:1"
       d="m 164.21156,136.06114 -21.36735,20.84574"
       id="path3469" />
    <path
       id="path3475"
       d="M 168.27236,141.21263 154.2818,151.98327"
       style="fill:none;fill-rule:evenodd;stroke:#000000;stroke-width:1.13891;stroke-linecap:butt;stroke-linejoin:miter;stroke-miterlimit:4;stroke-dasharray:none;stroke-opacity:1" />
    <path
       id="path3477"
       d="m 171.88105,146.71343 -25.44041,15.18861"
       style="fill:none;fill-rule:evenodd;stroke:#000000;stroke-width:1.13891;stroke-linecap:butt;stroke-linejoin:miter;stroke-miterlimit:4;stroke-dasharray:none;stroke-opacity:1" />
    <path
       style="fill:none;fill-rule:evenodd;stroke:#000000;stroke-width:1.13891;stroke-linecap:butt;stroke-linejoin:miter;stroke-miterlimit:4;stroke-dasharray:none;stroke-opacity:1"
       d="m 174.6835,152.69438 -16.01551,7.14415"
       id="path3483" />
    <path
       style="fill:none;fill-rule:evenodd;stroke:#000000;stroke-width:1.13891;stroke-linecap:butt;stroke-linejoin:miter;stroke-miterlimit:4;stroke-dasharray:none;stroke-opacity:1"
       d="m 176.96814,158.90745 -28.14204,8.71269"
       id="path3485" />
    <path
       id="path3491"
       d="m 178.36123,166.45379 -17.17712,3.13253"
       style="fill:none;fill-rule:evenodd;stroke:#000000;stroke-width:1.13891;stroke-linecap:butt;stroke-linejoin:miter;stroke-miterlimit:4;stroke-dasharray:none;stroke-opacity:1" />
    <path
       style="fill:none;fill-rule:evenodd;stroke:#000000;stroke-width:1.13891;stroke-linecap:butt;stroke-linejoin:miter;stroke-miterlimit:4;stroke-dasharray:none;stroke-opacity:1"
       d="m 111.24221,119.74932 4.02236,17.54979"
       id="path3507" />
    <path
       style="fill:none;fill-rule:evenodd;stroke:#000000;stroke-width:1.13891;stroke-linecap:butt;stroke-linejoin:miter;stroke-miterlimit:4;stroke-dasharray:none;stroke-opacity:1"
       d="m 117.55623,118.50192 3.41005,30.17095"
       id="path3509" />
    <path
       id="path3515"
       d="m 99.193727,124.28376 7.827863,16.11759"
       style="fill:none;fill-rule:evenodd;stroke:#000000;stroke-width:1.13891;stroke-linecap:butt;stroke-linejoin:miter;stroke-miterlimit:4;stroke-dasharray:none;stroke-opacity:1" />
    <path
       id="path3517"
       d="m 105.05936,121.56434 10.04681,28.54458"
       style="fill:none;fill-rule:evenodd;stroke:#000000;stroke-width:1.13891;stroke-linecap:butt;stroke-linejoin:miter;stroke-miterlimit:4;stroke-dasharray:none;stroke-opacity:1" />
    <path
       style="fill:none;fill-rule:evenodd;stroke:#000000;stroke-width:1.13891;stroke-linecap:butt;stroke-linejoin:miter;stroke-miterlimit:4;stroke-dasharray:none;stroke-opacity:1"
       d="m 88.481222,131.56907 11.211395,13.81652"
       id="path3523" />
    <path
       style="fill:none;fill-rule:evenodd;stroke:#000000;stroke-width:1.13891;stroke-linecap:butt;stroke-linejoin:miter;stroke-miterlimit:4;stroke-dasharray:none;stroke-opacity:1"
       d="m 93.582272,127.52422 16.141988,25.37943"
       id="path3525" />
    <path
       id="path3531"
       d="m 79.68223,141.2125 13.990549,10.77065"
       style="fill:none;fill-rule:evenodd;stroke:#000000;stroke-width:1.13891;stroke-linecap:butt;stroke-linejoin:miter;stroke-miterlimit:4;stroke-dasharray:none;stroke-opacity:1" />
    <path
       id="path3533"
       d="m 83.743712,136.06028 21.366998,20.84614"
       style="fill:none;fill-rule:evenodd;stroke:#000000;stroke-width:1.13891;stroke-linecap:butt;stroke-linejoin:miter;stroke-miterlimit:4;stroke-dasharray:none;stroke-opacity:1" />
    <path
       style="fill:none;fill-rule:evenodd;stroke:#000000;stroke-width:1.13891;stroke-linecap:butt;stroke-linejoin:miter;stroke-miterlimit:4;stroke-dasharray:none;stroke-opacity:1"
       d="m 73.271066,152.69424 16.015512,7.14415"
       id="path3539" />
    <path
       style="fill:none;fill-rule:evenodd;stroke:#000000;stroke-width:1.13891;stroke-linecap:butt;stroke-linejoin:miter;stroke-miterlimit:4;stroke-dasharray:none;stroke-opacity:1"
       d="m 76.074033,146.71239 25.440147,15.18908"
       id="path3541" />
    <path
       id="path3547"
       d="m 69.593369,166.45366 17.177117,3.13252"
       style="fill:none;fill-rule:evenodd;stroke:#000000;stroke-width:1.13891;stroke-linecap:butt;stroke-linejoin:miter;stroke-miterlimit:4;stroke-dasharray:none;stroke-opacity:1" />
    <path
       id="path3549"
       d="m 70.986728,158.90631 28.14189,8.71321"
       style="fill:none;fill-rule:evenodd;stroke:#000000;stroke-width:1.13891;stroke-linecap:butt;stroke-linejoin:miter;stroke-miterlimit:4;stroke-dasharray:none;stroke-opacity:1" />
    <path
       clip-path="url(#clipPath64275)"
       d="m 68.754059,175.31319 a 55.223228,57.103004 0 0 1 55.223231,-57.10301 55.223228,57.103004 0 0 1 55.22323,57.10301 h -55.22323 z"
       style="display:inline;overflow:visible;visibility:visible;opacity:1;fill:none;fill-opacity:1;fill-rule:evenodd;stroke:#000000;stroke-width:1.52532;stroke-linecap:round;stroke-linejoin:round;stroke-miterlimit:4;stroke-dasharray:none;stroke-dashoffset:0;stroke-opacity:1;marker:none;marker-start:none;marker-mid:none;marker-end:none;enable-background:accumulate"
       id="path3615" />
    <path
       transform="matrix(0.26458333,0,0,0.26458333,57.427285,70.189195)"
       id="path1055"
       d="m 50.053792,307.59263 c -5.392728,-18.15929 -7.105661,-31.76137 -7.072827,-56.16406 0.03617,-26.88073 2.018252,-40.25574 9.413164,-63.51959 10.293671,-32.38315 26.230972,-58.14278 51.799441,-83.724 25.93472,-25.947651 50.55744,-41.143227 84.0378,-51.862792 16.76253,-5.36694 18.1972,-5.459961 18.1972,-1.179871 0,2.935277 -1.48177,3.701657 -13.91236,7.195517 C 164.08313,66.329517 135.12587,82.95862 112.4167,104.33608 58.988454,154.63119 36.531703,229.7498 54.096103,299.4205 c 3.088807,12.25201 3.124176,12.96267 0.709447,14.255 -2.192327,1.1733 -2.845045,0.33773 -4.751758,-6.08287 z"
       style="opacity:1;fill:#ffffff;fill-rule:evenodd;stroke:none;stroke-width:2.69966;stroke-linecap:round;paint-order:stroke fill markers" />
    <path
       clip-path="url(#clipPath64271)"
       transform="matrix(0.47808055,0,0,-0.2333053,195.68828,241.15314)"
       d="M -43.426513,206.32692 -150,390.91761 -256.57349,206.32692 Z"
       id="path27875"
       style="opacity:1;fill:#000000;fill-rule:evenodd;stroke:none;stroke-width:3.77953;stroke-linecap:round;stroke-opacity:1;paint-order:stroke fill markers" />
    <path
       transform="matrix(0.26458333,0,0,0.26458333,57.427285,70.189195)"
       id="path1094"
       d="m 447.65941,313.48917 c -2.05934,-1.15247 -1.9604,-2.59591 1.02428,-14.94181 21.98318,-90.93235 -21.98642,-185.3543 -105.9559,-227.533637 -11.26985,-5.66104 -27.29251,-11.686703 -38.79922,-14.591274 -5.14777,-1.299422 -6.07143,-2.084794 -6.07143,-5.162448 0,-3.350458 0.35739,-3.55197 4.64286,-2.617837 36.5734,7.97216 79.5238,34.289062 106.28222,65.122056 44.96112,51.80746 61.74205,120.06732 46.04434,187.29464 -1.60372,6.86808 -3.35949,12.76161 -3.90172,13.09673 -0.54223,0.33511 -2.01165,0.0353 -3.26543,-0.66642 z"
       style="opacity:1;fill:#ffffff;fill-rule:evenodd;stroke:none;stroke-width:2.69966;stroke-linecap:round;paint-order:stroke fill markers" />
    <path
       transform="matrix(0.26458333,0,0,0.26458333,57.427285,70.189195)"
       id="path1133"
       d=""
       style="opacity:1;fill:#ffffff;fill-rule:evenodd;stroke:none;stroke-width:2.69966;stroke-linecap:round;paint-order:stroke fill markers" />
    <rect
       y="80.701523"
       x="116.7262"
       height="75.305855"
       width="14.5"
       id="rect5281"
       style="display:inline;overflow:visible;visibility:visible;fill:#eb0129;fill-opacity:1;fill-rule:evenodd;stroke:none;stroke-width:0.159975;stroke-linecap:butt;stroke-linejoin:miter;stroke-miterlimit:4;stroke-dasharray:none;stroke-dashoffset:0;stroke-opacity:1;marker:none;marker-start:none;marker-mid:none;marker-end:none;enable-background:accumulate" />
    <g
       id="text2534"
       style="font-size:39.51110077px;line-height:1.25;font-family:'MS UI Gothic';-inkscape-font-specification:'MS UI Gothic';letter-spacing:0px;stroke:#ffffff;stroke-width:1;stroke-miterlimit:4;stroke-dasharray:none"
       aria-label="666">
      <path
         id="path1702"
         style="font-style:normal;font-variant:normal;font-weight:normal;font-stretch:normal;font-size:39.51110077px;font-family:bungee;-inkscape-font-specification:bungee;stroke:#ffffff;stroke-width:1;stroke-miterlimit:4;stroke-dasharray:none"
         d="m 97.361275,151.25842 q -3.635021,0 -5.966176,-0.59266 -2.291644,-0.55316 -3.59551,-1.58045 -1.303867,-1.0668 -1.817511,-2.52871 -0.474133,-1.46191 -0.474133,-3.27942 v -12.95964 q 0,-3.59551 2.054577,-5.84764 2.094088,-2.25214 7.665154,-2.25214 h 9.087554 q 0.75071,0 1.0668,0.3556 0.3556,0.31609 0.3556,1.0668 v 4.66231 q 0,0.75071 -0.3556,1.10631 -0.31609,0.31609 -1.0668,0.31609 h -7.388577 q -1.461911,0 -1.975555,0.47414 -0.513644,0.43462 -0.513644,1.89653 v 0.86924 q 0.948266,-0.27657 2.17311,-0.43462 1.264355,-0.15804 2.844799,-0.15804 5.333997,0 7.309557,1.81751 1.97555,1.778 1.97555,5.29448 v 3.79307 q 0,1.81751 -0.51364,3.27942 -0.47414,1.46191 -1.778,2.52871 -1.26436,1.02729 -3.47698,1.58045 -2.21262,0.59266 -5.610575,0.59266 z m -2.923821,-10.94457 v 2.33115 q 0,0.63218 0.474133,1.0668 0.474133,0.39511 2.17311,0.39511 1.778,0 2.252133,-0.39511 0.474133,-0.43462 0.474133,-1.0668 v -2.33115 q 0,-0.59267 -0.474133,-0.98778 -0.474133,-0.43462 -2.252133,-0.43462 -1.698977,0 -2.17311,0.43462 -0.474133,0.39511 -0.474133,0.98778 z" />
      <path
         id="path1704"
         style="font-style:normal;font-variant:normal;font-weight:normal;font-stretch:normal;font-size:39.51110077px;font-family:bungee;-inkscape-font-specification:bungee;stroke:#ffffff;stroke-width:1;stroke-miterlimit:4;stroke-dasharray:none"
         d="m 124.75667,151.25842 q -3.63502,0 -5.96618,-0.59266 -2.29164,-0.55316 -3.59551,-1.58045 -1.30387,-1.0668 -1.81751,-2.52871 -0.47413,-1.46191 -0.47413,-3.27942 v -12.95964 q 0,-3.59551 2.05457,-5.84764 2.09409,-2.25214 7.66516,-2.25214 h 9.08755 q 0.75071,0 1.0668,0.3556 0.3556,0.31609 0.3556,1.0668 v 4.66231 q 0,0.75071 -0.3556,1.10631 -0.31609,0.31609 -1.0668,0.31609 h -7.38858 q -1.46191,0 -1.97555,0.47414 -0.51364,0.43462 -0.51364,1.89653 v 0.86924 q 0.94826,-0.27657 2.17311,-0.43462 1.26435,-0.15804 2.84479,-0.15804 5.334,0 7.30956,1.81751 1.97555,1.778 1.97555,5.29448 v 3.79307 q 0,1.81751 -0.51364,3.27942 -0.47413,1.46191 -1.778,2.52871 -1.26436,1.02729 -3.47698,1.58045 -2.21262,0.59266 -5.61057,0.59266 z m -2.92382,-10.94457 v 2.33115 q 0,0.63218 0.47413,1.0668 0.47413,0.39511 2.17311,0.39511 1.778,0 2.25213,-0.39511 0.47413,-0.43462 0.47413,-1.0668 v -2.33115 q 0,-0.59267 -0.47413,-0.98778 -0.47413,-0.43462 -2.25213,-0.43462 -1.69898,0 -2.17311,0.43462 -0.47413,0.39511 -0.47413,0.98778 z" />
      <path
         id="path1706"
         style="font-style:normal;font-variant:normal;font-weight:normal;font-stretch:normal;font-size:39.51110077px;font-family:bungee;-inkscape-font-specification:bungee;stroke:#ffffff;stroke-width:1;stroke-miterlimit:4;stroke-dasharray:none"
         d="m 152.15206,151.25842 q -3.63502,0 -5.96618,-0.59266 -2.29164,-0.55316 -3.59551,-1.58045 -1.30386,-1.0668 -1.81751,-2.52871 -0.47413,-1.46191 -0.47413,-3.27942 v -12.95964 q 0,-3.59551 2.05457,-5.84764 2.09409,-2.25214 7.66516,-2.25214 h 9.08755 q 0.75071,0 1.0668,0.3556 0.3556,0.31609 0.3556,1.0668 v 4.66231 q 0,0.75071 -0.3556,1.10631 -0.31609,0.31609 -1.0668,0.31609 h -7.38857 q -1.46191,0 -1.97556,0.47414 -0.51364,0.43462 -0.51364,1.89653 v 0.86924 q 0.94826,-0.27657 2.17311,-0.43462 1.26435,-0.15804 2.8448,-0.15804 5.33399,0 7.30955,1.81751 1.97555,1.778 1.97555,5.29448 v 3.79307 q 0,1.81751 -0.51364,3.27942 -0.47413,1.46191 -1.778,2.52871 -1.26435,1.02729 -3.47698,1.58045 -2.21262,0.59266 -5.61057,0.59266 z m -2.92382,-10.94457 v 2.33115 q 0,0.63218 0.47413,1.0668 0.47413,0.39511 2.17311,0.39511 1.778,0 2.25213,-0.39511 0.47414,-0.43462 0.47414,-1.0668 v -2.33115 q 0,-0.59267 -0.47414,-0.98778 -0.47413,-0.43462 -2.25213,-0.43462 -1.69898,0 -2.17311,0.43462 -0.47413,0.39511 -0.47413,0.98778 z" />
    </g>
    <path
       id="circle1064"
       d="m 123.97619,70.189195 c -36.688665,0 -66.548905,29.860245 -66.548905,66.548905 0,36.68866 29.86024,66.5489 66.548905,66.5489 36.68866,0 66.54891,-29.86024 66.54891,-66.5489 0,-36.68866 -29.86025,-66.548905 -66.54891,-66.548905 z m 0,10.992088 c 2.44856,0 4.85859,0.158935 7.2223,0.464053 V 88.5798 l 1.91048,0.363273 c 5.08542,0.966179 9.95,2.727219 14.49575,5.248275 v -0.0026 c 4.83918,2.68404 9.16414,6.149842 12.85555,10.298592 3.90123,4.38481 6.9459,9.35842 9.05473,14.79703 v 0.003 h 0.003 c 2.18728,5.63467 3.29491,11.57264 3.29491,17.67798 0,5.59517 -0.93308,11.05347 -2.76728,16.25587 l -0.64648,1.83554 5.77072,3.35122 c -1.89585,4.48836 -4.36586,8.67142 -7.31533,12.46177 l -5.73712,-3.32849 -1.27537,1.4609 c -4.15132,4.76486 -9.28479,8.77808 -14.87454,11.6055 l -0.003,0.003 c -3.34703,1.69637 -6.89134,3.00151 -10.5296,3.87522 -3.74782,0.90103 -7.62224,1.36477 -11.5135,1.36477 -3.88673,0 -7.76044,-0.45892 -11.49802,-1.35909 h -0.003 c -3.63763,-0.87357 -7.17537,-2.17768 -10.52545,-3.86902 -5.584398,-2.82155 -10.718452,-6.82218 -14.861113,-11.5781 l -1.273836,-1.46296 -5.663221,3.2887 c -2.949672,-3.79056 -5.418949,-7.97347 -7.314715,-12.46162 l 5.692669,-3.3042 -0.652674,-1.83761 c -1.84703,-5.21475 -2.784819,-10.69321 -2.784819,-16.30082 0,-6.11251 1.107017,-12.05711 3.300571,-17.69761 h 0.0026 v -0.003 c 2.115397,-5.45176 5.165011,-10.42598 9.08005,-14.8182 3.704246,-4.15499 8.03537,-7.611691 12.888618,-10.296524 4.5516,-2.514177 9.42978,-4.266724 14.52936,-5.226553 l 1.9141,-0.361738 v -6.916943 c 2.36373,-0.305117 4.7743,-0.464052 7.22286,-0.464052 z m -11.92176,1.279499 v 2.365242 c -4.88503,1.108922 -9.6126,2.778919 -14.015694,5.211048 l -0.0026,0.0026 c -5.313469,2.93923 -10.068798,6.733249 -14.123168,11.280958 -4.281725,4.80357 -7.63516,10.27152 -9.953387,16.24605 -2.403924,6.18207 -3.623045,12.71728 -3.623045,19.3988 0,5.46135 0.945753,10.79683 2.554896,15.9453 l -1.768898,1.0268 c -1.75305,-5.413 -2.703698,-11.19182 -2.703698,-17.19895 0,-26.65362 18.642753,-48.839966 43.635054,-54.277312 z m 23.84351,0 c 24.99218,5.437425 43.63456,27.623798 43.63456,54.277318 0,6.00749 -0.95046,11.78668 -2.70373,17.19998 l -1.85467,-1.07694 c 1.59697,-5.13302 2.5368,-10.44924 2.5368,-15.89619 0,-6.67496 -1.21674,-13.20287 -3.61321,-19.37711 v -0.003 c -2.31111,-5.95968 -5.65766,-11.42595 -9.9255,-16.22279 -4.04016,-4.5407 -8.78721,-8.342895 -14.08803,-11.283025 -4.39656,-2.43832 -9.11238,-4.11472 -13.98622,-5.230177 z m 27.04487,90.992378 1.81797,1.05524 c -10.1382,10.94574 -24.64144,17.78651 -40.78459,17.78651 -16.14342,0 -30.646905,-6.84096 -40.785103,-17.78701 l 1.657773,-0.96327 c 4.29305,4.57777 9.364107,8.45854 14.927766,11.26961 v 0.003 c 3.669404,1.85256 7.547534,3.28406 11.545044,4.24418 4.10342,0.98827 8.34443,1.48828 12.59975,1.48828 4.26447,0 8.50423,-0.50866 12.6111,-1.49603 3.99692,-0.95983 7.88233,-2.39075 11.55485,-4.25194 5.56435,-2.81456 10.56196,-6.77151 14.85544,-11.34763 z"
       style="color:#000000;font-style:normal;font-variant:normal;font-weight:normal;font-stretch:normal;font-size:medium;line-height:normal;font-family:sans-serif;font-variant-ligatures:normal;font-variant-position:normal;font-variant-caps:normal;font-variant-numeric:normal;font-variant-alternates:normal;font-feature-settings:normal;text-indent:0;text-align:start;text-decoration:none;text-decoration-line:none;text-decoration-style:solid;text-decoration-color:#000000;letter-spacing:normal;word-spacing:normal;text-transform:none;writing-mode:lr-tb;direction:ltr;text-orientation:mixed;dominant-baseline:auto;baseline-shift:baseline;text-anchor:start;white-space:normal;shape-padding:0;clip-rule:nonzero;display:inline;overflow:visible;visibility:visible;opacity:1;isolation:auto;mix-blend-mode:normal;color-interpolation:sRGB;color-interpolation-filters:linearRGB;solid-color:#000000;solid-opacity:1;vector-effect:none;fill:#000000;fill-opacity:1;fill-rule:nonzero;stroke:none;stroke-width:10.99190521;stroke-linecap:round;stroke-linejoin:bevel;stroke-miterlimit:4;stroke-dasharray:none;stroke-dashoffset:341.41040039;stroke-opacity:1;paint-order:markers stroke fill;color-rendering:auto;image-rendering:auto;shape-rendering:auto;text-rendering:auto;enable-background:accumulate" />
    <path
       id="path1016-7-4"
       d="m 117.12758,187.90861 c -11.79995,-1.58409 -22.399421,-6.82128 -30.860557,-15.24815 -1.75587,-1.74874 -3.290834,-3.17956 -3.411034,-3.17956 -0.120198,0 -1.486344,0.70671 -3.03588,1.57043 -1.549533,0.86373 -2.87386,1.57041 -2.94295,1.57041 -0.493077,0 -7.518532,-11.50372 -7.518532,-12.31111 0,-0.0895 1.32483,-0.91587 2.944068,-1.83636 1.619239,-0.92048 2.970661,-1.69148 3.003163,-1.71332 0.0325,-0.0219 -0.452995,-1.55238 -1.078882,-3.40121 -1.91907,-5.66881 -2.566714,-10.56921 -2.324421,-17.58772 0.165651,-4.79845 0.433109,-6.95567 1.223731,-9.87024 3.291828,-12.13512 9.813836,-21.57184 20.01244,-28.956075 5.513109,-3.991735 14.015844,-7.617752 20.583974,-8.778093 l 2.74103,-0.484237 V 84.07742 80.471466 l 2.49604,-0.252232 c 3.15569,-0.318891 7.64031,-0.317954 10.39695,0.0021 l 2.13192,0.247577 v 3.675059 c 0,3.342383 0.0695,3.675058 0.76771,3.675058 1.61703,0 8.68223,2.014376 12.1827,3.47344 13.96967,5.822827 24.53855,17.026962 29.26124,31.020062 3.26804,9.68305 3.28022,21.00787 0.0331,30.77016 -0.65932,1.98221 -1.16029,3.62993 -1.11327,3.66159 0.047,0.0316 1.41033,0.79807 3.02957,1.70312 1.61924,0.90506 2.94407,1.7305 2.94407,1.83434 0,0.5827 -3.24528,6.32191 -5.14784,9.10382 l -2.21711,3.24189 -3.1475,-1.64918 -3.1475,-1.64914 -2.99636,3.04973 c -7.13386,7.26092 -16.39898,12.4013 -26.349,14.6187 -4.9152,1.09539 -13.81556,1.53458 -18.46087,0.91096 z"
       style="fill:none;fill-opacity:1;fill-rule:evenodd;stroke:none;stroke-width:0.754554;stroke-linecap:round;paint-order:stroke fill markers" />
  </g>
</svg>
