<?xml version="1.0" encoding="UTF-8"?>
<!-- Created with Inkscape (http://www.inkscape.org/) -->
<svg width="133.1mm" height="133.1mm" version="1.1" viewBox="0 0 133.1 133.1" xmlns="http://www.w3.org/2000/svg" xmlns:cc="http://creativecommons.org/ns#" xmlns:dc="http://purl.org/dc/elements/1.1/" xmlns:rdf="http://www.w3.org/1999/02/22-rdf-syntax-ns#">
 <metadata>
  <rdf:RDF>
   <cc:Work rdf:about="">
    <dc:format>image/svg+xml</dc:format>
    <dc:type rdf:resource="http://purl.org/dc/dcmitype/StillImage"/>
   </cc:Work>
  </rdf:RDF>
 </metadata>
 <g transform="translate(-57.427 -70.189)">
  <g>
   <path d="m77.454 154.35c-3.0934-8.7626-3.8482-17.76-2.2399-26.703 0.55579-3.0904 1.5174-6.5812 2.5444-9.2361l0.75552-1.9532 90.978-0.099 0.78485 2.0523c2.271 5.9383 3.2989 11.669 3.2989 18.393 0 6.1378-1.0077 12.181-2.8882 17.319l-0.40071 1.095-28.296 0.13082c-15.563 0.072-36.36 0.13083-46.217 0.13083h-17.921z" fill="#d00" fill-rule="evenodd" stroke-width="1.0288"/>
   <path d="m120.37 188.27c-9.3074-0.98638-16.637-3.7004-23.859-8.8346-3.7137-2.6401-7.4187-6.1221-10.355-9.7319l-1.043-1.2822-2.8012 1.7426c-1.5407 0.95844-2.8605 1.7442-2.933 1.7461-0.17758 4e-3 -2.1816-2.9874-3.45-5.1509-1.1181-1.9072-3.8561-7.5456-3.8561-7.9408 0-0.13468 1.2159-1.0009 2.702-1.925l2.702-1.6801h93.366l2.7279 1.6792c1.5003 0.92355 2.751 1.6981 2.7792 1.7213 0.0282 0.0231-0.64766 1.5336-1.5019 3.3565-1.4226 3.0356-4.9392 9.0656-5.6585 9.7027-0.25516 0.226-0.73323-5.8e-4 -3.1471-1.4914l-2.8463-1.7579-2.8911 3.1945c-4.6502 5.1383-8.9002 8.4955-14.337 11.325-5.8144 3.0264-11.133 4.6158-17.58 5.2535-1.9795 0.19579-6.4722 0.23664-8.0174 0.0729z" fill="#ffce00" fill-rule="evenodd" stroke-width="1.056"/>
   <path d="m123.98 70.189c-36.689 0-66.549 29.86-66.549 66.549s29.86 66.549 66.549 66.549c36.689 0 66.549-29.86 66.549-66.549s-29.86-66.549-66.549-66.549zm0 10.992c2.4486 0 4.8586 0.15894 7.2223 0.46405v6.9345l1.9105 0.36327c5.0854 0.96618 9.95 2.7272 14.496 5.2483v-0.0026c4.8392 2.684 9.1641 6.1498 12.856 10.299 3.9012 4.3848 6.9459 9.3584 9.0547 14.797v3e-3h3e-3c2.1873 5.6347 3.2949 11.573 3.2949 17.678 0 5.5952-0.93308 11.053-2.7673 16.256l-0.64648 1.8355 5.7707 3.3512c-1.8958 4.4884-4.3659 8.6714-7.3153 12.462l-5.7371-3.3285-1.2754 1.4609c-4.1513 4.7649-9.2848 8.7781-14.875 11.606l-3e-3 3e-3c-3.347 1.6964-6.8913 3.0015-10.53 3.8752-3.7478 0.90103-7.6222 1.3648-11.514 1.3648-3.8867 0-7.7604-0.45892-11.498-1.3591h-3e-3c-3.6376-0.87357-7.1754-2.1777-10.525-3.869-5.5844-2.8216-10.718-6.8222-14.861-11.578l-1.2738-1.463-5.6632 3.2887c-2.9497-3.7906-5.4189-7.9735-7.3147-12.462l5.6927-3.3042-0.65267-1.8376c-1.847-5.2148-2.7848-10.693-2.7848-16.301 0-6.1125 1.107-12.057 3.3006-17.698h0.0026v-3e-3c2.1154-5.4518 5.165-10.426 9.08-14.818 3.7042-4.155 8.0354-7.6117 12.889-10.297 4.5516-2.5142 9.4298-4.2667 14.529-5.2266l1.9141-0.36174v-6.9169c2.3637-0.30512 4.7743-0.46405 7.2229-0.46405zm-11.922 1.2795v2.3652c-4.885 1.1089-9.6126 2.7789-14.016 5.211l-0.0026 0.0026c-5.3135 2.9392-10.069 6.7332-14.123 11.281-4.2817 4.8036-7.6352 10.272-9.9534 16.246-2.4039 6.1821-3.623 12.717-3.623 19.399 0 5.4614 0.94575 10.797 2.5549 15.945l-1.7689 1.0268c-1.753-5.413-2.7037-11.192-2.7037-17.199 0-26.654 18.643-48.84 43.635-54.277zm23.844 0c24.992 5.4374 43.635 27.624 43.635 54.277 0 6.0075-0.95046 11.787-2.7037 17.2l-1.8547-1.0769c1.597-5.133 2.5368-10.449 2.5368-15.896 0-6.675-1.2167-13.203-3.6132-19.377v-3e-3c-2.3111-5.9597-5.6577-11.426-9.9255-16.223-4.0402-4.5407-8.7872-8.3429-14.088-11.283-4.3966-2.4383-9.1124-4.1147-13.986-5.2302zm27.045 90.992 1.818 1.0552c-10.138 10.946-24.641 17.787-40.785 17.787-16.143 0-30.647-6.841-40.785-17.787l1.6578-0.96327c4.293 4.5778 9.3641 8.4585 14.928 11.27v3e-3c3.6694 1.8526 7.5475 3.2841 11.545 4.2442 4.1034 0.98827 8.3444 1.4883 12.6 1.4883 4.2645 0 8.5042-0.50866 12.611-1.496 3.9969-0.95983 7.8823-2.3908 11.555-4.2519 5.5644-2.8146 10.562-6.7715 14.855-11.348z" color="#000000" color-rendering="auto" dominant-baseline="auto" image-rendering="auto" shape-rendering="auto" solid-color="#000000" style="font-feature-settings:normal;font-variant-alternates:normal;font-variant-caps:normal;font-variant-ligatures:normal;font-variant-numeric:normal;font-variant-position:normal;isolation:auto;mix-blend-mode:normal;paint-order:markers stroke fill;shape-padding:0;text-decoration-color:#000000;text-decoration-line:none;text-decoration-style:solid;text-indent:0;text-orientation:mixed;text-transform:none;white-space:normal"/>
  </g>
  <g fill="#fff" fill-opacity=".99216" fill-rule="evenodd">
   <g stroke-width="1.4286">
    <path d="m117.15 191.7c-11.606-1.6109-22.313-6.6241-30.743-14.394-2.4184-2.2292-2.851-2.7918-2.3586-3.0674 0.45991-0.25738 1.2616 0.25897 3.3774 2.1752 8.1546 7.3856 17.59 11.966 28.018 13.601 5.0636 0.79397 15.009 0.59801 19.471-0.38365 9.6368-2.1201 18.171-6.5493 25.004-12.977 2.3697-2.229 3.1014-2.7193 3.7505-2.5133 0.76678 0.24336 0.73475 0.33061-0.65049 1.7719-2.4905 2.5913-7.331 6.3304-10.895 8.4158-5.7423 3.3603-11.507 5.5437-17.993 6.8151-3.723 0.72975-13.439 1.0481-16.981 0.55648z"/>
    <path d="m175.76 153c-0.34056-0.41034-0.26974-1.2085 0.31021-3.4963 1.7445-6.8816 2.0003-16.387 0.61898-22.997-4.2391-20.286-18.67-35.78-38.444-41.278-1.8804-0.5228-2.2015-0.74085-2.2015-1.495 0-1.1559 0.34087-1.1286 5.0125 0.40177 13.936 4.5652 25.886 14.85 32.471 27.946 2.0366 4.0507 4.2763 10.958 5.0455 15.56 1.1888 7.1129 0.69263 16.897-1.2029 23.718-0.63114 2.2712-0.87774 2.5228-1.609 1.6416z"/>
    <path d="m70.352 150.41c-1.3605-5.4753-1.6937-9.0176-1.4782-15.714 0.1568-4.8725 0.41775-7.2131 1.1499-10.314 4.4915-19.021 18.388-34.213 36.819-40.251 4.6763-1.5318 5.0125-1.5584 5.0125-0.3959 0 0.77838-0.31707 0.9731-2.5513 1.5669-16.544 4.3968-30.523 17.526-36.168 33.97-3.2657 9.5131-3.7709 21.05-1.336 30.516 0.51403 1.9984 0.5978 2.8953 0.30354 3.2499-0.732 0.88201-0.96723 0.52906-1.7518-2.6286z"/>
   </g>
  </g>
  <path d="m78.551 116.04c1.8476-4.1752 5.5195-9.412 9.3962-13.401 6.9733-7.1745 16.353-12.307 25.928-14.189 1.1788-0.23162 2.2948-0.46446 2.4799-0.51741 0.30048-0.08593 0.34234-0.47526 0.3897-3.6252l0.0531-3.5289 1.0716-0.15273c1.5268-0.21759 9.2905-0.26579 11.544-0.07167l1.8997 0.16361v3.5579c0 3.2221 0.0322 3.5671 0.34098 3.6552 0.18754 0.05351 1.0863 0.24414 1.9972 0.4236 9.8108 1.9329 18.844 6.7584 25.917 13.845 3.7511 3.758 6.6488 7.6918 9.0748 12.32l1.2801 2.4419h-91.781z" fill-rule="evenodd" stroke-width="1.0288"/>
  <ellipse cx="130.94" cy="134.62" rx=".18899" ry=".66146" stroke-width=".26458"/>
  <g transform="matrix(.78857 0 0 .78857 105.4 81.365)">
   <path d="m-10.69 38.061v39.377c0 51.149 68.496 51.149 68.496 0v-39.377z" fill="#ffd600" stroke-width=".26458"/>
  </g>
  <path d="m134.61 170.58c-1.7209 0.76692-3.5125 1.342-5.3394 1.725v-60.757h5.3394z" fill="#005ea8" stroke-width=".20874"/>
  <path d="m145.18 161.9c-1.5447 2.181-3.352 4.0371-5.3428 5.5682v-55.92h5.368z" fill="#005ea8" stroke-width=".20874"/>
  <circle cx="72.546" cy="134.07" r=".2664" fill="#ffce00" stroke="#000" stroke-width=".26458"/>
  <circle cx="72.546" cy="134.07" r=".2664" fill="#ffce00" stroke="#000" stroke-width=".26458"/>
  <path d="m96.964 126.95v-15.4h26.783v30.799h-26.783z" fill="#166c23" fill-rule="evenodd" stroke-width="2.0735"/>
  <path d="m121.23 172.38c-0.15949-0.0309-0.94239-0.16009-1.7398-0.28712-5.7305-0.91295-11.847-4.4634-15.578-9.043-4.1011-5.0333-6.6524-12.352-6.6524-19.083v-1.4859h26.483v29.999l-1.1115-0.0222c-0.61134-0.0122-1.242-0.0474-1.4015-0.0783z" fill="#fff" fill-opacity=".99216" fill-rule="evenodd" stroke-width="1.017"/>
  <path d="m96.97 111.38v31.051c0 40.334 54.013 40.334 54.013 0v-31.051z" fill="none" stroke="#000" stroke-miterlimit="2.613"/>
  <g stroke="#fff" aria-label="54">
   <path d="m113.62 150.96c4.7413 0 7.7047-2.5287 7.7047-6.5588v-5.492c0-4.1882-2.6472-6.2823-6.9144-6.2823h-5.413v-2.5682h9.4827c0.98778 0 1.4224-0.43462 1.4224-1.4224v-4.7018c0-0.98777-0.43462-1.4224-1.4224-1.4224h-17.029c-0.98777 0-1.4224 0.43463-1.4224 1.4224v14.777c0 0.98777 0.43463 1.4224 1.4224 1.4224h9.7988c0.63217 0 1.0668 0.27657 1.0668 0.90875v1.5409c0 0.63218-0.43463 0.90876-1.0668 0.90876h-10.194c-0.98777 0-1.4224 0.43462-1.4224 1.4224v4.6228c0 0.98778 0.43463 1.4224 1.4224 1.4224z"/>
   <path d="m139.39 144.36v5.176c0 0.98778 0.43462 1.4224 1.4224 1.4224h6.0847c0.98778 0 1.4224-0.43462 1.4224-1.4224v-25.603c0-0.98777-0.43462-1.4224-1.4224-1.4224h-6.0847c-0.98778 0-1.4224 0.43463-1.4224 1.4224v12.169h-3.6745c-0.75071 0-1.2248-0.51364-1.2248-1.3434v-10.826c0-0.98777-0.43462-1.4224-1.4224-1.4224h-6.1242c-0.98778 0-1.4224 0.43463-1.4224 1.4224v13.868c0 4.5043 2.0546 6.5588 7.191 6.5588z"/>
  </g>
  <line x1="123.98" x2="123.98" y1="111.02" y2="173.04" fill="none" stroke="#000" stroke-miterlimit="2.613"/>
 </g>
</svg>
