<?xml version="1.0" encoding="UTF-8"?>
<!-- Created with Inkscape (http://www.inkscape.org/) -->
<svg width="133.1mm" height="133.1mm" version="1.1" viewBox="0 0 133.1 133.1" xmlns="http://www.w3.org/2000/svg" xmlns:cc="http://creativecommons.org/ns#" xmlns:dc="http://purl.org/dc/elements/1.1/" xmlns:rdf="http://www.w3.org/1999/02/22-rdf-syntax-ns#">
 <defs>
  <clipPath id="clipPath1519">
   <path d="m-116.82 82.614 4.7826 32.678 3.6954-31.602 33.924-1.0704 9.5514-11.692 10.375-17.456 3.8795-26.565-17.054-28.109-19.103-8.5634-16.23-1.4887-5.502-4.6494-12.759 4.6256-17.548 13.37-12.845 8.8927-0.65872 68.507 13.504 10.54z" fill="none" stroke="#000" stroke-width=".32605px"/>
  </clipPath>
 </defs>
 <metadata>
  <rdf:RDF>
   <cc:Work rdf:about="">
    <dc:format>image/svg+xml</dc:format>
    <dc:type rdf:resource="http://purl.org/dc/dcmitype/StillImage"/>
   </cc:Work>
  </rdf:RDF>
 </metadata>
 <g transform="translate(-57.427 -70.189)">
  <g fill-rule="evenodd">
   <path d="m119.02 187.88c-7.7325-0.74582-15.929-3.5757-22.236-7.6772-2.6308-1.7109-6.6043-4.7329-7.4188-5.6424-0.47694-0.53255-0.5005-2.3605-0.48339-37.511l0.01799-36.951 0.90278-0.8365c1.505-1.3945 5.8152-4.5789 7.8927-5.8312 4.7133-2.8411 10.441-5.0818 15.867-6.2071l3.0057-0.62335v-7.1484l1.0485-0.21822c1.362-0.28348 11.36-0.28348 12.722 0l1.0485 0.21822v7.1677l2.4465 0.48134c8.079 1.5895 16.779 5.8064 23.067 11.18l2.1669 1.852v73.954l-2.0271 1.696c-11.06 9.2534-24.187 13.43-38.02 12.096zm12.647-52.114c0-0.71386-0.38162-0.93292-0.70727-0.40601-0.23259 0.37634 0.0436 1.105 0.4189 1.105 0.15861 0 0.28837-0.31455 0.28837-0.699z" fill="#fff" stroke-linecap="round" stroke-width=".28004" style="paint-order:stroke fill markers"/>
   <path d="m157.71 136.05 0.0176-36.456 2.3005 2.4661c5.9227 6.3488 10.612 16.001 12.382 25.485 0.64779 3.4715 0.64055 12.982-0.0127 16.652-0.2911 1.6354-1.0525 4.741-1.6921 6.9012-0.92977 3.1405-1.059 3.997-0.64508 4.2735 0.28477 0.19023 1.6286 0.97814 2.9862 1.7509l2.4684 1.405-1.4305 2.8456c-1.5592 3.1016-5.033 8.6806-5.8012 9.3169-0.3386 0.28045-1.2418-0.0559-3.0576-1.1384-1.4174-0.845-2.7858-1.5431-3.041-1.5514-0.25514-8e-3 -1.3702 1.0019-2.478 2.2448l-2.014 2.2598z" fill="#f60"/>
   <path d="m87.916 170.37-2.0808-2.3592-1.1632 0.64034c-0.63975 0.35218-2.03 1.1484-3.0894 1.7694l-1.9262 1.1291-1.4427-1.9746c-2.0504-2.8064-5.7256-9.5278-5.7566-10.528-0.01903-0.6137 0.6783-1.2553 2.5616-2.357 1.4233-0.83257 2.683-1.609 2.7995-1.7254s-0.25309-1.683-0.82116-3.4813c-1.9632-6.2146-2.4918-9.7152-2.4918-16.501 0-6.821 0.57853-10.636 2.4888-16.412 2.2671-6.8547 7.1273-15.053 11.423-19.269l1.8612-1.8266v37.627c0 20.695-0.06341 37.627-0.1409 37.627-0.0775 0-1.0773-1.0616-2.2217-2.3592z" fill="#003884"/>
  </g>
  <g transform="matrix(.81148 0 0 .81148 214.97 93.108)" clip-path="url(#clipPath1519)" fill="#043b86" fill-rule="evenodd" stroke-linecap="round">
   <g stroke-width=".37857">
    <path d="m-113.33 96.971c-0.58168-7.6918-1.1347-14.356-1.2289-14.809-0.1382-0.66444-0.59155-0.90542-2.3442-1.246-3.2757-0.63662-9.7338-2.9082-13.134-4.6199-6.1363-3.0889-11.907-7.9145-15.521-12.978-1.8421-2.5815-4.7972-8.5049-5.6113-11.248l-0.53771-1.8117 1.9404-2.9011c5.798-8.6688 16.136-15.563 26.402-17.606 3.5057-0.6979 9.0162-1.1552 9.0015-0.74708-6e-3 0.1702-0.53234 0.88281-1.1694 1.5836-1.0347 1.1381-1.4514 1.307-3.9032 1.5819-10.664 1.1959-19.922 6.5126-27.223 15.633-2.1984 2.7463-2.1692 3.2333 0.52057 8.6861 4.1501 8.4133 10.6 14.329 20.079 18.415 3.3499 1.4442 10.537 3.52 10.906 3.1503 0.17112-0.17112-0.49917-8.3388-0.9601-11.699l-0.20739-1.5119 7.9949 0.23721-0.18482 1.5823c-0.75379 6.453-1.2506 12.158-1.0742 12.334 0.11576 0.11539 2.8749 0.20372 6.1314 0.19629 8.4297-0.01924 14.844-1.4442 22.174-4.9259 9.5092-4.5169 18.171-13.593 21.346-22.367 5.0439-13.939 1.707-28.973-9.4669-42.652-5.4125-6.6257-15.161-13.537-22.889-16.229l-1.9385-0.67511-0.88438-5.2335-0.88437-5.2335h-32.641l-0.40924 2.3624c-0.22508 1.2993-0.61031 3.6619-0.85608 5.2502-0.44336 2.8654-0.45749 2.8911-1.8201 3.2993-2.5186 0.75458-9.1392 4.2013-12.63 6.5753-4.6914 3.1904-11.121 9.6901-14.312 14.469-4.7975 7.1839-7.9138 15.19-9.2113 23.664-0.63947 4.1765-0.53966 14.612 0.16651 17.407l0.3537 1.3999-3.925 3.2575c-2.1588 1.7916-3.925 3.4372-3.925 3.6568 0 0.21964 1.6337 3.2265 3.6304 6.6819 1.9967 3.4554 5.526 9.5771 7.843 13.604 2.317 4.0267 4.4187 7.4017 4.6706 7.4999 0.25186 0.09823 2.5361-0.5928 5.0762-1.5356l4.6182-1.7142 2.2944 1.8134c7.4044 5.8521 17.722 10.269 26.588 11.383 6.2524 0.78548 5.7554 0.59305 5.7554 2.2281v1.4483l-1.7954-0.16235c-11.293-1.0212-22.265-5.0832-30.839-11.417-1.1589-0.85612-2.3401-1.5566-2.6248-1.5566s-2.6306 0.77699-5.2128 1.7267l-4.6951 1.7267-0.56743-0.83802c-0.63108-0.93202-5.4075-9.1394-13.282-22.822-4.91-8.532-5.176-9.0967-4.589-9.7452 0.34269-0.37866 2.219-2.0011 4.1696-3.6054 3.1237-2.5692 3.5199-3.0296 3.3237-3.8619-0.12254-0.51972-0.32614-3.4963-0.45246-6.6146-0.25247-6.2321 0.2666-10.811 1.9675-17.355 4.3258-16.644 16.768-31.266 32.675-38.398 1.5592-0.69909 2.9835-1.3971 3.1652-1.5512 0.23317-0.19774 1.9792-9.1194 2.1188-10.826 4e-3 -0.05197 8.5699-0.09449 19.035-0.09449h19.027l0.87637 5.0082c0.482 2.7545 1.006 5.2633 1.1646 5.5752 0.1585 0.31183 1.6199 1.1522 3.2476 1.8675 11.808 5.1891 22.071 14.954 28.228 26.859 3.9826 7.7008 5.364 13.644 5.0522 21.734-0.31244 8.1061-2.1752 13.915-6.589 20.549-4.304 6.4685-10.961 12.241-18.266 15.84-8.1106 3.9958-14.584 5.4866-24.029 5.5338l-6.4688 0.03228-0.42818 5.1099c-0.23549 2.8104-0.68735 8.8486-1.0041 13.418-0.31677 4.5695-0.6149 8.7335-0.66251 9.2532-0.0476 0.51972-0.56248-5.3484-1.1442-13.04z" style="paint-order:stroke fill markers"/>
    <path d="m-115.24 54.673c-1.8049-0.66872-3.1265-1.8776-4.0752-3.7277-0.90807-1.7708-1.4703-4.6499-1.19-6.0934l0.21202-1.0917 3.4422 0.20906c2.2376 0.1359 4.302 0.52404 5.8991 1.1091 2.9265 1.0721 6.8036 3.4767 6.8036 4.2197 0 1.0748-2.4828 4.1658-3.9489 4.9161-1.8659 0.95491-5.2221 1.1705-7.1428 0.45893z" style="paint-order:stroke fill markers"/>
    <path d="m-114.84 61.735c-1.0279-0.15469-1.0516-0.21052-0.81868-1.9277 0.41216-3.0385 0.25325-2.9024 3.3878-2.9024 3.1627 0 2.9962-0.15221 3.4112 3.1183l0.2518 1.9844-2.5868-0.05663c-1.4228-0.03115-3.0632-0.12832-3.6454-0.21594z" style="paint-order:stroke fill markers"/>
    <path d="m-120.4 63.288c-5.5686-1.6421-10.003-4.6432-13.519-9.148-2.1887-2.8048-2.3451-3.6074-0.98586-5.0593 2.5892-2.7658 7.6048-5.2058 12.191-5.9307 2.8264-0.4468 2.3708 0.16938-0.52998 0.71671-4.5123 0.85142-11.519 5.0106-11.519 6.8377 0 0.46702 1.2372 2.0048 3.1183 3.876 3.5294 3.5108 6.7964 5.347 11.983 6.7353 2.8976 0.77554 3.0412 0.86463 3.0412 1.887 0 0.59016-0.12757 1.064-0.28348 1.0529-0.15592-0.01106-1.7292-0.44646-3.4963-0.96756z" style="paint-order:stroke fill markers"/>
    <path d="m-107.99 63.606-0.16004-1.0905 3.165-0.45762c8.9768-1.2979 17.884-6.0873 21.782-11.712l1.0612-1.5313-2.3655-2.8948c-4.9357-6.0403-12.121-10.594-20.297-12.862l-2.3624-0.65552v-1.4499c0-0.79746 0.15107-1.4499 0.3357-1.4499 0.96944 0 7.3193 2.0857 9.7035 3.1873 6.7952 3.1396 13.133 8.4719 17.418 14.655l0.97738 1.4104-1.0315 1.7601c-2.3028 3.9294-6.242 7.247-11.642 9.8051-3.5481 1.6808-10.407 3.6588-14.297 4.123-2.127 0.25384-2.1273 0.25371-2.2874-0.83661z" style="paint-order:stroke fill markers"/>
    <path d="m-92.428 26.659c0-0.1084 0.413-0.83128 0.91779-1.6064 1.9686-3.0229 2.6333-7.6284 1.5085-10.452-0.24264-0.60904-0.17163-0.68006 0.43742-0.43742 2.8407 1.1317 7.4305 0.45959 10.495-1.5368 0.79865-0.52036 1.5338-0.86438 1.6337-0.76451 0.09987 0.09988-0.22812 0.8355-0.72889 1.6347-1.6718 2.6682-2.2734 4.8063-2.0794 7.3898 0.09825 1.3083 0.31815 2.706 0.48868 3.1059 0.26273 0.61613 0.19909 0.67977-0.41704 0.41704-0.39989-0.17052-1.7975-0.39043-3.1059-0.48868-2.5711-0.19308-4.7211 0.40749-7.3466 2.0521-1.4336 0.89806-1.8029 1.0386-1.8029 0.6861z" style="paint-order:stroke fill markers"/>
    <path d="m-112.92 14.778c-1.1637-5.9341-3.2178-9.3061-6.9528-11.414l-2.0376-1.1499 1.8898-0.94174c2.0869-1.0399 4.1322-3.2009 5.2866-5.5857 0.83158-1.7178 2.2554-6.9507 2.3086-8.4844 0.0187-0.53844 0.26906 0.32018 0.55645 1.908 1.0455 5.7766 2.9639 9.2831 6.3114 11.536 0.97567 0.65668 1.9906 1.2945 2.2553 1.4174 0.3898 0.18095 0.3898 0.26594 0 0.44688-0.26473 0.12289-1.2796 0.76073-2.2553 1.4174-3.3383 2.2469-5.3165 5.8521-6.2528 11.396l-0.46395 2.7468z" style="paint-order:stroke fill markers"/>
    <path d="m-135.14 25.404c-2.1998-1.2193-2.7535-1.3629-5.2917-1.3724-1.5592-0.0058-3.2242 0.1305-3.7 0.303-0.80691 0.29251-0.84512 0.24156-0.56697-0.75595 0.64736-2.3216 0.31251-5.8844-0.77452-8.2409-0.57277-1.2417-1.3159-2.5609-1.6514-2.9316-1.0232-1.1307-0.35897-1.0794 1.4178 0.10942 2.3654 1.5827 5.3188 2.3824 7.8938 2.1374 1.1583-0.11018 2.4008-0.31824 2.7611-0.46234 0.5856-0.23424 0.61122-0.1363 0.24162 0.92391-0.22737 0.65226-0.34722 2.3574-0.26631 3.7891 0.11816 2.0912 0.42184 3.1292 1.5441 5.2777 0.76836 1.4709 1.2738 2.6542 1.1232 2.6294-0.1506-0.02476-1.3794-0.65781-2.7307-1.4068z" style="paint-order:stroke fill markers"/>
    <path d="m-109.82 103.23c0-1.6981-0.51598-1.4937 5.7651-2.2831 5.3779-0.67583 11.77-2.709 17.348-5.5185 3.2808-1.6522 4.9198-2.6926 8.6388-5.484l2.8371-2.1295 4.5334 1.6414c2.4934 0.90279 4.7291 1.6443 4.9682 1.6477 0.23914 0.0034 1.5887-1.9923 2.9989-4.4349 1.4103-2.4427 4.9991-8.6392 7.9752-13.77 2.9761-5.1309 5.411-9.4765 5.411-9.657 0-0.18049-1.1906-1.3199-2.6458-2.5321-1.4552-1.2122-2.6458-2.3603-2.6458-2.5515 0-0.19114 0.26573-0.86138 0.5905-1.4894 0.51448-0.9949 0.67201-1.0776 1.2237-0.64269 3.2056 2.5275 7.2354 6.0907 7.1182 6.294-14.669 25.449-18.499 32.056-18.726 32.294-0.15224 0.16027-2.5535-0.5303-5.3361-1.5346l-5.0593-1.826-3.6073 2.5447c-7.9363 5.5986-18.147 9.4792-27.231 10.35-1.3513 0.12947-2.8396 0.31375-3.3073 0.40952-0.76848 0.15735-0.85045 0.0294-0.85045-1.3278z" style="paint-order:stroke fill markers"/>
   </g>
   <g stroke-width=".066923">
    <path d="m-120.23 42.293c0-0.11075 0.0274-0.25357 0.0609-0.31738 0.0335-0.06381 0.13995-0.38663 0.2366-0.71738 0.0967-0.33075 0.20457-0.65357 0.23981-0.71738 0.0352-0.06381 0.0641-0.17657 0.0641-0.25056 0-0.074 0.0301-0.13454 0.0668-0.13454s0.0668-0.07517 0.0668-0.16704c0-0.09187 0.023-0.16704 0.0511-0.16704 0.062 0 0.28303-0.49597 0.28303-0.63522 0-0.05487 0.0301-0.09977 0.0668-0.09977s0.0668-0.0451 0.0668-0.10023c0-0.05512 0.0226-0.10061 0.0501-0.10108 0.0276-4.76e-4 0.14031-0.19514 0.25056-0.43261s0.223-0.43253 0.25057-0.43346c0.0276-9.26e-4 0.0501-0.0508 0.0501-0.1108 0-0.06 0.0551-0.15772 0.1225-0.21716 0.0674-0.05943 0.17841-0.23585 0.24672-0.39204 0.0683-0.15618 0.1485-0.28397 0.17818-0.28397 0.0297 0 0.054-0.03132 0.054-0.06961s0.0601-0.13416 0.13363-0.21305c0.0735-0.07889 0.13363-0.18287 0.13363-0.23107 0-0.04819 0.0236-0.08763 0.0524-0.08763s0.10925-0.09772 0.17871-0.21716c0.0695-0.11944 0.14626-0.23219 0.17065-0.25057 0.0244-0.01838 0.15369-0.19878 0.28733-0.4009s0.30387-0.43407 0.37829-0.51545c0.0744-0.08137 0.13532-0.16537 0.13532-0.18666 0-0.02129 0.0752-0.11978 0.16704-0.21886 0.0919-0.09908 0.16705-0.207 0.16705-0.23981 0-0.03281 0.0529-0.10829 0.11766-0.16773 0.0647-0.05944 0.20645-0.22834 0.31497-0.37533 0.1085-0.147 0.22845-0.3015 0.26653-0.34333 0.0381-0.04183 0.18951-0.2351 0.3365-0.42948 0.147-0.19438 0.33287-0.42256 0.41305-0.50706 0.0802-0.0845 0.23051-0.26667 0.33408-0.40482 0.10358-0.13815 0.27852-0.3488 0.38877-0.46811 0.41376-0.44779 0.50113-0.54946 0.50113-0.58316 0-0.01904 0.13531-0.17584 0.30068-0.34843s0.30068-0.33877 0.30068-0.36928 0.0848-0.14427 0.18857-0.2528c0.10371-0.10853 0.24654-0.31121 0.31738-0.45041 0.0708-0.1392 0.15136-0.26311 0.17893-0.27536 0.0276-0.01225 0.0501-0.06487 0.0501-0.11693s0.0301-0.09466 0.0668-0.09466 0.0668-0.06014 0.0668-0.13364c0-0.0735 0.0301-0.13364 0.0668-0.13364s0.0668-0.04166 0.0668-0.09259c0-0.05092 0.0449-0.17871 0.0998-0.28397s0.1-0.28911 0.10023-0.40854 0.0305-0.21716 0.0672-0.21716c0.0823 0 0.0925-1.9165 0.0103-1.9488-0.0636-0.02506-0.16275-0.65704-0.10311-0.65704 0.0665 0 1.0282 1.0161 1.0282 1.0865 0 0.03694 0.0535 0.11579 0.1189 0.17523 0.0654 0.05943 0.1752 0.23585 0.24401 0.39204 0.0688 0.15619 0.15061 0.28397 0.18178 0.28397 0.0312 0 0.0567 0.0451 0.0567 0.10023 0 0.05512 0.0301 0.10023 0.0668 0.10023s0.0668 0.05552 0.0668 0.12337c0 0.11245 0.11107 0.39639 0.27157 0.69424 0.0344 0.06381 0.0625 0.18983 0.0625 0.28003 0 0.0902 0.0301 0.18259 0.0668 0.2053 0.0367 0.02271 0.0668 0.11292 0.0668 0.20045 0 0.08754 0.0301 0.17774 0.0668 0.20045 0.0367 0.02271 0.0668 0.15378 0.0668 0.29126 0 0.13748 0.0373 0.28727 0.0829 0.33287 0.11892 0.11892 0.11892 3.4437 0 3.5626-0.0456 0.0456-0.0829 0.2122-0.0829 0.37022s-0.0301 0.28731-0.0668 0.28731-0.0668 0.08843-0.0668 0.19651c0 0.10808-0.0301 0.21509-0.0668 0.2378-0.0367 0.02271-0.0668 0.10868-0.0668 0.19103 0 0.08235-0.0271 0.1783-0.0603 0.21321-0.0332 0.03491-0.0718 0.12361-0.0858 0.19711-0.014 0.0735-0.0143-0.75337-5.3e-4 -1.8375 0.0228-1.7997-3e-3 -2.3443-0.16586-3.4916-0.0196-0.13804-0.0625-0.2676-0.0954-0.28792-0.0329-0.02032-0.0598-0.12359-0.0598-0.2295s-0.0301-0.21115-0.0668-0.23386c-0.0367-0.02271-0.0668-0.14476-0.0668-0.27121s-0.0262-0.22992-0.0583-0.22992-0.0763-0.11288-0.0984-0.25085c-0.0408-0.25544-0.26556-0.52015-0.38099-0.44881-0.035 0.02165-0.0637 0.12602-0.0637 0.23193s-0.0266 0.209-0.0591 0.2291c-0.0325 0.02009-0.0793 0.1715-0.10408 0.33647-0.0247 0.16497-0.0733 0.31745-0.10794 0.33885-0.0346 0.0214-0.063 0.09727-0.063 0.1686s-0.0301 0.12969-0.0668 0.12969-0.0668 0.06014-0.0668 0.13364c0 0.0735-0.023 0.13363-0.0511 0.13363s-0.11076 0.12472-0.18375 0.27716c-0.21144 0.44164-0.26137 0.52465-0.31558 0.52465-0.028 0-0.051 0.0535-0.051 0.11888 0 0.06539-0.0601 0.16223-0.13363 0.2152-0.0735 0.05297-0.13486 0.12727-0.13635 0.16509-2e-3 0.03782-0.13655 0.23414-0.30014 0.43627-0.1636 0.20212-0.34821 0.46491-0.41025 0.58398-0.062 0.11906-0.16102 0.23178-0.21994 0.25048-0.0589 0.0187-0.16417 0.13057-0.23389 0.24861-0.0697 0.11803-0.20402 0.29145-0.29843 0.38537-0.0944 0.09392-0.25129 0.27551-0.3486 0.40354-0.0973 0.12803-0.23307 0.29291-0.30168 0.36641-0.0686 0.0735-0.24456 0.28397-0.39101 0.46772s-0.28882 0.34411-0.31638 0.35636c-0.0276 0.01225-0.0501 0.0799-0.0501 0.15034s-0.0288 0.12807-0.0641 0.12807c-0.0826 0-0.40361 0.34507-0.40361 0.43385 0 0.03724-0.0902 0.15286-0.20045 0.25691-0.11025 0.10406-0.20045 0.21803-0.20045 0.25326 0 0.03524-0.0752 0.14514-0.16705 0.24422-0.0919 0.09908-0.16704 0.2114-0.16704 0.2496s-0.0601 0.1128-0.13363 0.16577c-0.0735 0.05297-0.13364 0.12175-0.13364 0.15284 0 0.03109-0.0752 0.15508-0.16704 0.27553-0.0919 0.12045-0.16705 0.25375-0.16705 0.29622 0 0.04247-0.0301 0.07722-0.0668 0.07722s-0.0668 0.0451-0.0668 0.10023c0 0.05512-0.025 0.10023-0.0555 0.10023s-0.0982 0.08269-0.15034 0.18375c-0.0521 0.10106-0.13239 0.22348-0.17833 0.27204-0.0459 0.04856-0.0835 0.13125-0.0835 0.18375s-0.0301 0.09545-0.0668 0.09545-0.0668 0.06014-0.0668 0.13364c0 0.0735-0.0301 0.13364-0.0668 0.13364s-0.0668 0.03294-0.0668 0.07321c0 0.04026-0.0581 0.15485-0.12919 0.25464-0.0711 0.09979-0.14949 0.26229-0.17429 0.36111-0.0248 0.09882-0.0646 0.17967-0.0884 0.17967s-0.0826 0.09772-0.13077 0.21716c-0.0481 0.11944-0.12029 0.27729-0.16037 0.35079-0.12641 0.23181-0.17146 0.32694-0.28478 0.60136-0.0607 0.147-0.14242 0.34244-0.1816 0.43431-0.0717 0.16813-0.14928 0.35974-0.27054 0.66817-0.0361 0.09187-0.0884 0.21313-0.1162 0.26946s-0.0719 0.20667-0.0981 0.33409c-0.0261 0.12742-0.0824 0.31436-0.12504 0.41542-0.0728 0.17261-0.10284 0.18375-0.4955 0.18375h-0.41801z" style="paint-order:stroke fill markers"/>
    <path d="m-103.97 48.352c-0.0431-0.04286-0.15587-0.14874-0.25057-0.23529-0.17076-0.15605-0.17218-0.16584-0.17218-1.186 0-0.56576-0.0256-1.0287-0.0569-1.0287s-0.0757-0.24408-0.0987-0.54239c-0.0396-0.51309-0.12142-0.88249-0.25346-1.1438-0.0322-0.06381-0.0586-0.17657-0.0586-0.25056 0-0.074-0.0301-0.13454-0.0668-0.13454s-0.0668-0.07517-0.0668-0.16704c0-0.09187-0.0301-0.16704-0.0668-0.16704s-0.067-0.06765-0.0672-0.15034c-2.3e-4 -0.08269-0.0453-0.23646-0.10023-0.34172-0.0549-0.10526-0.0998-0.23305-0.0998-0.28397 0-0.05092-0.0301-0.09259-0.0668-0.09259s-0.0668-0.06014-0.0668-0.13364c0-0.0735-0.0301-0.13364-0.0668-0.13364s-0.0668-0.0451-0.0668-0.10023c0-0.05512-0.0301-0.10023-0.0668-0.10023s-0.0668-0.04408-0.0668-0.09796c0-0.12081-0.21531-0.59538-0.28397-0.6259-0.0276-0.01225-0.0501-0.0799-0.0501-0.15034 0-0.07044-0.0301-0.12807-0.0668-0.12807s-0.0668-0.0451-0.0668-0.10023c0-0.05512-0.0225-0.10062-0.0501-0.10111-0.0276-4.76e-4 -0.14032-0.19591-0.25057-0.43427s-0.223-0.43341-0.25056-0.43343c-0.0276-2.2e-5 -0.0501-0.06018-0.0501-0.13368 0-0.0735-0.0301-0.13363-0.0668-0.13363s-0.0668-0.0451-0.0668-0.10023c0-0.05512-0.0263-0.10023-0.0585-0.10023s-0.0765-0.09003-0.0985-0.20006c-0.022-0.11003-0.10094-0.32616-0.1754-0.48027-0.0745-0.15412-0.13538-0.31967-0.13538-0.36789 0-0.04822-0.0301-0.08768-0.0668-0.08768s-0.0668-0.06916-0.0668-0.15368-0.0376-0.19125-0.0835-0.23718c-0.11857-0.11854-0.11857-1.9583 0-1.9978 0.0459-0.01533 0.0835-0.0855 0.0835-0.15594s0.0301-0.12807 0.0668-0.12807c0.0368 0 0.0668-0.03138 0.0668-0.06973s0.0768-0.15111 0.17075-0.25056l0.17075-0.18083-0.0474 0.20045c-0.0261 0.11025-0.0729 0.21048-0.10394 0.22272-0.0311 0.01225-0.0565 0.09316-0.0565 0.1798 0 0.08664-0.0301 0.17611-0.0668 0.19883-0.0875 0.0541-0.0875 1.3491 0 1.4032 0.0368 0.02271 0.0668 0.14476 0.0668 0.27121 0 0.12645 0.0301 0.22992 0.0668 0.22992s0.0668 0.05931 0.0668 0.13181c0 0.12176 0.31372 0.86116 0.39767 0.93727 0.0203 0.01838 0.0819 0.12361 0.13687 0.23386 0.055 0.11025 0.11816 0.21549 0.14035 0.23386 0.0222 0.01838 0.0933 0.14616 0.15806 0.28397 0.0648 0.13781 0.14436 0.25056 0.17692 0.25056 0.0326 0 0.0592 0.03406 0.0592 0.07568 0 0.04163 0.0553 0.12431 0.12296 0.18375 0.0676 0.05943 0.14162 0.18383 0.16445 0.27644 0.0228 0.09261 0.10281 0.23417 0.17773 0.31459 0.0749 0.08042 0.13622 0.19258 0.13622 0.24924 0 0.05666 0.0301 0.10302 0.0668 0.10302s0.0668 0.0451 0.0668 0.10023c0 0.05512 0.0236 0.10023 0.0524 0.10023s0.14157 0.1954 0.25056 0.43422 0.22072 0.43426 0.24828 0.43431c0.0276 4.9e-5 0.0501 0.0456 0.0501 0.10122 0 0.05562 0.0277 0.15334 0.0615 0.21716 0.0338 0.06381 0.14206 0.3265 0.24053 0.58375 0.0985 0.25725 0.20609 0.51993 0.23917 0.58374 0.0331 0.06381 0.0602 0.16153 0.0602 0.21716 0 0.05562 0.0301 0.10113 0.0668 0.10113s0.0668 0.12929 0.0668 0.28732 0.0272 0.31588 0.0604 0.35079c0.17387 0.18267 0.29182 2.358 0.17372 3.2039-0.053 0.3798-0.10026 0.4566-0.21229 0.3452z" style="paint-order:stroke fill markers"/>
    <path d="m-107.6 34.944c0.12954-0.08372 0.20045-0.08372 0.20045 0 0 0.03675-0.0677 0.06636-0.15034 0.06579-0.12157-8.2e-4 -0.13116-0.01342-0.0501-0.06579z" style="paint-order:stroke fill markers"/>
   </g>
   <g stroke-width=".0059152">
    <path d="m-107.09 35.454c5e-3 -0.01908 0.015-0.06274 0.0233-0.09704 0.0133-0.05479 0.0262-0.13183 0.0267-0.15967 1e-4 -0.0052 0.01-0.01446 0.0211-0.02065 0.0282-0.01516 0.0525-0.05072 0.0477-0.06972-5e-3 -0.02048-0.0298-0.04799-0.0508-0.05668-0.0126-0.0052-0.0178-0.01142-0.0178-0.02102 0-0.02059-0.0138-0.03033-0.0491-0.03475-0.0246-0.0031-0.0358-8e-3 -0.0487-0.02139-9e-3 -0.0096-0.0194-0.01739-0.0226-0.01739-3e-3 0-0.0146 0.0083-0.025 0.01848l-0.0191 0.01848-0.12295 0.0025c-0.0969 2e-3 -0.12045 1e-3 -0.11115-0.0045 0.0295-0.01757 0.0384-0.03074 0.0384-0.05692 0-0.03614-0.0188-0.05445-0.0573-0.0558-0.0618-0.0022 0.10374-0.0094 0.23153-0.01015 0.18025-1e-3 0.34122-0.0099 0.44517-0.02443 0.0467-0.0065 0.0868-0.01306 0.0891-0.01449 2e-3 -0.0014 0.0252-0.0069 0.0509-0.01224 0.0257-0.0053 0.0552-0.01319 0.0656-0.01752 0.0158-0.0066 0.0199-0.0066 0.0255 2.08e-4 5e-3 0.0059 0.0228 0.06054 0.0235 0.07187 5e-5 6.09e-4 -0.0125 0.0028-0.028 0.0048-0.07 0.0093-0.089 0.01514-0.0992 0.03076-6e-3 0.0085-0.0114 0.03204-0.013 0.0524l-3e-3 0.03701-0.0438 0.0041c-0.0267 0.0025-0.0485 0.0079-0.0559 0.01393-0.0124 0.01005-0.0221 0.0459-0.0226 0.0834l-2.6e-4 0.02084-0.0427 0.0067c-0.0523 0.0082-0.0659 0.02109-0.0718 0.06758-9e-3 0.06918-9e-3 0.06916-0.0376 0.08193-0.0297 0.01316-0.0385 0.02199-0.0541 0.05476-6e-3 0.01229-0.0155 0.02592-0.0215 0.0303-9e-3 0.0063-0.0115 0.01877-0.0142 0.06133-2e-3 0.02936-5e-3 0.05523-7e-3 0.05751-2e-3 0.0023-0.0161 0.0055-0.0306 0.0071l-0.0265 3e-3z" style="paint-order:stroke fill markers"/>
    <path d="m-109.35 35.845c-6e-3 -0.01443 0.0189-0.02708 0.0523-0.02708 0.0443 0 0.052-0.0082 0.0549-0.05827l2e-3 -0.04184 0.0215-0.0035c0.0762-0.01244 0.0841-0.01524 0.0952-0.03346 6e-3 -0.0099 0.0127-0.03326 0.0149-0.05194l4e-3 -0.03397 0.0495-0.0026c0.0557-0.0029 0.0735-0.01275 0.0735-0.04069 0-0.01112 4e-3 -0.01759 0.0116-0.02009 6e-3 -2e-3 0.0217-0.01509 0.034-0.02902 0.0208-0.0236 0.025-0.02562 0.0607-0.02938 0.10378-0.01091 0.12037-0.02094 0.13058-0.07893l6e-3 -0.03583 0.0482-0.0039c0.0265-0.0021 0.0712-0.0079 0.0993-0.01289 0.0618-0.01089 0.0749-0.0219 0.0848-0.07152l7e-3 -0.03391 0.071-0.0042c0.13421-8e-3 0.15553-0.01829 0.16728-0.08097 3e-3 -0.01762 7e-3 -0.03272 8e-3 -0.03357 7.9e-4 -8.46e-4 0.0469-4e-3 0.10242-0.0071 0.0715-0.0039 0.10587-0.0082 0.11801-0.01479 9e-3 -0.0051 0.0284-0.01502 0.0423-0.02209 0.028-0.01429 0.0532-0.04126 0.0619-0.06606l6e-3 -0.01632h0.0694c0.0382 0 0.0977-0.0017 0.13231-0.0038 0.0561-0.0034 0.0629-0.0028 0.0629 0.0059 0 0.0077-6e-3 0.0098-0.0281 0.0098-0.0318 1.1e-5 -0.0663 0.01491-0.0752 0.03247-3e-3 0.0065-0.021 0.02667-0.0394 0.04482l-0.0334 0.03301-0.11905 4e-3c-0.0789 0.0026-0.12556 0.0067-0.13834 0.01204-0.0216 9e-3 -0.0303 0.02642-0.0356 0.07106-2e-3 0.01598-5e-3 0.03041-6e-3 0.03206-2e-3 0.0016-0.0475 4e-3 -0.10185 0.0052-0.0757 0.0017-0.10645 0.0048-0.13134 0.01314-0.0179 6e-3 -0.0417 0.01322-0.053 0.01608-0.0245 0.0062-0.0441 0.03225-0.0494 0.06564l-4e-3 0.02308-0.0593 0.0033c-0.0371 2e-3 -0.0643 0.0065-0.0725 0.0119-7e-3 0.0047-0.0224 0.01062-0.0338 0.01304-0.0113 0.0024-0.0278 0.0086-0.0366 0.01376-0.016 0.0093-0.0341 0.04428-0.0341 0.06592 0 0.01255-0.0101 0.0152-0.0761 0.02004-0.0526 0.0039-0.0618 0.01395-0.0647 0.0717l-2e-3 0.04424h-0.0432c-0.0532 0-0.12912 0.01017-0.15427 0.02068-0.0234 0.0098-0.0316 0.02473-0.0358 0.06556-4e-3 0.03635-2e-3 0.03537-0.0687 0.03976-0.0539 0.0036-0.0593 0.0095-0.0619 0.06852l-2e-3 0.04652-0.054 0.0024c-0.0297 0.0013-0.0583 0.0044-0.0636 0.0068-6e-3 0.0028-0.0108 0.0012-0.013-0.0047z" style="paint-order:stroke fill markers"/>
    <path d="m-109.48 35.986c-4e-3 -0.0049-5e-3 -0.0089-1e-3 -0.0089 3e-3 0 9e-3 4e-3 0.0132 0.0089 4e-3 0.0049 5e-3 0.0089 1e-3 0.0089-3e-3 0-9e-3 -4e-3 -0.0132-0.0089z" style="paint-order:stroke fill markers"/>
   </g>
  </g>
  <ellipse cx="130.94" cy="135.67" rx=".18899" ry=".66146" stroke-width=".26458"/>
  <g stroke="#fff" aria-label="28">
   <path d="m120.31 150.96c0.98778 0 1.4224-0.43462 1.4224-1.4224v-4.6228c0-0.98778-0.43462-1.4224-1.4224-1.4224h-11.261v-0.82973c0-0.86925 0.23706-0.94827 1.0273-1.1853l5.3735-1.699c3.8326-1.1853 6.1637-3.0028 6.1637-6.9935v-3.714c0-4.2672-2.4497-6.5588-6.954-6.5588h-11.656c-0.98778 0-1.4224 0.43463-1.4224 1.4224v4.6228c0 0.98778 0.43462 1.4224 1.4224 1.4224h8.5739c0.79022 0 1.0668 0.23707 1.0668 1.0273 0 0.86925-0.23707 1.1853-1.0668 1.4224l-5.2945 1.6595c-3.635 1.1063-6.2032 2.5287-6.2032 8.6529v6.7959c0 0.98778 0.43462 1.4224 1.4224 1.4224z"/>
   <path d="m149.99 140.85c0-3.714-1.8175-5.6501-4.1882-6.1242 1.7385-0.75071 2.3312-2.2521 2.3312-4.2672v-2.2916c0-3.8721-2.3312-6.2428-10.273-6.2428s-10.391 2.3707-10.391 6.2428v2.2916c0 2.0151 0.59266 3.5165 2.3312 4.2672-2.3707 0.47414-4.1882 2.4102-4.1882 6.1242v3.8326c0 4.1092 2.6868 6.8749 12.209 6.8749 9.5222 0 12.169-2.7658 12.169-6.8749zm-14.659-8.8505v-1.7385c0-0.79022 0.27657-1.4224 2.4892-1.4224 2.2521 0 2.4497 0.63218 2.4497 1.4224v1.7385c0 0.82973-0.19755 1.4619-2.4497 1.4619-2.2126 0-2.4892-0.63218-2.4892-1.4619zm-0.98778 11.182v-2.0941c0-0.79022 0.63218-1.4224 3.477-1.4224 2.8843 0 3.4375 0.63218 3.4375 1.4224v2.0941c0 0.82973-0.55315 1.4619-3.4375 1.4619-2.8448 0-3.477-0.63218-3.477-1.4619z"/>
  </g>
  <g fill="#fff" fill-opacity=".99216" fill-rule="evenodd" stroke-width="5.3993">
   <path transform="matrix(.26458 0 0 .26458 57.427 70.189)" d="m225.71 459.26c-43.865-6.0884-84.333-25.036-116.19-54.403-9.1404-8.4252-10.776-10.552-8.9144-11.593 1.7382-0.97277 4.7683 0.97876 12.765 8.2212 30.82 27.914 66.482 45.225 105.89 51.405 19.138 3.0008 56.728 2.2602 73.592-1.45 36.423-8.013 68.678-24.753 94.504-49.047 8.9563-8.4247 11.722-10.278 14.175-9.4991 2.8981 0.91981 2.777 1.2496-2.4586 6.6969-9.413 9.7937-27.708 23.926-41.177 31.808-21.703 12.7-43.491 20.953-68.007 25.758-14.071 2.7581-50.792 3.9614-64.18 2.1032z"/>
   <path transform="matrix(.26458 0 0 .26458 57.427 70.189)" d="m447.25 312.99c-1.2871-1.5509-1.0195-4.5676 1.1724-13.214 6.5933-26.009 7.5603-61.935 2.3395-86.919-16.022-76.671-70.564-135.23-145.3-156.01-7.107-1.9759-8.3206-2.8001-8.3206-5.6506 0-4.3687 1.2883-4.2654 18.945 1.5185 52.673 17.254 97.837 56.125 122.72 105.62 7.6975 15.31 16.162 41.414 19.07 58.808 4.4933 26.884 2.6178 63.862-4.5465 89.643-2.3854 8.584-3.3174 9.5349-6.0814 6.2046z"/>
   <path transform="matrix(.26458 0 0 .26458 57.427 70.189)" d="m48.851 303.21c-5.142-20.694-6.4015-34.082-5.587-59.392 0.59261-18.416 1.5789-27.262 4.346-38.981 16.976-71.892 69.498-129.31 139.16-152.13 17.674-5.7896 18.945-5.89 18.945-1.4963 0 2.9419-1.1984 3.6779-9.6429 5.9221-62.528 16.618-115.36 66.241-136.7 128.39-12.343 35.955-14.252 79.561-5.0496 115.34 1.9428 7.5529 2.2594 10.943 1.1472 12.283-2.7666 3.3336-3.6557 1.9996-6.6211-9.9348z"/>
  </g>
  <text transform="matrix(.26458 0 0 .26458 57.427 70.189)" font-family="'MS UI Gothic'" font-size="26.667px" letter-spacing="0px" style="line-height:1.25;shape-inside:url(#rect2776);white-space:pre" xml:space="preserve"/>
  <g fill="#043b86" fill-rule="evenodd" stroke-linecap="round">
   <g stroke-width="1.4308"></g>
   <g stroke-width=".25294"></g>
  </g>
  <path d="m123.98 70.189c-36.689 0-66.549 29.86-66.549 66.549s29.86 66.549 66.549 66.549c36.689 0 66.549-29.86 66.549-66.549s-29.86-66.549-66.549-66.549zm0 10.992c2.4486 0 4.8586 0.15894 7.2223 0.46405v6.9345l1.9105 0.36327c5.0854 0.96618 9.95 2.7272 14.496 5.2483v-0.0026c4.8392 2.684 9.1641 6.1498 12.856 10.299 3.9012 4.3848 6.9459 9.3584 9.0547 14.797v3e-3h3e-3c2.1873 5.6347 3.2949 11.573 3.2949 17.678 0 5.5952-0.93308 11.053-2.7673 16.256l-0.64648 1.8355 5.7707 3.3512c-1.8958 4.4884-4.3659 8.6714-7.3153 12.462l-5.7371-3.3285-1.2754 1.4609c-4.1513 4.7649-9.2848 8.7781-14.875 11.606l-3e-3 3e-3c-3.347 1.6964-6.8913 3.0015-10.53 3.8752-3.7478 0.90103-7.6222 1.3648-11.514 1.3648-3.8867 0-7.7604-0.45892-11.498-1.3591h-3e-3c-3.6376-0.87357-7.1754-2.1777-10.525-3.869-5.5844-2.8216-10.718-6.8222-14.861-11.578l-1.2738-1.463-5.6632 3.2887c-2.9497-3.7906-5.4189-7.9735-7.3147-12.462l5.6927-3.3042-0.65267-1.8376c-1.847-5.2148-2.7848-10.693-2.7848-16.301 0-6.1125 1.107-12.057 3.3006-17.698h0.0026v-3e-3c2.1154-5.4518 5.165-10.426 9.08-14.818 3.7042-4.155 8.0354-7.6117 12.889-10.297 4.5516-2.5142 9.4298-4.2667 14.529-5.2266l1.9141-0.36174v-6.9169c2.3637-0.30512 4.7743-0.46405 7.2229-0.46405zm-11.922 1.2795v2.3652c-4.885 1.1089-9.6126 2.7789-14.016 5.211l-0.0026 0.0026c-5.3135 2.9392-10.069 6.7332-14.123 11.281-4.2817 4.8036-7.6352 10.272-9.9534 16.246-2.4039 6.1821-3.623 12.717-3.623 19.399 0 5.4614 0.94575 10.797 2.5549 15.945l-1.7689 1.0268c-1.753-5.413-2.7037-11.192-2.7037-17.199 0-26.654 18.643-48.84 43.635-54.277zm23.844 0c24.992 5.4374 43.635 27.624 43.635 54.277 0 6.0075-0.95046 11.787-2.7037 17.2l-1.8547-1.0769c1.597-5.133 2.5368-10.449 2.5368-15.896 0-6.675-1.2167-13.203-3.6132-19.377v-3e-3c-2.3111-5.9597-5.6577-11.426-9.9255-16.223-4.0402-4.5407-8.7872-8.3429-14.088-11.283-4.3966-2.4383-9.1124-4.1147-13.986-5.2302zm27.045 90.992 1.818 1.0552c-10.138 10.946-24.641 17.787-40.785 17.787-16.143 0-30.647-6.841-40.785-17.787l1.6578-0.96327c4.293 4.5778 9.3641 8.4585 14.928 11.27v3e-3c3.6694 1.8526 7.5475 3.2841 11.545 4.2442 4.1034 0.98827 8.3444 1.4883 12.6 1.4883 4.2645 0 8.5042-0.50866 12.611-1.496 3.9969-0.95983 7.8823-2.3908 11.555-4.2519 5.5644-2.8146 10.562-6.7715 14.855-11.348z" color="#000000" color-rendering="auto" dominant-baseline="auto" image-rendering="auto" shape-rendering="auto" solid-color="#000000" style="font-feature-settings:normal;font-variant-alternates:normal;font-variant-caps:normal;font-variant-ligatures:normal;font-variant-numeric:normal;font-variant-position:normal;isolation:auto;mix-blend-mode:normal;paint-order:markers stroke fill;shape-padding:0;text-decoration-color:#000000;text-decoration-line:none;text-decoration-style:solid;text-indent:0;text-orientation:mixed;text-transform:none;white-space:normal"/>
 </g>
</svg>
