<?xml version="1.0" encoding="UTF-8"?>
<!-- Created with Inkscape (http://www.inkscape.org/) -->
<svg width="133.1mm" height="133.1mm" version="1.1" viewBox="0 0 133.1 133.1" xmlns="http://www.w3.org/2000/svg" xmlns:cc="http://creativecommons.org/ns#" xmlns:dc="http://purl.org/dc/elements/1.1/" xmlns:rdf="http://www.w3.org/1999/02/22-rdf-syntax-ns#">
 <metadata>
  <rdf:RDF>
   <cc:Work rdf:about="">
    <dc:format>image/svg+xml</dc:format>
    <dc:type rdf:resource="http://purl.org/dc/dcmitype/StillImage"/>
   </cc:Work>
  </rdf:RDF>
 </metadata>
 <g transform="translate(-57.427 -70.189)">
  <g fill="#fff" fill-opacity=".99216" fill-rule="evenodd" stroke-width="5.3993">
   <path transform="matrix(.26458 0 0 .26458 57.427 70.189)" d="m225.71 459.26c-43.865-6.0884-84.333-25.036-116.19-54.403-9.1404-8.4252-10.776-10.552-8.9144-11.593 1.7382-0.97277 4.7683 0.97876 12.765 8.2212 30.82 27.914 66.482 45.225 105.89 51.405 19.138 3.0008 56.728 2.2602 73.592-1.45 36.423-8.013 68.678-24.753 94.504-49.047 8.9563-8.4247 11.722-10.278 14.175-9.4991 2.8981 0.91981 2.777 1.2496-2.4586 6.6969-9.413 9.7937-27.708 23.926-41.177 31.808-21.703 12.7-43.491 20.953-68.007 25.758-14.071 2.7581-50.792 3.9614-64.18 2.1032z"/>
   <path transform="matrix(.26458 0 0 .26458 57.427 70.189)" d="m447.25 312.99c-1.2871-1.5509-1.0195-4.5676 1.1724-13.214 6.5933-26.009 7.5603-61.935 2.3395-86.919-16.022-76.671-70.564-135.23-145.3-156.01-7.107-1.9759-8.3206-2.8001-8.3206-5.6506 0-4.3687 1.2883-4.2654 18.945 1.5185 52.673 17.254 97.837 56.125 122.72 105.62 7.6975 15.31 16.162 41.414 19.07 58.808 4.4933 26.884 2.6178 63.862-4.5465 89.643-2.3854 8.584-3.3174 9.5349-6.0814 6.2046z"/>
   <path transform="matrix(.26458 0 0 .26458 57.427 70.189)" d="m48.851 303.21c-5.142-20.694-6.4015-34.082-5.587-59.392 0.59261-18.416 1.5789-27.262 4.346-38.981 16.976-71.892 69.498-129.31 139.16-152.13 17.674-5.7896 18.945-5.89 18.945-1.4963 0 2.9419-1.1984 3.6779-9.6429 5.9221-62.528 16.618-115.36 66.241-136.7 128.39-12.343 35.955-14.252 79.561-5.0496 115.34 1.9428 7.5529 2.2594 10.943 1.1472 12.283-2.7666 3.3336-3.6557 1.9996-6.6211-9.9348z"/>
  </g>
  <path d="m117.1 189.11c-11.8-1.6384-22.399-7.0554-30.861-15.771-1.7559-1.8088-3.2908-3.2887-3.411-3.2887s-1.4863 0.73095-3.0359 1.6243c-1.5495 0.89337-2.8739 1.6243-2.943 1.6243-0.49308 0-7.5185-11.899-7.5185-12.734 0-0.0926 1.3248-0.94731 2.9441-1.8994s2.9707-1.7495 3.0032-1.7721-0.453-1.6057-1.0789-3.5179c-1.9191-5.8634-2.5667-10.932-2.3244-18.191 0.16565-4.9631 0.43311-7.1944 1.2237-10.209 3.2918-12.552 9.8138-22.312 20.012-29.95 5.5131-4.1287 14.016-7.8792 20.584-9.0793l2.741-0.50086v-7.4594l2.496-0.26089c3.1557-0.32984 7.6403-0.32887 10.397 0.0022l2.1319 0.25607v3.8012c0 3.4571 0.0695 3.8012 0.7677 3.8012 1.617 0 8.6822 2.0835 12.183 3.5926 13.97 6.0227 24.539 17.611 29.261 32.085 3.268 10.015 3.2802 21.729 0.0331 31.826-0.65932 2.0502-1.1603 3.7545-1.1133 3.7873 0.047 0.0327 1.4103 0.82545 3.0296 1.7616s2.9441 1.7899 2.9441 1.8973c0 0.6027-3.2453 6.5389-5.1478 9.4163l-2.2171 3.3531-6.295-3.4115-2.9964 3.1544c-7.1339 7.5101-16.399 12.827-26.349 15.12-4.9152 1.133-13.816 1.5872-18.461 0.94222z" fill="#0037a1" fill-rule="evenodd" style="paint-order:stroke fill markers"/>
  <g fill="#fff">
   <g fill-rule="evenodd">
    <path transform="matrix(.26458 0 0 .26458 57.427 70.189)" d="m50.054 307.59c-5.3927-18.159-7.1057-31.761-7.0728-56.164 0.03617-26.881 2.0183-40.256 9.4132-63.52 10.294-32.383 26.231-58.143 51.799-83.724 25.935-25.948 50.557-41.143 84.038-51.863 16.763-5.3669 18.197-5.46 18.197-1.1799 0 2.9353-1.4818 3.7017-13.912 7.1955-28.433 7.9917-57.39 24.621-80.1 45.998-53.428 50.295-75.885 125.41-58.321 195.08 3.0888 12.252 3.1242 12.963 0.70945 14.255-2.1923 1.1733-2.845 0.33773-4.7518-6.0829z" style="paint-order:stroke fill markers"/>
    <path transform="matrix(.26458 0 0 .26458 57.427 70.189)" d="m447.66 313.49c-2.0593-1.1525-1.9604-2.5959 1.0243-14.942 21.983-90.932-21.986-185.35-105.96-227.53-11.27-5.661-27.293-11.687-38.799-14.591-5.1478-1.2994-6.0714-2.0848-6.0714-5.1624 0-3.3505 0.35739-3.552 4.6429-2.6178 36.573 7.9722 79.524 34.289 106.28 65.122 44.961 51.807 61.742 120.07 46.044 187.29-1.6037 6.8681-3.3595 12.762-3.9017 13.097-0.54223 0.33511-2.0116 0.0353-3.2654-0.66642z" style="paint-order:stroke fill markers"/>
   </g>
   <g transform="matrix(1.0164 0 0 1.0164 -2.9829 -1.7346)">
    <path d="m123.75 102.09-0.95894-0.54405-0.064-0.96009-0.064-0.96011-2.385-0.07384 2.2486-4.4101c1.2367-2.4255 2.2486-4.4683 2.2486-4.5395h0.25603c0 0.07121 1.0119 2.114 2.2486 4.5395l2.2486 4.4101-2.385 0.07384-0.064 0.96011-0.064 0.96009-0.95893 0.54405c-0.52742 0.29923-1.0464 0.54406-1.1533 0.54406-0.10689 0-0.62587-0.24483-1.1533-0.54406z"/>
    <path d="m126.72 103.53c-0.51754-0.20415-0.96697-0.39716-0.99872-0.42892-0.0442-0.0442 1.286-0.8621 1.7643-1.0848 0.0443-0.0206 0.11855 0.23858 0.16487 0.57606 0.0463 0.33748 0.11542 0.77202 0.15355 0.96564 0.0382 0.19362 0.0216 0.35005-0.0368 0.34763-0.0584-3e-3 -0.52962-0.17144-1.0472-0.37559z"/>
    <path d="m126.5 107.51c-1.2206-0.47503-3.1756-1.5158-3.991-2.1246-0.50577-0.37766-0.65493-0.56314-0.61318-0.76254 0.0304-0.14492 0.12326-0.79634 0.20648-1.4476 0.0832-0.65126 0.1813-1.1841 0.21794-1.1841 0.0366 0 0.33129 0.16985 0.65478 0.37743 0.8206 0.52657 2.8349 1.4632 3.9787 1.8502 0.73508 0.24865 0.95587 0.37819 0.94208 0.55273-0.0617 0.78036-0.34853 2.8131-0.41473 2.9388-0.0569 0.10802-0.33428 0.0514-0.9811-0.20033z"/>
    <path d="m126.1 111.29c-2.2195-0.91787-4.3469-2.3007-4.219-2.7423 0.0346-0.11942 0.13295-0.77201 0.21861-1.4502l0.15575-1.2331 0.93986 0.57061c1.0016 0.60808 2.7281 1.3924 3.8843 1.7645 0.38723 0.12464 0.74116 0.26275 0.7865 0.30689 0.0454 0.0442-0.0123 0.77082-0.12801 1.6148-0.15763 1.1494-0.25863 1.5428-0.40246 1.5675-0.10561 0.0182-0.66161-0.16126-1.2356-0.39862z"/>
    <path d="m126.5 115.45c-1.2206-0.47503-3.1756-1.5158-3.991-2.1246-0.50577-0.37766-0.65493-0.56315-0.61318-0.76254 0.0304-0.14491 0.12326-0.79634 0.20648-1.4476 0.0832-0.65126 0.1813-1.1841 0.21794-1.1841 0.0366 0 0.33129 0.16984 0.65478 0.37742 0.8206 0.52658 2.8349 1.4633 3.9787 1.8502 0.73508 0.24865 0.95587 0.37819 0.94208 0.55273-0.0617 0.78035-0.34853 2.8131-0.41473 2.9388-0.0569 0.10803-0.33428 0.0514-0.9811-0.20033z"/>
    <path d="m122.16 114.91c-0.0495-0.50185-0.12281-0.99817-0.16301-1.1029s0.32391 0.0733 0.80912 0.39568c1.5548 1.033 1.4783 0.89969 0.68466 1.1937-1.3485 0.4996-1.2293 0.54316-1.3308-0.48645z"/>
    <path d="m122.73 136.72c-0.59845-0.10517-1.1061-0.20784-1.1281-0.22814-0.0219-0.0203-0.0907-1.8719-0.15277-4.1147-0.062-2.2428-0.15376-4.9047-0.20381-5.9155l-0.091-1.8377 0.40446 0.20916c1.3385 0.69218 2.1606 4.1216 2.5262 10.539 0.0741 1.3004 0.0589 1.5657-0.0888 1.5536-0.098-8e-3 -0.66781-0.10055-1.2663-0.20574z"/>
    <path d="m127.66 137.51c-0.0704-0.0248-0.55392-0.11326-1.0745-0.19658l-0.94646-0.15149 0.088-1.6815c0.33427-6.3881 1.1809-9.9556 2.528-10.652l0.40448-0.20916-0.091 1.8377c-0.0834 1.6843-0.32008 9.2962-0.32882 10.575-4e-3 0.53915-0.12467 0.63906-0.57977 0.47875z"/>
    <path d="m124.09 181.95c-1.011-2.7843-2.5664-6.6799-3.5984-9.0126-0.8996-2.0335-3.2773-6.6448-4.1219-7.9942l-0.50529-0.80722 0.98327-1.8528c1.837-3.4614 3.1459-7.8749 3.8919-13.123 0.24964-1.7561 0.57882-5.1412 0.57949-5.9592 3.8e-4 -0.51963 0.0395-0.62851 0.22454-0.62689 0.3146 3e-3 2.8492 0.43813 2.9164 0.50092 0.0908 0.085 0.3125 12.724 0.31431 17.914 9.1e-4 3.1333 0.0465 4.8212 0.12969 4.8212 0.0832 0 0.12859-1.688 0.12967-4.8212 9.1e-4 -4.4351 0.21631-17.702 0.28767-17.769 0.0393-0.0368 3.0679 0.53736 3.1272 0.59282 0.0244 0.0228 0.12971 0.92537 0.23414 2.0058 0.67381 6.971 2.0496 12.266 4.2776 16.465l0.98327 1.8528-0.50529 0.80722c-0.84467 1.3494-3.2223 5.9607-4.1219 7.9942-1.032 2.3327-2.5873 6.2283-3.5984 9.0126-0.41245 1.1359-0.77872 2.0652-0.81392 2.0652s-0.40148-0.92932-0.81395-2.0652z"/>
    <path d="m113.2 112.03c-0.0233 4e-3 0.0116 0.0582 0.12736 0.17389 0.0945 0.0945 0.28847 0.40483 0.43141 0.6894 0.30317 0.60358 0.41357 1.2722 0.344 2.0828-0.0879 1.0233-0.48488 1.7466-1.8685 3.4024-1.2934 1.5478-1.9926 2.9534-2.2632 4.5509-0.13919 0.82162-0.098 2.3931 0.0832 3.1721 0.22493 0.96723 0.65353 2.0974 1.055 2.7816 0.91242 1.5549 2.5329 2.9284 4.3592 3.6952 0.54489 0.22878 2.0219 0.73012 2.0546 0.69739 0.0125-0.0125-0.20435-0.18073-0.48169-0.37407-1.4785-1.0306-2.5133-2.7523-2.72-4.5246-0.30283-2.596 1.3593-5.0697 3.6778-5.4734 0.66974-0.11663 1.9018-0.0425 2.4879 0.14944 2.1675 0.70966 3.4549 2.6119 3.9757 5.8748 0.15138 0.9485 0.226 1.6851 0.30781 3.0349 0.0355 0.58485 0.0803 1.1535 0.1001 1.2637 0.0197 0.11017 0.0441 0.19225 0.054 0.18234 0.01-0.01 0.0628-0.68786 0.11749-1.5066 0.22448-3.3646 0.6436-5.1911 1.5376-6.6976 0.45595-0.7683 1.3189-1.5412 2.1598-1.9348 0.97196-0.4548 2.3157-0.58011 3.2915-0.30687 1.3576 0.38016 2.3508 1.2092 2.9559 2.4677 1.2505 2.6005 0.21129 5.864-2.4244 7.614-0.17596 0.11684-0.30803 0.22444-0.29372 0.23873 0.0143 0.0143 0.40414-0.10039 0.86657-0.25471 0.90319-0.3014 1.9884-0.79572 2.6303-1.1984 1.0226-0.64138 2.0655-1.6184 2.6345-2.4681 0.603-0.90052 1.122-2.1839 1.3892-3.4353 0.17349-0.81267 0.18655-2.4274 0.0258-3.1698-0.35708-1.6494-1.0223-2.9366-2.3093-4.4663-0.9682-1.1508-1.4944-1.9771-1.6998-2.6693-0.1257-0.42371-0.12939-1.5351-6e-3 -2.056 0.0903-0.38298 0.30925-0.87337 0.52821-1.1838 0.0648-0.0919 0.0995-0.16683 0.077-0.16683s-0.25256 0.17612-0.5113 0.39193c-1.5717 1.311-2.1762 2.5078-2.525 4.9988-0.12726 0.90883-0.23611 1.2008-0.57098 1.5353-0.39024 0.38983-0.77829 0.56353-1.353 0.60576-0.55815 0.041-0.46986-0.0284-1.7369 1.3699-0.84836 0.9362-1.0484 1.1301-1.0484 1.017 0-0.0526 0.55351-1.0101 1.4131-2.4451l0.45491-0.75942 0.66121 0.0184c0.75893 0.0209 0.93141-0.0451 1.2073-0.46196 0.27493-0.41545 0.2246-0.44591-1.478-0.89101-0.57941-0.15147-1.0723-0.27538-1.095-0.27538s-0.13055 0.14887-0.23967 0.33131c-0.31346 0.52407-0.81794 0.88096-1.5405 1.0888-0.42625 0.12265-0.48129 0.20071-1.4775 2.1039-0.69604 1.3298-0.81827 1.5437-0.85952 1.5024-0.0109-0.0109 0.26154-1.0165 0.60576-2.2346l0.62596-2.2148 0.54184-0.0357c0.38985-0.0256 0.61703-0.0737 0.8083-0.17199 0.2876-0.14788 0.55407-0.40097 0.55407-0.52587 0-0.0428-0.15453-0.1512-0.34354-0.24062-0.45678-0.2161-3.4897-1.3252-3.6059-1.3187-0.1386 8e-3 -3.2716 1.164-3.596 1.3271-0.15638 0.0787-0.30026 0.16849-0.31956 0.19972-0.0558 0.0903 0.26178 0.42541 0.53573 0.56534 0.17997 0.0919 0.40471 0.13582 0.79797 0.15649l0.54748 0.0286 0.63113 2.212c0.34695 1.2165 0.61637 2.2263 0.59871 2.244-0.0376 0.0376-0.23631-0.31798-1.0489-1.8769-0.79648-1.528-0.83376-1.5761-1.3445-1.7412-0.22639-0.0731-0.49237-0.17494-0.59119-0.22603-0.27147-0.14039-0.74467-0.6063-0.92061-0.90653-0.086-0.14684-0.17608-0.26669-0.19973-0.26645-0.10953 9.1e-4 -2.3544 0.61619-2.4959 0.68377-0.26996 0.12896-0.23907 0.31734 0.10903 0.66544l0.30874 0.30874 0.6833-0.039 0.68377-0.039 0.38723 0.65274c1.4047 2.3681 1.5906 2.7119 1.4061 2.5978-0.0328-0.0203-0.44426-0.46586-0.91451-0.99064s-0.97869-1.0566-1.1302-1.1819c-0.25251-0.20885-0.30714-0.22788-0.6504-0.22791-0.4953-7e-5 -1.0011-0.23716-1.383-0.64759-0.31989-0.34374-0.43735-0.65356-0.53808-1.4188-0.2256-1.7138-0.67563-3.013-1.3567-3.9188-0.27184-0.36155-0.62323-0.70952-1.3962-1.3826-0.25697-0.22374-0.45699-0.35784-0.49579-0.35151z" fill-rule="evenodd" stop-color="#000000"/>
   </g>
  </g>
  <g transform="matrix(1.0164 0 0 1.0164 -3.0327 -1.7346)" fill="#e4002b">
   <path d="m128.28 109.72c0.0374-0.13109 0.10682-0.54461 0.15437-0.91893 0.0791-0.6229 0.0634-0.68664-0.18561-0.75176-0.2834-0.0741-0.28522-0.11851-0.0556-1.352 0.0747-0.40156-0.0436-0.36439 2.3494-0.73805 7.7013-1.2025 11.303-3.1942 12.047-6.6615 0.22635-1.0554 0.0837-2.8471-0.30127-3.7861-1.0463-2.5513-3.6294-4.7944-7.0089-6.0862-0.52806-0.20184-0.78728-0.33892-0.57605-0.30463 1.5212 0.24702 2.198 0.38181 3.2743 0.65218 5.328 1.3383 9.3982 3.9479 11.045 7.0812 1.3524 2.5735 1.0955 5.4581-0.66353 7.4525-2.4473 2.7747-7.8797 4.5491-16.216 5.2965-1.1969 0.10731-2.571 0.23111-3.0535 0.27509-0.81393 0.0742-0.87235 0.0627-0.80934-0.15836z"/>
   <path d="m119.83 184.47c-0.8056-0.37961-2.4193-1.0886-3.586-1.5755-3.7042-1.546-5.8582-3.1153-8.6187-6.2797-1.5549-1.7823-2.3385-3.1043-3.1218-5.2664-0.53413-1.4744-0.58513-1.7658-0.58513-3.3431 0-5.9796 3.7538-10.357 10.231-11.931 1.4446-0.35096 4.0457-0.83486 4.1133-0.76522 0.0643 0.0662-1.0434 3.607-1.5864 5.071-0.47739 1.287-0.49137 1.304-1.8496 2.2538-3.3043 2.3107-4.9272 5.3602-4.9272 9.2587 0 1.1736 0.0899 1.8805 0.33865 2.6603 1.0658 3.3424 2.6433 5.1008 6.7178 7.4884 2.3697 1.3886 8.0777 2.7449 8.3672 3.104 0.28549 0.35415-3.8551 0.0963-5.4927-0.67537z" fill-rule="evenodd" stop-color="#000000"/>
   <path d="m131.96 157.36c-0.28377-0.86689-0.80214-2.8589-0.8025-3.0838-2.3e-4 -0.15477 0.41416-0.29626 1.9138-0.65342 4.1307-0.98383 5.7841-1.8512 6.6012-3.4632 0.41743-0.82346 0.40161-1.9461-0.038-2.6938-1.4459-2.4596-5.9907-4.0227-17.774-6.113-16.232-2.8795-21.763-4.2505-26.493-6.5677-3.7447-1.8344-6.0851-3.8761-7.3054-6.3727-1.2761-2.6108-1.5535-5.0078-0.89731-7.755 0.53215-2.228 2.2943-4.7192 4.4811-6.335 3.6663-2.7089 10.376-4.8551 18.244-5.8357 2.7201-0.33899 10.892-1.226 11.295-1.226h0.32461l-0.11685 0.86322c-0.0987 0.72882-0.0856 0.91622 0.0842 1.2036 0.22527 0.38138 0.26768 1.0374 0.0747 1.1566-0.0695 0.0429-1.3683 0.25995-2.8862 0.48225s-3.3615 0.52398-4.0967 0.67041c-0.73524 0.14642-1.6102 0.30926-1.9444 0.36187-0.95959 0.15105-3.4209 0.80129-4.618 1.22-3.1947 1.1174-6.1229 3.0145-7.5404 4.8852-0.66634 0.87939-1.2933 2.1721-1.516 3.1261-0.21465 0.91915-0.18791 2.828 0.05292 3.7776 1.0783 4.2516 5.5485 8.0726 11.92 10.189 3.742 1.2429 6.7566 1.8758 17.439 3.6613 14.083 2.3538 19.024 3.6483 22.494 5.893 1.6868 1.0912 3.0219 2.7411 3.0255 3.7387 7.3e-4 0.18427-0.1481 0.86354-0.33055 1.5095-0.28961 1.0253-0.40773 1.2576-0.93037 1.8294-2.4306 2.6595-7.7766 4.3778-18.243 5.8636-2.3342 0.33136-2.1943 0.35058-2.4177-0.33192z" fill-rule="evenodd" stop-color="#000000"/>
  </g>
  <path d="m123.98 70.189c-36.689 0-66.549 29.86-66.549 66.549s29.86 66.549 66.549 66.549 66.549-29.86 66.549-66.549-29.86-66.549-66.549-66.549zm0 10.992c2.4486 0 4.8586 0.15894 7.2223 0.46405v6.9345l1.9105 0.36327c5.0854 0.96618 9.95 2.7272 14.496 5.2483v-0.0026c4.8392 2.684 9.1641 6.1498 12.856 10.299 3.9012 4.3848 6.9459 9.3584 9.0547 14.797v3e-3h3e-3c2.1873 5.6347 3.2949 11.573 3.2949 17.678 0 5.5952-0.93308 11.053-2.7673 16.256l-0.64648 1.8355 5.7707 3.3512c-1.8958 4.4884-4.3659 8.6714-7.3153 12.462l-5.7371-3.3285-1.2754 1.4609c-4.1513 4.7649-9.2848 8.7781-14.875 11.606l-3e-3 3e-3c-3.347 1.6964-6.8913 3.0015-10.53 3.8752-3.7478 0.90103-7.6222 1.3648-11.514 1.3648-3.8867 0-7.7604-0.45892-11.498-1.3591h-3e-3c-3.6376-0.87357-7.1754-2.1777-10.525-3.869-5.5844-2.8216-10.718-6.8222-14.861-11.578l-1.2738-1.463-5.6632 3.2887c-2.9497-3.7906-5.4189-7.9735-7.3147-12.462l5.6927-3.3042-0.65267-1.8376c-1.847-5.2148-2.7848-10.693-2.7848-16.301 0-6.1125 1.107-12.057 3.3006-17.698h0.0026v-3e-3c2.1154-5.4518 5.165-10.426 9.08-14.818 3.7042-4.155 8.0354-7.6117 12.889-10.297 4.5516-2.5142 9.4298-4.2667 14.529-5.2266l1.9141-0.36174v-6.9169c2.3637-0.30512 4.7743-0.46405 7.2229-0.46405zm-11.922 1.2795v2.3652c-4.885 1.1089-9.6126 2.7789-14.016 5.211l-0.0026 0.0026c-5.3135 2.9392-10.069 6.7332-14.123 11.281-4.2817 4.8036-7.6352 10.272-9.9534 16.246-2.4039 6.1821-3.623 12.717-3.623 19.399 0 5.4614 0.94575 10.797 2.5549 15.945l-1.7689 1.0268c-1.753-5.413-2.7037-11.192-2.7037-17.199 0-26.654 18.643-48.84 43.635-54.277zm23.844 0c24.992 5.4374 43.635 27.624 43.635 54.277 0 6.0075-0.95046 11.787-2.7037 17.2l-1.8547-1.0769c1.597-5.133 2.5368-10.449 2.5368-15.896 0-6.675-1.2167-13.203-3.6132-19.377v-3e-3c-2.3111-5.9597-5.6577-11.426-9.9255-16.223-4.0402-4.5407-8.7872-8.3429-14.088-11.283-4.3966-2.4383-9.1124-4.1147-13.986-5.2302zm27.045 90.992 1.818 1.0552c-10.138 10.946-24.641 17.787-40.785 17.787-16.143 0-30.647-6.841-40.785-17.787l1.6578-0.96327c4.293 4.5778 9.3641 8.4585 14.928 11.27v3e-3c3.6694 1.8526 7.5475 3.2841 11.545 4.2442 4.1034 0.98827 8.3444 1.4883 12.6 1.4883 4.2645 0 8.5042-0.50866 12.611-1.496 3.9969-0.95983 7.8823-2.3908 11.555-4.2519 5.5644-2.8146 10.562-6.7715 14.855-11.348z" color="#000000" color-rendering="auto" dominant-baseline="auto" image-rendering="auto" shape-rendering="auto" solid-color="#000000" style="font-feature-settings:normal;font-variant-alternates:normal;font-variant-caps:normal;font-variant-ligatures:normal;font-variant-numeric:normal;font-variant-position:normal;isolation:auto;mix-blend-mode:normal;paint-order:markers stroke fill;shape-padding:0;text-decoration-color:#000000;text-decoration-line:none;text-decoration-style:solid;text-indent:0;text-orientation:mixed;text-transform:none;white-space:normal"/>
  <g stroke="#fff" stroke-width="1.5" aria-label="300">
   <path d="m87.685 143.49c-0.98778 0-1.4224 0.43462-1.4224 1.4224v4.6228c0 0.98778 0.43462 1.4224 1.4224 1.4224h12.486c5.0574 0 7.6652-2.4892 7.6652-6.5588v-3.9511c0-3.477-1.2248-5.2945-4.9784-5.7291 1.7385-0.75071 2.3312-2.2521 2.3312-4.2672v-2.2916c0-3.477-2.0941-5.6501-6.4798-5.6501h-11.024c-0.98778 0-1.4224 0.43463-1.4224 1.4224v4.7018c0 0.98777 0.43462 1.4224 1.4224 1.4224h7.3491c1.2644 0 1.5014 0.55316 1.5014 1.1853v0.59266c0 0.63218-0.23707 1.1853-1.5014 1.1853h-4.1487c-0.98778 0-1.4224 0.43462-1.4224 1.4224v4.2277c0 0.98778 0.43462 1.4224 1.4224 1.4224h6.7169c1.2644 0 1.5014 0.51365 1.5014 1.1458v1.0668c0 0.63217-0.23707 1.1853-1.5014 1.1853z"/>
   <path d="m135.93 143.49v-13.473c0-4.8204-2.3312-8.0998-12.051-8.0998s-12.09 3.2794-12.09 8.0998v13.473c0 4.8204 2.3707 8.0603 12.09 8.0603s12.051-3.2399 12.051-8.0603zm-15.212-1.4224v-10.628c0-1.0273 0.47413-1.8175 3.1609-1.8175 2.7263 0 3.1609 0.79022 3.1609 1.8175v10.628c0 1.0668-0.43462 1.857-3.1609 1.857-2.6868 0-3.1609-0.79022-3.1609-1.857z"/>
   <path d="m164.65 143.49v-13.473c0-4.8204-2.3312-8.0998-12.051-8.0998s-12.09 3.2794-12.09 8.0998v13.473c0 4.8204 2.3707 8.0603 12.09 8.0603s12.051-3.2399 12.051-8.0603zm-15.212-1.4224v-10.628c0-1.0273 0.47413-1.8175 3.1609-1.8175 2.7263 0 3.1609 0.79022 3.1609 1.8175v10.628c0 1.0668-0.43463 1.857-3.1609 1.857-2.6868 0-3.1609-0.79022-3.1609-1.857z"/>
  </g>
 </g>
</svg>
