<?xml version="1.0" encoding="UTF-8"?>
<svg width="133.1mm" height="133.1mm" version="1.1" viewBox="0 0 133.1 133.1" xmlns="http://www.w3.org/2000/svg">
 <title>Site-80</title>
 <g transform="translate(-57.427 -70.189)">
  <path transform="matrix(.26458 0 0 .26458 57.427 70.189)" d="m225.71 459.26c-43.865-6.0884-84.333-25.036-116.19-54.403-9.1404-8.4252-10.776-10.552-8.9144-11.593 1.7382-0.97277 4.7683 0.97876 12.765 8.2212 30.82 27.914 66.482 45.225 105.89 51.405 19.138 3.0008 56.728 2.2602 73.592-1.45 36.423-8.013 68.678-24.753 94.504-49.047 8.9563-8.4247 11.722-10.278 14.175-9.4991 2.8981 0.91981 2.777 1.2496-2.4586 6.6969-9.413 9.7937-27.708 23.926-41.177 31.808-21.703 12.7-43.491 20.953-68.007 25.758-14.071 2.7581-50.792 3.9614-64.18 2.1032z" fill="#fff" fill-opacity=".99216" fill-rule="evenodd" stroke-width="5.3993"/>
  <g>
   <path d="m117.76 189.05c-11.8-1.6384-22.399-7.0554-30.861-15.771-1.7559-1.8088-3.2908-3.2887-3.411-3.2887s-1.4864 0.73095-3.0359 1.6243c-1.5495 0.89337-2.8739 1.6243-2.943 1.6243-0.49308 0-7.5185-11.899-7.5185-12.734 0-0.0926 1.3248-0.94731 2.9441-1.8994 1.6192-0.95207 2.9707-1.7495 3.0032-1.7721 0.0325-0.0226-0.453-1.6057-1.0789-3.5179-1.9191-5.8634-2.5667-10.932-2.3244-18.191 0.16565-4.9631 0.43311-7.1944 1.2237-10.209 3.2918-12.552 9.8138-22.312 20.012-29.95 5.5131-4.1287 14.016-7.8792 20.584-9.0793l2.741-0.50086v-7.4594l2.496-0.26089c3.1557-0.32984 7.6403-0.32887 10.397 0.0022l2.1319 0.25607v3.8012c0 3.4571 0.0695 3.8012 0.7677 3.8012 1.617 0 8.6822 2.0835 12.183 3.5926 13.97 6.0227 24.539 17.611 29.261 32.085 3.268 10.015 3.2802 21.729 0.0331 31.826-0.65932 2.0502-1.1603 3.7545-1.1133 3.7873 0.047 0.0327 1.4103 0.82545 3.0296 1.7616s2.9441 1.7899 2.9441 1.8973c0 0.6027-3.2453 6.5389-5.1478 9.4163l-2.2171 3.3531-6.295-3.4115-2.9964 3.1544c-7.1339 7.5101-16.399 12.827-26.349 15.12-4.9152 1.133-13.816 1.5872-18.461 0.94222z" fill="#005293" fill-rule="evenodd" style="paint-order:stroke fill markers"/>
   <g fill="#fecb00">
    <g transform="matrix(.60136 0 0 1.099 49.691 -7.8065)">
     <rect x="112.27" y="78.876" width="23.761" height="59.41" fill="#fecb00"/>
    </g>
    <g transform="matrix(-.30068 -.52079 .95174 -.54949 33.863 275.7)">
     <rect x="112.27" y="78.876" width="23.761" height="59.41" fill="#fecb00"/>
    </g>
    <g transform="matrix(-.30068 .52079 -.95174 -.54949 289.45 146.22)">
     <rect x="112.51" y="78.799" width="23.761" height="59.41" fill="#fecb00"/>
    </g>
   </g>
  </g>
  <path transform="matrix(.26458 0 0 .26458 57.427 70.189)" d="m447.25 312.99c-1.2871-1.5509-1.0195-4.5676 1.1724-13.214 6.5933-26.009 7.5603-61.935 2.3395-86.919-16.022-76.671-70.564-135.23-145.3-156.01-7.107-1.9759-8.3206-2.8001-8.3206-5.6506 0-4.3687 1.2883-4.2654 18.945 1.5185 52.673 17.254 97.837 56.125 122.72 105.62 7.6975 15.31 16.162 41.414 19.07 58.808 4.4933 26.884 2.6178 63.862-4.5465 89.643-2.3854 8.584-3.3174 9.5349-6.0814 6.2046z" fill="#fff" fill-opacity=".99216" fill-rule="evenodd" stroke-width="5.3993"/>
  <path transform="matrix(.26458 0 0 .26458 57.427 70.189)" d="m48.851 303.21c-5.142-20.694-6.4015-34.082-5.587-59.392 0.59261-18.416 1.5789-27.262 4.346-38.981 16.976-71.892 69.498-129.31 139.16-152.13 17.674-5.7896 18.945-5.89 18.945-1.4963 0 2.9419-1.1984 3.6779-9.6429 5.9221-62.528 16.618-115.36 66.241-136.7 128.39-12.343 35.955-14.252 79.561-5.0496 115.34 1.9428 7.5529 2.2594 10.943 1.1472 12.283-2.7666 3.3336-3.6557 1.9996-6.6211-9.9348z" fill="#fff" fill-opacity=".99216" fill-rule="evenodd" stroke-width="5.3993"/>
  <path d="m124.32 70.189c-36.689 0-66.549 29.86-66.549 66.549s29.86 66.549 66.549 66.549c36.689 0 66.549-29.86 66.549-66.549s-29.86-66.549-66.549-66.549zm0 10.992c2.4486 0 4.8586 0.15894 7.2223 0.46405v6.9345l1.9105 0.36327c5.0854 0.96618 9.95 2.7272 14.496 5.2483v-0.0026c4.8392 2.684 9.1641 6.1498 12.856 10.299 3.9012 4.3848 6.9459 9.3584 9.0547 14.797v3e-3h3e-3c2.1873 5.6347 3.2949 11.573 3.2949 17.678 0 5.5952-0.93308 11.053-2.7673 16.256l-0.64648 1.8355 5.7707 3.3512c-1.8958 4.4884-4.3659 8.6714-7.3153 12.462l-5.7371-3.3285-1.2754 1.4609c-4.1513 4.7649-9.2848 8.7781-14.875 11.606l-3e-3 3e-3c-3.347 1.6964-6.8913 3.0015-10.53 3.8752-3.7478 0.90103-7.6222 1.3648-11.514 1.3648-3.8867 0-7.7604-0.45892-11.498-1.3591h-3e-3c-3.6376-0.87357-7.1754-2.1777-10.525-3.869-5.5844-2.8216-10.718-6.8222-14.861-11.578l-1.2738-1.463-5.6632 3.2887c-2.9497-3.7906-5.4189-7.9735-7.3147-12.462l5.6927-3.3042-0.65267-1.8376c-1.847-5.2148-2.7848-10.693-2.7848-16.301 0-6.1125 1.107-12.057 3.3006-17.698h0.0026v-3e-3c2.1154-5.4518 5.165-10.426 9.08-14.818 3.7042-4.155 8.0354-7.6117 12.889-10.297 4.5516-2.5142 9.4298-4.2667 14.529-5.2266l1.9141-0.36174v-6.9169c2.3637-0.30512 4.7743-0.46405 7.2229-0.46405zm-11.922 1.2795v2.3652c-4.885 1.1089-9.6126 2.7789-14.016 5.211l-0.0026 0.0026c-5.3135 2.9392-10.069 6.7332-14.123 11.281-4.2817 4.8036-7.6352 10.272-9.9534 16.246-2.4039 6.1821-3.623 12.717-3.623 19.399 0 5.4614 0.94575 10.797 2.5549 15.945l-1.7689 1.0268c-1.753-5.413-2.7037-11.192-2.7037-17.199 0-26.654 18.643-48.84 43.635-54.277zm23.844 0c24.992 5.4374 43.635 27.624 43.635 54.277 0 6.0075-0.95046 11.787-2.7037 17.2l-1.8547-1.0769c1.597-5.133 2.5368-10.449 2.5368-15.896 0-6.675-1.2167-13.203-3.6132-19.377v-3e-3c-2.3111-5.9597-5.6577-11.426-9.9255-16.223-4.0402-4.5407-8.7872-8.3429-14.088-11.283-4.3966-2.4383-9.1124-4.1147-13.986-5.2302zm27.045 90.992 1.818 1.0552c-10.138 10.946-24.641 17.787-40.785 17.787-16.143 0-30.647-6.841-40.785-17.787l1.6578-0.96327c4.293 4.5778 9.3641 8.4585 14.928 11.27v3e-3c3.6694 1.8526 7.5475 3.2841 11.545 4.2442 4.1034 0.98827 8.3444 1.4883 12.6 1.4883 4.2645 0 8.5042-0.50866 12.611-1.496 3.9969-0.95983 7.8823-2.3908 11.555-4.2519 5.5644-2.8146 10.562-6.7715 14.855-11.348z" color="#000000" color-rendering="auto" dominant-baseline="auto" image-rendering="auto" shape-rendering="auto" solid-color="#000000" style="font-feature-settings:normal;font-variant-alternates:normal;font-variant-caps:normal;font-variant-ligatures:normal;font-variant-numeric:normal;font-variant-position:normal;isolation:auto;mix-blend-mode:normal;paint-order:markers stroke fill;shape-padding:0;text-decoration-color:#000000;text-decoration-line:none;text-decoration-style:solid;text-indent:0;text-orientation:mixed;text-transform:none;white-space:normal"/>
  <g transform="matrix(2.3283 0 0 2.3283 99.812 -218.77)" fill="#d40000">
   <path d="m-4.9327 149.83c-0.11137-1.4831 0.321-2.0926-0.013097-3.525 0.2817 0.21332 0.52409 0.61966 0.64855 0.96505 0.18998-1.5441 0.3079-3.1897 0.21619-4.6526 0.41927 0.16253 0.70751 1.3003 0.88439 1.8387 0.47168-2.1942 0.59615-4.1751 0.26204-5.3535 0.42582 0.0711 0.67476 0.84315 0.96301 1.7168 0.2817-0.57902 0.23584-1.7777 0.23584-3.017 0.045858-0.58918 0.11137-1.2495 0.3472-1.5644 0.22929 2.7732 1.1071 2.5396 1.5985 5.6278 0.17688-0.6095 0.20964-1.2698 0.16378-2.1028 0.57649 0.51807 1.0809 2.4583 1.3495 5.2316 0.2555-0.20317 0.37341-0.98537 0.47168-1.8691 0.55684 1.2292 0.75337 2.7631 0.47168 4.5916-0.14412 0.51807-0.23584 1.0463-0.18998 1.6355 0.23584-0.22348 0.31445-0.76188 0.45202-1.2088 0.09826 0.6603 0.19653 1.4425 0.11137 2.0114-0.2817 3.2913-2.7133 3.8487-4.2496 3.8321-0.86017-0.01-3.414-0.75421-3.723-4.1572z"/>
   <path d="m25.69 149.83c0.11137-1.4831-0.321-2.0926 0.0131-3.525-0.2817 0.21332-0.52409 0.61966-0.64855 0.96505-0.18998-1.5441-0.3079-3.1897-0.21619-4.6526-0.41927 0.16253-0.70751 1.3003-0.88439 1.8387-0.47168-2.1942-0.59614-4.1751-0.26204-5.3535-0.42582 0.0711-0.67476 0.84315-0.96301 1.7168-0.2817-0.57902-0.23584-1.7777-0.23584-3.017-0.04586-0.58918-0.11136-1.2495-0.3472-1.5644-0.22929 2.7732-1.1071 2.5396-1.5985 5.6278-0.17688-0.6095-0.20964-1.2698-0.16378-2.1028-0.57649 0.51807-1.0809 2.4583-1.3495 5.2316-0.2555-0.20317-0.37341-0.98537-0.47168-1.8691-0.55684 1.2292-0.75337 2.7631-0.47168 4.5916 0.14412 0.51807 0.23584 1.0463 0.18998 1.6355-0.23584-0.22348-0.31445-0.76188-0.45202-1.2088-0.09826 0.6603-0.19653 1.4425-0.11137 2.0114 0.2817 3.2913 2.7133 3.8487 4.2496 3.8321 0.86017-0.01 3.414-0.75421 3.723-4.1572z"/>
  </g>
  <g transform="matrix(.17207 0 0 .17207 123.98 168.12)" fill="#eee" stroke="#d40000" stroke-width="2.4732">
   <path d="m-6 27-7 36c8 14 12 23 13 32 1-9 5-18 13-32l-7-36z"/>
   <path d="m-27.533 2.6371-36.401 4.4672c-10.843 11.935-18.166 18.52-26.417 22.252 8.8685-1.8301 18.664-0.80702 34.451 2.4752l32.075-17.782z"/>
   <path d="m-11.016-25.37-15.497-33.239c-14.701-6.624-23.227-11.554-29.326-18.247 4.481 7.8689 6.535 17.501 8.2919 33.53l26.823 25.01z"/>
   <path d="m20.724-18.317 26.823-25.01c1.7569-16.029 3.8109-25.661 8.2919-33.53-6.0991 6.6934-14.625 11.623-29.326 18.247l-15.497 33.239z"/>
   <path d="m23.824 14.05 32.075 17.782c15.787-3.2822 25.583-4.3053 34.451-2.4752-8.2505-3.7322-15.574-10.318-26.417-22.252l-36.401-4.4672z"/>
   <path d="m-19-76c-6.5 0-12.5 4-15 12s-2.01 14 1.69 19.5l32.31 44.5 32.31-44.5c3.7-5.5 4.19-11.5 1.69-19.5s-8.5-12-15-12c-2 0-8 1-10 2-5 2-7 2-9 2s-4 0-9-2c-2-1-8-2-10-2z"/>
   <path d="m0-47c-1 20-5 32-7 42h14c-2-10-6-22-7-42z"/>
   <g transform="rotate(72)">
    <path d="m-19-76c-6.5 0-12.5 4-15 12s-2.01 14 1.69 19.5l32.31 44.5 32.31-44.5c3.7-5.5 4.19-11.5 1.69-19.5s-8.5-12-15-12c-2 0-8 1-10 2-5 2-7 2-9 2s-4 0-9-2c-2-1-8-2-10-2z"/>
    <path d="m0-47c-1 20-5 32-7 42h14c-2-10-6-22-7-42z"/>
   </g>
   <g transform="rotate(144)">
    <path d="m-19-76c-6.5 0-12.5 4-15 12s-2.01 14 1.69 19.5l32.31 44.5 32.31-44.5c3.7-5.5 4.19-11.5 1.69-19.5s-8.5-12-15-12c-2 0-8 1-10 2-5 2-7 2-9 2s-4 0-9-2c-2-1-8-2-10-2z"/>
    <path d="m0-47c-1 20-5 32-7 42h14c-2-10-6-22-7-42z"/>
   </g>
   <g transform="rotate(216)">
    <path d="m-19-76c-6.5 0-12.5 4-15 12s-2.01 14 1.69 19.5l32.31 44.5 32.31-44.5c3.7-5.5 4.19-11.5 1.69-19.5s-8.5-12-15-12c-2 0-8 1-10 2-5 2-7 2-9 2s-4 0-9-2c-2-1-8-2-10-2z"/>
    <path d="m0-47c-1 20-5 32-7 42h14c-2-10-6-22-7-42z"/>
   </g>
   <g transform="rotate(-72)">
    <path d="m-19-76c-6.5 0-12.5 4-15 12s-2.01 14 1.69 19.5l32.31 44.5 32.31-44.5c3.7-5.5 4.19-11.5 1.69-19.5s-8.5-12-15-12c-2 0-8 1-10 2-5 2-7 2-9 2s-4 0-9-2c-2-1-8-2-10-2z"/>
    <path d="m0-47c-1 20-5 32-7 42h14c-2-10-6-22-7-42z"/>
   </g>
   <circle r="25"/>
  </g>
  <g stroke="#fff" aria-label="80">
   <path d="m122.02 140.85v3.8326q0 1.5409-0.59266 2.8053-0.55316 1.2644-1.936 2.1731-1.3829 0.90876-3.7536 1.3829-2.3312 0.51364-5.8872 0.51364t-5.9267-0.51364q-2.3707-0.47413-3.7536-1.3829-1.3829-0.90875-1.9756-2.1731-0.55316-1.2644-0.55316-2.8053v-3.8326q0-2.7658 1.1853-4.2672 1.2248-1.5014 3.0028-1.857-1.3039-0.55315-1.8175-1.6595-0.51364-1.1063-0.51364-2.6077v-2.2916q0-1.4619 0.51364-2.6077 0.51364-1.1458 1.699-1.936 1.1853-0.82974 3.2004-1.2644 2.0151-0.43462 4.9784-0.43462 2.9633 0 4.9389 0.43462 2.0151 0.43462 3.1609 1.2644 1.1853 0.79022 1.6595 1.936 0.51364 1.1458 0.51364 2.6077v2.2916q0 1.5014-0.51364 2.6077-0.51365 1.1063-1.8175 1.6595 1.778 0.3556 2.9633 1.857 1.2248 1.5014 1.2248 4.2672zm-14.659-8.8505q0 0.63218 0.39511 1.0668 0.43463 0.39511 2.0941 0.39511 1.699 0 2.0546-0.39511 0.39511-0.43462 0.39511-1.0668v-1.7385q0-0.59267-0.39511-0.98778-0.3556-0.43462-2.0546-0.43462-1.6595 0-2.0941 0.43462-0.39511 0.39511-0.39511 0.98778zm-0.98777 11.182q0 0.63218 0.67169 1.0668 0.67168 0.39511 2.8053 0.39511t2.7658-0.39511q0.67169-0.43462 0.67169-1.0668v-2.0941q0-0.59266-0.67169-0.98778-0.63218-0.43462-2.7658-0.43462t-2.8053 0.43462q-0.67169 0.39512-0.67169 0.98778z"/>
   <path d="m150.31 143.49q0 1.8175-0.51365 3.3189-0.51364 1.4619-1.857 2.5287-1.3434 1.0273-3.714 1.62-2.3312 0.59266-5.9662 0.59266t-6.0057-0.59266q-2.3312-0.59267-3.6745-1.62-1.3434-1.0668-1.8965-2.5287-0.51364-1.5014-0.51364-3.3189v-13.473q0-1.8175 0.51364-3.2794 0.55316-1.5014 1.8965-2.5682 1.3434-1.0668 3.6745-1.6595 2.3707-0.59266 6.0057-0.59266t5.9662 0.59266q2.3707 0.59267 3.714 1.6595 1.3434 1.0668 1.857 2.5682 0.51365 1.4619 0.51365 3.2794zm-15.212-1.4224q0 0.79022 0.55316 1.3434 0.59267 0.51364 2.6077 0.51364 2.0151 0 2.5682-0.51364 0.59267-0.55316 0.59267-1.3434v-10.628q0-0.75071-0.59267-1.2644-0.55315-0.55316-2.5682-0.55316-2.0151 0-2.6077 0.55316-0.55316 0.51364-0.55316 1.2644z"/>
  </g>
 </g>
</svg>
