<?xml version="1.0" encoding="UTF-8"?>
<svg width="133.1mm" height="133.1mm" version="1.1" viewBox="0 0 133.1 133.1" xml:space="preserve" xmlns="http://www.w3.org/2000/svg"><defs><clipPath id="clipPath918"><circle cx="269.77" cy="233.32" r="67.246" fill="#fff" stroke="#000" stroke-width=".46818" style="paint-order:stroke fill markers"/></clipPath></defs><g transform="translate(-57.427 -70.189)"><g fill="#fff" fill-opacity=".99216" fill-rule="evenodd" stroke-width="5.3993"><path transform="matrix(.26458 0 0 .26458 57.427 70.189)" d="m225.71 459.26c-43.865-6.0884-84.333-25.036-116.19-54.403-9.1404-8.4252-10.776-10.552-8.9144-11.593 1.7382-0.97277 4.7683 0.97876 12.765 8.2212 30.82 27.914 66.482 45.225 105.89 51.405 19.138 3.0008 56.728 2.2602 73.592-1.45 36.423-8.013 68.678-24.753 94.504-49.047 8.9563-8.4247 11.722-10.278 14.175-9.4991 2.8981 0.91981 2.777 1.2496-2.4586 6.6969-9.413 9.7937-27.708 23.926-41.177 31.808-21.703 12.7-43.491 20.953-68.007 25.758-14.071 2.7581-50.792 3.9614-64.18 2.1032z"/><path transform="matrix(.26458 0 0 .26458 57.427 70.189)" d="m447.25 312.99c-1.2871-1.5509-1.0195-4.5676 1.1724-13.214 6.5933-26.009 7.5603-61.935 2.3395-86.919-16.022-76.671-70.564-135.23-145.3-156.01-7.107-1.9759-8.3206-2.8001-8.3206-5.6506 0-4.3687 1.2883-4.2654 18.945 1.5185 52.673 17.254 97.837 56.125 122.72 105.62 7.6975 15.31 16.162 41.414 19.07 58.808 4.4933 26.884 2.6178 63.862-4.5465 89.643-2.3854 8.584-3.3174 9.5349-6.0814 6.2046z"/><path transform="matrix(.26458 0 0 .26458 57.427 70.189)" d="m48.851 303.21c-5.142-20.694-6.4015-34.082-5.587-59.392 0.59261-18.416 1.5789-27.262 4.346-38.981 16.976-71.892 69.498-129.31 139.16-152.13 17.674-5.7896 18.945-5.89 18.945-1.4963 0 2.9419-1.1984 3.6779-9.6429 5.9221-62.528 16.618-115.36 66.241-136.7 128.39-12.343 35.955-14.252 79.561-5.0496 115.34 1.9428 7.5529 2.2594 10.943 1.1472 12.283-2.7666 3.3336-3.6557 1.9996-6.6211-9.9348z"/></g><path d="m117.1 189.11c-11.8-1.6384-22.399-7.0554-30.861-15.771-1.7559-1.8088-3.2908-3.2887-3.411-3.2887-0.1202 0-1.4863 0.73095-3.0359 1.6243-1.5495 0.89337-2.8739 1.6243-2.943 1.6243-0.49308 0-7.5185-11.899-7.5185-12.734 0-0.0926 1.3248-0.94731 2.9441-1.8994s2.9707-1.7495 3.0032-1.7721c0.0325-0.0226-0.453-1.6057-1.0789-3.5179-1.9191-5.8634-2.5667-10.932-2.3244-18.191 0.16565-4.9631 0.43311-7.1944 1.2237-10.209 3.2918-12.552 9.8138-22.312 20.012-29.95 5.5131-4.1287 14.016-7.8792 20.584-9.0793l2.741-0.50086v-7.4594l2.496-0.26089c3.1557-0.32984 7.6403-0.32887 10.397 0.0022l2.1319 0.25607v3.8012c0 3.4571 0.0695 3.8012 0.7677 3.8012 1.617 0 8.6822 2.0835 12.183 3.5926 13.97 6.0227 24.539 17.611 29.261 32.085 3.268 10.015 3.2802 21.729 0.0331 31.826-0.65932 2.0502-1.1603 3.7545-1.1133 3.7873 0.047 0.0327 1.4103 0.82545 3.0296 1.7616s2.9441 1.7899 2.9441 1.8973c0 0.6027-3.2453 6.5389-5.1478 9.4163l-2.2171 3.3531-6.295-3.4115-2.9964 3.1544c-7.1339 7.5101-16.399 12.827-26.349 15.12-4.9152 1.133-13.816 1.5872-18.461 0.94222z" fill="#012169" fill-rule="evenodd" style="paint-order:stroke fill markers"/><g fill="#fff" fill-rule="evenodd"><path transform="matrix(.26458 0 0 .26458 57.427 70.189)" d="m50.054 307.59c-5.3927-18.159-7.1057-31.761-7.0728-56.164 0.03617-26.881 2.0183-40.256 9.4132-63.52 10.294-32.383 26.231-58.143 51.799-83.724 25.935-25.948 50.557-41.143 84.038-51.863 16.763-5.3669 18.197-5.46 18.197-1.1799 0 2.9353-1.4818 3.7017-13.912 7.1955-28.433 7.9917-57.39 24.621-80.1 45.998-53.428 50.295-75.885 125.41-58.321 195.08 3.0888 12.252 3.1242 12.963 0.70945 14.255-2.1923 1.1733-2.845 0.33773-4.7518-6.0829z" style="paint-order:stroke fill markers"/><path transform="matrix(.26458 0 0 .26458 57.427 70.189)" d="m447.66 313.49c-2.0593-1.1525-1.9604-2.5959 1.0243-14.942 21.983-90.932-21.986-185.35-105.96-227.53-11.27-5.661-27.293-11.687-38.799-14.591-5.1478-1.2994-6.0714-2.0848-6.0714-5.1624 0-3.3505 0.35739-3.552 4.6429-2.6178 36.573 7.9722 79.524 34.289 106.28 65.122 44.961 51.807 61.742 120.07 46.044 187.29-1.6037 6.8681-3.3595 12.762-3.9017 13.097-0.54223 0.33511-2.0116 0.0353-3.2654-0.66642z" style="paint-order:stroke fill markers"/></g><g stroke="#000"><g transform="matrix(.71896 0 0 .71896 -69.98 -31.012)"><circle cx="268.94" cy="234.23" r="54.439" fill="#fff" stroke-width=".37902" style="paint-order:stroke fill markers"/><path d="m257.19 303.64c-7.6978-1.4015-13.334-3.2238-19.79-6.3985l-2.8563-1.4046-1.3771 0.75711c-0.75738 0.41641-3.7583 1.9843-6.6687 3.4841-2.9104 1.4998-5.5265 2.8861-5.8136 3.0806-0.28704 0.19449-0.7893 0.35363-1.1161 0.35363-0.67491 0-1.0608-0.49249-5.6514-7.2129-1.6661-2.4391-4.8535-7.0825-7.083-10.319s-5.4812-7.9676-7.226-10.514c-1.7448-2.5466-4.7671-6.9519-6.7163-9.7896-1.9492-2.8377-4.0255-5.8626-4.6141-6.7221-0.58859-0.85949-1.0702-1.7774-1.0702-2.0399 0-0.53489 0.0806-0.61223 6.8792-6.599 5.5837-4.917 5.1274-4.0225 4.5526-8.9249-0.68001-5.7994-0.30274-15.061 0.86449-21.222 2.5889-13.666 9.4933-26.575 19.489-36.437 5.0906-5.0227 9.0008-7.9754 15.443-11.661l3.175-1.8166 0.20838-1.9638c0.11461-1.0801 0.44203-3.879 0.7276-6.2199 0.28558-2.3409 0.51923-4.6826 0.51923-5.2039 0-1.9619-3.0074-1.7848 30.314-1.7848 28.295 0 30.006 0.0262 30.236 0.46302 0.13401 0.25466 0.32561 1.356 0.42578 2.4474 0.10017 1.0914 0.28678 2.6988 0.41468 3.5719 0.12791 0.87313 0.30374 2.4134 0.39075 3.4229 0.087 1.0095 0.26751 2.6763 0.40113 3.7042 0.13362 1.0278 0.24662 1.9455 0.25112 2.0393 5e-3 0.0938 1.1725 0.82979 2.5956 1.6356 8.3398 4.722 16.006 11.555 22.054 19.656 7.0467 9.4394 11.602 21.04 13.233 33.703 0.49305 3.8272 0.42587 13.584-0.11842 17.198-0.23016 1.528-0.3362 2.8498-0.23565 2.9375 0.10054 0.0876 0.90434 0.80202 1.7862 1.5875 0.88188 0.78547 2.0141 1.7853 2.516 2.2219 0.50193 0.43657 1.8045 1.5788 2.8945 2.5382 2.0449 1.7999 2.844 2.4794 3.9442 3.3536 0.80126 0.63664 0.84908 1.9084 0.10954 2.9133-0.6196 0.84188-10.573 15.291-13.983 20.299-1.2882 1.8918-3.2062 4.6897-4.2623 6.2177-1.0561 1.528-3.0175 4.3855-4.3586 6.35-1.3411 1.9645-2.9775 4.3458-3.6366 5.2917-0.65903 0.94589-1.8441 2.6723-2.6334 3.8365-2.4537 3.6189-2.3769 3.5918-5.5089 1.9494-1.1467-0.60135-4.0495-2.1091-6.4506-3.3507-2.4011-1.2415-4.7683-2.4693-5.2605-2.7285l-0.89485-0.47119-2.1479 1.081c-6.5164 3.2797-13.531 5.5502-21.033 6.8076-2.8418 0.47636-4.3445 0.54622-11.377 0.52893-7.3235-0.018-8.4336-0.0801-11.542-0.64613zm19.844-0.51292c8.1779-0.98034 15.989-3.3036 23.316-6.9351l3.035-1.5042 1.509 0.81789c0.82995 0.44984 2.5806 1.369 3.8903 2.0424 1.3097 0.67351 3.9644 2.0529 5.8994 3.0652 1.935 1.0124 3.6614 1.8364 3.8364 1.8312 0.17505-5e-3 1.098-1.1661 2.051-2.5797 1.6144-2.3947 10.705-15.666 18.252-26.647 4.2003-6.1111 7.7679-11.319 9.6802-14.13l1.5128-2.2241-0.77234-0.65039c-0.42479-0.35772-1.4272-1.2235-2.2276-1.9239-0.80036-0.70043-1.7529-1.5279-2.1167-1.8388-0.74441-0.63616-4.0397-3.5923-5.672-5.0883-0.59118-0.54181-1.1722-0.98829-1.2912-0.99218-0.11894-4e-3 -0.15049-0.21544-0.0701-0.4701 0.40989-1.2984 0.94275-8.1386 0.94297-12.105 5.3e-4 -10.726-2.1774-20.302-6.8605-30.162-6.0511-12.741-16.902-24.201-29.185-30.823-2.2811-1.2298-2.1505-0.98585-2.55-4.7632-0.53857-5.0922-1.1352-10.475-1.2538-11.311l-0.12196-0.8599h-29.357c-27.613 0-29.357 0.0271-29.357 0.45612 0 0.55374-1.6053 14.739-1.6724 14.778-0.0261 0.0152-1.2381 0.6535-2.6933 1.4185-3.1702 1.6666-7.3113 4.4145-10.576 7.0176-2.835 2.2607-8.0927 7.4644-10.168 10.064-0.81333 1.0186-1.5471 1.9116-1.6307 1.9844-0.64904 0.56525-5.227 7.9111-6.5539 10.516-1.4593 2.8652-3.6189 7.9959-4.316 10.253-1.2173 3.9421-2.3453 9.1097-2.9166 13.361-0.49628 3.6934-0.42682 13.174 0.12496 17.055 0.24741 1.7402 0.44983 3.2512 0.44983 3.3578s-2.4706 2.3723-5.4901 5.0349c-3.0196 2.6626-5.7178 5.048-5.9962 5.3009-0.49447 0.4493-0.47838 0.50096 0.70136 2.2522 1.5848 2.3524 8.9468 13.078 17.938 26.134 3.9537 5.7412 6.9471 10.109 9.7807 14.272 1.2369 1.8172 2.3475 3.3082 2.468 3.3133 0.12046 5e-3 1.5492-0.68826 3.175-1.5407 1.6258-0.85242 4.9615-2.5926 7.4126-3.867l4.4566-2.3171 3.8778 1.8534c7.3807 3.5278 14.298 5.5812 22.002 6.5316 3.8603 0.47624 12.65 0.48791 16.536 0.022zm-12.171-12.732c-0.43657-0.0613-1.9248-0.24186-3.3073-0.40128-3.1591-0.36429-8.5883-1.7243-12.039-3.0156-11.207-4.1944-21.11-12.129-27.497-22.03-1.0208-1.5826-1.3174-1.877-1.6875-1.6754-0.58836 0.32062-1.8679 1.693-3.0625 3.285-0.5271 0.70237-0.95837 1.1692-0.95837 1.0375s0.87624-1.4089 1.9472-2.8382l1.9472-2.5986-1.5288-3.2014c-2.8067-5.8772-4.6418-12.205-5.3169-18.333-0.21135-1.9185-0.42452-2.9059-0.60562-2.8055-0.15371 0.0853-0.14067 5e-3 0.029-0.17899 0.19433-0.21046 0.25631-0.83922 0.16751-1.6995-0.16879-1.6355 0.31367-7.872 0.85165-11.009 1.4306-8.3409 5.0696-16.962 9.9585-23.594 1.0693-1.4505 1.2699-1.8927 1.1234-2.4767-0.16001-0.63751-0.11975-0.69226 0.39007-0.53045 0.47452 0.1506 1.0079-0.2798 3.2265-2.6035 2.9176-3.0559 6.3039-5.9081 9.7708-8.2299 2.5103-1.6811 8.9208-4.9473 10.97-5.5895l1.3327-0.41757 4.7625 2.2988 0.1574 2.7051-2.8132 0.97178c-6.6843 2.309-13.919 6.8078-18.482 11.493l-1.2942 1.3288 1.0297 0.19126c0.56631 0.10519 1.5168 0.3991 2.1123 0.65315 0.98874 0.42183 1.0722 0.53292 0.96251 1.2806-0.1354 0.92255 0.0917 0.92483-3.4942-0.035l-1.9782-0.52945-1.0125 1.157c-1.3998 1.5996-3.8789 5.3192-5.2997 7.9517-3.316 6.1439-5.7388 15.009-5.7388 21v1.6148l0.76242-0.11189c1.1426-0.16771 1.2357 0.3789 0.12679 0.74486l-0.96774 0.31939 0.16013 3.3478c0.18532 3.8743 1.0728 8.4227 2.4322 12.465 1.1411 3.3932 3.0137 7.4036 3.4569 7.4036 0.17971 0 1.678-1.2831 3.3296-2.8514 1.6515-1.5683 3.4596-3.1322 4.018-3.4754l1.0152-0.62396 0.56067 0.56067c0.55576 0.55576 0.55614 0.56478 0.0431 1.0314-1.352 1.2297-4.6902 3.8267-6.5368 5.0854-1.1278 0.76873-2.0505 1.4622-2.0505 1.5412s0.882 1.463 1.96 3.0758c6.0857 9.1048 15.133 16.034 25.36 19.423 12.773 4.2328 26.221 3.329 37.923-2.5488 7.2464-3.6397 12.698-8.1345 17.646-14.549 1.5494-2.0087 3.3684-4.8503 3.3596-5.2482-3e-3 -0.12649-0.97293-0.88482-2.1558-1.6852-2.1738-1.4708-4.4643-3.2263-6.2148-4.7633l-0.95592-0.8393 0.5556-0.55561c0.50897-0.50896 0.61727-0.52367 1.2902-0.17525 0.40405 0.20919 1.6881 1.2777 2.8534 2.3745 3.0484 2.869 4.9196 4.4882 5.1868 4.4882 0.33366 0 1.8684-3.1516 2.9634-6.0854 1.7887-4.7924 3.0813-11.16 3.0918-15.231l5e-3 -1.8692-0.96477-0.46006c-0.71171-0.33939-0.8871-0.53775-0.66864-0.75621 0.21846-0.21845 0.47152-0.21622 0.96477 9e-3l0.66864 0.30465v-1.705c0-5.6389-2.1169-13.915-5.0583-19.777-2.2002-4.3844-6.0155-10.055-7.026-10.443-0.21517-0.0826-1.3049 0.092-2.4217 0.38794-3.6184 0.95888-3.411 0.95615-3.5445 0.0466-0.14235-0.96991 0.12118-1.1446 2.7251-1.8058l1.8537-0.47075-2.0016-1.9013c-2.1848-2.0754-5.94-4.9312-8.5318-6.4884-2.4854-1.4933-7.3285-3.7169-9.9034-4.547l-2.2909-0.73847 0.13064-0.94554c0.0718-0.52004 0.17483-1.0906 0.22884-1.2678 0.054-0.17725 1.1946-0.87294 2.5347-1.546l2.4366-1.2237 1.8745 0.72283c7.1882 2.7719 14.696 7.8862 20.226 13.778 2.1026 2.2403 2.4312 2.4935 2.9065 2.2392 0.81327-0.43525 0.88478-0.35639 0.44608 0.49198-0.24712 0.47787-0.30293 0.8404-0.14445 0.93834 0.64723 0.40001 4.6779 6.8584 6.1869 9.9134 3.7868 7.6662 5.7237 15.865 5.7237 24.227 0 2.613 0.0987 3.8307 0.33073 4.0806 0.1819 0.19598 0.19983 0.28338 0.0399 0.19423-0.19475-0.10853-0.39856 0.73114-0.61672 2.5409-0.4119 3.4169-1.1608 7.0933-2.0328 9.979-0.87883 2.9083-3.0396 8.1653-4.1808 10.172l-0.89449 1.5725 1.5185 1.9993c0.83519 1.0996 1.6599 2.297 1.8326 2.6608l0.31413 0.66146-0.46702-0.66146c-0.66315-0.93925-3.2952-3.7042-3.5262-3.7042-0.10628 0-0.71323 0.79924-1.3488 1.7761-5.3361 8.2016-12.75 14.85-21.528 19.306-5.3818 2.732-11.178 4.6194-16.949 5.5191-2.5283 0.39415-11.042 0.72813-12.684 0.49759zm1.1906-7.9523c-7.2056-0.63206-12.301-2.2408-14.297-4.5135-0.98872-1.1261-0.98495-1.6788 0.0215-3.1416l0.8059-1.1713 1.0878 0.55498c2.8192 1.4382 6.7414 2.109 13.335 2.2805 7.2821 0.18937 13.223-0.55314 16.293-2.0363 1.2322-0.59535 1.4512-0.50836 2.34 0.92971 0.69275 1.1209 0.49335 1.9768-0.70581 3.0296-1.9291 1.6938-5.2274 2.903-9.6717 3.5457-3.0169 0.43633-7.3717 0.68329-9.2083 0.52219zm-17.686-6.8259c-3.2038-4.4613-5.2076-12.526-4.6393-18.671l0.23246-2.5135 1.9342-0.0751c1.8207-0.0707 1.9797-0.127 2.71-0.95878 0.91104-1.0376 2.7807-1.905 4.6369-2.1512 2.4305-0.32241 8.134 0.91858 10.827 2.3558 1.0325 0.55101 1.4004 0.56802 15.081 0.69708l14.023 0.1323 0.23315 2.6458c0.44174 5.013-0.72199 11.061-3.0034 15.61-0.72985 1.4552-1.6106 2.9863-1.9573 3.4025l-0.63028 0.75664-0.62837-1.2858c-0.35464-0.72569-1.6751-2.3519-3.0312-3.7332l-2.4028-2.4474h-26.372l-2.4028 2.4474c-1.3265 1.3512-2.6778 3.0103-3.0167 3.7042-0.33763 0.69122-0.64487 1.2568-0.68275 1.2568-0.0379 0-0.44789-0.52776-0.91112-1.1728zm14.908 0.2244c-3.5804-0.49019-4.9746-0.73079-6.35-1.0958-1.7858-0.47398-4.101-1.548-4.101-1.9024 0-0.12847 0.66444-0.84084 1.4765-1.583l1.4765-1.3495h25.592l3.261 3.0191-0.58323 0.47227c-0.73818 0.59774-3.4218 1.4309-6.3396 1.9682-2.1576 0.39731-12.504 0.73512-14.432 0.47119zm-21.936-21.343c-0.21179-0.32742-0.4626-0.9525-0.55737-1.3891-0.32217-1.4841-0.25578-1.4434-1.7239-1.0562-0.74963 0.19775-1.5604 0.29104-1.8018 0.20731-0.73513-0.255-2.6878-2.2733-2.6878-2.7781 0-0.54285 0.21172-0.56479 1.8366-0.19031 0.64632 0.14895 1.8072 0.19186 2.5797 0.0953l1.4046-0.17549 4e-3 -1.7554c6e-3 -2.815 1.2948-7.7086 2.0297-7.7086 0.22196 0 0.74806-0.28987 1.1691-0.64416l0.76554-0.64416 27.741-0.0504 1.9384-0.89463c3.1165-1.4383 4.9735-1.8412 8.553-1.8552 3.5397-0.0139 4.6871 0.35829 6.0323 1.957 0.63054 0.74935 0.80217 0.80466 2.613 0.84213 1.6081 0.0333 2.0508 0.1421 2.5996 0.63905 0.36381 0.32942 0.88834 0.64029 1.1656 0.69082 0.34295 0.0625 0.66289 0.5572 1.0005 1.5471 0.57855 1.6961 1.2734 5.4522 1.2734 6.8833v0.99319l1.3891 0.17104c0.76398 0.0941 2.0368 0.0471 2.8284-0.10449 0.79162-0.15153 1.5319-0.18294 1.645-0.0698 0.23558 0.23558-1.6842 2.5793-2.4473 2.9877-0.46964 0.25134-1.1158 0.16328-3.1883-0.43446-0.33587-0.0969-0.50586 0.17205-0.74874 1.1845-0.17283 0.72041-0.53833 1.5126-0.81224 1.7605-0.47223 0.42737-0.54067 0.4148-1.3221-0.24271l-0.82407-0.6934h-28.203l-1.1578-0.63729c-2.6656-1.4672-8.2661-2.7224-11.029-2.4718-1.9651 0.17818-3.9764 1.047-5.0946 2.2007-0.83574 0.86228-0.97344 0.90846-2.7086 0.90846-1.564 0-1.9417 0.0956-2.6142 0.66146-0.9657 0.81258-1.1597 0.82037-1.6475 0.0661zm0.59908-15.628c-0.57088-0.43437-0.99779-1.9654-1.2293-4.4087l-0.18751-1.9786-1.3207-0.22108c-1.6523-0.27658-2.101-0.68135-2.7865-2.5135-0.74286-1.9854-0.4241-2.2026 1.5048-1.025 0.84923 0.51845 1.8417 1.0137 2.2055 1.1006 0.63593 0.15184 0.67944 0.0783 1.1273-1.9046 0.6963-3.0831 1.5012-4.6373 2.6075-5.0346 0.90102-0.32364 1.8214-1.483 1.8214-2.2942 0-0.23221 0.10468-0.4222 0.23262-0.4222s2.3008 0.78048 4.8286 1.7344c5.4215 2.0459 6.6439 2.2299 10.417 1.5679 3.6807-0.6458 11.449-0.64815 15.081-5e-3 3.7858 0.67077 5.0294 0.48545 10.497-1.5643 2.5434-0.95342 4.7641-1.7335 4.9349-1.7335s0.31055 0.27116 0.31055 0.60259c0 0.86713 0.68776 1.7246 1.8054 2.2508 0.7946 0.37415 1.0845 0.74281 1.5942 2.0274 0.34264 0.86356 0.76874 2.2846 0.94688 3.1579 0.17813 0.8733 0.46217 1.6339 0.63119 1.6902 0.32323 0.10775 2.59-0.90274 3.809-1.698 0.3943-0.25723 0.79427-0.39033 0.88882-0.29577 0.0946 0.0945-0.14841 1.0102-0.53991 2.0347-0.76509 2.0022-0.71175 1.9635-3.4767 2.5244l-0.82342 0.16704-0.13837 2.2179c-0.13603 2.1804-0.77118 4.1006-1.4226 4.301-0.16358 0.0503-0.65702-0.21108-1.0965-0.5809-0.68733-0.57836-1.0551-0.6724-2.6296-0.6724-1.7083 0-1.8824-0.0553-2.6076-0.82722-0.4274-0.45497-1.3724-1.1086-2.1-1.4526-2.9221-1.3814-9.3364-0.57273-13.892 1.7515-0.99604 0.50814-1.5653 0.52831-14.916 0.52831h-13.881l-0.78609 0.66145c-0.90436 0.76097-0.84017 0.74669-1.4095 0.31347zm-19.424-5.8482c-0.49668-0.36317-0.4919-0.37974 0.14786-0.5125 0.36363-0.0754 1.1558-0.2038 1.7603-0.28522 0.60453-0.0814 2.6656-0.74703 4.5801-1.4791 1.9145-0.73211 4.0065-1.4031 4.6488-1.4912 1.0952-0.15012 1.1851-0.11451 1.4466 0.57312 0.15332 0.40326 0.24566 0.75754 0.20521 0.78731-0.36294 0.26705-5.2118 1.594-7.7465 2.1199-3.6754 0.76261-4.3409 0.80058-5.0423 0.28766zm88.254-0.14832c-1.2369-0.25392-3.38-0.78697-4.7625-1.1846-1.3824-0.3976-2.7814-0.7851-3.1088-0.86111-0.6737-0.15641-0.7147-0.31876-0.30671-1.2142 0.27383-0.60098 0.35836-0.62075 1.6504-0.38592 0.74897 0.13613 2.0776 0.54547 2.9525 0.90964 2.9268 1.2182 6.0465 2.2014 6.9982 2.2055 0.5184 2e-3 1.1211 0.12129 1.3394 0.26458 0.35278 0.23158 0.35278 0.28948 0 0.52106-0.559 0.36697-2.1467 0.28196-4.7625-0.255zm-54.59-9.7219c-0.41102-0.0617-2.7769-0.87726-5.2575-1.8124-2.4806-0.93517-4.7982-1.7003-5.1502-1.7003s-1.1231 0.24643-1.7135 0.54763c-0.59038 0.30119-1.1272 0.49386-1.1929 0.42816-0.23339-0.23339 0.86553-7.7795 1.3812-9.4842 0.0948-0.31341-0.71971-1.1337-2.854-2.8743-1.6426-1.3396-3.0886-2.7282-3.2133-3.0856-0.30026-0.86095 0.0313-3.4063 0.49372-3.7901 0.29574-0.24545 0.51766-8e-3 1.1568 1.2382 0.90697 1.7682 3.1233 4.132 4.5628 4.8664l0.98308 0.50153 1.3663-2.5745c2.1335-4.0201 5.1153-8.2833 7.7153-11.031 2.3205-2.4519 2.4338-2.5317 4.5413-3.1976 3.4424-1.0877 6.9247-1.5162 11.025-1.3568 3.8921 0.15133 5.3405 0.38865 8.6817 1.4225l2.1994 0.68055 2.3811 2.6528c2.6403 2.9417 5.5574 7.1784 7.6329 11.086l1.3634 2.5669 1.2709-0.78197c1.6849-1.0367 3.5115-3.0238 4.3937-4.7798 0.39355-0.78331 0.76723-1.4803 0.8304-1.5488 0.43224-0.46905 1.0742 2.8859 0.77804 4.066-0.13862 0.55229-1.4915 1.7718-5.7708 5.2015-0.49656 0.39799-0.49977 0.48615-0.0966 2.6458 0.74278 3.9788 1.1414 7.6582 0.8296 7.6571-0.15639-5.3e-4 -0.67417-0.23867-1.1506-0.52917-0.47646-0.29049-1.1521-0.52818-1.5013-0.52818s-2.6982 0.76467-5.2199 1.6993c-5.4744 2.0289-6.8265 2.2391-10.14 1.576-3.2446-0.64943-12.489-0.65479-15.61-9e-3 -2.0486 0.42383-3.1507 0.48146-4.716 0.2466zm13.679-7.25c0.0909-0.45475 0.16536-4.0862 0.16536-8.0698v-7.243h1.4552c0.80036 0 1.4552-0.0389 1.4552-0.0863 0-0.20873-4.2516-7.4543-4.3741-7.4543-0.0751 0-1.0839 1.6669-2.2419 3.7042l-2.1054 3.7042 2.9006 0.1588 3e-3 7.0644c2e-3 3.8854 0.0767 7.5109 0.16691 8.0566 0.15949 0.96492 0.19487 0.99219 1.2869 0.99219 1.046 0 1.1343-0.0566 1.2883-0.82683zm-49.312-17.604c-1.0914-0.21538-3.1155-0.48398-4.4979-0.59687l-2.5135-0.20526 3.3073-0.0384c4.3543-0.0506 6.0324 0.15724 6.3704 0.78891 0.3204 0.59868 0.12489 0.60246-2.6663 0.0516zm94.196 0.24094c0.0178-0.87271 0.51225-0.9753 4.942-1.0254 3.9414-0.0446 4.1611-0.0259 1.9332 0.16427-1.3824 0.11802-3.4468 0.40472-4.5873 0.63709-2.4101 0.49103-2.293 0.47956-2.2878 0.22407zm-58.16-8.2366c0.24022-0.94642 0.34596-1.0382 1.3516-1.1731 0.60007-0.0805 1.2274-0.33283 1.3941-0.56076 0.26512-0.36258 1.4672-0.41442 9.6087-0.41442 7.9975 0 9.327 0.0554 9.4569 0.394 0.0832 0.2167 0.61282 0.5183 1.177 0.67023 0.83511 0.22487 1.0686 0.43447 1.2559 1.1274 0.12652 0.46812 0.21309 0.87607 0.19238 0.90657-0.0207 0.0305-0.9613-0.23787-2.0902-0.59636-6.1174-1.9426-14.454-1.9255-20.482 0.0421-1.0634 0.34711-1.9766 0.63112-2.0294 0.63112-0.0528 0 0.0213-0.46204 0.16463-1.0267zm23.033-1.6273c-0.72718-0.29229-0.72718-0.29229-0.0378-2.3335 0.50368-1.4915 0.5922-1.6049 0.91751-1.1758 0.31667 0.41767 0.33172 0.37231 0.12494-0.37639-0.12932-0.4682-0.30127-0.95831-0.38211-1.0891-0.25583-0.41394 0.70591-1.0142 2.6186-1.6345 1.0186-0.33032 2.6319-0.99006 3.5851-1.4661l1.733-0.86552-0.033-2.5369c-0.0182-1.3953 0.061-2.5369 0.17591-2.5369 0.39467 0 0.68552 0.92892 0.86623 2.7666 0.0995 1.0123 0.31299 1.9996 0.47431 2.194 0.41515 0.50022 0.14729 0.70007-2.8573 2.1318-3.0333 1.4454-4.6057 2.3736-4.6057 2.7187 0 0.13365-0.23813 0.48113-0.52917 0.77217s-0.41791 0.52917-0.28193 0.52917 6e-3 0.71437-0.28887 1.5875c-0.29486 0.87312-0.61448 1.58-0.71026 1.5707-0.0958-9e-3 -0.44204-0.12445-0.76946-0.25605zm-22.363-0.16876c-0.0715-0.12093-0.21247-0.63659-0.3132-1.1459-0.10074-0.50932-0.24755-1.1524-0.32624-1.4291-0.111-0.39028-0.0422-0.46434 0.30683-0.3304 0.29842 0.11451 0.17432-0.17531-0.36856-0.86076-0.63235-0.7984-1.6043-1.415-4.2742-2.7116-3.2547-1.5806-3.4468-1.7168-3.3038-2.3404 0.0835-0.36417 0.22046-1.317 0.30428-2.1173 0.19252-1.8386 0.59352-2.9104 1.0888-2.9104 0.29966 0 0.34141 0.192 0.18697 0.85989-0.10935 0.47295-0.20811 1.6031-0.21945 2.5115l-0.0206 1.6516 1.4552 0.77176c0.80036 0.42447 2.5675 1.1585 3.9269 1.6312 2.4436 0.84962 2.9892 1.2667 2.4909 1.9039-0.37563 0.48039-0.5859 1.518-0.30763 1.518 0.1319 0 0.25177-0.14883 0.26638-0.33073 0.0146-0.1819 0.19357 0.43289 0.39768 1.3662 0.20411 0.93331 0.34074 1.7273 0.30362 1.7644-0.22401 0.224-1.4858 0.38082-1.5939 0.19808zm2.0491-3.8579c-0.28573-1.3509-1.0477-1.9406-3.7218-2.8806-1.3686-0.4811-2.4884-0.957-2.4884-1.0576 0-0.20317 4.5962-1.319 7.6729-1.8627 2.6889-0.4752 13.98-0.4752 16.669 0 3.1225 0.55183 7.656 1.6568 7.8082 1.9031 0.0761 0.1232-0.88995 0.5589-2.1469 0.96823-2.2534 0.73385-4.0685 1.971-4.0779 2.7795-0.0111 0.95883-0.34129 1.0229-3.1869 0.61847-3.5352-0.50244-10.235-0.50512-13.478-5e-3 -1.3824 0.21306-2.5934 0.38952-2.691 0.39213-0.0976 3e-3 -0.25926-0.38221-0.3593-0.85515z" clip-path="url(#clipPath918)" fill="#e4002b" stroke-width=".41727"/></g><path d="m156.86 156.16c1.4926 1.3144 1.3726 1.2446 1.6121 1.4849" stroke-width=".3" style="paint-order:stroke fill markers"/><path d="m156.45 156.71 1.8823 1.6535" fill="#e4002b" stroke-width=".3" style="paint-order:stroke fill markers"/><g stroke-width=".3"><path d="m157.07 156.15-0.63877 0.74624" style="paint-order:stroke fill markers"/><path d="m154.72 154.47 1.7869 1.4076" style="paint-order:stroke fill markers"/><path d="m154.28 155.17 1.6981 1.2344" style="paint-order:stroke fill markers"/><path d="m156.47 155.68-0.64275 0.81231" style="paint-order:stroke fill markers"/><path d="m89.925 155.98c-1.4865 1.3214-1.3668 1.251-1.6051 1.4924" style="paint-order:stroke fill markers"/></g><path d="m90.39 156.64-2.0163 1.6623" fill="#e4002b" stroke-width=".3" style="paint-order:stroke fill markers"/><g stroke-width=".3"><path d="m89.725 155.96 0.67768 0.84956" style="paint-order:stroke fill markers"/><path d="m92.128 154.29-1.7803 1.4159" style="paint-order:stroke fill markers"/><path d="m92.575 154.99-1.6923 1.2424" style="paint-order:stroke fill markers"/><path d="m90.384 155.51 0.64654 0.8093" style="paint-order:stroke fill markers"/></g></g><g stroke="#fff" aria-label="95"><path d="m111.21 150.96h-9.0876q-0.75071 0-1.1063-0.31609-0.31609-0.3556-0.31609-1.1063v-4.6623q0-0.75071 0.31609-1.0668 0.3556-0.3556 1.1063-0.3556h7.3886q1.4619 0 1.9756-0.43462 0.51364-0.47414 0.51364-1.936v-0.86924q-0.94826 0.27658-2.2126 0.43462-1.2248 0.15804-2.8053 0.15804-5.334 0-7.3096-1.778-1.9756-1.8175-1.9756-5.334v-3.7931q0-1.8175 0.47413-3.2794 0.51364-1.4619 1.778-2.4892 1.3039-1.0668 3.5165-1.62 2.2126-0.59266 5.6106-0.59266 3.635 0 5.9267 0.59266 2.3312 0.55316 3.635 1.62 1.3039 1.0273 1.778 2.4892 0.51364 1.4619 0.51364 3.2794v12.96q0 3.5955-2.0941 5.8476-2.0546 2.2521-7.6256 2.2521zm0.79022-18.096v-2.3312q0-0.63218-0.47413-1.0273-0.47413-0.43462-2.1731-0.43462-1.778 0-2.2521 0.43462-0.47414 0.39511-0.47414 1.0273v2.3312q0 0.59267 0.47414 1.0273 0.47413 0.39511 2.2521 0.39511 1.699 0 2.1731-0.39511 0.47413-0.43462 0.47413-1.0273z"/><path d="m139.38 150.96h-12.565q-0.75072 0-1.1063-0.31609-0.31608-0.3556-0.31608-1.1063v-4.6228q0-0.75071 0.31608-1.0668 0.3556-0.3556 1.1063-0.3556h10.194q0.47413 0 0.75071-0.19756 0.31609-0.23706 0.31609-0.7112v-1.5409q0-0.47413-0.31609-0.67169-0.27658-0.23706-0.75071-0.23706h-9.7988q-0.75071 0-1.1063-0.31609-0.31609-0.3556-0.31609-1.1063v-14.777q0-0.75071 0.31609-1.0668 0.3556-0.3556 1.1063-0.3556h17.029q0.75071 0 1.0668 0.3556 0.3556 0.31609 0.3556 1.0668v4.7018q0 0.75071-0.3556 1.1063-0.31609 0.31608-1.0668 0.31608h-9.4827v2.5682h5.413q3.2004 0 5.0574 1.5804t1.857 4.7018v5.492q0 3.0028-2.0941 4.7808-2.0546 1.778-5.6106 1.778z"/></g><path d="m123.98 70.189c-36.689 0-66.549 29.86-66.549 66.549s29.86 66.549 66.549 66.549c36.689 0 66.549-29.86 66.549-66.549s-29.86-66.549-66.549-66.549zm0 10.992c2.4486 0 4.8586 0.15894 7.2223 0.46405v6.9345l1.9105 0.36327c5.0854 0.96618 9.95 2.7272 14.496 5.2483v-0.0026c4.8392 2.684 9.1641 6.1498 12.856 10.299 3.9012 4.3848 6.9459 9.3584 9.0547 14.797v3e-3h3e-3c2.1873 5.6347 3.2949 11.573 3.2949 17.678 0 5.5952-0.93308 11.053-2.7673 16.256l-0.64648 1.8355 5.7707 3.3512c-1.8958 4.4884-4.3659 8.6714-7.3153 12.462l-5.7371-3.3285-1.2754 1.4609c-4.1513 4.7649-9.2848 8.7781-14.875 11.606l-3e-3 3e-3c-3.347 1.6964-6.8913 3.0015-10.53 3.8752-3.7478 0.90103-7.6222 1.3648-11.514 1.3648-3.8867 0-7.7604-0.45892-11.498-1.3591h-3e-3c-3.6376-0.87357-7.1754-2.1777-10.525-3.869-5.5844-2.8216-10.718-6.8222-14.861-11.578l-1.2738-1.463-5.6632 3.2887c-2.9497-3.7906-5.4189-7.9735-7.3147-12.462l5.6927-3.3042-0.65267-1.8376c-1.847-5.2148-2.7848-10.693-2.7848-16.301 0-6.1125 1.107-12.057 3.3006-17.698h0.0026v-3e-3c2.1154-5.4518 5.165-10.426 9.08-14.818 3.7042-4.155 8.0354-7.6117 12.889-10.297 4.5516-2.5142 9.4298-4.2667 14.529-5.2266l1.9141-0.36174v-6.9169c2.3637-0.30512 4.7743-0.46405 7.2229-0.46405zm-11.922 1.2795v2.3652c-4.885 1.1089-9.6126 2.7789-14.016 5.211l-0.0026 0.0026c-5.3135 2.9392-10.069 6.7332-14.123 11.281-4.2817 4.8036-7.6352 10.272-9.9534 16.246-2.4039 6.1821-3.623 12.717-3.623 19.399 0 5.4614 0.94575 10.797 2.5549 15.945l-1.7689 1.0268c-1.753-5.413-2.7037-11.192-2.7037-17.199 0-26.654 18.643-48.84 43.635-54.277zm23.844 0c24.992 5.4374 43.635 27.624 43.635 54.277 0 6.0075-0.95046 11.787-2.7037 17.2l-1.8547-1.0769c1.597-5.133 2.5368-10.449 2.5368-15.896 0-6.675-1.2167-13.203-3.6132-19.377v-3e-3c-2.3111-5.9597-5.6577-11.426-9.9255-16.223-4.0402-4.5407-8.7872-8.3429-14.088-11.283-4.3966-2.4383-9.1124-4.1147-13.986-5.2302zm27.045 90.992 1.818 1.0552c-10.138 10.946-24.641 17.787-40.785 17.787-16.143 0-30.647-6.841-40.785-17.787l1.6578-0.96327c4.293 4.5778 9.3641 8.4585 14.928 11.27v3e-3c3.6694 1.8526 7.5475 3.2841 11.545 4.2442 4.1034 0.98827 8.3444 1.4883 12.6 1.4883 4.2645 0 8.5042-0.50866 12.611-1.496 3.9969-0.95983 7.8823-2.3908 11.555-4.2519 5.5644-2.8146 10.562-6.7715 14.855-11.348z" color="#000000" color-rendering="auto" dominant-baseline="auto" image-rendering="auto" shape-rendering="auto" solid-color="#000000" style="font-feature-settings:normal;font-variant-alternates:normal;font-variant-caps:normal;font-variant-ligatures:normal;font-variant-numeric:normal;font-variant-position:normal;isolation:auto;mix-blend-mode:normal;paint-order:markers stroke fill;shape-padding:0;text-decoration-color:#000000;text-decoration-line:none;text-decoration-style:solid;text-indent:0;text-orientation:mixed;text-transform:none;white-space:normal"/><g fill="#e4002b" stroke="#000" stroke-width=".3"><path d="m92.248 111.72 5.1499 1.2284" style="paint-order:stroke fill markers"/><path d="m96.453 114.08-4.6302-1.5592" style="paint-order:stroke fill markers"/><path d="m87.902 136.9-4.7719 2.7876" style="paint-order:stroke fill markers"/><path d="m87.713 137.61-4.6302 2.4568" style="paint-order:stroke fill markers"/><path d="m149.34 112.92 5.4946-1.3675" style="paint-order:stroke fill markers"/><path d="m150.09 114.21 5.0442-1.9259" style="paint-order:stroke fill markers"/><path d="m159.12 137.13 4.7174 2.537" style="paint-order:stroke fill markers"/><path d="m159.07 137.77 4.7469 2.5095" style="paint-order:stroke fill markers"/></g></g></svg>
