<?xml version="1.0" encoding="UTF-8" standalone="no"?>
<svg
   xmlns:dc="http://purl.org/dc/elements/1.1/"
   xmlns:cc="http://creativecommons.org/ns#"
   xmlns:rdf="http://www.w3.org/1999/02/22-rdf-syntax-ns#"
   xmlns:svg="http://www.w3.org/2000/svg"
   xmlns="http://www.w3.org/2000/svg"
   id="svg9950"
   version="1.1"
   viewBox="0 0 133.09781 133.09781"
   height="133.09781mm"
   width="133.09781mm">
  <defs
     id="defs9944">
    <clipPath
       id="clipPath1605"
       clipPathUnits="userSpaceOnUse">
      <circle
         r="201.74637"
         cy="14.6938"
         cx="-0.90742505"
         id="circle1607"
         style="fill:#ffffff;fill-opacity:0.996078;fill-rule:evenodd;stroke:none;stroke-width:4.92495" />
    </clipPath>
    <clipPath
       id="clipPath5615"
       clipPathUnits="userSpaceOnUse">
      <ellipse
         ry="50.368156"
         rx="48.856251"
         cy="136.7381"
         cx="124.32138"
         id="ellipse5617"
         style="fill:none;fill-opacity:1;fill-rule:evenodd;stroke:#000000;stroke-width:1.03906;stroke-miterlimit:2.613" />
    </clipPath>
    <clipPath
       id="clipPath1053"
       clipPathUnits="userSpaceOnUse">
      <circle
         r="49.385502"
         cy="136.75809"
         cx="124.82873"
         id="circle1055"
         style="fill:none;fill-rule:evenodd;stroke:#000000;stroke-width:1.01538;stroke-miterlimit:2.613" />
    </clipPath>
    <clipPath
       id="clipPath1254"
       clipPathUnits="userSpaceOnUse">
      <rect
         y="193.13318"
         x="194.26929"
         height="43.297665"
         width="25.123335"
         id="rect1256"
         style="fill:none;fill-rule:evenodd;stroke:#000000;stroke-width:1;stroke-miterlimit:2.613" />
    </clipPath>
    <clipPath
       id="clipPath5134"
       clipPathUnits="userSpaceOnUse">
      <path
         id="path5136"
         d="m 117.76157,189.05214 c -11.79995,-1.63845 -22.399425,-7.05536 -30.860559,-15.77143 -1.75587,-1.80877 -3.290835,-3.28868 -3.411035,-3.28868 -0.120197,0 -1.486344,0.73095 -3.035879,1.62432 -1.549534,0.89337 -2.873861,1.62431 -2.94295,1.62431 -0.493078,0 -7.518533,-11.89852 -7.518533,-12.73361 0,-0.0926 1.324831,-0.94731 2.944069,-1.89938 1.619238,-0.95207 2.970661,-1.74953 3.003163,-1.77212 0.0325,-0.0226 -0.452996,-1.60566 -1.078883,-3.51794 -1.919069,-5.86335 -2.566714,-10.93193 -2.324421,-18.19131 0.165652,-4.96312 0.433109,-7.19438 1.223732,-10.20898 3.291828,-12.55157 9.813836,-22.31214 20.01244,-29.949816 5.513107,-4.128726 14.015846,-7.879183 20.583976,-9.079346 l 2.74103,-0.500855 v -3.729706 -3.729706 l 2.49604,-0.260888 c 3.15569,-0.329835 7.64031,-0.328866 10.39695,0.0022 l 2.13192,0.256073 v 3.801182 c 0,3.45709 0.0695,3.801182 0.7677,3.801182 1.61703,0 8.68223,2.083506 12.1827,3.592643 13.96967,6.022654 24.53855,17.611317 29.26124,32.084637 3.26804,10.01536 3.28022,21.72884 0.0331,31.82616 -0.65932,2.05024 -1.16029,3.75449 -1.11327,3.78724 0.047,0.0327 1.41033,0.82545 3.02957,1.76158 1.61924,0.93609 2.94407,1.78988 2.94407,1.89729 0,0.6027 -3.24528,6.53886 -5.14784,9.41624 l -2.21711,3.35315 -3.1475,-1.70577 -3.1475,-1.70575 -2.99636,3.15439 c -7.13386,7.5101 -16.39898,12.82691 -26.349,15.12041 -4.91519,1.13296 -13.81555,1.58723 -18.46086,0.94223 z"
         style="fill:none;fill-rule:evenodd;stroke:#ff0000;stroke-width:0.767392;stroke-linecap:round;paint-order:stroke fill markers" />
    </clipPath>
  </defs>
  <metadata
     id="metadata9947">
    <rdf:RDF>
      <cc:Work
         rdf:about="">
        <dc:format>image/svg+xml</dc:format>
        <dc:type
           rdf:resource="http://purl.org/dc/dcmitype/StillImage" />
        <dc:title></dc:title>
      </cc:Work>
    </rdf:RDF>
  </metadata>
  <g
     transform="translate(-57.427285,-70.189195)"
     id="layer1">
    <path
       id="path1016"
       d="m 117.76157,189.0521 c -11.79995,-1.63845 -22.39942,-7.05536 -30.86056,-15.77143 -1.75587,-1.80877 -3.29083,-3.28868 -3.41103,-3.28868 -0.1202,0 -1.48635,0.73095 -3.03588,1.62432 -1.54954,0.89337 -2.87386,1.62431 -2.94295,1.62431 -0.49308,0 -7.518535,-11.89852 -7.518535,-12.73361 0,-0.0926 1.324831,-0.94731 2.944069,-1.89938 1.619236,-0.95207 2.970666,-1.74953 3.003166,-1.77212 0.0325,-0.0226 -0.453,-1.60566 -1.07889,-3.51794 -1.919065,-5.86335 -2.56671,-10.93193 -2.324417,-18.19131 0.165652,-4.96312 0.433109,-7.19438 1.223732,-10.20898 3.291825,-12.55157 9.813835,-22.31214 20.012445,-29.949776 5.5131,-4.128726 14.01584,-7.879183 20.58397,-9.079346 l 2.74103,-0.500855 v -3.729706 -3.729706 l 2.49604,-0.260888 c 3.15569,-0.329835 7.64031,-0.328866 10.39695,0.0022 l 2.13192,0.256073 v 3.801182 c 0,3.45709 0.0695,3.801182 0.7677,3.801182 1.61703,0 8.68223,2.083506 12.1827,3.592643 13.96967,6.022654 24.53855,17.611287 29.26124,32.084597 3.26804,10.01536 3.28022,21.72884 0.0331,31.82616 -0.65932,2.05024 -1.16029,3.75451 -1.11327,3.78726 0.047,0.0327 1.41033,0.82545 3.02957,1.76156 1.61924,0.93611 2.94407,1.78989 2.94407,1.89729 0,0.6027 -3.24528,6.53886 -5.14784,9.41626 l -2.21711,3.35313 -3.1475,-1.70576 -3.1475,-1.70575 -2.99636,3.15439 c -7.13386,7.51011 -16.39898,12.82691 -26.349,15.12041 -4.91519,1.13297 -13.81555,1.58723 -18.46086,0.94222 z"
       style="fill:#ffffff;fill-rule:evenodd;stroke:none;stroke-width:0.767392;stroke-linecap:round;paint-order:stroke fill markers" />
    <path
       transform="matrix(0.26458333,0,0,0.26458333,57.427285,70.189195)"
       id="path901"
       d=""
       style="fill:#ffffff;fill-opacity:0.992157;fill-rule:evenodd;stroke-width:5.39933" />
    <path
       transform="matrix(0.26458333,0,0,0.26458333,57.427285,70.189195)"
       id="path940"
       d="m 225.71429,459.2571 c -43.8651,-6.08836 -84.33307,-25.03594 -116.1937,-54.40325 -9.14045,-8.42515 -10.775607,-10.55168 -8.91441,-11.59326 1.73824,-0.97277 4.76834,0.97876 12.76489,8.22121 30.82041,27.91393 66.48187,45.22546 105.89414,51.40532 19.13798,3.00085 56.72755,2.26021 73.59193,-1.44999 36.42253,-8.01305 68.67785,-24.75315 94.50433,-49.04655 8.9563,-8.42466 11.72173,-10.27783 14.17523,-9.49912 2.89806,0.91981 2.777,1.24956 -2.45856,6.69689 -9.413,9.79373 -27.70791,23.92585 -41.17711,31.80775 -21.7032,12.70026 -43.49113,20.95253 -68.00663,25.75779 -14.07113,2.75808 -50.79207,3.96143 -64.18011,2.10321 z"
       style="fill:#ffffff;fill-opacity:0.992157;fill-rule:evenodd;stroke-width:5.39933" />
    <path
       transform="matrix(0.26458333,0,0,0.26458333,57.427285,70.189195)"
       id="path979"
       d="m 447.25337,312.9903 c -1.28714,-1.5509 -1.01948,-4.56761 1.17244,-13.21429 6.5933,-26.0092 7.56028,-61.93535 2.33946,-86.91887 -16.02194,-76.67087 -70.56395,-135.233263 -145.3018,-156.012234 -7.10703,-1.975931 -8.32061,-2.800078 -8.32061,-5.65055 0,-4.368681 1.28832,-4.265419 18.94503,1.518489 52.67255,17.254246 97.83719,56.125145 122.72375,105.622055 7.69753,15.30962 16.16245,41.41424 19.0696,58.80796 4.49327,26.88357 2.61782,63.86171 -4.5465,89.64285 -2.3854,8.58396 -3.31745,9.5349 -6.08137,6.20459 z"
       style="fill:#ffffff;fill-opacity:0.992157;fill-rule:evenodd;stroke-width:5.39933" />
    <path
       transform="matrix(0.26458333,0,0,0.26458333,57.427285,70.189195)"
       id="path1135"
       d="m 48.850869,303.21429 c -5.142043,-20.69395 -6.401492,-34.08242 -5.587025,-59.39238 0.592614,-18.41575 1.578907,-27.26207 4.346045,-38.9808 16.975865,-71.8921 69.497841,-129.308841 139.159371,-152.128265 17.67411,-5.789613 18.94503,-5.889991 18.94503,-1.496303 0,2.941916 -1.19835,3.677878 -9.64286,5.922134 C 133.54372,73.756357 80.70944,123.38011 59.374383,185.52919 47.03141,221.4843 45.122289,265.09001 54.324767,300.86611 c 1.942799,7.55293 2.25942,10.94286 1.147239,12.28296 -2.766632,3.33359 -3.655671,1.99962 -6.621137,-9.93478 z"
       style="fill:#ffffff;fill-opacity:0.992157;fill-rule:evenodd;stroke-width:5.39933" />
    <g
       clip-path="url(#clipPath5134)"
       id="g5098">
      <g
         id="g4692">
        <path
           d="m -114.28571,401.42857 79.179463,137.14287 -158.358933,-1e-5 z"
           transform="matrix(0.15370709,0,0,0.23291335,173.92998,58.345186)"
           id="path3950-2"
           style="fill:#008000;fill-rule:evenodd;stroke-width:7.56283;stroke-linecap:round;paint-order:stroke fill markers;stop-color:#000000" />
        <path
           d="m -211.42857,525.27209 72.13932,124.94898 -144.27865,0 z"
           transform="matrix(0.1135774,0,0,0.11862494,180.37696,89.532889)"
           id="path3952-6"
           style="fill:#008000;fill-rule:evenodd;stroke-width:7.56283;stroke-linecap:round;paint-order:stroke fill markers;stop-color:#000000" />
      </g>
      <g
         id="g4696">
        <path
           d="m -114.28571,401.42857 79.179463,137.14287 -158.358933,-1e-5 z"
           transform="matrix(-0.15370709,0,0,0.23291335,74.08903,58.844597)"
           id="path3950-2-1"
           style="fill:#008000;fill-rule:evenodd;stroke-width:7.56283;stroke-linecap:round;paint-order:stroke fill markers;stop-color:#000000" />
        <path
           d="m -211.42857,525.27209 72.13932,124.94898 -144.27865,0 z"
           transform="matrix(0.1135774,0,0,0.11862494,115.66906,90.0323)"
           id="path3952-74"
           style="fill:#008000;fill-rule:evenodd;stroke-width:7.56283;stroke-linecap:round;paint-order:stroke fill markers;stop-color:#000000" />
      </g>
      <g
         id="g5081">
        <path
           d="m -114.28571,401.42857 79.179463,137.14287 -158.358933,-1e-5 z"
           transform="matrix(-0.15370709,0,0,0.23291335,90.28267,62.819331)"
           id="path3950-7-1"
           style="fill:#008000;fill-rule:evenodd;stroke-width:7.56283;stroke-linecap:round;paint-order:stroke fill markers;stop-color:#000000;stroke:#ffffff" />
        <path
           d="m -211.42857,525.27209 72.13932,124.94898 -144.27865,0 z"
           transform="matrix(0.1135774,0,0,0.11862494,131.8627,94.007034)"
           id="path3952-7"
           style="fill:#008000;fill-rule:evenodd;stroke-width:7.56283;stroke-linecap:round;paint-order:stroke fill markers;stop-color:#000000" />
      </g>
      <g
         id="g5059">
        <path
           d="m -114.28571,401.42857 79.179463,137.14287 -158.358933,-1e-5 z"
           transform="matrix(0.15370709,0,0,0.23291335,157.73634,62.31992)"
           id="path3950-7"
           style="fill:#008000;fill-rule:evenodd;stroke-width:7.56283;stroke-linecap:round;paint-order:stroke fill markers;stop-color:#000000;stroke:#ffffff" />
        <path
           d="m -211.42857,525.27209 72.13932,124.94898 -144.27865,0 z"
           transform="matrix(0.1135774,0,0,0.11862494,164.18332,93.507623)"
           id="path3952-2"
           style="fill:#008000;fill-rule:evenodd;stroke-width:7.56283;stroke-linecap:round;paint-order:stroke fill markers;stop-color:#000000" />
      </g>
      <g
         id="g4989">
        <path
           d="m -114.28571,401.42857 79.179463,137.14287 -158.358933,-1e-5 z"
           transform="matrix(0.15370709,0,0,0.23291335,141.54271,66.065171)"
           id="path3950"
           style="fill:#008000;fill-rule:evenodd;stroke-width:7.56283;stroke-linecap:round;paint-order:stroke fill markers;stop-color:#000000;stroke:#ffffff" />
        <path
           d="m -211.42857,525.27209 72.13932,124.94898 -144.27865,0 z"
           transform="matrix(0.1135774,0,0,0.11862494,147.9897,97.252873)"
           id="path3952"
           style="fill:#008000;fill-rule:evenodd;stroke-width:7.56283;stroke-linecap:round;paint-order:stroke fill markers;stop-color:#000000" />
      </g>
    </g>
    <path
       id="circle1064"
       d="m 124.32138,70.189195 c -36.688672,0 -66.548912,29.860245 -66.548912,66.548905 0,36.68866 29.86024,66.5489 66.548912,66.5489 36.68866,0 66.54891,-29.86024 66.54891,-66.5489 0,-36.68866 -29.86025,-66.548905 -66.54891,-66.548905 z m 0,10.992088 c 2.44856,0 4.85859,0.158935 7.2223,0.464053 V 88.5798 l 1.91048,0.363273 c 5.08542,0.966179 9.95,2.727219 14.49575,5.248275 v -0.0026 c 4.83918,2.68404 9.16414,6.149842 12.85555,10.298592 3.90123,4.38481 6.9459,9.35842 9.05473,14.79703 v 0.003 h 0.003 c 2.18728,5.63467 3.29491,11.57264 3.29491,17.67798 0,5.59517 -0.93308,11.05347 -2.76728,16.25587 l -0.64648,1.83554 5.77072,3.35122 c -1.89585,4.48836 -4.36586,8.67142 -7.31533,12.46177 l -5.73712,-3.32849 -1.27537,1.4609 c -4.15132,4.76486 -9.28479,8.77808 -14.87454,11.6055 l -0.003,0.003 c -3.34703,1.69637 -6.89134,3.00151 -10.5296,3.87522 -3.74782,0.90103 -7.62224,1.36477 -11.5135,1.36477 -3.88673,0 -7.76044,-0.45892 -11.49802,-1.35909 h -0.003 c -3.63763,-0.87357 -7.17537,-2.17768 -10.52545,-3.86902 -5.584405,-2.82155 -10.718459,-6.82218 -14.86112,-11.5781 l -1.273836,-1.46296 -5.663221,3.2887 c -2.949672,-3.79056 -5.418949,-7.97347 -7.314715,-12.46162 l 5.692669,-3.3042 -0.652674,-1.83761 c -1.84703,-5.21475 -2.784819,-10.69321 -2.784819,-16.30082 0,-6.11251 1.107017,-12.05711 3.300571,-17.69761 h 0.0026 v -0.003 c 2.115397,-5.45176 5.165011,-10.42598 9.08005,-14.8182 3.704246,-4.15499 8.03537,-7.611691 12.888625,-10.296524 4.5516,-2.514177 9.42978,-4.266724 14.52936,-5.226553 l 1.9141,-0.361738 v -6.916943 c 2.36373,-0.305117 4.7743,-0.464052 7.22286,-0.464052 z m -11.92176,1.279499 v 2.365242 c -4.88503,1.108922 -9.6126,2.778919 -14.015701,5.211048 l -0.0026,0.0026 c -5.313469,2.93923 -10.068798,6.733249 -14.123168,11.280958 -4.281725,4.80357 -7.63516,10.27152 -9.953387,16.24605 -2.403924,6.18207 -3.623045,12.71728 -3.623045,19.3988 0,5.46135 0.945753,10.79683 2.554896,15.9453 l -1.768898,1.0268 c -1.75305,-5.413 -2.703698,-11.19182 -2.703698,-17.19895 0,-26.65362 18.642753,-48.839966 43.635061,-54.277312 z m 23.84351,0 c 24.99218,5.437425 43.63456,27.623798 43.63456,54.277318 0,6.00749 -0.95046,11.78668 -2.70373,17.19998 l -1.85467,-1.07694 c 1.59697,-5.13302 2.5368,-10.44924 2.5368,-15.89619 0,-6.67496 -1.21674,-13.20287 -3.61321,-19.37711 v -0.003 c -2.31111,-5.95968 -5.65766,-11.42595 -9.9255,-16.22279 -4.04016,-4.5407 -8.78721,-8.342895 -14.08803,-11.283025 -4.39656,-2.43832 -9.11238,-4.11472 -13.98622,-5.230177 z m 27.04487,90.992378 1.81797,1.05524 c -10.1382,10.94574 -24.64144,17.78651 -40.78459,17.78651 -16.14342,0 -30.646912,-6.84096 -40.78511,-17.78701 l 1.657773,-0.96327 c 4.29305,4.57777 9.364107,8.45854 14.927767,11.26961 v 0.003 c 3.66941,1.85256 7.54754,3.28406 11.54505,4.24418 4.10342,0.98827 8.34443,1.48828 12.59975,1.48828 4.26447,0 8.50423,-0.50866 12.6111,-1.49603 3.99692,-0.95983 7.88233,-2.39075 11.55485,-4.25194 5.56435,-2.81456 10.56196,-6.77151 14.85544,-11.34763 z"
       style="color:#000000;font-style:normal;font-variant:normal;font-weight:normal;font-stretch:normal;font-size:medium;line-height:normal;font-family:sans-serif;font-variant-ligatures:normal;font-variant-position:normal;font-variant-caps:normal;font-variant-numeric:normal;font-variant-alternates:normal;font-feature-settings:normal;text-indent:0;text-align:start;text-decoration:none;text-decoration-line:none;text-decoration-style:solid;text-decoration-color:#000000;letter-spacing:normal;word-spacing:normal;text-transform:none;writing-mode:lr-tb;direction:ltr;text-orientation:mixed;dominant-baseline:auto;baseline-shift:baseline;text-anchor:start;white-space:normal;shape-padding:0;clip-rule:nonzero;display:inline;overflow:visible;visibility:visible;opacity:1;isolation:auto;mix-blend-mode:normal;color-interpolation:sRGB;color-interpolation-filters:linearRGB;solid-color:#000000;solid-opacity:1;vector-effect:none;fill:#000000;fill-opacity:1;fill-rule:nonzero;stroke:none;stroke-width:10.9919;stroke-linecap:round;stroke-linejoin:bevel;stroke-miterlimit:4;stroke-dasharray:none;stroke-dashoffset:341.41;stroke-opacity:1;paint-order:markers stroke fill;color-rendering:auto;image-rendering:auto;shape-rendering:auto;text-rendering:auto;enable-background:accumulate" />
    <g
       id="g2062"
       style="fill:#d30214;stroke:#ffffff;stroke-width:1.83254397"
       transform="matrix(0.2651625,0,0,0.28081974,-34.351393,33.474113)">
      <path
         style="stroke:#ffffff;stroke-width:1.83254397"
         id="path2058"
         d="m 638.092,309.59572 c 0.23148,-0.61914 2.05206,-9.50851 2.44863,-11.4322 1.88166,-9.12752 13.8219,-13.9307 18.6034,-9.41431 2.97589,2.81089 -0.4566,12.2277 -0.4566,17.5143 0,5.28664 6.35858,19.824 6.35858,26.4324 0,6.6085 -1.42485,39.5957 -1.42485,48.8471 0,9.25144 -9.30577,17.3038 -13.9883,24.155 -5.16005,7.54994 -6.33856,7.8113 -7.58036,18.3889 -26.91406,13.34416 -73.59188,7.87409 -88.81821,0.36224 -11.89368,-9.1349 -12.81376,-24.755 -14.62855,-35.70829 -0.38937,-11.96197 -1.58026,-32.69051 -1.46898,-41.6638 0.0504,-4.06367 2.78465,-28.3793 2.91144,-29.4279 0.27898,-2.30719 0.9881,-28.1943 0.96304,-28.5623 -0.0494,-0.72641 0.39983,-25.9749 0.99949,-29.1042 2.21366,-11.9352 20.1759,-10.9456 21.7356,-0.0884 0.85548,2.83558 0.91027,35.2971 0.98401,35.8468 0.0847,0.63111 0.59989,16.77351 0.36893,19.08681 0.56009,-2.62549 -0.51955,-34.88411 -0.57561,-40.42441 -0.13735,-13.5751 -0.63142,-40.1806 -0.14782,-42.1842 0.31169,-9.96205 19.7811,-13.7981 22.4138,0.0818 0.65501,3.45325 1.04855,42.9022 1.14435,41.7826 0.003,0.85922 1.70705,33.74408 1.39272,33.91478 0.45594,2.40128 -1.73987,-56.22798 -1.87402,-57.04288 -0.0771,-1.08959 -0.39876,-20.6198 -0.0817,-30.2828 1.10922,-13.5017 24.3326,-14.0822 24.7261,1.04799 0.009,0.59884 0.97784,26.6778 0.94644,26.8497 -0.0542,0.29711 0.0748,7.54854 0.108,7.89863 -0.0392,0.37859 0.99335,51.3995 0.55698,53.5225 0.10619,-2.94825 -0.0824,-23.4622 -0.10358,-24.1503 -0.0202,-0.30881 -1.26643,-51.9467 0.14928,-54.8363 2.53575,-8.16491 19.3553,-9.40838 21.4915,2.54929 0.46793,1.05706 1.5129,24.355 1.526,25.4777 0.0144,1.23253 0.56394,26.3468 0.66751,27.8196 0.0238,0.63843 0.4209,9.6736 0.38104,10.1602 0.46976,9.12453 0.27152,12.5837 0.27152,12.5837 z" />
      <path
         style="stroke:#ffffff;stroke-width:1.83254397"
         id="path2060"
         d="m 638.446,303.768 c -2.20679,9.657 1.37446,16.9883 1.37446,22.3486 0,5.36035 -2.34847,17.2385 -2.34847,17.2385 l -1.14837,1.75488 c 0,0 -16.8479,2.4472 -23.2051,7.80755" />
    </g>
    <g
       id="text2534"
       style="font-size:39.51110077px;line-height:1.25;font-family:'MS UI Gothic';-inkscape-font-specification:'MS UI Gothic';letter-spacing:0px;fill:#000000;fill-opacity:1;stroke:#ffffff;stroke-width:1;stroke-miterlimit:4;stroke-dasharray:none"
       aria-label="400">
      <path
         id="path857"
         style="font-style:normal;font-variant:normal;font-weight:normal;font-stretch:normal;font-size:39.51110077px;font-family:bungee;-inkscape-font-specification:bungee;fill:#000000;fill-opacity:1;stroke:#ffffff;stroke-width:1;stroke-miterlimit:4;stroke-dasharray:none"
         d="m 97.512701,144.36374 h -6.677376 q -3.832576,0 -5.531554,-1.58044 -1.659466,-1.61996 -1.659466,-4.9784 v -13.8684 q 0,-0.75071 0.316089,-1.0668 0.3556,-0.3556 1.106311,-0.3556 h 6.12422 q 0.750711,0 1.0668,0.3556 0.3556,0.31609 0.3556,1.0668 v 10.82605 q 0,0.63217 0.316089,0.98777 0.3556,0.3556 0.908755,0.3556 h 3.674532 V 123.9365 q 0,-0.75071 0.316089,-1.0668 0.3556,-0.3556 1.106311,-0.3556 h 6.084709 q 0.75071,0 1.0668,0.3556 0.3556,0.31609 0.3556,1.0668 v 25.6032 q 0,0.75071 -0.3556,1.10631 -0.31609,0.31609 -1.0668,0.31609 h -6.084709 q -0.750711,0 -1.106311,-0.31609 -0.316089,-0.3556 -0.316089,-1.10631 z" />
      <path
         id="path859"
         style="font-style:normal;font-variant:normal;font-weight:normal;font-stretch:normal;font-size:39.51110077px;font-family:bungee;-inkscape-font-specification:bungee;fill:#000000;fill-opacity:1;stroke:#ffffff;stroke-width:1;stroke-miterlimit:4;stroke-dasharray:none"
         d="m 135.60078,143.4945 q 0,1.81751 -0.51364,3.31893 -0.51364,1.46191 -1.85702,2.52871 -1.34338,1.02729 -3.71404,1.61996 -2.33116,0.59266 -5.96618,0.59266 -3.63502,0 -6.00569,-0.59266 -2.33115,-0.59267 -3.67453,-1.61996 -1.34338,-1.0668 -1.89653,-2.52871 -0.51365,-1.50142 -0.51365,-3.31893 v -13.47329 q 0,-1.81751 0.51365,-3.27942 0.55315,-1.50142 1.89653,-2.56822 1.34338,-1.0668 3.67453,-1.65947 2.37067,-0.59266 6.00569,-0.59266 3.63502,0 5.96618,0.59266 2.37066,0.59267 3.71404,1.65947 1.34338,1.0668 1.85702,2.56822 0.51364,1.46191 0.51364,3.27942 z m -15.21177,-1.4224 q 0,0.79022 0.55316,1.34338 0.59266,0.51364 2.60773,0.51364 2.01506,0 2.56822,-0.51364 0.59267,-0.55316 0.59267,-1.34338 v -10.62849 q 0,-0.75071 -0.59267,-1.26435 -0.55316,-0.55316 -2.56822,-0.55316 -2.01507,0 -2.60773,0.55316 -0.55316,0.51364 -0.55316,1.26435 z" />
      <path
         id="path861"
         style="font-style:normal;font-variant:normal;font-weight:normal;font-stretch:normal;font-size:39.51110077px;font-family:bungee;-inkscape-font-specification:bungee;fill:#000000;fill-opacity:1;stroke:#ffffff;stroke-width:1;stroke-miterlimit:4;stroke-dasharray:none"
         d="m 164.30807,143.4945 q 0,1.81751 -0.51364,3.31893 -0.51365,1.46191 -1.85702,2.52871 -1.34338,1.02729 -3.71405,1.61996 -2.33115,0.59266 -5.96617,0.59266 -3.63503,0 -6.00569,-0.59266 -2.33116,-0.59267 -3.67453,-1.61996 -1.34338,-1.0668 -1.89654,-2.52871 -0.51364,-1.50142 -0.51364,-3.31893 v -13.47329 q 0,-1.81751 0.51364,-3.27942 0.55316,-1.50142 1.89654,-2.56822 1.34337,-1.0668 3.67453,-1.65947 2.37066,-0.59266 6.00569,-0.59266 3.63502,0 5.96617,0.59266 2.37067,0.59267 3.71405,1.65947 1.34337,1.0668 1.85702,2.56822 0.51364,1.46191 0.51364,3.27942 z m -15.21177,-1.4224 q 0,0.79022 0.55315,1.34338 0.59267,0.51364 2.60774,0.51364 2.01506,0 2.56822,-0.51364 0.59266,-0.55316 0.59266,-1.34338 v -10.62849 q 0,-0.75071 -0.59266,-1.26435 -0.55316,-0.55316 -2.56822,-0.55316 -2.01507,0 -2.60774,0.55316 -0.55315,0.51364 -0.55315,1.26435 z" />
    </g>
  </g>
</svg>
