<?xml version="1.0" encoding="UTF-8"?>
<!-- Created with Inkscape (http://www.inkscape.org/) -->
<svg width="133.1mm" height="133.1mm" version="1.1" viewBox="0 0 133.1 133.1" xmlns="http://www.w3.org/2000/svg" xmlns:cc="http://creativecommons.org/ns#" xmlns:dc="http://purl.org/dc/elements/1.1/" xmlns:rdf="http://www.w3.org/1999/02/22-rdf-syntax-ns#">
 <metadata>
  <rdf:RDF>
   <cc:Work rdf:about="">
    <dc:format>image/svg+xml</dc:format>
    <dc:type rdf:resource="http://purl.org/dc/dcmitype/StillImage"/>
   </cc:Work>
  </rdf:RDF>
 </metadata>
 <g transform="translate(-57.427 -70.189)">
  <g>
   <path transform="matrix(.47402 0 0 .47326 249.59 135.09)" d="m-265 96.134-88.576-64.354 33.833-104.13 109.49-2e-6 33.833 104.13z" fill-rule="evenodd" opacity=".99"/>
   <path transform="matrix(.41287 0 0 .4141 233.7 135.35)" d="m-265 96.134-88.576-64.354 33.833-104.13 109.49-2e-6 33.833 104.13z" fill="#fff" fill-rule="evenodd" opacity=".99"/>
   <path d="m123.98 70.189c-36.689 0-66.549 29.86-66.549 66.549s29.86 66.549 66.549 66.549c36.689 0 66.549-29.86 66.549-66.549s-29.86-66.549-66.549-66.549zm0 10.992c2.4486 0 4.8586 0.15894 7.2223 0.46405v6.9345l1.9105 0.36327c5.0854 0.96618 9.95 2.7272 14.496 5.2483v-0.0026c4.8392 2.684 9.1641 6.1498 12.856 10.299 3.9012 4.3848 6.9459 9.3584 9.0547 14.797v3e-3h3e-3c2.1873 5.6347 3.2949 11.573 3.2949 17.678 0 5.5952-0.93308 11.053-2.7673 16.256l-0.64648 1.8355 5.7707 3.3512c-1.8958 4.4884-4.3659 8.6714-7.3153 12.462l-5.7371-3.3285-1.2754 1.4609c-4.1513 4.7649-9.2848 8.7781-14.875 11.606l-3e-3 3e-3c-3.347 1.6964-6.8913 3.0015-10.53 3.8752-3.7478 0.90103-7.6222 1.3648-11.514 1.3648-3.8867 0-7.7604-0.45892-11.498-1.3591h-3e-3c-3.6376-0.87357-7.1754-2.1777-10.525-3.869-5.5844-2.8216-10.718-6.8222-14.861-11.578l-1.2738-1.463-5.6632 3.2887c-2.9497-3.7906-5.4189-7.9735-7.3147-12.462l5.6927-3.3042-0.65267-1.8376c-1.847-5.2148-2.7848-10.693-2.7848-16.301 0-6.1125 1.107-12.057 3.3006-17.698h0.0026v-3e-3c2.1154-5.4518 5.165-10.426 9.08-14.818 3.7042-4.155 8.0354-7.6117 12.889-10.297 4.5516-2.5142 9.4298-4.2667 14.529-5.2266l1.9141-0.36174v-6.9169c2.3637-0.30512 4.7743-0.46405 7.2229-0.46405zm-11.922 1.2795v2.3652c-4.885 1.1089-9.6126 2.7789-14.016 5.211l-0.0026 0.0026c-5.3135 2.9392-10.069 6.7332-14.123 11.281-4.2817 4.8036-7.6352 10.272-9.9534 16.246-2.4039 6.1821-3.623 12.717-3.623 19.399 0 5.4614 0.94575 10.797 2.5549 15.945l-1.7689 1.0268c-1.753-5.413-2.7037-11.192-2.7037-17.199 0-26.654 18.643-48.84 43.635-54.277zm23.844 0c24.992 5.4374 43.635 27.624 43.635 54.277 0 6.0075-0.95046 11.787-2.7037 17.2l-1.8547-1.0769c1.597-5.133 2.5368-10.449 2.5368-15.896 0-6.675-1.2167-13.203-3.6132-19.377v-3e-3c-2.3111-5.9597-5.6577-11.426-9.9255-16.223-4.0402-4.5407-8.7872-8.3429-14.088-11.283-4.3966-2.4383-9.1124-4.1147-13.986-5.2302zm27.045 90.992 1.818 1.0552c-10.138 10.946-24.641 17.787-40.785 17.787-16.143 0-30.647-6.841-40.785-17.787l1.6578-0.96327c4.293 4.5778 9.3641 8.4585 14.928 11.27v3e-3c3.6694 1.8526 7.5475 3.2841 11.545 4.2442 4.1034 0.98827 8.3444 1.4883 12.6 1.4883 4.2645 0 8.5042-0.50866 12.611-1.496 3.9969-0.95983 7.8823-2.3908 11.555-4.2519 5.5644-2.8146 10.562-6.7715 14.855-11.348z" color="#000000" color-rendering="auto" dominant-baseline="auto" image-rendering="auto" shape-rendering="auto" solid-color="#000000" style="font-feature-settings:normal;font-variant-alternates:normal;font-variant-caps:normal;font-variant-ligatures:normal;font-variant-numeric:normal;font-variant-position:normal;isolation:auto;mix-blend-mode:normal;paint-order:markers stroke fill;shape-padding:0;text-decoration-color:#000000;text-decoration-line:none;text-decoration-style:solid;text-indent:0;text-orientation:mixed;text-transform:none;white-space:normal"/>
  </g>
  <ellipse cx="130.94" cy="135.67" rx=".18899" ry=".66146" stroke-width=".26458"/>
  <ellipse cx="124.29" cy="136.68" rx="31.134" ry="31.277" fill="#8ea0d7" fill-opacity=".99216" stroke-width=".33349"/>
  <g stroke="#fff" aria-label="18">
   <path d="m120.58 150.96c0.98778 0 1.4224-0.43462 1.4224-1.4224v-4.7808c0-0.98777-0.43462-1.4224-1.4224-1.4224h-3.7931v-19.4c0-0.98777-0.43463-1.4224-1.4224-1.4224h-11.458c-0.98778 0-1.4224 0.43463-1.4224 1.4224v4.7808c0 0.98777 0.43462 1.4224 1.4224 1.4224h3.635v13.197h-4.4252c-0.98777 0-1.4224 0.43463-1.4224 1.4224v4.7808c0 0.98778 0.43462 1.4224 1.4224 1.4224z"/>
   <path d="m149.78 140.85c0-3.714-1.8175-5.6501-4.1882-6.1242 1.7385-0.75071 2.3312-2.2521 2.3312-4.2672v-2.2916c0-3.8721-2.3312-6.2428-10.273-6.2428s-10.391 2.3707-10.391 6.2428v2.2916c0 2.0151 0.59267 3.5165 2.3312 4.2672-2.3707 0.47414-4.1882 2.4102-4.1882 6.1242v3.8326c0 4.1092 2.6868 6.8749 12.209 6.8749 9.5222 0 12.169-2.7658 12.169-6.8749zm-14.659-8.8505v-1.7385c0-0.79022 0.27658-1.4224 2.4892-1.4224 2.2521 0 2.4497 0.63218 2.4497 1.4224v1.7385c0 0.82973-0.19756 1.4619-2.4497 1.4619-2.2126 0-2.4892-0.63218-2.4892-1.4619zm-0.98778 11.182v-2.0941c0-0.79022 0.63218-1.4224 3.477-1.4224 2.8843 0 3.4375 0.63218 3.4375 1.4224v2.0941c0 0.82973-0.55315 1.4619-3.4375 1.4619-2.8448 0-3.477-0.63218-3.477-1.4619z"/>
  </g>
  <path d="m165.96 150.13v19.4" fill="none" stroke="#8ea0d7" stroke-width=".26458px"/>
  <path d="m118.79 185.51c-2.3358-0.25146-6.744-1.1592-8.9802-1.8492-8.7581-2.7023-16.429-7.6675-22.693-14.688l-1.3353-1.4967-0.53668 0.30094c-0.29517 0.16551-1.0978 0.61475-1.7837 0.99831l-1.247 0.69739v-18.965l0.53531 0.34578c0.29442 0.19018 9.6425 6.9547 20.774 15.032 11.131 8.0776 20.306 14.71 20.388 14.738 0.0822 0.0286 9.4874-6.7217 20.9-15.001l20.751-15.053 0.05 4.6511c0.0275 2.5581 0.0275 6.8006 0 9.4278l-0.05 4.7768-3.3922-1.9933-2.6777 2.7903c-1.4727 1.5346-3.5298 3.4911-4.5714 4.3477-6.9657 5.7286-14.766 9.2024-24.003 10.689-2.2266 0.35841-9.6902 0.51205-12.128 0.24965z" fill="#8ea0d7" fill-rule="evenodd" opacity=".99" stroke="#8ea0d7" stroke-width=".32881"/>
  <g fill="#fff" fill-opacity=".99216" fill-rule="evenodd">
   <path transform="matrix(.26458 0 0 .26458 57.427 70.189)" d="m79.846 370.99c-3.3058-4.7127-9.3649-14.975-13.465-22.806l-7.4544-14.237 10.488-6.1395c5.7684-3.3767 10.488-6.6489 10.488-7.2714s-1.4948-5.5391-3.3218-10.926c-6.4595-19.045-8.6632-33.68-8.6083-57.17 0.0577-24.701 2.3554-39.308 9.2936-59.079 21.602-61.556 71.293-106.09 134.51-120.55l13.789-3.154v-26.104l13.124-0.92251c7.2181-0.50738 18.991-0.50602 26.163 3e-3l13.039 0.92555v13.128c0 14.743-1.1746 13.325 13.435 16.219 58.946 11.677 114.36 61.358 133.99 120.14 7.4951 22.435 8.8412 31.478 8.8412 59.397 0 27.757-1.3971 37.265-8.6151 58.632-2.535 7.5039-2.9143 10.11-1.5973 10.974 0.94994 0.62307 5.7046 3.3852 10.566 6.138 4.8614 2.7528 8.8388 5.6285 8.8388 6.3904 0 2.7226-8.9436 19.204-17.396 32.058-8.1066 12.328-8.7646 12.965-11.511 11.144-2.7921-1.8517-2.9454-3.5672-3.6967-41.36l-0.78384-39.428-59.443-181.02-197.79-0.71055-61.518 189.25v35.852c0 33.659-0.16394 35.955-2.6801 37.526-2.381 1.4869-3.3509 0.71741-8.6906-6.8948z"/>
   <path transform="matrix(.26458 0 0 .26458 57.427 70.189)" d="m49.754 306.53c-11.93-43.351-9.3215-89.335 7.5101-132.38 23.014-58.862 74.376-105.59 135.58-123.34 6.504-1.8866 12.072-3.4301 12.374-3.4301 1.465 0 0.31745 7.2275-1.2189 7.6764-40.295 11.775-59.122 21.35-85.258 43.358-20.308 17.101-37.404 39.27-49.524 64.224-14.251 29.339-18.913 48.345-20.007 81.565-0.81948 24.875 0.42076 38.199 5.3493 57.47 2.1549 8.4256 2.3578 10.932 0.95723 11.821-3.0323 1.9251-3.4613 1.4071-5.7639-6.96z"/>
   <path transform="matrix(.26458 0 0 .26458 57.427 70.189)" d="m447.7 313.34c-1.7236-1.0908-1.5641-3.3036 1.0942-15.181 6.2165-27.775 7.2382-47.319 3.7951-72.594-6.2804-46.102-24.98-83.788-57.941-116.77-27.602-27.617-49.72-40.103-95.191-53.735-0.97227-0.29149-1.7678-2.1531-1.7678-4.1368 0-3.2171 0.42022-3.5065 3.8891-2.678 11.738 2.8035 31.167 10.246 44.509 17.05 56.129 28.624 94.896 78.348 109.52 140.47 4.3309 18.403 6.0165 53.973 3.425 72.278-1.9441 13.732-7.245 36.627-8.4729 36.595-0.46067-0.0113-1.7455-0.59628-2.8553-1.2986z"/>
   <path transform="matrix(.26458 0 0 .26458 57.427 70.189)" d="m226.27 459.44c-45.606-6.8659-81.316-23.32-115.11-53.039-12.154-10.689-13.032-11.797-10.303-13.015 2.5568-1.1409 4.5725 0.1647 14.117 9.1435 27.4 25.776 63.152 43.255 102.81 50.263 17.186 3.0368 49.563 2.9524 67.882-0.17694 38.226-6.5297 75.103-24.821 101.94-50.564 10.075-9.6631 11.731-10.751 13.924-9.1477 2.2562 1.6498 1.4132 2.831-9.0343 12.659-26.072 24.527-59.48 41.907-97.515 50.732-9.1743 2.1285-18.55 2.9364-38.31 3.3012-14.39 0.26562-28.072 0.19553-30.406-0.15577z"/>
  </g>
 </g>
</svg>
