<?xml version="1.0" encoding="UTF-8"?>
<!-- Created with Inkscape (http://www.inkscape.org/) -->
<svg width="133.1mm" height="133.1mm" version="1.1" viewBox="0 0 133.1 133.1" xmlns="http://www.w3.org/2000/svg" xmlns:cc="http://creativecommons.org/ns#" xmlns:dc="http://purl.org/dc/elements/1.1/" xmlns:rdf="http://www.w3.org/1999/02/22-rdf-syntax-ns#">
 <metadata>
  <rdf:RDF>
   <cc:Work rdf:about="">
    <dc:format>image/svg+xml</dc:format>
    <dc:type rdf:resource="http://purl.org/dc/dcmitype/StillImage"/>
   </cc:Work>
  </rdf:RDF>
 </metadata>
 <g transform="translate(-57.427 -70.189)">
  <g fill="#fff" fill-opacity=".99216" fill-rule="evenodd" stroke-width="5.3993">
   <path transform="matrix(.26458 0 0 .26458 57.427 70.189)" d="m225.71 459.26c-43.865-6.0884-84.333-25.036-116.19-54.403-9.1404-8.4252-10.776-10.552-8.9144-11.593 1.7382-0.97277 4.7683 0.97876 12.765 8.2212 30.82 27.914 66.482 45.225 105.89 51.405 19.138 3.0008 56.728 2.2602 73.592-1.45 36.423-8.013 68.678-24.753 94.504-49.047 8.9563-8.4247 11.722-10.278 14.175-9.4991 2.8981 0.91981 2.777 1.2496-2.4586 6.6969-9.413 9.7937-27.708 23.926-41.177 31.808-21.703 12.7-43.491 20.953-68.007 25.758-14.071 2.7581-50.792 3.9614-64.18 2.1032z"/>
   <path transform="matrix(.26458 0 0 .26458 57.427 70.189)" d="m447.25 312.99c-1.2871-1.5509-1.0195-4.5676 1.1724-13.214 6.5933-26.009 7.5603-61.935 2.3395-86.919-16.022-76.671-70.564-135.23-145.3-156.01-7.107-1.9759-8.3206-2.8001-8.3206-5.6506 0-4.3687 1.2883-4.2654 18.945 1.5185 52.673 17.254 97.837 56.125 122.72 105.62 7.6975 15.31 16.162 41.414 19.07 58.808 4.4933 26.884 2.6178 63.862-4.5465 89.643-2.3854 8.584-3.3174 9.5349-6.0814 6.2046z"/>
   <path transform="matrix(.26458 0 0 .26458 57.427 70.189)" d="m48.851 303.21c-5.142-20.694-6.4015-34.082-5.587-59.392 0.59261-18.416 1.5789-27.262 4.346-38.981 16.976-71.892 69.498-129.31 139.16-152.13 17.674-5.7896 18.945-5.89 18.945-1.4963 0 2.9419-1.1984 3.6779-9.6429 5.9221-62.528 16.618-115.36 66.241-136.7 128.39-12.343 35.955-14.252 79.561-5.0496 115.34 1.9428 7.5529 2.2594 10.943 1.1472 12.283-2.7666 3.3336-3.6557 1.9996-6.6211-9.9348z"/>
  </g>
  <path d="m78.34 119.27h93.236" fill="none" stroke="#000" stroke-width=".26458px"/>
  <g fill-rule="evenodd">
   <path d="m124.01 153.69v-36.061h49.355l1.0286 3.395c3.1206 10.3 3.0611 21.643-0.16632 31.679-0.66814 2.0777-1.1758 3.8048-1.1282 3.838 0.0476 0.0332 1.4292 0.8365 3.0701 1.7852 1.6409 0.94864 2.9835 1.8138 2.9835 1.9227 0 0.61078-3.2887 6.6264-5.2168 9.5423l-2.2468 3.398-6.3793-3.4572-3.0365 3.1966c-9.1059 9.5861-21.488 15.509-34.56 16.532l-3.7036 0.28973z" fill="#bf0a30" style="paint-order:stroke fill markers"/>
   <path d="m118.58 186.93c-11.306-1.4519-21.923-6.8676-30.221-15.416-1.7195-1.7713-3.2227-3.2206-3.3404-3.2206-0.11771 0-1.4556 0.71581-2.973 1.5907-1.5174 0.87487-2.8143 1.5907-2.882 1.5907-0.48742 0-7.3628-11.654-7.3628-12.48 0-0.0965 1.3397-0.95158 2.9772-1.9003 1.6375-0.94868 2.9009-1.9038 2.8077-2.1225-0.09323-0.21872-0.62184-1.8293-1.1747-3.579-2.9942-9.4765-3.003-20.958-0.02318-30.39l1.0149-3.2128h47.288v69.592l-1.6901-0.0503c-0.92956-0.0277-2.9186-0.20807-4.4202-0.4009z" fill="#fff" style="paint-order:stroke fill markers"/>
   <path d="m78.104 117.04c0.7372-2.1147 4.411-8.1216 6.8802-11.249 7.1633-9.0741 18.286-15.887 29.188-17.879l2.614-0.47764v-7.1137l2.3804-0.2488c3.0094-0.31455 7.2862-0.31362 9.9151 0.0022l2.0331 0.2442v7.1161l2.4713 0.45535c7.7509 1.4282 16.24 5.598 23.067 11.33 4.5954 3.8585 10.312 11.538 12.731 17.102l0.79975 1.8395h-92.471z" fill="#002868" stroke="#002868" stroke-linecap="round" stroke-width="1.4637" style="paint-order:stroke fill markers"/>
  </g>
  <g transform="matrix(.90885 0 0 .90885 232.68 9.3317)" fill-rule="evenodd">
   <path d="m-144.6 113.54 2.6376 0.0355-0.0833-11.427 5.0557 11.487 2.7444-2.2e-4v-16.807l-2.6789 0.03594 0.0407 10.626-4.7255-10.579-2.9499 0.03571z" fill="#ffca00"/>
   <path d="m-96.393 102.16h2.8091l-0.03389-1.481c-0.07961-0.95669-0.44104-2.1688-1.3848-3.065-0.62824-0.69921-1.3718-1.0941-2.3365-1.3577-0.81885-0.3214-2.8241-0.22678-3.8418 0.34256-1.2035 0.67214-2.22 1.8709-2.8985 3.8022-0.89027 3.252-0.48812 7.3242 0.076 9.2406 0.67169 2.031 1.7253 3.1148 3.1276 3.7986 0.87276 0.29319 2.3954 0.51701 3.8202 0.13101 1.5522-0.58707 2.2616-1.6063 2.878-2.6934 0.37417-0.73584 0.80361-2.1463 0.72878-3.7096l-2.931 0.0357c0.0021 0.57207-0.11396 1.2324-0.2593 1.8044-0.33163 0.79975-0.84387 1.335-2.1172 1.3347-0.85342-7.9e-4 -1.4303-0.35234-1.9079-0.98217-0.64461-0.62233-0.81362-2.0155-0.85661-2.4093-0.19424-1.7783-0.1997-3.5388 0.31276-5.3942 0.19516-0.7497 0.58321-1.4432 1.0909-1.781 0.82272-0.44605 1.6739-0.37986 2.1552-0.23929 0.63188 0.19516 1.2149 0.66736 1.3968 1.2927 0.14148 0.58798 0.164 0.94555 0.17218 1.3302z" fill="#ffca00"/>
   <path d="m-112.7 114.09-6.2967-4.8934-6.4627 4.8631 2.5608-7.616-6.552-4.8212 7.8794 0.18645 2.4133-7.8427 2.3089 7.7312 8.0435-0.0259-6.4524 4.5917z" fill="#fff"/>
  </g>
  <g stroke="#fff" aria-label="42">
   <path d="m113.73 144.36v5.176c0 0.98778 0.43462 1.4224 1.4224 1.4224h6.0847c0.98777 0 1.4224-0.43462 1.4224-1.4224v-25.603c0-0.98777-0.43463-1.4224-1.4224-1.4224h-6.0847c-0.98778 0-1.4224 0.43463-1.4224 1.4224v12.169h-3.6745c-0.75071 0-1.2248-0.51364-1.2248-1.3434v-10.826c0-0.98777-0.43462-1.4224-1.4224-1.4224h-6.1242c-0.98778 0-1.4224 0.43463-1.4224 1.4224v13.868c0 4.5043 2.0546 6.5588 7.191 6.5588z"/>
   <path d="m147.19 150.96c0.98778 0 1.4224-0.43462 1.4224-1.4224v-4.6228c0-0.98778-0.43462-1.4224-1.4224-1.4224h-11.261v-0.82973c0-0.86925 0.23707-0.94827 1.0273-1.1853l5.3735-1.699c3.8326-1.1853 6.1637-3.0028 6.1637-6.9935v-3.714c0-4.2672-2.4497-6.5588-6.954-6.5588h-11.656c-0.98778 0-1.4224 0.43463-1.4224 1.4224v4.6228c0 0.98778 0.43462 1.4224 1.4224 1.4224h8.5739c0.79022 0 1.0668 0.23707 1.0668 1.0273 0 0.86925-0.23707 1.1853-1.0668 1.4224l-5.2945 1.6595c-3.635 1.1063-6.2032 2.5287-6.2032 8.6529v6.7959c0 0.98778 0.43462 1.4224 1.4224 1.4224z"/>
  </g>
  <path d="m123.98 70.189c-36.689 0-66.549 29.86-66.549 66.549s29.86 66.549 66.549 66.549c36.689 0 66.549-29.86 66.549-66.549s-29.86-66.549-66.549-66.549zm0 10.992c2.4486 0 4.8586 0.15894 7.2223 0.46405v6.9345l1.9105 0.36327c5.0854 0.96618 9.95 2.7272 14.496 5.2483v-0.0026c4.8392 2.684 9.1641 6.1498 12.856 10.299 3.9012 4.3848 6.9459 9.3584 9.0547 14.797v3e-3h3e-3c2.1873 5.6347 3.2949 11.573 3.2949 17.678 0 5.5952-0.93308 11.053-2.7673 16.256l-0.64648 1.8355 5.7707 3.3512c-1.8958 4.4884-4.3659 8.6714-7.3153 12.462l-5.7371-3.3285-1.2754 1.4609c-4.1513 4.7649-9.2848 8.7781-14.875 11.606l-3e-3 3e-3c-3.347 1.6964-6.8913 3.0015-10.53 3.8752-3.7478 0.90103-7.6222 1.3648-11.514 1.3648-3.8867 0-7.7604-0.45892-11.498-1.3591h-3e-3c-3.6376-0.87357-7.1754-2.1777-10.525-3.869-5.5844-2.8216-10.718-6.8222-14.861-11.578l-1.2738-1.463-5.6632 3.2887c-2.9497-3.7906-5.4189-7.9735-7.3147-12.462l5.6927-3.3042-0.65267-1.8376c-1.847-5.2148-2.7848-10.693-2.7848-16.301 0-6.1125 1.107-12.057 3.3006-17.698h0.0026v-3e-3c2.1154-5.4518 5.165-10.426 9.08-14.818 3.7042-4.155 8.0354-7.6117 12.889-10.297 4.5516-2.5142 9.4298-4.2667 14.529-5.2266l1.9141-0.36174v-6.9169c2.3637-0.30512 4.7743-0.46405 7.2229-0.46405zm-11.922 1.2795v2.3652c-4.885 1.1089-9.6126 2.7789-14.016 5.211l-0.0026 0.0026c-5.3135 2.9392-10.069 6.7332-14.123 11.281-4.2817 4.8036-7.6352 10.272-9.9534 16.246-2.4039 6.1821-3.623 12.717-3.623 19.399 0 5.4614 0.94575 10.797 2.5549 15.945l-1.7689 1.0268c-1.753-5.413-2.7037-11.192-2.7037-17.199 0-26.654 18.643-48.84 43.635-54.277zm23.844 0c24.992 5.4374 43.635 27.624 43.635 54.277 0 6.0075-0.95046 11.787-2.7037 17.2l-1.8547-1.0769c1.597-5.133 2.5368-10.449 2.5368-15.896 0-6.675-1.2167-13.203-3.6132-19.377v-3e-3c-2.3111-5.9597-5.6577-11.426-9.9255-16.223-4.0402-4.5407-8.7872-8.3429-14.088-11.283-4.3966-2.4383-9.1124-4.1147-13.986-5.2302zm27.045 90.992 1.818 1.0552c-10.138 10.946-24.641 17.787-40.785 17.787-16.143 0-30.647-6.841-40.785-17.787l1.6578-0.96327c4.293 4.5778 9.3641 8.4585 14.928 11.27v3e-3c3.6694 1.8526 7.5475 3.2841 11.545 4.2442 4.1034 0.98827 8.3444 1.4883 12.6 1.4883 4.2645 0 8.5042-0.50866 12.611-1.496 3.9969-0.95983 7.8823-2.3908 11.555-4.2519 5.5644-2.8146 10.562-6.7715 14.855-11.348z" color="#000000" color-rendering="auto" dominant-baseline="auto" image-rendering="auto" shape-rendering="auto" solid-color="#000000" style="font-feature-settings:normal;font-variant-alternates:normal;font-variant-caps:normal;font-variant-ligatures:normal;font-variant-numeric:normal;font-variant-position:normal;isolation:auto;mix-blend-mode:normal;paint-order:markers stroke fill;shape-padding:0;text-decoration-color:#000000;text-decoration-line:none;text-decoration-style:solid;text-indent:0;text-orientation:mixed;text-transform:none;white-space:normal"/>
 </g>
</svg>
