<?xml version="1.0" encoding="UTF-8"?>
<!-- Created with Inkscape (http://www.inkscape.org/) -->
<svg width="133.1mm" height="133.1mm" version="1.1" viewBox="0 0 133.1 133.1" xmlns="http://www.w3.org/2000/svg" xmlns:cc="http://creativecommons.org/ns#" xmlns:dc="http://purl.org/dc/elements/1.1/" xmlns:rdf="http://www.w3.org/1999/02/22-rdf-syntax-ns#">
 <defs>
  <clipPath id="clipPath1078">
   <ellipse cx="125.58" cy="136.97" rx="49.079" ry="49.911" fill="none" stroke="#000" stroke-width="3.2098"/>
  </clipPath>
  <clipPath id="clipPath1095">
   <ellipse cx="124.78" cy="137.54" rx="49.066" ry="50.7" fill="none" stroke="#000" stroke-width="3.2347"/>
  </clipPath>
  <clipPath id="clipPath1095-8">
   <ellipse cx="124.78" cy="137.54" rx="49.066" ry="50.7" fill="none" stroke="#000" stroke-width="3.2347"/>
  </clipPath>
 </defs>
 <metadata>
  <rdf:RDF>
   <cc:Work rdf:about="">
    <dc:format>image/svg+xml</dc:format>
    <dc:type rdf:resource="http://purl.org/dc/dcmitype/StillImage"/>
   </cc:Work>
  </rdf:RDF>
 </metadata>
 <g transform="translate(-57.427 -70.189)">
  <path transform="matrix(.26458 0 0 .26458 57.427 70.189)" d="m232.14 435.56c-11.099-1.3745-28.472-5.2625-38.934-8.7133l-11.077-3.6537 0.36291-170.87 0.3629-170.87 8.5714-3.093c4.7143-1.7011 14.196-4.2522 21.071-5.6691l12.5-2.5761v-26.124l8.781-0.9178c11.102-1.1603 26.878-1.1569 36.576 0.0079l7.5 0.90086v26.287l9.6429 1.7707c5.3036 0.9739 14.786 3.4965 21.071 5.6058l11.429 3.835 0.7258 341.57-8.9343 3.13c-16.956 5.9401-33.833 8.8564-54.649 9.4428-11 0.30988-22.25 0.2848-25-0.0557z" fill="#fff" fill-rule="evenodd" stop-color="#000000" stroke="#fff" stroke-width="5.7143" style="paint-order:stroke fill markers"/>
  <g transform="matrix(1.032 0 0 1 -5.6217 0)" fill="#cd1a2c" fill-rule="evenodd">
   <rect x="143.47" y="91.004" width="31.232" height="91.391" clip-path="url(#clipPath1095)"/>
   <path d="m165.51 170.62c-1.0828-0.64449-1.7323-1.2498-1.7942-1.6722-0.0566-0.38661 0.41501-1.416 1.1338-2.4744 1.4509-2.1365 4.0179-6.9195 5.0027-9.3211 0.38275-0.93345 0.79605-1.8131 0.91844-1.9547 0.24724-0.28613 4.914 2.2611 4.9192 2.685 0.0143 1.17-7.3154 13.42-8.1741 13.661-0.16972 0.0477-1.0723-0.36793-2.0058-0.9235z"/>
  </g>
  <g transform="matrix(-1.1072 0 0 1.0283 264.45 -3.583)" fill="#002395" fill-rule="evenodd">
   <rect x="143.47" y="91.004" width="31.232" height="91.391" clip-path="url(#clipPath1095-8)"/>
   <path d="m165.51 170.62c-1.0828-0.64449-1.7323-1.2498-1.7942-1.6722-0.0566-0.38661 0.41501-1.416 1.1338-2.4744 1.4509-2.1365 4.0179-6.9195 5.0027-9.3211 0.38275-0.93345 0.79605-1.8131 0.91844-1.9547 0.24724-0.28613 4.914 2.2611 4.9192 2.685 0.0143 1.17-7.3154 13.42-8.1741 13.661-0.16972 0.0477-1.0723-0.36793-2.0058-0.9235z"/>
  </g>
  <path d="m123.98 70.189c-36.689 0-66.549 29.86-66.549 66.549s29.86 66.549 66.549 66.549c36.689 0 66.549-29.86 66.549-66.549s-29.86-66.549-66.549-66.549zm0 10.992c2.4486 0 4.8586 0.15894 7.2223 0.46405v6.9345l1.9105 0.36327c5.0854 0.96618 9.95 2.7272 14.496 5.2483v-0.0026c4.8392 2.684 9.1641 6.1498 12.856 10.299 3.9012 4.3848 6.9459 9.3584 9.0547 14.797v3e-3h3e-3c2.1873 5.6347 3.2949 11.573 3.2949 17.678 0 5.5952-0.93308 11.053-2.7673 16.256l-0.64648 1.8355 5.7707 3.3512c-1.8958 4.4884-4.3659 8.6714-7.3153 12.462l-5.7371-3.3285-1.2754 1.4609c-4.1513 4.7649-9.2848 8.7781-14.875 11.606l-3e-3 3e-3c-3.347 1.6964-6.8913 3.0015-10.53 3.8752-3.7478 0.90103-7.6222 1.3648-11.514 1.3648-3.8867 0-7.7604-0.45892-11.498-1.3591h-3e-3c-3.6376-0.87357-7.1754-2.1777-10.525-3.869-5.5844-2.8216-10.718-6.8222-14.861-11.578l-1.2738-1.463-5.6632 3.2887c-2.9497-3.7906-5.4189-7.9735-7.3147-12.462l5.6927-3.3042-0.65267-1.8376c-1.847-5.2148-2.7848-10.693-2.7848-16.301 0-6.1125 1.107-12.057 3.3006-17.698h0.0026v-3e-3c2.1154-5.4518 5.165-10.426 9.08-14.818 3.7042-4.155 8.0354-7.6117 12.889-10.297 4.5516-2.5142 9.4298-4.2667 14.529-5.2266l1.9141-0.36174v-6.9169c2.3637-0.30512 4.7743-0.46405 7.2229-0.46405zm-11.922 1.2795v2.3652c-4.885 1.1089-9.6126 2.7789-14.016 5.211l-0.0026 0.0026c-5.3135 2.9392-10.069 6.7332-14.123 11.281-4.2817 4.8036-7.6352 10.272-9.9534 16.246-2.4039 6.1821-3.623 12.717-3.623 19.399 0 5.4614 0.94575 10.797 2.5549 15.945l-1.7689 1.0268c-1.753-5.413-2.7037-11.192-2.7037-17.199 0-26.654 18.643-48.84 43.635-54.277zm23.844 0c24.992 5.4374 43.635 27.624 43.635 54.277 0 6.0075-0.95046 11.787-2.7037 17.2l-1.8547-1.0769c1.597-5.133 2.5368-10.449 2.5368-15.896 0-6.675-1.2167-13.203-3.6132-19.377v-3e-3c-2.3111-5.9597-5.6577-11.426-9.9255-16.223-4.0402-4.5407-8.7872-8.3429-14.088-11.283-4.3966-2.4383-9.1124-4.1147-13.986-5.2302zm27.045 90.992 1.818 1.0552c-10.138 10.946-24.641 17.787-40.785 17.787-16.143 0-30.647-6.841-40.785-17.787l1.6578-0.96327c4.293 4.5778 9.3641 8.4585 14.928 11.27v3e-3c3.6694 1.8526 7.5475 3.2841 11.545 4.2442 4.1034 0.98827 8.3444 1.4883 12.6 1.4883 4.2645 0 8.5042-0.50866 12.611-1.496 3.9969-0.95983 7.8823-2.3908 11.555-4.2519 5.5644-2.8146 10.562-6.7715 14.855-11.348z" color="#000000" color-rendering="auto" dominant-baseline="auto" image-rendering="auto" shape-rendering="auto" solid-color="#000000" style="font-feature-settings:normal;font-variant-alternates:normal;font-variant-caps:normal;font-variant-ligatures:normal;font-variant-numeric:normal;font-variant-position:normal;isolation:auto;mix-blend-mode:normal;paint-order:markers stroke fill;shape-padding:0;text-decoration-color:#000000;text-decoration-line:none;text-decoration-style:solid;text-indent:0;text-orientation:mixed;text-transform:none;white-space:normal"/>
  <g fill="#fff" fill-opacity=".99216" fill-rule="evenodd" stroke-width="5.3993">
   <path transform="matrix(.26458 0 0 .26458 57.427 70.189)" d="m225.71 459.26c-43.865-6.0884-84.333-25.036-116.19-54.403-9.1404-8.4252-10.776-10.552-8.9144-11.593 1.7382-0.97277 4.7683 0.97876 12.765 8.2212 30.82 27.914 66.482 45.225 105.89 51.405 19.138 3.0008 56.728 2.2602 73.592-1.45 36.423-8.013 68.678-24.753 94.504-49.047 8.9563-8.4247 11.722-10.278 14.175-9.4991 2.8981 0.91981 2.777 1.2496-2.4586 6.6969-9.413 9.7937-27.708 23.926-41.177 31.808-21.703 12.7-43.491 20.953-68.007 25.758-14.071 2.7581-50.792 3.9614-64.18 2.1032z"/>
   <path transform="matrix(.26458 0 0 .26458 57.427 70.189)" d="m447.25 312.99c-1.2871-1.5509-1.0195-4.5676 1.1724-13.214 6.5933-26.009 7.5603-61.935 2.3395-86.919-16.022-76.671-70.564-135.23-145.3-156.01-7.107-1.9759-8.3206-2.8001-8.3206-5.6506 0-4.3687 1.2883-4.2654 18.945 1.5185 52.673 17.254 97.837 56.125 122.72 105.62 7.6975 15.31 16.162 41.414 19.07 58.808 4.4933 26.884 2.6178 63.862-4.5465 89.643-2.3854 8.584-3.3174 9.5349-6.0814 6.2046z"/>
   <path transform="matrix(.26458 0 0 .26458 57.427 70.189)" d="m48.851 303.21c-5.142-20.694-6.4015-34.082-5.587-59.392 0.59261-18.416 1.5789-27.262 4.346-38.981 16.976-71.892 69.498-129.31 139.16-152.13 17.674-5.7896 18.945-5.89 18.945-1.4963 0 2.9419-1.1984 3.6779-9.6429 5.9221-62.528 16.618-115.36 66.241-136.7 128.39-12.343 35.955-14.252 79.561-5.0496 115.34 1.9428 7.5529 2.2594 10.943 1.1472 12.283-2.7666 3.3336-3.6557 1.9996-6.6211-9.9348z"/>
  </g>
  <ellipse cx="123.57" cy="136.34" rx="57.074" ry="58.775" clip-path="url(#clipPath1078)" fill="none" stroke="#000" stroke-width="1.4"/>
  <g fill="#fff" fill-rule="evenodd">
   <path transform="matrix(.26458 0 0 .26458 57.427 70.189)" d="m382.28 190.23c-1.3213-0.83795-2.5585-2.114-2.9381-3.0305-0.78356-1.8917-0.88592-1.9129-2.0556-0.4258-1.1761 1.4952-5.2738 3.711-7.6918 4.1592-1.9757 0.36629-4.4227-6e-3 -4.4227-0.67328 0-0.21359 1.4765-1.3591 3.2812-2.5456 3.2939-2.1656 4.616-3.695 4.0233-4.654-0.45773-0.74064-2.1521-0.0985-4.9053 1.8591l-2.3991 1.7058v-2.2102c0-2.5374 0.48786-3.0724 3.258-3.5726 1.3342-0.24091 2.6312-0.99611 3.9143-2.2793 2.2552-2.2552 2.4972-3.3026 0.6563-2.8406-1.5169 0.38071-1.5286 0.3077-0.29167-1.82 1.0235-1.7606 2.805-7.4066 2.4494-7.7622-0.11472-0.11472-1.2029 0.52265-2.4182 1.4164-1.773 1.3039-2.1274 1.4273-1.7935 0.62486 0.59703-1.4349 0.95536-3.273 0.63805-3.273-0.14905 0-1.9218 1.1372-3.9395 2.5272-5.1993 3.5817-8.2728 4.2896-11.952 2.7525l-1.8697-0.78123 4.2851-2.2878c5.5042-2.9387 7.5681-4.5277 7.5681-5.8267 0-0.82526-0.23396-0.98064-1.1364-0.75474-5.0384 1.2612-7.4499 1.6928-7.4499 1.3333 0-0.23234 0.95434-0.95085 2.1208-1.5967 1.9747-1.0934 4.4059-4.1599 3.7879-4.7778-0.15015-0.15015-1.977 0.31513-4.0596 1.034-2.0826 0.71882-3.9022 1.307-4.0436 1.307-0.76071 0 4.3642-8.0782 6.7513-10.642 2.2826-2.4514 3.0824-2.9953 4.4046-2.9953 1.3827 0 1.9967 0.47563 4.2596 3.2994 3.5756 4.462 5.7222 4.9542 7.8482 1.7994 0.6348-0.94198 1.1542-2.3553 1.1542-3.1407 0-1.3132-0.10117-1.3896-1.2583-0.94963-0.69207 0.26312-1.6141 0.34188-2.049 0.17501-0.5939-0.22791-0.31219-0.5928 1.132-1.4663 1.5911-0.96235 1.7696-1.222 1.035-1.5057-0.48823-0.18853-1.7135-0.18785-2.7228 2e-3l-1.8351 0.34427 1.5307-1.9303c1.9474-2.4558 3.139-3.4963 4.4648-3.899 1.3963-0.42416 4.9222 1.0526 4.5886 1.9219-0.13932 0.36307 0.17274 1.3096 0.69347 2.1034 0.84681 1.2909 0.86641 1.5321 0.18566 2.2843-0.41862 0.46257-1.1271 2.8342-1.5744 5.2702-0.77878 4.2413-0.7737 4.4581 0.11986 5.1115 1.575 1.1517 2.7247 0.78274 5.7436-1.843 4.0594-3.5308 5.4654-3.3337 8.3384 1.1686 1.2775 2.002 1.7576 3.4298 2.0366 6.0563 0.20079 1.8902 0.56905 4.148 0.81836 5.0173 0.24931 0.86929 0.35678 1.677 0.23882 1.795s-1.4144-1.0602-2.8809-2.6182c-1.4665-1.558-2.8435-2.8327-3.0599-2.8327-0.21641 0-0.39348 0.53649-0.39348 1.1922 0 1.3338 1.8274 4.2833 4.1899 6.7627 2.4552 2.5767 0.89156 1.9221-2.6981-1.1294-1.7927-1.524-3.5436-2.7741-3.8909-2.7779-1.7236-0.0191 0.0764 3.3008 4.0852 7.5348 2.508 2.6489 2.3929 3.0668-0.8435 3.0629-2.3172-3e-3 -4.4872-1.5359-6.7155-4.7449-1.0757-1.549-2.183-2.7341-2.4608-2.6335-0.55023 0.19929-0.5518 0.33762-0.0293 2.582l0.35273 1.5152-1.745-1.894c-0.95978-1.0417-1.911-1.894-2.1139-1.894-0.54557 0 0.23882 5.5383 1.0661 7.5274 0.78456 1.8864 0.60102 2.5283-0.46897 1.6403-0.37952-0.31497-0.83958-0.42312-1.0224-0.24033-1.3834 1.3834 1.4892 4.475 4.8221 5.1898 1.433 0.30731 2.905 0.80741 3.2712 1.1113 0.70121 0.58196 0.84202 3.5912 0.23941 5.1164-0.31097 0.78706-0.57482 0.67242-2.1111-0.9172-3.099-3.2067-6.0488-4.5169-6.0488-2.6867 0 0.28544 1.3997 1.9767 3.1105 3.7583l3.1105 3.2393h-2.0015c-1.3354 0-2.7611-0.48173-4.2838-1.4474zm-1.4509-50.323c0-0.41669-0.34093-0.75762-0.75762-0.75762-0.41668 0-0.75761 0.34093-0.75761 0.75762s0.34093 0.75761 0.75761 0.75761c0.41669 0 0.75762-0.34092 0.75762-0.75761z" stop-color="#000000" style="paint-order:stroke fill markers"/>
   <path transform="matrix(.26458 0 0 .26458 57.427 70.189)" d="m382.99 277.77c-1.1708-0.70172-2.6643-2.1741-3.319-3.2719l-1.1903-1.9961-1.0811 1.4623c-1.4977 2.0258-5.9381 4.103-8.8977 4.1624-3.5585 0.0714-3.8166-0.6765-0.88316-2.5589 4.4327-2.8444 6.4841-5.6038 4.1661-5.6038-0.52767 0-2.1415 0.79549-3.5863 1.7678-1.4448 0.97228-2.7177 1.7678-2.8287 1.7678-0.49252 0-0.13899-3.4238 0.42956-4.1602 0.34724-0.44976 1.6541-1.0806 2.9042-1.402 2.5039-0.6436 5.5558-3.2014 5.5558-4.6562 0-0.78505-0.16308-0.84157-1.0534-0.36508-1.5315 0.81965-1.6538 0.34281-0.43982-1.7148 1.1932-2.0224 3.1089-7.9048 2.5743-7.9048-0.18784 0-1.1943 0.57945-2.2365 1.2877l-1.895 1.2877 0.34515-2.1716c0.38385-2.4151 0.61285-2.4524-3.0489 0.49609-1.9122 1.5397-5.7156 3.4228-7.6614 3.7932-1.6903 0.32176-5.1138-0.29184-5.8749-1.053-0.30204-0.30204 0.98059-1.2761 3.471-2.636 4.7049-2.5691 7.7382-4.8601 7.7382-5.8448 0-0.90456-1.0542-0.89471-4.5457 0.0425-1.5278 0.41009-3.3461 0.74619-4.0406 0.74688-1.0423 1e-3 -0.8062-0.26056 1.3532-1.499 2.7977-1.6046 4.2027-3.1817 4.2027-4.7176 0-0.71117-0.22347-0.85797-0.88388-0.58064-3.6584 1.5363-5.9177 2.288-6.4918 2.1599-0.96417-0.21508 3.2205-7.2449 6.2305-10.467 1.5533-1.6626 2.9682-2.6823 3.9867-2.8732 1.4702-0.27566 1.7752-0.0531 4.4314 3.2345 2.1478 2.6583 3.2265 3.5855 4.3661 3.7527 1.8979 0.27854 3.409-0.74844 4.3242-2.9387 1.1601-2.7766 0.97775-3.1738-1.316-2.8661-2.4058 0.32268-2.6963-0.46961-0.50507-1.3773 2.1561-0.8931 1.878-1.436-0.82674-1.6138l-2.342-0.15394 2.494-2.6516c2.6887-2.8587 3.604-3.1296 6.4942-1.922 1.2395 0.5179 1.6585 0.95883 1.4435 1.5191-0.16661 0.43419 0.0551 1.3358 0.49266 2.0037 0.73253 1.118 0.71967 1.3679-0.16221 3.1528-0.52679 1.0662-1.1756 3.416-1.4418 5.2216-0.40985 2.78-0.3617 3.3797 0.31428 3.9143 1.549 1.2251 3.2306 0.69586 6.3162-1.9879l3.0114-2.6192 1.7982 0.97772c2.2869 1.2434 5.0899 5.8219 5.1172 8.3586 0.0108 1.0038 0.24804 3.0293 0.52716 4.5012 0.27913 1.4718 0.38631 2.7973 0.23818 2.9454s-1.5124-1.0452-3.0316-2.6518c-2.0556-2.1737-2.8376-2.7249-3.0566-2.1542-0.41679 1.0861 1.0635 3.9601 3.4168 6.6335 2.6503 3.0109 1.7432 2.903-2.0184-0.24011-3.2719-2.7339-4.1371-3.059-4.1371-1.5545 0 0.91157 0.91419 2.2193 4.9457 7.0745l1.6627 2.0024-1.8913 0.35481c-2.6677 0.50046-4.9337-0.86196-7.8419-4.7148-2.4347-3.2256-3.2763-3.383-2.6665-0.49843l0.34442 1.6292-1.72-1.6415c-0.946-0.90282-1.842-1.6415-1.9912-1.6415-0.38589 0 0.43366 5.6318 1.0589 7.2762 0.70379 1.8511 0.67841 1.9325-0.48706 1.5626-0.82468-0.26174-1.0102-0.0908-1.0102 0.93122 0 1.6322 2.4893 3.7268 4.9394 4.1561 3.851 0.67489 4.8851 2.2627 3.6276 5.57l-0.52438 1.3792-1.8747-1.776c-2.2747-2.1549-4.151-3.4421-5.0176-3.4421-1.4144 0-0.50286 1.9429 2.1327 4.5457 1.5279 1.5089 2.7779 2.9216 2.7779 3.1395 0 0.87114-3.4092 0.31088-5.4116-0.88934zm-1.6594-50.762c0-0.23168-0.24709-0.57394-0.54909-0.76059-0.70129-0.43342-1.69 0.52728-1.2595 1.2238 0.35849 0.58006 1.8086 0.20864 1.8086-0.46323z" stop-color="#000000" style="paint-order:stroke fill markers"/>
   <path transform="matrix(.26458 0 0 .26458 57.427 70.189)" d="m385.21 368.44c-2.027-0.60843-4.7604-2.8182-5.6759-4.5887l-0.78321-1.5146-1.3755 1.4724c-2.5314 2.7099-7.6366 4.6309-10.438 3.9277-1.8421-0.46235-1.5778-1.0302 1.3054-2.8042 2.582-1.5887 5.0047-3.8344 5.0047-4.6391 0-1.0081-2.7793-0.29991-5.3984 1.3754l-2.8244 1.8068 0.34179-2.1374c0.45395-2.8388 0.42408-2.8075 3.5436-3.7144 1.8842-0.54776 3.195-1.336 4.2838-2.5761 1.9655-2.2386 1.9784-2.8185 0.0539-2.4336l-1.5149 0.30298 1.3104-2.3445c1.3683-2.4482 2.8176-7.1217 2.3527-7.5867-0.1482-0.1482-1.1923 0.46142-2.3201 1.3547-1.4859 1.1769-1.9527 1.3689-1.695 0.69717 0.72632-1.8928 0.95276-3.3585 0.51885-3.3585-0.24594 0-1.6911 0.9386-3.2115 2.0858-3.4675 2.6164-6.5766 3.9751-9.0959 3.9751-2.0425 0-4.5276-0.87269-4.5276-1.59 0-0.22971 1.5342-1.1944 3.4093-2.1438 6.0353-3.0558 8.8442-5.6024 7.2597-6.5817-0.24351-0.1505-1.5504 0.0391-2.9042 0.42131-3.7738 1.0655-5.7444 1.3366-5.7444 0.79023 0-0.27084 0.23181-0.49245 0.51512-0.49245 1.2365 0 4.6676-2.7231 5.2874-4.1964 0.37296-0.88656 0.59453-1.6958 0.49239-1.7982-0.10215-0.10247-1.9067 0.44135-4.01 1.2085-2.1034 0.76714-3.9058 1.3056-4.0054 1.1965-0.47495-0.52027 4.3087-8.0177 6.7847-10.634 3.8868-4.1065 4.9722-4.0648 8.4911 0.32643 3.5708 4.456 5.8895 4.9832 8.0189 1.8232 0.6348-0.94198 1.1542-2.3689 1.1542-3.171 0-1.3234-0.0978-1.406-1.0572-0.89251-0.58146 0.31119-1.635 0.42077-2.3413 0.24351l-1.2841-0.32228 1.683-0.9026c2.6934-1.4445 2.5401-2.2188-0.3533-1.7848-2.3541 0.35302-2.4236 0.32914-1.723-0.59213 1.7463-2.2964 3.8985-4.3742 4.9604-4.7886 1.5134-0.59066 5.2225 0.82152 4.8318 1.8396-0.14877 0.38768 0.1799 1.3232 0.73037 2.0788 0.97959 1.3448 0.98083 1.4014 0.0587 2.6624-0.53738 0.73491-1.1943 3.0041-1.5292 5.2822-0.54126 3.6819-0.51468 4.0468 0.34026 4.672 1.5689 1.1472 2.7217 0.77607 5.7378-1.8473 1.5969-1.389 3.1593-2.5254 3.4719-2.5254 2.5574 0 6.6679 5.2679 6.6874 8.5705 6e-3 0.98096 0.3082 3.2041 0.67203 4.9403 0.36382 1.7362 0.49553 3.1567 0.29269 3.1567s-1.5113-1.2501-2.9077-2.7779c-1.3964-1.5278-2.6692-2.7779-2.8286-2.7779-0.57209 0-0.27409 2.1016 0.5228 3.6869 0.4469 0.88903 1.7443 2.5824 2.8831 3.763 3.5093 3.6382 0.96939 2.4826-3.8233-1.7395-2.1582-1.9012-2.9027-2.0846-2.9027-0.71522 0 1.0039 3.6309 6.2015 5.4667 7.8255 1.4554 1.2875 0.96264 1.8265-1.6697 1.8265-2.5763 0-4.252-1.1982-7.0983-5.0757-1.9919-2.7135-3.0174-2.8398-2.4822-0.30574l0.33656 1.5934-3.7772-3.5355 0.31086 3.1536c0.17096 1.7345 0.64447 3.9521 1.0522 4.928 0.73968 1.7703 0.73854 1.7737-0.49701 1.4636-0.98462-0.24713-1.2351-0.11848-1.2223 0.62782 0.0342 1.9997 2.5852 3.9337 5.8895 4.4651 2.7353 0.43991 3.3876 1.2642 3.0416 3.8437-0.36659 2.7332-0.62874 2.8906-2.2602 1.357-1.6416-1.5431-5.1316-3.929-5.7473-3.929-0.23903 0-0.4346 0.46985-0.4346 1.0441 0 0.62067 1.2469 2.2306 3.0745 3.9697 2.4598 2.3407 2.9059 2.9902 2.2315 3.249-0.98312 0.37726-1.0677 0.37179-2.9397-0.19012zm-3.8815-51.479c0-0.68204-0.92073-1.1548-1.5235-0.78233-0.28232 0.17448-0.38255 0.52882-0.22273 0.78742 0.37915 0.61347 1.7462 0.60949 1.7462-5e-3z" stop-color="#000000" style="paint-order:stroke fill markers"/>
  </g>
  <g stroke="#fff" aria-label="06">
   <path d="m122.14 143.49v-13.473c0-4.8204-2.3312-8.0998-12.051-8.0998s-12.09 3.2794-12.09 8.0998v13.473c0 4.8204 2.3707 8.0603 12.09 8.0603s12.051-3.2399 12.051-8.0603zm-15.212-1.4224v-10.628c0-1.0273 0.47413-1.8175 3.1609-1.8175 2.7263 0 3.1609 0.79022 3.1609 1.8175v10.628c0 1.0668-0.43462 1.857-3.1609 1.857-2.6868 0-3.1609-0.79022-3.1609-1.857z"/>
   <path d="m138.58 151.55c9.0876 0 11.379-3.1609 11.379-7.9812v-3.7931c0-4.7018-2.1336-7.112-9.2851-7.112-2.0941 0-3.7536 0.19755-5.0179 0.59266v-0.86924c0-1.936 0.55316-2.3707 2.4892-2.3707h7.3886c0.98778 0 1.4224-0.43462 1.4224-1.4224v-4.6623c0-0.98777-0.39511-1.4224-1.4224-1.4224h-9.0876c-7.4676 0-9.7197 3.2794-9.7197 8.0998v12.96c0 4.8204 2.1336 7.9812 11.853 7.9812zm-2.9238-10.945c0-0.79022 0.3556-1.4224 2.6472-1.4224 2.3707 0 2.7263 0.63218 2.7263 1.4224v2.3312c0 0.82974-0.3556 1.4619-2.7263 1.4619-2.2916 0-2.6472-0.63217-2.6472-1.4619z"/>
  </g>
 </g>
</svg>
