<?xml version="1.0" encoding="UTF-8" standalone="no"?>
<svg
   xmlns:dc="http://purl.org/dc/elements/1.1/"
   xmlns:cc="http://creativecommons.org/ns#"
   xmlns:rdf="http://www.w3.org/1999/02/22-rdf-syntax-ns#"
   xmlns:svg="http://www.w3.org/2000/svg"
   xmlns="http://www.w3.org/2000/svg"
   id="svg9950"
   version="1.1"
   viewBox="0 0 133.09781 133.09781"
   height="133.09781mm"
   width="133.09781mm">
  <defs
     id="defs9944">
    <style
       id="style1430">.a{fill:#fff;}.b{fill:#b71234;}.c{fill:#584528;}.d{fill:#008542;}.e{fill:#bd8a5e;}</style>
    <filter
       height="1"
       width="1"
       y="0"
       x="0"
       id="filter31657"
       style="color-interpolation-filters:sRGB;">
      <feComposite
         id="feComposite31643"
         result="composite1"
         k2="1"
         k1="0"
         operator="arithmetic"
         in2="SourceGraphic" />
      <feColorMatrix
         id="feColorMatrix31645"
         result="colormatrix1"
         type="saturate"
         values="1"
         in="composite1" />
      <feFlood
         id="feFlood31647"
         result="flood1"
         flood-color="rgb(88,69,40)"
         flood-opacity="1" />
      <feBlend
         id="feBlend31649"
         result="blend1"
         mode="multiply"
         in2="colormatrix1"
         in="flood1" />
      <feBlend
         id="feBlend31651"
         result="blend2"
         mode="screen"
         in2="blend1" />
      <feColorMatrix
         id="feColorMatrix31653"
         result="colormatrix2"
         type="saturate"
         values="1"
         in="blend2" />
      <feComposite
         id="feComposite31655"
         result="fbSourceGraphic"
         k2="1"
         operator="in"
         in2="SourceGraphic"
         in="colormatrix2" />
      <feColorMatrix
         id="feColorMatrix31677"
         values="0 0 0 -1 0 0 0 0 -1 0 0 0 0 -1 0 0 0 0 1 0"
         in="fbSourceGraphic"
         result="fbSourceGraphicAlpha" />
      <feComposite
         in="fbSourceGraphic"
         result="composite1"
         k2="1"
         k1="0"
         operator="arithmetic"
         id="feComposite31679"
         in2="fbSourceGraphic" />
      <feColorMatrix
         result="colormatrix1"
         type="saturate"
         values="1"
         in="composite1"
         id="feColorMatrix31681" />
      <feFlood
         result="flood1"
         flood-color="rgb(88,69,40)"
         flood-opacity="1"
         id="feFlood31683" />
      <feBlend
         result="blend1"
         mode="multiply"
         in="flood1"
         id="feBlend31685"
         in2="colormatrix1" />
      <feBlend
         result="blend2"
         mode="screen"
         id="feBlend31687"
         in2="blend1" />
      <feColorMatrix
         result="colormatrix2"
         type="saturate"
         values="1"
         in="blend2"
         id="feColorMatrix31689" />
      <feComposite
         result="composite2"
         k2="1"
         operator="in"
         in="colormatrix2"
         id="feComposite31691"
         in2="fbSourceGraphic" />
    </filter>
    <clipPath
       id="clipPath2307"
       clipPathUnits="userSpaceOnUse">
      <path
         id="path2309"
         d="m 112.7421,188.2182 c -8.2513,-1.77219 -17.991261,-7.00859 -24.556981,-13.20236 l -5.687058,-5.36488 -3.054801,1.7169 -3.0548,1.71689 -2.913267,-4.66054 c -4.406271,-7.04899 -4.501848,-7.81591 -1.215684,-9.75479 l 2.791658,-1.64712 -1.495421,-5.39296 c -3.71085,-13.38247 -2.553334,-25.15207 3.717637,-37.80087 6.290521,-12.68824 17.853463,-22.533801 30.983127,-26.3814 3.13992,-0.920138 6.16769,-1.814351 6.72839,-1.987142 0.61935,-0.190866 1.01944,-1.764548 1.01944,-4.009784 v -3.695623 h 7.70316 7.70314 l 0.24858,3.765246 0.24857,3.765248 6.11671,1.78919 c 14.62085,4.276722 25.60905,13.512845 32.65218,27.445775 5.30264,10.48987 6.71843,25.9597 3.34734,36.57498 -0.91543,2.8826 -1.47599,5.54598 -1.24569,5.91863 0.23032,0.37264 1.49649,1.23485 2.81371,1.91602 1.31724,0.68116 2.39497,1.64926 2.39497,2.15131 0,0.50207 -1.54146,3.41086 -3.42547,6.464 l -3.42546,5.55117 -3.06489,-1.72256 -3.06489,-1.72257 -5.68705,5.36488 c -12.52682,11.81717 -29.98543,16.76583 -46.57715,13.20236 z"
         style="fill:none;fill-rule:evenodd;stroke:#ff0000;stroke-width:1.54122;stroke-linecap:round;paint-order:stroke fill markers" />
    </clipPath>
  </defs>
  <metadata
     id="metadata9947">
    <rdf:RDF>
      <cc:Work
         rdf:about="">
        <dc:format>image/svg+xml</dc:format>
        <dc:type
           rdf:resource="http://purl.org/dc/dcmitype/StillImage" />
        <dc:title></dc:title>
      </cc:Work>
    </rdf:RDF>
  </metadata>
  <g
     transform="translate(-57.427285,-70.189195)"
     id="layer1">
    <path
       id="path24756"
       d="m 112.70474,189.3627 c -8.41295,-1.8069 -18.34372,-7.14588 -25.038065,-13.46099 l -5.798466,-5.46997 -3.114646,1.75053 -3.114645,1.75052 -2.970338,-4.75184 c -4.492592,-7.18708 -4.590042,-7.96902 -1.239504,-9.94589 l 2.846345,-1.67938 -1.524717,-5.49861 c -3.783545,-13.64464 -2.603354,-25.64481 3.790466,-38.5414 6.413753,-12.9368 18.203215,-22.975246 31.5901,-26.898219 3.20144,-0.938164 6.28852,-1.849895 6.8602,-2.026071 0.63149,-0.194605 1.03942,-1.799115 1.03942,-4.088336 v -3.76802 h 7.85406 7.85404 l 0.25345,3.839007 0.25345,3.839009 6.23653,1.824241 c 14.90728,4.360503 26.11074,13.777579 33.29183,27.983459 5.40653,10.69536 6.85006,26.46825 3.41292,37.29148 -0.93336,2.93907 -1.5049,5.65463 -1.27009,6.03457 0.23483,0.37994 1.5258,1.25905 2.86883,1.95356 1.34305,0.6945 2.44189,1.68156 2.44189,2.19346 0,0.5119 -1.57166,3.47768 -3.49257,6.59063 l -3.49257,5.65991 -3.12494,-1.7563 -3.12492,-1.75631 -5.79847,5.46997 c -12.77221,12.04867 -30.57284,17.09428 -47.48959,13.46099 z"
       style="opacity:1;fill:#002069;fill-opacity:1;fill-rule:evenodd;stroke-width:1.57141;stroke-linecap:round;paint-order:stroke fill markers" />
    <path
       transform="matrix(0.26458333,0,0,0.26458333,57.427285,70.189195)"
       id="path901"
       d=""
       style="fill:#ffffff;fill-opacity:0.992157;fill-rule:evenodd;stroke-width:5.39933" />
    <path
       transform="matrix(0.26458333,0,0,0.26458333,57.427285,70.189195)"
       id="path940"
       d="m 225.71429,459.2571 c -43.8651,-6.08836 -84.33307,-25.03594 -116.1937,-54.40325 -9.14045,-8.42515 -10.775607,-10.55168 -8.91441,-11.59326 1.73824,-0.97277 4.76834,0.97876 12.76489,8.22121 30.82041,27.91393 66.48187,45.22546 105.89414,51.40532 19.13798,3.00085 56.72755,2.26021 73.59193,-1.44999 36.42253,-8.01305 68.67785,-24.75315 94.50433,-49.04655 8.9563,-8.42466 11.72173,-10.27783 14.17523,-9.49912 2.89806,0.91981 2.777,1.24956 -2.45856,6.69689 -9.413,9.79373 -27.70791,23.92585 -41.17711,31.80775 -21.7032,12.70026 -43.49113,20.95253 -68.00663,25.75779 -14.07113,2.75808 -50.79207,3.96143 -64.18011,2.10321 z"
       style="fill:#ffffff;fill-opacity:0.992157;fill-rule:evenodd;stroke-width:5.39933" />
    <path
       transform="matrix(0.26458333,0,0,0.26458333,57.427285,70.189195)"
       id="path979"
       d="m 447.25337,312.9903 c -1.28714,-1.5509 -1.01948,-4.56761 1.17244,-13.21429 6.5933,-26.0092 7.56028,-61.93535 2.33946,-86.91887 -16.02194,-76.67087 -70.56395,-135.233263 -145.3018,-156.012234 -7.10703,-1.975931 -8.32061,-2.800078 -8.32061,-5.65055 0,-4.368681 1.28832,-4.265419 18.94503,1.518489 52.67255,17.254246 97.83719,56.125145 122.72375,105.622055 7.69753,15.30962 16.16245,41.41424 19.0696,58.80796 4.49327,26.88357 2.61782,63.86171 -4.5465,89.64285 -2.3854,8.58396 -3.31745,9.5349 -6.08137,6.20459 z"
       style="fill:#ffffff;fill-opacity:0.992157;fill-rule:evenodd;stroke-width:5.39933" />
    <path
       transform="matrix(0.26458333,0,0,0.26458333,57.427285,70.189195)"
       id="path1135"
       d="m 48.850869,303.21429 c -5.142043,-20.69395 -6.401492,-34.08242 -5.587025,-59.39238 0.592614,-18.41575 1.578907,-27.26207 4.346045,-38.9808 16.975865,-71.8921 69.497841,-129.308841 139.159371,-152.128265 17.67411,-5.789613 18.94503,-5.889991 18.94503,-1.496303 0,2.941916 -1.19835,3.677878 -9.64286,5.922134 C 133.54372,73.756357 80.70944,123.38011 59.374383,185.52919 47.03141,221.4843 45.122289,265.09001 54.324767,300.86611 c 1.942799,7.55293 2.25942,10.94286 1.147239,12.28296 -2.766632,3.33359 -3.655671,1.99962 -6.621137,-9.93478 z"
       style="fill:#ffffff;fill-opacity:0.992157;fill-rule:evenodd;stroke-width:5.39933" />
    <polygon
       transform="matrix(0.26458333,0,0,0.26458333,-189.01319,87.5761)"
       id="polygon1482"
       points=""
       class="c" />
    <polygon
       transform="matrix(0.26458333,0,0,0.26458333,-189.01319,87.5761)"
       id="polygon1486"
       points=""
       class="c" />
    <polygon
       transform="matrix(0.26458333,0,0,0.26458333,-189.01319,87.5761)"
       id="polygon1490"
       points=""
       class="c" />
    <polygon
       transform="matrix(0.26458333,0,0,0.26458333,-189.01319,87.5761)"
       id="polygon1498"
       points=""
       class="a" />
    <polygon
       transform="matrix(0.26458333,0,0,0.26458333,-189.01319,87.5761)"
       id="polygon1502"
       points=""
       class="a" />
    <polygon
       transform="matrix(0.26458333,0,0,0.26458333,-189.01319,87.5761)"
       id="polygon1506"
       points=""
       class="a" />
    <polygon
       transform="matrix(0.26458333,0,0,0.26458333,-189.01319,87.5761)"
       id="polygon1516"
       points=""
       class="e" />
    <polygon
       transform="matrix(0.26458333,0,0,0.26458333,-189.01319,87.5761)"
       id="polygon1526"
       points=""
       class="e" />
    <path
       transform="matrix(0.26458333,0,0,0.26458333,57.427285,70.189195)"
       id="path33163"
       d="m 50.053792,307.59263 c -5.392728,-18.15929 -7.105661,-31.76137 -7.072827,-56.16406 0.03617,-26.88073 2.018252,-40.25574 9.413164,-63.51959 10.296567,-32.39226 26.234817,-58.15078 51.799441,-83.71541 25.65339,-25.653391 51.30473,-41.495951 84.0378,-51.902713 16.86476,-5.36178 18.1972,-5.437635 18.1972,-1.035962 0,3.004789 -1.11523,3.675965 -9.64286,5.803315 -5.30357,1.323059 -15.42857,4.709051 -22.5,7.524429 C 82.259009,101.2216 29.913685,203.49886 54.096103,299.4205 c 3.088807,12.25201 3.124176,12.96267 0.709447,14.255 -2.192327,1.1733 -2.845045,0.33773 -4.751758,-6.08287 z"
       style="opacity:1;fill:#ffffff;fill-opacity:1;fill-rule:evenodd;stroke-width:2.69966;stroke-linecap:round;paint-order:stroke fill markers" />
    <path
       transform="matrix(0.26458333,0,0,0.26458333,57.427285,70.189195)"
       id="path33202"
       d="m 221.65488,458.56936 c -44.7144,-7.29671 -82.83357,-25.95326 -115.22286,-56.39317 -6.953885,-6.53536 -7.561754,-7.5444 -5.30555,-8.80704 2.10172,-1.17618 4.50085,0.41093 13.69357,9.05878 C 151.19127,436.64337 198.89096,455 251.42857,455 c 54.50082,0 101.14742,-18.81846 140.9614,-56.86752 4.34222,-4.14972 7.46317,-6.07756 8.92857,-5.51524 1.23909,0.47549 2.25289,1.44876 2.25289,2.16283 0,0.71407 -4.66072,5.46895 -10.35714,10.56641 C 363.2984,432.11677 328.7133,449.49527 290,457.21017 c -16.15407,3.21922 -52.51548,3.94235 -68.34512,1.35919 z"
       style="opacity:1;fill:#ffffff;fill-opacity:1;fill-rule:evenodd;stroke-width:2.69966;stroke-linecap:round;paint-order:stroke fill markers" />
    <path
       transform="matrix(0.26458333,0,0,0.26458333,57.427285,70.189195)"
       id="path33241"
       d=""
       style="opacity:1;fill:#ffffff;fill-opacity:1;fill-rule:evenodd;stroke-width:2.69966;stroke-linecap:round;paint-order:stroke fill markers" />
    <g
       style="fill:#f1af00;fill-opacity:1"
       transform="matrix(1.2168145,0,0,1.2168145,-24.332328,-27.996993)"
       id="g2300">
      <path
         id="path32647"
         d="m 117.1681,151.90935 c -0.31219,-0.19121 -2.81109,-1.64539 -5.55312,-3.23149 l -4.98553,-2.88382 -1.20974,0.64176 c -0.75169,0.39878 -1.33387,0.97062 -1.53757,1.51028 -0.59901,1.58695 -2.6188,1.88519 -3.924515,0.57948 -0.610986,-0.61099 -0.77561,-2.17403 -0.306948,-2.91453 0.171897,-0.27161 0.07153,-0.91131 -0.285041,-1.81583 -2.152778,-5.46164 -1.872069,-13.04262 0.684614,-18.4887 0.70793,-1.50799 0.80787,-1.37588 -2.399343,-3.17194 -1.604757,-0.89868 -1.97519,-1.0019 -2.590124,-0.72171 -0.394662,0.17981 -0.981029,0.32694 -1.303037,0.32694 1.303037,-0.32694 -1.440399,0.83142 -2.239991,-2.07109 -0.322214,-0.93465 -0.07721,-1.50282 0.593465,-2.17346 0.418429,-0.41843 1.064917,-0.7624 1.436633,-0.76437 0,0 1.755223,-0.33221 2.547897,1.35444 0.184901,0.40583 0.336193,0.98914 0.336193,1.29624 0,0.40011 0.840926,1.03449 2.96715,2.23837 2.193567,1.242 2.929167,1.80288 2.821447,2.15127 -0.0802,0.2592 -0.62091,1.54441 -1.2017,2.85603 -2.083783,4.70586 -2.342346,10.71113 -0.67508,15.67968 0.60238,1.79512 0.72824,1.95788 1.65768,2.14341 0.78685,0.15705 1.251,0.046 2.13203,-0.51018 l 1.12621,-0.71095 0.0762,-15.48521 0.0762,-15.48522 9.4218,-5.44554 c 5.18198,-2.99506 9.54633,-5.56402 9.69852,-5.70881 0.17069,-0.16238 0.0319,-0.6988 -0.36214,-1.399953 l -0.63885,-1.136696 2.8648,-0.189713 c 3.79231,-0.251136 5.66396,-0.24184 5.65269,0.028 -0.005,0.121467 -1.04497,1.787242 -2.31088,3.701752 l -2.30168,3.48093 -0.37068,-0.89489 c -0.20386,-0.49219 -0.53903,-1.03462 -0.74481,-1.2054 -0.27786,-0.23061 -2.71301,1.04009 -9.46373,4.93833 l -9.0896,5.24884 -0.0768,13.38026 c -0.0422,7.35915 -0.0155,13.53989 0.0593,13.73498 0.0873,0.22769 1.67016,-0.53085 4.41963,-2.11796 4.00727,-2.31318 4.2836,-2.42767 4.2836,-1.77487 0,0.54254 -0.37669,0.9102 -1.69298,1.65241 -0.93113,0.52502 -4.02606,2.31589 -6.87758,3.97973 -3.76187,2.19498 -5.36027,2.97919 -5.82471,2.85773 -0.79962,-0.2091 -1.79845,0.63827 -1.79845,1.52573 0,1.61536 2.36495,2.11272 2.93363,0.61696 0.18503,-0.48664 2.09154,-1.74666 6.43441,-4.25247 7.60458,-4.38779 7.55694,-4.3652 8.15566,-3.8683 0.40426,0.3355 0.2144,0.52448 -1.47189,1.46502 -1.06482,0.59389 -2.0672,1.21099 -2.22751,1.37132 -0.19237,0.19236 0.81464,0.9246 2.96125,2.15328 1.78902,1.02399 3.31951,1.96982 3.4011,2.10185 0.0816,0.13204 -0.23337,0.43746 -0.69995,0.67873 -0.81822,0.42312 -0.93371,0.38895 -3.25638,-0.96389 -1.32444,-0.77141 -2.61071,-1.69189 -2.8584,-2.04551 -0.79667,-1.13742 -2.47797,-0.67469 -2.47797,0.68199 0,0.82632 0.54274,1.32301 1.45744,1.3338 0.41295,0.004 2.00579,0.72915 3.53966,1.60951 l 2.78885,1.60066 1.77484,-1.02955 c 3.88904,-2.25596 4.08951,-2.32622 4.97729,-1.74452 0.43491,0.28495 0.75348,0.55502 0.70794,0.60014 -0.0455,0.0451 -2.01353,1.19628 -4.37331,2.55818 -3.68977,2.12945 -4.37,2.42748 -4.85812,2.12848 z M 94.599842,120.39816 c 0.720925,-0.50495 0.886698,-1.84145 0.301064,-2.42709 -0.890449,-0.89044 -2.590993,-0.0567 -2.590993,1.2704 0,0.59264 0.698962,1.42088 1.239186,1.42088 0.0899,0 0.690838,-0.0121 1.050743,-0.26419 z"
         style="fill:#f1af00;fill-opacity:1;fill-rule:evenodd;stroke-width:0.556405;stroke-linecap:round;paint-order:stroke fill markers" />
      <path
         id="path32686"
         d="m 146.85036,159.06186 -2.04351,-3.9041 1.42807,-0.089 1.42808,-0.089 V 144.43253 133.8853 l -4.63729,-2.65487 c -2.55051,-1.46018 -7.87058,-4.52415 -11.82238,-6.80883 -3.95179,-2.28468 -7.23101,-4.15397 -7.28717,-4.15397 -0.0561,0 -0.10216,2.19082 -0.10216,4.86847 0,4.77724 -0.011,4.86258 -0.58886,4.55334 -0.56595,-0.30289 -0.58886,-0.61649 -0.58886,-8.06199 0,-6.41785 0.0785,-7.90428 0.45781,-8.66453 0.55705,-1.11664 0.19693,-2.01544 -0.91982,-2.29573 -1.42007,-0.35641 -2.55265,1.62045 -1.45179,2.53409 0.3725,0.30915 0.44165,1.60386 0.44165,8.26977 0,7.51236 -0.0282,7.91831 -0.56952,8.20803 -0.31322,0.16763 -0.64446,0.30478 -0.73607,0.30478 -0.0917,0 -0.16657,-1.12619 -0.16657,-2.50266 0,-1.37646 -0.0864,-2.50267 -0.19189,-2.50267 -0.17815,0 -3.71936,1.97417 -5.91757,3.29895 l -0.9569,0.57669 0.008,-1.12814 c 0.007,-1.10712 0.0536,-1.15417 2.50205,-2.52668 1.37219,-0.76919 2.82174,-1.39855 3.22123,-1.39855 0.96668,0 1.51496,-0.99222 1.07809,-1.95103 -0.42803,-0.93943 -1.6347,-0.93527 -2.25259,0.008 -0.25463,0.38862 -1.71512,1.41311 -3.24553,2.27664 l -2.78256,1.57006 v 3.41024 3.41024 l -1.03051,0.49141 -1.03051,0.49142 0.007,-5.07417 0.007,-5.07418 5.58699,-3.19003 5.587,-3.19001 -0.01,-1.52088 c -0.005,-0.86777 -0.19501,-1.76632 -0.44165,-2.09242 -0.71797,-0.94924 -0.53435,-2.08733 0.47361,-2.93547 1.19145,-1.00254 2.17109,-0.96932 3.25064,0.11023 0.63919,0.63919 1.33692,0.9567 2.6094,1.18744 6.33762,1.14924 11.6161,4.65215 15.71664,10.42991 0.38588,0.54373 0.49864,0.5107 2.94482,-0.86237 2.08592,-1.17083 2.54359,-1.55418 2.54359,-2.13048 0,-0.38651 0.13842,-0.96139 0.3076,-1.27751 1.09117,-1.57201 2.53869,-1.15312 2.53869,-1.15312 1.53524,0 2.48478,2.90788 1.8688,3.52536 0,0 0.16003,0.72247 -1.9921,1.47998 -0.26013,0 -0.88025,-0.14728 -1.37805,-0.32729 -0.83576,-0.30221 -1.12129,-0.20072 -3.72719,1.32494 -1.55217,0.90873 -2.94295,1.6496 -3.09064,1.64638 -0.14769,-0.003 -0.66601,-0.67546 -1.15183,-1.49388 -1.13435,-1.91099 -4.0663,-4.88479 -6.23577,-6.32481 -2.34572,-1.557 -5.70533,-2.9663 -8.08515,-3.39159 -1.95639,-0.34963 -2.01215,-0.34209 -2.5888,0.35046 -0.39529,0.47471 -0.59071,1.14408 -0.59346,2.03273 l -0.004,1.32493 13.31734,7.66969 13.31733,7.66966 0.077,11.3795 0.077,11.37948 1.44765,0.0889 1.44763,0.0889 -2.01338,3.9041 -2.01338,3.90411 z m 4.3939,-39.22381 c 0.70392,-1.54494 -1.18654,-2.88002 -2.45396,-1.73302 -1.088,0.98464 -0.43026,2.45704 1.09761,2.45704 0.80461,0 1.09776,-0.15649 1.35635,-0.72402 z"
         style="fill:#f1af00;fill-opacity:1;fill-rule:evenodd;stroke-width:0.556405;stroke-linecap:round;paint-order:stroke fill markers" />
      <path
         id="path32725"
         d="m 120.97486,170.02903 c -0.34703,-0.14006 -0.81076,-0.50962 -1.03051,-0.82129 0,0 -1.633,-1.78746 0.27687,-3.28888 l 0.94296,-0.94295 v -3.46689 -3.46689 l 2.3491,-0.18115 c 1.29201,-0.0996 3.18005,-0.39196 4.19565,-0.64962 4.01749,-1.01927 9.00728,-4.16545 11.40233,-7.18945 0.95726,-1.20863 0.97135,-1.26622 0.53437,-2.18258 -0.24684,-0.51766 -0.91283,-1.19108 -1.47997,-1.4965 l -1.03116,-0.55532 -3.05343,1.77083 c -1.67939,0.97394 -5.76957,3.33684 -9.08928,5.25089 -3.31972,1.91404 -7.93002,4.58354 -10.24514,5.93222 -2.31511,1.34869 -4.29087,2.45216 -4.39059,2.45216 -0.0998,0 -1.18665,-0.58369 -2.41542,-1.29708 -17.789838,-10.32839 -17.182418,-10.00625 -17.67442,-9.37361 -0.252437,0.32461 -0.606611,0.83776 -0.787061,1.14036 -0.288584,0.48395 -0.59866,0.13544 -2.576271,-2.89546 -1.236508,-1.89509 -2.248205,-3.51815 -2.248205,-3.60678 0,-0.21654 2.552396,-0.20346 5.840307,0.0299 l 2.692018,0.19108 -0.585776,0.94779 c -0.979411,1.58472 -2.210111,0.64728 10.413148,7.93194 6.25935,3.61216 7.10042,4.01869 7.72531,3.73397 1.13851,-0.51873 22.31335,-12.7596 22.73382,-13.14209 0.30604,-0.2784 -0.43318,-0.81853 -3.6098,-2.63759 -2.19705,-1.25813 -4.06146,-2.3956 -4.14313,-2.52774 -0.0817,-0.13213 0.12078,-0.3257 0.44986,-0.43016 0.80828,-0.25653 13.93416,7.28201 14.37894,8.25823 0.16819,0.36913 0.58536,0.75988 0.92704,0.86832 0.80189,0.25451 2.06455,-0.55927 2.06455,-1.33061 0,-0.85901 -1.10286,-1.84055 -1.86572,-1.66047 -0.45163,0.10664 -2.60724,-0.98985 -7.40887,-3.76857 -6.00223,-3.47351 -6.78294,-4.01077 -6.86879,-4.72693 l -0.0969,-0.80798 0.98017,0.5885 c 0.53909,0.32368 1.6095,0.94976 2.3787,1.39131 l 1.39856,0.80281 v -4.14008 -4.14009 l 1.0305,0.60801 1.03051,0.60801 -0.01,2.84162 c -0.007,1.96747 -0.13613,3.00894 -0.42143,3.38551 -0.69284,0.91445 -0.035,1.94564 1.24679,1.95428 0.87837,0.007 1.44073,-1.14069 0.98088,-1.99991 -0.18036,-0.33701 -0.32472,-2.05009 -0.32472,-3.85333 v -3.24655 l -2.94059,-1.70452 c -2.76829,-1.60464 -2.94081,-1.76058 -2.94432,-2.66142 -0.002,-0.52629 0.0787,-0.9569 0.1796,-0.9569 0.10084,0 2.08824,1.08732 4.41647,2.41627 l 4.23315,2.41627 0.002,6.49028 0.002,6.49028 1.10186,0.62516 c 0.73757,0.41847 1.4151,0.57822 2.04936,0.48321 0.76786,-0.11503 1.11675,0.0273 1.84019,0.75075 0.54528,0.54545 0.89251,1.19661 0.89251,1.67405 0,0.9582 -1.46012,2.50268 -2.36599,2.50268 -0.42059,0 -1.31255,0.72133 -2.56598,2.07514 -4.14368,4.47558 -9.08216,6.96454 -15.4574,7.79042 l -1.39856,0.18118 v 2.80815 c 0,2.76175 0.0151,2.82225 0.91444,3.66235 1.3665,1.33094 0.55772,2.95348 0.55772,2.95348 0,0.30635 -1.60586,1.30296 -2.04349,1.27686 -0.16194,-0.01 -0.74311,0.005 -1.09014,-0.13491 z m 2.22726,-1.62186 c 0.52444,-0.52655 0.24712,-0.92669 -0.0971,-1.47216 -0.81261,-1.28771 -2.82417,-0.73211 -2.82417,0.62925 0,1.61918 1.77863,1.99012 2.92124,0.84291 z"
         style="fill:#f1af00;fill-opacity:1;fill-rule:evenodd;stroke-width:0.556405;stroke-linecap:round;paint-order:stroke fill markers" />
    </g>
    <path
       id="circle1064"
       d="m 123.97619,70.189195 c -36.688665,0 -66.548905,29.860245 -66.548905,66.548905 0,36.68866 29.86024,66.5489 66.548905,66.5489 36.68866,0 66.54891,-29.86024 66.54891,-66.5489 0,-36.68866 -29.86025,-66.548905 -66.54891,-66.548905 z m 0,10.992088 c 2.44856,0 4.85859,0.158935 7.2223,0.464053 V 88.5798 l 1.91048,0.363273 c 5.08542,0.966179 9.95,2.727219 14.49575,5.248275 v -0.0026 c 4.83918,2.68404 9.16414,6.149842 12.85555,10.298592 3.90123,4.38481 6.9459,9.35842 9.05473,14.79703 v 0.003 h 0.003 c 2.18728,5.63467 3.29491,11.57264 3.29491,17.67798 0,5.59517 -0.93308,11.05347 -2.76728,16.25587 l -0.64648,1.83554 5.77072,3.35122 c -1.89585,4.48836 -4.36586,8.67142 -7.31533,12.46177 l -5.73712,-3.32849 -1.27537,1.4609 c -4.15132,4.76486 -9.28479,8.77808 -14.87454,11.6055 l -0.003,0.003 c -3.34703,1.69637 -6.89134,3.00151 -10.5296,3.87522 -3.74782,0.90103 -7.62224,1.36477 -11.5135,1.36477 -3.88673,0 -7.76044,-0.45892 -11.49802,-1.35909 h -0.003 c -3.63763,-0.87357 -7.17537,-2.17768 -10.52545,-3.86902 -5.584398,-2.82155 -10.718452,-6.82218 -14.861113,-11.5781 l -1.273836,-1.46296 -5.663221,3.2887 c -2.949672,-3.79056 -5.418949,-7.97347 -7.314715,-12.46162 l 5.692669,-3.3042 -0.652674,-1.83761 c -1.84703,-5.21475 -2.784819,-10.69321 -2.784819,-16.30082 0,-6.11251 1.107017,-12.05711 3.300571,-17.69761 h 0.0026 v -0.003 c 2.115397,-5.45176 5.165011,-10.42598 9.08005,-14.8182 3.704246,-4.15499 8.03537,-7.611691 12.888618,-10.296524 4.5516,-2.514177 9.42978,-4.266724 14.52936,-5.226553 l 1.9141,-0.361738 v -6.916943 c 2.36373,-0.305117 4.7743,-0.464052 7.22286,-0.464052 z m -11.92176,1.279499 v 2.365242 c -4.88503,1.108922 -9.6126,2.778919 -14.015694,5.211048 l -0.0026,0.0026 c -5.313469,2.93923 -10.068798,6.733249 -14.123168,11.280958 -4.281725,4.80357 -7.63516,10.27152 -9.953387,16.24605 -2.403924,6.18207 -3.623045,12.71728 -3.623045,19.3988 0,5.46135 0.945753,10.79683 2.554896,15.9453 l -1.768898,1.0268 c -1.75305,-5.413 -2.703698,-11.19182 -2.703698,-17.19895 0,-26.65362 18.642753,-48.839966 43.635054,-54.277312 z m 23.84351,0 c 24.99218,5.437425 43.63456,27.623798 43.63456,54.277318 0,6.00749 -0.95046,11.78668 -2.70373,17.19998 l -1.85467,-1.07694 c 1.59697,-5.13302 2.5368,-10.44924 2.5368,-15.89619 0,-6.67496 -1.21674,-13.20287 -3.61321,-19.37711 v -0.003 c -2.31111,-5.95968 -5.65766,-11.42595 -9.9255,-16.22279 -4.04016,-4.5407 -8.78721,-8.342895 -14.08803,-11.283025 -4.39656,-2.43832 -9.11238,-4.11472 -13.98622,-5.230177 z m 27.04487,90.992378 1.81797,1.05524 c -10.1382,10.94574 -24.64144,17.78651 -40.78459,17.78651 -16.14342,0 -30.646905,-6.84096 -40.785103,-17.78701 l 1.657773,-0.96327 c 4.29305,4.57777 9.364107,8.45854 14.927766,11.26961 v 0.003 c 3.669404,1.85256 7.547534,3.28406 11.545044,4.24418 4.10342,0.98827 8.34443,1.48828 12.59975,1.48828 4.26447,0 8.50423,-0.50866 12.6111,-1.49603 3.99692,-0.95983 7.88233,-2.39075 11.55485,-4.25194 5.56435,-2.81456 10.56196,-6.77151 14.85544,-11.34763 z"
       style="color:#000000;font-style:normal;font-variant:normal;font-weight:normal;font-stretch:normal;font-size:medium;line-height:normal;font-family:sans-serif;font-variant-ligatures:normal;font-variant-position:normal;font-variant-caps:normal;font-variant-numeric:normal;font-variant-alternates:normal;font-feature-settings:normal;text-indent:0;text-align:start;text-decoration:none;text-decoration-line:none;text-decoration-style:solid;text-decoration-color:#000000;letter-spacing:normal;word-spacing:normal;text-transform:none;writing-mode:lr-tb;direction:ltr;text-orientation:mixed;dominant-baseline:auto;baseline-shift:baseline;text-anchor:start;white-space:normal;shape-padding:0;clip-rule:nonzero;display:inline;overflow:visible;visibility:visible;opacity:1;isolation:auto;mix-blend-mode:normal;color-interpolation:sRGB;color-interpolation-filters:linearRGB;solid-color:#000000;solid-opacity:1;vector-effect:none;fill:#000000;fill-opacity:1;fill-rule:nonzero;stroke:none;stroke-width:10.9919;stroke-linecap:round;stroke-linejoin:bevel;stroke-miterlimit:4;stroke-dasharray:none;stroke-dashoffset:341.41;stroke-opacity:1;paint-order:markers stroke fill;color-rendering:auto;image-rendering:auto;shape-rendering:auto;text-rendering:auto;enable-background:accumulate" />
    <g
       transform="translate(56.51597,-26.655547)"
       id="layer1-8" />
    <g
       id="text2534"
       style="font-size:39.51110077px;line-height:1.25;font-family:'MS UI Gothic';-inkscape-font-specification:'MS UI Gothic';letter-spacing:0px;stroke:#ffffff;stroke-width:1;stroke-miterlimit:4;stroke-dasharray:none"
       aria-label="119">
      <path
         id="path1055"
         style="font-style:normal;font-variant:normal;font-weight:normal;font-stretch:normal;font-size:39.51110077px;font-family:bungee;-inkscape-font-specification:bungee;stroke:#ffffff;stroke-width:1;stroke-miterlimit:4;stroke-dasharray:none"
         d="M 109.08509,151.25842 H 91.621186 q -0.750711,0 -1.106311,-0.31609 -0.316088,-0.3556 -0.316088,-1.10631 v -4.78084 q 0,-0.75071 0.316088,-1.0668 0.3556,-0.3556 1.106311,-0.3556 h 4.425243 v -13.19671 h -3.635021 q -0.750711,0 -1.106311,-0.31609 -0.316088,-0.3556 -0.316088,-1.10631 v -4.78084 q 0,-0.75071 0.316088,-1.0668 0.3556,-0.3556 1.106311,-0.3556 h 11.458222 q 0.75071,0 1.0668,0.3556 0.3556,0.31609 0.3556,1.0668 v 19.39995 h 3.79306 q 0.75071,0 1.0668,0.3556 0.3556,0.31609 0.3556,1.0668 v 4.78084 q 0,0.75071 -0.3556,1.10631 -0.31609,0.31609 -1.0668,0.31609 z" />
      <path
         id="path1057"
         style="font-style:normal;font-variant:normal;font-weight:normal;font-stretch:normal;font-size:39.51110077px;font-family:bungee;-inkscape-font-specification:bungee;stroke:#ffffff;stroke-width:1;stroke-miterlimit:4;stroke-dasharray:none"
         d="m 132.85349,151.25842 h -17.46391 q -0.75071,0 -1.10631,-0.31609 -0.31609,-0.3556 -0.31609,-1.10631 v -4.78084 q 0,-0.75071 0.31609,-1.0668 0.3556,-0.3556 1.10631,-0.3556 h 4.42525 v -13.19671 h -3.63503 q -0.75071,0 -1.10631,-0.31609 -0.31609,-0.3556 -0.31609,-1.10631 v -4.78084 q 0,-0.75071 0.31609,-1.0668 0.3556,-0.3556 1.10631,-0.3556 h 11.45822 q 0.75071,0 1.0668,0.3556 0.3556,0.31609 0.3556,1.0668 v 19.39995 h 3.79307 q 0.75071,0 1.0668,0.3556 0.3556,0.31609 0.3556,1.0668 v 4.78084 q 0,0.75071 -0.3556,1.10631 -0.31609,0.31609 -1.0668,0.31609 z" />
      <path
         id="path1059"
         style="font-style:normal;font-variant:normal;font-weight:normal;font-stretch:normal;font-size:39.51110077px;font-family:bungee;-inkscape-font-specification:bungee;stroke:#ffffff;stroke-width:1;stroke-miterlimit:4;stroke-dasharray:none"
         d="m 151.20886,151.25842 h -9.08755 q -0.75071,0 -1.10631,-0.31609 -0.31609,-0.3556 -0.31609,-1.10631 v -4.66231 q 0,-0.75071 0.31609,-1.0668 0.3556,-0.3556 1.10631,-0.3556 h 7.38858 q 1.46191,0 1.97555,-0.43462 0.51365,-0.47413 0.51365,-1.93604 v -0.86925 q -0.94827,0.27658 -2.21262,0.43463 -1.22485,0.15804 -2.80529,0.15804 -5.334,0 -7.30956,-1.778 -1.97555,-1.81751 -1.97555,-5.334 v -3.79306 q 0,-1.81751 0.47413,-3.27943 0.51365,-1.46191 1.778,-2.48919 1.30387,-1.0668 3.51649,-1.61996 2.21262,-0.59267 5.61058,-0.59267 3.63502,0 5.92666,0.59267 2.33116,0.55316 3.63502,1.61996 1.30387,1.02728 1.778,2.48919 0.51365,1.46192 0.51365,3.27943 v 12.95964 q 0,3.59551 -2.09409,5.84764 -2.05458,2.25213 -7.62565,2.25213 z m 0.79023,-18.09608 v -2.33116 q 0,-0.63217 -0.47414,-1.02728 -0.47413,-0.43463 -2.17311,-0.43463 -1.778,0 -2.25213,0.43463 -0.47413,0.39511 -0.47413,1.02728 v 2.33116 q 0,0.59267 0.47413,1.02729 0.47413,0.39511 2.25213,0.39511 1.69898,0 2.17311,-0.39511 0.47414,-0.43462 0.47414,-1.02729 z" />
    </g>
  </g>
</svg>
