<?xml version="1.0" encoding="UTF-8"?>
<!-- Created with Inkscape (http://www.inkscape.org/) -->
<svg width="133.1mm" height="133.1mm" version="1.1" viewBox="0 0 133.1 133.1" xmlns="http://www.w3.org/2000/svg" xmlns:cc="http://creativecommons.org/ns#" xmlns:dc="http://purl.org/dc/elements/1.1/" xmlns:rdf="http://www.w3.org/1999/02/22-rdf-syntax-ns#" xmlns:xlink="http://www.w3.org/1999/xlink">
 <metadata>
  <rdf:RDF>
   <cc:Work rdf:about="">
    <dc:format>image/svg+xml</dc:format>
    <dc:type rdf:resource="http://purl.org/dc/dcmitype/StillImage"/>
   </cc:Work>
  </rdf:RDF>
 </metadata>
 <g transform="translate(-57.427 -70.189)">
  <path d="m119.04 187.67c-12.102-1.1673-23.263-6.671-31.985-15.773l-2.934-3.0619-2.8302 1.6566c-1.5566 0.91112-2.9555 1.5791-3.1087 1.4845-0.9231-0.57051-7.2577-11.316-7.2573-12.311 4e-5 -0.12718 1.1593-0.88845 2.5761-1.6917 1.4168-0.80326 2.7388-1.5664 2.9377-1.6958 0.28869-0.18783 0.24214-0.53867-0.23059-1.738-0.95519-2.4233-2.1812-7.5427-2.6345-11.001-3.4218-26.103 14.166-50.763 40.03-56.127l2.9938-0.62088v-7.1201l1.0444-0.21736c1.3567-0.28236 11.315-0.28236 12.671 0l1.0444 0.21736v7.1394l2.4368 0.47944c6.2715 1.2339 14.307 4.6911 19.425 8.3576 6.8931 4.9381 12.62 11.697 16.292 19.228 5.8719 12.042 6.7714 25.214 2.6025 38.11-0.74386 2.301-0.89991 3.0942-0.64029 3.2547 0.18882 0.11669 1.5146 0.88324 2.9463 1.7034s2.6047 1.5953 2.6068 1.7225c0.0158 0.94007-6.3366 11.745-7.2296 12.296-0.15038 0.0929-1.5608-0.57492-3.1342-1.4841l-2.8608-1.6531-3.3419 3.3953c-1.8381 1.8674-4.6108 4.3443-6.1616 5.5042-10.205 7.6321-22.701 11.157-35.259 9.9459zm12.597-51.908c0-0.71103-0.38011-0.92924-0.70447-0.4044-0.23167 0.37485 0.0435 1.1006 0.41724 1.1006 0.15798 0 0.28723-0.31331 0.28723-0.69624z" fill="#002868" fill-rule="evenodd"/>
  <path d="m123.98 70.189c-36.689 0-66.549 29.86-66.549 66.549s29.86 66.549 66.549 66.549c36.689 0 66.549-29.86 66.549-66.549s-29.86-66.549-66.549-66.549zm0 10.992c2.4486 0 4.8586 0.15894 7.2223 0.46405v6.9345l1.9105 0.36327c5.0854 0.96618 9.95 2.7272 14.496 5.2483v-0.0026c4.8392 2.684 9.1641 6.1498 12.856 10.299 3.9012 4.3848 6.9459 9.3584 9.0547 14.797v3e-3h3e-3c2.1873 5.6347 3.2949 11.573 3.2949 17.678 0 5.5952-0.93308 11.053-2.7673 16.256l-0.64648 1.8355 5.7707 3.3512c-1.8958 4.4884-4.3659 8.6714-7.3153 12.462l-5.7371-3.3285-1.2754 1.4609c-4.1513 4.7649-9.2848 8.7781-14.875 11.606l-3e-3 3e-3c-3.347 1.6964-6.8913 3.0015-10.53 3.8752-3.7478 0.90103-7.6222 1.3648-11.514 1.3648-3.8867 0-7.7604-0.45892-11.498-1.3591h-3e-3c-3.6376-0.87357-7.1754-2.1777-10.525-3.869-5.5844-2.8216-10.718-6.8222-14.861-11.578l-1.2738-1.463-5.6632 3.2887c-2.9497-3.7906-5.4189-7.9735-7.3147-12.462l5.6927-3.3042-0.65267-1.8376c-1.847-5.2148-2.7848-10.693-2.7848-16.301 0-6.1125 1.107-12.057 3.3006-17.698h0.0026v-3e-3c2.1154-5.4518 5.165-10.426 9.08-14.818 3.7042-4.155 8.0354-7.6117 12.889-10.297 4.5516-2.5142 9.4298-4.2667 14.529-5.2266l1.9141-0.36174v-6.9169c2.3637-0.30512 4.7743-0.46405 7.2229-0.46405zm-11.922 1.2795v2.3652c-4.885 1.1089-9.6126 2.7789-14.016 5.211l-0.0026 0.0026c-5.3135 2.9392-10.069 6.7332-14.123 11.281-4.2817 4.8036-7.6352 10.272-9.9534 16.246-2.4039 6.1821-3.623 12.717-3.623 19.399 0 5.4614 0.94575 10.797 2.5549 15.945l-1.7689 1.0268c-1.753-5.413-2.7037-11.192-2.7037-17.199 0-26.654 18.643-48.84 43.635-54.277zm23.844 0c24.992 5.4374 43.635 27.624 43.635 54.277 0 6.0075-0.95046 11.787-2.7037 17.2l-1.8547-1.0769c1.597-5.133 2.5368-10.449 2.5368-15.896 0-6.675-1.2167-13.203-3.6132-19.377v-3e-3c-2.3111-5.9597-5.6577-11.426-9.9255-16.223-4.0402-4.5407-8.7872-8.3429-14.088-11.283-4.3966-2.4383-9.1124-4.1147-13.986-5.2302zm27.045 90.992 1.818 1.0552c-10.138 10.946-24.641 17.787-40.785 17.787-16.143 0-30.647-6.841-40.785-17.787l1.6578-0.96327c4.293 4.5778 9.3641 8.4585 14.928 11.27v3e-3c3.6694 1.8526 7.5475 3.2841 11.545 4.2442 4.1034 0.98827 8.3444 1.4883 12.6 1.4883 4.2645 0 8.5042-0.50866 12.611-1.496 3.9969-0.95983 7.8823-2.3908 11.555-4.2519 5.5644-2.8146 10.562-6.7715 14.855-11.348z" color="#000000" color-rendering="auto" dominant-baseline="auto" image-rendering="auto" shape-rendering="auto" solid-color="#000000" style="font-feature-settings:normal;font-variant-alternates:normal;font-variant-caps:normal;font-variant-ligatures:normal;font-variant-numeric:normal;font-variant-position:normal;isolation:auto;mix-blend-mode:normal;paint-order:markers stroke fill;shape-padding:0;text-decoration-color:#000000;text-decoration-line:none;text-decoration-style:solid;text-indent:0;text-orientation:mixed;text-transform:none;white-space:normal"/>
  <ellipse cx="130.94" cy="135.67" rx=".18899" ry=".66146" stroke-width=".26458"/>
  <g fill="#fff">
   <g fill-opacity=".99216" fill-rule="evenodd" stroke-width="5.3993">
    <path transform="matrix(.26458 0 0 .26458 57.427 70.189)" d="m225.71 459.26c-43.865-6.0884-84.333-25.036-116.19-54.403-9.1404-8.4252-10.776-10.552-8.9144-11.593 1.7382-0.97277 4.7683 0.97876 12.765 8.2212 30.82 27.914 66.482 45.225 105.89 51.405 19.138 3.0008 56.728 2.2602 73.592-1.45 36.423-8.013 68.678-24.753 94.504-49.047 8.9563-8.4247 11.722-10.278 14.175-9.4991 2.8981 0.91981 2.777 1.2496-2.4586 6.6969-9.413 9.7937-27.708 23.926-41.177 31.808-21.703 12.7-43.491 20.953-68.007 25.758-14.071 2.7581-50.792 3.9614-64.18 2.1032z"/>
    <path transform="matrix(.26458 0 0 .26458 57.427 70.189)" d="m447.25 312.99c-1.2871-1.5509-1.0195-4.5676 1.1724-13.214 6.5933-26.009 7.5603-61.935 2.3395-86.919-16.022-76.671-70.564-135.23-145.3-156.01-7.107-1.9759-8.3206-2.8001-8.3206-5.6506 0-4.3687 1.2883-4.2654 18.945 1.5185 52.673 17.254 97.837 56.125 122.72 105.62 7.6975 15.31 16.162 41.414 19.07 58.808 4.4933 26.884 2.6178 63.862-4.5465 89.643-2.3854 8.584-3.3174 9.5349-6.0814 6.2046z"/>
    <path transform="matrix(.26458 0 0 .26458 57.427 70.189)" d="m48.851 303.21c-5.142-20.694-6.4015-34.082-5.587-59.392 0.59261-18.416 1.5789-27.262 4.346-38.981 16.976-71.892 69.498-129.31 139.16-152.13 17.674-5.7896 18.945-5.89 18.945-1.4963 0 2.9419-1.1984 3.6779-9.6429 5.9221-62.528 16.618-115.36 66.241-136.7 128.39-12.343 35.955-14.252 79.561-5.0496 115.34 1.9428 7.5529 2.2594 10.943 1.1472 12.283-2.7666 3.3336-3.6557 1.9996-6.6211-9.9348z"/>
   </g>
   <g transform="matrix(.16966 0 0 .16966 123.98 136.9)">
    <path id="Star" transform="matrix(.047 0 0 .047 0 -233)" d="m0-1e3 -587.79 1809 1538.8-1118h-1902.1l1538.8 1118z"/>
    <g id="Stars4">
     <use transform="rotate(27.692)" width="100%" height="100%" xlink:href="#Star"/>
     <use transform="rotate(55.385)" width="100%" height="100%" xlink:href="#Star"/>
     <use transform="rotate(83.077)" width="100%" height="100%" xlink:href="#Star"/>
     <use transform="rotate(110.77)" width="100%" height="100%" xlink:href="#Star"/>
    </g>
    <use transform="rotate(110.77)" width="100%" height="100%" xlink:href="#Stars4"/>
    <use transform="rotate(221.54)" width="100%" height="100%" xlink:href="#Stars4"/>
   </g>
  </g>
  <g stroke="#fff" aria-label="76">
   <path d="m119.37 122.22h-18.373c-0.98778 0-1.4224 0.43463-1.4224 1.4224v4.7808c0 0.98777 0.43462 1.4224 1.4224 1.4224h10.826v3.556l-3.2004 0.86924c-4.2277 1.2644-6.1637 2.8053-6.1637 7.8232v7.1515c0 0.98777 0.43462 1.4224 1.4224 1.4224h6.4008c0.98778 0 1.4224-0.43463 1.4224-1.4224v-6.9144l2.9238-0.86924c4.2277-1.2644 6.1637-2.8053 6.1637-7.8232v-9.9963c0-0.98777-0.43462-1.4224-1.4224-1.4224z"/>
   <path d="m137 151.26c9.0876 0 11.379-3.1609 11.379-7.9812v-3.7931c0-4.7018-2.1336-7.112-9.2851-7.112-2.0941 0-3.7536 0.19755-5.0179 0.59266v-0.86924c0-1.936 0.55316-2.3707 2.4892-2.3707h7.3886c0.98777 0 1.4224-0.43462 1.4224-1.4224v-4.6623c0-0.98777-0.39511-1.4224-1.4224-1.4224h-9.0876c-7.4676 0-9.7197 3.2794-9.7197 8.0998v12.96c0 4.8204 2.1336 7.9812 11.853 7.9812zm-2.9238-10.945c0-0.79022 0.3556-1.4224 2.6472-1.4224 2.3707 0 2.7263 0.63218 2.7263 1.4224v2.3312c0 0.82974-0.3556 1.4619-2.7263 1.4619-2.2916 0-2.6472-0.63217-2.6472-1.4619z"/>
  </g>
 </g>
</svg>
