<?xml version="1.0" encoding="UTF-8"?>
<!-- Created with Inkscape (http://www.inkscape.org/) -->
<svg width="133.1mm" height="133.1mm" version="1.1" viewBox="0 0 133.1 133.1" xmlns="http://www.w3.org/2000/svg" xmlns:cc="http://creativecommons.org/ns#" xmlns:dc="http://purl.org/dc/elements/1.1/" xmlns:rdf="http://www.w3.org/1999/02/22-rdf-syntax-ns#">
 <metadata>
  <rdf:RDF>
   <cc:Work rdf:about="">
    <dc:format>image/svg+xml</dc:format>
    <dc:type rdf:resource="http://purl.org/dc/dcmitype/StillImage"/>
   </cc:Work>
  </rdf:RDF>
 </metadata>
 <g transform="translate(-57.427 -70.189)">
  <path d="m117.1 188.05c-11.8-1.6384-22.399-7.0554-30.861-15.771-1.7559-1.8088-3.2908-3.2887-3.411-3.2887-0.1202 0-1.4863 0.73095-3.0359 1.6243-1.5495 0.89337-2.8739 1.6243-2.943 1.6243-0.49308 0-7.5185-11.899-7.5185-12.734 0-0.0926 1.3248-0.94731 2.9441-1.8994s2.9707-1.7495 3.0032-1.7721c0.0325-0.0226-0.453-1.6057-1.0789-3.5179-1.9191-5.8634-2.5667-10.932-2.3244-18.191 0.16565-4.9631 0.43311-7.1944 1.2237-10.209 3.2918-12.552 9.8138-22.312 20.012-29.95 5.5131-4.1287 14.016-7.8792 20.584-9.0793l2.741-0.50086v-7.4594l2.496-0.26089c3.1557-0.32984 7.6403-0.32887 10.397 0.0022l2.1319 0.25607v3.8012c0 3.4571 0.0695 3.8012 0.7677 3.8012 1.617 0 8.6822 2.0835 12.183 3.5926 13.97 6.0227 24.539 17.611 29.261 32.085 3.268 10.015 3.2802 21.729 0.0331 31.826-0.65932 2.0502-1.1603 3.7545-1.1133 3.7873 0.047 0.0327 1.4103 0.82545 3.0296 1.7616s2.9441 1.7899 2.9441 1.8973c0 0.6027-3.2453 6.5389-5.1478 9.4163l-2.2171 3.3531-6.295-3.4115-2.9964 3.1544c-7.1339 7.5101-16.399 12.827-26.349 15.12-4.9152 1.133-13.816 1.5872-18.461 0.94222z" fill="#fdd401" fill-rule="evenodd" style="paint-order:stroke fill markers"/>
  <g fill="#fff" fill-rule="evenodd">
   <g fill-opacity=".99216">
    <path d="m117.15 191.7c-11.606-1.6109-22.313-6.6241-30.743-14.394-2.4184-2.2292-2.851-2.7918-2.3586-3.0674 0.45991-0.25738 1.2616 0.25897 3.3774 2.1752 8.1546 7.3856 17.59 11.966 28.018 13.601 5.0636 0.79397 15.009 0.59801 19.471-0.38365 9.6368-2.1201 18.171-6.5493 25.004-12.977 2.3697-2.229 3.1014-2.7193 3.7505-2.5133 0.76678 0.24336 0.73475 0.33061-0.65049 1.7719-2.4905 2.5913-7.331 6.3304-10.895 8.4158-5.7423 3.3603-11.507 5.5437-17.993 6.8151-3.723 0.72975-13.439 1.0481-16.981 0.55648z" stroke-width="1.4286"/>
    <path transform="matrix(.26458 0 0 .26458 57.427 70.189)" d="m447.25 312.99c-1.2871-1.5509-1.0195-4.5676 1.1724-13.214 6.5933-26.009 7.5603-61.935 2.3395-86.919-16.022-76.671-70.564-135.23-145.3-156.01-7.107-1.9759-8.3206-2.8001-8.3206-5.6506 0-4.3687 1.2883-4.2654 18.945 1.5185 52.673 17.254 97.837 56.125 122.72 105.62 7.6975 15.31 16.162 41.414 19.07 58.808 4.4933 26.884 2.6178 63.862-4.5465 89.643-2.3854 8.584-3.3174 9.5349-6.0814 6.2046z" stroke-width="5.3993"/>
    <path d="m70.352 150.41c-1.3605-5.4753-1.6937-9.0176-1.4782-15.714 0.1568-4.8725 0.41775-7.2131 1.1499-10.314 4.4915-19.021 18.388-34.213 36.819-40.251 4.6763-1.5318 5.0125-1.5584 5.0125-0.3959 0 0.77838-0.31707 0.9731-2.5513 1.5669-16.544 4.3968-30.523 17.526-36.168 33.97-3.2657 9.5131-3.7709 21.05-1.336 30.516 0.51403 1.9984 0.5978 2.8953 0.30354 3.2499-0.732 0.88201-0.96723 0.52906-1.7518-2.6286z" stroke-width="1.4286"/>
   </g>
   <path d="m70.671 151.57c-1.4268-4.8046-1.88-8.4035-1.8714-14.86 0.0096-7.1122 0.534-10.651 2.4906-16.806 2.7235-8.568 6.9403-15.384 13.705-22.152 6.8619-6.8653 13.377-10.886 22.235-13.722 4.4351-1.42 4.8147-1.4446 4.8147-0.31217 0 0.77662-0.39205 0.9794-3.681 1.9038-7.5229 2.1145-15.185 6.5142-21.193 12.17-14.136 13.307-20.078 33.182-15.431 51.616 0.81725 3.2417 0.8266 3.4297 0.18771 3.7716-0.58005 0.31044-0.75275 0.0894-1.2572-1.6094z" style="paint-order:stroke fill markers"/>
   <path transform="matrix(.26458 0 0 .26458 57.427 70.189)" d="m447.66 313.49c-2.0593-1.1525-1.9604-2.5959 1.0243-14.942 21.983-90.932-21.986-185.35-105.96-227.53-11.27-5.661-27.293-11.687-38.799-14.591-5.1478-1.2994-6.0714-2.0848-6.0714-5.1624 0-3.3505 0.35739-3.552 4.6429-2.6178 36.573 7.9722 79.524 34.289 106.28 65.122 44.961 51.807 61.742 120.07 46.044 187.29-1.6037 6.8681-3.3595 12.762-3.9017 13.097-0.54223 0.33511-2.0116 0.0353-3.2654-0.66642z" style="paint-order:stroke fill markers"/>
  </g>
  <text transform="matrix(.26458 0 0 .26458 57.427 70.189)" font-family="'MS UI Gothic'" font-size="26.667px" letter-spacing="0px" style="line-height:1.25;shape-inside:url(#rect3190);white-space:pre" xml:space="preserve"/>
  <path d="m74.05 133.34c0-5.0974 2.3184-14.03 5.07-19.534 6.7928-13.588 20.591-24.134 35.026-26.772l2.6212-0.47897v-7.1359l2.0388-0.24488c2.6407-0.31719 8.2298-0.31968 10.528-0.0047l1.8017 0.24695v7.1385l2.6212 0.47897c6.7362 1.2309 14.204 4.6282 20.361 9.2624 8.1676 6.148 14.458 15.053 17.524 24.807 1.1582 3.6847 2.2106 9.6109 2.2106 12.449v2.0674h-99.802z" fill="#076a21" fill-rule="evenodd" stroke-width="0" style="paint-order:stroke fill markers"/>
  <path d="m123.98 69.03c-36.689 0-66.549 29.86-66.549 66.549 0 36.689 29.86 66.549 66.549 66.549 36.689 0 66.549-29.86 66.549-66.549 0-36.689-29.86-66.549-66.549-66.549zm0 10.992c2.4486 0 4.8586 0.15894 7.2223 0.46405v6.9345l1.9105 0.36327c5.0854 0.96618 9.95 2.7272 14.496 5.2483v-0.0026c4.8392 2.684 9.1641 6.1498 12.856 10.299 3.9012 4.3848 6.9459 9.3584 9.0547 14.797v3e-3h3e-3c2.1873 5.6347 3.2949 11.573 3.2949 17.678 0 5.5952-0.93308 11.053-2.7673 16.256l-0.64648 1.8355 5.7707 3.3512c-1.8958 4.4884-4.3659 8.6714-7.3153 12.462l-5.7371-3.3285-1.2754 1.4609c-4.1513 4.7649-9.2848 8.7781-14.875 11.606l-3e-3 3e-3c-3.347 1.6964-6.8913 3.0015-10.53 3.8752-3.7478 0.90103-7.6222 1.3648-11.514 1.3648-3.8867 0-7.7604-0.45892-11.498-1.3591h-3e-3c-3.6376-0.87357-7.1754-2.1777-10.525-3.869-5.5844-2.8216-10.718-6.8222-14.861-11.578l-1.2738-1.463-5.6632 3.2887c-2.9497-3.7906-5.4189-7.9735-7.3147-12.462l5.6927-3.3042-0.65267-1.8376c-1.847-5.2148-2.7848-10.693-2.7848-16.301 0-6.1125 1.107-12.057 3.3006-17.698h0.0026v-3e-3c2.1154-5.4518 5.165-10.426 9.08-14.818 3.7042-4.155 8.0354-7.6117 12.889-10.297 4.5516-2.5142 9.4298-4.2667 14.529-5.2266l1.9141-0.36174v-6.9169c2.3637-0.30512 4.7743-0.46405 7.2229-0.46405zm-11.922 1.2795v2.3652c-4.885 1.1089-9.6126 2.7789-14.016 5.211l-0.0026 0.0026c-5.3135 2.9392-10.069 6.7332-14.123 11.281-4.2817 4.8036-7.6352 10.272-9.9534 16.246-2.4039 6.1821-3.623 12.717-3.623 19.399 0 5.4614 0.94575 10.797 2.5549 15.945l-1.7689 1.0268c-1.753-5.413-2.7037-11.192-2.7037-17.199 0-26.654 18.643-48.84 43.635-54.277zm23.844 0c24.992 5.4374 43.635 27.624 43.635 54.277 0 6.0075-0.95046 11.787-2.7037 17.2l-1.8547-1.0769c1.597-5.133 2.5368-10.449 2.5368-15.896 0-6.675-1.2167-13.203-3.6132-19.377v-3e-3c-2.3111-5.9597-5.6577-11.426-9.9255-16.223-4.0402-4.5407-8.7872-8.3429-14.088-11.283-4.3966-2.4383-9.1124-4.1147-13.986-5.2302zm27.045 90.992 1.818 1.0552c-10.138 10.946-24.641 17.787-40.785 17.787-16.143 0-30.647-6.841-40.785-17.787l1.6578-0.96327c4.293 4.5778 9.3641 8.4585 14.928 11.27v3e-3c3.6694 1.8526 7.5475 3.2841 11.545 4.2442 4.1034 0.98827 8.3444 1.4883 12.6 1.4883 4.2645 0 8.5042-0.50866 12.611-1.496 3.9969-0.95983 7.8823-2.3908 11.555-4.2519 5.5644-2.8146 10.562-6.7715 14.855-11.348z" color="#000000" color-rendering="auto" dominant-baseline="auto" image-rendering="auto" shape-rendering="auto" solid-color="#000000" style="font-feature-settings:normal;font-variant-alternates:normal;font-variant-caps:normal;font-variant-ligatures:normal;font-variant-numeric:normal;font-variant-position:normal;isolation:auto;mix-blend-mode:normal;paint-order:markers stroke fill;shape-padding:0;text-decoration-color:#000000;text-decoration-line:none;text-decoration-style:solid;text-indent:0;text-orientation:mixed;text-transform:none;white-space:normal"/>
  <g transform="matrix(.86794 0 0 .86794 16.053 12.365)">
   <path d="m124.35 111.8-1.2104-9.549" fill="none" stroke="#000" stroke-width=".47274"/>
   <g fill-rule="evenodd">
    <path d="m108.39 99.602s0.46 5.8267 2.1467 7.36c1.6867 1.5333 5.98 1.6867 5.98 1.6867s-4.7533 2.6067-5.06 5.2133c-0.30667 2.6067 2.6067 6.2867 2.6067 6.2867s0.91999-1.38 1.5333-1.6867c0.61333-0.30667 1.9933-0.15333 2.76-0.61333s2.6067-2.6067 3.3733-2.6067 3.0667 2.1467 3.9867 2.6067c0.92001 0.46 2.3 0.91999 2.9133 1.38 0.61333 0.45999 1.5333 0.92001 1.5333 0.92001s1.0733-1.0734 1.5333-1.84c0.46-0.76667 0-1.2267 0.46-1.9933 0.46-0.76666 2.6067-3.0667 2.1467-4.2933s-1.0733-1.5333-2.1467-1.6867c-1.0733-0.15333-2.1467 0-2.1467 0l2.1467-1.2267s1.2267 0.46 2.3 0.46c1.0733 0 4.9067-1.2267 5.6733-1.38 0.76667-0.15334 2.6067 0.30667 2.6067 0.30667s-0.61333-6.5933-5.8267-6.9c-5.2133-0.30667-4.6 2.9133-5.98 3.8333-1.38 0.91999-2.4533 2.1467-2.4533 2.1467s0.46-1.5333 1.2267-2.4533c0.76667-0.92 2.6067-2.76 3.22-3.68 0.61333-0.91999 1.38-3.22 1.38-4.2933 0-1.0733-0.76667-2.9133-0.76667-3.8333s0.15334-1.84 0.15334-1.84-3.0667 0.92001-4.9067 2.4533c-1.84 1.5333-3.8333 5.06-3.8333 5.06s-1.38-2.6067-2.3-3.3733c-0.92-0.76666-3.3733-1.9933-3.9867-2.6067-0.61334-0.61333-1.38-1.84-1.38-1.84s-1.9933 4.14-1.9933 5.52 1.0733 3.5267 1.0733 3.5267c-1.5333-0.61333-3.3733 0.15333-4.7533 0.15333s-3.22-0.76666-3.22-0.76666z" fill="#dd1810" stroke="#000" stroke-width=".31024"/>
    <g stroke-width=".24908">
     <path d="m114.27 115.29s1.0759-2.2864 2.4209-2.6899c1.3449-0.40348 5.7832 0.53797 5.7832 0.53797l-0.67246 1.4794s-1.7484 0-1.8829-0.53797c-0.1345-0.53797 0.40348-0.80696 0.40348-0.80696s-2.0174-0.13449-3.2278 0c-1.2104 0.1345-2.8244 2.0174-2.8244 2.0174z" fill="#fee500"/>
     <path d="m125.7 113.01s0.94146 0.1345 1.4794 0.80697 1.3449 2.1519 1.3449 2.1519 0.53797-1.0759-0.13449-1.8829c-0.67247-0.80696-1.2104-1.2104-1.2104-1.2104l0.53797-0.80697s0.80696 0.1345 1.2104 0.80697c0.40348 0.67246 0.80696 0.94145 0.80696 0.94145s0.26899-0.94145-0.26898-1.4794c-0.53798-0.53797-0.94146-0.67246-0.94146-0.67246s0.53797-0.40348 1.3449-0.1345c0.80697 0.26899 2.1519 1.076 2.1519 1.076s-0.80696-1.3449-1.4794-1.4794c-0.67247-0.13449-1.6139-0.13449-1.6139-0.13449s3.4968-3.6313 4.8418-4.4383c1.3449-0.80695 3.9003-1.2104 3.9003-1.2104s0-0.53797-0.94145-0.67246c-0.94146-0.1345-4.9763 2.0174-4.9763 2.0174l0.94145-1.6139s-5.9177 3.4968-6.5902 4.4383c-0.67246 0.94145 1.076-2.5554 1.7484-3.3623 0.67247-0.80697 2.0174-2.0174 2.4209-3.2278 0.40349-1.2104 0.80696-2.1519 0.80696-2.1519s-2.5554 2.4209-3.0933 3.2278-0.94146 2.4209-1.7484 2.0174c-0.80695-0.40348-0.94145-1.4794-0.94145-1.4794s-0.26899 1.8829-0.80696 1.7484-0.80696-0.80696-0.80696-0.80696 0 1.2104-0.67246 1.0759c-0.67247-0.13449-0.1345-1.0759-0.67247-2.0174-0.53797-0.94145-1.3449-1.0759-1.3449-1.0759s0.67247 1.4794 0.53798 2.1519-0.26899 2.2864-1.2104 1.7484c-0.94146-0.53798-1.076-1.3449-1.7484-1.2104-0.67246 0.13449 0.26899 0.67246-0.13449 1.0759s-1.2104 0.67247-1.2104 0.67247 0.94145 0.13449 1.4794 0.94145c0.53797 0.80696 1.7484 0.80696 2.2864 1.8829 0.53798 1.076 0.80697 2.6899 0.80697 2.6899z" fill="#fee500"/>
     <path d="m120.32 107.09 3.2278 5.3797s1.076-1.4794 1.7484-1.4794c0.67247 0 1.4794 0.53797 1.4794 0.53797s0.40348-2.5554 0.26898-3.3623c-0.13449-0.80695-0.53797-1.6139-1.4794-1.6139s-1.2104-0.13449-1.4794 0.53798c-0.26898 0.67247-0.26898 2.8244-0.26898 2.8244s-0.40348-2.4209-1.3449-3.0934c-0.94145-0.67246-0.94145-0.94146-1.6139-0.53797-0.67247 0.40348-0.53797 0.80696-0.53797 0.80696z" fill="#016b29"/>
     <path d="m128.79 102.11c2.5e-4 -0.37159-0.36104-0.67298-0.80696-0.67298-0.44591 0-0.8073 0.30139-0.80696 0.67298-2.5e-4 0.3716 0.36105 0.67299 0.80696 0.67299 0.44592 0 0.8073-0.30139 0.80696-0.67299z"/>
    </g>
   </g>
   <path d="m125.8 111c0.2358-2.0209 0.77026-3.8759 1.0061-5.8968" fill="none" stroke="#000" stroke-width=".47274"/>
   <g fill-rule="evenodd" stroke-width=".24908">
    <path d="m127.52 105.1c2.5e-4 -0.37159-0.36105-0.67297-0.80696-0.67297-0.44592 0-0.8073 0.30138-0.80696 0.67297-2.5e-4 0.3716 0.36104 0.67299 0.80696 0.67299 0.44591 0 0.8073-0.30139 0.80696-0.67299z"/>
    <path d="m123.14 102.25c2.5e-4 -0.3716-0.36105-0.67298-0.80696-0.67298s-0.8073 0.30138-0.80696 0.67298c-2.5e-4 0.37159 0.36105 0.67298 0.80696 0.67298s0.8073-0.30139 0.80696-0.67298z"/>
    <path d="m121.58 104.53c2.5e-4 -0.3716-0.36105-0.67299-0.80696-0.67299s-0.8073 0.30139-0.80696 0.67299c-2.5e-4 0.37159 0.36105 0.67298 0.80696 0.67298s0.8073-0.30139 0.80696-0.67298z"/>
   </g>
   <path d="m126.5 111.23c0.91348-2.8058 1.3624-6.0097 1.3467-9.1141" fill="none" stroke="#000" stroke-width=".47274"/>
   <path d="m124.25 111.47c0.78772-2.6503 1.1108-5.4997 1.1685-8.2496m-1.8462 8.8434c-0.67944-3.1376-0.49607-6.242-1.2419-9.4128m0.77026 8.7089c-1.0718-2.2753-1.48-4.6502-2.5187-6.826" fill="none" stroke="#000" stroke-width=".47274"/>
   <path d="m126.29 103.25c2.5e-4 -0.37159-0.36105-0.67298-0.80696-0.67298s-0.8073 0.30139-0.80696 0.67298c-2.5e-4 0.37159 0.36105 0.67298 0.80696 0.67298s0.8073-0.30139 0.80696-0.67298z" fill-rule="evenodd" stroke-width=".24908"/>
  </g>
  <g stroke="#fff" aria-label="65">
   <path d="m111.35 151.26c9.0876 0 11.379-3.1609 11.379-7.9812v-3.7931c0-4.7018-2.1336-7.112-9.2851-7.112-2.0941 0-3.7536 0.19755-5.0179 0.59266v-0.86924c0-1.936 0.55316-2.3707 2.4892-2.3707h7.3886c0.98778 0 1.4224-0.43462 1.4224-1.4224v-4.6623c0-0.98777-0.39511-1.4224-1.4224-1.4224h-9.0876c-7.4676 0-9.7197 3.2794-9.7197 8.0998v12.96c0 4.8204 2.1336 7.9812 11.853 7.9812zm-2.9238-10.945c0-0.79022 0.3556-1.4224 2.6472-1.4224 2.3707 0 2.7263 0.63218 2.7263 1.4224v2.3312c0 0.82974-0.3556 1.4619-2.7263 1.4619-2.2916 0-2.6472-0.63217-2.6472-1.4619z"/>
   <path d="m140.75 150.67c4.7413 0 7.7047-2.5287 7.7047-6.5588v-5.492c0-4.1882-2.6472-6.2823-6.9144-6.2823h-5.413v-2.5682h9.4827c0.98777 0 1.4224-0.43462 1.4224-1.4224v-4.7018c0-0.98777-0.43463-1.4224-1.4224-1.4224h-17.029c-0.98778 0-1.4224 0.43463-1.4224 1.4224v14.777c0 0.98778 0.43462 1.4224 1.4224 1.4224h9.7988c0.63217 0 1.0668 0.27658 1.0668 0.90876v1.5409c0 0.63218-0.43462 0.90876-1.0668 0.90876h-10.194c-0.98778 0-1.4224 0.43462-1.4224 1.4224v4.6228c0 0.98777 0.43462 1.4224 1.4224 1.4224z"/>
  </g>
 </g>
</svg>
