<?xml version="1.0" encoding="UTF-8"?>
<!-- Created with Inkscape (http://www.inkscape.org/) -->
<svg width="133.1mm" height="133.1mm" version="1.1" viewBox="0 0 133.1 133.1" xmlns="http://www.w3.org/2000/svg" xmlns:cc="http://creativecommons.org/ns#" xmlns:dc="http://purl.org/dc/elements/1.1/" xmlns:rdf="http://www.w3.org/1999/02/22-rdf-syntax-ns#">
 <metadata>
  <rdf:RDF>
   <cc:Work rdf:about="">
    <dc:format>image/svg+xml</dc:format>
    <dc:type rdf:resource="http://purl.org/dc/dcmitype/StillImage"/>
   </cc:Work>
  </rdf:RDF>
 </metadata>
 <g transform="translate(-57.427 -70.189)">
  <g>
   <g fill-rule="evenodd">
    <path d="m119.02 187.88c-7.7325-0.74582-15.929-3.5757-22.236-7.6772-2.6308-1.7109-6.6043-4.7329-7.4188-5.6424-0.47694-0.53255-0.5005-2.3605-0.48339-37.511l0.01799-36.951 0.90278-0.8365c1.505-1.3945 5.8152-4.5789 7.8927-5.8312 4.7133-2.8411 10.441-5.0818 15.867-6.2071l3.0057-0.62335v-7.1484l1.0485-0.21822c1.362-0.28348 11.36-0.28348 12.722 0l1.0485 0.21822v7.1677l2.4465 0.48134c8.079 1.5895 16.779 5.8064 23.067 11.18l2.1669 1.852v73.954l-2.0271 1.696c-11.06 9.2534-24.187 13.43-38.02 12.096zm12.647-52.114c0-0.71386-0.38162-0.93292-0.70727-0.40601-0.23259 0.37634 0.0436 1.105 0.4189 1.105 0.15861 0 0.28837-0.31455 0.28837-0.699z" fill="#facf08" stroke-linecap="round" stroke-width=".28004" style="paint-order:stroke fill markers"/>
    <path d="m157.71 136.05 0.0176-36.456 2.3005 2.4661c5.9227 6.3488 10.612 16.001 12.382 25.485 0.64779 3.4715 0.64055 12.982-0.0127 16.652-0.2911 1.6354-1.0525 4.741-1.6921 6.9012-0.92977 3.1405-1.059 3.997-0.64508 4.2735 0.28477 0.19023 1.6286 0.97814 2.9862 1.7509l2.4684 1.405-1.4305 2.8456c-1.5592 3.1016-5.033 8.6806-5.8012 9.3169-0.3386 0.28045-1.2418-0.0559-3.0576-1.1384-1.4174-0.845-2.7858-1.5431-3.041-1.5514-0.25514-8e-3 -1.3702 1.0019-2.478 2.2448l-2.014 2.2598z" fill="#115aac"/>
    <path d="m87.916 170.37-2.0808-2.3592-1.1632 0.64034c-0.63975 0.35218-2.03 1.1484-3.0894 1.7694l-1.9262 1.1291-1.4427-1.9746c-2.0504-2.8064-5.7256-9.5278-5.7566-10.528-0.01903-0.6137 0.6783-1.2553 2.5616-2.357 1.4233-0.83257 2.683-1.609 2.7995-1.7254s-0.25309-1.683-0.82116-3.4813c-1.9632-6.2146-2.4918-9.7152-2.4918-16.501 0-6.821 0.57853-10.636 2.4888-16.412 2.2671-6.8547 7.1273-15.053 11.423-19.269l1.8612-1.8266v37.627c0 20.695-0.06341 37.627-0.1409 37.627-0.0775 0-1.0773-1.0616-2.2217-2.3592z" fill="#115aac"/>
   </g>
   <path d="m123.98 70.189c-36.689 0-66.549 29.86-66.549 66.549s29.86 66.549 66.549 66.549c36.689 0 66.549-29.86 66.549-66.549s-29.86-66.549-66.549-66.549zm0 10.992c2.4486 0 4.8586 0.15894 7.2223 0.46405v6.9345l1.9105 0.36327c5.0854 0.96618 9.95 2.7272 14.496 5.2483v-0.0026c4.8392 2.684 9.1641 6.1498 12.856 10.299 3.9012 4.3848 6.9459 9.3584 9.0547 14.797v3e-3h3e-3c2.1873 5.6347 3.2949 11.573 3.2949 17.678 0 5.5952-0.93308 11.053-2.7673 16.256l-0.64648 1.8355 5.7707 3.3512c-1.8958 4.4884-4.3659 8.6714-7.3153 12.462l-5.7371-3.3285-1.2754 1.4609c-4.1513 4.7649-9.2848 8.7781-14.875 11.606l-3e-3 3e-3c-3.347 1.6964-6.8913 3.0015-10.53 3.8752-3.7478 0.90103-7.6222 1.3648-11.514 1.3648-3.8867 0-7.7604-0.45892-11.498-1.3591h-3e-3c-3.6376-0.87357-7.1754-2.1777-10.525-3.869-5.5844-2.8216-10.718-6.8222-14.861-11.578l-1.2738-1.463-5.6632 3.2887c-2.9497-3.7906-5.4189-7.9735-7.3147-12.462l5.6927-3.3042-0.65267-1.8376c-1.847-5.2148-2.7848-10.693-2.7848-16.301 0-6.1125 1.107-12.057 3.3006-17.698h0.0026v-3e-3c2.1154-5.4518 5.165-10.426 9.08-14.818 3.7042-4.155 8.0354-7.6117 12.889-10.297 4.5516-2.5142 9.4298-4.2667 14.529-5.2266l1.9141-0.36174v-6.9169c2.3637-0.30512 4.7743-0.46405 7.2229-0.46405zm-11.922 1.2795v2.3652c-4.885 1.1089-9.6126 2.7789-14.016 5.211l-0.0026 0.0026c-5.3135 2.9392-10.069 6.7332-14.123 11.281-4.2817 4.8036-7.6352 10.272-9.9534 16.246-2.4039 6.1821-3.623 12.717-3.623 19.399 0 5.4614 0.94575 10.797 2.5549 15.945l-1.7689 1.0268c-1.753-5.413-2.7037-11.192-2.7037-17.199 0-26.654 18.643-48.84 43.635-54.277zm23.844 0c24.992 5.4374 43.635 27.624 43.635 54.277 0 6.0075-0.95046 11.787-2.7037 17.2l-1.8547-1.0769c1.597-5.133 2.5368-10.449 2.5368-15.896 0-6.675-1.2167-13.203-3.6132-19.377v-3e-3c-2.3111-5.9597-5.6577-11.426-9.9255-16.223-4.0402-4.5407-8.7872-8.3429-14.088-11.283-4.3966-2.4383-9.1124-4.1147-13.986-5.2302zm27.045 90.992 1.818 1.0552c-10.138 10.946-24.641 17.787-40.785 17.787-16.143 0-30.647-6.841-40.785-17.787l1.6578-0.96327c4.293 4.5778 9.3641 8.4585 14.928 11.27v3e-3c3.6694 1.8526 7.5475 3.2841 11.545 4.2442 4.1034 0.98827 8.3444 1.4883 12.6 1.4883 4.2645 0 8.5042-0.50866 12.611-1.496 3.9969-0.95983 7.8823-2.3908 11.555-4.2519 5.5644-2.8146 10.562-6.7715 14.855-11.348z" color="#000000" color-rendering="auto" dominant-baseline="auto" image-rendering="auto" shape-rendering="auto" solid-color="#000000" style="font-feature-settings:normal;font-variant-alternates:normal;font-variant-caps:normal;font-variant-ligatures:normal;font-variant-numeric:normal;font-variant-position:normal;isolation:auto;mix-blend-mode:normal;paint-order:markers stroke fill;shape-padding:0;text-decoration-color:#000000;text-decoration-line:none;text-decoration-style:solid;text-indent:0;text-orientation:mixed;text-transform:none;white-space:normal"/>
  </g>
  <ellipse cx="130.94" cy="135.67" rx=".18899" ry=".66146" stroke-width=".26458"/>
  <g fill="#fff" fill-opacity=".99216" fill-rule="evenodd" stroke-width="5.3993">
   <path transform="matrix(.26458 0 0 .26458 57.427 70.189)" d="m225.71 459.26c-43.865-6.0884-84.333-25.036-116.19-54.403-9.1404-8.4252-10.776-10.552-8.9144-11.593 1.7382-0.97277 4.7683 0.97876 12.765 8.2212 30.82 27.914 66.482 45.225 105.89 51.405 19.138 3.0008 56.728 2.2602 73.592-1.45 36.423-8.013 68.678-24.753 94.504-49.047 8.9563-8.4247 11.722-10.278 14.175-9.4991 2.8981 0.91981 2.777 1.2496-2.4586 6.6969-9.413 9.7937-27.708 23.926-41.177 31.808-21.703 12.7-43.491 20.953-68.007 25.758-14.071 2.7581-50.792 3.9614-64.18 2.1032z"/>
   <path transform="matrix(.26458 0 0 .26458 57.427 70.189)" d="m447.25 312.99c-1.2871-1.5509-1.0195-4.5676 1.1724-13.214 6.5933-26.009 7.5603-61.935 2.3395-86.919-16.022-76.671-70.564-135.23-145.3-156.01-7.107-1.9759-8.3206-2.8001-8.3206-5.6506 0-4.3687 1.2883-4.2654 18.945 1.5185 52.673 17.254 97.837 56.125 122.72 105.62 7.6975 15.31 16.162 41.414 19.07 58.808 4.4933 26.884 2.6178 63.862-4.5465 89.643-2.3854 8.584-3.3174 9.5349-6.0814 6.2046z"/>
   <path transform="matrix(.26458 0 0 .26458 57.427 70.189)" d="m48.851 303.21c-5.142-20.694-6.4015-34.082-5.587-59.392 0.59261-18.416 1.5789-27.262 4.346-38.981 16.976-71.892 69.498-129.31 139.16-152.13 17.674-5.7896 18.945-5.89 18.945-1.4963 0 2.9419-1.1984 3.6779-9.6429 5.9221-62.528 16.618-115.36 66.241-136.7 128.39-12.343 35.955-14.252 79.561-5.0496 115.34 1.9428 7.5529 2.2594 10.943 1.1472 12.283-2.7666 3.3336-3.6557 1.9996-6.6211-9.9348z"/>
  </g>
  <text transform="matrix(.26458 0 0 .26458 57.427 70.189)" font-family="'MS UI Gothic'" font-size="26.667px" letter-spacing="0px" style="line-height:1.25;shape-inside:url(#rect2776);white-space:pre" xml:space="preserve"/>
  <g fill="#043b86" fill-rule="evenodd" stroke-linecap="round">
   <g stroke-width="1.4308"></g>
   <g stroke-width=".25294"></g>
  </g>
  <g fill="#115aac" fill-rule="evenodd" stroke-width="0"></g>
  <g transform="matrix(1.1927 0 0 1.1927 132.19 -148.3)" fill="#115aac" fill-rule="evenodd" stroke-width="0">
   <path d="m-16.313 240.82c0-0.61595 0.02636-0.86793 0.05857-0.55996 0.03222 0.30798 0.03222 0.81194 0 1.1199-0.03222 0.30798-0.05857 0.056-0.05857-0.55995z" style="paint-order:stroke fill markers"/>
   <path d="m-8.0468 269.8c-3.5361-1.4263-6.71-7.7588-8.1575-16.276-0.85784-5.0476-0.97339-6.5281-0.97678-12.516l-0.0031-5.4094 0.40611-0.40622c0.22336-0.22343 0.4294-0.3762 0.45786-0.33949 0.02847 0.0367-0.0074 1.0075-0.07977 2.1572-0.16558 2.6319-0.0337 8.0889 0.26672 11.036 1.1354 11.14 4.6723 19.058 8.9705 20.084 2.3553 0.56217 5.0633-1.6849 6.9488-5.7659 0.69461-1.5035 1.6228-4.1642 2.0102-5.7626 0.27078-1.1171 0.29691-1.1598 0.65503-1.0704 0.20515 0.0512 0.39749 0.11756 0.42742 0.14749 0.097177 0.0972-0.44578 2.32-0.97465 3.9902-1.6042 5.0661-3.8115 8.5935-6.1864 9.8861-1.0549 0.57414-2.6839 0.67963-3.7645 0.24379z" style="paint-order:stroke fill markers"/>
   <path d="m3.6432 240.71c-0.012501-13.265-3.5056-24.571-8.3245-26.944-0.99889-0.49195-2.5118-0.48602-3.5435 0.0139-0.77719 0.3766-2.4875 2.0117-2.9567 2.8266l-0.26889 0.46707 1.7323 0.77071-2.2398 2.1919-2.2398 2.1919-0.11175-3.1236c-0.06146-1.718-0.08859-3.1467-0.06028-3.175 0.02831-0.0283 0.42633 0.11432 0.88449 0.31694l0.83302 0.3684 0.70473-1.1307c2.7001-4.3322 6.1225-5.2369 9.1167-2.4101 3.4314 3.2396 5.8394 10.245 6.9195 20.129 0.24477 2.24 0.45918 7.7127 0.35518 9.0657-0.082493 1.0732-0.13991 1.2613-0.44617 1.462l-0.3515 0.23031z" style="paint-order:stroke fill markers"/>
   <path d="m-4.943 250.31c-0.42474-0.17361-0.39884-0.19316 1.7392-1.3124 10.05-5.2607 18.279-12.286 21.229-18.123 1.0864-2.1495 1.3706-4.4301 0.7196-5.7748-1.2671-2.6174-5.6172-3.433-11.694-2.1924-0.84605 0.17272-2.0261 0.45357-2.6223 0.62411s-1.1104 0.28273-1.1426 0.2493c-0.032236-0.0334-0.081979-0.2269-0.11054-0.42997-0.048792-0.34689 0.033776-0.39473 1.3666-0.79176 5.7914-1.7252 11.001-1.8931 13.812-0.44518 0.76302 0.39302 1.6599 1.2895 2.0552 2.0541 0.428 0.82797 0.51773 2.5492 0.19871 3.8114-1.5845 6.2692-11.479 15.487-23.099 21.521-1.92 0.99689-1.9606 1.0103-2.452 0.80941z" style="paint-order:stroke fill markers"/>
   <path d="m-4.9771 226.75c-0.18479-0.0892-0.33597-0.21411-0.33597-0.27767 0-0.14594 1.1395-0.675 3.8444-1.785l2.1272-0.87291 0.094175 0.37522c0.11065 0.44088 0.030114 0.52432-0.76495 0.79253-0.32851 0.11081-1.4372 0.56506-2.4638 1.0094-1.0266 0.44438-1.9337 0.83328-2.0158 0.86423-0.082125 0.0309-0.30051-0.0167-0.48529-0.10586z" style="paint-order:stroke fill markers"/>
   <path d="m-27.363 237.19c-4.1518-4.2763-6.3212-8.0288-6.3212-10.934 0-1.2724 0.35176-2.1804 1.2074-3.1166 1.1436-1.2512 2.7485-1.8357 5.4374-1.9802 6.7527-0.36277 16.985 3.1831 27.03 9.367 2.2388 1.3782 2.4609 1.5666 2.4609 2.0867v0.43225l-1.6799-1.0909c-3.2841-2.1328-7.5402-4.4565-10.266-5.6049-0.4517-0.19031-1.09-0.46529-1.4186-0.61105-1.1026-0.48921-3.4196-1.3161-5.2262-1.8651-6.3956-1.9435-11.561-2.0313-14.163-0.24073-0.87465 0.60178-1.2333 1.1225-1.5151 2.1994-0.71483 2.7322 1.3951 6.9249 5.7318 11.39 0.75024 0.77243 1.3465 1.4115 1.325 1.4201-0.02146 9e-3 -0.1803 0.13405-0.35298 0.27867-0.309 0.25879-0.34455 0.23144-2.2495-1.7306z" style="paint-order:stroke fill markers"/>
   <path d="m-16.811 231.97c0-0.34063 0.52899-3.6602 0.82024-5.1472 0.20525-1.0479 0.37344-1.9186 0.37376-1.9349 4.18e-4 -0.0163 0.20436 0.0415 0.45343 0.12831 0.31274 0.10902 0.43149 0.23366 0.38382 0.40286-0.13539 0.48057-0.82539 3.9965-0.98786 5.0337-0.14536 0.92796-0.21847 1.087-0.60437 1.315-0.24145 0.14263-0.43901 0.23363-0.43901 0.20222z" style="paint-order:stroke fill markers"/>
   <path d="m-22.867 256.97-0.10004-0.88423-1.6168-0.0982c-2.6405-0.16037-4.3494-0.81884-5.4909-2.1157-2.6439-3.0036-0.41075-8.43 6.0553-14.714 4.0034-3.8908 8.7629-7.388 14.179-10.418 1.4861-0.83143 1.7034-0.91279 1.9785-0.74097 0.16999 0.10617 0.30908 0.2312 0.30908 0.27785 0 0.0467-0.41824 0.30935-0.92943 0.58377-5.2726 2.8305-10.881 6.912-14.629 10.646-5.3774 5.3573-7.505 10.228-5.6755 12.993 0.74572 1.1269 2.4948 1.9652 4.5607 2.1859l1.0305 0.1101-0.09671-0.94396c-0.05319-0.51918-0.05039-0.94396 0.0062-0.94396 0.12734 0 5.9376 1.6572 5.9926 1.7092 0.02181 0.0206-0.98611 0.63238-2.2398 1.3594-1.2537 0.72702-2.494 1.4471-2.7563 1.6002l-0.47678 0.27829z" style="paint-order:stroke fill markers"/>
   <path d="m-19.525 243.84c-0.77352-0.55436-1.9579-1.4365-2.6319-1.9604l-1.2254-0.95247 0.32312-0.28024c0.31789-0.2757 0.3306-0.27419 0.78464 0.0934 0.25384 0.20549 1.3183 1.0223 2.3654 1.8151 1.6563 1.2541 1.9038 1.4968 1.9038 1.867 0 0.23404-0.02549 0.42554-0.05664 0.42554s-0.68952-0.45357-1.463-1.0079z" style="paint-order:stroke fill markers"/>
   <path d="m8.7978 255.96c-6.2425-0.64623-14.498-3.6724-22.156-8.1221-1.488-0.86452-2.1084-1.3047-2.1084-1.4961 0-0.14915-0.04716-0.39409-0.10481-0.54431-0.09863-0.25703-0.07884-0.25596 0.33597 0.0181 1.291 0.853 5.3362 3.0949 7.1755 3.9767 6.7639 3.243 12.757 4.9386 17.53 4.9595 1.8029 8e-3 2.365-0.0462 3.3597-0.32354 2.9739-0.82906 4.1833-2.6461 3.6084-5.4214-0.13053-0.63014-0.42467-1.56-0.65365-2.0664l-0.41632-0.92065-0.72233 0.55262c-0.39728 0.30394-0.77564 0.49466-0.84078 0.42382-0.14912-0.16215-1.5311-5.745-1.4438-5.8323 0.0354-0.0354 1.2735 0.62468 2.7512 1.4669l2.6869 1.5312-0.73097 0.582c-0.42879 0.34142-0.68972 0.65371-0.63118 0.75545 0.05488 0.0954 0.21268 0.34142 0.35067 0.54673 0.13799 0.20532 0.51334 1.0117 0.83411 1.7919 0.551 1.3402 0.58324 1.5052 0.58324 2.9864 0 1.4337-0.03443 1.6264-0.40237 2.2523-0.76055 1.2937-1.97 2.1345-3.7779 2.6263-0.75499 0.20538-4.1248 0.37102-5.227 0.25692z" style="paint-order:stroke fill markers"/>
   <path d="m9.0128 238.28c-0.52889-0.48923-1.6494-1.4456-2.4901-2.1253-1.3686-1.1066-1.5287-1.2866-1.5305-1.7211-0.00105-0.26692 0.022648-0.4853 0.052864-0.4853 0.26467 0 5.47 4.3873 5.47 4.6104 0 0.0669-0.12163 0.23171-0.27028 0.36624-0.25421 0.23005-0.32747 0.1917-1.2319-0.64489z" style="paint-order:stroke fill markers"/>
   <path d="m-14.451 253.97c-0.0621-0.42309-0.03748-0.44064 1.0656-0.7598 0.62106-0.17968 1.9922-0.65524 3.0469-1.0568 1.8481-0.70358 1.934-0.72167 2.3657-0.49843 0.24639 0.12742 0.42494 0.25073 0.39677 0.27403-0.29117 0.2409-6.3307 2.4741-6.691 2.4741-0.06625 0-0.14906-0.1949-0.18402-0.4331z" style="paint-order:stroke fill markers"/>
   <path d="m2.937 253.1c-0.18479-0.0356-0.33597-0.0848-0.33597-0.10942 0-0.0246 0.095948-0.60787 0.21322-1.2962 0.11727-0.6883 0.29956-2.009 0.40508-2.935 0.17066-1.4975 0.23103-1.7092 0.54634-1.9158 0.19497-0.12775 0.387-0.19975 0.42674-0.16001 0.14651 0.14651-0.6639 6.5359-0.82462 6.5014-0.052145-0.0112-0.246-0.0495-0.43079-0.085z" style="paint-order:stroke fill markers"/>
  </g>
  <rect x="130.93" y="125.05" width="13.898" height="22.785" fill="#facf08" fill-rule="evenodd" stop-color="#000000" style="paint-order:stroke fill markers"/>
  <rect x="104.13" y="126.25" width="12.094" height="20.312" fill="#facf08" fill-rule="evenodd" stop-color="#000000" style="paint-order:stroke fill markers"/>
  <g stroke="#fff" aria-label="98">
   <path d="m111.61 150.96c7.4676 0 9.7197-3.2794 9.7197-8.0998v-12.96c0-4.8204-2.1336-7.9812-11.853-7.9812-9.0876 0-11.379 3.1609-11.379 7.9812v3.7931c0 4.7018 2.1336 7.112 9.2851 7.112 2.0941 0 3.7536-0.19755 5.0179-0.59266v0.86924c0 1.936-0.55316 2.3707-2.4892 2.3707h-7.3886c-0.98777 0-1.4224 0.43462-1.4224 1.4224v4.6623c0 0.98778 0.39511 1.4224 1.4224 1.4224zm0.79022-18.096c0 0.79023-0.3556 1.4224-2.6472 1.4224-2.3707 0-2.7263-0.63217-2.7263-1.4224v-2.3312c0-0.82974 0.3556-1.4619 2.7263-1.4619 2.2916 0 2.6472 0.63217 2.6472 1.4619z"/>
   <path d="m149.86 140.85c0-3.714-1.8175-5.6501-4.1882-6.1242 1.7385-0.75071 2.3312-2.2521 2.3312-4.2672v-2.2916c0-3.8721-2.3312-6.2428-10.273-6.2428s-10.391 2.3707-10.391 6.2428v2.2916c0 2.0151 0.59267 3.5165 2.3312 4.2672-2.3707 0.47414-4.1882 2.4102-4.1882 6.1242v3.8326c0 4.1092 2.6868 6.8749 12.209 6.8749 9.5222 0 12.169-2.7658 12.169-6.8749zm-14.659-8.8505v-1.7385c0-0.79022 0.27658-1.4224 2.4892-1.4224 2.2521 0 2.4497 0.63218 2.4497 1.4224v1.7385c0 0.82973-0.19756 1.4619-2.4497 1.4619-2.2126 0-2.4892-0.63218-2.4892-1.4619zm-0.98778 11.182v-2.0941c0-0.79022 0.63218-1.4224 3.477-1.4224 2.8843 0 3.4375 0.63218 3.4375 1.4224v2.0941c0 0.82973-0.55315 1.4619-3.4375 1.4619-2.8448 0-3.477-0.63218-3.477-1.4619z"/>
  </g>
 </g>
</svg>
