<?xml version="1.0" encoding="UTF-8" standalone="no"?>
<!-- Created with Inkscape (http://www.inkscape.org/) -->

<svg
   width="133.09781mm"
   height="133.09781mm"
   viewBox="0 0 133.09781 133.09781"
   version="1.1"
   id="svg9950"
   inkscape:version="1.1 (c68e22c387, 2021-05-23)"
   sodipodi:docname="Site-23.svg"
   inkscape:export-filename="C:\Users\jorda\OneDrive\Documents\Fiction\SCP Foundation\Facility Insignia\EN Facilities\Site-23.png"
   inkscape:export-xdpi="19.08371"
   inkscape:export-ydpi="19.08371"
   xmlns:inkscape="http://www.inkscape.org/namespaces/inkscape"
   xmlns:sodipodi="http://sodipodi.sourceforge.net/DTD/sodipodi-0.dtd"
   xmlns="http://www.w3.org/2000/svg"
   xmlns:svg="http://www.w3.org/2000/svg"
   xmlns:rdf="http://www.w3.org/1999/02/22-rdf-syntax-ns#"
   xmlns:cc="http://creativecommons.org/ns#"
   xmlns:dc="http://purl.org/dc/elements/1.1/">
  <defs
     id="defs9944">
    <inkscape:path-effect
       effect="bspline"
       id="path-effect1014"
       is_visible="true"
       lpeversion="1"
       weight="33.333333"
       steps="2"
       helper_size="0"
       apply_no_weight="true"
       apply_with_weight="true"
       only_selected="false" />
    <inkscape:path-effect
       effect="bspline"
       id="path-effect1010"
       is_visible="true"
       lpeversion="1"
       weight="33.333333"
       steps="2"
       helper_size="0"
       apply_no_weight="true"
       apply_with_weight="true"
       only_selected="false" />
    <clipPath
       clipPathUnits="userSpaceOnUse"
       id="clipPath3346">
      <path
         style="fill:none;fill-rule:evenodd;stroke:#000000;stroke-width:1.51095;stroke-linecap:round;paint-order:stroke fill markers"
         d="m 112.86593,187.225 c -7.79861,-1.69174 -17.284771,-6.78173 -23.91249,-12.83071 l -5.77274,-5.26868 -2.80869,1.65716 -2.80868,1.65717 -2.79146,-4.36376 c -4.59232,-7.17895 -4.71392,-7.95858 -1.51041,-9.68379 1.50824,-0.81224 2.74225,-1.69722 2.74225,-1.96663 0,-0.2694 -0.71959,-3.3034 -1.59909,-6.74221 -1.74472,-6.82177 -2.07925,-16.85426 -0.75983,-22.78702 4.2062,-18.91323 20.04226,-35.360154 37.94844,-39.412266 l 4.7875,-1.083398 0.24369,-3.738515 0.24369,-3.738514 h 7.10829 7.10829 l 0.24369,3.701447 0.2437,3.701447 5.20131,1.349205 c 13.65595,3.54231 26.49793,13.941944 32.66786,26.454934 4.387,8.89711 5.99844,16.61962 5.41662,25.95814 -0.24658,3.95775 -1.00192,8.96212 -1.67855,11.12082 -1.65577,5.28255 -1.62254,5.43566 1.57808,7.27119 l 2.79265,1.60156 -2.10936,3.99525 c -1.16014,2.19739 -2.80295,4.98231 -3.65069,6.18871 l -1.54135,2.19345 -3.05888,-1.76046 -3.05888,-1.76047 -2.12571,2.52627 c -3.17491,3.77316 -11.4132,9.75142 -16.84084,12.22084 -9.96666,4.53454 -21.75454,5.8261 -32.29841,3.53883 z"
         id="path3348" />
    </clipPath>
    <clipPath
       clipPathUnits="userSpaceOnUse"
       id="clipPath26398">
      <path
         style="fill:none;fill-rule:evenodd;stroke:#ff0000;stroke-width:0.499999;stroke-linecap:round;stroke-miterlimit:4;stroke-dasharray:none;paint-order:stroke fill markers"
         d="m 112.75013,188.38974 c -8.00772,-1.7371 -17.748257,-6.96357 -24.553685,-13.17475 l -5.927533,-5.40995 -2.883993,1.70159 -2.883993,1.70161 -2.866312,-4.48077 c -4.715452,-7.37144 -4.840313,-8.17197 -1.550912,-9.94344 1.548685,-0.83402 2.815788,-1.74274 2.815788,-2.01937 0,-0.27662 -0.738894,-3.39197 -1.641966,-6.92299 -1.79151,-7.00468 -2.135011,-17.30618 -0.780211,-23.39802 4.318982,-19.42036 20.579666,-36.308275 38.965977,-40.469037 l 4.91588,-1.112449 0.25023,-3.838758 0.25022,-3.838757 h 7.29888 7.29889 l 0.25023,3.800697 0.25023,3.800696 5.34077,1.385381 c 14.02212,3.637293 27.20845,14.315767 33.54381,27.164267 4.50464,9.13568 6.15928,17.06526 5.56186,26.65418 -0.25319,4.06387 -1.02878,9.20242 -1.72356,11.41901 -1.70017,5.42419 -1.66604,5.5814 1.6204,7.46615 l 2.86752,1.64451 -2.16591,4.10238 c -1.19125,2.25631 -2.87811,5.1159 -3.74858,6.35464 l -1.58268,2.25227 -3.1409,-1.80767 -3.1409,-1.80767 -2.1827,2.594 c -3.26005,3.87434 -11.71923,10.0129 -17.29241,12.54854 -10.2339,4.65612 -22.33786,5.98231 -33.16444,3.63371 z"
         id="path26400" />
    </clipPath>
    <clipPath
       clipPathUnits="userSpaceOnUse"
       id="clipPath26402">
      <path
         style="fill:none;fill-rule:evenodd;stroke:#ff0000;stroke-width:0.499999;stroke-linecap:round;stroke-miterlimit:4;stroke-dasharray:none;paint-order:stroke fill markers"
         d="m -217.10171,-32.712906 c 4.64946,6.74712 13.185,13.771268 21.51616,17.70628 l 7.25646,3.427397 -0.47817,3.3142397 -0.47818,3.3142471 5.23382,0.9488163 c 8.61029,1.5609258 9.39822,1.3722502 9.78698,-2.3435445 0.18303,-1.7494329 0.54215,-3.2667849 0.79803,-3.3718941 0.25587,-0.1051061 3.41833,-0.6053455 7.02766,-1.1116605 7.16005,-1.00437 16.81947,-4.600821 21.93966,-8.168688 16.32281,-11.374085 25.7657,-32.832029 22.62829,-51.420333 l -0.83883,-4.969886 3.45578,-1.690049 3.45578,-1.690041 -2.77331,-6.751477 -2.7733,-6.751484 -3.61073,1.212662 -3.61073,1.212661 -3.31078,-4.413828 c -8.69239,-11.588442 -23.58031,-19.728402 -37.8724,-20.706662 -10.16212,-0.69558 -18.12569,0.78683 -26.76846,4.98288 -3.66288,1.77832 -8.12136,4.4482 -9.90772,5.93309 -4.37138,3.63366 -4.52976,3.66182 -7.52189,1.338 l -2.61072,-2.02761 -2.97175,3.56222 c -1.63446,1.959221 -3.63864,4.60611 -4.45373,5.88197 l -1.48199,2.319763 2.86552,2.218488 2.86553,2.21849 -1.57011,3.004627 c -2.34507,4.487658 -4.80908,14.644839 -5.03694,20.76349 -0.41842,11.235526 2.95391,22.935615 9.24007,32.057836 z"
         id="path26404" />
    </clipPath>
    <clipPath
       clipPathUnits="userSpaceOnUse"
       id="clipPath26406">
      <path
         style="fill:none;fill-rule:evenodd;stroke:#ff0000;stroke-width:0.499999;stroke-linecap:round;stroke-miterlimit:4;stroke-dasharray:none;paint-order:stroke fill markers"
         d="m -131.41993,175.87521 c -1.43582,-8.06719 -0.30237,-19.06307 2.85717,-27.71812 l 2.75197,-7.53856 -2.66979,-2.02116 -2.6698,-2.02115 3.05563,-4.35387 c 5.02689,-7.16267 5.71994,-7.58234 8.60841,-5.21273 1.35991,1.11563 2.68193,1.94243 2.93781,1.83732 0.25588,-0.10511 2.85683,-1.9723 5.7799,-4.1493 5.79863,-4.31867 15.197014,-8.5506 21.346751,-9.61209 19.604917,-3.38395 41.404727,5.24043 52.239559,20.66686 l 2.896869,4.1245 3.645936,-1.22712 3.645931,-1.22713 2.773306,6.75148 2.773308,6.75148 -3.420573,1.67559 -3.420572,1.67558 0.747816,5.46662 c 1.963386,14.35252 -2.903901,30.60733 -12.381582,41.3495 -6.738921,7.63802 -13.445095,12.18151 -22.541857,15.27233 -3.85529,1.30992 -8.903152,2.54496 -11.217494,2.74451 -5.663385,0.48833 -5.795837,0.57964 -6.290509,4.33573 l -0.431623,3.27732 -4.617674,-0.44472 c -2.539719,-0.24459 -5.82579,-0.7184 -7.302372,-1.05291 l -2.684715,-0.60821 0.478673,-3.59218 0.478671,-3.59219 -3.228801,-1.03337 c -4.822468,-1.54345 -13.714828,-7.03578 -18.177898,-11.22753 -8.19542,-7.69722 -14.02121,-18.3895 -15.96245,-29.29648 z"
         id="path26408" />
    </clipPath>
    <clipPath
       clipPathUnits="userSpaceOnUse"
       id="clipPath26410">
      <path
         style="fill:none;fill-rule:evenodd;stroke:#ff0000;stroke-width:0.499999;stroke-linecap:round;stroke-miterlimit:4;stroke-dasharray:none;paint-order:stroke fill markers"
         d="m 112.75013,188.38974 c -8.00772,-1.7371 -17.748257,-6.96357 -24.553685,-13.17475 l -5.927533,-5.40995 -2.883993,1.70159 -2.883993,1.70161 -2.866312,-4.48077 c -4.715452,-7.37144 -4.840313,-8.17197 -1.550912,-9.94344 1.548685,-0.83402 2.815788,-1.74274 2.815788,-2.01937 0,-0.27662 -0.738894,-3.39197 -1.641966,-6.92299 -1.79151,-7.00468 -2.135011,-17.30618 -0.780211,-23.39802 4.318982,-19.42036 20.579666,-36.308275 38.965977,-40.469037 l 4.91588,-1.112449 0.25023,-3.838758 0.25022,-3.838757 h 7.29888 7.29889 l 0.25023,3.800697 0.25023,3.800696 5.34077,1.385381 c 14.02212,3.637293 27.20845,14.315767 33.54381,27.164267 4.50464,9.13568 6.15928,17.06526 5.56186,26.65418 -0.25319,4.06387 -1.02878,9.20242 -1.72356,11.41901 -1.70017,5.42419 -1.66604,5.5814 1.6204,7.46615 l 2.86752,1.64451 -2.16591,4.10238 c -1.19125,2.25631 -2.87811,5.1159 -3.74858,6.35464 l -1.58268,2.25227 -3.1409,-1.80767 -3.1409,-1.80767 -2.1827,2.594 c -3.26005,3.87434 -11.71923,10.0129 -17.29241,12.54854 -10.2339,4.65612 -22.33786,5.98231 -33.16444,3.63371 z"
         id="path26412" />
    </clipPath>
    <clipPath
       clipPathUnits="userSpaceOnUse"
       id="clipPath26414">
      <path
         style="fill:none;fill-rule:evenodd;stroke:#ff0000;stroke-width:0.599552;stroke-linecap:round;stroke-miterlimit:4;stroke-dasharray:none;paint-order:stroke fill markers"
         d="m -190.27824,311.91129 c -2.00401,-6.63459 -0.29189,-18.85465 4.31587,-30.80399 l 4.01338,-10.40791 -3.82357,0.71236 -3.82359,0.71238 4.42612,-7.51824 c 7.28152,-12.36848 8.28116,-13.50282 12.41654,-14.08964 1.94697,-0.27627 3.84162,-0.80399 4.21032,-1.1727 0.3687,-0.36869 4.12243,-4.91953 8.34163,-10.11295 8.36984,-10.3025 21.91489,-24.21811 30.76515,-31.60683 28.214,-23.55475 59.493894,-37.29288 74.956985,-32.92111 l 4.134311,1.16886 5.25145,-4.9815 5.251445,-4.98151 3.936958,3.93696 3.936963,3.93696 -4.930777,5.20072 -4.930776,5.20072 1.034268,4.72727 c 2.715465,12.41138 -4.40471,33.75675 -18.112555,54.29909 -9.746699,14.60623 -19.423121,26.06765 -32.525928,38.52597 -5.553087,5.27995 -12.820334,11.71051 -16.149474,14.29013 -8.14667,6.31255 -8.3378,6.5405 -9.07721,10.82526 l -0.64516,3.7386 -6.63612,4.29957 c -3.64987,2.36477 -8.37114,5.26629 -10.49172,6.44781 l -3.85562,2.14825 0.71518,-4.10352 0.71517,-4.10353 -4.63474,2.28008 c -6.92235,3.40545 -19.66693,7.0244 -26.05268,7.39789 -11.72598,0.68582 -20.02237,-4.07535 -22.73182,-13.04545 z"
         id="path26416" />
    </clipPath>
    <clipPath
       clipPathUnits="userSpaceOnUse"
       id="clipPath26418">
      <path
         style="fill:none;fill-rule:evenodd;stroke:#ff0000;stroke-width:0.599552;stroke-linecap:round;stroke-miterlimit:4;stroke-dasharray:none;paint-order:stroke fill markers"
         d="m -190.27824,311.91129 c -2.00401,-6.63459 -0.29189,-18.85465 4.31587,-30.80399 l 4.01338,-10.40791 -3.82357,0.71236 -3.82359,0.71238 4.42612,-7.51824 c 7.28152,-12.36848 8.28116,-13.50282 12.41654,-14.08964 1.94697,-0.27627 3.84162,-0.80399 4.21032,-1.1727 0.3687,-0.36869 4.12243,-4.91953 8.34163,-10.11295 8.36984,-10.3025 21.91489,-24.21811 30.76515,-31.60683 28.214,-23.55475 59.493894,-37.29288 74.956985,-32.92111 l 4.134311,1.16886 5.25145,-4.9815 5.251445,-4.98151 3.936958,3.93696 3.936963,3.93696 -4.930777,5.20072 -4.930776,5.20072 1.034268,4.72727 c 2.715465,12.41138 -4.40471,33.75675 -18.112555,54.29909 -9.746699,14.60623 -19.423121,26.06765 -32.525928,38.52597 -5.553087,5.27995 -12.820334,11.71051 -16.149474,14.29013 -8.14667,6.31255 -8.3378,6.5405 -9.07721,10.82526 l -0.64516,3.7386 -6.63612,4.29957 c -3.64987,2.36477 -8.37114,5.26629 -10.49172,6.44781 l -3.85562,2.14825 0.71518,-4.10352 0.71517,-4.10353 -4.63474,2.28008 c -6.92235,3.40545 -19.66693,7.0244 -26.05268,7.39789 -11.72598,0.68582 -20.02237,-4.07535 -22.73182,-13.04545 z"
         id="path26420" />
    </clipPath>
    <clipPath
       clipPathUnits="userSpaceOnUse"
       id="clipPath26422">
      <path
         style="fill:none;fill-rule:evenodd;stroke:#ff0000;stroke-width:0.599552;stroke-linecap:round;stroke-miterlimit:4;stroke-dasharray:none;paint-order:stroke fill markers"
         d="m -190.27824,311.91129 c -2.00401,-6.63459 -0.29189,-18.85465 4.31587,-30.80399 l 4.01338,-10.40791 -3.82357,0.71236 -3.82359,0.71238 4.42612,-7.51824 c 7.28152,-12.36848 8.28116,-13.50282 12.41654,-14.08964 1.94697,-0.27627 3.84162,-0.80399 4.21032,-1.1727 0.3687,-0.36869 4.12243,-4.91953 8.34163,-10.11295 8.36984,-10.3025 21.91489,-24.21811 30.76515,-31.60683 28.214,-23.55475 59.493894,-37.29288 74.956985,-32.92111 l 4.134311,1.16886 5.25145,-4.9815 5.251445,-4.98151 3.936958,3.93696 3.936963,3.93696 -4.930777,5.20072 -4.930776,5.20072 1.034268,4.72727 c 2.715465,12.41138 -4.40471,33.75675 -18.112555,54.29909 -9.746699,14.60623 -19.423121,26.06765 -32.525928,38.52597 -5.553087,5.27995 -12.820334,11.71051 -16.149474,14.29013 -8.14667,6.31255 -8.3378,6.5405 -9.07721,10.82526 l -0.64516,3.7386 -6.63612,4.29957 c -3.64987,2.36477 -8.37114,5.26629 -10.49172,6.44781 l -3.85562,2.14825 0.71518,-4.10352 0.71517,-4.10353 -4.63474,2.28008 c -6.92235,3.40545 -19.66693,7.0244 -26.05268,7.39789 -11.72598,0.68582 -20.02237,-4.07535 -22.73182,-13.04545 z"
         id="path26424" />
    </clipPath>
    <clipPath
       clipPathUnits="userSpaceOnUse"
       id="clipPath26426">
      <path
         style="fill:none;fill-rule:evenodd;stroke:#ff0000;stroke-width:0.499999;stroke-linecap:round;stroke-miterlimit:4;stroke-dasharray:none;paint-order:stroke fill markers"
         d="m 112.75013,188.38974 c -8.00772,-1.7371 -17.748257,-6.96357 -24.553685,-13.17475 l -5.927533,-5.40995 -2.883993,1.70159 -2.883993,1.70161 -2.866312,-4.48077 c -4.715452,-7.37144 -4.840313,-8.17197 -1.550912,-9.94344 1.548685,-0.83402 2.815788,-1.74274 2.815788,-2.01937 0,-0.27662 -0.738894,-3.39197 -1.641966,-6.92299 -1.79151,-7.00468 -2.135011,-17.30618 -0.780211,-23.39802 4.318982,-19.42036 20.579666,-36.308275 38.965977,-40.469037 l 4.91588,-1.112449 0.25023,-3.838758 0.25022,-3.838757 h 7.29888 7.29889 l 0.25023,3.800697 0.25023,3.800696 5.34077,1.385381 c 14.02212,3.637293 27.20845,14.315767 33.54381,27.164267 4.50464,9.13568 6.15928,17.06526 5.56186,26.65418 -0.25319,4.06387 -1.02878,9.20242 -1.72356,11.41901 -1.70017,5.42419 -1.66604,5.5814 1.6204,7.46615 l 2.86752,1.64451 -2.16591,4.10238 c -1.19125,2.25631 -2.87811,5.1159 -3.74858,6.35464 l -1.58268,2.25227 -3.1409,-1.80767 -3.1409,-1.80767 -2.1827,2.594 c -3.26005,3.87434 -11.71923,10.0129 -17.29241,12.54854 -10.2339,4.65612 -22.33786,5.98231 -33.16444,3.63371 z"
         id="path26428" />
    </clipPath>
    <clipPath
       clipPathUnits="userSpaceOnUse"
       id="clipPath26430">
      <path
         style="fill:none;fill-rule:evenodd;stroke:#ff0000;stroke-width:0.499999;stroke-linecap:round;stroke-miterlimit:4;stroke-dasharray:none;paint-order:stroke fill markers"
         d="m 112.75013,188.38974 c -8.00772,-1.7371 -17.748257,-6.96357 -24.553685,-13.17475 l -5.927533,-5.40995 -2.883993,1.70159 -2.883993,1.70161 -2.866312,-4.48077 c -4.715452,-7.37144 -4.840313,-8.17197 -1.550912,-9.94344 1.548685,-0.83402 2.815788,-1.74274 2.815788,-2.01937 0,-0.27662 -0.738894,-3.39197 -1.641966,-6.92299 -1.79151,-7.00468 -2.135011,-17.30618 -0.780211,-23.39802 4.318982,-19.42036 20.579666,-36.308275 38.965977,-40.469037 l 4.91588,-1.112449 0.25023,-3.838758 0.25022,-3.838757 h 7.29888 7.29889 l 0.25023,3.800697 0.25023,3.800696 5.34077,1.385381 c 14.02212,3.637293 27.20845,14.315767 33.54381,27.164267 4.50464,9.13568 6.15928,17.06526 5.56186,26.65418 -0.25319,4.06387 -1.02878,9.20242 -1.72356,11.41901 -1.70017,5.42419 -1.66604,5.5814 1.6204,7.46615 l 2.86752,1.64451 -2.16591,4.10238 c -1.19125,2.25631 -2.87811,5.1159 -3.74858,6.35464 l -1.58268,2.25227 -3.1409,-1.80767 -3.1409,-1.80767 -2.1827,2.594 c -3.26005,3.87434 -11.71923,10.0129 -17.29241,12.54854 -10.2339,4.65612 -22.33786,5.98231 -33.16444,3.63371 z"
         id="path26432" />
    </clipPath>
    <clipPath
       clipPathUnits="userSpaceOnUse"
       id="clipPath26434">
      <path
         style="fill:none;fill-rule:evenodd;stroke:#ff0000;stroke-width:0.499999;stroke-linecap:round;stroke-miterlimit:4;stroke-dasharray:none;paint-order:stroke fill markers"
         d="m 112.75013,188.38974 c -8.00772,-1.7371 -17.748257,-6.96357 -24.553685,-13.17475 l -5.927533,-5.40995 -2.883993,1.70159 -2.883993,1.70161 -2.866312,-4.48077 c -4.715452,-7.37144 -4.840313,-8.17197 -1.550912,-9.94344 1.548685,-0.83402 2.815788,-1.74274 2.815788,-2.01937 0,-0.27662 -0.738894,-3.39197 -1.641966,-6.92299 -1.79151,-7.00468 -2.135011,-17.30618 -0.780211,-23.39802 4.318982,-19.42036 20.579666,-36.308275 38.965977,-40.469037 l 4.91588,-1.112449 0.25023,-3.838758 0.25022,-3.838757 h 7.29888 7.29889 l 0.25023,3.800697 0.25023,3.800696 5.34077,1.385381 c 14.02212,3.637293 27.20845,14.315767 33.54381,27.164267 4.50464,9.13568 6.15928,17.06526 5.56186,26.65418 -0.25319,4.06387 -1.02878,9.20242 -1.72356,11.41901 -1.70017,5.42419 -1.66604,5.5814 1.6204,7.46615 l 2.86752,1.64451 -2.16591,4.10238 c -1.19125,2.25631 -2.87811,5.1159 -3.74858,6.35464 l -1.58268,2.25227 -3.1409,-1.80767 -3.1409,-1.80767 -2.1827,2.594 c -3.26005,3.87434 -11.71923,10.0129 -17.29241,12.54854 -10.2339,4.65612 -22.33786,5.98231 -33.16444,3.63371 z"
         id="path26436" />
    </clipPath>
    <clipPath
       clipPathUnits="userSpaceOnUse"
       id="clipPath26438">
      <path
         style="fill:none;fill-rule:evenodd;stroke:#ff0000;stroke-width:0.499999;stroke-linecap:round;stroke-miterlimit:4;stroke-dasharray:none;paint-order:stroke fill markers"
         d="m 112.75013,188.38974 c -8.00772,-1.7371 -17.748257,-6.96357 -24.553685,-13.17475 l -5.927533,-5.40995 -2.883993,1.70159 -2.883993,1.70161 -2.866312,-4.48077 c -4.715452,-7.37144 -4.840313,-8.17197 -1.550912,-9.94344 1.548685,-0.83402 2.815788,-1.74274 2.815788,-2.01937 0,-0.27662 -0.738894,-3.39197 -1.641966,-6.92299 -1.79151,-7.00468 -2.135011,-17.30618 -0.780211,-23.39802 4.318982,-19.42036 20.579666,-36.308275 38.965977,-40.469037 l 4.91588,-1.112449 0.25023,-3.838758 0.25022,-3.838757 h 7.29888 7.29889 l 0.25023,3.800697 0.25023,3.800696 5.34077,1.385381 c 14.02212,3.637293 27.20845,14.315767 33.54381,27.164267 4.50464,9.13568 6.15928,17.06526 5.56186,26.65418 -0.25319,4.06387 -1.02878,9.20242 -1.72356,11.41901 -1.70017,5.42419 -1.66604,5.5814 1.6204,7.46615 l 2.86752,1.64451 -2.16591,4.10238 c -1.19125,2.25631 -2.87811,5.1159 -3.74858,6.35464 l -1.58268,2.25227 -3.1409,-1.80767 -3.1409,-1.80767 -2.1827,2.594 c -3.26005,3.87434 -11.71923,10.0129 -17.29241,12.54854 -10.2339,4.65612 -22.33786,5.98231 -33.16444,3.63371 z"
         id="path26440" />
    </clipPath>
    <clipPath
       clipPathUnits="userSpaceOnUse"
       id="clipPath26500">
      <path
         style="fill:none;fill-rule:evenodd;stroke:#ff0000;stroke-width:0.622428;stroke-linecap:round;stroke-miterlimit:4;stroke-dasharray:none;paint-order:stroke fill markers"
         d="m -187.2496,309.02113 c -2.06232,-6.66629 -0.44491,-18.90109 4.07707,-30.84116 l 3.93868,-10.39982 -3.82677,0.68314 -3.82677,0.68315 4.37573,-7.50008 c 7.19863,-12.33858 8.19143,-13.46748 12.33174,-14.02226 1.94928,-0.26119 3.8441,-0.77484 4.21069,-1.14143 0.36658,-0.36657 4.09233,-4.89773 8.27942,-10.0692 8.3062,-10.25898 21.77048,-24.09768 30.58173,-31.43218 28.089691,-23.38188 59.331752,-36.89942 74.866335,-32.39249 l 4.153416,1.20499 5.223487,-4.95073 5.223475,-4.95073 3.977983,3.97798 3.977975,3.97798 -4.900286,5.17305 -4.900286,5.17304 1.074884,4.74669 c 2.822094,12.46235 -4.142286,33.80013 -17.716208,54.27976 -9.651487,14.56163 -19.257926,25.97167 -32.290718,38.35327 -5.523423,5.24744 -12.755717,11.63432 -16.071787,14.19306 -8.11474,6.26152 -8.30447,6.48845 -9.01099,10.77726 l -0.61645,3.74213 -6.61691,4.25601 c -3.63928,2.3408 -8.34817,5.21095 -10.46416,6.37812 l -3.84728,2.12212 0.68369,-4.10735 0.68368,-4.10733 -4.62715,2.24795 c -6.91102,3.35749 -19.65618,6.88194 -26.05383,7.2047 -11.74787,0.59267 -20.10213,-4.24666 -22.89039,-13.25964 z"
         id="path26502" />
    </clipPath>
    <clipPath
       clipPathUnits="userSpaceOnUse"
       id="clipPath26414-0">
      <path
         style="fill:none;fill-rule:evenodd;stroke:#ff0000;stroke-width:0.599552;stroke-linecap:round;stroke-miterlimit:4;stroke-dasharray:none;paint-order:stroke fill markers"
         d="m -190.27824,311.91129 c -2.00401,-6.63459 -0.29189,-18.85465 4.31587,-30.80399 l 4.01338,-10.40791 -3.82357,0.71236 -3.82359,0.71238 4.42612,-7.51824 c 7.28152,-12.36848 8.28116,-13.50282 12.41654,-14.08964 1.94697,-0.27627 3.84162,-0.80399 4.21032,-1.1727 0.3687,-0.36869 4.12243,-4.91953 8.34163,-10.11295 8.36984,-10.3025 21.91489,-24.21811 30.76515,-31.60683 28.214,-23.55475 59.493894,-37.29288 74.956985,-32.92111 l 4.134311,1.16886 5.25145,-4.9815 5.251445,-4.98151 3.936958,3.93696 3.936963,3.93696 -4.930777,5.20072 -4.930776,5.20072 1.034268,4.72727 c 2.715465,12.41138 -4.40471,33.75675 -18.112555,54.29909 -9.746699,14.60623 -19.423121,26.06765 -32.525928,38.52597 -5.553087,5.27995 -12.820334,11.71051 -16.149474,14.29013 -8.14667,6.31255 -8.3378,6.5405 -9.07721,10.82526 l -0.64516,3.7386 -6.63612,4.29957 c -3.64987,2.36477 -8.37114,5.26629 -10.49172,6.44781 l -3.85562,2.14825 0.71518,-4.10352 0.71517,-4.10353 -4.63474,2.28008 c -6.92235,3.40545 -19.66693,7.0244 -26.05268,7.39789 -11.72598,0.68582 -20.02237,-4.07535 -22.73182,-13.04545 z"
         id="path26416-4" />
    </clipPath>
    <clipPath
       clipPathUnits="userSpaceOnUse"
       id="clipPath26414-0-7">
      <path
         style="fill:none;fill-rule:evenodd;stroke:#ff0000;stroke-width:0.599552;stroke-linecap:round;stroke-miterlimit:4;stroke-dasharray:none;paint-order:stroke fill markers"
         d="m -190.27824,311.91129 c -2.00401,-6.63459 -0.29189,-18.85465 4.31587,-30.80399 l 4.01338,-10.40791 -3.82357,0.71236 -3.82359,0.71238 4.42612,-7.51824 c 7.28152,-12.36848 8.28116,-13.50282 12.41654,-14.08964 1.94697,-0.27627 3.84162,-0.80399 4.21032,-1.1727 0.3687,-0.36869 4.12243,-4.91953 8.34163,-10.11295 8.36984,-10.3025 21.91489,-24.21811 30.76515,-31.60683 28.214,-23.55475 59.493894,-37.29288 74.956985,-32.92111 l 4.134311,1.16886 5.25145,-4.9815 5.251445,-4.98151 3.936958,3.93696 3.936963,3.93696 -4.930777,5.20072 -4.930776,5.20072 1.034268,4.72727 c 2.715465,12.41138 -4.40471,33.75675 -18.112555,54.29909 -9.746699,14.60623 -19.423121,26.06765 -32.525928,38.52597 -5.553087,5.27995 -12.820334,11.71051 -16.149474,14.29013 -8.14667,6.31255 -8.3378,6.5405 -9.07721,10.82526 l -0.64516,3.7386 -6.63612,4.29957 c -3.64987,2.36477 -8.37114,5.26629 -10.49172,6.44781 l -3.85562,2.14825 0.71518,-4.10352 0.71517,-4.10353 -4.63474,2.28008 c -6.92235,3.40545 -19.66693,7.0244 -26.05268,7.39789 -11.72598,0.68582 -20.02237,-4.07535 -22.73182,-13.04545 z"
         id="path26416-4-1" />
    </clipPath>
    <clipPath
       clipPathUnits="userSpaceOnUse"
       id="clipPath26438-9">
      <path
         style="fill:none;fill-rule:evenodd;stroke:#ff0000;stroke-width:0.499999;stroke-linecap:round;stroke-miterlimit:4;stroke-dasharray:none;paint-order:stroke fill markers"
         d="m 112.75013,188.38974 c -8.00772,-1.7371 -17.748257,-6.96357 -24.553685,-13.17475 l -5.927533,-5.40995 -2.883993,1.70159 -2.883993,1.70161 -2.866312,-4.48077 c -4.715452,-7.37144 -4.840313,-8.17197 -1.550912,-9.94344 1.548685,-0.83402 2.815788,-1.74274 2.815788,-2.01937 0,-0.27662 -0.738894,-3.39197 -1.641966,-6.92299 -1.79151,-7.00468 -2.135011,-17.30618 -0.780211,-23.39802 4.318982,-19.42036 20.579666,-36.308275 38.965977,-40.469037 l 4.91588,-1.112449 0.25023,-3.838758 0.25022,-3.838757 h 7.29888 7.29889 l 0.25023,3.800697 0.25023,3.800696 5.34077,1.385381 c 14.02212,3.637293 27.20845,14.315767 33.54381,27.164267 4.50464,9.13568 6.15928,17.06526 5.56186,26.65418 -0.25319,4.06387 -1.02878,9.20242 -1.72356,11.41901 -1.70017,5.42419 -1.66604,5.5814 1.6204,7.46615 l 2.86752,1.64451 -2.16591,4.10238 c -1.19125,2.25631 -2.87811,5.1159 -3.74858,6.35464 l -1.58268,2.25227 -3.1409,-1.80767 -3.1409,-1.80767 -2.1827,2.594 c -3.26005,3.87434 -11.71923,10.0129 -17.29241,12.54854 -10.2339,4.65612 -22.33786,5.98231 -33.16444,3.63371 z"
         id="path26440-8" />
    </clipPath>
    <clipPath
       clipPathUnits="userSpaceOnUse"
       id="clipPath26434-2">
      <path
         style="fill:none;fill-rule:evenodd;stroke:#ff0000;stroke-width:0.499999;stroke-linecap:round;stroke-miterlimit:4;stroke-dasharray:none;paint-order:stroke fill markers"
         d="m 112.75013,188.38974 c -8.00772,-1.7371 -17.748257,-6.96357 -24.553685,-13.17475 l -5.927533,-5.40995 -2.883993,1.70159 -2.883993,1.70161 -2.866312,-4.48077 c -4.715452,-7.37144 -4.840313,-8.17197 -1.550912,-9.94344 1.548685,-0.83402 2.815788,-1.74274 2.815788,-2.01937 0,-0.27662 -0.738894,-3.39197 -1.641966,-6.92299 -1.79151,-7.00468 -2.135011,-17.30618 -0.780211,-23.39802 4.318982,-19.42036 20.579666,-36.308275 38.965977,-40.469037 l 4.91588,-1.112449 0.25023,-3.838758 0.25022,-3.838757 h 7.29888 7.29889 l 0.25023,3.800697 0.25023,3.800696 5.34077,1.385381 c 14.02212,3.637293 27.20845,14.315767 33.54381,27.164267 4.50464,9.13568 6.15928,17.06526 5.56186,26.65418 -0.25319,4.06387 -1.02878,9.20242 -1.72356,11.41901 -1.70017,5.42419 -1.66604,5.5814 1.6204,7.46615 l 2.86752,1.64451 -2.16591,4.10238 c -1.19125,2.25631 -2.87811,5.1159 -3.74858,6.35464 l -1.58268,2.25227 -3.1409,-1.80767 -3.1409,-1.80767 -2.1827,2.594 c -3.26005,3.87434 -11.71923,10.0129 -17.29241,12.54854 -10.2339,4.65612 -22.33786,5.98231 -33.16444,3.63371 z"
         id="path26436-2" />
    </clipPath>
  </defs>
  <sodipodi:namedview
     id="base"
     pagecolor="#ffffff"
     bordercolor="#666666"
     borderopacity="1.0"
     inkscape:pageopacity="0.0"
     inkscape:pageshadow="2"
     inkscape:zoom="1.4"
     inkscape:cx="177.85714"
     inkscape:cy="202.85714"
     inkscape:document-units="mm"
     inkscape:current-layer="layer1"
     showgrid="false"
     fit-margin-top="0"
     fit-margin-left="0"
     fit-margin-right="0"
     fit-margin-bottom="0"
     inkscape:window-width="1920"
     inkscape:window-height="974"
     inkscape:window-x="-11"
     inkscape:window-y="-11"
     inkscape:window-maximized="1"
     inkscape:pagecheckerboard="0"
     showguides="false" />
  <metadata
     id="metadata9947">
    <rdf:RDF>
      <cc:Work
         rdf:about="">
        <dc:format>image/svg+xml</dc:format>
        <dc:type
           rdf:resource="http://purl.org/dc/dcmitype/StillImage" />
      </cc:Work>
    </rdf:RDF>
  </metadata>
  <g
     inkscape:label="Layer 1"
     inkscape:groupmode="layer"
     id="layer1"
     transform="translate(-57.427285,-70.189195)">
    <path
       style="fill:#ffffff;fill-opacity:0.992157;fill-rule:evenodd;stroke-width:1.42857"
       d="m 116.32611,184.79869 c -10.13884,-1.55208 -19.997645,-6.7279 -27.530205,-14.4532 -3.558897,-3.64997 -2.69712,-3.52145 -6.939261,-1.03479 l -1.774522,1.04019 -1.32903,-1.81908 c -1.888857,-2.58532 -5.274615,-8.77732 -5.303189,-9.69865 -0.01753,-0.56536 0.624876,-1.15646 2.359842,-2.17135 1.311164,-0.76699 2.471695,-1.48228 2.578959,-1.58954 0.107264,-0.10727 -0.233151,-1.55044 -0.756476,-3.20706 -1.808563,-5.72512 -2.295528,-8.94992 -2.295528,-15.20158 0,-4.18608 0.193445,-6.77583 0.677604,-9.07143 2.169911,-10.28844 6.816518,-18.71878 14.249811,-25.85343 6.942973,-6.664034 14.815365,-10.828337 24.092975,-12.744596 l 2.34699,-0.484764 v -3.461305 -3.461304 l 2.32331,-0.242833 c 2.96289,-0.309684 6.75359,-0.309684 9.71649,0 l 2.3233,0.242833 v 3.487752 3.487752 l 2.36235,0.455621 c 5.70286,1.0999 12.54616,4.014291 18.04536,7.685072 3.57391,2.385623 10.21197,9.053922 12.60312,12.660522 3.71909,5.60955 6.62752,12.77766 7.85629,19.36261 0.61758,3.30956 0.61068,12.37613 -0.0121,15.875 -0.2775,1.55915 -1.00341,4.5198 -1.61312,6.57922 -0.88639,2.99397 -1.00965,3.81049 -0.61497,4.07414 0.27147,0.18136 1.55257,0.93251 2.84686,1.66922 l 2.35328,1.33948 -1.36376,2.71287 c -1.48641,2.95684 -4.79816,8.27563 -5.5305,8.88218 -0.32279,0.26735 -1.18387,-0.0532 -2.91497,-1.08526 -1.35126,-0.80557 -2.65369,-1.47112 -2.89429,-1.47898 -0.24059,-0.008 -1.23103,0.87867 -2.20098,1.97008 -10.68208,12.01975 -27.51138,18.00726 -43.66365,15.53461 z"
       id="path5773" />
    <path
       style="fill:#4d4d4d;fill-opacity:1;fill-rule:evenodd;stroke:#4d4d4d;stroke-width:1.05359;stroke-linejoin:round;stroke-miterlimit:4;stroke-dasharray:none;stroke-opacity:1;paint-order:stroke fill markers;stop-color:#000000"
       d="m 121.33394,185.88117 c -0.23178,-0.0196 -1.01143,-0.0816 -1.73254,-0.13793 -8.69197,-0.67863 -17.51133,-4.05137 -24.676828,-9.43701 -2.931488,-2.20334 -5.295446,-4.42866 -8.039328,-7.56785 l -0.949837,-1.08668 -5.24e-4,-4.42862 c -5.24e-4,-4.17304 0.0088,-4.42587 0.163261,-4.38102 0.404596,0.11751 18.246846,8.33649 27.308346,12.57952 8.47804,3.9698 10.0587,4.68035 10.34837,4.65184 0.19851,-0.0196 3.83694,-1.66867 8.67673,-3.93273 6.11159,-2.85902 27.57422,-12.74326 28.86769,-13.29451 0.0925,-0.0395 0.11695,0.8883 0.11695,4.45916 v 4.50906 l -1.09981,1.24156 c -1.60479,1.81168 -2.63474,2.87262 -3.99076,4.11084 -7.87618,7.19195 -17.39327,11.472 -27.87431,12.5357 -1.35419,0.13744 -6.17255,0.25839 -7.11741,0.17867 z"
       id="path1135" />
    <path
       style="fill:#bf0a30;stroke:#000000;stroke-width:1.05833333;stroke-linecap:butt;stroke-linejoin:miter;stroke-opacity:1;fill-opacity:1;stroke-miterlimit:4;stroke-dasharray:none"
       d="m 162.26141,109.47211 -45.50852,-20.909805 -18.714215,1.474767 -15.475974,15.114918 -11.717262,21.92262 1.860707,25.77191 5.771549,2.25784 45.615625,20.66353 -0.11713,-48.61927 z"
       id="path6531" />
    <path
       style="fill:#002868;fill-opacity:1;stroke:#000000;stroke-width:1.05833;stroke-linecap:butt;stroke-linejoin:miter;stroke-miterlimit:4;stroke-dasharray:none;stroke-opacity:1"
       d="m 86.617004,108.94294 45.508516,-20.909802 18.71422,1.474767 15.47597,15.114915 11.71727,21.92262 -1.86071,25.77192 -5.77155,2.25784 -45.61562,20.66353 0.11713,-48.61928 z"
       id="path6531-6" />
    <path
       style="fill:#ffffff;fill-opacity:0.992157;fill-rule:evenodd;stroke-width:1.8897638;stroke-miterlimit:4;stroke-dasharray:none;stroke:#000000"
       d=""
       id="path901"
       transform="matrix(0.26458333,0,0,0.26458333,57.427285,70.189195)" />
    <circle
       id="path7599"
       style="fill:#b3b3b3;stroke:#000000;stroke-width:0.5;stroke-miterlimit:4;stroke-dasharray:none"
       cx="88.029648"
       cy="106.40421"
       r="0.033637837" />
    <path
       style="opacity:1;fill:#ffffff;fill-rule:evenodd;stroke:none;stroke-width:1.8897638;stroke-linecap:round;paint-order:stroke fill markers;stroke-miterlimit:4;stroke-dasharray:none"
       d="m 447.96599,313.9811 c -1.3688,-0.92352 -2.56974,-1.72147 -2.66877,-1.77323 -0.099,-0.0517 0.9037,-4.26662 2.22827,-9.36636 4.24378,-16.33903 5.68178,-26.65772 6.24806,-44.83415 0.81689,-26.22067 -2.02612,-46.26234 -9.93797,-70.05737 C 422.14447,122.7136 368.27315,72.692472 301.78307,56.050017 c -4.13068,-1.033909 -4.29314,-1.22325 -4.29314,-5.003387 v -3.928813 l 9.06344,2.425537 c 41.68921,11.156767 81.45873,37.156966 108.08783,70.664796 41.8749,52.69189 56.05086,119.22552 39.34424,184.65886 -2.79771,10.95754 -2.94858,11.18597 -6.01945,9.11409 z"
       id="path3459"
       transform="matrix(0.26458333,0,0,0.26458333,57.427285,70.189195)" />
    <path
       style="opacity:1;fill:#ffffff;fill-rule:evenodd;stroke:none;stroke-width:1.8897638;stroke-linecap:round;paint-order:stroke fill markers;stroke-miterlimit:4;stroke-dasharray:none"
       d="m 231.32493,460.0319 c -46.5082,-4.79979 -86.33286,-22.81952 -122.61708,-55.48138 l -10.490151,-9.44289 2.280841,-1.84692 c 2.27494,-1.84213 2.30474,-1.82509 11.50031,6.57233 41.09741,37.5303 85.96057,55.25184 139.83341,55.23603 52.52689,-0.0154 98.06071,-18.10244 137.85068,-54.75731 l 9.86559,-9.08826 2.73055,1.78913 2.73055,1.78913 -8.05045,7.50278 c -36.41317,33.93599 -77.96745,52.9018 -126.59786,57.7806 -11.88294,1.19214 -27.17109,1.17129 -39.03639,-0.0532 z"
       id="path3498"
       transform="matrix(0.26458333,0,0,0.26458333,57.427285,70.189195)" />
    <path
       style="opacity:1;fill:#ffffff;fill-rule:evenodd;stroke:none;stroke-width:1.8897638;stroke-linecap:round;paint-order:stroke fill markers;stroke-miterlimit:4;stroke-dasharray:none"
       d="m 50.567523,310.40389 c -6.069103,-21.1483 -8.088906,-36.0367 -8.055794,-59.38098 0.02959,-20.85965 1.646947,-34.01531 6.405834,-52.10527 C 68.103774,125.98513 124.62446,68.779208 196.5026,49.543354 l 9.06344,-2.425537 v 3.948503 c 0,3.492664 -0.3207,4.01582 -2.77792,4.531607 -1.52785,0.320707 -9.14188,2.615312 -16.92005,5.099122 C 127.3142,79.3951 78.214054,128.5415 58.79646,187.88837 46.019403,226.93948 45.033127,266.78 55.879832,305.7054 l 1.867046,6.70023 -2.82376,1.66803 -2.823758,1.66804 z"
       id="path3537"
       transform="matrix(0.26458333,0,0,0.26458333,57.427285,70.189195)" />
    <path
       style="opacity:1;fill:#ff0000;stroke:#000000;stroke-width:1.8897638;stroke-linecap:round;paint-order:stroke fill markers;stroke-miterlimit:4;stroke-dasharray:none"
       d=""
       id="path962"
       transform="matrix(0.26458333,0,0,0.26458333,57.427285,70.189195)" />
    <path
       style="opacity:1;fill:#ff0000;stroke:#000000;stroke-width:1.8897638;stroke-linecap:round;paint-order:stroke fill markers;stroke-miterlimit:4;stroke-dasharray:none"
       d=""
       id="path1075"
       transform="matrix(0.26458333,0,0,0.26458333,57.427285,70.189195)" />
    <path
       style="opacity:1;fill:#ff0000;stroke:#000000;stroke-width:1.8897638;stroke-linecap:round;paint-order:stroke fill markers;stroke-miterlimit:4;stroke-dasharray:none"
       d=""
       id="path1114"
       transform="matrix(0.26458333,0,0,0.26458333,57.427285,70.189195)" />
    <path
       style="opacity:1;fill:#ff0000;stroke:#000000;stroke-width:1.8897638;stroke-linecap:round;paint-order:stroke fill markers;stroke-miterlimit:4;stroke-dasharray:none"
       d=""
       id="path1153"
       transform="matrix(0.26458333,0,0,0.26458333,57.427285,70.189195)" />
    <path
       inkscape:connector-curvature="0"
       style="color:#000000;font-style:normal;font-variant:normal;font-weight:normal;font-stretch:normal;font-size:medium;line-height:normal;font-family:sans-serif;font-variant-ligatures:normal;font-variant-position:normal;font-variant-caps:normal;font-variant-numeric:normal;font-variant-alternates:normal;font-feature-settings:normal;text-indent:0;text-align:start;text-decoration:none;text-decoration-line:none;text-decoration-style:solid;text-decoration-color:#000000;letter-spacing:normal;word-spacing:normal;text-transform:none;writing-mode:lr-tb;direction:ltr;text-orientation:mixed;dominant-baseline:auto;baseline-shift:baseline;text-anchor:start;white-space:normal;shape-padding:0;clip-rule:nonzero;display:inline;overflow:visible;visibility:visible;opacity:1;isolation:auto;mix-blend-mode:normal;color-interpolation:sRGB;color-interpolation-filters:linearRGB;solid-color:#000000;solid-opacity:1;vector-effect:none;fill:#000000;fill-opacity:1;fill-rule:nonzero;stroke:none;stroke-width:10.9919;stroke-linecap:round;stroke-linejoin:bevel;stroke-miterlimit:4;stroke-dasharray:none;stroke-dashoffset:341.41;stroke-opacity:1;paint-order:markers stroke fill;color-rendering:auto;image-rendering:auto;shape-rendering:auto;text-rendering:auto;enable-background:accumulate"
       d="m 123.97619,70.189195 c -36.688695,0 -66.548905,29.860245 -66.548905,66.548905 0,36.68866 29.8602,66.5489 66.548905,66.5489 36.68859,0 66.54889,-29.86024 66.54889,-66.5489 0,-36.68866 -29.8603,-66.548905 -66.54889,-66.548905 z m 0,10.992088 c 2.4485,0 4.85859,0.158935 7.22229,0.464053 V 88.5798 l 1.9105,0.363273 c 5.0854,0.966179 9.95,2.727219 14.4957,5.248275 v -0.0026 c 4.8392,2.68404 9.1642,6.149842 12.8556,10.298592 3.9012,4.38481 6.9459,9.35842 9.0547,14.79703 v 0.003 0 c 2.1873,5.63467 3.2949,11.57264 3.2949,17.67798 0,5.59517 -0.93309,11.05347 -2.7673,16.25587 l -0.6465,1.83554 5.7708,3.35122 c -1.8959,4.48836 -4.3659,8.67142 -7.3154,12.46177 l -5.7371,-3.32849 -1.2754,1.4609 c -4.15129,4.76486 -9.28469,8.77808 -14.8745,11.6055 v 0.003 c -3.34699,1.69637 -6.8913,3.00151 -10.52959,3.87522 -3.7478,0.90103 -7.6222,1.36477 -11.5135,1.36477 -3.8867,0 -7.7604,-0.45892 -11.498,-1.35909 v 0 c -3.6376,-0.87357 -7.1754,-2.17768 -10.5255,-3.86902 -5.584405,-2.82155 -10.718405,-6.82218 -14.861105,-11.5781 l -1.27379,-1.46296 -5.66321,3.2887 c -2.94969,-3.79056 -5.41899,-7.97347 -7.3147,-12.46162 l 5.69261,-3.3042 -0.65271,-1.83761 c -1.84699,-5.21475 -2.78479,-10.69321 -2.78479,-16.30082 0,-6.11251 1.107,-12.05711 3.30061,-17.69761 v 0 -0.003 c 2.11539,-5.45176 5.165,-10.42598 9.08008,-14.8182 3.70421,-4.15499 8.03531,-7.611691 12.888605,-10.296524 4.5516,-2.514177 9.4297,-4.266724 14.5293,-5.226553 l 1.9141,-0.361738 v -6.916943 c 2.3638,-0.305117 4.7743,-0.464052 7.2229,-0.464052 z m -11.9218,1.279499 v 2.365242 c -4.88501,1.108922 -9.6126,2.778919 -14.015715,5.211048 v 0.0026 c -5.3134,2.93923 -10.06879,6.733249 -14.1231,11.280958 -4.2818,4.80357 -7.63519,10.27152 -9.9534,16.24605 -2.4039,6.18207 -3.62309,12.71728 -3.62309,19.3988 0,5.46135 0.9458,10.79683 2.55489,15.9453 l -1.76888,1.0268 c -1.75301,-5.413 -2.70372,-11.19182 -2.70372,-17.19895 0,-26.65362 18.64281,-48.839966 43.635105,-54.277312 z m 23.84349,0 c 24.9922,5.437425 43.6346,27.623798 43.6346,54.277318 0,6.00749 -0.9505,11.78668 -2.7037,17.19998 l -1.8547,-1.07694 c 1.597,-5.13302 2.5368,-10.44924 2.5368,-15.89619 0,-6.67496 -1.2167,-13.20287 -3.6132,-19.37711 v -0.003 c -2.3111,-5.95968 -5.6577,-11.42595 -9.9255,-16.22279 -4.0402,-4.5407 -8.7872,-8.342895 -14.088,-11.283025 -4.3966,-2.43832 -9.1124,-4.11472 -13.9863,-5.230177 z m 27.0449,90.992378 1.818,1.05524 c -10.1382,10.94574 -24.6415,17.78651 -40.7846,17.78651 -16.1434,0 -30.646875,-6.84096 -40.785085,-17.78701 l 1.65779,-0.96327 c 4.29301,4.57777 9.3641,8.45854 14.9277,11.26961 v 0.003 c 3.669395,1.85256 7.547595,3.28406 11.545095,4.24418 4.1034,0.98827 8.34441,1.48828 12.5997,1.48828 4.2645,0 8.5042,-0.50866 12.6111,-1.49603 3.9969,-0.95983 7.8823,-2.39075 11.5549,-4.25194 5.5643,-2.81456 10.5619,-6.77151 14.8554,-11.34763 z"
       id="circle1064"
       inkscape:export-filename="C:\Users\Jesse\circle1064.png"
       inkscape:export-xdpi="57.251118"
       inkscape:export-ydpi="57.251118" />
    <g
       id="g8829"
       transform="matrix(0.99673319,0,0,1,0.01366763,-2.4e-4)"
       style="stroke:none">
      <rect
         style="fill:#b3b3b3;fill-rule:evenodd;stroke:none;stroke-width:0.648206;stroke-linecap:round;stroke-miterlimit:4;stroke-dasharray:none;paint-order:stroke fill markers"
         id="rect853"
         width="41.771008"
         height="41.771008"
         x="-81.812904"
         y="176.87424"
         transform="matrix(0.90604449,-0.42318245,0.90604449,0.42318245,0,0)" />
      <path
         style="fill:#999999;fill-opacity:1;stroke:none;stroke-width:0.264583px;stroke-linecap:butt;stroke-linejoin:miter;stroke-opacity:1"
         d="m 123.65676,175.76815 -38.097077,-17.67677 0.06121,-48.61952 38.151997,17.67676 0.11613,48.61953"
         id="path3190"
         sodipodi:nodetypes="ccccc" />
      <path
         style="fill:#999999;fill-opacity:1;stroke:none;stroke-width:0.265041px;stroke-linecap:butt;stroke-linejoin:miter;stroke-opacity:1"
         d="m 124.09332,175.76789 38.22949,-17.67663 -0.0614,-48.61915 -38.2846,17.67663 -0.11654,48.61915"
         id="path3190-3"
         sodipodi:nodetypes="ccccc" />
    </g>
    <path
       style="fill:#ffffff;fill-opacity:0.992157;fill-rule:evenodd;stroke-width:1.42857"
       d=""
       id="path5812" />
    <path
       style="fill:#ffffff;fill-opacity:0.992157;fill-rule:evenodd;stroke-width:1.42857"
       d=""
       id="path874" />
    <path
       style="fill:#b10021;fill-opacity:1;fill-rule:evenodd;stroke-width:1.42857"
       d=""
       id="path1086" />
    <path
       style="fill:#b10021;fill-opacity:1;fill-rule:evenodd;stroke-width:1.42857"
       d=""
       id="path1242" />
    <g
       id="g1651"
       transform="matrix(0.86405341,0,0,0.86405341,-89.31104,-14.620647)"
       style="fill:#ffffff">
      <path
         style="fill:#ffffff;fill-opacity:1;fill-rule:evenodd;stroke-width:5.39933"
         d="m 865.70461,452.85714 c 0.40443,-2.35714 1.134,-8.78571 1.62128,-14.28571 3.44312,-38.86426 -29.2758,-73.86533 -68.69746,-73.48907 -19.28342,0.18404 -38.04862,8.50581 -51.00153,22.61757 -6.39123,6.96301 -7.36781,7.53926 -10.2044,6.02116 -2.57368,-1.37739 -3.13679,-2.93319 -3.13679,-8.66659 0,-8.15614 -3.48896,-13.91803 -10.41342,-17.19736 -3.64825,-1.72775 -4.53073,-3.01034 -4.55566,-6.62111 -0.0301,-4.36318 0.17144,-4.50353 7.84427,-5.46219 11.3188,-1.41419 26.6212,-9.55594 36.46868,-19.40342 26.00796,-26.00796 26.07224,-69.56665 0.14083,-95.43859 -8.69973,-8.67978 -21.90669,-16.50865 -30.55612,-18.11317 -2.94643,-0.54658 -5.35715,-1.57734 -5.35715,-2.29058 0,-2.47587 18.02883,2.70562 29.88917,8.59015 33.40262,16.57277 54.13566,51.57692 52.72243,89.01271 L 810,330.5476 l 10.71257,5.35997 c 15.85547,7.9332 33.31997,25.70573 41.22253,41.94957 8.70411,17.89146 10.67853,27.35469 9.82823,47.10602 -0.5195,12.06713 -1.5216,18.56423 -3.75144,24.32255 -1.7111,4.41869 -2.7208,5.98162 -2.30728,3.57143 z"
         id="path1125"
         transform="matrix(0.26458333,0,0,0.26458333,57.427285,70.189195)" />
      <path
         style="fill:#ffffff;fill-opacity:1;fill-rule:evenodd;stroke-width:5.39933"
         d="m 560.0803,448.24467 c -3.78688,-12.5996 -4.51939,-34.91953 -1.57966,-48.13307 6.34329,-28.51186 29.09972,-56.01254 55.46544,-67.02884 l 5.0667,-2.117 -0.77306,-11.27866 c -1.04493,-15.24529 2.4391,-32.04239 9.83496,-47.41592 10.51251,-21.85204 35.27628,-42.92867 57.97282,-49.34113 11.40844,-3.22322 14.64679,-3.75429 14.64679,-2.40197 0,0.71324 -2.17895,1.70557 -4.84209,2.20518 -8.48911,1.59257 -21.87555,9.30051 -29.94583,17.24287 -9.68081,9.52737 -17.38603,24.65846 -19.74564,38.77541 -4.43998,26.56324 10.44154,56.70462 34.3779,69.62981 8.17018,4.41174 19.89918,8.00295 26.22708,8.03027 3.40499,0.0147 3.92858,0.58558 3.92858,4.28349 0,3.48969 -0.87173,4.63078 -4.78763,6.26695 -7.00253,2.92584 -11.23801,9.64883 -11.36458,18.03905 -0.0841,5.57608 -0.70889,7.2727 -3.16148,8.58529 -2.73911,1.46593 -4.01364,0.67887 -12.26881,-7.5763 -5.06669,-5.0667 -12.45427,-10.85507 -16.41683,-12.86306 -28.14175,-14.26049 -59.58454,-9.39915 -81.59975,12.61606 -15.81727,15.81727 -22.45968,36.12941 -19.06767,58.30797 0.94329,6.16767 1.44409,11.48492 1.1129,11.8161 -0.33119,0.3312 -1.71725,-3.10793 -3.08014,-7.6425 z"
         id="path1164"
         transform="matrix(0.26458333,0,0,0.26458333,57.427285,70.189195)" />
      <path
         style="fill:#ffffff;fill-opacity:1;fill-rule:evenodd;stroke-width:5.39933"
         d="m 667.93025,326.88685 c -3.24265,-3.68384 -5.70941,-7.6653 -5.48171,-8.8477 0.60548,-3.14396 14.22298,-10.86152 25.94235,-14.70251 8.16865,-2.67725 13.286,-3.33664 25.89482,-3.33664 18.34781,0 30.28218,3.10709 44.57426,11.60484 10.00427,5.94832 10.02019,6.23491 0.90663,16.32253 l -4.99759,5.53174 -5.24165,-3.45971 c -19.79068,-13.06268 -52.09436,-12.62456 -71.90009,0.97515 l -3.80131,2.61019 z"
         id="path1203"
         transform="matrix(0.26458333,0,0,0.26458333,57.427285,70.189195)" />
      <path
         style="fill:#ffffff;fill-opacity:1;fill-rule:evenodd;stroke-width:5.39933"
         d="m 635.10741,514.96908 c -19.49342,-4.11361 -34.73522,-12.01368 -48.82857,-25.30863 -5.45447,-5.14547 -9.59388,-9.67875 -9.19868,-10.07395 0.3952,-0.39519 3.49993,1.84525 6.89939,4.97877 8.57214,7.90152 22.88125,14.61398 35.22638,16.52483 49.13516,7.60541 90.32167,-37.46485 77.36615,-84.66153 -1.40192,-5.10714 -2.99684,-10.29621 -3.54428,-11.53126 -0.70069,-1.5808 0.13307,-2.75968 2.81653,-3.98234 3.20992,-1.46254 4.23728,-1.3518 6.5059,0.70127 1.58925,1.43825 5.95286,2.70833 10.64064,3.09707 6.53027,0.54155 8.68023,0.11659 12.06287,-2.3843 4.79005,-3.54143 5.69119,-3.66618 9.0009,-1.24606 2.30956,1.6888 2.27075,2.31372 -0.64328,10.35714 -4.32949,11.95046 -4.34593,32.26898 -0.0357,44.15887 14.16865,39.08473 57.60813,57.20013 95.0959,39.65749 5.05147,-2.36387 12.13575,-7.01831 15.74283,-10.34321 3.6071,-3.3249 6.8817,-5.72193 7.2769,-5.32674 1.28659,1.2866 -19.12711,19.51383 -26.83864,23.96401 -4.13037,2.38357 -12.65263,6.05267 -18.93834,8.15357 -9.9294,3.31874 -13.77103,3.82307 -29.28572,3.84466 -23.48983,0.0327 -37.21226,-4.08389 -55.57037,-16.67054 -5.02032,-3.44202 -6.74471,-3.98224 -8.57143,-2.6853 -7.52166,5.34026 -23.59276,13.52935 -31.57248,16.08789 -10.57803,3.39163 -35.35347,4.85202 -45.60688,2.68829 z"
         id="path1281"
         transform="matrix(0.26458333,0,0,0.26458333,57.427285,70.189195)" />
      <path
         style="fill:#ffffff;fill-opacity:1;fill-rule:evenodd;stroke-width:5.39933"
         d="m 674.14134,461.29985 c -15.86853,-8.38981 -28.00098,-20.54544 -36.16107,-36.23015 -7.01741,-13.48837 -10.07396,-25.72024 -10.10201,-40.42684 l -0.0211,-11.07143 6.07143,0.16902 c 3.33929,0.093 8,0.57938 10.35714,1.08093 l 4.28572,0.91192 0.80238,13.63187 c 0.65487,11.12568 1.59678,15.32616 5.12334,22.84763 5.5195,11.77204 16.81907,24.11562 26.89597,29.381 4.3372,2.26627 7.88733,4.90573 7.8892,5.86547 0.004,2.01127 -6.69133,17.54073 -7.56237,17.54073 -0.31907,0 -3.72944,-1.66507 -7.57861,-3.70015 z"
         id="path1320"
         transform="matrix(0.26458333,0,0,0.26458333,57.427285,70.189195)" />
      <path
         style="fill:#ffffff;fill-opacity:1;fill-rule:evenodd;stroke:none;stroke-width:5.39933"
         d="m 743.59585,458.92857 c -5.39374,-12.25558 -5.29511,-12.75451 3.4151,-17.27485 9.52599,-4.94371 20.65317,-16.40578 25.81476,-26.59169 4.48857,-8.85776 8.25705,-25.46727 7.62113,-33.58993 -0.4166,-5.32122 -0.1568,-5.77026 3.83887,-6.63506 2.35715,-0.51016 7.09077,-1.00363 10.51917,-1.09659 l 6.23346,-0.16902 -0.61786,14.64286 c -1.31609,31.19081 -15.83502,55.2004 -43.42819,71.81615 C 752.45326,462.7637 748.1834,465 747.50371,465 c -0.67969,0 -2.43823,-2.73214 -3.90786,-6.07143 z"
         id="path1359"
         transform="matrix(0.26458333,0,0,0.26458333,57.427285,70.189195)" />
      <path
         style="fill:#ffffff;fill-opacity:1;fill-rule:evenodd;stroke:none;stroke-width:5.39933"
         d="m 558.92279,440 c -1.80369,-9.96594 -1.1789,-33.96491 1.11336,-42.7655 3.27182,-12.56136 12.73423,-29.51851 22.29293,-39.95015 8.42256,-9.19174 23.31607,-20.0929 32.31378,-23.65174 l 4.64285,-1.83638 v -15.21254 c 0,-17.86667 3.20837,-31.39712 10.92872,-46.08896 9.2027,-17.51277 28.23573,-35.14567 46.79674,-43.35423 10.90322,-4.82192 14.78378,-4.54797 5.09233,0.3595 -15.91373,8.05824 -30.09817,26.35383 -35.16507,45.35714 -7.04604,26.42601 5.68613,58.29644 29.35767,73.48643 7.70126,4.94188 21.5794,10.085 27.21326,10.085 7.95501,0 8.58178,5.89282 1.13958,10.71429 -6.37431,4.12963 -9.74577,9.36424 -10.66078,16.55225 -0.78535,6.1694 -2.54924,9.87632 -4.69954,9.87632 -0.59171,0 -5.80769,-4.24297 -11.59107,-9.42882 C 661.48917,369.60887 649.932,365 629.69565,365 c -19.09122,0 -32.76212,5.52101 -47.15508,19.04364 -14.66239,13.77576 -20.18696,25.88015 -21.62697,47.38493 -0.80006,11.94784 -1.12586,13.35057 -1.99081,8.57143 z"
         id="path1435"
         transform="matrix(0.26458333,0,0,0.26458333,57.427285,70.189195)" />
    </g>
    <rect
       style="fill:none;fill-rule:evenodd;stroke:#000000;stroke-width:1.197;stroke-linecap:round;stroke-miterlimit:4;stroke-dasharray:none;paint-order:stroke fill markers"
       id="rect853-5"
       width="41.371162"
       height="41.371162"
       x="-80.709953"
       y="175.97906"
       transform="matrix(0.90407303,-0.42737801,0.90407303,0.42737801,0,0)" />
    <path
       style="fill:none;fill-opacity:1;stroke:#000000;stroke-width:1.05999;stroke-linecap:butt;stroke-linejoin:miter;stroke-miterlimit:4;stroke-dasharray:none;stroke-opacity:1"
       d="m 123.59607,176.3123 -37.944089,-17.80421 0.06096,-48.97006 37.998769,17.8042 0.11567,48.97007"
       id="path3190-7"
       sodipodi:nodetypes="ccccc" />
    <path
       style="fill:none;fill-opacity:1;stroke:#000000;stroke-width:1.05106;stroke-linecap:butt;stroke-linejoin:miter;stroke-miterlimit:4;stroke-dasharray:none;stroke-opacity:1"
       d="m 123.95755,176.29595 37.50078,-17.77358 -0.0602,-48.88581 -37.55486,17.77358 -0.11431,48.88581"
       id="path3190-3-2"
       sodipodi:nodetypes="ccccc" />
    <g
       aria-label="23"
       id="text2534"
       style="font-size:39.5111px;line-height:1.25;font-family:'MS UI Gothic';-inkscape-font-specification:'MS UI Gothic';letter-spacing:0px;stroke:#ffffff">
      <path
         d="m 120.08858,150.9621 c 0.98778,0 1.4224,-0.43462 1.4224,-1.4224 v -4.6228 c 0,-0.98778 -0.43462,-1.4224 -1.4224,-1.4224 h -11.26067 v -0.82973 c 0,-0.86925 0.23707,-0.94827 1.02729,-1.18534 l 5.37351,-1.69897 c 3.83258,-1.18534 6.16373,-3.00285 6.16373,-6.99347 v -3.71404 c 0,-4.2672 -2.44968,-6.55885 -6.95395,-6.55885 h -11.65577 c -0.98778,0 -1.4224,0.43463 -1.4224,1.4224 v 4.6228 c 0,0.98778 0.43462,1.4224 1.4224,1.4224 h 8.5739 c 0.79023,0 1.0668,0.23707 1.0668,1.02729 0,0.86925 -0.23706,1.18533 -1.0668,1.4224 l -5.29448,1.65947 c -3.63502,1.10631 -6.203246,2.52871 -6.203246,8.65293 v 6.79591 c 0,0.98778 0.434626,1.4224 1.422396,1.4224 z"
         style="font-family:bungee;-inkscape-font-specification:bungee"
         id="path895" />
      <path
         d="m 126.88448,143.4945 c -0.98777,0 -1.4224,0.43462 -1.4224,1.4224 v 4.6228 c 0,0.98778 0.43463,1.4224 1.4224,1.4224 h 12.48551 c 5.05742,0 7.66516,-2.4892 7.66516,-6.55885 v -3.95111 c 0,-3.47697 -1.22485,-5.29448 -4.9784,-5.72911 1.73849,-0.75071 2.33115,-2.25213 2.33115,-4.26719 v -2.29165 c 0,-3.47697 -2.09409,-5.65009 -6.47982,-5.65009 h -11.0236 c -0.98777,0 -1.4224,0.43463 -1.4224,1.4224 v 4.70183 c 0,0.98777 0.43463,1.42239 1.4224,1.42239 h 7.34907 c 1.26435,0 1.50142,0.55316 1.50142,1.18534 v 0.59266 c 0,0.63218 -0.23707,1.18534 -1.50142,1.18534 h -4.14867 c -0.98777,0 -1.4224,0.43462 -1.4224,1.4224 v 4.22768 c 0,0.98778 0.43463,1.4224 1.4224,1.4224 h 6.71689 c 1.26436,0 1.50142,0.51365 1.50142,1.14583 v 1.0668 c 0,0.63217 -0.23706,1.18533 -1.50142,1.18533 z"
         style="font-family:bungee;-inkscape-font-specification:bungee"
         id="path897" />
    </g>
    <path
       style="fill:none;stroke:#000000;stroke-width:1.1051;stroke-linecap:butt;stroke-linejoin:miter;stroke-miterlimit:4;stroke-dasharray:none;stroke-opacity:1"
       d="m 85.651981,158.50809 c 0,3.4951 0,6.9899 0,10.48442"
       id="path1008"
       inkscape:path-effect="#path-effect1010"
       inkscape:original-d="m 85.651981,158.50809 c 2.65e-4,3.4951 2.65e-4,6.9899 0,10.48442" />
    <path
       style="fill:none;stroke:#000000;stroke-width:1.05833;stroke-linecap:butt;stroke-linejoin:miter;stroke-miterlimit:4;stroke-dasharray:none;stroke-opacity:1"
       d="m 161.45833,158.52237 c 0,3.36306 0,6.72585 0,10.08838"
       id="path1012"
       inkscape:path-effect="#path-effect1014"
       inkscape:original-d="m 161.45833,158.52237 c 2.6e-4,3.36306 2.6e-4,6.72585 0,10.08838" />
    <path
       sodipodi:type="star"
       style="fill:#000000;fill-opacity:0.992157;fill-rule:evenodd;stroke:none;stroke-opacity:0.992157;stop-color:#000000"
       id="path1108"
       inkscape:flatsided="true"
       sodipodi:sides="3"
       sodipodi:cx="242.18407"
       sodipodi:cy="387.51978"
       sodipodi:r1="6.4594989"
       sodipodi:r2="3.2297494"
       sodipodi:arg1="-1.5707963"
       sodipodi:arg2="-0.52359878"
       inkscape:rounded="0"
       inkscape:randomized="0"
       d="m 242.18407,381.06028 5.59409,9.68924 -11.18818,0 z"
       transform="matrix(0.51401239,0,0,-0.1534041,-0.7828943,235.5337)"
       inkscape:transform-center-y="0.24773821"
       inkscape:transform-center-x="1.1764392e-06" />
  </g>
</svg>
