<?xml version="1.0" encoding="UTF-8"?>
<!-- Created with Inkscape (http://www.inkscape.org/) -->
<svg width="133.1mm" height="133.1mm" version="1.1" viewBox="0 0 133.1 133.1" xmlns="http://www.w3.org/2000/svg" xmlns:cc="http://creativecommons.org/ns#" xmlns:dc="http://purl.org/dc/elements/1.1/" xmlns:rdf="http://www.w3.org/1999/02/22-rdf-syntax-ns#">
 <metadata>
  <rdf:RDF>
   <cc:Work rdf:about="">
    <dc:format>image/svg+xml</dc:format>
    <dc:type rdf:resource="http://purl.org/dc/dcmitype/StillImage"/>
   </cc:Work>
  </rdf:RDF>
 </metadata>
 <g transform="translate(-57.427 -70.189)">
  <g fill="#fff" fill-rule="evenodd">
   <path d="m77.454 154.19c-3.0934-8.7255-3.8482-17.685-2.2399-26.589 0.55579-3.0773 1.5174-6.5533 2.5444-9.1969l0.75552-1.9449 90.978-0.0986 0.78485 2.0436c2.271 5.9131 3.2989 11.62 3.2989 18.315 0 6.1117-1.0077 12.129-2.8882 17.246l-0.40071 1.0903-28.296 0.13027c-15.563 0.0717-36.36 0.13027-46.217 0.13027h-17.921z" stroke-width="1.0266"/>
   <g fill-opacity=".99216">
    <g stroke-width="1.4286">
     <path d="m117.15 191.7c-11.606-1.6109-22.313-6.6241-30.743-14.394-2.4184-2.2292-2.851-2.7918-2.3586-3.0674 0.45991-0.25738 1.2616 0.25897 3.3774 2.1752 8.1546 7.3856 17.59 11.966 28.018 13.601 5.0636 0.79397 15.009 0.59801 19.471-0.38365 9.6368-2.1201 18.171-6.5493 25.004-12.977 2.3697-2.229 3.1014-2.7193 3.7505-2.5133 0.76678 0.24336 0.73475 0.33061-0.65049 1.7719-2.4905 2.5913-7.331 6.3304-10.895 8.4158-5.7423 3.3603-11.507 5.5437-17.993 6.8151-3.723 0.72975-13.439 1.0481-16.981 0.55648z"/>
     <path d="m175.76 153c-0.34056-0.41034-0.26974-1.2085 0.31021-3.4963 1.7445-6.8816 2.0003-16.387 0.61898-22.997-4.2391-20.286-18.67-35.78-38.444-41.278-1.8804-0.5228-2.2015-0.74085-2.2015-1.495 0-1.1559 0.34087-1.1286 5.0125 0.40177 13.936 4.5652 25.886 14.85 32.471 27.946 2.0366 4.0507 4.2763 10.958 5.0455 15.56 1.1888 7.1129 0.69263 16.897-1.2029 23.718-0.63114 2.2712-0.87774 2.5228-1.609 1.6416z"/>
     <path d="m70.352 150.41c-1.3605-5.4753-1.6937-9.0176-1.4782-15.714 0.1568-4.8725 0.41775-7.2131 1.1499-10.314 4.4915-19.021 18.388-34.213 36.819-40.251 4.6763-1.5318 5.0125-1.5584 5.0125-0.3959 0 0.77838-0.31707 0.9731-2.5513 1.5669-16.544 4.3968-30.523 17.526-36.168 33.97-3.2657 9.5131-3.7709 21.05-1.336 30.516 0.51403 1.9984 0.5978 2.8953 0.30354 3.2499-0.732 0.88201-0.96723 0.52906-1.7518-2.6286z"/>
    </g>
   </g>
  </g>
  <path d="m78.551 116.04c1.8476-4.1752 5.5195-9.412 9.3962-13.401 6.9733-7.1745 16.353-12.307 25.928-14.189 1.1788-0.23162 2.2948-0.46446 2.4799-0.51741 0.30048-0.08593 0.34234-0.47526 0.3897-3.6252l0.0531-3.5289 1.0716-0.15273c1.5268-0.21759 9.2905-0.26579 11.544-0.07167l1.8997 0.16361v3.5579c0 3.2221 0.0322 3.5671 0.34098 3.6552 0.18754 0.05351 1.0863 0.24414 1.9972 0.4236 9.8108 1.9329 18.844 6.7584 25.917 13.845 3.7511 3.758 6.6488 7.6918 9.0748 12.32l1.2801 2.4419h-91.781z" fill="#ce2939" fill-rule="evenodd" stroke-width="1.0288"/>
  <g stroke-width=".26458">
   <ellipse cx="130.94" cy="134.62" rx=".18899" ry=".66146"/>
   <circle cx="72.546" cy="134.07" r=".2664" fill="#ffce00" stroke="#000"/>
   <circle cx="72.546" cy="134.07" r=".2664" fill="#ffce00" stroke="#000"/>
  </g>
  <g stroke="#fff" aria-label="228">
   <path d="m107.99 150.96c0.98778 0 1.4224-0.43462 1.4224-1.4224v-4.6228c0-0.98778-0.43462-1.4224-1.4224-1.4224h-11.261v-0.82973c0-0.86925 0.23707-0.94827 1.0273-1.1853l5.3735-1.699c3.8326-1.1853 6.1637-3.0028 6.1637-6.9935v-3.714c0-4.2672-2.4497-6.5588-6.954-6.5588h-11.656c-0.98778 0-1.4224 0.43463-1.4224 1.4224v4.6228c0 0.98778 0.43462 1.4224 1.4224 1.4224h8.5739c0.79022 0 1.0668 0.23707 1.0668 1.0273 0 0.86925-0.23707 1.1853-1.0668 1.4224l-5.2945 1.6595c-3.635 1.1063-6.2032 2.5287-6.2032 8.6529v6.7959c0 0.98778 0.43462 1.4224 1.4224 1.4224z"/>
   <path d="m133.24 150.96c0.98778 0 1.4224-0.43462 1.4224-1.4224v-4.6228c0-0.98778-0.43462-1.4224-1.4224-1.4224h-11.261v-0.82973c0-0.86925 0.23707-0.94827 1.0273-1.1853l5.3735-1.699c3.8326-1.1853 6.1637-3.0028 6.1637-6.9935v-3.714c0-4.2672-2.4497-6.5588-6.954-6.5588h-11.656c-0.98778 0-1.4224 0.43463-1.4224 1.4224v4.6228c0 0.98778 0.43462 1.4224 1.4224 1.4224h8.5739c0.79022 0 1.0668 0.23707 1.0668 1.0273 0 0.86925-0.23707 1.1853-1.0668 1.4224l-5.2945 1.6595c-3.635 1.1063-6.2032 2.5287-6.2032 8.6529v6.7959c0 0.98778 0.43462 1.4224 1.4224 1.4224z"/>
   <path d="m162.91 140.85c0-3.714-1.8175-5.6501-4.1882-6.1242 1.7385-0.75071 2.3312-2.2521 2.3312-4.2672v-2.2916c0-3.8721-2.3312-6.2428-10.273-6.2428s-10.391 2.3707-10.391 6.2428v2.2916c0 2.0151 0.59267 3.5165 2.3312 4.2672-2.3707 0.47414-4.1882 2.4102-4.1882 6.1242v3.8326c0 4.1092 2.6868 6.8749 12.209 6.8749 9.5222 0 12.169-2.7658 12.169-6.8749zm-14.659-8.8505v-1.7385c0-0.79022 0.27658-1.4224 2.4892-1.4224 2.2521 0 2.4497 0.63218 2.4497 1.4224v1.7385c0 0.82973-0.19756 1.4619-2.4497 1.4619-2.2126 0-2.4892-0.63218-2.4892-1.4619zm-0.98778 11.182v-2.0941c0-0.79022 0.63218-1.4224 3.477-1.4224 2.8843 0 3.4375 0.63218 3.4375 1.4224v2.0941c0 0.82973-0.55316 1.4619-3.4375 1.4619-2.8448 0-3.477-0.63218-3.477-1.4619z"/>
  </g>
  <path d="m120.02 190.34c-9.7131-1.0485-17.362-3.9334-24.899-9.3909-3.8756-2.8064-7.742-6.5076-10.806-10.345l-1.0885-1.363-2.9233 1.8524c-1.6078 1.0188-2.9852 1.854-3.0608 1.8561-0.18532 4e-3 -2.2767-3.1755-3.6004-5.4753-1.1669-2.0274-4.0241-8.0207-4.0241-8.4409 0-0.14315 1.2475-1.05 2.7721-2.0152l2.7721-1.7549 97.273-0.21675 2.6734 1.6796c1.4704 0.92379 2.8354 1.7782 3.0334 1.8986 0.32748 0.19921 0.21345 0.53731-1.2649 3.7506-1.4878 3.2337-5.1577 9.6444-5.9092 10.322-0.26628 0.24023-0.76516-6.2e-4 -3.2843-1.5853l-2.9703-1.8686-3.0171 3.3957c-4.8529 5.4618-9.2882 9.0305-14.962 12.039-6.0679 3.217-11.618 4.9065-18.346 5.5843-2.0658 0.20814-6.7543 0.25156-8.3668 0.0774z" fill="#477050" fill-rule="evenodd" stroke-width="0" style="paint-order:stroke fill markers"/>
  <path d="m123.98 70.189c-36.689 0-66.549 29.86-66.549 66.549s29.86 66.549 66.549 66.549c36.689 0 66.549-29.86 66.549-66.549s-29.86-66.549-66.549-66.549zm0 10.992c2.4486 0 4.8586 0.15894 7.2223 0.46405v6.9345l1.9105 0.36327c5.0854 0.96618 9.95 2.7272 14.496 5.2483v-0.0026c4.8392 2.684 9.1641 6.1498 12.856 10.299 3.9012 4.3848 6.9459 9.3584 9.0547 14.797v3e-3h3e-3c2.1873 5.6347 3.2949 11.573 3.2949 17.678 0 5.5952-0.93308 11.053-2.7673 16.256l-0.64648 1.8355 5.7707 3.3512c-1.8958 4.4884-4.3659 8.6714-7.3153 12.462l-5.7371-3.3285-1.2754 1.4609c-4.1513 4.7649-9.2848 8.7781-14.875 11.606l-3e-3 3e-3c-3.347 1.6964-6.8913 3.0015-10.53 3.8752-3.7478 0.90103-7.6222 1.3648-11.514 1.3648-3.8867 0-7.7604-0.45892-11.498-1.3591h-3e-3c-3.6376-0.87357-7.1754-2.1777-10.525-3.869-5.5844-2.8216-10.718-6.8222-14.861-11.578l-1.2738-1.463-5.6632 3.2887c-2.9497-3.7906-5.4189-7.9735-7.3147-12.462l5.6927-3.3042-0.65267-1.8376c-1.847-5.2148-2.7848-10.693-2.7848-16.301 0-6.1125 1.107-12.057 3.3006-17.698h0.0026v-3e-3c2.1154-5.4518 5.165-10.426 9.08-14.818 3.7042-4.155 8.0354-7.6117 12.889-10.297 4.5516-2.5142 9.4298-4.2667 14.529-5.2266l1.9141-0.36174v-6.9169c2.3637-0.30512 4.7743-0.46405 7.2229-0.46405zm-11.922 1.2795v2.3652c-4.885 1.1089-9.6126 2.7789-14.016 5.211l-0.0026 0.0026c-5.3135 2.9392-10.069 6.7332-14.123 11.281-4.2817 4.8036-7.6352 10.272-9.9534 16.246-2.4039 6.1821-3.623 12.717-3.623 19.399 0 5.4614 0.94575 10.797 2.5549 15.945l-1.7689 1.0268c-1.753-5.413-2.7037-11.192-2.7037-17.199 0-26.654 18.643-48.84 43.635-54.277zm23.844 0c24.992 5.4374 43.635 27.624 43.635 54.277 0 6.0075-0.95046 11.787-2.7037 17.2l-1.8547-1.0769c1.597-5.133 2.5368-10.449 2.5368-15.896 0-6.675-1.2167-13.203-3.6132-19.377v-3e-3c-2.3111-5.9597-5.6577-11.426-9.9255-16.223-4.0402-4.5407-8.7872-8.3429-14.088-11.283-4.3966-2.4383-9.1124-4.1147-13.986-5.2302zm27.045 90.992 1.818 1.0552c-10.138 10.946-24.641 17.787-40.785 17.787-16.143 0-30.647-6.841-40.785-17.787l1.6578-0.96327c4.293 4.5778 9.3641 8.4585 14.928 11.27v3e-3c3.6694 1.8526 7.5475 3.2841 11.545 4.2442 4.1034 0.98827 8.3444 1.4883 12.6 1.4883 4.2645 0 8.5042-0.50866 12.611-1.496 3.9969-0.95983 7.8823-2.3908 11.555-4.2519 5.5644-2.8146 10.562-6.7715 14.855-11.348z" color="#000000" color-rendering="auto" dominant-baseline="auto" image-rendering="auto" shape-rendering="auto" solid-color="#000000" style="font-feature-settings:normal;font-variant-alternates:normal;font-variant-caps:normal;font-variant-ligatures:normal;font-variant-numeric:normal;font-variant-position:normal;isolation:auto;mix-blend-mode:normal;paint-order:markers stroke fill;shape-padding:0;text-decoration-color:#000000;text-decoration-line:none;text-decoration-style:solid;text-indent:0;text-orientation:mixed;text-transform:none;white-space:normal"/>
 </g>
</svg>
