<?xml version="1.0" encoding="UTF-8"?>
<svg width="133.1mm" height="133.1mm" version="1.1" viewBox="0 0 133.1 133.1" xml:space="preserve" xmlns="http://www.w3.org/2000/svg"><title>Site-107</title><defs><clipPath id="clipPath6742"><path d="m117.3 189.24c-11.859-1.6466-22.511-7.0906-31.015-15.85-1.7646-1.8178-3.3073-3.3051-3.4281-3.3051-0.12071 0-1.4938 0.73459-3.0511 1.6324-1.5573 0.89783-2.8882 1.6324-2.9576 1.6324-0.49554 0-7.5561-11.958-7.5561-12.797 0-0.0931 1.3314-0.95204 2.9588-1.9089 1.6273-0.95683 2.9855-1.7583 3.0182-1.781 0.03269-0.0227-0.45524-1.6137-1.0843-3.5355-1.9287-5.8926-2.5795-10.987-2.336-18.282 0.16652-4.9879 0.43526-7.2303 1.2299-10.26 3.3083-12.614 9.8629-22.424 20.112-30.099 5.5407-4.1493 14.086-7.9185 20.687-9.1247l2.7547-0.50337v-7.4967l2.5085-0.2622c3.1714-0.33148 7.6785-0.33051 10.449 0.0017l2.1426 0.25734v3.8202c0 3.4743 0.0697 3.8202 0.77152 3.8202 1.6251 0 8.7256 2.0939 12.244 3.6106 14.039 6.0527 24.661 17.699 29.407 32.245 3.2844 10.065 3.2966 21.837 0.0333 31.985-0.66262 2.0605-1.1661 3.7733-1.1188 3.8062 0.0473 0.0328 1.4174 0.82957 3.0447 1.7704s2.9588 1.7988 2.9588 1.9068c0 0.60571-3.2615 6.5715-5.1736 9.4633l-2.2282 3.3699-6.3264-3.4286-3.0113 3.1702c-7.1695 7.5476-16.481 12.891-26.481 15.196-4.9398 1.1386-13.885 1.5952-18.553 0.94691z" fill="none" stroke="#f00" stroke-linecap="round" stroke-width=".77123" style="paint-order:stroke fill markers"/></clipPath><clipPath id="clipPath6746"><path d="m117.3 169.4c-11.859-1.3532-22.511-5.8271-31.015-13.026-1.7646-1.4939-3.3073-2.7162-3.4281-2.7162-0.12071 0-1.4938 0.60369-3.0511 1.3415-1.5573 0.73784-2.8882 1.3415-2.9576 1.3415-0.49554 0-7.5561-9.8271-7.5561-10.517 0-0.0765 1.3314-0.78239 2.9588-1.5687 1.6273-0.78632 2.9855-1.445 3.0182-1.4636 0.03269-0.0187-0.45524-1.3261-1.0843-2.9055-1.9287-4.8426-2.5795-9.0288-2.336-15.024 0.16652-4.0991 0.43526-5.9419 1.2299-8.4317 3.3083-10.366 9.8629-18.428 20.112-24.736 5.5407-3.4099 14.086-6.5075 20.687-7.4987l2.7547-0.41367v-6.1608l2.5085-0.21548c3.1714-0.27241 7.6785-0.27162 10.449 0.0014l2.1426 0.21148v3.1394c0 2.8552 0.0697 3.1394 0.77152 3.1394 1.6251 0 8.7256 1.7208 12.244 2.9672 14.039 4.9742 24.661 14.545 29.407 26.499 3.2844 8.2718 3.2966 17.946 0.0333 26.286-0.66262 1.6933-1.1661 3.1009-1.1188 3.1279 0.0473 0.0269 1.4174 0.68174 3.0447 1.4549 1.6273 0.77314 2.9588 1.4783 2.9588 1.567 0 0.49777-3.2615 5.4005-5.1736 7.777l-2.2282 2.7694-6.3264-2.8176-3.0113 2.6052c-7.1695 6.2027-16.481 10.594-26.481 12.488-4.9398 0.93573-13.885 1.3109-18.553 0.77818z" fill="none" stroke="#f00" stroke-linecap="round" stroke-width=".69914" style="paint-order:stroke fill markers"/></clipPath></defs><g transform="translate(-57.427 -69.99)"><g transform="matrix(1 0 0 1.2168 0 -17.423)" clip-path="url(#clipPath6746)" stroke-width=".15292"><path d="m58.183 76.993h131.54v96.006h-131.54z" fill="#1a1a1a"/><path d="m58.183 76.993h131.54v64.004h-131.54z" fill="#fff"/><path d="m58.183 76.993h131.54v32.002h-131.54z" fill="#ce1126"/></g><g fill="#fff" fill-rule="evenodd"><g fill-opacity=".99216" stroke-width="1.4286"><path d="m117.15 191.7c-11.606-1.6109-22.313-6.6241-30.743-14.394-2.4184-2.2292-2.851-2.7918-2.3586-3.0674 0.45991-0.25738 1.2616 0.25897 3.3774 2.1752 8.1546 7.3856 17.59 11.966 28.018 13.601 5.0636 0.79397 15.009 0.59801 19.471-0.38365 9.6368-2.1201 18.171-6.5493 25.004-12.977 2.3697-2.229 3.1014-2.7193 3.7505-2.5133 0.76678 0.24336 0.73475 0.33061-0.65049 1.7719-2.4905 2.5913-7.331 6.3304-10.895 8.4158-5.7423 3.3603-11.507 5.5437-17.993 6.8151-3.723 0.72975-13.439 1.0481-16.981 0.55648z"/><path d="m175.76 153c-0.34055-0.41034-0.26974-1.2085 0.31021-3.4963 1.7445-6.8816 2.0003-16.387 0.61898-22.997-4.2391-20.286-18.67-35.78-38.444-41.278-1.8804-0.5228-2.2015-0.74085-2.2015-1.495 0-1.1559 0.34087-1.1286 5.0125 0.40177 13.936 4.5652 25.886 14.85 32.471 27.946 2.0366 4.0507 4.2763 10.958 5.0455 15.56 1.1888 7.1129 0.69263 16.897-1.2029 23.718-0.63114 2.2712-0.87774 2.5228-1.609 1.6416z"/><path d="m70.352 150.41c-1.3605-5.4753-1.6937-9.0176-1.4782-15.714 0.1568-4.8725 0.41775-7.2131 1.1499-10.314 4.4915-19.021 18.388-34.213 36.819-40.251 4.6763-1.5318 5.0125-1.5584 5.0125-0.3959 0 0.77838-0.31707 0.9731-2.5513 1.5669-16.544 4.3968-30.523 17.526-36.168 33.97-3.2657 9.5131-3.7709 21.05-1.336 30.516 0.51403 1.9984 0.5978 2.8953 0.30354 3.2499-0.732 0.88201-0.96723 0.52906-1.7518-2.6286z"/></g><path d="m70.671 151.57c-1.4268-4.8046-1.88-8.4035-1.8714-14.86 0.0096-7.1122 0.534-10.651 2.4906-16.806 2.7235-8.568 6.9403-15.384 13.705-22.152 6.8619-6.8653 13.377-10.886 22.235-13.722 4.4351-1.42 4.8147-1.4446 4.8147-0.31217 0 0.77662-0.39205 0.9794-3.681 1.9038-7.5229 2.1145-15.185 6.5142-21.193 12.17-14.136 13.307-20.078 33.182-15.431 51.616 0.81725 3.2417 0.8266 3.4297 0.18771 3.7716-0.58005 0.31044-0.75275 0.0894-1.2572-1.6094z" style="paint-order:stroke fill markers"/><path d="m175.87 153.13c-0.54486-0.30492-0.51869-0.68683 0.27101-3.9534 5.8164-24.059-5.8172-49.042-28.034-60.202-2.9818-1.4978-7.2211-3.0921-10.266-3.8606-1.362-0.3438-1.6064-0.5516-1.6064-1.3659 0-0.88648 0.0946-0.93979 1.2284-0.69264 9.6767 2.1093 21.041 9.0723 28.121 17.23 11.896 13.707 16.336 31.768 12.183 49.555-0.42432 1.8172-0.88886 3.3765-1.0323 3.4652-0.14346 0.0887-0.53225 9e-3 -0.86398-0.17633z" style="paint-order:stroke fill markers"/></g><g transform="translate(0 -.018664)" clip-path="url(#clipPath6742)" fill="#c09300" stroke="#fff" stroke-linecap="round" stroke-width="3.175"><path transform="matrix(.37856 0 0 -.17844 -180.13 187.86)" d="m734.24 361.88-101.44-175.7h202.88z" style="paint-order:stroke fill markers"/><path transform="matrix(.44542 0 0 -.21704 -202.37 194.99)" d="m734.24 361.88-101.44-175.7h202.88z" style="paint-order:stroke fill markers"/><path transform="matrix(.47604 0 0 -.23826 -198.7 198.9)" d="m734.24 361.88-101.44-175.7h202.88z" style="paint-order:stroke fill markers"/></g><path d="m123.98 69.99c-36.689 0-66.549 29.86-66.549 66.549 0 36.689 29.86 66.549 66.549 66.549 36.689 0 66.549-29.86 66.549-66.549 0-36.689-29.86-66.549-66.549-66.549zm0 10.992c2.4486 0 4.8586 0.15894 7.2223 0.46405v6.9345l1.9105 0.36327c5.0854 0.96618 9.95 2.7272 14.496 5.2483v-0.0026c4.8392 2.684 9.1641 6.1498 12.856 10.299 3.9012 4.3848 6.9459 9.3584 9.0547 14.797v3e-3h3e-3c2.1873 5.6347 3.2949 11.573 3.2949 17.678 0 5.5952-0.93308 11.053-2.7673 16.256l-0.64648 1.8355 5.7707 3.3512c-1.8958 4.4884-4.3659 8.6714-7.3153 12.462l-5.7371-3.3285-1.2754 1.4609c-4.1513 4.7649-9.2848 8.7781-14.875 11.606l-3e-3 3e-3c-3.347 1.6964-6.8913 3.0015-10.53 3.8752-3.7478 0.90103-7.6222 1.3648-11.514 1.3648-3.8867 0-7.7604-0.45892-11.498-1.3591h-3e-3c-3.6376-0.87357-7.1754-2.1777-10.525-3.869-5.5844-2.8216-10.718-6.8222-14.861-11.578l-1.2738-1.463-5.6632 3.2887c-2.9497-3.7906-5.4189-7.9735-7.3147-12.462l5.6927-3.3042-0.65267-1.8376c-1.847-5.2148-2.7848-10.693-2.7848-16.301 0-6.1125 1.107-12.057 3.3006-17.698h0.0026v-3e-3c2.1154-5.4518 5.165-10.426 9.08-14.818 3.7042-4.155 8.0354-7.6117 12.889-10.297 4.5516-2.5142 9.4298-4.2667 14.529-5.2266l1.9141-0.36174v-6.9169c2.3637-0.30512 4.7743-0.46405 7.2229-0.46405zm-11.922 1.2795v2.3652c-4.885 1.1089-9.6126 2.7789-14.016 5.211l-0.0026 0.0026c-5.3135 2.9392-10.069 6.7332-14.123 11.281-4.2817 4.8036-7.6352 10.272-9.9534 16.246-2.4039 6.1821-3.623 12.717-3.623 19.399 0 5.4614 0.94575 10.797 2.5549 15.945l-1.7689 1.0268c-1.753-5.413-2.7037-11.192-2.7037-17.199 0-26.654 18.643-48.84 43.635-54.277zm23.844 0c24.992 5.4374 43.635 27.624 43.635 54.277 0 6.0075-0.95046 11.787-2.7037 17.2l-1.8547-1.0769c1.597-5.133 2.5368-10.449 2.5368-15.896 0-6.675-1.2167-13.203-3.6132-19.377v-3e-3c-2.3111-5.9597-5.6577-11.426-9.9255-16.223-4.0402-4.5407-8.7872-8.3429-14.088-11.283-4.3966-2.4383-9.1124-4.1147-13.986-5.2302zm27.045 90.992 1.818 1.0552c-10.138 10.946-24.641 17.787-40.785 17.787-16.143 0-30.647-6.841-40.785-17.787l1.6578-0.96327c4.293 4.5778 9.3641 8.4585 14.928 11.27v3e-3c3.6694 1.8526 7.5475 3.2841 11.545 4.2442 4.1034 0.98827 8.3444 1.4883 12.6 1.4883 4.2645 0 8.5042-0.50866 12.611-1.496 3.9969-0.95983 7.8823-2.3908 11.555-4.2519 5.5644-2.8146 10.562-6.7715 14.855-11.348z" color="#000000" color-rendering="auto" dominant-baseline="auto" image-rendering="auto" shape-rendering="auto" solid-color="#000000" style="font-feature-settings:normal;font-variant-alternates:normal;font-variant-caps:normal;font-variant-ligatures:normal;font-variant-numeric:normal;font-variant-position:normal;isolation:auto;mix-blend-mode:normal;paint-order:markers stroke fill;shape-padding:0;text-decoration-color:#000000;text-decoration-line:none;text-decoration-style:solid;text-indent:0;text-orientation:mixed;text-transform:none;white-space:normal"/><g transform="translate(-.52917)" stroke="#fff" aria-label="107"><path d="m107.17 150.93h-17.464q-0.75071 0-1.1063-0.31609-0.31609-0.3556-0.31609-1.1063v-4.7808q0-0.75071 0.31609-1.0668 0.3556-0.3556 1.1063-0.3556h4.4252v-13.197h-3.635q-0.75071 0-1.1063-0.31609-0.31609-0.3556-0.31609-1.1063v-4.7808q0-0.75071 0.31609-1.0668 0.3556-0.3556 1.1063-0.3556h11.458q0.75072 0 1.0668 0.3556 0.3556 0.31609 0.3556 1.0668v19.4h3.7931q0.75071 0 1.0668 0.3556 0.3556 0.31609 0.3556 1.0668v4.7808q0 0.75071-0.3556 1.1063-0.31609 0.31609-1.0668 0.31609z"/><path d="m136.56 143.46q0 1.8175-0.51364 3.3189-0.51365 1.4619-1.857 2.5287-1.3434 1.0273-3.714 1.62-2.3312 0.59266-5.9662 0.59266-3.635 0-6.0057-0.59266-2.3312-0.59267-3.6745-1.62-1.3434-1.0668-1.8965-2.5287-0.51364-1.5014-0.51364-3.3189v-13.473q0-1.8175 0.51364-3.2794 0.55316-1.5014 1.8965-2.5682 1.3434-1.0668 3.6745-1.6595 2.3707-0.59266 6.0057-0.59266 3.635 0 5.9662 0.59266 2.3707 0.59267 3.714 1.6595 1.3434 1.0668 1.857 2.5682 0.51364 1.4619 0.51364 3.2794zm-15.212-1.4224q0 0.79022 0.55315 1.3434 0.59267 0.51364 2.6077 0.51364 2.0151 0 2.5682-0.51364 0.59266-0.55316 0.59266-1.3434v-10.628q0-0.75071-0.59266-1.2644-0.55316-0.55316-2.5682-0.55316-2.0151 0-2.6077 0.55316-0.55315 0.51364-0.55315 1.2644z"/><path d="m160.15 122.48q0.75071 0 1.0668 0.3556 0.3556 0.31609 0.3556 1.0668v9.9963q0 1.857-0.39511 3.1609-0.3556 1.3039-1.1063 2.1731t-1.936 1.4619q-1.1458 0.55316-2.7263 1.0273l-2.9238 0.86924v6.9144q0 0.75071-0.3556 1.1063-0.31609 0.31609-1.0668 0.31609h-6.4008q-0.75071 0-1.1063-0.31609-0.31609-0.3556-0.31609-1.1063v-7.1515q0-1.857 0.3556-3.1609 0.39511-1.3039 1.1458-2.1731 0.75071-0.86925 1.8965-1.4224 1.1853-0.59267 2.7658-1.0668l3.2004-0.86925v-3.556h-10.826q-0.75071 0-1.1063-0.31609-0.31609-0.3556-0.31609-1.1063v-4.7808q0-0.75071 0.31609-1.0668 0.3556-0.3556 1.1063-0.3556z"/></g></g></svg>
