<?xml version="1.0" encoding="UTF-8"?>
<!-- Created with Inkscape (http://www.inkscape.org/) -->
<svg width="133.1mm" height="133.1mm" version="1.1" viewBox="0 0 133.1 133.1" xmlns="http://www.w3.org/2000/svg">
 <g transform="translate(-57.427 -70.189)">
  <path d="m118.16 189.12c-13.214-2.0184-22.89-6.7928-31.505-15.544l-3.6768-3.7352-2.8285 1.5818c-1.5557 0.87-2.9634 1.5818-3.1281 1.5818-0.41093 0-4.7727-6.7709-6.2356-9.6796-0.65569-1.3038-1.0962-2.6205-0.97894-2.9261s1.3767-1.207 2.7988-2.0032c1.4221-0.79614 2.6273-1.4813 2.6784-1.5227 0.05106-0.0413-0.39813-1.6212-0.9982-3.5108-6.0647-19.098-0.78368-39.984 13.577-53.697 6.6747-6.3735 14.655-10.792 23.529-13.026l4.9965-1.2582 0.12789-3.5394c0.11652-3.2246 0.21502-3.5628 1.1074-3.802 1.3048-0.34982 10.911-0.34819 12.663 0.0022l1.3843 0.27686 7e-3 3.5992 7e-3 3.5992 4.8805 1.1858c16.944 4.1169 31.141 17.23 36.737 33.934 3.4918 10.422 3.5766 22.361 0.2317 32.608-0.6262 1.9183-1.082 3.5255-1.013 3.5716 0.069 0.0461 1.4569 0.85001 3.0841 1.7865l2.9586 1.7027-1.575 3.138c-1.7775 3.5414-5.117 8.8603-5.8457 9.3107-0.26524 0.16393-1.7847-0.43034-3.3767-1.3206l-2.8944-1.6186-3.4375 3.4775c-7.6444 7.7333-16.132 12.537-26.191 14.825-3.6969 0.84063-14.135 1.4537-17.083 1.0034zm13.37-54.738c-0.14141-0.35338-0.24638-0.24841-0.26763 0.26763-0.0192 0.46697 0.0855 0.72861 0.23266 0.58141 0.1472-0.1472 0.16293-0.52927 0.035-0.84904z" fill="#007934" style="paint-order:stroke fill markers"/>
  <g fill="#fff" fill-opacity=".99216" fill-rule="evenodd">
   <g stroke-width="1.4286">
    <path d="m117.15 191.7c-11.606-1.6109-22.313-6.6241-30.743-14.394-2.4184-2.2292-2.851-2.7918-2.3586-3.0674 0.45991-0.25738 1.2616 0.25897 3.3774 2.1752 8.1546 7.3856 17.59 11.966 28.018 13.601 5.0636 0.79397 15.009 0.59801 19.471-0.38365 9.6368-2.1201 18.171-6.5493 25.004-12.977 2.3697-2.229 3.1014-2.7193 3.7505-2.5133 0.76678 0.24336 0.73475 0.33061-0.65049 1.7719-2.4905 2.5913-7.331 6.3304-10.895 8.4158-5.7423 3.3603-11.507 5.5437-17.993 6.8151-3.723 0.72975-13.439 1.0481-16.981 0.55648z"/>
    <path d="m175.76 153c-0.34056-0.41034-0.26974-1.2085 0.31021-3.4963 1.7445-6.8816 2.0003-16.387 0.61898-22.997-4.2391-20.286-18.67-35.78-38.444-41.278-1.8804-0.5228-2.2015-0.74085-2.2015-1.495 0-1.1559 0.34087-1.1286 5.0125 0.40177 13.936 4.5652 25.886 14.85 32.471 27.946 2.0366 4.0507 4.2763 10.958 5.0455 15.56 1.1888 7.1129 0.69263 16.897-1.2029 23.718-0.63114 2.2712-0.87774 2.5228-1.609 1.6416z"/>
    <path d="m70.352 150.41c-1.3605-5.4753-1.6937-9.0176-1.4782-15.714 0.1568-4.8725 0.41775-7.2131 1.1499-10.314 4.4915-19.021 18.388-34.213 36.819-40.251 4.6763-1.5318 5.0125-1.5584 5.0125-0.3959 0 0.77838-0.31707 0.9731-2.5513 1.5669-16.544 4.3968-30.523 17.526-36.168 33.97-3.2657 9.5131-3.7709 21.05-1.336 30.516 0.51403 1.9984 0.5978 2.8953 0.30354 3.2499-0.732 0.88201-0.96723 0.52906-1.7518-2.6286z"/>
   </g>
  </g>
  <g stroke-width=".26458">
   <ellipse cx="130.94" cy="134.62" rx=".18899" ry=".66146"/>
   <circle cx="72.546" cy="134.07" r=".2664" fill="#ffce00" stroke="#000"/>
   <circle cx="72.546" cy="134.07" r=".2664" fill="#ffce00" stroke="#000"/>
  </g>
  <path d="m97.848 172.46c0.0088-0.0392-0.03209-0.0821-0.09094-0.0953-0.0641-0.0144-0.09219-0.0898-0.07014-0.18803 0.02024-0.0901 0.0069-0.21116-0.02954-0.26877-0.09054-0.14297-1.0191-0.34372-1.2749-0.27568-0.22888 0.0609-2.1283-0.25291-2.5424-0.42006-0.22342-0.0902-0.25183-0.12941-0.2144-0.29612 0.06669-0.29706-0.15501-0.56237-0.54268-0.64941-0.20224-0.0454-0.36806-0.0401-0.43817 0.014-0.14273 0.11014-0.45162 0.0396-0.60147-0.13709-0.07477-0.0883-0.28362-0.17365-0.59792-0.24421-0.41003-0.0921-0.4897-0.1326-0.52732-0.2682-0.02434-0.0879-0.09131-0.1703-0.14875-0.1832-0.05747-0.0129-0.09366-0.0716-0.08045-0.13041 0.01321-0.0588-0.01248-0.11515-0.05716-0.12518-0.0964-0.0216-0.55455-0.80211-0.5331-0.90824 0.0083-0.0405 0.09143-0.11417 0.18491-0.16373 0.09352-0.0495 0.17978-0.13356 0.19172-0.18669 0.01194-0.0532 0.09893-0.14027 0.19328-0.19365 0.0944-0.0534 0.18128-0.1402 0.19312-0.19295 0.01185-0.0528 0.05529-0.0883 0.09657-0.0791 0.04127 9e-3 0.12871-0.0695 0.19434-0.17507 0.06562-0.10555 0.16917-0.19921 0.2301-0.20814 0.06095-9e-3 0.12539-0.0814 0.14328-0.16109 0.01788-0.0796 0.06531-0.13749 0.10531-0.12851 0.0401 9e-3 0.13138-0.0632 0.20296-0.16041 0.07154-0.0972 0.17668-0.19326 0.23357-0.21343 0.05689-0.0201 0.11032-0.0673 0.1187-0.10459 0.0084-0.0374 0.14574-0.14809 0.30522-0.24608 0.15948-0.098 0.41224-0.28553 0.5617-0.41676 0.14945-0.13123 0.32564-0.2747 0.39151-0.31882 0.1495-0.10012 0.24967-0.87375 0.14583-1.1262-0.10343-0.25151 0.06115-0.89798 0.25876-1.0165 0.2121-0.12718 0.41946-0.20399 0.72808-0.26973 0.14061-0.0299 0.26277-0.0861 0.27145-0.1248 0.0087-0.0387 0.05892-0.0607 0.11171-0.0488 0.05279 0.0119 0.16841-0.0296 0.257-0.0921 0.08855-0.0625 0.20383-0.10403 0.25609-0.0923 0.08303 0.0186 0.23459-0.10749 0.744-0.61942 0.06698-0.0674 0.17847-0.19779 0.24768-0.28989 0.16734-0.22267 0.52536-0.31065 1.0373-0.25491 0.23084 0.0252 0.46586 0.0101 0.52224-0.0334 0.0564-0.0435 0.14644-0.0692 0.20013-0.0572 0.05366 0.012 0.15212-0.0333 0.2187-0.10069 0.06659-0.0674 0.16956-0.1119 0.2288-0.0988 0.12561 0.0277 0.74486-0.31198 0.76961-0.42224 0.0092-0.0412 0.0987-0.1324 0.19877-0.20262 0.10001-0.0702 0.24-0.16803 0.31095-0.21735 0.07094-0.0494 0.14301-0.15205 0.16013-0.22828 0.0171-0.0762 0.10766-0.17915 0.20116-0.2287 0.0935-0.0495 0.18722-0.16669 0.20824-0.26032 0.021-0.0937 0.0913-0.19733 0.15627-0.23047 0.0649-0.0331 0.16385-0.16672 0.21984-0.29687 0.056-0.13015 0.13186-0.22988 0.16853-0.22165 0.0367 8e-3 0.10299-0.057 0.14734-0.145 0.0736-0.14609 0.13024-0.15331 0.65146-0.0831 0.35519 0.0479 0.61167 0.0454 0.67892-7e-3 0.0723-0.0557 0.25157-0.0512 0.54112 0.0138 0.37278 0.0837 0.46684 0.0768 0.67604-0.0495 0.13366-0.0807 0.25135-0.18387 0.26155-0.22928 0.0102-0.0454 0.0958-0.12623 0.19013-0.17961 0.0944-0.0533 0.18411-0.15281 0.19941-0.22097 0.0153-0.0682 0.0756-0.13094 0.13404-0.13951 0.0584-9e-3 0.14597-0.0945 0.19457-0.19093 0.17086-0.33918 0.35184-0.38469 1.0758-0.27071 0.45542 0.0717 0.71765 0.0787 0.818 0.022 0.0869-0.0492 0.27762-0.0544 0.46345-0.0126 0.26971 0.0606 0.35734 0.042 0.60085-0.12725 0.15679-0.10899 0.32923-0.18824 0.3832-0.17612 0.054 0.0121 0.17059-0.0291 0.25918-0.0916 0.0886-0.0625 0.20424-0.10394 0.257-0.0921 0.0528 0.0119 0.10614-0.024 0.11865-0.0798 0.0125-0.0557 0.12379-0.10082 0.24722-0.10025 0.12345 5.6e-4 0.23126-0.0292 0.23959-0.0664 8e-3 -0.0371 0.10219-0.0799 0.20862-0.0952 0.10642-0.0153 0.2-0.0568 0.20795-0.0922 8e-3 -0.0354 0.11972-0.0827 0.24827-0.105 0.12859-0.0223 0.23918-0.0645 0.24574-0.0937 7e-3 -0.0292 0.2391-0.0189 0.51677 0.023 0.28866 0.0435 0.5923 0.0432 0.70907-6.8e-4 0.14201-0.0533 0.36299-0.041 0.72565 0.0404 0.3469 0.0779 0.58028 0.0929 0.69725 0.0448 0.12697-0.0523 0.47263-0.0186 1.2441 0.12087 0.67374 0.12185 1.153 0.1739 1.2975 0.14094 0.14093-0.0321 0.46847 1e-3 0.8504 0.0872 0.51321 0.11523 0.65827 0.12176 0.83451 0.0376 0.11733-0.0561 0.26442-0.0904 0.32686-0.0764 0.0624 0.014 0.12356-0.0191 0.13578-0.0735 0.0127-0.0567 0.13336-0.0951 0.28231-0.0898 0.15568 6e-3 0.26945-0.0325 0.28338-0.0945 0.0132-0.0589 0.0901-0.0887 0.17811-0.069 0.0852 0.0191 0.22568-5e-3 0.31231-0.0543 0.17613-0.0996 0.39927-0.17359 0.76471-0.25351 0.13551-0.0296 0.27618-0.0843 0.3126-0.12156 0.0364-0.0372 0.12949-0.0534 0.20684-0.0361 0.0774 0.0174 0.16991-0.0124 0.2057-0.0662 0.0358-0.0538 0.10539-0.0887 0.15477-0.0776 0.0494 0.0111 0.18572-0.0257 0.30303-0.0818 0.11733-0.0561 0.30457-0.0816 0.4161-0.0568 0.11151 0.0248 0.31057 0.0153 0.44231-0.021s0.45176-0.0355 0.71114 2e-3c0.25936 0.0374 0.54466 0.0428 0.63396 0.012s0.36491-0.0292 0.61243 4e-3c0.24752 0.0328 0.53491 0.0248 0.63862-0.0179 0.11448-0.0471 0.33498-0.0447 0.56132 6e-3 0.25981 0.0583 0.3986 0.0549 0.45799-0.0113 0.052-0.058 0.24024-0.078 0.48337-0.0513 0.21899 0.0241 0.45524 0.0147 0.52502-0.0209 0.0698-0.0355 0.35904-0.0287 0.64282 0.0152 0.31086 0.0481 0.59288 0.0481 0.70945 2.4e-4 0.10637-0.0438 0.28361-0.0593 0.39376-0.0346 0.11016 0.0247 0.22884 2e-3 0.26371-0.0503 0.0348-0.0524 0.12897-0.10095 0.20912-0.1079 0.0802-7e-3 0.15605-0.0586 0.16865-0.11478 0.0126-0.0562 0.0695-0.0917 0.12636-0.0789 0.0569 0.0128 0.13882-0.0144 0.18212-0.0606 0.0433-0.046 0.16613-0.1073 0.27299-0.13609 0.22401-0.0603 0.36789-0.12698 0.57306-0.26537 0.0802-0.0541 0.18682-0.0891 0.23693-0.0779 0.0502 0.0113 0.0984-0.0119 0.10728-0.0514 0.0193-0.086 0.26734 0.12429 0.35169 0.29813 0.0373 0.0767 0.2656 0.18211 0.64212 0.29619 0.56886 0.1724 0.59078 0.17302 0.82859 0.0262 0.13435-0.083 0.25098-0.17574 0.25918-0.20619 8e-3 -0.0305 0.0914-0.11402 0.18479-0.18573 0.15052-0.11555 0.23566-0.11563 0.74756-7e-4l0.57769 0.1297-0.10952 0.27461c-0.14563 0.36518-0.0652 0.51007 0.33262 0.5994 0.31149 0.0699 0.31204 0.0706 0.25388 0.32962-0.0321 0.14275-0.11144 0.28502-0.17634 0.31619-0.21007 0.1008-0.31889 0.45369-0.20855 0.67644 0.0838 0.16923 0.17678 0.22224 0.60222 0.34334 0.40274 0.11461 0.51145 0.17325 0.54489 0.29382 0.023 0.0828 0.0888 0.16117 0.14622 0.17407 0.0575 0.0129 0.0985 0.0498 0.0913 0.0821-7e-3 0.0323 0.0988 0.17402 0.23559 0.31504 0.28541 0.29419 0.78512 0.45169 0.97303 0.30671 0.062-0.0479 0.15671-0.0772 0.21041-0.0651s0.15211-0.0333 0.2187-0.1007c0.0666-0.0675 0.14989-0.11614 0.18509-0.10824 0.0352 8e-3 0.24089-0.0811 0.45706-0.19776 0.21619-0.11667 0.45995-0.24732 0.54169-0.29033 0.0817-0.043 0.21053-0.0643 0.28616-0.0473 0.0756 0.017 0.19927-8e-3 0.27473-0.056 0.12473-0.079 0.13426-0.0738 0.1048 0.0575-0.056 0.24923 0.0423 0.52918 0.23281 0.66334 0.10093 0.071 0.21053 0.18223 0.24359 0.24701 0.033 0.0648 0.12817 0.13413 0.21132 0.15409 0.17612 0.0426 0.30667 0.30869 0.30785 0.62852 1e-3 0.35761 0.11893 0.81136 0.21622 0.83415 0.0491 0.0115 0.19454 0.11193 0.32327 0.22324 0.15751 0.13621 0.3703 0.23294 0.65062 0.29587 0.36533 0.082 0.44795 0.0736 0.67179-0.0681 0.14037-0.0889 0.25985-0.18224 0.26551-0.20742 0.0204-0.0908 0.94057-0.6329 1.0974-0.6465 0.0883-8e-3 0.18909-0.0567 0.22397-0.10918 0.0348-0.0524 0.1296-0.0804 0.2105-0.0622s0.17582-0.0101 0.21096-0.063c0.0351-0.0528 0.18036-0.0918 0.32273-0.0868s0.28564-0.0311 0.31842-0.0803c0.0419-0.063 0.19982-0.059 0.53397 0.0137 0.26097 0.0565 0.61368 0.0834 0.7839 0.0591 0.17024-0.0243 0.42064-0.0523 0.55646-0.0624 0.16922-0.0125 0.27411-0.0722 0.33324-0.18951 0.13832-0.27462 0.45312-0.44995 0.70584-0.39321 0.1231 0.0276 0.35798 0.0129 0.52193-0.0326 0.16396-0.0456 0.33869-0.0738 0.3883-0.0626 0.13527 0.0304 0.28723-0.71444 0.17533-0.85945-0.0479-0.062-0.0771-0.15698-0.065-0.21101 0.0248-0.11059-0.0444-0.13733-0.65478-0.25294-0.23706-0.045-0.51236-0.0521-0.61169-0.016-0.0993 0.0361-0.23698 0.053-0.30585 0.0375-0.0689-0.0155-0.34153 0.10528-0.60591 0.26833-0.46021 0.2838-0.49971 0.29347-0.92721 0.22685-0.42665-0.0665-0.44625-0.0778-0.44069-0.25188 4e-3 -0.13649 0.0924-0.24221 0.35066-0.42084 0.18966-0.13121 0.34918-0.25798 0.35451-0.2817 5e-3 -0.0237 0.13762-0.12507 0.29399-0.22521 0.15637-0.10016 0.3422-0.25336 0.41295-0.34047 0.21152-0.26041 0.36316-0.39739 0.51744-0.46741 0.10122-0.0459 0.16814-0.16505 0.21832-0.38857 0.0586-0.26117 0.0417-0.37074-0.0893-0.57755-0.0889-0.14038-0.19275-0.26222-0.23079-0.27076-0.038-9e-3 -0.0763-0.0645-0.0851-0.1244-9e-3 -0.0599-0.11716-0.15617-0.24085-0.21398-0.21034-0.0983-0.21365-0.10659-0.0511-0.12848 0.0955-0.0129 0.17962-0.0494 0.18678-0.0813 7e-3 -0.0319 0.10974-0.0761 0.22804-0.0983 0.29131-0.0546 0.52564-0.14407 0.61849-0.23606 0.11996-0.11892 0.23061-0.0582 0.14895 0.0817-0.042 0.0721-0.0369 0.18259 0.0117 0.25943 0.0467 0.0737 0.0591 0.24853 0.0276 0.3886-0.037 0.16465-0.0156 0.3203 0.0604 0.44037 0.23609 0.37279 1.2797 0.31038 1.776-0.10621 0.25669-0.21546 0.42087-0.19376 0.62261 0.0823 0.1203 0.16466 0.45932 0.23522 0.54102 0.11225 0.0357-0.0538 0.0962-0.0908 0.13422-0.0822 0.0381 9e-3 0.18401-0.0572 0.3244-0.1461 0.20372-0.12902 0.26912-0.22392 0.32406-0.47028 0.0379-0.16974 0.0415-0.41131 8e-3 -0.53679-0.0333-0.12548-0.0415-0.31362-0.018-0.41806 0.0235-0.10445 9e-3 -0.27109-0.0315-0.37028-0.0617-0.14987-0.10736-0.17563-0.2703-0.15221-0.10786 0.0154-0.33229-2e-3 -0.49873-0.0398-0.16642-0.0374-0.37547-0.0348-0.46452 6e-3 -0.089 0.0405-0.23244 0.0589-0.31864 0.0408-0.1482-0.0312-0.14871-0.0426-0.0104-0.20594 0.0805-0.0952 0.16222-0.24303 0.18166-0.32848 0.0323-0.14127 0.0549-0.14466 0.25173-0.0372 0.32815 0.17934 1.0079 0.31248 1.1466 0.22464 0.0657-0.0416 0.19202-0.0819 0.2807-0.0896 0.0886-8e-3 0.18979-0.0568 0.22466-0.10925 0.0348-0.0524 0.12246-0.082 0.19464-0.0658 0.0722 0.0162 0.20241-2e-3 0.28943-0.0394 0.11017-0.0479 0.20474-0.0381 0.3115 0.0325 0.23451 0.15504 0.65682 0.23243 0.64562 0.11831 0 0 0.21046 0.21529 0.44522 0.21729-0.0329 0.0208-0.13845 0.0201-0.23476-2e-3 -0.14472-0.0325-0.16428-0.018-0.11264 0.0831 0.0344 0.0674 0.0398 0.19493 0.0121 0.28358-0.10809 0.34587-0.0823 0.4754 0.1858 0.93466 0.052 0.0892 0.0877 0.19313 0.0792 0.23096-8e-3 0.0379 0.0411 0.11756 0.11004 0.17714 0.069 0.0596 0.11528 0.15375 0.10282 0.20925-0.0125 0.0555 0.015 0.13632 0.0611 0.17961 0.046 0.0433 0.10532 0.159 0.13169 0.25712 0.0625 0.23268 0.28724 0.34004 0.67725 0.32359 0.18843-8e-3 0.48468 0.0456 0.73796 0.1333 0.3837 0.13288 0.43119 0.17152 0.50948 0.41414 0.0475 0.14716 0.14285 0.30051 0.2119 0.3408 0.0691 0.0403 0.2146 0.19661 0.32347 0.34738 0.10884 0.15078 0.26363 0.32766 0.34401 0.3931 0.11378 0.0927 0.13922 0.20725 0.11497 0.51782-0.0171 0.21939 5e-3 0.46202 0.0482 0.5392 0.0438 0.0775 0.049 0.27578 0.0116 0.4425-0.14473 0.64461 0.14694 0.84279 0.65694 0.44635 0.16924-0.13154 0.51416-0.37065 0.76653-0.53135 0.25234-0.1607 0.46387-0.31466 0.47004-0.34214 6e-3 -0.0275 0.0937-0.11712 0.19452-0.19924 0.10084-0.0821 0.19649-0.20783 0.21256-0.27939 0.0397-0.17697-0.243-0.57179-0.44137-0.61633-0.0886-0.0199-0.20802-0.11024-0.26532-0.20067-0.12623-0.19932-0.076-0.77477 0.0649-0.74314 0.0513 0.0115 0.1218-0.022 0.15667-0.0743 0.071-0.10683 0.34116-0.15392 0.49704-0.0867 0.20241 0.0873 0.35739 0.40984 0.30629 0.63746-0.0276 0.12293-0.017 0.29638 0.0234 0.38543 0.0944 0.20775 0.016 0.55724-0.15821 0.70467-0.14245 0.12058-0.30483 0.69525-0.2441 0.86403 0.0199 0.0553 0.28715 0.17747 0.61035 0.27888l0.57491 0.18043-0.0542 0.24156c-0.0334 0.14894-0.0987 0.2481-0.1704 0.25859-0.0639 9e-3 -0.12621 0.0617-0.13847 0.11636-0.0123 0.0546-0.0705 0.0885-0.12926 0.0753-0.0588-0.0132-0.18557 0.0258-0.2816 0.0866-0.0961 0.0608-0.22378 0.0996-0.28383 0.0861-0.0601-0.0135-0.13773 0.0184-0.17261 0.0708-0.0348 0.0524-0.12986 0.10102-0.21108 0.10806-0.21066 0.0183-0.79529 0.24557-0.81095 0.31529-7e-3 0.0323-0.0591 0.0483-0.11518 0.0357-0.16889-0.0379-0.6519 0.1762-0.82847 0.36724-0.14416 0.15596-0.15564 0.19681-0.0891 0.31704 0.042 0.0759 0.0561 0.30199 0.0313 0.50241-0.045 0.36424-0.0384 0.96469 0.0125 1.1363 0.0951 0.32046 0.40665 1.0175 0.46022 1.0296 0.0354 8e-3 0.0547 0.0576 0.0429 0.11037-0.0118 0.0528 0.0296 0.16839 0.0921 0.25699s0.10014 0.22129 0.0836 0.29488c-0.0165 0.0736 0.0111 0.16116 0.0613 0.19459 0.0503 0.0334 0.0874 0.17229 0.0826 0.30856-5e-3 0.13626 0.0344 0.2765 0.0872 0.31165 0.0528 0.0351 0.0801 0.13455 0.0607 0.22093-0.0194 0.0864 7e-3 0.23165 0.0586 0.32283 0.0834 0.14727 0.0498 0.37309-0.30094 2.0236l-0.39488 1.8578-0.22393 0.13017c-0.14686 0.0854-0.3088 0.11111-0.47052 0.0748-0.15835-0.0356-0.30175-0.0141-0.40074 0.0598-0.10197 0.0762-0.24236 0.0954-0.41476 0.0567-0.1447-0.0325-0.31083-0.0198-0.37343 0.0285-0.1289 0.0995-0.74727-0.0113-0.83483-0.14951-0.0712-0.11243-0.85027-0.3749-1.0948-0.36877-0.14883 4e-3 -0.21233 0.0621-0.29956 0.2754-0.0609 0.14887-0.16485 0.2983-0.23096 0.33206-0.0662 0.0337-0.12987 0.10398-0.14156 0.15606-0.0117 0.0521-0.0672 0.11132-0.12344 0.13164-0.0562 0.0203-0.23063 0.15933-0.38768 0.30888-0.31294 0.29801-0.49676 0.4143-1.001 0.63328-0.18397 0.0799-0.34031 0.17118-0.34742 0.20287-7e-3 0.0317-0.06 0.0471-0.1174 0.0342-0.0575-0.0129-0.15321 0.033-0.2128 0.10202-0.0596 0.069-0.15533 0.11492-0.21278 0.10202-0.0575-0.0129-0.11368 0.0176-0.12496 0.0679-0.0113 0.0503-0.11723 0.10949-0.23554 0.13165-0.30225 0.0567-0.51919 0.1432-0.66155 0.26385-0.0672 0.057-0.16859 0.0932-0.22519 0.0805s-0.11372 0.025-0.12694 0.0839c-0.0132 0.0588-0.0859 0.0931-0.16153 0.0761-0.28789-0.0646-0.40266 0.10158-0.56289 0.81524-0.14936 0.66526-0.1529 0.67188-0.325 0.63324-0.0957-0.0215-0.20384-9e-3 -0.24025 0.0286-0.0364 0.0372-0.17677 0.0905-0.31188 0.11836-0.24886 0.0513-0.39464 0.0967-0.78741 0.24513-0.11968 0.0452-0.26537 0.0715-0.32375 0.0584-0.0583-0.0131-0.13266 0.016-0.16504 0.0646-0.0324 0.0487-0.16235 0.0861-0.28882 0.0831-0.13627-3e-3 -0.23987 0.0389-0.25434 0.10334-0.0134 0.0598-0.0842 0.0953-0.15741 0.0789-0.0732-0.0164-0.229 0.016-0.34632 0.0721s-0.24836 0.094-0.29121 0.0844c-0.0428-0.01-0.085 0.0142-0.0936 0.0529-9e-3 0.0387-0.13118 0.0964-0.27221 0.12815-0.31488 0.071-0.56577 0.15053-0.71717 0.22743-0.0631 0.0321-0.23776 0.0538-0.38817 0.0484-0.15042-5e-3 -0.30084 0.0313-0.33427 0.0815-0.0339 0.0508-0.15764 0.0696-0.27919 0.0423-0.12871-0.0289-0.24521-9e-3 -0.28369 0.0491-0.0359 0.0539-0.19401 0.0901-0.35132 0.0803-0.1573-0.01-0.33254 0.0181-0.38941 0.062-0.15045 0.1161-0.99172-0.0805-1.0147-0.23705-0.0118-0.0802-0.1222-0.14057-0.35743-0.19513-0.1873-0.0431-0.45484-0.16977-0.5947-0.28078-0.14214-0.11278-0.40882-0.23763-0.60466-0.28303-0.22995-0.0537-0.38783-0.13432-0.45941-0.23576-0.10353-0.14676-0.11502-0.14934-0.2274-0.0511-0.087 0.076-0.22047 0.0807-0.50278 0.0177-0.21335-0.0477-0.49095-0.0567-0.6238-0.0205-0.13166 0.0359-0.43565 0.0388-0.67553 6e-3 -0.23986-0.0325-0.50918-0.034-0.59847-3e-3 -0.0893 0.0307-0.36932 0.0284-0.62231-5e-3 -0.26668-0.0354-0.52325-0.0251-0.61054 0.0242-0.0828 0.0468-0.26442 0.0596-0.40361 0.0283-0.13917-0.0312-0.30292-0.0183-0.36384 0.0287-0.061 0.047-0.22329 0.0815-0.36077 0.0766-0.13749-5e-3 -0.29718 0.0276-0.35489 0.0721-0.0577 0.0445-0.19724 0.0602-0.3101 0.0349-0.11285-0.0253-0.28378 4e-3 -0.37982 0.0645-0.0961 0.0608-0.26696 0.0899-0.37982 0.0645-0.11285-0.0253-0.25593-7e-3 -0.31797 0.041-0.14564 0.11239-0.58048 0.0148-0.68759-0.15438-0.0534-0.0842-0.22104-0.16197-0.47004-0.21788-0.30007-0.0674-0.38157-0.11149-0.36258-0.19611 0.0135-0.06-0.0236-0.14123-0.0824-0.18039-0.0589-0.0391-0.24257-0.28159-0.40831-0.53872-0.16574-0.25714-0.36452-0.48173-0.44175-0.49906-0.0772-0.0173-0.20145-0.0921-0.27606-0.16614-0.10075-0.1-0.53725-0.23457-1.6963-0.52299-1.2414-0.30896-1.5992-0.42146-1.749-0.55021-0.1096-0.0942-0.36082-0.20075-0.60079-0.2549-0.23428-0.0529-0.47082-0.15213-0.54758-0.22991-0.0743-0.0753-0.28261-0.19327-0.4628-0.26221-0.18021-0.069-0.32134-0.15342-0.31366-0.18761 8e-3 -0.0342-0.0796-0.13358-0.19386-0.22077-0.28201-0.21507-0.4451-0.38357-0.48941-0.50562-0.0556-0.15291-0.80081-0.30445-0.88384-0.17968-0.0419 0.0628-0.16061 0.0763-0.33304 0.0376-0.16001-0.0359-0.35393-0.0191-0.48129 0.0417-0.11733 0.0561-0.32059 0.0779-0.45168 0.0485-0.2436-0.0546-0.50247 0.0627-0.91163 0.41317l-0.19054 0.1632-2.981-0.66928c-2.5628-0.57538-2.9968-0.65704-3.0938-0.58224-0.062 0.0479-0.20079 0.0673-0.30835 0.0431s-0.29157 2e-3 -0.4089 0.058c-0.11732 0.0561-0.30861 0.0805-0.42508 0.0544-0.11647-0.0262-0.25989-0.0104-0.31868 0.035-0.0588 0.0453-0.23628 0.0756-0.39443 0.0671-0.15814-8e-3 -0.33562 0.0217-0.39442 0.0671s-0.18331 0.0653-0.2767 0.0444c-0.0934-0.021-0.30395-8.1e-4 -0.4679 0.0447-0.16396 0.0456-0.43102 0.053-0.59348 0.0166-0.17557-0.0394-0.34113-0.031-0.40816 0.0207-0.062 0.0479-0.19714 0.0683-0.30023 0.0454-0.25483-0.0567-0.75252-0.0269-0.76887 0.0459-7e-3 0.0325-0.19606 0.0338-0.41945 3e-3 -0.22339-0.0311-0.43733-0.0246-0.47541 0.0143-0.038 0.0389-0.23243 0.0552-0.43188 0.0361-0.34393-0.0329-0.96205 0.13297-0.99197 0.26622-8e-3 0.0339-0.063 0.0505-0.12302 0.0371-0.06-0.0135-0.13846 0.0194-0.17425 0.0732-0.0358 0.0538-0.10373 0.0891-0.15095 0.0785-0.0472-0.0106-0.16268 0.0225-0.25652 0.0735-0.28951 0.1574-0.82326 0.28329-1.0168 0.23984-0.10131-0.0228-0.21348 3e-3 -0.24926 0.0564-0.0358 0.0538-0.14074 0.0807-0.23324 0.06-0.22715-0.051-0.68525 0.24059-0.73648 0.46878-0.0341 0.15172-0.0736 0.17324-0.24685 0.13435-0.11759-0.0264-0.21363-0.0962-0.22333-0.16249-0.0116-0.079-0.11773-0.13879-0.3314-0.18676-0.19247-0.0432-0.35813-0.0368-0.42717 0.0164-0.062 0.0479-0.18939 0.0698-0.28302 0.0488-0.0937-0.021-0.2396 0.0136-0.32436 0.077-0.0847 0.0634-0.20621 0.10351-0.26985 0.0892-0.12898-0.029-0.40034 0.1375-0.42848 0.26284-0.01 0.0446-0.0901 0.10094-0.17794 0.12531-0.0879 0.0243-0.1703 0.0913-0.1832 0.14876-0.0129 0.0575-0.0716 0.0936-0.13041 0.0804-0.0588-0.0132-0.11513 0.0124-0.12514 0.057-0.01908 0.085-0.35339 0.30099-0.53802 0.34771-0.05932 0.015-0.19856 0.0557-0.30934 0.0904-0.11078 0.0347-0.27474 0.0471-0.36433 0.0276-0.08959-0.0196-0.19219 9e-3 -0.22798 0.0623-0.03666 0.0551-0.15328 0.0779-0.26714 0.0524-0.11114-0.0249-0.22911-0.0177-0.26216 0.0161-0.0331 0.0338-0.09027 0.0547-0.12719 0.0464-0.03688-8e-3 -0.05992-0.0472-0.05112-0.0864zm55.729-11.887c0.0358-0.0229 0.22126-0.0402 0.4122-0.0386 0.42933 4e-3 0.56939-0.14512 0.70697-0.75104 0.0852-0.37605 0.079-0.47562-0.045-0.70294-0.0965-0.17686-0.21026-0.27961-0.34251-0.3093-0.10893-0.0245-0.1902-0.0794-0.1806-0.12213 0.01-0.0427-0.0733-0.22985-0.18422-0.41587-0.26021-0.43642-0.47719-0.49637-0.69327-0.19152-0.0864 0.12196-0.19427 0.23456-0.2396 0.25022-0.0453 0.0156-0.10386 0.12387-0.13003 0.24044-0.0275 0.12261-0.0965 0.21912-0.16376 0.22897-0.0639 9e-3 -0.12893 0.0739-0.14452 0.14329-0.0156 0.0695 0.0108 0.177 0.0587 0.23904 0.0479 0.062 0.0786 0.15045 0.0682 0.1965-0.0193 0.0861 0.0843 0.34737 0.2511 0.63309 0.052 0.0892 0.0878 0.1925 0.0795 0.22958-0.0156 0.0693 0.27126 0.34245 0.40622 0.38694 0.0417 0.0135 0.10481 6e-3 0.14059-0.0167z" fill="#012169" style="paint-order:stroke fill markers"/>
  <path d="m123.98 70.189c-36.689 0-66.549 29.86-66.549 66.549s29.86 66.549 66.549 66.549c36.689 0 66.549-29.86 66.549-66.549s-29.86-66.549-66.549-66.549zm0 10.992c2.4486 0 4.8586 0.15894 7.2223 0.46405v6.9345l1.9105 0.36327c5.0854 0.96618 9.95 2.7272 14.496 5.2483v-0.0026c4.8392 2.684 9.1641 6.1498 12.856 10.299 3.9012 4.3848 6.9459 9.3584 9.0547 14.797v3e-3h3e-3c2.1873 5.6347 3.2949 11.573 3.2949 17.678 0 5.5952-0.93308 11.053-2.7673 16.256l-0.64648 1.8355 5.7707 3.3512c-1.8958 4.4884-4.3659 8.6714-7.3153 12.462l-5.7371-3.3285-1.2754 1.4609c-4.1513 4.7649-9.2848 8.7781-14.875 11.606l-3e-3 3e-3c-3.347 1.6964-6.8913 3.0015-10.53 3.8752-3.7478 0.90103-7.6222 1.3648-11.514 1.3648-3.8867 0-7.7604-0.45892-11.498-1.3591h-3e-3c-3.6376-0.87357-7.1754-2.1777-10.525-3.869-5.5844-2.8216-10.718-6.8222-14.861-11.578l-1.2738-1.463-5.6632 3.2887c-2.9497-3.7906-5.4189-7.9735-7.3147-12.462l5.6927-3.3042-0.65267-1.8376c-1.847-5.2148-2.7848-10.693-2.7848-16.301 0-6.1125 1.107-12.057 3.3006-17.698h0.0026v-3e-3c2.1154-5.4518 5.165-10.426 9.08-14.818 3.7042-4.155 8.0354-7.6117 12.889-10.297 4.5516-2.5142 9.4298-4.2667 14.529-5.2266l1.9141-0.36174v-6.9169c2.3637-0.30512 4.7743-0.46405 7.2229-0.46405zm-11.922 1.2795v2.3652c-4.885 1.1089-9.6126 2.7789-14.016 5.211l-0.0026 0.0026c-5.3135 2.9392-10.069 6.7332-14.123 11.281-4.2817 4.8036-7.6352 10.272-9.9534 16.246-2.4039 6.1821-3.623 12.717-3.623 19.399 0 5.4614 0.94575 10.797 2.5549 15.945l-1.7689 1.0268c-1.753-5.413-2.7037-11.192-2.7037-17.199 0-26.654 18.643-48.84 43.635-54.277zm23.844 0c24.992 5.4374 43.635 27.624 43.635 54.277 0 6.0075-0.95046 11.787-2.7037 17.2l-1.8547-1.0769c1.597-5.133 2.5368-10.449 2.5368-15.896 0-6.675-1.2167-13.203-3.6132-19.377v-3e-3c-2.3111-5.9597-5.6577-11.426-9.9255-16.223-4.0402-4.5407-8.7872-8.3429-14.088-11.283-4.3966-2.4383-9.1124-4.1147-13.986-5.2302zm27.045 90.992 1.818 1.0552c-10.138 10.946-24.641 17.787-40.785 17.787-16.143 0-30.647-6.841-40.785-17.787l1.6578-0.96327c4.293 4.5778 9.3641 8.4585 14.928 11.27v3e-3c3.6694 1.8526 7.5475 3.2841 11.545 4.2442 4.1034 0.98827 8.3444 1.4883 12.6 1.4883 4.2645 0 8.5042-0.50866 12.611-1.496 3.9969-0.95983 7.8823-2.3908 11.555-4.2519 5.5644-2.8146 10.562-6.7715 14.855-11.348z" color="#000000" color-rendering="auto" dominant-baseline="auto" image-rendering="auto" shape-rendering="auto" solid-color="#000000" style="font-feature-settings:normal;font-variant-alternates:normal;font-variant-caps:normal;font-variant-ligatures:normal;font-variant-numeric:normal;font-variant-position:normal;isolation:auto;mix-blend-mode:normal;paint-order:markers stroke fill;shape-padding:0;text-decoration-color:#000000;text-decoration-line:none;text-decoration-style:solid;text-indent:0;text-orientation:mixed;text-transform:none;white-space:normal"/>
  <g fill="#fff" stroke-width=".26458">
   <path d="m-32.423 263.87 282 141h35.496v-17.749l-282-141h-35.499z"/>
   <path d="m-32.423 299.03v52.916h317.5v-52.917z"/>
   <path d="m99.869 404.87h52.917v-158.75h-52.917z"/>
  </g>
  <g transform="matrix(.66752 0 0 .66752 184.56 28.287)" stroke-width="1.4981">
   <path d="m-39.748 128.23 4.9371-3.4465-4.9451-3.4568 0.80962-1.3803-10.361-8e-3 5.1702-8.9535-1.6036 8e-3 -0.53975-6.0076-5.4742 2.5352-0.79375-1.3925-5.167 8.9546-5.1885-8.9686-0.79084 1.3904-5.4663-2.5535-0.51594 5.9994-1.6034-0.0119 5.1909 8.9662-4.535-5e-3 0.71173 1.2086-4.3206 3.0162 4.3259 3.025-0.70644 1.2073 9.0646 9e-3 0.08202 0.0474c-7.1707 10.595-16.908 20.578-27.756 28.467l-0.0069-41.619 7.8531 4.5249-0.0079-1.3991 5.2599-0.45667-2.2331-4.772 1.2173-0.69188-3.9264-2.2627 8.9773-5.1702-1.3944-0.79084 2.553-5.4536-6.0113-0.52176 0.01058-1.5994-8.9776 5.1734v-10.339l-1.3835 0.80883-3.4721-4.9329-3.4713 4.9324-1.3835-0.80883v10.339l-8.9776-5.1734 0.0106 1.5994-6.0113 0.52176 2.553 5.4536-1.3944 0.79084 8.9773 5.1702-3.9264 2.2627 1.2174 0.69188-2.2331 4.772 5.2599 0.45667-8e-3 1.3991 7.8531-4.5249-0.0056 41.54c-10.841-7.902-20.567-17.894-27.72-28.492l0.045-0.0262 9.0646-9e-3 -0.70644-1.207 4.3259-3.0252-4.3206-3.0157 0.71173-1.2092-4.535 5e-3 5.1911-8.9665-1.6036 0.0122-0.51594-5.9994-5.4663 2.5535-0.79084-1.3901-5.1885 8.9683-5.167-8.9546-0.79375 1.3925-5.4742-2.5352-0.53975 6.0074-1.6036-8e-3 5.1702 8.9532-10.361 8e-3 0.80963 1.3809-4.9451 3.4565 4.9371 3.4467-0.81201 1.3819 10.361-0.0116-2.2701 3.9238 1.4026-0.0106 0.44953 5.2496 4.7837-2.2344 0.69321 1.2166 4.5402-7.846 0.0817-0.0474c7.811 11.64 18.231 22.184 30.247 30.609l-0.0026 40.265 1.5452-0.0103 1.5425 0.0103-0.0032-40.191c12.025-8.4122 22.456-18.946 30.282-30.579l0.04471 0.0259 4.54 7.8457 0.69347-1.2163 4.7837 2.2344 0.44953-5.2493 1.4026 0.0106-2.2701-3.924 10.361 0.0116z" fill="#f3cc00"/>
   <g fill="none" stroke="#007934" stroke-linecap="round" stroke-linejoin="round" stroke-width=".79265">
    <path d="m-90.778 91.196v21.849m12.213 3.5306-28.943-16.061m4.4741 16.082 29.012-16.127"/>
    <path d="m-93.961 94.336 3.1962 5.5041 3.1962-5.5041m-18.812 10.326 6.3659-0.0156-3.1694-5.2922m28.035 5.2626-6.3659-0.0159 3.1694-5.2919"/>
    <path d="m-48.204 108.28-10.922 18.922m8.8106 9.1646-17.034-28.381m-4.1672 16.164 33.189 0.54002"/>
    <path d="m-52.53 109.41 0.0164 6.3643 5.5219-3.1684m-21.456-0.46249 5.5192 3.1689-0.0979-6.1672m21.648 18.574-5.5036-3.1946 5.3898-2.999"/>
    <path d="m-133.33 108.2 10.925 18.922m-8.8133 9.1646 17.034-28.381m4.1672 16.164-33.189 0.53975"/>
    <path d="m-129 109.33-0.0164 6.3643-5.5218-3.1679m21.456-0.46355-5.5192 3.1692 0.0979-6.1669m-21.648 18.574 5.5033-3.1956-5.3896-2.999"/>
   </g>
  </g>
  <g stroke="#fff" aria-label="201">
   <path d="m106.39 150.96c0.98778 0 1.4224-0.43462 1.4224-1.4224v-4.6228c0-0.98778-0.43462-1.4224-1.4224-1.4224h-11.261v-0.82973c0-0.86925 0.23707-0.94827 1.0273-1.1853l5.3735-1.699c3.8326-1.1853 6.1637-3.0028 6.1637-6.9935v-3.714c0-4.2672-2.4497-6.5588-6.954-6.5588h-11.656c-0.98778 0-1.4224 0.43463-1.4224 1.4224v4.6228c0 0.98778 0.43462 1.4224 1.4224 1.4224h8.5739c0.79022 0 1.0668 0.23707 1.0668 1.0273 0 0.86925-0.23707 1.1853-1.0668 1.4224l-5.2945 1.6595c-3.635 1.1063-6.2032 2.5287-6.2032 8.6529v6.7959c0 0.98778 0.43462 1.4224 1.4224 1.4224z"/>
   <path d="m136.26 143.49v-13.473c0-4.8204-2.3312-8.0998-12.051-8.0998s-12.09 3.2794-12.09 8.0998v13.473c0 4.8204 2.3707 8.0603 12.09 8.0603s12.051-3.2399 12.051-8.0603zm-15.212-1.4224v-10.628c0-1.0273 0.47414-1.8175 3.1609-1.8175 2.7263 0 3.1609 0.79022 3.1609 1.8175v10.628c0 1.0668-0.43462 1.857-3.1609 1.857-2.6868 0-3.1609-0.79022-3.1609-1.857z"/>
   <path d="m159.34 150.96c0.98778 0 1.4224-0.43462 1.4224-1.4224v-4.7808c0-0.98777-0.43462-1.4224-1.4224-1.4224h-3.7931v-19.4c0-0.98777-0.43463-1.4224-1.4224-1.4224h-11.458c-0.98778 0-1.4224 0.43463-1.4224 1.4224v4.7808c0 0.98777 0.43462 1.4224 1.4224 1.4224h3.635v13.197h-4.4252c-0.98778 0-1.4224 0.43463-1.4224 1.4224v4.7808c0 0.98778 0.43462 1.4224 1.4224 1.4224z"/>
  </g>
  <g fill="none" stroke="#f3cc00" stroke-linecap="round" stroke-linejoin="round">
   <g transform="rotate(-58.507 150.42 235)" stroke-width=".5">
    <path d="m199.08 189.52-2e-3 -14.585"/>
    <path d="m195.43 187.57 3.7092-5.6096 3.7402 6.1392"/>
   </g>
   <g transform="rotate(89.221 167.61 129.84)" stroke-width=".5">
    <path d="m199.08 189.52-2e-3 -14.585"/>
    <path d="m195.8 187.87 3.2707-5.6632 3.1424 5.9429"/>
   </g>
   <g transform="matrix(.44064 1.2119 1.201 -.44466 -160.9 6.2762)">
    <path d="m199.12 189.63-2e-3 -14.585" stroke-width=".38908"/>
    <path d="m196.95 187.43 2.133-3.674 2.1354 3.6739" stroke-width=".38908"/>
   </g>
   <g transform="matrix(-.4557 -.89013 -.89013 .4557 354.83 259.9)" stroke-width=".5">
    <path d="m199.36 189.42-2e-3 -14.585"/>
    <path d="m196.95 187.43 2.133-3.674 2.1354 3.6739"/>
   </g>
  </g>
  <g fill="none" stroke="#f3cc00" stroke-linecap="round" stroke-linejoin="round" stroke-width=".5">
   <path d="m117.27 165.56 6.2982-3.6468"/>
   <path d="m131 157.63-6.6289 4.3871 13.185 3.5e-4"/>
   <path d="m117.51 158 6.0516 3.9825"/>
  </g>
 </g>
</svg>
