<?xml version="1.0" encoding="UTF-8"?>
<!-- Created with Inkscape (http://www.inkscape.org/) -->
<svg width="133.1mm" height="133.1mm" version="1.1" viewBox="0 0 133.1 133.1" xmlns="http://www.w3.org/2000/svg" xmlns:cc="http://creativecommons.org/ns#" xmlns:dc="http://purl.org/dc/elements/1.1/" xmlns:rdf="http://www.w3.org/1999/02/22-rdf-syntax-ns#">
 <defs>
  <clipPath id="clipPath4612">
   <ellipse cx="40.766" cy="71.844" rx="36.433" ry="38.304" fill="none" stroke="#000" stroke-linecap="round" stroke-width=".96394" style="paint-order:stroke fill markers"/>
  </clipPath>
 </defs>
 <metadata>
  <rdf:RDF>
   <cc:Work rdf:about="">
    <dc:format>image/svg+xml</dc:format>
    <dc:type rdf:resource="http://purl.org/dc/dcmitype/StillImage"/>
   </cc:Work>
  </rdf:RDF>
 </metadata>
 <g transform="translate(-57.427 -70.189)">
  <path d="m109.78 185.2c-8.9615-2.8919-13.097-5.3182-19.688-11.552-5.805-5.4901-5.934-5.5454-8.7041-3.7303-2.7949 1.8313-2.8317 1.8109-6.148-3.4183-1.8349-2.8934-3.3362-5.6062-3.3362-6.0284s1.2094-1.5602 2.6875-2.5287c2.6383-1.7287 2.6576-1.8585 1.0535-7.0907-2.4563-8.012-2.1439-20.794 0.71559-29.283 5.4296-16.118 20.314-30.095 35.352-33.198 3.5764-0.73788 4.2507-1.3512 4.5739-4.1601 0.46252-4.0204 1.7618-4.9338 7.0495-4.9558 6.0144-0.02511 7.6107 0.91885 7.6107 4.5005 0 2.9225 0.51987 3.3111 6.7802 5.0677 17.01 4.7729 30.288 18.755 35.005 36.862 2.1434 8.2291 2.1003 14.604-0.15955 23.615-1.1317 4.5124-1.4024 7.4018-0.71498 7.6309 0.60846 0.20282 1.9248 0.97731 2.9251 1.7211 1.6468 1.2244 1.4971 1.9133-1.5827 7.2834-3.3804 5.8942-3.4186 5.9198-6.1579 4.125-2.6925-1.7642-2.8985-1.6794-8.8859 3.657-13.818 12.316-32.242 16.689-48.375 11.483z" fill="#006eb6" fill-rule="evenodd" stroke="#000" stroke-linecap="round" stroke-width="2.1052" style="paint-order:stroke fill markers"/>
  <g fill="#fff">
   <g fill-opacity=".99216" fill-rule="evenodd" stroke-width="5.3993">
    <path transform="matrix(.26458 0 0 .26458 57.427 70.189)" d="m225.71 459.26c-43.865-6.0884-84.333-25.036-116.19-54.403-9.1404-8.4252-10.776-10.552-8.9144-11.593 1.7382-0.97277 4.7683 0.97876 12.765 8.2212 30.82 27.914 66.482 45.225 105.89 51.405 19.138 3.0008 56.728 2.2602 73.592-1.45 36.423-8.013 68.678-24.753 94.504-49.047 8.9563-8.4247 11.722-10.278 14.175-9.4991 2.8981 0.91981 2.777 1.2496-2.4586 6.6969-9.413 9.7937-27.708 23.926-41.177 31.808-21.703 12.7-43.491 20.953-68.007 25.758-14.071 2.7581-50.792 3.9614-64.18 2.1032z"/>
    <path transform="matrix(.26458 0 0 .26458 57.427 70.189)" d="m447.25 312.99c-1.2871-1.5509-1.0195-4.5676 1.1724-13.214 6.5933-26.009 7.5603-61.935 2.3395-86.919-16.022-76.671-70.564-135.23-145.3-156.01-7.107-1.9759-8.3206-2.8001-8.3206-5.6506 0-4.3687 1.2883-4.2654 18.945 1.5185 52.673 17.254 97.837 56.125 122.72 105.62 7.6975 15.31 16.162 41.414 19.07 58.808 4.4933 26.884 2.6178 63.862-4.5465 89.643-2.3854 8.584-3.3174 9.5349-6.0814 6.2046z"/>
    <path transform="matrix(.26458 0 0 .26458 57.427 70.189)" d="m48.851 303.21c-5.142-20.694-6.4015-34.082-5.587-59.392 0.59261-18.416 1.5789-27.262 4.346-38.981 16.976-71.892 69.498-129.31 139.16-152.13 17.674-5.7896 18.945-5.89 18.945-1.4963 0 2.9419-1.1984 3.6779-9.6429 5.9221-62.528 16.618-115.36 66.241-136.7 128.39-12.343 35.955-14.252 79.561-5.0496 115.34 1.9428 7.5529 2.2594 10.943 1.1472 12.283-2.7666 3.3336-3.6557 1.9996-6.6211-9.9348z"/>
   </g>
   <path transform="matrix(1.3317 .059075 -.063207 1.2447 74.088 44.98)" d="m37.203 112.66c-14.577-1.3365-27.603-11.415-33.094-25.605-3.6707-9.4862-3.8441-20.263-0.4804-29.862 3.7639-10.741 12.241-19.841 22.419-24.066 5.3368-2.2156 8.6218-2.8494 14.728-2.8416 5.3018 0.0068 8.1143 0.45337 12.485 1.9825 12.74 4.4572 22.711 15.744 25.9 29.319 3.3206 14.136-0.66892 28.868-10.601 39.146-6.908 7.1489-15.07 11.086-24.742 11.936-3.3208 0.29168-3.344 0.29166-6.6146-8e-3zm2.1167-3.1208c0-2.2398-0.33571-4.2722-0.7057-4.2722-0.45379 0-0.80713 0.89739-1.0377 2.6355-0.1172 0.88351-0.30205 1.3333-0.54796 1.3333-0.64869 0-0.69666-0.75032-0.21242-3.3229 0.39244-2.0849 0.41467-2.6136 0.13211-3.1415-0.49591-0.9266-1.11-0.96422-2.316-0.14187-1.3742 0.93705-2.1915 1.2071-2.1915 0.72415 0-0.19884 0.47304-0.65335 1.0512-1.01 0.57817-0.35668 1.0544-0.7399 1.0583-0.85161 0.0118-0.33653 1.9148-2.0801 2.5225-2.3111 0.66648-0.25339 4.285-0.15882 4.969 0.12987 0.60679 0.25612 1.0774 1.3992 1.5002 3.6443 0.18533 0.98401 0.54229 2.0556 0.79323 2.3812 0.68827 0.89325 1.1019 2.2611 0.7496 2.4788-0.33079 0.20444-0.99828-0.59439-1.0108-1.2096-0.0113-0.55673-1.1927-1.8677-1.6831-1.8677-0.58491 0-0.71472 0.3779-0.42125 1.2264 0.14419 0.4169 0.2916 1.4724 0.32756 2.3455 0.052 1.2638-0.0155 1.5875-0.33149 1.5875-0.26491 0-0.41829-0.3079-0.46128-0.92604-0.11332-1.6294-0.67482-3.7224-0.9718-3.6224-0.17979 0.0605-0.28671 1.0623-0.28671 2.6863v2.5898l2.5035-0.17462c8.8076-0.61433 16.82-4.2899 23.149-10.619 5.2238-5.2238 9.0711-12.374 10.6-19.7 2.6534-12.712-1.0664-26.209-9.753-35.388-5.5007-5.8128-12.633-9.7096-20.19-11.032-3.0365-0.53114-8.7889-0.5299-11.866 3e-3 -11.267 1.9496-21.321 9.6262-26.66 20.356-5.0567 10.162-5.4813 22.465-1.1426 33.112 4.7763 11.721 15.628 20.75 27.274 22.693 5.2919 0.8827 5.1594 0.89133 5.1594-0.33618zm14.226-4.6029c-0.35247-0.61846-0.84996-1.6902-1.1055-2.3817-0.78593-2.1264-2.4144-2.7491-3.1793-1.2157-0.22893 0.45892-0.41625 0.98152-0.41625 1.1613 0 0.4496-0.97384 1.6149-1.1789 1.4108-0.0914-0.091 2e-3 -0.62676 0.20839-1.1906 0.206-0.56387 0.49714-1.8241 0.64699-2.8006 0.28044-1.8274 1.108-3.384 1.7992-3.384 0.20969 0 0.75809-0.36012 1.2187-0.80027 0.95116-0.90898 1.8746-1.2244 2.5945-0.88628 0.27092 0.12724 1.2034 0.90263 2.0723 1.7231 0.87714 0.8283 2.0332 1.6379 2.5994 1.8204 1.2197 0.39313 1.6812 0.7275 1.6812 1.2182 0 0.52934-0.37768 0.45133-1.499-0.30961-1.2366-0.83914-2.56-0.8115-2.6836 0.056-0.0524 0.36766 0.0897 0.62734 0.39687 0.72559 0.65572 0.20969 2.7967 2.7413 2.5947 3.0681-0.21428 0.34672-0.92565 0.34088-0.92565-8e-3 0-0.42754-2.3222-2.6389-2.7712-2.6389-0.78366 0-0.49371 0.57846 1.5144 3.0212 0.40019 0.48681 0.72761 1.0182 0.72761 1.1809 0 0.6976-0.77348 0.1807-2.1241-1.4195-0.79627-0.94341-1.5966-1.7173-1.7785-1.7198-0.53073-7e-3 -0.3832 1.1253 0.32962 2.5303 0.36319 0.71589 0.66085 1.4504 0.66146 1.6323 2e-3 0.71805-0.77629 0.2712-1.3832-0.79375zm-28.087-0.14978c-0.0734-0.11877 0.0334-0.68431 0.23736-1.2568 0.62545-1.7556 0.4533-3.0252-0.41019-3.0252-0.27048 0-0.56332 0.26197-0.66548 0.59532-0.35249 1.1501-1.7884 3.1088-2.279 3.1088-0.64889 0-0.61042-0.33809 0.14069-1.2365 0.97679-1.1683 1.8008-2.9379 1.4647-3.1456-0.30405-0.18792-2.4857 2.0744-2.7587 2.8607-0.16617 0.47859-0.78581 0.62776-1.0218 0.24597-0.14097-0.22809 1.8676-3.2909 2.2579-3.443 0.12446-0.0485 0.22629-0.3164 0.22629-0.59531 0-0.98622-1.3529-0.46462-2.9738 1.1465-0.6049 0.60126-0.99499 0.58854-0.99499-0.0325 0-0.48074 2.1346-2.6795 2.6013-2.6795 0.12752 0 0.5469-0.29197 0.93195-0.64882 1.0064-0.93268 0.99178-2.4279-0.0275-2.8172-0.40018-0.15283-1.0253-0.31827-1.3891-0.36765-0.3638-0.0494-0.86982-0.17225-1.1245-0.27305-1.0751-0.42554-0.2808-0.59699 2.5444-0.54921 3.3116 0.056 4.0636 0.3256 4.7817 1.7143 0.21549 0.41669 0.63325 0.82077 0.92837 0.89795 0.5671 0.1483 1.0751 1.1602 1.0677 2.127-2e-3 0.31795-0.53821 1.4656-1.1906 2.5504-0.65242 1.0848-1.1862 2.2874-1.1862 2.6725 0 1.4275-0.74932 2.8161-1.1606 2.1507zm35.3-11.082c-5e-3 -0.75682-0.13915-1.9856-0.29894-2.7307-0.38173-1.78-0.11228-3.0718 0.83915-4.0232 0.42586-0.42586 0.77429-0.93314 0.77429-1.1273 0-0.50861 1.531-1.723 2.1723-1.723 0.2993 0 1.3619 0.41671 2.3613 0.92604 1.038 0.52899 2.2424 0.93735 2.809 0.95241 2.7136 0.0722 2.8958 0.89967 0.19812 0.89967-1.6537 0-1.8592 0.0567-1.9181 0.52917-0.052 0.4169 0.34089 0.73119 1.8521 1.4814 1.055 0.52375 1.9566 1.1488 2.0037 1.3891 0.10704 0.54651-0.67583 0.5832-1.2553 0.0588-0.22974-0.20788-0.98786-0.62234-1.6847-0.92103-1.1626-0.49829-1.281-0.50661-1.4367-0.10092-0.0954 0.24865-0.0288 0.4891 0.15229 0.54945 0.17708 0.059 0.64499 0.37684 1.0398 0.70625 0.39481 0.32941 1.1048 0.79733 1.5777 1.0398 0.9123 0.46776 1.0962 0.8824 0.4939 1.1135-0.35503 0.13624-3.3812-1.6098-3.5586-2.0534-0.12105-0.30246-0.77106-0.27792-0.96534 0.0364-0.24457 0.39573 0.49951 1.6336 1.5633 2.6007 0.90501 0.82276 1.0431 1.3868 0.33454 1.3671-0.44136-0.0123-1.1689-0.68285-2.6507-2.4429-1.0995-1.306-1.4041-1.5171-2.1894-1.5171-1.0429 0-1.4282 0.63339-1.4282 2.3479 0 0.5448-0.1748 1.2217-0.38846 1.5041-0.35781 0.47308-0.38912 0.40504-0.39687-0.86245zm-47.898-1.4882c0-0.19292 0.2942-0.62714 0.65378-0.96495 0.84296-0.79192 1.3751-2.3175 0.955-2.7376-0.20009-0.20009-0.41846-0.21404-0.65386-0.0418-3.0989 2.2677-3.8653 2.6176-3.8653 1.7648 0-0.29579 0.37852-0.65091 0.99219-0.93082 1.5769-0.71927 2.6315-1.6877 2.2516-2.0675-0.24655-0.24655-0.7376-0.10095-2.2046 0.65366-2.1 1.0802-2.3622 1.1447-2.3622 0.58083 0-0.21452 0.89297-0.88012 1.9844-1.4791 2.8559-1.5674 2.5988-2.6097-0.41835-1.6962-0.86318 0.26135-1.6429 0.40171-1.7327 0.3119-0.60685-0.60685 1.2206-1.4912 3.9517-1.9124 2.0345-0.31376 2.6632-1.932 1.2217-3.145-0.44773-0.37674-0.91979-0.68498-1.049-0.68498-0.29298 0-0.87577-1.0535-0.68714-1.2422 0.07617-0.0762 0.47277 0.0987 0.88133 0.38849 0.40856 0.28983 1.5239 0.88044 2.4786 1.3124 1.8847 0.85287 2.8944 1.8748 2.8944 2.9295 0 0.3691 0.20565 0.89833 0.457 1.1761 0.26697 0.295 0.45701 0.93009 0.45701 1.5273 0 1.1819-0.61194 1.9562-2.5067 3.1721-0.67864 0.43548-1.6097 1.3786-2.0847 2.1116-0.81362 1.2556-1.6143 1.7387-1.6143 0.9739zm24.209-2.0304c-0.58208-0.13292-1.6536-0.37992-2.3812-0.54889-1.7174-0.39884-4.9633-1.9193-6.5143-3.0516l-1.2227-0.89253-1.5307 0.52665c-0.84191 0.28966-1.7205 0.52117-1.9524 0.51447-0.24898-7e-3 -1.2277-1.3342-2.3903-3.2412-1.0828-1.7759-2.4148-3.9108-2.9601-4.7442l-0.99136-1.5152 2.7403-2.3972 0.0225-3.2393c0.0263-3.7956 0.40175-5.3966 2.0316-8.6632 0.80348-1.6104 1.684-2.8383 3.1012-4.3245 2.2818-2.393 3.961-3.5804 6.823-4.8246 2.0992-0.91256 2.396-1.2389 2.4278-2.6694 0.0389-1.7546-0.26345-1.6753 6.3863-1.6753h6.0465l0.30491 1.1245c0.56378 2.0792 0.78206 2.4539 1.6411 2.8171 5.5616 2.3512 9.0391 5.5257 11.18 10.205 1.3309 2.9097 1.5053 3.7827 1.5509 7.7639l0.0434 3.7869 1.3864 1.0572c0.90757 0.69207 1.3163 1.17 1.1834 1.3837-0.11161 0.17958-1.1554 1.8414-2.3196 3.693-1.1642 1.8516-2.2372 3.5729-2.3845 3.8252-0.14729 0.25232-0.47832 0.77079-0.73563 1.1522l-0.46783 0.69341-1.972-0.51172-1.972-0.51173-0.88193 0.67269c-1.2361 0.94283-5.0178 2.6536-7.0642 3.1957-1.9754 0.52331-7.5213 0.76545-9.1281 0.39854zm8.4667-6.203c2.601-0.93286 3.717-1.6093 5.5902-3.3886l1.9-1.8048 0.95933 0.53883c0.52763 0.29635 1.0557 0.53882 1.1734 0.53882 0.17362 0 0.82817-1.1282 0.82817-1.4275 0-0.0438-0.47625-0.29442-1.0583-0.5569-0.58209-0.26249-1.0583-0.53047-1.0583-0.59551 0-0.065 0.16464-0.49345 0.36586-0.95201 0.9005-2.0521 1.0368-2.7312 1.0344-5.1522-2e-3 -2.0317-0.12809-2.8872-0.61029-4.1413-1.9186-4.9897-6.0069-8.2851-11.379-9.1723l-1.8462-0.30489v-1.0196c0-0.95645-0.0491-1.0196-0.79375-1.0196-0.7476 0-0.79375 0.0606-0.79375 1.0421v1.0421l-1.2568 0.16952c-3.4626 0.46706-6.3202 1.9339-8.8362 4.5357-1.8736 1.9375-3.0319 4.1736-3.5415 6.837-0.45041 2.3541-0.24434 4.2639 0.72427 6.7123l0.56219 1.4211-0.63904 0.49126c-0.35148 0.27019-0.78787 0.4939-0.96977 0.49714-0.47369 8e-3 -0.40845 0.93492 0.0953 1.353 0.36037 0.29908 0.57702 0.27083 1.4063-0.18343l0.98032-0.53697 1.8008 1.6728c1.8058 1.6775 4.1678 3.018 6.4955 3.6864 1.7426 0.50038 7.1659 0.32753 8.8671-0.28262zm-7.0115-1.9118c-1.1294-0.17957-3.7976-1.1882-4.6302-1.7503-0.43656-0.29475-1.2975-1.0162-1.9132-1.6033l-1.1195-1.0674 2.1301-1.1661c1.1716-0.64135 2.1578-1.1248 2.1917-1.0743 0.0339 0.0505 0.27066 0.42561 0.52614 0.83361l0.4645 0.74182 0.59601-0.87411c0.32781-0.48076 1.0948-1.6029 1.7044-2.4937 0.6096-0.89078 1.1084-1.6853 1.1084-1.7655 0-0.15063-3.2419-3e-3 -5.224 0.23792l-1.123 0.13649 0.42035 0.81287c0.34802 0.673 0.35915 0.85423 0.0647 1.0532-0.71293 0.48182-3.3906 1.8061-3.6519 1.8061-0.65467 0-1.1659-1.9996-1.1838-4.6302-0.0165-2.4327 0.0485-2.786 0.80669-4.3862 0.96012-2.0262 3.1664-4.329 5.048-5.2687 1.3486-0.67354 4.5861-1.605 4.9091-1.4124 0.10914 0.0651 0.19844 1.1233 0.19844 2.3517v2.2333h-0.80205c-0.9607 0-1.2316 0.5214-0.7106 1.3677 0.20881 0.33918 0.82538 1.4318 1.3702 2.428l0.99051 1.8113 0.53989-0.88527c0.29694-0.4869 0.95084-1.6452 1.4531-2.574 0.99068-1.8319 0.91617-2.1357-0.52593-2.1437l-0.7276-4e-3v-2.2333c0-1.2283 0.0982-2.294 0.21825-2.3682 0.12004-0.0742 0.92371 0.0489 1.7859 0.27356 4.3884 1.1434 7.2375 3.5768 8.6253 7.367 0.68222 1.8632 0.65846 5.2392-0.0485 6.8884-0.60406 1.4092-0.51941 1.4102-3.1122-0.0373-1.6716-0.93325-1.7292-1.0581-0.9231-1.999 0.34534-0.40309 0.27564-0.45606-0.76785-0.58352-2.8901-0.35302-5.2487-0.38445-5.2487-0.07 0 0.17468 0.56555 1.1095 1.2568 2.0773 0.69123 0.96783 1.3973 1.9766 1.569 2.2417 0.29172 0.45035 0.35418 0.43117 0.95154-0.29223l0.63934-0.77423 1.8266 0.99687c1.0046 0.54828 1.9291 1.0944 2.0543 1.2136 0.38172 0.36332-2.119 2.5157-3.9732 3.4198-2.3547 1.1481-5.1919 1.5738-7.7639 1.1649zm29.964-3.9238c-0.47311-0.7276-1.2887-1.8896-1.8125-2.5822-0.76354-1.0097-0.94763-1.4817-0.92863-2.3812 0.013-0.61707 0.028-1.6595 0.0332-2.3165 0.0169-2.1314 1.4118-3.144 4.3619-3.1665 0.62186-5e-3 1.3857-0.23206 1.8521-0.55121 1.0606-0.72576 1.9721-1.0797 2.284-0.88691 0.3438 0.21248-0.24535 0.90438-0.77008 0.90438-0.63552 0-2.1754 1.297-2.1754 1.8323 0 0.44124 0.20355 0.47088 2.3812 0.34671 2.2676-0.12929 2.3812-0.10992 2.3812 0.40608 0 0.49323-0.16751 0.54342-1.8668 0.55933-2.0196 0.0189-2.3666 0.12266-2.3666 0.70763 0 0.30231 0.46972 0.38126 2.2684 0.38126 2.0177 0 2.2586 0.0512 2.1798 0.46302-0.0749 0.39163-0.44498 0.4748-2.4006 0.53946-2.0409 0.0675-2.3121 0.13355-2.3121 0.56322 0 0.52892 0.81197 0.94484 2.5135 1.2875 0.65223 0.13136 1.0583 0.36089 1.0583 0.59818 0 0.48689-1.6547 0.42754-3.175-0.11387-1.9812-0.70555-2.3482-0.7111-3.1797-0.0481-0.76503 0.61001-0.77472 0.6477-0.42276 1.644 0.19813 0.56084 0.53374 1.2182 0.74582 1.4609s0.34627 0.71891 0.29819 1.0583c-0.0771 0.54445-0.18872 0.46132-0.94759-0.70578zm-61.535-1.8939c-0.22174-0.22174 0.31732-0.88424 0.71947-0.88424 0.48232 0 2.2768-1.5857 2.2768-2.012 0-0.5611-0.64673-0.72159-1.6427-0.40765-0.47894 0.15097-1.4364 0.35393-2.1276 0.45104-1.1586 0.16276-1.2568 0.13286-1.2568-0.38265 0-0.46619 0.16504-0.56259 0.99219-0.57954 1.4407-0.0295 3.1089-0.59104 3.1089-1.0465 0-0.39679-1.431-0.43969-3.5092-0.10521-0.63535 0.10226-0.90601 0.0278-1.0249-0.28196-0.08884-0.23151-0.11411-0.46834-0.05616-0.52629 0.11486-0.11486 1.8552-0.36706 3.5319-0.51181 1.1055-0.0954 1.5044-0.62227 0.87-1.1488-0.18883-0.15671-1.0473-0.38389-1.9077-0.50484-0.86043-0.12094-1.6125-0.36433-1.6712-0.54087-0.19376-0.58245 1.1852-0.66052 3.5118-0.19883l2.2926 0.45494 0.68142-0.68143 0.68142-0.68142-0.48413-1.0736c-0.26627-0.59048-0.64433-1.2066-0.84013-1.3691-0.1958-0.16251-0.35172-0.60831-0.34649-0.99067l0.0095-0.69521 0.58579 0.75709c0.32219 0.4164 1.1075 1.3094 1.7451 1.9844 1.8718 1.9816 1.9831 2.2452 2.0554 4.8677 0.06324 2.294 0.03872 2.4074-0.6748 3.1209-0.43249 0.43249-1.1696 0.81395-1.7724 0.91721-1.811 0.31023-2.9828 0.66053-3.3352 0.99703-0.49694 0.47451-1.7411 1.2464-2.009 1.2464-0.12639 0-0.30814-0.0783-0.40389-0.17409zm61.205-13.757c-0.50933-0.22894-1.2832-0.46254-1.7198-0.5191-1.5618-0.20236-3.8365-1.4396-3.8365-2.0866v-0.49053c0-0.19703-0.29766-0.67942-0.66146-1.072-1.1296-1.2189-0.91501-2.1485 0.88937-3.8523 0.85296-0.80542 2.0558-2.2201 2.6731-3.1437 0.77229-1.1556 1.2075-1.594 1.3957-1.4059 0.18813 0.18813 0.0146 0.66408-0.55644 1.5262-1.4353 2.1669-0.94532 3.4649 0.7154 1.895 1.2043-1.1384 2.9193-2.1804 3.165-1.923 0.10148 0.10629-0.1639 0.4473-0.58973 0.75778-1.9938 1.4538-3.1807 3.0781-2.2491 3.0781 0.13191 0 1.0855-0.54204 2.119-1.2045 1.8377-1.1779 3.0942-1.5141 1.8539-0.49599-0.34165 0.28045-0.9332 0.78978-1.3146 1.1318s-1.0282 0.79544-1.4374 1.0075c-0.4618 0.23929-0.70974 0.55538-0.6536 0.83327 0.11739 0.58099 1.5214 0.46554 2.9016-0.23861 1.1812-0.60258 1.5388-0.63201 1.5388-0.12664 0 0.40708-2.5685 1.7384-3.357 1.74-0.8303 2e-3 -2.1187 0.97487-2.4146 1.8238-0.26412 0.75767-0.22204 0.86401 0.58573 1.4801 0.47865 0.36509 1.049 0.6638 1.2673 0.6638 0.21838 0 0.61254 0.23813 0.87593 0.52917 0.59719 0.65989 0.14943 0.69456-1.1906 0.0922zm-52.937-2.2046c-1.1097-0.64912-2.9966-1.091-3.962-0.92794-1.2438 0.21014-2.1027-0.0281-2.1027-0.58317 0-0.33572 0.20437-0.38018 1.0938-0.23795 1.5244 0.24375 2.9307-0.24575 2.8238-0.98287-0.05412-0.37321-0.34599-0.62274-0.87496-0.74802-2.2812-0.54031-3.6367-1.3278-3.1401-1.8244 0.18764-0.18764 0.72134-0.0643 1.7066 0.39429 2.7517 1.2809 3.7173 0.51052 1.122-0.89515-0.82621-0.44749-1.6596-0.81362-1.8521-0.81362-0.19244 0-0.34989-0.23812-0.34989-0.52917 0-0.71171 0.19141-0.6799 2.4988 0.41534 1.8143 0.86118 2.5282 0.97412 2.5282 0.39996 0-0.22605-1.2897-1.5109-2.3812-2.3724-0.49562-0.39115-0.58616-0.59871-0.36113-0.8279 0.42612-0.434 1.4986 0.18383 3.1882 1.8367 1.0203 0.99814 1.5713 1.342 2.1504 1.342 1.1075 0 1.4027-0.51482 1.4571-2.5411 0.0309-1.1536 0.1643-1.8198 0.37849-1.891 0.23289-0.0774 0.33073 0.25371 0.33073 1.1192 0 0.676 0.19362 1.8211 0.43027 2.5446 0.57007 1.7429 0.37358 3.4082-0.52867 4.4805-0.38244 0.4545-0.69535 1.0467-0.69535 1.316 0 1.128-2.2951 2.0076-3.4603 1.3261zm8.0633-12.286c-0.89351-0.93395-2.2352-2.0075-2.9815-2.3857s-1.3569-0.8642-1.3569-1.08c0-0.55561 0.36219-0.48979 1.4804 0.26904 1.7851 1.2114 3.7024 0.53599 2.1385-0.75336-0.93307-0.76925-2.2959-2.5424-2.2959-2.9872 0-0.65293 0.74704-0.37606 1.3475 0.4994 0.89599 1.3064 1.8867 2.3151 2.2739 2.3151 0.60836 0 0.37948-0.65373-0.8404-2.4004-1.227-1.7568-1.4442-2.3621-0.84754-2.3621 0.31837 0 1.4725 1.4284 2.6379 3.2648 0.37082 0.58433 0.55605 0.68548 0.83351 0.45521 0.41437-0.34389 0.23002-1.4616-0.49202-2.9832-0.44349-0.93459-0.39466-1.5306 0.12542-1.5306 0.29912 0 1.5764 2.4668 1.5764 3.0444 0 0.22892 0.22857 0.86426 0.50794 1.4119 0.59501 1.1663 1.6178 1.7627 2.1962 1.2807 0.52729-0.43943 1.2646-1.6775 1.2646-2.1234 0-0.20558 0.17459-0.51869 0.38797-0.69578 0.72834-0.60447 0.90699-0.15391 0.41671 1.051-0.26647 0.65484-0.62491 1.8766-0.79654 2.715-0.35167 1.718-1.2396 2.9591-2.3091 3.2275-0.39324 0.0987-0.98322 0.46888-1.3111 0.82263-0.3978 0.42923-0.88468 0.64318-1.4637 0.64318-0.72152 0-1.1411-0.28588-2.4921-1.6981zm31.227 1.3383c-0.41995-0.13998-0.97209-0.51964-1.227-0.84368-0.25489-0.32403-0.73915-0.65836-1.0761-0.74294-1.256-0.31522-1.8046-2.8936-0.8807-4.139 0.70001-0.94363 0.95783-1.651 0.98718-2.7084 0.0448-1.6143 0.31154-2.6539 0.71543-2.7883 0.27382-0.0911 0.33132 0.30577 0.26458 1.826-0.0727 1.6555-0.0192 1.9552 0.36244 2.0292 0.28912 0.0561 0.60431-0.22354 0.88976-0.78944 0.86612-1.7171 1.8426-3.1244 2.1683-3.1248 0.50704-7.2e-4 0.40247 0.39719-0.46303 1.7619-0.7811 1.2317-1.0334 2.5561-0.54459 2.8583 0.13704 0.0847 0.74203-0.67565 1.3444-1.6896 1.1843-1.9934 1.846-2.7411 1.846-2.0858 0 0.42149-1.4463 3.3527-1.8568 3.7632-0.45845 0.45845-0.29666 1.2124 0.26017 1.2124 0.4909 0 1.419-0.78385 2.4539-2.0725 0.90383-1.1254 1.3823-0.45316 0.53868 0.75688-0.49311 0.70728-1.9499 2.1094-2.1917 2.1094-0.3365 0-1.0564 1.5933-1.0564 2.3381 0 0.90278 0.47396 1.1672 2.249 1.2544 1.6451 0.0809 1.7198 0.0962 1.7198 0.3527 0 0.13259-0.68461 0.30197-1.5214 0.37639-0.83674 0.0744-2.1282 0.23991-2.8699 0.36774-0.82309 0.14187-1.646 0.13326-2.1121-0.0221zm-16.7-4.2746c-1.0534-0.44292-1.6093-1.5011-1.8274-3.4788-0.10518-0.95352-0.46129-2.0625-0.93103-2.8993-0.73131-1.3028-0.9921-2.4813-0.54904-2.4813 0.37264 0 0.84666 0.61981 0.84666 1.1071 0 0.75892 1.4234 2.1875 1.9705 1.9776 0.31818-0.1221 0.40563-0.32463 0.27612-0.63948-0.41125-0.99977-0.56313-3.7983-0.23063-4.2496 0.40237-0.54619 0.44095-0.44329 0.86957 2.3197 0.33561 2.1634 0.37943 2.2697 0.82247 1.9959 0.20097-0.12421 0.27694-0.95998 0.22469-2.4719-0.066-1.908-0.0104-2.2975 0.33714-2.3644 0.44123-0.085 0.75011 1.4889 0.75494 3.8465 2e-3 0.93352 0.089 1.1245 0.5127 1.1245 0.49297 0 0.71358-0.64381 1.1332-3.3073 0.11738-0.74491 0.85134-0.66047 0.96024 0.11048 0.0497 0.35181-0.11115 1.6771-0.35744 2.9451-0.42218 2.1735-0.42182 2.3451 6e-3 2.9984 0.53098 0.81038 1.0213 0.84454 2.113 0.14722 1.5135-0.96676 1.9852-1.1468 2.2668-0.86519 0.18107 0.18107-0.0773 0.49664-0.79582 0.97216-0.58516 0.38724-1.552 1.2336-2.1486 1.8808-1.3072 1.4181-2.5801 1.9273-3.6796 1.4718-0.51542-0.21349-0.90954-0.22925-1.2449-0.0498-0.34196 0.18301-0.74512 0.15568-1.3298-0.0902z" clip-path="url(#clipPath4612)"/>
  </g>
  <circle cx="123.58" cy="137.15" r="31.3" fill="#006eb6" fill-rule="evenodd" style="paint-order:stroke fill markers"/>
  <path d="m104.48 130.74 19.576-13.818 19.576 13.818-8.0606 23.03h-23.606z" fill="#fff" stroke-width=".11515"/>
  <g transform="matrix(.11937 0 0 .11937 4.6891 64.81)" fill="#fff" stroke="#6a5000" stroke-width="5.81">
   <path d="m907.09 734.31c-76.1 104-144 16.4-164.15-44.435-19.8-60.8-16.2-172 106.68-132.43"/>
   <path d="m1092.9 734.22c75.6 105-29.1 142-92.986 142.38-63.9 0-168-37.8-92.986-142.38"/>
   <path d="m1150.3 557.44c123-39.5 126 71.6 106.68 132.43-19.8 60.8-88 149-164.15 44.435"/>
   <path d="m999.88 448.27c0.366-129 107-98.1 158.92-60.536 51.7 37.6 114 130-8.465 169.85"/>
   <path d="m849.58 557.58c-123-40.2-60.2-132-8.464-169.85 51.7-37.6 159-68.5 158.92 60.536"/>
  </g>
  <g fill="none" stroke="#6a5000">
   <path d="m124.06 118.3v12.667" stroke-width=".66903"/>
   <path d="m108.19 150.12c-2.4873 7.4964-6.7249 4.6521-7.55 2.1013-0.82518-2.5508-0.22109-4.3642-1.0895-7.0344-0.86824-2.6715-2.4297-3.7885-3.2534-6.3313-0.82369-2.5428 0.92352-7.3352 7.3432-2.7377" stroke-width=".66903"/>
   <path d="m131.41 156.3c6.358 4.6848 2.3424 7.8304-0.33463 7.8304s-4.2164-1.1378-7.0273-1.1378c-2.8109 0-4.3502 1.1378-7.0272 1.1378-2.677 0-6.6926-3.1455-0.33463-7.8304" stroke-width=".66926"/>
   <path d="m144.47 136.12c6.4198-4.5985 8.1702 0.19217 7.343 2.7379s-2.3849 3.658-3.2535 6.3311c-0.8686 2.6731-0.26232 4.4885-1.0896 7.0342-0.82724 2.5458-5.0594 5.3924-7.5498-2.1015" stroke-width=".6692"/>
   <path d="m129.32 117.47c-2.39-7.5272 2.7075-7.7117 4.8733-6.1382 2.1658 1.5735 2.7424 3.3988 5.0164 5.051 2.2741 1.6522 4.1881 1.6365 6.3539 3.2101 2.1658 1.5735 3.5656 6.4786-4.3318 6.5316" stroke-width=".66926"/>
   <path d="m106.89 126.14c-7.8974-0.0529-6.4976-4.958-4.3318-6.5316s4.0798-1.5579 6.3539-3.2101c2.2741-1.6522 2.8506-3.4774 5.0164-5.051 2.1658-1.5735 7.2634-1.389 4.8733 6.1382" stroke-width=".66926"/>
   <path d="m105.08 131.08 12.047 3.9142m-4.7281 18.271 7.4453-10.248m15.685 10.017-7.4452-10.248m14.171-11.463-12.047 3.9142m-6.1468 16.689v-6.2182m13.576-3.648-5.9138-1.9215m0.73202-14.043-3.6549 5.0306m-13.133-5.0306 3.6549 5.0306m-8.8414 10.934 5.9138-1.9215" stroke-width=".66903"/>
  </g>
  <path d="m133.21 137.65a9.1518 9.152 0 1 1 0-2e-5" fill="#ffd100" stroke-width=".12004"/>
  <path d="m123.98 70.189c-36.689 0-66.549 29.86-66.549 66.549s29.86 66.549 66.549 66.549c36.689 0 66.549-29.86 66.549-66.549s-29.86-66.549-66.549-66.549zm0 10.992c2.4486 0 4.8586 0.15894 7.2223 0.46405v6.9345l1.9105 0.36327c5.0854 0.96618 9.95 2.7272 14.496 5.2483v-0.0026c4.8392 2.684 9.1641 6.1498 12.856 10.299 3.9012 4.3848 6.9459 9.3584 9.0547 14.797v3e-3h3e-3c2.1873 5.6347 3.2949 11.573 3.2949 17.678 0 5.5952-0.93307 11.053-2.7673 16.256l-0.64648 1.8355 5.7707 3.3512c-1.8959 4.4884-4.3659 8.6714-7.3153 12.462l-5.7371-3.3285-1.2754 1.4609c-4.1513 4.7649-9.2848 8.7781-14.875 11.606l-3e-3 3e-3c-3.347 1.6964-6.8913 3.0015-10.53 3.8752-3.7478 0.90103-7.6222 1.3648-11.514 1.3648-3.8867 0-7.7604-0.45892-11.498-1.3591h-3e-3c-3.6376-0.87357-7.1754-2.1777-10.525-3.869-5.5844-2.8216-10.718-6.8222-14.861-11.578l-1.2738-1.463-5.6632 3.2887c-2.9497-3.7906-5.419-7.9735-7.3147-12.462l5.6927-3.3042-0.65267-1.8376c-1.847-5.2148-2.7848-10.693-2.7848-16.301 0-6.1125 1.107-12.057 3.3006-17.698h3e-3v-3e-3c2.1154-5.4518 5.165-10.426 9.08-14.818 3.7042-4.155 8.0354-7.6117 12.889-10.297 4.5516-2.5142 9.4298-4.2667 14.529-5.2266l1.9141-0.36174v-6.9169c2.3637-0.30512 4.7743-0.46405 7.2229-0.46405zm-11.922 1.2795v2.3652c-4.885 1.1089-9.6126 2.7789-14.016 5.211l-3e-3 0.0026c-5.3135 2.9392-10.069 6.7332-14.123 11.281-4.2817 4.8036-7.6352 10.272-9.9534 16.246-2.4039 6.1821-3.623 12.717-3.623 19.399 0 5.4614 0.94575 10.797 2.5549 15.945l-1.7689 1.0268c-1.753-5.413-2.7037-11.192-2.7037-17.199 0-26.654 18.643-48.84 43.635-54.277zm23.844 0c24.992 5.4374 43.635 27.624 43.635 54.277 0 6.0075-0.95046 11.787-2.7037 17.2l-1.8547-1.0769c1.597-5.133 2.5368-10.449 2.5368-15.896 0-6.675-1.2167-13.203-3.6132-19.377v-3e-3c-2.3111-5.9597-5.6577-11.426-9.9255-16.223-4.0402-4.5407-8.7872-8.3429-14.088-11.283-4.3966-2.4383-9.1124-4.1147-13.986-5.2302zm27.045 90.992 1.818 1.0552c-10.138 10.946-24.641 17.787-40.785 17.787-16.143 0-30.647-6.841-40.785-17.787l1.6578-0.96327c4.293 4.5778 9.3641 8.4585 14.928 11.27v3e-3c3.6694 1.8526 7.5475 3.2841 11.545 4.2442 4.1034 0.98827 8.3444 1.4883 12.6 1.4883 4.2645 0 8.5042-0.50866 12.611-1.496 3.9969-0.95983 7.8823-2.3908 11.555-4.2519 5.5644-2.8146 10.562-6.7715 14.855-11.348z" color="#000000" color-rendering="auto" dominant-baseline="auto" image-rendering="auto" shape-rendering="auto" solid-color="#000000" style="font-feature-settings:normal;font-variant-alternates:normal;font-variant-caps:normal;font-variant-ligatures:normal;font-variant-numeric:normal;font-variant-position:normal;isolation:auto;mix-blend-mode:normal;paint-order:markers stroke fill;shape-padding:0;text-decoration-color:#000000;text-decoration-line:none;text-decoration-style:solid;text-indent:0;text-orientation:mixed;text-transform:none;white-space:normal"/>
  <g stroke="#fff" aria-label="91">
   <path d="m111.51 151.26c7.4676 0 9.7197-3.2794 9.7197-8.0998v-12.96c0-4.8204-2.1336-7.9812-11.853-7.9812-9.0876 0-11.379 3.1609-11.379 7.9812v3.7931c0 4.7018 2.1336 7.112 9.2851 7.112 2.0941 0 3.7536-0.19756 5.0179-0.59267v0.86925c0 1.936-0.55316 2.3707-2.4892 2.3707h-7.3886c-0.98778 0-1.4224 0.43463-1.4224 1.4224v4.6623c0 0.98778 0.39511 1.4224 1.4224 1.4224zm0.79022-18.096c0 0.79022-0.3556 1.4224-2.6472 1.4224-2.3707 0-2.7263-0.63218-2.7263-1.4224v-2.3312c0-0.82973 0.3556-1.4619 2.7263-1.4619 2.2916 0 2.6472 0.63218 2.6472 1.4619z"/>
   <path d="m144.3 151.26c0.98777 0 1.4224-0.43462 1.4224-1.4224v-4.7808c0-0.98778-0.43463-1.4224-1.4224-1.4224h-3.7931v-19.4c0-0.98778-0.43462-1.4224-1.4224-1.4224h-11.458c-0.98778 0-1.4224 0.43462-1.4224 1.4224v4.7808c0 0.98778 0.43462 1.4224 1.4224 1.4224h3.635v13.197h-4.4252c-0.98778 0-1.4224 0.43462-1.4224 1.4224v4.7808c0 0.98778 0.43462 1.4224 1.4224 1.4224z"/>
  </g>
 </g>
</svg>
