<?xml version="1.0" encoding="UTF-8"?>
<!-- Created with Inkscape (http://www.inkscape.org/) -->
<svg width="133.1mm" height="133.1mm" version="1.1" viewBox="0 0 133.1 133.1" xmlns="http://www.w3.org/2000/svg">
 <g transform="translate(-66.002 -69.646)">
  <rect transform="matrix(-1 -.0020246 -.0020957 -1 0 0)" x="-139.6" y="-193.7" width="31.254" height="112.88" fill="#fff"/>
  <text transform="matrix(.26458 0 0 .26458 57.427 70.189)" font-family="'MS UI Gothic'" font-size="26.667px" letter-spacing="0px" style="line-height:1.25;shape-inside:url(#rect5793);white-space:pre" xml:space="preserve"/>
  <path d="m125.74 186.68c-5.3582-0.71921-10.92-2.4446-15.911-4.9363-5.2634-2.6275-9.6382-5.902-14.082-10.54l-2.8891-3.0155-2.8309 1.6453c-2.3346 1.3569-2.8967 1.5907-3.2066 1.3335-1.3272-1.1014-7.3933-11.699-7.0317-12.284 0.0771-0.12475 1.362-0.93597 2.8553-1.8027 1.4933-0.86675 2.7429-1.5984 2.7769-1.6258 0.03395-0.0274-0.28381-1.0627-0.70614-2.3006-3.6318-10.645-3.7068-22.011-0.21462-32.522 5.4916-16.53 19.287-29.226 36.05-33.177 1.873-0.4415 3.6578-0.84949 3.9662-0.90664 0.54428-0.10087 0.56273-0.20903 0.63066-3.6956l0.07-3.5917 1.7658-0.20816c2.0453-0.2411 12.244-0.09802 12.691 0.17804 0.20982 0.12968 0.30099 1.2498 0.30099 3.698 0 3.4356 0.0123 3.5148 0.56758 3.6413 0.31218 0.07111 1.6887 0.36635 3.0589 0.65609 9.0478 1.9132 17.97 6.8843 24.879 13.862 13.295 13.426 17.936 33.11 12.066 51.173-0.63006 1.9389-0.91845 3.1826-0.76043 3.2794 0.14001 0.0858 1.4534 0.83705 2.9186 1.6695 1.4652 0.83246 2.667 1.6414 2.6706 1.7978 0.0235 1.0147-5.9299 11.163-7.1357 12.164-0.30221 0.25081-0.89204 2e-3 -3.2224-1.3611l-2.8525-1.6681-2.7882 2.9007c-3.4093 3.5469-5.7577 5.5349-9.2208 7.8056-10.077 6.6072-22.491 9.4322-34.415 7.8316z" style="paint-order:stroke fill markers"/>
  <path d="m127.54 186.34c-3.3223-0.32075-7.4546-1.1919-10.783-2.2733-3.6182-1.1755-3.2948-0.26468-2.5748-7.2533 0.27632-2.6822 0.49999-5.1076 0.49703-5.39-4e-3 -0.37594-0.55855-0.83406-2.0724-1.7119-5.7134-3.3129-10.985-8.5402-14.371-14.25-0.53252-0.89805-0.98646-1.6605-1.0088-1.6944-0.02231-0.0339-2.2925 0.16418-5.0449 0.44009-2.7524 0.27589-5.3885 0.52968-5.858 0.56397l-0.8536 0.0623-0.72853-2.1352c-1.8345-5.3768-2.7026-10.61-2.7093-16.335-7e-3 -5.9649 0.72855-10.729 2.4567-15.911l0.93273-2.7969 2.0082 0.0593c1.1045 0.0327 3.508 0.20937 5.3411 0.39261l3.3329 0.33315 1.0778-2.0254c3.8268-7.1918 9.0709-12.505 16.896-17.119 0.44906-0.2648 0.44935-0.41284 0.0104-4.9892-0.25003-2.6038-0.35688-4.8123-0.23853-4.9307 0.40622-0.40623 5.5374-1.9573 8.3328-2.5188l2.8016-0.5628v-7.1587l1.6956-0.19507c2.1882-0.25173 9.2416-0.25173 11.43 0l1.6956 0.19507v7.1588l2.7004 0.56548c2.6442 0.5537 7.6225 2.0559 8.3357 2.5153 0.31161 0.2007 0.30146 0.8262-0.0754 4.6511-0.23949 2.4306-0.36524 4.5328-0.27945 4.6716 0.0858 0.13882 0.74146 0.54766 1.457 0.90854 3.4962 1.7632 8.2065 5.4951 11.047 8.7519 1.9229 2.2051 4.3388 5.7213 5.4817 7.9782 0.46485 0.91797 0.89035 1.4455 1.1674 1.4474 0.23979 2e-3 2.3947-0.1886 4.7888-0.42282 3.7689-0.36872 4.3841-0.37755 4.5864-0.0658 0.48542 0.74806 2.2445 6.6352 2.7186 9.0986 1.4512 7.5394 1.2404 14.821-0.64685 22.348l-0.67711 2.7004-0.8214 2.1762c-0.28118 0.67293-0.49185 0.83829-1.068 0.83829-0.73163 0-7.4569-0.64542-9.0964-0.87298-0.79728-0.11064-0.9395-0.0447-1.2131 0.56222-0.60179 1.335-3.5065 5.4854-5.2298 7.4726-2.8758 3.3162-7.5481 6.9875-11.306 8.8838-0.8635 0.43575-1.5631 0.93194-1.5547 1.1027 8e-3 0.17071 0.2688 2.7768 0.57866 5.7913l0.56337 5.4809-0.89265 0.37841c-1.4562 0.61727-6.5906 2.045-8.8453 2.4596-4.5273 0.83251-9.5227 1.0559-13.984 0.62518zm24.068-24.631c1.0087-0.7084 2.7203-2.1347 3.8034-3.1695 2.0228-1.9325 4.9244-5.4906 4.6783-5.7366-0.17595-0.17595-8.9652-1.0954-10.551-1.1037-1.179-6e-3 -1.1932 3e-3 -1.1932 0.80674 0 1.0489 0.73093 9.1848 0.89174 9.9259 0.0674 0.31087 0.21581 0.56521 0.32967 0.56521s1.0323-0.5796 2.0411-1.288zm-35.274-7.0645 0.18051-2.7004-1.1034 0.0151c-1.6125 0.022-9.4734 0.86067-9.6413 1.0286-0.22341 0.22342 2.0801 3.175 3.9234 5.0272 0.91673 0.92115 2.6126 2.3767 3.7687 3.2345l2.1019 1.5597 0.29482-2.7321c0.16217-1.5027 0.37608-3.9473 0.47538-5.4326zm-0.17567-38.183c-0.15247-3.4315-0.65847-8.7516-0.85062-8.9438-0.31355-0.31354-5.1515 3.7512-6.9713 5.857-1.5052 1.7419-3.9512 5.2665-3.9512 5.6936 0 0.12044 0.19781 0.22642 0.4396 0.23551 0.24178 9e-3 1.7396 0.1641 3.3284 0.34445 1.5889 0.18035 4.0758 0.34258 5.5265 0.36051l2.6376 0.0327zm40.026 2.7272 4.9492-0.4754-0.34889-0.67467c-0.77846-1.5054-3.4395-4.7727-5.4276-6.6642-1.9587-1.8635-5.6373-4.6202-5.8401-4.3766-0.10914 0.13108-1.1807 11.397-1.1748 12.352l4e-3 0.69081z" fill="#fff" style="paint-order:stroke fill markers"/>
  <g stroke="#fff" aria-label="45">
   <path d="m121.72 143.82v5.176c0 0.98778 0.43462 1.4224 1.4224 1.4224h6.0847c0.98777 0 1.4224-0.43462 1.4224-1.4224v-25.603c0-0.98778-0.43463-1.4224-1.4224-1.4224h-6.0847c-0.98778 0-1.4224 0.43462-1.4224 1.4224v12.169h-3.6745c-0.75071 0-1.2248-0.51364-1.2248-1.3434v-10.826c0-0.98778-0.43462-1.4224-1.4224-1.4224h-6.1242c-0.98778 0-1.4224 0.43462-1.4224 1.4224v13.868c0 4.5043 2.0546 6.5588 7.191 6.5588z"/>
   <path d="m149.54 150.42c4.7413 0 7.7047-2.5287 7.7047-6.5588v-5.492c0-4.1882-2.6472-6.2823-6.9144-6.2823h-5.413v-2.5682h9.4827c0.98778 0 1.4224-0.43462 1.4224-1.4224v-4.7018c0-0.98778-0.43462-1.4224-1.4224-1.4224h-17.029c-0.98778 0-1.4224 0.43462-1.4224 1.4224v14.777c0 0.98778 0.43462 1.4224 1.4224 1.4224h9.7988c0.63218 0 1.0668 0.27658 1.0668 0.90876v1.5409c0 0.63218-0.43462 0.90876-1.0668 0.90876h-10.194c-0.98778 0-1.4224 0.43462-1.4224 1.4224v4.6228c0 0.98778 0.43462 1.4224 1.4224 1.4224z"/>
  </g>
  <g transform="translate(8.2867 -1.3167)">
   <path d="m119.2 192.72c-0.33438-0.0483-1.5929-0.20817-2.7967-0.35526-2.8957-0.35383-8.9125-1.8931-11.795-3.0175-4.9525-1.932-9.9302-4.7251-14.163-7.9473-2.0732-1.5782-6.5081-5.7143-6.5081-6.0696 0-0.12081 0.2722-0.34367 0.6049-0.49526 0.56453-0.25722 0.74712-0.13867 2.7359 1.7764 7.9236 7.6298 17.549 12.374 28.882 14.234 3.6441 0.59816 12.505 0.60497 16.139 0.0124 11.197-1.8259 20.553-6.4545 28.741-14.219l2.3222-2.2019 0.65691 0.39859c0.3613 0.21922 0.65691 0.47239 0.65691 0.5626 0 0.33303-4.572 4.4567-6.819 6.1504-10.069 7.5896-21.469 11.391-33.867 11.293-2.3004-0.0182-4.4562-0.0726-4.7905-0.12094z" fill="#fff" fill-opacity=".99216" fill-rule="evenodd" stroke-width=".91914"/>
   <path d="m176.18 153.98-0.76614-0.46592 0.46506-1.5344c1.2956-4.2747 1.9313-9.0516 1.9299-14.502-5e-3 -18.103-8.7398-34.288-24.066-44.591-4.3947-2.9544-10.73-5.7503-15.633-6.8989l-1.8847-0.44155v-1.0499c0-0.57744 0.0821-1.0496 0.18239-1.0493 0.50087 0.0017 4.8453 1.2802 6.9754 2.0528 10.879 3.9457 20.699 11.75 27.253 21.658 3.8377 5.8017 6.9034 13.457 8.1408 20.329 1.4386 7.9891 1.1461 16.045-0.8687 23.924-0.81172 3.1744-0.7886 3.14-1.7276 2.569z" fill="#fff" fill-opacity=".99216" fill-rule="evenodd" stroke-width=".91914"/>
   <path d="m124.26 70.963c-36.689 0-66.549 29.86-66.549 66.549 0 36.689 29.86 66.549 66.549 66.549 36.689 0 66.549-29.86 66.549-66.549 0-36.689-29.86-66.549-66.549-66.549zm0 10.992c2.4486 0 4.8586 0.15894 7.2223 0.46405v6.9345l1.9105 0.36327c5.0854 0.96618 9.95 2.7272 14.496 5.2483v-0.0026c4.8392 2.684 9.1641 6.1499 12.856 10.299 3.9012 4.3848 6.9459 9.3584 9.0547 14.797v3e-3h3e-3c2.1873 5.6347 3.2949 11.573 3.2949 17.678 0 5.5952-0.93308 11.053-2.7673 16.256l-0.64648 1.8355 5.7707 3.3512c-1.8958 4.4884-4.3659 8.6714-7.3153 12.462l-5.7371-3.3285-1.2754 1.4609c-4.1513 4.7649-9.2848 8.7781-14.875 11.606l-3e-3 3e-3c-3.347 1.6964-6.8913 3.0015-10.53 3.8752-3.7478 0.90103-7.6222 1.3648-11.514 1.3648-3.8867 0-7.7604-0.45892-11.498-1.3591h-3e-3c-3.6376-0.87357-7.1754-2.1777-10.525-3.869-5.5844-2.8216-10.718-6.8222-14.861-11.578l-1.2738-1.463-5.6632 3.2887c-2.9497-3.7906-5.4189-7.9735-7.3147-12.462l5.6927-3.3042-0.65267-1.8376c-1.847-5.2148-2.7848-10.693-2.7848-16.301 0-6.1125 1.107-12.057 3.3006-17.698h0.0026v-3e-3c2.1154-5.4518 5.165-10.426 9.08-14.818 3.7042-4.155 8.0354-7.6117 12.889-10.297 4.5516-2.5142 9.4298-4.2667 14.529-5.2266l1.9141-0.36174v-6.9169c2.3637-0.30512 4.7743-0.46405 7.2229-0.46405zm-11.922 1.2795v2.3652c-4.885 1.1089-9.6126 2.7789-14.016 5.211l-0.0026 0.0026c-5.3135 2.9392-10.069 6.7332-14.123 11.281-4.2817 4.8036-7.6352 10.272-9.9534 16.246-2.4039 6.1821-3.623 12.717-3.623 19.399 0 5.4614 0.94575 10.797 2.5549 15.945l-1.7689 1.0268c-1.753-5.413-2.7037-11.192-2.7037-17.199 0-26.654 18.643-48.84 43.635-54.277zm23.844 0c24.992 5.4374 43.635 27.624 43.635 54.277 0 6.0075-0.95046 11.787-2.7037 17.2l-1.8547-1.0769c1.597-5.133 2.5368-10.449 2.5368-15.896 0-6.675-1.2167-13.203-3.6132-19.377v-3e-3c-2.3111-5.9597-5.6577-11.426-9.9255-16.223-4.0402-4.5407-8.7872-8.3429-14.088-11.283-4.3966-2.4383-9.1124-4.1147-13.986-5.2302zm27.045 90.992 1.818 1.0552c-10.138 10.946-24.641 17.787-40.785 17.787-16.143 0-30.647-6.841-40.785-17.787l1.6578-0.96327c4.293 4.5778 9.3641 8.4585 14.928 11.27v3e-3c3.6694 1.8526 7.5475 3.2841 11.545 4.2442 4.1034 0.98827 8.3444 1.4883 12.6 1.4883 4.2645 0 8.5042-0.50866 12.611-1.496 3.9969-0.95983 7.8823-2.3908 11.555-4.2519 5.5644-2.8146 10.562-6.7715 14.855-11.348z" color="#000000" color-rendering="auto" dominant-baseline="auto" image-rendering="auto" shape-rendering="auto" solid-color="#000000" style="font-feature-settings:normal;font-variant-alternates:normal;font-variant-caps:normal;font-variant-ligatures:normal;font-variant-numeric:normal;font-variant-position:normal;isolation:auto;mix-blend-mode:normal;paint-order:markers stroke fill;shape-padding:0;text-decoration-color:#000000;text-decoration-line:none;text-decoration-style:solid;text-indent:0;text-orientation:mixed;text-transform:none;white-space:normal"/>
   <path d="m71.27 153.8c-0.40497-1.0604-1.3831-5.2892-1.8454-7.9786-0.6103-3.5502-0.60703-12.866 0.0058-16.537 1.2638-7.5701 3.5211-13.862 7.1846-20.027 6.8996-11.611 17.549-20.158 30.301-24.318 2.0063-0.6546 4.0035-1.2562 4.4382-1.3368 0.79023-0.14658 0.79037-0.14644 0.79037 0.88204v1.0286l-2.6457 0.68677c-3.1378 0.81453-7.8515 2.6673-10.73 4.2175-14.817 7.9803-24.935 22.327-27.669 39.232-0.65021 4.0204-0.57409 12.821 0.14409 16.658 0.45519 2.4324 1.0844 5.1037 1.6347 6.9394 0.06872 0.22927-0.16973 0.53963-0.61812 0.8045l-0.73 0.43122z" fill="#fff" fill-opacity=".99216" fill-rule="evenodd" stroke-width=".91914"/>
  </g>
 </g>
</svg>
