<?xml version="1.0" encoding="UTF-8"?>
<!-- Created with Inkscape (http://www.inkscape.org/) -->
<svg width="133.1mm" height="133.1mm" version="1.1" viewBox="0 0 133.1 133.1" xmlns="http://www.w3.org/2000/svg" xmlns:cc="http://creativecommons.org/ns#" xmlns:dc="http://purl.org/dc/elements/1.1/" xmlns:rdf="http://www.w3.org/1999/02/22-rdf-syntax-ns#">
 <metadata>
  <rdf:RDF>
   <cc:Work rdf:about="">
    <dc:format>image/svg+xml</dc:format>
    <dc:type rdf:resource="http://purl.org/dc/dcmitype/StillImage"/>
   </cc:Work>
  </rdf:RDF>
 </metadata>
 <g transform="translate(-57.427 -70.189)">
  <g fill="#fff" fill-rule="evenodd">
   <g fill-opacity=".99216" stroke-width="5.3993">
    <path transform="matrix(.26458 0 0 .26458 57.427 70.189)" d="m225.71 459.26c-43.865-6.0884-84.333-25.036-116.19-54.403-9.1404-8.4252-10.776-10.552-8.9144-11.593 1.7382-0.97277 4.7683 0.97876 12.765 8.2212 30.82 27.914 66.482 45.225 105.89 51.405 19.138 3.0008 56.728 2.2602 73.592-1.45 36.423-8.013 68.678-24.753 94.504-49.047 8.9563-8.4247 11.722-10.278 14.175-9.4991 2.8981 0.91981 2.777 1.2496-2.4586 6.6969-9.413 9.7937-27.708 23.926-41.177 31.808-21.703 12.7-43.491 20.953-68.007 25.758-14.071 2.7581-50.792 3.9614-64.18 2.1032z"/>
    <path transform="matrix(.26458 0 0 .26458 57.427 70.189)" d="m447.25 312.99c-1.2871-1.5509-1.0195-4.5676 1.1724-13.214 6.5933-26.009 7.5603-61.935 2.3395-86.919-16.022-76.671-70.564-135.23-145.3-156.01-7.107-1.9759-8.3206-2.8001-8.3206-5.6506 0-4.3687 1.2883-4.2654 18.945 1.5185 52.673 17.254 97.837 56.125 122.72 105.62 7.6975 15.31 16.162 41.414 19.07 58.808 4.4933 26.884 2.6178 63.862-4.5465 89.643-2.3854 8.584-3.3174 9.5349-6.0814 6.2046z"/>
    <path transform="matrix(.26458 0 0 .26458 57.427 70.189)" d="m48.851 303.21c-5.142-20.694-6.4015-34.082-5.587-59.392 0.59261-18.416 1.5789-27.262 4.346-38.981 16.976-71.892 69.498-129.31 139.16-152.13 17.674-5.7896 18.945-5.89 18.945-1.4963 0 2.9419-1.1984 3.6779-9.6429 5.9221-62.528 16.618-115.36 66.241-136.7 128.39-12.343 35.955-14.252 79.561-5.0496 115.34 1.9428 7.5529 2.2594 10.943 1.1472 12.283-2.7666 3.3336-3.6557 1.9996-6.6211-9.9348z"/>
   </g>
   <path d="m117.1 189.11c-11.8-1.6384-22.399-7.0554-30.861-15.771-1.7559-1.8088-3.2908-3.2887-3.411-3.2887-0.1202 0-1.4863 0.73095-3.0359 1.6243-1.5495 0.89337-2.8739 1.6243-2.943 1.6243-0.49308 0-7.5185-11.899-7.5185-12.734 0-0.0926 1.3248-0.94731 2.9441-1.8994s2.9707-1.7495 3.0032-1.7721c0.0325-0.0226-0.453-1.6057-1.0789-3.5179-1.9191-5.8634-2.5667-10.932-2.3244-18.191 0.16565-4.9631 0.43311-7.1944 1.2237-10.209 3.2918-12.552 9.8138-22.312 20.012-29.95 5.5131-4.1287 14.016-7.8792 20.584-9.0793l2.741-0.50086v-7.4594l2.496-0.26089c3.1557-0.32984 7.6403-0.32887 10.397 0.0022l2.1319 0.25607v3.8012c0 3.4571 0.0695 3.8012 0.7677 3.8012 1.617 0 8.6822 2.0835 12.183 3.5926 13.97 6.0227 24.539 17.611 29.261 32.085 3.268 10.015 3.2802 21.729 0.0331 31.826-0.65932 2.0502-1.1603 3.7545-1.1133 3.7873 0.047 0.0327 1.4103 0.82545 3.0296 1.7616s2.9441 1.7899 2.9441 1.8973c0 0.6027-3.2453 6.5389-5.1478 9.4163l-2.2171 3.3531-6.295-3.4115-2.9964 3.1544c-7.1339 7.5101-16.399 12.827-26.349 15.12-4.9152 1.133-13.816 1.5872-18.461 0.94222z" style="paint-order:stroke fill markers"/>
   <path transform="matrix(.26458 0 0 .26458 57.427 70.189)" d="m50.054 307.59c-5.3927-18.159-7.1057-31.761-7.0728-56.164 0.03617-26.881 2.0183-40.256 9.4132-63.52 10.294-32.383 26.231-58.143 51.799-83.724 25.935-25.948 50.557-41.143 84.038-51.863 16.763-5.3669 18.197-5.46 18.197-1.1799 0 2.9353-1.4818 3.7017-13.912 7.1955-28.433 7.9917-57.39 24.621-80.1 45.998-53.428 50.295-75.885 125.41-58.321 195.08 3.0888 12.252 3.1242 12.963 0.70945 14.255-2.1923 1.1733-2.845 0.33773-4.7518-6.0829z" style="paint-order:stroke fill markers"/>
   <path transform="matrix(.26458 0 0 .26458 57.427 70.189)" d="m447.66 313.49c-2.0593-1.1525-1.9604-2.5959 1.0243-14.942 21.983-90.932-21.986-185.35-105.96-227.53-11.27-5.661-27.293-11.687-38.799-14.591-5.1478-1.2994-6.0714-2.0848-6.0714-5.1624 0-3.3505 0.35739-3.552 4.6429-2.6178 36.573 7.9722 79.524 34.289 106.28 65.122 44.961 51.807 61.742 120.07 46.044 187.29-1.6037 6.8681-3.3595 12.762-3.9017 13.097-0.54223 0.33511-2.0116 0.0353-3.2654-0.66642z" style="paint-order:stroke fill markers"/>
  </g>
  <path d="m123.98 70.189c-36.689 0-66.549 29.86-66.549 66.549s29.86 66.549 66.549 66.549c36.689 0 66.549-29.86 66.549-66.549s-29.86-66.549-66.549-66.549zm0 10.992c2.4486 0 4.8586 0.15894 7.2223 0.46405v6.9345l1.9105 0.36327c5.0854 0.96618 9.95 2.7272 14.496 5.2483v-0.0026c4.8392 2.684 9.1641 6.1498 12.856 10.299 3.9012 4.3848 6.9459 9.3584 9.0547 14.797v3e-3h3e-3c2.1873 5.6347 3.2949 11.573 3.2949 17.678 0 5.5952-0.93308 11.053-2.7673 16.256l-0.64648 1.8355 5.7707 3.3512c-1.8958 4.4884-4.3659 8.6714-7.3153 12.462l-5.7371-3.3285-1.2754 1.4609c-4.1513 4.7649-9.2848 8.7781-14.875 11.606l-3e-3 3e-3c-3.347 1.6964-6.8913 3.0015-10.53 3.8752-3.7478 0.90103-7.6222 1.3648-11.514 1.3648-3.8867 0-7.7604-0.45892-11.498-1.3591h-3e-3c-3.6376-0.87357-7.1754-2.1777-10.525-3.869-5.5844-2.8216-10.718-6.8222-14.861-11.578l-1.2738-1.463-5.6632 3.2887c-2.9497-3.7906-5.4189-7.9735-7.3147-12.462l5.6927-3.3042-0.65267-1.8376c-1.847-5.2148-2.7848-10.693-2.7848-16.301 0-6.1125 1.107-12.057 3.3006-17.698h0.0026v-3e-3c2.1154-5.4518 5.165-10.426 9.08-14.818 3.7042-4.155 8.0354-7.6117 12.889-10.297 4.5516-2.5142 9.4298-4.2667 14.529-5.2266l1.9141-0.36174v-6.9169c2.3637-0.30512 4.7743-0.46405 7.2229-0.46405zm-11.922 1.2795v2.3652c-4.885 1.1089-9.6126 2.7789-14.016 5.211l-0.0026 0.0026c-5.3135 2.9392-10.069 6.7332-14.123 11.281-4.2817 4.8036-7.6352 10.272-9.9534 16.246-2.4039 6.1821-3.623 12.717-3.623 19.399 0 5.4614 0.94575 10.797 2.5549 15.945l-1.7689 1.0268c-1.753-5.413-2.7037-11.192-2.7037-17.199 0-26.654 18.643-48.84 43.635-54.277zm23.844 0c24.992 5.4374 43.635 27.624 43.635 54.277 0 6.0075-0.95046 11.787-2.7037 17.2l-1.8547-1.0769c1.597-5.133 2.5368-10.449 2.5368-15.896 0-6.675-1.2167-13.203-3.6132-19.377v-3e-3c-2.3111-5.9597-5.6577-11.426-9.9255-16.223-4.0402-4.5407-8.7872-8.3429-14.088-11.283-4.3966-2.4383-9.1124-4.1147-13.986-5.2302zm27.045 90.992 1.818 1.0552c-10.138 10.946-24.641 17.787-40.785 17.787-16.143 0-30.647-6.841-40.785-17.787l1.6578-0.96327c4.293 4.5778 9.3641 8.4585 14.928 11.27v3e-3c3.6694 1.8526 7.5475 3.2841 11.545 4.2442 4.1034 0.98827 8.3444 1.4883 12.6 1.4883 4.2645 0 8.5042-0.50866 12.611-1.496 3.9969-0.95983 7.8823-2.3908 11.555-4.2519 5.5644-2.8146 10.562-6.7715 14.855-11.348z" color="#000000" color-rendering="auto" dominant-baseline="auto" image-rendering="auto" shape-rendering="auto" solid-color="#000000" style="font-feature-settings:normal;font-variant-alternates:normal;font-variant-caps:normal;font-variant-ligatures:normal;font-variant-numeric:normal;font-variant-position:normal;isolation:auto;mix-blend-mode:normal;paint-order:markers stroke fill;shape-padding:0;text-decoration-color:#000000;text-decoration-line:none;text-decoration-style:solid;text-indent:0;text-orientation:mixed;text-transform:none;white-space:normal"/>
  <g fill="#020f8a" fill-rule="evenodd">
   <path d="m95.622 172.98c-1.2473-0.0656-2.4379-0.2183-2.6458-0.33927-0.20788-0.12097-0.8-0.65157-1.3158-1.1791l-0.93783-0.95914h2.8214c1.98 0 3.0487-0.0813 3.5837-0.27268 0.41925-0.14998 1.3363-0.32684 2.0379-0.39302 0.70161-0.0662 1.2757-0.18799 1.2757-0.27066 0-0.3068-1.308-0.38656-6.3393-0.38656-2.837 0-5.2974-0.0535-5.4678-0.11883-0.24142-0.0926 0.03625-0.46038 1.2602-1.669 2.3427-2.3133 4.5359-5.5444 5.3721-7.9144 0.14461-0.40989 0.34505-1.4679 0.4454-2.351 0.10036-0.8832 0.22196-1.6453 0.27023-1.6936 0.04827-0.0483 0.92247 0.58667 1.9427 1.411 2.176 1.7582 2.862 2.2258 3.0258 2.062 0.16181-0.16181 0.18516-4.4016 0.0251-4.5622-0.0698-0.0701-1.3029-0.28846-2.7403-0.48534-2.5697-0.35198-3.638-0.63147-3.3841-0.88536 0.22641-0.22641 3.1723-0.7762 4.8997-0.91441 1.3369-0.10697 1.7057-0.0807 1.8397 0.13095 0.0922 0.14561 0.17073 1.753 0.17453 3.572l7e-3 3.3073 3.2333 3.4018c3.7711 3.9675 6.397 6.8734 6.397 7.079 0 0.0797-0.48069 0.20147-1.0682 0.27052-1.2335 0.14497-2.4169 0.90686-3.6505 2.3503l-0.75504 0.88346-4.0194 0.0228c-2.2107 0.0125-5.04-0.031-6.2873-0.0966zm10.536-2.7659c0.81558-0.32055 0.19394-0.4767-1.6986-0.42667-1.8215 0.0481-2.0364 0.0905-2.0983 0.41329-0.0649 0.33888 0.0332 0.35341 1.6986 0.25151 0.97216-0.0595 1.9164-0.16664 2.0983-0.23813zm3.1601-1.0271c0.72959-0.4614-0.9112-0.73007-4.5775-0.74954-2.4529-0.013-2.5986 7e-3 -2.5986 0.35383 0 0.30264 0.15868 0.38013 0.89769 0.4384 1.9261 0.15187 6.0147 0.12407 6.2784-0.0427zm-6.4965-2.9378c0.43618-0.6657 0.3092-3.7731-0.185-4.5273-0.59535-0.90861-0.78147-0.34605-0.74796 2.2607 0.0166 1.2886 0.0854 2.4323 0.1529 2.5416 0.19773 0.31995 0.44808 0.2317 0.78006-0.27496z" stop-color="#000000" style="paint-order:fill markers stroke"/>
   <path d="m139.01 171.47-1.2856-1.3037 2.325-0.0188c2.571-0.0208 3.2402-0.13686 3.3248-0.57645 0.0491-0.25514-0.41277-0.31339-3.4008-0.42883-1.9017-0.0735-4.3931-0.11726-5.5365-0.0973-1.1434 0.0199-2.0628-0.0249-2.0432-0.0997s0.88091-0.70936 1.914-1.4102c3.6147-2.4521 5.0783-3.9762 6.5369-6.8071 1.0139-1.9679 1.3783-3.0534 1.6782-4.9987l0.22958-1.4893 1.9095 1.4217c1.9869 1.4793 2.558 1.8426 2.8972 1.8426 0.26407 0 0.2723-3.3357 9e-3 -3.4986-0.10603-0.0655-1.2329-0.23961-2.5041-0.38685-2.9679-0.34376-3.2441-0.40819-3.6439-0.84994-0.32399-0.35801-0.31289-0.36727 0.44057-0.36727 0.42511 0 1.0124-0.0916 1.305-0.20348 0.51745-0.19791 4.0726-0.73036 4.926-0.73777 0.42347-4e-3 0.42525 9e-3 0.4305 3.0674l5e-3 3.071 3.6572 3.905c4.4687 4.7715 6.9156 7.5086 6.9156 7.7358 0 0.094-0.33464 0.17099-0.74365 0.17099-1.0949 0-1.6471 0.27755-2.2308 1.1213-0.28699 0.41484-0.62099 0.75748-0.7422 0.76143-0.12122 4e-3 -0.5852 0.34735-1.0311 0.76312l-0.81068 0.75596-13.246-0.0384zm13.066-1.6583c0.40453-0.25642-0.20397-0.40138-1.6849-0.40138-1.2042 0-1.5088 0.11367-1.1815 0.44097 0.18236 0.18237 2.5683 0.14942 2.8664-0.0396zm5.9085-1.0628c0.0608-0.63415-4.3895-1.0623-7.1627-0.68905-1.6438 0.22122-2.3912 0.49141-2.2028 0.7963 0.15522 0.25115 9.3412 0.14596 9.3655-0.10725zm-8.4713-3.0245c0.25067-0.70613 0.31231-1.3017 0.24444-2.3616-0.0971-1.5174-0.64675-3.6179-0.95761-3.6598-0.33188-0.0447-0.46126 1.5974-0.34488 4.3774 0.0982 2.3465 0.15322 2.6945 0.41799 2.6451 0.172-0.0321 0.45096-0.46836 0.64006-1.0011z" stop-color="#000000" style="paint-order:fill markers stroke"/>
   <path d="m121.31 185.64c-1.1954-0.0667-2.383-0.13238-2.6392-0.14605-0.39832-0.0213-0.29637-0.14136 0.70303-0.82807 1.1297-0.77626 1.4818-1.2757 0.89928-1.2757-0.15454 0-1.0861 0.39995-2.0701 0.88877l-1.7892 0.88876-1.4734-0.24616c-1.899-0.31726-2.1506-0.45574-1.3961-0.76827 0.32132-0.13309 0.58422-0.35924 0.58422-0.50254 0-0.35422-0.0893-0.3349-1.0472 0.22648-0.55651 0.32614-0.96414 0.44481-1.2338 0.35921-0.29308-0.093-0.34613-0.1845-0.19477-0.33585 0.5088-0.5088-0.11827-0.69806-0.99273-0.29963-0.37822 0.17232-0.75034 0.11513-2.0405-0.31364-0.86786-0.28842-1.7999-0.61714-2.0712-0.73048-0.3673-0.15346 1.4801-0.20608 7.2355-0.20608 8.4749 0 8.0875 0.0543 8.0875-1.1339 0-0.31183-0.0643-0.66804-0.14281-0.79157-0.20221-0.31803-19.458-0.44119-19.655-0.12571-0.0945 0.15174-0.44629 0.0553-1.1743-0.32181l-1.0394-0.53847 10.82-9e-3c9.7628-8e-3 10.82-0.0383 10.82-0.30961 0-0.16538 0.34017-0.78564 0.75595-1.3784 0.7414-1.057 0.94347-1.7735 0.56591-2.0068-0.11499-0.0711-3e-3 -0.43651 0.28348-0.92546 0.44477-0.75893 0.47352-0.96979 0.47352-3.4722 0-3.0414-0.12815-3.5796-0.8733-3.6675-0.60273-0.0711-0.85565-0.53321-0.29183-0.53321 1.0408 0 1.2481-0.69346 0.68469-2.2905-0.26611-0.75425-0.2638-0.90008 0.0266-1.6774 0.58869-1.576 0.87644-1.6827 1.4039-0.52061 0.44552 0.9815 0.46089 1.517 0.076 2.6467-0.35588 1.0444-0.15926 1.5793 0.68931 1.8751 0.66354 0.23131 0.55113 0.53362-0.19843 0.53362-0.53518 0-0.54083 0.0122-0.67642 1.4591-0.19243 2.0535 0.0125 5.2437 0.36954 5.7535 0.2012 0.28725 0.25291 0.65165 0.17409 1.2267-0.10458 0.763-0.0595 0.87514 0.6693 1.6658 0.42979 0.46627 0.78144 1.0197 0.78144 1.23 0 0.37381 0.11512 0.38277 5.2444 0.40783 2.8844 0.0141 7.6257 0.0779 10.536 0.14174l5.2917 0.11611-0.99928 0.5265c-0.54959 0.28957-1.0872 0.47213-1.1947 0.4057-0.2985-0.18449-15.923-0.50382-17.697-0.3617l-1.5592 0.12489v0.81803c0 1.3516-0.0403 1.3288 2.2222 1.2566 1.1165-0.0356 4.4538-3e-3 7.4162 0.0726 6.071 0.15487 5.967 0.0706 1.6385 1.3274-2.5928 0.75282-3.0071 0.80524-2.3854 0.30178 0.26434-0.21405 0.37287-0.43816 0.28278-0.58393-0.2452-0.39675-1.4134-0.0575-2.8753 0.83496-1.2395 0.75674-1.5132 0.84369-3.2128 1.0208-2.5774 0.26859-5.2516 0.33411-7.811 0.1914zm2.1722-3.62c0.16219-0.6857-0.16242-1.5592-0.57944-1.5592-0.28649 0-0.37717 0.15574-0.42422 0.72858-0.0774 0.94191 0.0533 1.2558 0.52278 1.2558 0.2386 0 0.41778-0.15844 0.48088-0.42522z" stop-color="#000000" style="paint-order:fill markers stroke"/>
  </g>
  <path d="m123.65 88.826c-0.0327 0.0301-0.0772 0.55712-0.10283 1.228-0.0307 0.80383 0.0179 1.3047 0.12905 1.309 0.16483 6e-3 0.14651-2.3337-0.0199-2.5363-2e-3 -2e-3 -4e-3 -3e-3 -6e-3 -6.7e-4zm-7.5838 0.84688c-0.0634 0.0359 0.0881 0.43561 0.50887 1.1673 0.3554 0.61805 0.71437 1.085 0.79745 1.038 0.0831-0.0471-0.15254-0.58463-0.52411-1.1935-0.4399-0.72086-0.7188-1.0476-0.78221-1.0117zm14.812 0.0952c-0.15567-6e-3 -1.6343 2.4296-1.645 2.7095-3e-3 0.0756 0.075 0.0917 0.17316 0.0362 0.27095-0.15348 1.6567-2.7386 1.4718-2.7456zm-7.2842 3.1205c-0.17367-7e-3 -0.29668 2.08-0.13302 2.2567 0.23218 0.25065 0.31559-0.0609 0.30219-1.1282-8e-3 -0.6171-0.0838-1.1252-0.16917-1.1285zm-5.1403 0.65448c-0.25499-0.01-0.0732 0.41084 0.67705 1.5724 0.36512 0.56527 0.73875 1.0308 0.82996 1.0343 0.0912 4e-3 0.0495-0.1704-0.0916-0.38612-0.14102-0.21571-0.47686-0.80155-0.74738-1.3027-0.2705-0.5011-0.5716-0.91418-0.66808-0.91786zm9.7622 0.47668c-0.0591 0.0152-0.15303 0.1456-0.28627 0.39474-0.17147 0.32063-0.47503 0.8066-0.67473 1.0794-0.19967 0.27281-0.36703 0.59501-0.37218 0.71717-0.0165 0.38143 0.28209 0.0802 0.87508-0.8827 0.31416-0.51013 0.5519-1.0559 0.52775-1.2124-0.0112-0.073-0.0342-0.1053-0.0697-0.0962zm9.2025 1.566c-0.23296-0.0277-2.1529 0.88979-2.5672 1.2433-0.44655 0.38109-0.0403 0.25073 1.2927-0.41597 0.71027-0.35524 1.2945-0.71926 1.2977-0.80873 0-0.0107-8e-3 -0.0167-0.0232-0.0186zm-30.148 0.75931c-0.40753-0.0156 0.3733 0.53443 1.631 1.1497 1.4187 0.69406 1.5852 0.75037 1.5933 0.53805 6e-3 -0.14464-2.9204-1.6762-3.2243-1.6878zm16.326 0.54601c-0.17862 0.0175-0.26082 1.6322-0.10715 2.4743 0.082 0.44946 0.12823 0.26116 0.2093-0.84755 0.0609-0.83205 0.0341-1.5012-0.0653-1.6085-0.0127-0.0137-0.0249-0.0194-0.0368-0.0182zm-2.7917 0.80375c-0.0491 0.0134 0.0104 0.19075 0.23718 0.57852 0.18185 0.31075 0.47427 0.81929 0.65048 1.1298s0.38857 0.56702 0.4727 0.57023c0.2346 9e-3 0.20527-0.0645-0.48628-1.1972-0.32789-0.53703-0.63802-0.92098-0.79115-1.0419-0.0383-0.0302-0.0666-0.0439-0.0829-0.0395zm5.2106 0.0458c-0.12849-4e-3 -1.1415 1.8024-1.1434 2.0387 0 0.0393 3e-3 0.0678 0.0104 0.0879l0.0915-5e-3c0.1-0.086 0.28255-0.3534 0.59545-0.86147 0.56352-0.91507 0.68224-1.2519 0.44616-1.2602zm6.8984 0.20434c-0.20076-0.03-1.858 0.77675-2.2255 1.0983-0.22609 0.19786-0.22718 0.22689-9e-3 0.23453 0.30423 0.0106 2.247-1.123 2.2544-1.3153 0-0.01-6e-3 -0.0156-0.0199-0.0176zm-20.691 1.0303c-9e-3 3.4e-4 -0.0148 2e-3 -0.0182 5e-3 -0.14382 0.13324-0.13569 0.13959 1.2801 0.89033 1.1858 0.62879 1.6696 0.7991 1.6775 0.59145 6e-3 -0.15229-2.6701-1.4977-2.9394-1.4871zm16.976 1.0874-0.42857 0.0925c-0.23567 0.0513-0.86783 0.3352-1.4055 0.63093-0.53767 0.29573-1.0628 0.53407-1.1673 0.53009-0.10448-4e-3 -0.19288 0.0699-0.19671 0.1632-4e-3 0.0933 0.0634 0.17221 0.14927 0.17548 0.19549 7e-3 2.0678-0.92231 2.6302-1.3063zm-12.025 1.4718c-0.0315-4e-3 -0.0553-4e-3 -0.0703 1e-3 -0.1099 0.037 0.36179 0.36027 1.0492 0.71817 1.2736 0.66307 1.6697 0.79323 1.6788 0.5543 7e-3 -0.17842-2.185-1.2122-2.6577-1.2738zm11.739 2.6305c-0.12306-2.4e-4 -0.2385 2e-3 -0.33801 7e-3 -0.39809 0.0206-0.0749 0.0626 0.71849 0.0929 0.79343 0.0303 1.1202 0.0131 0.72481-0.0378-0.2965-0.0382-0.7361-0.0617-1.1053-0.0624zm-12.015 0.0945c-0.14256 6.9e-4 -0.31704 5e-3 -0.5218 0.0143-0.70228 0.0306-1.3935 0.12331-1.5368 0.20566-0.33084 0.19004 1.9508 0.0783 2.4574-0.12041 0.17184-0.0674 0.029-0.10162-0.39871-0.0995zm15.911 0.0687c-0.53988 2e-3 -0.61269 0.0384-0.29226 0.11875 0.89808 0.22516 2.335 0.27995 2.46 0.0939 0.0716-0.1065-0.45355-0.17858-1.4695-0.20301-0.28655-7e-3 -0.51829-0.0102-0.69826-0.01zm6.1584 0.12705c-0.94991-9e-3 -1.925 0.0211-2.0225 0.0995-0.0402 0.0323 0.81805 0.0937 1.907 0.13534 1.2299 0.047 1.9835 9e-3 1.9873-0.0979 3e-3 -0.0793-0.92197-0.12783-1.8719-0.137zm-27.804 0.0717c-0.55588-4e-3 -1.1605 0.0179-1.5126 0.059l-0.85385 0.0992 1.1872 0.0537c0.65325 0.0293 1.5729 9e-3 2.0424-0.0461l0.85251-0.10052-1.1872-0.0527c-0.16331-7e-3 -0.34314-0.0113-0.52843-0.0126zm-4.1408 0.0116c-0.0331 2e-5 -0.0665 5e-3 -0.0985 0.0163-0.12793 0.0436-0.99295 0.0632-1.921 0.0438s-1.7937 0.0343-1.9243 0.11908c-0.15526 0.10075 0.26307 0.13962 1.2084 0.11179 0.79547-0.0234 1.8141-0.0292 2.263-0.0126 0.53544 0.0198 0.77984-0.0338 0.71088-0.15557-0.0434-0.0765-0.13921-0.1228-0.2385-0.12274zm21.031 3.1755c-0.0505 6e-3 -0.0827 0.0297-0.0843 0.0703-3e-3 0.0812 0.3908 0.28645 0.87508 0.45644 1.0436 0.36634 1.3543 0.42091 1.2373 0.21429-0.0475-0.0838-0.41798-0.24975-0.82366-0.36853-0.40568-0.1188-0.8606-0.26957-1.0104-0.33371-0.0749-0.0321-0.1436-0.0445-0.19406-0.0388zm-9.6192 0.25277c-0.21213-9e-3 -3.6721 1.4566-3.9491 1.6792-0.0402 0.0323 0.0596 0.0641 0.22193 0.0703 0.36985 0.0141 3.7302-1.5538 3.7375-1.7438 1.3e-4 -4e-3 -3e-3 -5e-3 -0.0104-6e-3zm13.299 1.1176c-0.0236-2e-3 -0.0384-1e-3 -0.0438 4e-3 -0.14332 0.13276-0.0179 0.20077 1.1358 0.61302 1.0089 0.36051 1.8358 0.53779 1.6685 0.35726-0.13901-0.15006-2.4071-0.94123-2.7606-0.97426zm-11.979 0.48398c-0.15622-6e-3 -1.0805 1.3051-1.0897 1.5458-0.0143 0.3722 0.39595 7e-3 0.79248-0.7069 0.2543-0.45768 0.38819-0.83545 0.29722-0.83891zm-6.6211 0.76726c-0.35028-0.0134-3.3198 1.4542-3.2373 1.5999 0.0437 0.0772 0.67916-0.14992 1.4131-0.50521 1.543-0.74689 2.105-1.0839 1.8241-1.0947zm23.491 0.39508c-0.5429-0.0328-0.14165 0.22024 1.037 0.65448 1.1051 0.40717 1.8642 0.56829 1.6662 0.35461-0.16032-0.17304-2.342-0.98727-2.7032-1.0091zm-10.3 0.29324v0.33636c0.0759 0.1117 0.17019 0.23811 0.30386 0.39209 0.2682 0.30899 0.48458 0.61962 0.48265 0.68965-2e-3 0.07 0.0732 0.13041 0.16651 0.13401 0.35808 0.0137 0.16015-0.46178-0.46738-1.1232-0.21196-0.22339-0.37459-0.36113-0.48564-0.42891zm-17.774 1.4596c-0.0705-0.0174-0.37397 0.0704-0.94143 0.29589-1.4903 0.59214-1.9562 0.83286-1.9631 1.0127-3e-3 0.0903 0.65442-0.13306 1.4629-0.49625 0.82391-0.37013 1.3275-0.64926 1.4357-0.76096 0.027-0.0279 0.0295-0.0456 6e-3 -0.0514zm9.3226 0.0849c-0.13849-0.0252-0.52632 0.40657-0.85616 0.97028l0.0521 0.32939c0.23484-0.11876 0.84551-0.94328 0.85584-1.1829 3e-3 -0.0733-0.0158-0.11024-0.0517-0.11677zm10.673 1.2552c-0.24123-0.0271-0.1344 0.24465 0.28729 0.73576 0.23281 0.27113 0.46382 0.45533 0.51382 0.40901 0.10561-0.0978-0.6123-1.1236-0.80111-1.1448z" fill="#ffbd2c" stroke="#ffbd2c" stroke-width=".748"/>
  <g fill="#020f8a" fill-rule="evenodd">
   <path d="m114.55 120.89-0.30649-0.69699c-0.42447-0.96529-0.90218-1.2882-0.33399-1.8024 0.31019-0.28072 0.56662-0.31476 1.5592-0.20697 1.377 0.14955 4.1998 0.14661 5.4614-6e-3l0.87169-0.10523 0.11916-1.2615c0.0655-0.69383 0.121-3.6428 0.12325-6.5532 3e-3 -4.3328 0.0583-5.4458 0.30299-6.1421 0.19106-0.54358 0.26215-1.1686 0.19705-1.7321-0.0767-0.66355-0.0344-0.9075 0.17082-0.98625 0.14997-0.0575 0.27267-0.0222 0.27267 0.0784 0 0.27389 0.94397 0.2211 0.95095-0.0532 3e-3 -0.13307 0.12719-0.076 0.28348 0.13061 0.16559 0.21893 0.27748 0.78447 0.27748 1.4025 0 0.68179 0.10275 1.1492 0.30072 1.368 0.25952 0.28677 0.31248 1.2543 0.38654 7.0616 0.0847 6.6426 0.0335 6.9996 0.0335 6.9996 1.8725-0.0469-0.3222 0.0117 1.6721-0.0135 3.905-0.0173 5.3255 0.21538 5.3255 0.21538l-1.3874 3.0093c-2.982 0.30358-12.097-0.014-15.817 0.0666zm13.317-1.9396c-46.957-32.51-23.479-16.255 0 0zm-5.5547-0.17439c-43.254-32.394-21.627-16.197 0 0zm2.1869-6.5201c0-1.4538-0.0669-1.9433-0.29699-2.1734-0.34759-0.34759-0.46013-0.35904-1.1081-0.11267-0.47799 0.18173-0.48478 0.21214-0.48478 2.1734v1.989h1.8899zm-0.64841-8.7281c0.16292-0.2636-0.32901-0.58896-0.55252-0.36545-0.18179 0.18179-7e-3 0.57556 0.25599 0.57556 0.0917 0 0.22511-0.0946 0.29653-0.21011zm0.27043-1.0183c0-0.15749-0.16799-0.28348-0.37798-0.28348-0.37651 0-0.49158 0.20137-0.25198 0.44097 0.23017 0.23018 0.62996 0.13023 0.62996-0.15749z" stop-color="#000000" style="paint-order:fill markers stroke"/>
   <path transform="matrix(.26458 0 0 .26458 57.427 70.189)" d="m244.52 129.74c0-0.0363 0.13877-0.2892 0.26833-0.48894 0.076-0.1172 0.17125-0.27905 0.21162-0.35968 0.49613-0.99093 0.8578-2.7988 0.95743-4.786 0.0248-0.49521 0.0113-1.662-0.0236-2.0358-0.053-0.56776-0.12892-0.98835-0.23881-1.3229-0.0867-0.26406-0.1867-0.45468-0.3169-0.60434-0.0559-0.0642-0.12798-0.16966-0.16022-0.2343-0.13757-0.27576-0.0686-0.56639 0.22792-0.96041 0.13009-0.17286 0.69138-0.72959 1.0077-0.99951 0.49242-0.42019 1.3201-1.0771 2.0361-1.616 0.3695-0.2781 0.5367-0.39039 0.71027-0.47703 0.20921-0.10443 0.27891-0.12258 0.46562-0.12121 0.14089 1e-3 0.18343 8e-3 0.28384 0.0453 0.29541 0.11033 0.61738 0.34407 1.177 0.85444 0.40089 0.36564 0.98947 0.92924 1.2781 1.2238 1.1236 1.1469 1.342 1.8398 1.3124 4.1647-5e-3 0.40367-0.021 1.0926-0.0352 1.531-0.0277 0.85123-0.0237 2.1083 8e-3 2.4701 0.066 0.75934 0.18329 1.2578 0.40154 1.706 0.21881 0.44943 0.42994 0.72122 1.0602 1.3648 0.29688 0.30316 0.59115 0.62906 0.59115 0.65468 0 4e-3 -2.525 7e-3 -5.6111 7e-3 -3.8114 0-5.6111-5e-3 -5.6111-0.0161zm5.9535-3.2179c0.0668-0.0173 0.1449-0.0436 0.17362-0.0584 0.0631-0.0326 0.20569-0.17809 0.31388-0.32033 0.0755-0.0992 0.0791-0.10834 0.0733-0.18659-0.0239-0.32599-0.53309-0.79442-1.0531-0.96884-0.14376-0.0482-0.39271-0.0595-0.50313-0.0228-0.17532 0.0582-0.31165 0.24083-0.34813 0.46627-0.0849 0.52467 0.23131 0.99569 0.74806 1.1143 0.13032 0.0299 0.43579 0.0178 0.59552-0.0236zm0.72707-3.3156c0.25207-0.0672 0.4822-0.19885 0.5222-0.29881 0.0773-0.19316 0.1035-0.57599 0.0514-0.75137-0.1392-0.46902-0.54359-0.74317-1.051-0.71253-0.3984 0.0241-0.65665 0.15697-0.77599 0.39939-0.15316 0.31111-0.0114 0.74284 0.3715 1.1314 0.10005 0.10154 0.23479 0.20976 0.31751 0.25503 0.0659 0.036 0.39251 0.0226 0.56437-0.0232zm-0.62649-4.4431c0.11785-0.0388 0.27131-0.10091 0.34103-0.13805l0.12677-0.0675-0.0737-0.0667c-0.18414-0.16671-0.77939-0.52888-1.0422-0.63414-0.22516-0.0902-0.32403-0.11349-0.52086-0.1229-0.20538-0.01-0.33483 0.0151-0.50464 0.0971-0.29028 0.14018-0.60825 0.47016-0.60805 0.631 3.1e-4 0.25134 0.51247 0.36106 1.7242 0.3694l0.34321 2e-3z" stop-color="#000000" style="paint-order:fill markers stroke"/>
   <path transform="matrix(.26458 0 0 .26458 57.427 70.189)" d="m249.67 158.39c-0.2128-0.21279-0.29185-0.54206-0.29138-1.2137 6.5e-4 -0.92639 0.24144-1.5468 0.60035-1.5468 0.22918 0 0.54978 0.26608 0.72063 0.59809 0.13385 0.2601 0.16158 0.40095 0.16158 0.82075 0 0.44305-0.0234 0.54902-0.18618 0.84286-0.31151 0.56235-0.73249 0.77127-1.005 0.49876z" stop-color="#000000" style="paint-order:fill markers stroke"/>
  </g>
  <path d="m83.789 142.84c-0.58362-0.2449-0.97158-0.91748-1.6004-2.7745-0.27158-0.802-0.89742-1.4497-2.1794-2.2554-0.95658-0.60122-1.5022-1.1205-1.3497-1.2846 0.0482-0.0518 0.48121-0.0804 0.96228-0.0638 0.54698 0.0191 0.87469-0.0272 0.87469-0.12351 0-0.23106-1.3097-1.0842-2.1502-1.4006-1.2253-0.46126-1.052-1.2412 0.33597-1.5116 1.447-0.2819 1.7865-0.41782 2.3756-0.95087 1.3921-1.2597 3.2393-1.6448 4.5453-0.94769 1.6737 0.89342 2.2137 1.2876 2.6206 1.9125 0.35195 0.54064 0.50627 0.65831 0.9119 0.69533 0.41519 0.0379 0.58018-0.0469 1.1024-0.56463 0.33775-0.33502 1.0155-1.3261 1.5061-2.2023 1.7014-3.0388 3.0504-4.0384 6.2899-4.6606 1.3767-0.26443 2.1135-0.48625 2.7465-0.82695 1.158-0.62323 2.2419-1.7095 2.6217-2.6274 0.394-0.95225 1.2675-1.9795 2.8423-3.3426 1.4109-1.2212 1.5747-1.4373 1.8029-2.3789 0.19373-0.79955 0.62087-0.87745 1.3054-1.3649 0.70402-0.50137 0.79316 0.0832 0.79316 0.0832 0.19944 2.87-0.29909 2.5584 0.13268 2.727 1.0641 0.41568 2.3069 1.5232 2.1627 1.9274-0.12315 0.34543-0.68848 0.30844-2.6245-0.17164l-1.656-0.41064-0.76295 0.53354c-1.2363 0.86455-1.8286 1.6878-2.8422 3.9507-0.5355 1.1956-1.1526 2.3393-1.4742 2.7326-0.72985 0.89225-1.9186 1.7317-3.127 2.2081-1.8954 0.74728-2.3092 1.0033-3.2805 2.0296-0.81141 0.85736-1.0662 1.2559-1.6642 2.6031-0.90193 2.032-1.8639 3.6455-2.6218 4.3972-0.88166 0.87455-1.1877 0.79155-0.84476-0.22905 0.11591-0.34485 0.12032-0.52435 0.01578-0.6369-0.17325-0.18644-0.28563-0.0659-0.84383 0.90398-0.47455 0.82465-1.5866 1.7966-2.2882 1.9999-0.47263 0.13698-2.7506 0.42152-3.4467 0.43055-0.23534 3e-3 -0.30305 0.11801-0.37548 0.63785-0.10397 0.74595-0.42374 1.121-0.81566 0.95646zm0.0755-7.2396c0.15237-0.16399 0.2582-0.37799 0.23518-0.47554-0.02305-0.0975-0.42337-0.55314-0.88965-1.0124-1.1121-1.0954-1.4212-1.0848-1.4732 0.0506-0.02716 0.59384 0.03186 0.91451 0.23321 1.2654 0.24619 0.42922 0.32808 0.47 0.9435 0.47 0.50143 0 0.74482-0.0763 0.95095-0.29809zm6.6324-0.59526c0.36324-0.42337 0.84703-0.83485 1.0751-0.91438 0.33225-0.11584 0.50107-0.3392 0.84934-1.1235 0.27584-0.62125 0.54589-1.0247 0.73912-1.1042 0.49696-0.20452 0.79099-0.66675 1.1801-1.8553l0.36775-1.1232 0.72218-0.0727c0.39721-0.04 0.87171-0.18638 1.0545-0.32541 0.18275-0.13893 0.55578-0.25275 0.82894-0.25275 0.6259 0 0.92181-0.12012 0.92181-0.37424 0-0.3453-0.66292-0.39608-1.8048-0.13823-1.8731 0.42301-2.0936 0.57941-2.5647 1.8189-0.32598 0.85765-0.52555 1.1658-1.0086 1.557-0.38422 0.31122-0.70921 0.74134-0.89783 1.1882-0.18156 0.43016-0.48456 0.8386-0.78534 1.0585-0.26935 0.19696-0.6356 0.58914-0.81388 0.87149-0.23059 0.36515-0.46003 0.54078-0.79487 0.60837-0.2589 0.0524-0.62365 0.2245-0.81058 0.38272-0.49115 0.41575-0.21134 0.75119 0.5382 0.64517 0.44046-0.0623 0.66795-0.2223 1.2035-0.84655z" fill="#ffbd2c" fill-rule="evenodd" stop-color="#000000" stroke="#020f8a" stroke-linecap="round" stroke-width="1.4753" style="paint-order:stroke fill markers"/>
  <path d="m162.86 142.99c-0.40382-0.30627-0.25098-1.7284 0.26949-2.5073 0.4299-0.6435 0.41102-0.93038-0.0999-1.5192-0.43549-0.50182-0.63889-0.42298-0.73018 0.283-0.0446 0.34448-0.24058 0.94523-0.4356 1.335l-0.35464 0.70867-1.0399-0.0201c-1.6755-0.0321-3.0958-0.83528-3.9625-2.2407-0.31227-0.50638-0.4126-0.57024-0.76848-0.48917-0.49301 0.1124-0.59369-0.0297-2.308-3.2552-0.64039-1.205-1.4448-2.5185-1.7875-2.9189-0.6551-0.76548-1.7806-1.4454-4.2758-2.5828-1.5975-0.72824-2.8165-1.4978-3.609-2.2784-0.62924-0.61984-1.8376-2.9766-2.2068-4.3042-0.2926-1.0523-0.93348-1.9894-1.739-2.5429-0.60777-0.41759-0.64631-0.42307-3.3107-0.47008-2.869-0.0507-3.0429-0.10548-2.3648-0.74574 0.18203-0.17188 0.66189-0.49806 1.0664-0.72484 0.96644-0.5418 1.0565-0.68422 1.2598-1.991 0.19236-1.2369 0.34296-1.6047 0.56165-1.3719 0.078 0.0832 0.40172 0.63191 0.71913 1.2193 0.55371 1.0247 0.63016 1.0972 1.8866 1.7889 1.5795 0.86957 2.1279 1.4578 3.814 4.0912 1.9457 3.0388 3.1608 3.9404 6.2684 4.6506 3.2491 0.74265 4.7001 1.8483 6.2164 3.4365 1.109 1.1616 1.577 1.8311 1.4048 2.0097-0.18584 0.19272-1.1621-0.79811-1.756-1.6321-0.46649-0.65493-0.79821-0.94139-1.4208-1.227-0.44669-0.20492-1.1457-0.68358-1.5533-1.0637-0.74091-0.69094-1.2871-0.95696-1.5798-0.76933-0.26683 0.17107-0.17187 0.35097 0.2696 0.51062 0.23604 0.0854 0.62536 0.45568 0.87549 0.83272 0.31525 0.47527 0.6911 0.79725 1.2525 1.073 0.49033 0.24082 0.96244 0.61977 1.2146 0.97494 0.22689 0.31954 0.74982 0.99289 1.1621 1.4964 0.41223 0.50349 0.89235 1.1284 1.0668 1.3886 0.36124 0.53868 1.6049 1.0298 2.4019 0.94867 0.74787-0.0762 0.65515-0.34791-0.21589-0.63271-0.9042-0.29563-1.1656-0.54452-1.0967-1.044 0.0379-0.27364 0.17385-0.37066 0.63645-0.45389 0.32359-0.0583 0.88625-0.24717 1.2503-0.41988 0.36405-0.17271 0.86828-0.31552 1.1205-0.31736 0.25216-8.9e-4 1.0775-0.2149 1.8339-0.47349 1.5819-0.54072 1.7919-0.52513 3.2933 0.24436 0.57075 0.29253 1.4815 0.62815 2.0239 0.74587 0.7516 0.1631 1.1881 0.37325 1.8357 0.88383 0.46729 0.36842 0.86989 0.77892 0.89466 0.91224 0.0246 0.13338-0.11629 0.43679-0.31329 0.67437l-0.35822 0.432c-1.8727 1.5606-0.56737 0.3943-1.8727 1.5606-0.69893 0.60599-0.81134 0.87487-0.42924 1.027 0.44215 0.17599 0.64303 0.0899 1.3853-0.59395 0.77566-0.71453 1.1657-0.83915 1.4631-0.46749 0.37338 0.46668-0.56299 1.3978-2.2426 2.23-0.82586 0.40921-1.1038 0.65411-1.719 1.5148-0.985 1.3782-1.6628 1.8365-3.2511 2.1982-0.21326 0.0487-0.49711-8.9e-4 -0.64535-0.11401zm3.8576-7.5009c0.51181-0.611 0.46165-1.6392-0.10896-2.2309-0.58289-0.60463-1.2284-0.57-1.2991 0.0697-0.0259 0.23601-0.21115 0.67938-0.41131 0.98528-0.20846 0.31859-0.34526 0.72041-0.32033 0.94053 0.0947 0.83386 1.5081 0.98943 2.1397 0.23547z" fill="#ffbd2c" fill-rule="evenodd" stop-color="#000000" stroke="#020f8a" stroke-linecap="round" stroke-width="1.5854" style="paint-order:stroke fill markers"/>
  <g stroke="#fff" aria-label="333">
   <path d="m89.444 143.49c-0.98778 0-1.4224 0.43462-1.4224 1.4224v4.6228c0 0.98778 0.43462 1.4224 1.4224 1.4224h12.486c5.0574 0 7.6652-2.4892 7.6652-6.5588v-3.9511c0-3.477-1.2248-5.2945-4.9784-5.7291 1.7385-0.75071 2.3312-2.2521 2.3312-4.2672v-2.2916c0-3.477-2.0941-5.6501-6.4798-5.6501h-11.024c-0.98778 0-1.4224 0.43463-1.4224 1.4224v4.7018c0 0.98777 0.43462 1.4224 1.4224 1.4224h7.3491c1.2644 0 1.5014 0.55316 1.5014 1.1853v0.59266c0 0.63218-0.23707 1.1853-1.5014 1.1853h-4.1487c-0.98778 0-1.4224 0.43462-1.4224 1.4224v4.2277c0 0.98778 0.43462 1.4224 1.4224 1.4224h6.7169c1.2644 0 1.5014 0.51365 1.5014 1.1458v1.0668c0 0.63217-0.23707 1.1853-1.5014 1.1853z"/>
   <path d="m114.61 143.49c-0.98778 0-1.4224 0.43462-1.4224 1.4224v4.6228c0 0.98778 0.43462 1.4224 1.4224 1.4224h12.486c5.0574 0 7.6652-2.4892 7.6652-6.5588v-3.9511c0-3.477-1.2248-5.2945-4.9784-5.7291 1.7385-0.75071 2.3312-2.2521 2.3312-4.2672v-2.2916c0-3.477-2.0941-5.6501-6.4798-5.6501h-11.024c-0.98778 0-1.4224 0.43463-1.4224 1.4224v4.7018c0 0.98777 0.43462 1.4224 1.4224 1.4224h7.3491c1.2644 0 1.5014 0.55316 1.5014 1.1853v0.59266c0 0.63218-0.23706 1.1853-1.5014 1.1853h-4.1487c-0.98778 0-1.4224 0.43462-1.4224 1.4224v4.2277c0 0.98778 0.43462 1.4224 1.4224 1.4224h6.7169c1.2644 0 1.5014 0.51365 1.5014 1.1458v1.0668c0 0.63217-0.23706 1.1853-1.5014 1.1853z"/>
   <path d="m139.78 143.49c-0.98777 0-1.4224 0.43462-1.4224 1.4224v4.6228c0 0.98778 0.43463 1.4224 1.4224 1.4224h12.486c5.0574 0 7.6652-2.4892 7.6652-6.5588v-3.9511c0-3.477-1.2248-5.2945-4.9784-5.7291 1.7385-0.75071 2.3312-2.2521 2.3312-4.2672v-2.2916c0-3.477-2.0941-5.6501-6.4798-5.6501h-11.024c-0.98777 0-1.4224 0.43463-1.4224 1.4224v4.7018c0 0.98777 0.43463 1.4224 1.4224 1.4224h7.3491c1.2644 0 1.5014 0.55316 1.5014 1.1853v0.59266c0 0.63218-0.23707 1.1853-1.5014 1.1853h-4.1487c-0.98778 0-1.4224 0.43462-1.4224 1.4224v4.2277c0 0.98778 0.43462 1.4224 1.4224 1.4224h6.7169c1.2644 0 1.5014 0.51365 1.5014 1.1458v1.0668c0 0.63217-0.23707 1.1853-1.5014 1.1853z"/>
  </g>
  <path d="m82.437 135.15c-0.15804-0.24169-0.25306-0.53762-0.27116-0.84448l-0.01892-0.32068 0.43512 0.42758c0.23931 0.23517 0.5125 0.51898 0.60707 0.63068l0.17196 0.2031h-0.43058c-0.39938 0-0.43514-7e-3 -0.49348-0.0962z" fill="#020f8a" fill-rule="evenodd" stop-color="#000000" style="paint-order:stroke fill markers"/>
  <path d="m165.13 135.55c0-0.0543 0.1729-0.40692 0.38422-0.78375 0.21132-0.37682 0.44943-0.85208 0.5291-1.0561l0.14488-0.37099 0.18466 0.35182c0.14926 0.28439 0.17823 0.45014 0.15106 0.86475-0.029 0.44412-0.0682 0.54655-0.29135 0.76347-0.20198 0.19634-0.34918 0.25909-0.68017 0.29-0.29983 0.0279-0.4224 0.0106-0.4224-0.0592z" fill="#020f8a" fill-rule="evenodd" stop-color="#000000" style="paint-order:stroke fill markers"/>
 </g>
</svg>
