<?xml version="1.0" encoding="UTF-8" standalone="no"?>
<!-- Created with Inkscape (http://www.inkscape.org/) -->

<svg
   width="133.1mm"
   height="133.1mm"
   version="1.1"
   viewBox="0 0 133.1 133.1"
   id="svg76"
   sodipodi:docname="Site-169.svg"
   inkscape:version="1.1 (c68e22c387, 2021-05-23)"
   xmlns:inkscape="http://www.inkscape.org/namespaces/inkscape"
   xmlns:sodipodi="http://sodipodi.sourceforge.net/DTD/sodipodi-0.dtd"
   xmlns="http://www.w3.org/2000/svg"
   xmlns:svg="http://www.w3.org/2000/svg"
   xmlns:rdf="http://www.w3.org/1999/02/22-rdf-syntax-ns#"
   xmlns:cc="http://creativecommons.org/ns#"
   xmlns:dc="http://purl.org/dc/elements/1.1/">
  <sodipodi:namedview
     id="namedview78"
     pagecolor="#ffffff"
     bordercolor="#666666"
     borderopacity="1.0"
     inkscape:pageshadow="2"
     inkscape:pageopacity="0.0"
     inkscape:pagecheckerboard="0"
     inkscape:document-units="mm"
     showgrid="false"
     inkscape:zoom="2.1646622"
     inkscape:cx="237.91241"
     inkscape:cy="254.08122"
     inkscape:window-width="1920"
     inkscape:window-height="974"
     inkscape:window-x="-11"
     inkscape:window-y="-11"
     inkscape:window-maximized="1"
     inkscape:current-layer="g72" />
  <defs
     id="defs8">
    <style
       id="style2">.a{fill:#fff;}.b{fill:#b71234;}.c{fill:#584528;}.d{fill:#008542;}.e{fill:#bd8a5e;}</style>
    <style
       id="style4">.a{fill:#fff;}.b{fill:#b71234;}.c{fill:#584528;}.d{fill:#008542;}.e{fill:#bd8a5e;}</style>
    <style
       id="style6">.a{fill:#fff;}.b{fill:#b71234;}.c{fill:#584528;}.d{fill:#008542;}.e{fill:#bd8a5e;}</style>
  </defs>
  <metadata
     id="metadata10">
    <rdf:RDF>
      <cc:Work
         rdf:about="">
        <dc:format>image/svg+xml</dc:format>
        <dc:type
           rdf:resource="http://purl.org/dc/dcmitype/StillImage" />
      </cc:Work>
    </rdf:RDF>
  </metadata>
  <g
     fill="#fed700"
     fill-rule="evenodd"
     stroke="#fed700"
     stroke-linecap="round"
     stroke-width="2.6997"
     id="g20"
     transform="translate(-57.427,-70.189)">
    <path
       transform="matrix(0.26458,0,0,0.26458,57.427,70.189)"
       d="m 158.57,116.24 c -7.0807,-4.0092 -14.1,-10.382 -14.234,-12.923 -0.0982,-1.854 21.595,-14.447 34.39,-19.963 12.154,-5.2401 37.149,-12.639 42.696,-12.639 3.924,0 4.4598,7.8572 1.2833,18.82 l -2.7625,9.5344 -13.9,4.5972 c -7.6452,2.5284 -19.513,7.3986 -26.372,10.823 -6.8593,3.424 -12.645,6.2195 -12.857,6.2121 -0.21213,-0.007 -3.9214,-2.0154 -8.2428,-4.4623 z"
       stop-color="#000000"
       style="paint-order:stroke fill markers"
       id="path12" />
    <path
       transform="matrix(0.26458,0,0,0.26458,57.427,70.189)"
       d="m 324.89,114.86 c -5.4397,-3.0757 -17.114,-7.8959 -25.944,-10.712 l -16.053,-5.1194 -2.8005,-9.067 c -1.7923,-5.8029 -2.4954,-10.947 -1.9529,-14.29 l 0.84757,-5.223 6.5775,0.97616 c 17.357,2.5759 47.818,14.81 65.6,26.348 l 9.022,5.8538 -4.022,4.3544 c -3.7993,4.1133 -10.775,8.4373 -18.109,11.226 -2.5836,0.98228 -5.3637,0.0644 -13.166,-4.3469 z"
       stop-color="#000000"
       style="paint-order:stroke fill markers"
       id="path14" />
    <path
       transform="matrix(0.26458,0,0,0.26458,57.427,70.189)"
       d="m 412.86,221.89 c -7.5187,-2.1371 -9.2906,-4.4576 -14.251,-18.664 -2.5019,-7.1647 -7.3903,-18.684 -10.863,-25.599 -3.4728,-6.9148 -6.3142,-13.215 -6.3142,-14.002 0,-2.7702 9.8345,-16.762 13.444,-19.127 3.6252,-2.3753 3.6901,-2.3456 8.0801,3.6952 11.279,15.52 21.661,38.635 27.009,60.135 1.7262,6.939 2.9232,12.798 2.6598,13.021 -1.5973,1.3488 -15.576,1.7312 -19.764,0.54057 z"
       stop-color="#000000"
       style="paint-order:stroke fill markers"
       id="path16" />
    <path
       transform="matrix(0.26458,0,0,0.26458,57.427,70.189)"
       d="m 81.429,222.47 c -10.95,-0.8482 -11.638,-1.3133 -10.585,-7.1576 1.6328,-9.0645 10.097,-33.71 14.874,-43.31 6.106,-12.27 17.491,-29.821 19.359,-29.844 3.6342,-0.0445 16.352,17.041 16.352,21.968 0,1.2997 -2.4792,7.331 -5.5094,13.403 -3.0302,6.0718 -7.6358,16.825 -10.235,23.897 -2.5988,7.0714 -5.9204,14.2 -7.3812,15.842 -3.2081,3.6052 -10.093,5.7279 -16.875,5.2026 z"
       stop-color="#000000"
       style="paint-order:stroke fill markers"
       id="path18" />
  </g>
  <path
     d="m 59.702005,118.861 c -11.8,-1.6384 -22.399,-7.0554 -30.861,-15.771 -1.7559,-1.8088 -3.2908,-3.2887 -3.411,-3.2887 -0.1202,0 -1.4864,0.73095 -3.0359,1.6243 -1.5495,0.89337 -2.8739,1.6243 -2.943,1.6243 -0.49308,0 -7.5185,-11.899 -7.5185,-12.734 0,-0.0926 1.3248,-0.94731 2.9441,-1.8994 1.6193,-0.95209 2.9707,-1.7495 3.0032,-1.7721 0.0325,-0.0226 -0.453,-1.6057 -1.0789,-3.5179 -1.9191,-5.8634 -2.5667,-10.932 -2.3244,-18.191 0.16566,-4.9631 0.43311,-7.1944 1.2237,-10.209 3.2918,-12.552 9.8138,-22.312 20.012,-29.95 5.5131,-4.1287 14.016,-7.8792 20.584,-9.0793 l 2.741,-0.50086 v -7.4594 l 2.496,-0.26089 c 3.1557,-0.32984 7.6403,-0.32887 10.397,0.0021 l 2.1319,0.25607 v 3.8012 c 0,3.4571 0.0695,3.8012 0.7677,3.8012 1.617,0 8.6822,2.0835 12.183,3.5926 13.969995,6.0227 24.538995,17.611 29.260995,32.085 3.268,10.015 3.2802,21.729 0.0331,31.826 -0.65932,2.0502 -1.1603,3.7545 -1.1133,3.7873 0.047,0.0327 1.4103,0.82545 3.0296,1.7616 1.6193,0.93615 2.9441,1.7899 2.9441,1.8973 0,0.6027 -3.2453,6.5389 -5.1478,9.4163 l -2.2171,3.3531 -6.295,-3.4115 -2.9964,3.1544 c -7.133895,7.5101 -16.398995,12.827 -26.348995,15.12 -4.9152,1.133 -13.816,1.5872 -18.461,0.94222 z"
     fill="#002868"
     fill-rule="evenodd"
     style="paint-order:stroke fill markers"
     id="path22" />
  <path
     d="M 50.190826,17.176534 C 45.102159,18.951098 39.795478,21.646348 35.945839,24.529476 27.763438,30.657149 21.949821,38.153494 18.270043,47.359291 V 65.86481 H 115.63813 V 48.317864 C 110.56322,34.989647 100.41711,24.360674 87.246049,18.682258 86.147433,18.208607 84.689015,17.681564 83.166754,17.17693 H 50.192149 Z"
     fill="#fed700"
     fill-rule="evenodd"
     stop-color="#000000"
     stroke="#fed700"
     stroke-linecap="round"
     stroke-width="0.532996"
     style="paint-order:stroke fill markers"
     id="path24" />
  <g
     fill="#bf0a30"
     fill-rule="evenodd"
     id="g36"
     transform="translate(-57.427,-70.189)">
    <path
       transform="matrix(0.26458,0,0,0.26458,57.427,70.189)"
       d="m 418.65,224.18 15.59,-2.0341 c 1.2221,10.068 2.7016,19.468 2.9045,29.884 h -8.3338 l -7.8287,0.12627 c -0.0158,-9.2542 -0.37599,-20.383 -2.3322,-27.976 z"
       stop-color="#000000"
       style="paint-order:stroke fill markers"
       id="path26" />
    <path
       d="m 75.408,128.97 c -0.32335,2.6639 -0.71481,5.1509 -0.7685,7.9068 h 2.205 l 3.238086,-0.01 c 0.004,-2.4485 0.208414,-5.16089 0.725914,-7.16979 -1.7958,-0.27386 -3.5994,-0.49217 -5.4005,-0.72717 z"
       stop-color="#000000"
       style="paint-order:stroke fill markers"
       id="path28"
       sodipodi:nodetypes="ccccccc" />
    <path
       transform="matrix(0.26458,0,0,0.26458,57.427,70.189)"
       d="m 109.56,144.26 c -3.8449,-2.8729 0,0 -5.023,-3.9842 -8.2203,-6.2244 32.635,-44.743 38.026,-37.572 5.0123,6.6666 0.61443,0.59053 5.0958,6.603 l 2.6746,3.5883 c -12.132,11.604 -24.308,22.379 -35.57,35.792 z"
       stop-color="#000000"
       style="paint-order:stroke fill markers"
       id="path30" />
    <path
       d="m 161.33,108.57 c 1.0173,-0.76011 0,0 1.329,-1.0542 2.1749,-1.6469 -8.6346,-11.838 -10.061,-9.941 -1.3262,1.7639 -0.16257,0.15625 -1.3483,1.747 l -0.70765,0.94941 c 3.2099,3.0703 6.4316,5.9211 9.4112,9.4698 z"
       stop-color="#000000"
       style="paint-order:stroke fill markers"
       id="path32" />
    <path
       d="m 119.84,91.422 -2.5496,-0.06748 -0.53627,-2.7921 c -0.10381,-0.65864 0.0325,-1.481 0.024,-3.6553 l -0.0154,-3.9532 1.0023,-0.23434 c 1.3022,-0.30446 11.126,-0.30446 12.428,0 l 1.0023,0.23434 -0.002,3.8035 c -0.001,2.0919 0.0995,2.958 0.007,3.8224 l -0.59518,2.9682 -3.9233,0.09844 c -2.2804,-0.06637 -4.5648,-0.08754 -6.8416,-0.22454 z"
       stop-color="#000000"
       style="paint-order:stroke fill markers"
       id="path34" />
  </g>
  <g
     fill="#ffffff"
     fill-rule="evenodd"
     id="g50"
     transform="translate(-57.427,-70.189)">
    <g
       fill-opacity="0.99216"
       stroke-width="5.3993"
       id="g44">
      <path
         transform="matrix(0.26458,0,0,0.26458,57.427,70.189)"
         d="m 225.71,459.26 c -43.865,-6.0884 -84.333,-25.036 -116.19,-54.403 -9.1404,-8.4252 -10.776,-10.552 -8.9144,-11.593 1.7382,-0.97277 4.7683,0.97876 12.765,8.2212 30.82,27.914 66.482,45.225 105.89,51.405 19.138,3.0008 56.728,2.2602 73.592,-1.45 36.423,-8.013 68.678,-24.753 94.504,-49.047 8.9563,-8.4247 11.722,-10.278 14.175,-9.4991 2.8981,0.91981 2.777,1.2496 -2.4586,6.6969 -9.413,9.7937 -27.708,23.926 -41.177,31.808 -21.703,12.7 -43.491,20.953 -68.007,25.758 -14.071,2.7581 -50.792,3.9614 -64.18,2.1032 z"
         id="path38" />
      <path
         transform="matrix(0.26458,0,0,0.26458,57.427,70.189)"
         d="m 447.25,312.99 c -1.2871,-1.5509 -1.0195,-4.5676 1.1724,-13.214 6.5933,-26.009 7.5603,-61.935 2.3395,-86.919 -16.022,-76.671 -70.564,-135.23 -145.3,-156.01 -7.107,-1.9759 -8.3206,-2.8001 -8.3206,-5.6506 0,-4.3687 1.2883,-4.2654 18.945,1.5185 52.673,17.254 97.837,56.125 122.72,105.62 7.6975,15.31 16.162,41.414 19.07,58.808 4.4933,26.884 2.6178,63.862 -4.5465,89.643 -2.3854,8.584 -3.3174,9.5349 -6.0814,6.2046 z"
         id="path40" />
      <path
         transform="matrix(0.26458,0,0,0.26458,57.427,70.189)"
         d="m 48.851,303.21 c -5.142,-20.694 -6.4015,-34.082 -5.587,-59.392 0.59261,-18.416 1.5789,-27.262 4.346,-38.981 16.976,-71.892 69.498,-129.31 139.16,-152.13 17.674,-5.7896 18.945,-5.89 18.945,-1.4963 0,2.9419 -1.1984,3.6779 -9.6429,5.9221 -62.528,16.618 -115.36,66.241 -136.7,128.39 -12.343,35.955 -14.252,79.561 -5.0496,115.34 1.9428,7.5529 2.2594,10.943 1.1472,12.283 -2.7666,3.3336 -3.6557,1.9996 -6.6211,-9.9348 z"
         id="path42" />
    </g>
    <path
       transform="matrix(0.26458,0,0,0.26458,57.427,70.189)"
       d="m 50.054,307.59 c -5.3927,-18.159 -7.1057,-31.761 -7.0728,-56.164 0.03617,-26.881 2.0183,-40.256 9.4132,-63.52 10.294,-32.383 26.231,-58.143 51.799,-83.724 25.935,-25.948 50.557,-41.143 84.038,-51.863 16.763,-5.3669 18.197,-5.46 18.197,-1.1799 0,2.9353 -1.4818,3.7017 -13.912,7.1955 -28.433,7.9917 -57.39,24.621 -80.1,45.998 -53.428,50.295 -75.885,125.41 -58.321,195.08 3.0888,12.252 3.1242,12.963 0.70945,14.255 -2.1923,1.1733 -2.845,0.33773 -4.7518,-6.0829 z"
       style="paint-order:stroke fill markers"
       id="path46" />
    <path
       transform="matrix(0.26458,0,0,0.26458,57.427,70.189)"
       d="m 447.66,313.49 c -2.0593,-1.1525 -1.9604,-2.5959 1.0243,-14.942 21.983,-90.932 -21.986,-185.35 -105.96,-227.53 -11.27,-5.661 -27.293,-11.687 -38.799,-14.591 -5.1478,-1.2994 -6.0714,-2.0848 -6.0714,-5.1624 0,-3.3505 0.35739,-3.552 4.6429,-2.6178 36.573,7.9722 79.524,34.289 106.28,65.122 44.961,51.807 61.742,120.07 46.044,187.29 -1.6037,6.8681 -3.3595,12.762 -3.9017,13.097 -0.54223,0.33511 -2.0116,0.0353 -3.2654,-0.66642 z"
       style="paint-order:stroke fill markers"
       id="path48" />
  </g>
  <path
     d="m 8.115,139.901 c 0.20069,0 0.43356,-0.0511 0.43356,-0.3228 0,-0.25559 -0.22151,-0.32186 -0.46006,-0.32186 H 8.02508 v 0.64466 h 0.08993"
     fill="#006fff"
     id="path52" />
  <g
     id="g64"
     transform="translate(-57.427,-70.189)">
    <path
       d="m 123.98,70.189 c -36.689,0 -66.549,29.86 -66.549,66.549 0,36.689 29.86,66.549 66.549,66.549 36.689,0 66.549,-29.86 66.549,-66.549 0,-36.689 -29.86,-66.549 -66.549,-66.549 z m 0,10.992 c 2.4486,0 4.8586,0.15894 7.2223,0.46405 v 6.9345 l 1.9105,0.36327 c 5.0854,0.96618 9.95,2.7272 14.496,5.2483 v -0.0026 c 4.8392,2.684 9.1641,6.1498 12.856,10.299 3.9012,4.3848 6.9459,9.3584 9.0547,14.797 v 0.003 h 0.003 c 2.1873,5.6347 3.2949,11.573 3.2949,17.678 0,5.5952 -0.93308,11.053 -2.7673,16.256 l -0.64648,1.8355 5.7707,3.3512 c -1.8958,4.4884 -4.3659,8.6714 -7.3153,12.462 l -5.7371,-3.3285 -1.2754,1.4609 c -4.1513,4.7649 -9.2848,8.7781 -14.875,11.606 l -0.003,0.003 c -3.347,1.6964 -6.8913,3.0015 -10.53,3.8752 -3.7478,0.90103 -7.6222,1.3648 -11.514,1.3648 -3.8867,0 -7.7604,-0.45892 -11.498,-1.3591 h -0.003 c -3.6376,-0.87357 -7.1754,-2.1777 -10.525,-3.869 -5.5844,-2.8216 -10.718,-6.8222 -14.861,-11.578 l -1.2738,-1.463 -5.6632,3.2887 c -2.9497,-3.7906 -5.4189,-7.9735 -7.3147,-12.462 l 5.6927,-3.3042 -0.65267,-1.8376 c -1.847,-5.2148 -2.7848,-10.693 -2.7848,-16.301 0,-6.1125 1.107,-12.057 3.3006,-17.698 h 0.0026 v -0.003 c 2.1154,-5.4518 5.165,-10.426 9.08,-14.818 3.7042,-4.155 8.0354,-7.6117 12.889,-10.297 4.5516,-2.5142 9.4298,-4.2667 14.529,-5.2266 l 1.9141,-0.36174 v -6.9169 c 2.3637,-0.30512 4.7743,-0.46405 7.2229,-0.46405 z m -11.922,1.2795 v 2.3652 c -4.885,1.1089 -9.6126,2.7789 -14.016,5.211 l -0.0026,0.0026 c -5.3135,2.9392 -10.069,6.7332 -14.123,11.281 -4.2817,4.8036 -7.6352,10.272 -9.9534,16.246 -2.4039,6.1821 -3.623,12.717 -3.623,19.399 0,5.4614 0.94575,10.797 2.5549,15.945 l -1.7689,1.0268 c -1.753,-5.413 -2.7037,-11.192 -2.7037,-17.199 0,-26.654 18.643,-48.84 43.635,-54.277 z m 23.844,0 c 24.992,5.4374 43.635,27.624 43.635,54.277 0,6.0075 -0.95046,11.787 -2.7037,17.2 l -1.8547,-1.0769 c 1.597,-5.133 2.5368,-10.449 2.5368,-15.896 0,-6.675 -1.2167,-13.203 -3.6132,-19.377 v -0.003 c -2.3111,-5.9597 -5.6577,-11.426 -9.9255,-16.223 -4.0402,-4.5407 -8.7872,-8.3429 -14.088,-11.283 -4.3966,-2.4383 -9.1124,-4.1147 -13.986,-5.2302 z m 27.045,90.992 1.818,1.0552 c -10.138,10.946 -24.641,17.787 -40.785,17.787 -16.143,0 -30.647,-6.841 -40.785,-17.787 l 1.6578,-0.96327 c 4.293,4.5778 9.3641,8.4585 14.928,11.27 v 0.003 c 3.6694,1.8526 7.5475,3.2841 11.545,4.2442 4.1034,0.98827 8.3444,1.4883 12.6,1.4883 4.2645,0 8.5042,-0.50866 12.611,-1.496 3.9969,-0.95983 7.8823,-2.3908 11.555,-4.2519 5.5644,-2.8146 10.562,-6.7715 14.855,-11.348 z"
       color="#000000"
       color-rendering="auto"
       dominant-baseline="auto"
       image-rendering="auto"
       shape-rendering="auto"
       solid-color="#000000"
       style="font-variant-ligatures:normal;font-variant-position:normal;font-variant-caps:normal;font-variant-numeric:normal;font-variant-alternates:normal;font-feature-settings:normal;text-indent:0;text-decoration-line:none;text-decoration-style:solid;text-decoration-color:#000000;text-transform:none;text-orientation:mixed;white-space:normal;shape-padding:0;isolation:auto;mix-blend-mode:normal;paint-order:markers stroke fill"
       id="path54" />
    <g
       fill-rule="evenodd"
       id="g62">
      <ellipse
         cx="123.98"
         cy="136.74001"
         rx="38.236"
         ry="37.219002"
         fill="#fed700"
         stop-color="#000000"
         id="ellipse56" />
      <path
         d="m 110.81,150.1 -12.939,-13.135 1.094,-1.3591 c 0.6017,-0.7475 6.4412,-6.6947 12.977,-13.216 l 11.883,-11.857 12.964,13.011 c 7.1303,7.156 12.907,13.169 12.836,13.363 -0.0704,0.19363 -5.9211,6.1966 -13.002,13.34 l -12.874,12.988 z m 15.973,6.6803 c 1.4475,-1.4378 2.6318,-2.8687 2.6318,-3.1796 0,-0.31097 -0.82042,-1.3734 -1.8232,-2.361 -1.6434,-1.6186 -1.9778,-1.7923 -3.3922,-1.762 -1.7738,0.038 -3.3715,0.9629 -5.1758,2.9962 l -1.1644,1.3122 2.7842,2.8042 c 1.5313,1.5423 2.947,2.8042 3.146,2.8042 0.19899,0 1.5461,-1.1764 2.9936,-2.6142 z m -10.543,-7.7079 c 0.5354,-0.70194 0.906,-1.3125 0.82356,-1.3569 -0.0825,-0.0443 -1.1616,-1.0506 -2.3982,-2.2362 l -2.2483,-2.1556 -1.2755,1.2363 -1.2755,1.2363 2.2559,2.2762 c 1.2408,1.2519 2.4559,2.2762 2.7003,2.2762 0.2444,0 0.8824,-0.57432 1.4178,-1.2763 z m 19.28,-0.98519 c 1.019,-1.0448 1.8532,-2.1334 1.8538,-2.4191 0.001,-0.65454 -1.4212,-2.1943 -2.0274,-2.1943 -0.25027,0 -0.81318,0.50296 -1.2509,1.1177 -0.43772,0.61474 -1.4285,1.576 -2.2017,2.1361 l -1.4058,1.0184 0.9428,1.1204 c 0.51854,0.61625 1.2339,1.1204 1.5897,1.1204 0.35579,0 1.4806,-0.85483 2.4996,-1.8996 z m -10.8098,-7.50802 v -2.8947 h 3.0756 c 2.8344,0 3.0756,-0.0568 3.0756,-0.72367 0,-0.66691 -0.24123,-0.72367 -3.0756,-0.72367 h -3.0756 v -3.0756 c 0,-3.0394 -0.0106,-3.0756 -0.90459,-3.0756 -0.89394,0 -0.90458,0.0362 -0.90458,3.0756 v 3.0756 c -7.07006,-0.0214 -6.38951,1.44734 0,1.44734 v 2.8947 c 0,2.8464 0.0151,2.8947 0.90458,2.8947 0.88951,0 0.90459,-0.0482 0.90459,-2.8947 z m -15.661,-0.0781 c 1.761,-1.7391 1.911,-2.0191 1.911,-3.5658 0,-1.563 -0.13548,-1.8067 -1.9684,-3.5402 -1.0826,-1.0239 -2.1691,-1.8617 -2.4143,-1.8617 -0.63986,0 -5.3868,4.835 -5.3868,5.4867 0,0.66005 4.7987,5.3683 5.4714,5.3683 0.26184,0 1.336,-0.84927 2.3871,-1.8873 z m 35.127,-0.80785 c 1.2339,-1.2833 2.2435,-2.5592 2.2435,-2.8353 0,-0.59224 -4.8065,-5.3246 -5.408,-5.3246 -0.22699,0 -1.3012,0.8814 -2.3871,1.9587 -2.0612,2.0448 -2.3987,3.0483 -1.5703,4.6686 0.71787,1.4041 3.3426,3.8659 4.1216,3.8659 0.45758,0 1.6436,-0.92241 3.0002,-2.3333 z m -12.909,-6.9839 c -0.43179,-0.79613 -2.5229,-2.8044 -2.7041,-2.5969 -0.0742,0.085 -0.22324,0.84655 -0.33119,1.6923 l -0.19626,1.5378 h 1.7875 c 1.592,0 1.7499,-0.0693 1.444,-0.63321 z m -17.435,-3.4704 c 0.48489,-0.65393 1.4167,-1.5857 2.0706,-2.0706 0.65394,-0.48489 1.1935,-1.0568 1.1989,-1.2708 0.01,-0.39164 -1.1989,-1.616 -2.1065,-2.1334 -0.60181,-0.34306 -4.7584,3.6451 -4.7584,4.5655 0,0.64892 1.6179,2.1253 2.3102,2.1082 0.22193,-0.005 0.80023,-0.545 1.2851,-1.1989 z m 22.819,0.12934 1.2664,-1.0601 -4.8684,-4.893 -2.5018,2.4249 2.2378,2.2698 c 1.2308,1.2484 2.3192,2.2808 2.4187,2.2942 0.0995,0.0134 0.75081,-0.45263 1.4473,-1.0357 z m -8.7427,-7.0466 2.0487,-1.975 -2.8862,-2.9097 c -1.5874,-1.6004 -3.0569,-2.9097 -3.2656,-2.9097 -0.58449,0 -5.6078,5.1934 -5.608,5.7978 -8e-5,0.29383 0.85475,1.3006 1.8996,2.2373 1.7528,1.5713 2.0492,1.7043 3.8312,1.7187 1.8559,0.0151 2.0116,-0.0616 3.9802,-1.9594 z"
         fill="#bf0a30"
         stop-color="#000000"
         id="path58"
         sodipodi:nodetypes="ccscccccccsscsscsssccsccccsccccsscccsccscssscsssccsssssssssscsscssccccccscccccsscccccccsscccccsccccc" />
      <path
         d="m 117.36,181.92 c -0.0877,-0.15369 -0.35815,-1.1262 -0.60088,-2.1612 -0.24274,-1.0349 -0.64816,-2.0533 -0.90092,-2.2631 -0.25278,-0.20978 -1.7446,-0.71005 -3.3152,-1.1117 -3.0886,-0.78989 -6.5833,-2.3032 -9.2194,-3.9922 -2.005,-1.2846 -2.6153,-1.305 -4.4912,-0.14954 -0.79605,0.49028 -1.7099,0.89226 -2.0307,0.89329 -0.65237,0.002 -9.367,-8.9333 -9.367,-9.6043 0,-0.23519 0.30137,-0.81594 0.66972,-1.2905 1.7264,-2.2244 1.7258,-2.2332 -0.45486,-6.5957 -1.1098,-2.2202 -2.4648,-5.6454 -3.0112,-7.6114 -1.064,-3.8289 -1.0682,-3.8337 -3.8976,-4.4383 l -1.4473,-0.30925 c -0.470857,-6.89538 -0.351856,-10.02423 -0.338229,-12.45374 0.0062,-1.35449 0.918973,-1.39681 1.986568,-1.66916 2.907,-0.74157 3.0667,-0.92854 4.4449,-5.204 0.70206,-2.1779 2.02,-5.23 2.9287,-6.7823 0.90871,-1.5523 1.6522,-3.0789 1.6522,-3.3924 0,-0.31346 -0.48848,-1.3402 -1.0855,-2.2816 -0.59703,-0.94141 -1.0855,-1.8357 -1.0855,-1.9874 0,-0.45892 8.8853,-9.4687 9.3379,-9.4687 0.23143,0 1.2146,0.48848 2.1849,1.0855 0.970291,0.59703 2.071801,1.0854 2.447801,1.0853 0.376,-1e-4 1.7047,-0.62826 2.9527,-1.3959 1.248,-0.76763 3.6904,-1.8492 5.4275,-2.4034 1.7372,-0.55425 3.7284,-1.1932 4.4249,-1.4198 1.1803,-0.38403 1.3156,-0.59007 1.9901,-3.0302 l 0.72365,-2.6182 13.315,0.19358 0.62676,2.2907 c 0.3447,1.2599 0.786,2.45 0.98065,2.6446 0.19465,0.1946 1.5807,0.66048 3.0802,1.0352 3.0368,0.75889 6.7012,2.3207 8.815,3.757 1.7778,1.208 2.3784,1.1896 4.5375,-0.13888 0.97029,-0.59702 1.983,-1.0855 2.2506,-1.0855 0.59583,0 9.2749,8.9164 9.2657,9.5191 -0.004,0.23726 -0.49211,1.1479 -1.0855,2.0236 -0.5934,0.87574 -1.0789,1.7216 -1.0789,1.8796 0,0.158 0.8801,1.9654 1.9558,4.0162 1.0757,2.0508 2.3807,5.1443 2.9001,6.8744 0.51936,1.7301 1.1934,3.3947 1.4979,3.6992 1.24403,0.89124 2.58012,1.00512 4.0237,1.47414 0.69354,0.23062 0.87604,2.9198 0.57728,8.5063 l -0.28057,5.2466 -2.0784,0.49347 c -2,0.47487 -2.0937,0.54987 -2.4853,1.9901 -1.1593,4.264 -2.01,6.5033 -3.6178,9.5239 -0.97297,1.8279 -1.769,3.7909 -1.769,4.3622 0,0.57128 0.40706,1.5904 0.90459,2.2648 0.49751,0.67436 0.90457,1.4649 0.90457,1.7568 0,0.71635 -8.6804,9.4606 -9.3891,9.4583 -0.30872,-9.6e-4 -1.2126,-0.40301 -2.0086,-0.89329 -1.9116,-1.1774 -2.381,-1.1424 -4.6217,0.34536 -2.2975,1.5255 -7.282,3.5708 -10.124,4.1543 -2.2868,0.4695 -2.6275,0.83995 -3.3388,3.6301 l -0.41559,1.6303 -6.5538,0.0985 c -3.6046,0.0542 -6.6256,-0.0272 -6.7133,-0.18091 z m 3.7252,-12.101 c 0,-0.64483 -9.0742,-9.3459 -9.7466,-9.3459 -0.84272,0 -4.8707,4.1685 -4.6312,4.7927 0.42621,1.1107 7.7422,4.0466 11.436,4.5893 2.925,0.42971 2.9419,0.42951 2.9419,-0.0361 z m 11.928,-0.73359 c 3.3068,-1.0123 8.6969,-3.5598 8.6969,-4.1103 0,-0.51336 -4.6806,-4.8462 -5.2466,-4.8568 -0.56587,-0.0106 -9.9671,9.1597 -9.9583,9.7137 0.0102,0.64071 3.1544,0.27998 6.508,-0.74663 z m 5.3167,-17.528 c 9.871,-9.921 13.879,-14.179 13.802,-14.663 -0.13089,-0.81857 -27.644,-28.888 -28.316,-28.888 -0.64441,0 -28.42,28.264 -28.42,28.92 0,0.7567 27.547,28.512 28.352,28.566 0.43484,0.0295 5.5788,-4.8862 14.582,-13.935 z m -31.53,6.7374 1.42,-1.4542 -4.7717,-4.7717 -1.4936,1.3494 c -0.82147,0.74215 -1.4936,1.5292 -1.4936,1.7491 0,0.51776 4.0169,4.5818 4.5286,4.5818 0.21459,0 1.0292,-0.65442 1.8102,-1.4543 z m 38.619,-0.75184 c 1.1443,-1.0087 2.0806,-2.0626 2.0806,-2.3419 0,-0.49438 -2.4634,-3.0211 -2.9645,-3.0407 -0.42288,-0.0165 -4.634,4.0223 -4.634,4.4444 0,0.61435 2.2451,2.7831 2.8752,2.7774 0.30924,-0.003 1.4985,-0.83043 2.6428,-1.8392 z m -47.488,-6.2993 2.3333,-2.3542 -4.147,-4.1588 c -4.082,-4.0936 -5.0643,-4.7777 -5.0625,-3.5256 0.0034,2.1681 3.5629,12.393 4.3147,12.393 0.12555,0 1.2782,-1.0594 2.5615,-2.3542 z m 56.725,-1.8973 c 1.6288,-4.1325 2.228,-6.3737 2.2424,-8.3877 l 0.009,-1.2414 -3.3218,3.2315 c -1.827,1.7773 -3.874,3.8341 -4.5489,4.5705 l -1.227,1.339 2.2874,2.187 c 1.2581,1.2029 2.4536,2.1879 2.6567,2.1889 0.2031,0.001 1.0592,-1.7485 1.9024,-3.8878 z m 2.1248,-17.483 c -0.12621,-1.2075 -0.4955,-3.1207 -0.82064,-4.2516 -0.72364,-2.5168 -2.9458,-7.3026 -3.3908,-7.3026 -0.58189,0 -4.708,4.0426 -4.708,4.6127 0,0.5547 8.3258,9.137 8.8639,9.137 0.15677,0 0.18177,-0.98798 0.0556,-2.1955 z m -60.969,-2.397 c 2.1594,-2.1279 3.9223,-4.1225 3.9177,-4.4325 -0.0077,-0.51883 -3.9805,-4.3629 -4.509,-4.3629 -0.41393,0 -2.3337,4.6064 -3.0479,7.3132 -1.0376,3.9325 -1.2282,5.351 -0.71928,5.351 0.23777,0 2.199,-1.741 4.3584,-3.8689 z m 10.157,-10.264 2.1924,-2.1924 -1.2068,-1.2451 c -0.66373,-0.68479 -1.5571,-1.2451 -1.9853,-1.2451 -0.48218,0 -1.5851,0.84562 -2.8976,2.2216 l -2.1191,2.2216 1.4308,1.2104 c 0.78693,0.66573 1.6474,1.2128 1.912,1.2158 0.26468,0.003 1.4678,-0.98117 2.6736,-2.187 z m 40.198,1.1775 c 1.4605,-1.5244 1.2556,-2.2864 -1.1823,-4.3984 -2.408,-2.086 -2.7426,-2.0836 -4.5241,0.0336 l -0.96736,1.1496 2.093,2.115 c 2.367,2.392 3.1606,2.5826 4.5808,1.1002 z m -30.573,-10.542 c 2.0535,-1.9024 4.1577,-4.0143 4.6762,-4.6931 l 0.94262,-1.2342 -2.3347,0.21802 c -1.2841,0.11991 -3.5512,0.65503 -5.038,1.1892 -3.2161,1.1553 -7.5881,3.2999 -7.5881,3.7221 0,0.16496 1.0559,1.3138 2.3464,2.5531 1.5132,1.453 2.509,2.1556 2.8042,1.9785 0.2518,-0.15103 2.1379,-1.8311 4.1914,-3.7336 z m 23.626,1.5369 c 1.1712,-1.1329 2.1295,-2.2666 2.1295,-2.5192 0,-0.72198 -5.0511,-2.967 -8.7551,-3.8913 -4.6103,-1.1504 -6.0801,-1.3514 -6.0801,-0.83113 0,0.68898 9.1666,9.2991 9.9014,9.3004 0.37107,6.5e-4 1.633,-0.92578 2.8042,-2.0587 z"
         fill="#ce5c17"
         stop-color="#000000"
         id="path60"
         sodipodi:nodetypes="cccccccscscccccsssssscssccccccssssscssscccscscsssscsssscccccscccccsssccscsscscccssssccscscccccscscccccccccsccccssscccssssccccsssccsccccccccccccscscccccscsscc" />
    </g>
  </g>
  <g
     stroke="#ffffff"
     aria-label="169"
     id="g72"
     transform="translate(-57.427,-70.189)">
    <path
       d="m 106.81,150.96 c 0.98778,0 1.4224,-0.43462 1.4224,-1.4224 v -4.7808 c 0,-0.98777 -0.43462,-1.4224 -1.4224,-1.4224 h -3.7931 v -19.4 c 0,-0.98777 -0.43462,-1.4224 -1.4224,-1.4224 h -11.458 c -0.98778,0 -1.4224,0.43463 -1.4224,1.4224 v 4.7808 c 0,0.98777 0.43462,1.4224 1.4224,1.4224 h 3.635 v 13.197 h -4.4252 c -0.98778,0 -1.4224,0.43463 -1.4224,1.4224 v 4.7808 c 0,0.98778 0.43462,1.4224 1.4224,1.4224 z"
       id="path66" />
    <path
       d="m 123.92,151.55 c 9.0876,0 11.379,-3.1609 11.379,-7.9812 v -3.7931 c 0,-4.7018 -2.1336,-7.112 -9.2851,-7.112 -2.0941,0 -3.7536,0.19755 -5.0179,0.59266 v -0.86924 c 0,-1.936 0.55316,-2.3707 2.4892,-2.3707 h 7.3886 c 0.98777,0 1.4224,-0.43462 1.4224,-1.4224 v -4.6623 c 0,-0.98777 -0.39512,-1.4224 -1.4224,-1.4224 h -9.0876 c -7.4676,0 -9.7197,3.2794 -9.7197,8.0998 v 12.96 c 0,4.8204 2.1336,7.9812 11.853,7.9812 z m -2.9238,-10.945 c 0,-0.79022 0.3556,-1.4224 2.6472,-1.4224 2.3707,0 2.7263,0.63218 2.7263,1.4224 v 2.3312 c 0,0.82974 -0.3556,1.4619 -2.7263,1.4619 -2.2916,0 -2.6472,-0.63217 -2.6472,-1.4619 z"
       id="path68" />
    <path
       d="m 152.53,150.96 c 7.4676,0 9.7197,-3.2794 9.7197,-8.0998 v -12.96 c 0,-4.8204 -2.1336,-7.9812 -11.853,-7.9812 -9.0876,0 -11.379,3.1609 -11.379,7.9812 v 3.7931 c 0,4.7018 2.1336,7.112 9.2851,7.112 2.0941,0 3.7536,-0.19755 5.0179,-0.59266 v 0.86924 c 0,1.936 -0.55316,2.3707 -2.4892,2.3707 h -7.3886 c -0.98778,0 -1.4224,0.43462 -1.4224,1.4224 v 4.6623 c 0,0.98778 0.39511,1.4224 1.4224,1.4224 z m 0.79023,-18.096 c 0,0.79023 -0.3556,1.4224 -2.6472,1.4224 -2.3707,0 -2.7263,-0.63217 -2.7263,-1.4224 v -2.3312 c 0,-0.82974 0.3556,-1.4619 2.7263,-1.4619 2.2916,0 2.6472,0.63217 2.6472,1.4619 z"
       id="path70" />
  </g>
</svg>
