<?xml version="1.0" encoding="UTF-8"?>
<svg version="1.1" viewBox="0 0 377.29 377.29" xmlns="http://www.w3.org/2000/svg" xmlns:xlink="http://www.w3.org/1999/xlink">
 <!-- Generator: Adobe Illustrator 29.8.2, SVG Export Plug-In . SVG Version: 2.1.1 Build 3)  -->
 <defs>
  <style>.st0, .st1, .st2, .st3, .st4 {
        fill: #fff;
      }

      .st0, .st5, .st6, .st7, .st8, .st9 {
        stroke: #003087;
      }

      .st0, .st5, .st3, .st10, .st9, .st4, .st11, .st12, .st13 {
        display: none;
      }

      .st0, .st5, .st9, .st4 {
        stroke-miterlimit: 11.34;
        stroke-width: 2.83px;
      }

      .st14, .st15 {
        fill: #003087;
      }

      .st1 {
        fill-opacity: .99;
      }

      .st1, .st2, .st16, .st8, .st15, .st17, .st12, .st18 {
        fill-rule: evenodd;
      }

      .st5 {
        fill: url(#linear-gradient1);
      }

      .st19, .st6, .st7, .st8, .st18 {
        stroke-miterlimit: 10;
        stroke-width: .5px;
      }

      .st19, .st20, .st7 {
        fill: none;
      }

      .st19, .st4, .st18 {
        stroke: #ffcd00;
      }

      .st6, .st8, .st18 {
        fill: #4f5456;
      }

      .st21, .st16 {
        fill: #ffcd00;
      }

      .st22 {
        fill: #71797e;
      }

      .st20 {
        stroke: #fff;
        stroke-miterlimit: 11.34;
        stroke-width: 3px;
      }

      .st23 {
        isolation: isolate;
      }

      .st10 {
        fill: #e50027;
      }

      .st24 {
        fill: url(#linear-gradient4);
      }

      .st25 {
        fill: url(#linear-gradient5);
      }

      .st17, .st26 {
        fill: #eaf1f4;
      }

      .st27 {
        fill: url(#linear-gradient3);
      }

      .st9 {
        fill: url(#linear-gradient2);
      }

      .st12 {
        fill: #c60606;
      }

      .st13 {
        fill: url(#linear-gradient7);
      }

      .st28 {
        fill: #001b69;
      }

      .st29 {
        fill: url(#linear-gradient6);
      }

      .st30 {
        fill: url(#linear-gradient);
      }</style>
  <linearGradient id="linear-gradient" x1="214.97" x2="221.35" y1="72.8" y2="72.8" gradientUnits="userSpaceOnUse">
   <stop stop-color="#fff" offset="0"/>
   <stop stop-color="#fff" offset="1"/>
  </linearGradient>
  <linearGradient id="linear-gradient1" x1="171.22" x2="206.29" y1="281.79" y2="281.79" xlink:href="#linear-gradient"/>
  <linearGradient id="linear-gradient2" x1="177.98" x2="199.53" y1="126.66" y2="126.66" xlink:href="#linear-gradient"/>
  <linearGradient id="linear-gradient3" x1="225.09" x2="231.47" y1="79.93" y2="79.93" xlink:href="#linear-gradient"/>
  <linearGradient id="linear-gradient4" x1="205.4" x2="211.78" y1="82.3" y2="82.3" xlink:href="#linear-gradient"/>
  <linearGradient id="linear-gradient5" x1="214.97" x2="221.35" y1="101.81" y2="101.81" xlink:href="#linear-gradient"/>
  <linearGradient id="linear-gradient6" x1="221.35" x2="224.65" y1="87.23" y2="87.23" xlink:href="#linear-gradient"/>
  <linearGradient id="linear-gradient7" x1="194.83" x2="201.85" y1="92.99" y2="92.99" xlink:href="#linear-gradient"/>
 </defs>
 <polygon class="st5" points="188.76 264.7 192.9 274.08 202.82 271.47 198.06 280.56 206.29 286.68 196.22 288.63 196.56 298.88 188.76 292.23 180.95 298.88 181.29 288.63 171.22 286.68 179.45 280.56 174.69 271.47 184.61 274.08" data-name="Star_1"/>
 <polygon class="st9" points="188.76 116.42 192.29 122.88 199.53 124.25 194.47 129.6 195.41 136.91 188.76 133.76 182.1 136.91 183.04 129.6 177.98 124.25 185.22 122.88" data-name="Star_1"/>
 <g class="st11">
  <rect class="st22" x="177.56" y="82.64" width="2.09" height="165.61"/>
  <rect class="st22" x="165.54" y="141.22" width="5.28" height="85.93"/>
  <rect class="st22" x="186.64" y="141.22" width="5.28" height="85.93"/>
  <rect class="st22" transform="translate(341.9 -15.55) rotate(90)" x="176.45" y="149.99" width="4.55" height="26.38"/>
  <rect class="st22" transform="translate(385.91 27.87) rotate(90)" x="176.75" y="194.12" width="4.55" height="25.54"/>
  <rect class="st22" transform="translate(-122.11 242.52) rotate(-45)" x="229.18" y="207.46" width="5.04" height="122.4"/>
  <rect class="st22" transform="translate(226.81 -10.24) rotate(45)" x="123.24" y="207.46" width="5.04" height="122.4"/>
  <rect class="st22" transform="translate(-109.96 147.23) rotate(-30)" x="217.23" y="217.59" width="5.04" height="122.4"/>
  <rect class="st22" transform="translate(157.89 -31.67) rotate(30)" x="135.52" y="217.59" width="5.04" height="122.4"/>
 </g>
 <polygon class="st13" points="198.34 89.57 199.17 91.45 201.15 90.93 200.2 92.75 201.85 93.97 199.83 94.36 199.9 96.41 198.34 95.08 196.78 96.41 196.85 94.36 194.83 93.97 196.48 92.75 195.53 90.93 197.51 91.45" data-name="Star_1"/>
 <polygon class="st3" points="194.41 76.4 187.73 80.81 187.73 80.81 187.73 81.04 188.18 81.04 190.4 81.04 196.06 77.55"/>
 <polygon class="st10" points="194.52 77.42 189.15 81.04 190.08 81.04 195.57 77.42"/>
 <polygon class="st3" points="194.41 75.17 187.73 70.76 187.73 70.76 187.73 70.53 188.18 70.52 190.4 70.53 196.06 74.02"/>
 <polygon class="st10" points="193.18 74.15 187.81 70.52 188.73 70.53 194.22 74.15"/>
 <rect class="st3" transform="translate(272.73 -121.16) rotate(90)" x="191.69" y="74.61" width="10.51" height="2.35"/>
 <rect class="st3" transform="translate(274.17 -122.6) rotate(90)" x="193.13" y="74.61" width="10.51" height="2.35"/>
 <rect class="st3" x="187.72" y="75.15" width="19.91" height="2.35"/>
 <rect class="st3" x="187.73" y="74.13" width="19.91" height="2.35"/>
 <rect class="st10" x="187.73" y="74.65" width="19.91" height="2.35"/>
 <rect class="st10" transform="translate(273.47 -121.9) rotate(90)" x="192.43" y="74.61" width="10.51" height="2.35"/>
 <polygon class="st3" points="206.05 70.52 199.56 73.91 199.56 73.91 199.56 74.14 200.01 74.15 202.23 74.14 207.64 71.31 207.64 70.52"/>
 <polygon class="st10" points="206.62 70.52 199.6 74.15 200.52 74.15 207.64 70.52"/>
 <polygon class="st3" points="201.15 77.5 207.64 80.91 207.64 80.91 207.63 81.14 207.18 81.14 204.97 81.13 199.56 78.28 199.56 77.5"/>
 <polygon class="st10" points="200.58 77.5 207.6 81.14 206.67 81.14 199.56 77.5"/>
 <g fill="#fff" stroke="#fff" stroke-linecap="round" stroke-linejoin="round" stroke-width=".51332">
  <path d="m38.608 235.76c-0.15158-0.64704-1.1141-4.4103-2.1388-8.3629-12.223-47.145-1.3997-97.897 29.098-136.44 4.8806-6.1681 15.237-16.859 21.55-22.247 16.39-13.987 36.539-24.828 57.401-30.882 3.8016-1.1033 7.6628-2.1497 8.5803-2.3252l1.6683-0.31915v5.9793l-5.5182 1.4303c-42.989 11.142-78.828 40.872-98.094 81.372-9.8841 20.778-14.478 41.361-14.492 64.932-0.0087 14.395 1.5316 26.068 5.1974 39.389 0.83396 3.0304 1.5163 5.7018 1.5163 5.9364 0 0.23467-0.86623 0.86767-1.9249 1.4067-1.0587 0.53899-2.0694 1.0534-2.246 1.1432-0.17658 0.0897-0.44506-0.36621-0.59664-1.0132z"/>
  <path d="m336.03 235.53c-1.7375-1.0361-2.1592-1.5531-1.9703-2.4151 0.13223-0.60325 0.95398-3.8687 1.8261-7.2566 3.3136-12.872 4.7071-23.888 4.6986-37.142-0.0214-33.281-10.384-64.05-30.769-91.361-5.4455-7.2956-19.141-21.399-26.204-26.984-17.229-13.625-36.806-23.115-58.903-28.555l-2.1816-0.53705v-3.0601c0-1.6831 0.19162-3.0601 0.42582-3.0601s3.2962 0.78668 6.8044 1.7482c34 9.3184 63.447 29.235 84.475 57.136 11.148 14.791 20.453 33.248 25.305 50.196 4.283 14.958 5.6905 24.537 6.0341 41.066 0.29484 14.184-0.35107 22.296-2.7181 34.136-1.0608 5.3066-4.0643 16.858-4.4953 17.289-0.0647 0.0647-1.1124-0.4757-2.3282-1.2008z"/>
  <path d="m173.25 345.14c-36.434-3.7313-69.457-19.404-95.918-45.524l-3.813-3.7638 3.9442-2.3804 5.9294 5.5391c7.5191 7.0242 10.762 9.7103 17.833 14.772 40.686 29.125 95.76 35.76 142.85 17.211 18.174-7.1581 33.316-16.973 49.311-31.964l6.1232-5.7385 2.0594 1.1574c1.1327 0.63659 2.0594 1.3186 2.0594 1.5155 0 0.55276-9.3398 9.3524-14.371 13.54-24.324 20.245-54.041 32.58-85.944 35.674-6.5132 0.63174-23.735 0.60919-30.068-0.0394z"/>
 </g>
 <g class="st11">
  <path class="st1" d="M161.67,344.44c-32.9-4.57-63.25-18.78-87.14-40.8-6.86-6.32-8.08-7.91-6.69-8.69,1.3-.73,3.58.73,9.57,6.17,23.11,20.94,49.86,33.92,79.42,38.55,14.35,2.25,42.55,1.7,55.19-1.09,27.32-6.01,51.51-18.56,70.88-36.78,6.72-6.32,8.79-7.71,10.63-7.12,2.17.69,2.08.94-1.84,5.02-7.06,7.35-20.78,17.94-30.88,23.86-16.28,9.52-32.62,15.71-51,19.32-10.55,2.07-38.09,2.97-48.13,1.58h0Z"/>
  <path class="st1" d="M327.83,234.74c-.97-1.16-.76-3.43.88-9.91,4.94-19.51,5.67-46.45,1.75-65.19-12.02-57.5-52.92-101.42-108.97-117.01-5.33-1.48-6.24-2.1-6.24-4.24,0-3.28.97-3.2,14.21,1.14,39.5,12.94,73.38,42.09,92.04,79.21,5.77,11.48,12.12,31.06,14.3,44.11,3.37,20.16,1.96,47.9-3.41,67.23-1.79,6.44-2.49,7.15-4.56,4.65h0Z"/>
  <path class="st1" d="M29.03,227.41c-3.86-15.52-4.8-25.56-4.19-44.54.44-13.81,1.18-20.45,3.26-29.24,12.73-53.92,52.12-96.98,104.37-114.1,13.26-4.34,14.21-4.42,14.21-1.12,0,2.21-.9,2.76-7.23,4.44-46.9,12.46-86.52,49.68-102.52,96.29-9.26,26.97-10.69,59.67-3.79,86.5,1.46,5.66,1.69,8.21.86,9.21-2.07,2.5-2.74,1.5-4.97-7.45h0Z"/>
 </g>
 <path class="st12" d="M189.92,356.32c-33.45-4.64-63.49-20-87.48-44.71-4.98-5.13-9.33-9.32-9.67-9.32s-4.21,2.07-8.61,4.6c-4.39,2.53-8.15,4.6-8.34,4.6-1.4,0-21.31-33.73-21.31-36.1,0-.26,3.76-2.69,8.35-5.38s8.42-4.96,8.51-5.02c.09-.06-1.28-4.55-3.06-9.97-5.44-16.62-7.28-30.99-6.59-51.57.47-14.07,1.23-20.39,3.47-28.94,9.33-35.58,27.82-63.25,56.73-84.9,15.63-11.7,39.73-22.33,58.35-25.74l7.77-1.42v-21.14l7.08-.74c8.95-.93,21.66-.93,29.47,0l6.04.73v10.78c0,9.8.2,10.78,2.18,10.78,4.58,0,24.61,5.91,34.53,10.18,39.6,17.07,69.56,49.92,82.94,90.95,9.26,28.39,9.3,61.59.09,90.22-1.87,5.81-3.29,10.64-3.16,10.74.13.09,4,2.34,8.59,4.99s8.35,5.07,8.35,5.38c0,1.71-9.2,18.54-14.59,26.69l-6.28,9.5-17.84-9.67-8.49,8.94c-20.22,21.29-46.49,36.36-74.69,42.86-13.93,3.21-39.16,4.5-52.33,2.67h0Z"/>
 <path class="st15" d="m176.69 331.48c-33.45-4.64-63.49-20-87.48-44.71-4.98-5.13-9.33-9.32-9.67-9.32s-4.21 2.07-8.61 4.6c-4.39 2.53-8.15 4.6-8.34 4.6-1.4 0-21.31-33.73-21.31-36.1 0-0.26 3.76-2.69 8.35-5.38s8.42-4.96 8.51-5.02-1.28-4.55-3.06-9.97c-5.44-16.62-7.28-30.99-6.59-51.57 0.47-14.07 1.23-20.39 3.47-28.94 9.33-35.58 27.82-63.25 56.73-84.9 7.81-5.85 17.75-11.44 28.05-15.98s20.99-8.05 30.3-9.76l7.77-1.42"/>
 <path class="st16" d="M168.3,43.46v-21.14l7.08-.74c8.95-.93,21.66-.93,29.47,0l6.04.73v10.78c0,9.8.2,10.78,2.18,10.78,4.58,0,24.61,5.91,34.53,10.18,39.6,17.07,69.56,49.92,82.94,90.95,9.26,28.39,9.3,61.59.09,90.22-1.87,5.81-3.29,10.64-3.16,10.74.13.09,4,2.34,8.59,4.99s8.35,5.07,8.35,5.38c0,1.71-9.2,18.54-14.59,26.69l-6.28,9.5-17.84-9.67-8.49,8.94c-20.22,21.29-46.49,36.36-74.69,42.86-13.93,3.21-39.16,4.5-52.33,2.67"/>
 <g class="st11">
  <path class="st2" d="M29.93,230.69c-4.04-13.62-5.33-23.82-5.3-42.12.03-20.16,1.51-30.19,7.06-47.64,7.72-24.29,19.67-43.61,38.85-62.79,19.45-19.46,37.92-30.86,63.03-38.9,12.57-4.03,13.65-4.09,13.65-.88,0,2.2-1.11,2.78-10.43,5.4-21.32,5.99-43.04,18.47-60.07,34.5-40.07,37.72-56.91,94.06-43.74,146.31,2.32,9.19,2.34,9.72.53,10.69-1.64.88-2.13.25-3.56-4.56h0Z"/>
  <path class="st2" d="M328.13,235.12c-1.54-.86-1.47-1.95.77-11.21,16.49-68.2-16.49-139.01-79.47-170.65-8.45-4.25-20.47-8.77-29.1-10.94-3.86-.97-4.55-1.56-4.55-3.87,0-2.51.27-2.66,3.48-1.96,27.43,5.98,59.64,25.72,79.71,48.84,33.72,38.85,46.31,90.05,34.53,140.47-1.2,5.15-2.52,9.57-2.93,9.82-.41.25-1.51.03-2.45-.5h0Z"/>
 </g>
 <rect class="st6" x="186.74" y="62.88" width="4.39" height="138.51"/>
 <rect class="st6" x="178.39" y="111.87" width="4.13" height="71.86"/>
 <rect class="st6" x="194.89" y="111.87" width="4.13" height="71.86"/>
 <rect class="st6" transform="translate(318.94 -58.47) rotate(90)" x="186.81" y="119.92" width="3.8" height="20.63"/>
 <rect class="st6" transform="translate(355.72 -22.14) rotate(90)" x="187.03" y="156.8" width="3.8" height="19.97"/>
 <polygon class="st8" points="262.58 256.14 265.37 253.16 197.68 180.77 194.89 183.75"/>
 <polygon class="st18" points="112.05 253.16 114.83 256.14 182.52 183.75 179.74 180.77"/>
 <polygon class="st8" points="243.01 272.31 246.42 270.2 198.56 181.55 195.15 183.66"/>
 <polygon class="st18" points="131.25 270.2 134.66 272.31 182.52 183.66 179.11 181.55"/>
 <polygon class="st17" points="240.95 257.09 240.95 288.16 190.98 288.16 190.98 272.19 184.79 272.19 184.79 288.16 135.42 288.16 135.42 257.09 184.8 257.09 184.8 267.55 190.99 267.55 190.99 257.09"/>
 <rect class="st26" x="240.94" y="252.2" width="35.96" height="35.96"/>
 <rect class="st26" x="99.6" y="252.2" width="35.96" height="35.96"/>
 <rect class="st21" x="187.28" y="256.38" width="6.19" height="3.13"/>
 <rect class="st21" x="182.38" y="256.38" width="6.19" height="3.13"/>
 <rect class="st21" x="184.79" y="263.17" width="6.19" height="4.32"/>
 <rect class="st21" x="184.8" y="270.46" width="6.19" height="4.32"/>
 <rect class="st21" x="193.78" y="270.46" width="6.19" height="17.69"/>
 <rect class="st21" x="175.91" y="270.46" width="6.19" height="17.69"/>
 <rect class="st21" x="202.76" y="260.47" width="6.19" height="27.68"/>
 <rect class="st21" x="212.51" y="260.47" width="6.19" height="27.68"/>
 <rect class="st21" x="222.29" y="260.47" width="6.19" height="27.68"/>
 <rect class="st21" x="232.35" y="260.47" width="6.19" height="27.68"/>
 <rect class="st14" x="102.18" y="255.32" width="3.87" height="6.98"/>
 <rect class="st14" x="108.96" y="255.32" width="3.78" height="6.98"/>
 <rect class="st14" x="115.76" y="255.32" width="3.83" height="6.98"/>
 <rect class="st14" x="122.51" y="255.32" width="3.53" height="6.98"/>
 <rect class="st14" x="129.27" y="255.32" width="3.71" height="6.98"/>
 <rect class="st14" x="102.25" y="265.73" width="3.8" height="22.96"/>
 <rect class="st14" x="109.03" y="265.73" width="3.71" height="22.96"/>
 <rect class="st14" x="115.83" y="265.73" width="3.76" height="22.96"/>
 <rect class="st14" x="122.58" y="265.73" width="3.46" height="22.96"/>
 <rect class="st14" x="129.34" y="265.73" width="3.64" height="22.96"/>
 <rect class="st14" x="137.25" y="260.47" width="6.19" height="28.42"/>
 <rect class="st14" x="147" y="260.47" width="6.19" height="28.42"/>
 <rect class="st14" x="156.78" y="260.48" width="6.19" height="28.42"/>
 <rect class="st14" x="166.84" y="260.48" width="6.19" height="28.42"/>
 <rect class="st26" x="99.6" y="288.16" width="177.31" height="1.62"/>
 <rect class="st21" x="243.52" y="254.79" width="3.87" height="6.98"/>
 <rect class="st21" x="250.31" y="254.79" width="3.78" height="6.98"/>
 <rect class="st21" x="257.1" y="254.79" width="3.83" height="6.98"/>
 <rect class="st21" x="263.86" y="254.79" width="3.53" height="6.98"/>
 <rect class="st21" x="270.61" y="254.79" width="3.71" height="6.98"/>
 <rect class="st21" x="243.59" y="265.2" width="3.8" height="22.96"/>
 <rect class="st21" x="250.38" y="265.2" width="3.71" height="22.96"/>
 <rect class="st21" x="257.17" y="265.2" width="3.76" height="22.96"/>
 <rect class="st21" x="263.93" y="265.2" width="3.46" height="22.96"/>
 <rect class="st21" x="270.68" y="265.2" width="3.64" height="22.96"/>
 <path d="m188.72 0c-104 0-188.65 84.65-188.65 188.65s84.64 188.64 188.64 188.64 188.64-84.64 188.64-188.64-84.63-188.65-188.63-188.65zm0 31.16c6.94 0 13.77 0.45 20.47 1.32v19.66l5.42 1.03c14.42 2.74 28.2 7.73 41.09 14.88 13.72 7.6 25.98 17.43 36.44 29.19 11.06 12.43 19.69 26.53 25.67 41.94s0 0 0 0c6.2 15.97 9.34 32.81 9.34 50.11 0 15.86-2.64 31.33-7.84 46.08l-1.83 5.2 16.36 9.5c-5.37 12.72-12.38 24.58-20.74 35.33l-16.26-9.44-3.62 4.14c-11.77 13.51-26.32 24.88-42.17 32.9-9.49 4.82-19.53 8.52-29.85 10.99-10.62 2.55-21.61 3.87-32.64 3.87s-22-1.3-32.59-3.85c-10.31-2.48-20.34-6.17-29.83-10.97-15.83-8-30.38-19.34-42.13-32.82l-3.61-4.15-16.05 9.32c-8.36-10.75-15.36-22.6-20.73-35.33l16.14-9.37-1.85-5.21c-5.24-14.78-7.89-30.31-7.89-46.21 0-17.33 3.14-34.18 9.36-50.17 6-15.46 14.64-29.56 25.74-42.01 10.5-11.78 22.78-21.58 36.54-29.19 12.9-7.13 26.73-12.09 41.18-14.82l5.43-1.03v-19.61c6.7-0.86 13.53-1.32 20.47-1.32zm-33.8 3.63v6.7c-13.85 3.14-27.25 7.88-39.73 14.77-15.06 8.34-28.54 19.09-40.03 31.99-12.14 13.62-21.64 29.12-28.21 46.05-6.81 17.52-10.27 36.05-10.27 54.99 0 15.48 2.68 30.61 7.24 45.2l-5.01 2.91c-4.97-15.34-7.66-31.73-7.66-48.75 0-75.55 52.85-138.44 123.69-153.86zm67.59 0c70.84 15.41 123.69 78.3 123.69 153.86 0 17.03-2.69 33.41-7.66 48.76l-5.26-3.05c4.53-14.55 7.19-29.62 7.19-45.06 0-18.92-3.45-37.43-10.24-54.93-6.55-16.9-16.04-32.4-28.14-45.99-11.45-12.87-24.91-23.65-39.93-31.98-12.46-6.91-25.83-11.66-39.65-14.83v-6.77zm76.66 257.93 5.15 2.99c-28.74 31.03-69.85 50.42-115.61 50.42s-86.87-19.39-115.61-50.42l4.7-2.73c12.17 12.98 26.54 23.98 42.32 31.95 10.4 5.26 21.39 9.32 32.73 12.04 11.63 2.8 23.65 4.22 35.72 4.22s24.11-1.44 35.75-4.24c11.33-2.72 22.34-6.78 32.75-12.05 15.77-7.98 29.94-19.19 42.11-32.17z" color-rendering="auto" image-rendering="auto" shape-rendering="auto"/>
 <g class="st23">
  <polygon class="st4" points="117.41 100.76 121.56 110.14 131.47 107.53 126.72 116.62 134.95 122.74 124.88 124.69 125.22 134.94 117.41 128.29 109.61 134.94 109.95 124.69 99.88 122.74 108.1 116.62 103.35 107.53 113.27 110.14"/>
  <polygon class="st0" points="273.63 100.76 277.77 110.14 287.69 107.53 282.93 116.62 291.16 122.74 281.09 124.69 281.43 134.94 273.63 128.29 265.82 134.94 266.16 124.69 256.09 122.74 264.32 116.62 259.57 107.53 269.48 110.14"/>
  <g class="st23">
   <path d="m90.43 227.72c-2.8 0-4.03-1.23-4.03-4.03v-13.55c0-2.8 1.23-4.03 4.03-4.03h12.54v-37.41h-10.3c-2.8 0-4.03-1.23-4.03-4.03v-13.55c0-2.8 1.23-4.03 4.03-4.03h32.48c2.8 0 4.03 1.23 4.03 4.03v54.99h10.75c2.8 0 4.03 1.23 4.03 4.03v13.55c0 2.8-1.23 4.03-4.03 4.03h-49.5z"/>
   <path d="m222.7 209.91c0 11.65-7.5 19.49-34.5 19.49s-34.61-7.84-34.61-19.49v-10.86c0-10.53 5.15-16.02 11.87-17.36-4.93-2.13-6.61-6.38-6.61-12.1v-6.5c0-10.98 6.94-17.7 29.46-17.7s29.12 6.72 29.12 17.7v6.5c0 5.71-1.68 9.97-6.61 12.1 6.72 1.34 11.87 6.83 11.87 17.36v10.86zm-34.5-0.11c8.18 0 9.74-1.79 9.74-4.14v-5.94c0-2.24-1.57-4.03-9.74-4.03s-9.86 1.79-9.86 4.03v5.94c0 2.35 1.79 4.14 9.86 4.14zm0-31.7c6.38 0 6.94-1.79 6.94-4.14v-4.93c0-2.24-0.56-4.03-6.94-4.03s-7.06 1.79-7.06 4.03v4.93c0 2.35 0.78 4.14 7.06 4.14z"/>
   <path d="m302.33 209.91c0 11.65-7.5 19.49-34.5 19.49s-34.61-7.84-34.61-19.49v-10.86c0-10.53 5.15-16.02 11.87-17.36-4.93-2.13-6.61-6.38-6.61-12.1v-6.5c0-10.98 6.94-17.7 29.46-17.7s29.12 6.72 29.12 17.7v6.5c0 5.71-1.68 9.97-6.61 12.1 6.72 1.34 11.87 6.83 11.87 17.36v10.86zm-34.49-0.11c8.18 0 9.74-1.79 9.74-4.14v-5.94c0-2.24-1.57-4.03-9.74-4.03s-9.86 1.79-9.86 4.03v5.94c0 2.35 1.79 4.14 9.86 4.14zm0-31.7c6.38 0 6.94-1.79 6.94-4.14v-4.93c0-2.24-0.56-4.03-6.94-4.03s-7.06 1.79-7.06 4.03v4.93c0 2.35 0.78 4.14 7.06 4.14z"/>
   <path class="st20" d="m91.51 226.61c-2.8 0-4.03-1.23-4.03-4.03v-13.55c0-2.8 1.23-4.03 4.03-4.03h12.54v-37.41h-10.3c-2.8 0-4.03-1.23-4.03-4.03v-13.55c0-2.8 1.23-4.03 4.03-4.03h32.48c2.8 0 4.03 1.23 4.03 4.03v54.99h10.75c2.8 0 4.03 1.23 4.03 4.03v13.55c0 2.8-1.23 4.03-4.03 4.03h-49.5z"/>
   <path class="st20" d="m223.78 208.8c0 11.65-7.5 19.49-34.5 19.49s-34.61-7.84-34.61-19.49v-10.86c0-10.53 5.15-16.02 11.87-17.36-4.93-2.13-6.61-6.38-6.61-12.1v-6.5c0-10.98 6.94-17.7 29.46-17.7s29.12 6.72 29.12 17.7v6.5c0 5.71-1.68 9.97-6.61 12.1 6.72 1.34 11.87 6.83 11.87 17.36v10.86zm-34.49-0.11c8.18 0 9.74-1.79 9.74-4.14v-5.94c0-2.24-1.57-4.03-9.74-4.03s-9.86 1.79-9.86 4.03v5.94c0 2.35 1.79 4.14 9.86 4.14zm0-31.7c6.38 0 6.94-1.79 6.94-4.14v-4.93c0-2.24-0.56-4.03-6.94-4.03s-7.06 1.79-7.06 4.03v4.93c0 2.35 0.78 4.14 7.06 4.14z"/>
   <path class="st20" d="m303.42 208.8c0 11.65-7.5 19.49-34.5 19.49s-34.61-7.84-34.61-19.49v-10.86c0-10.53 5.15-16.02 11.87-17.36-4.93-2.13-6.61-6.38-6.61-12.1v-6.5c0-10.98 6.94-17.7 29.46-17.7s29.12 6.72 29.12 17.7v6.5c0 5.71-1.68 9.97-6.61 12.1 6.72 1.34 11.87 6.83 11.87 17.36v10.86zm-34.5-0.11c8.18 0 9.74-1.79 9.74-4.14v-5.94c0-2.24-1.57-4.03-9.74-4.03s-9.86 1.79-9.86 4.03v5.94c0 2.35 1.79 4.14 9.86 4.14zm0-31.7c6.38 0 6.94-1.79 6.94-4.14v-4.93c0-2.24-0.56-4.03-6.94-4.03s-7.06 1.79-7.06 4.03v4.93c0 2.35 0.78 4.14 7.06 4.14z"/>
  </g>
 </g>
 <rect class="st28" x="186.32" y="67.86" width="64.23" height="38.89"/>
 <polygon class="st30" points="218.16 69.69 218.91 71.4 220.72 70.92 219.85 72.58 221.35 73.69 219.52 74.05 219.58 75.91 218.16 74.7 216.74 75.91 216.8 74.05 214.97 73.69 216.47 72.58 215.6 70.92 217.41 71.4"/>
 <polygon class="st27" points="228.28 76.81 229.03 78.52 230.84 78.05 229.97 79.7 231.47 80.82 229.64 81.17 229.7 83.04 228.28 81.83 226.86 83.04 226.92 81.17 225.09 80.82 226.58 79.7 225.72 78.05 227.52 78.52" data-name="Star_1"/>
 <polygon class="st24" points="208.59 79.19 209.34 80.9 211.15 80.42 210.28 82.08 211.78 83.19 209.95 83.55 210.01 85.41 208.59 84.2 207.17 85.41 207.23 83.55 205.4 83.19 206.89 82.08 206.03 80.42 207.83 80.9" data-name="Star_1"/>
 <polygon class="st25" points="218.16 98.7 218.91 100.41 220.72 99.93 219.85 101.59 221.35 102.7 219.52 103.06 219.58 104.92 218.16 103.71 216.74 104.92 216.8 103.06 214.97 102.7 216.47 101.59 215.6 99.93 217.41 100.41" data-name="Star_1"/>
 <polygon class="st29" points="223 85.66 223.54 86.65 224.65 86.86 223.87 87.68 224.02 88.8 223 88.31 221.98 88.8 222.12 87.68 221.35 86.86 222.46 86.65" data-name="Star_1"/>
 <rect class="st21" x="169.94" y="260.59" width="3.09" height="27.68"/>
 <rect class="st19" x="129.2" y="255.31" width="3.71" height="6.98"/>
 <rect class="st19" x="122.37" y="255.31" width="3.71" height="6.98"/>
 <rect class="st19" x="115.79" y="255.31" width="3.71" height="6.98"/>
 <rect class="st19" x="108.94" y="255.31" width="3.71" height="6.98"/>
 <rect class="st19" x="102.23" y="255.31" width="3.71" height="6.98"/>
 <rect class="st19" x="102.2" y="265.73" width="3.71" height="22.43"/>
 <rect class="st19" x="108.94" y="265.73" width="3.71" height="22.48"/>
 <rect class="st19" x="115.66" y="265.73" width="3.71" height="22.43"/>
 <rect class="st19" x="122.4" y="265.73" width="3.71" height="22.56"/>
 <rect class="st19" x="129.33" y="265.73" width="3.71" height="22.56"/>
 <rect class="st19" x="137.19" y="260.47" width="6.18" height="27.81"/>
 <rect class="st19" x="146.94" y="260.41" width="6.18" height="27.81"/>
 <rect class="st19" x="156.72" y="260.47" width="6.18" height="27.81"/>
 <rect class="st26" x="133.82" y="257.31" width="2.28" height="32.42"/>
 <line class="st19" x1="135.55" x2="169.91" y1="257.31" y2="257.31"/>
 <line class="st19" x1="99.6" x2="169.89" y1="290.01" y2="290.01"/>
 <line class="st19" x1="166.78" x2="169.94" y1="260.47" y2="260.47"/>
 <line class="st19" x1="166.77" x2="169.94" y1="288.28" y2="288.28"/>
 <line class="st19" x1="166.65" x2="166.65" y1="260.24" y2="288.55"/>
 <rect class="st7" x="202.7" y="260.47" width="6.18" height="27.81"/>
 <rect class="st7" x="212.45" y="260.47" width="6.18" height="27.81"/>
 <rect class="st7" x="222.23" y="260.41" width="6.18" height="27.81"/>
 <rect class="st7" x="232.29" y="260.47" width="6.18" height="27.81"/>
 <rect class="st7" x="243.46" y="264.99" width="3.87" height="23.3"/>
 <rect class="st7" x="250.32" y="264.99" width="3.87" height="23.3"/>
 <rect class="st7" x="256.92" y="264.99" width="3.87" height="23.3"/>
 <rect class="st7" x="263.67" y="264.99" width="3.87" height="23.3"/>
 <rect class="st7" x="270.5" y="265.03" width="3.87" height="23.3"/>
 <rect class="st7" x="270.62" y="254.52" width="3.87" height="7.47"/>
 <rect class="st7" x="263.63" y="254.52" width="3.87" height="7.47"/>
 <rect class="st7" x="257.02" y="254.54" width="3.87" height="7.47"/>
 <rect class="st7" x="250.39" y="254.54" width="3.87" height="7.47"/>
 <rect class="st7" x="243.46" y="254.54" width="3.87" height="7.47"/>
 <line class="st7" x1="277.07" x2="277.07" y1="252.19" y2="289.77"/>
 <line class="st7" x1="277.32" x2="240.94" y1="251.95" y2="251.95"/>
 <line class="st7" x1="277.32" x2="169.87" y1="290.01" y2="290.01"/>
 <line class="st19" x1="99.38" x2="99.38" y1="252.2" y2="290.26"/>
 <line class="st19" x1="135.55" x2="99.13" y1="252.2" y2="252.2"/>
 <line class="st19" x1="135.8" x2="135.8" y1="251.94" y2="257.53"/>
 <line class="st7" x1="182.38" x2="169.67" y1="257.31" y2="257.31"/>
 <line class="st7" x1="173.03" x2="169.94" y1="260.47" y2="260.47"/>
 <line class="st7" x1="173.03" x2="169.94" y1="288.28" y2="288.28"/>
 <line class="st7" x1="173.29" x2="173.29" y1="288.55" y2="260.23"/>
 <line class="st7" x1="240.95" x2="193.47" y1="256.87" y2="256.87"/>
 <line class="st7" x1="240.71" x2="240.71" y1="257.09" y2="251.7"/>
 <rect class="st7" x="193.78" y="270.22" width="6.18" height="18.05"/>
 <rect class="st7" x="184.79" y="270.22" width="6.18" height="18.18"/>
 <rect class="st7" x="175.71" y="270.22" width="6.18" height="18.18"/>
 <line class="st7" x1="190.98" x2="184.79" y1="267.8" y2="267.8"/>
 <line class="st7" x1="184.58" x2="184.58" y1="268.05" y2="259.52"/>
 <line class="st7" x1="182.13" x2="182.13" y1="259.52" y2="257.54"/>
 <line class="st7" x1="181.88" x2="184.36" y1="259.76" y2="259.76"/>
 <line class="st7" x1="193.26" x2="193.26" y1="259.56" y2="256.62"/>
 <line class="st7" x1="193.46" x2="190.72" y1="259.31" y2="259.31"/>
 <line class="st7" x1="190.72" x2="190.72" y1="267.59" y2="259.06"/>
</svg>
