<?xml version="1.0" encoding="UTF-8"?>
<!-- Created with Inkscape (http://www.inkscape.org/) -->
<svg width="133.1mm" height="133.1mm" version="1.1" viewBox="0 0 133.1 133.1" xmlns="http://www.w3.org/2000/svg" xmlns:cc="http://creativecommons.org/ns#" xmlns:dc="http://purl.org/dc/elements/1.1/" xmlns:rdf="http://www.w3.org/1999/02/22-rdf-syntax-ns#" xmlns:xlink="http://www.w3.org/1999/xlink">
 <metadata>
  <rdf:RDF>
   <cc:Work rdf:about="">
    <dc:format>image/svg+xml</dc:format>
    <dc:type rdf:resource="http://purl.org/dc/dcmitype/StillImage"/>
   </cc:Work>
  </rdf:RDF>
 </metadata>
 <g transform="translate(-57.427 -70.189)">
  <g fill="#fff" fill-rule="evenodd">
   <path transform="matrix(.26458 0 0 .26458 57.427 70.189)" d="m229.1 434.2c-39.037-5.2937-74.814-22.43-103.72-49.683l-19.15-18.053-9.491 5.5998c-5.22 3.0799-10.635 4.8927-12.033 4.0285-3.3148-2.0486-22.479-36.326-22.479-40.206 0-1.6414 4.3533-5.5528 9.674-8.6922l9.674-5.7078-5.6189-17.906c-13.311-42.42-9.0155-89.424 12.105-132.46 22.708-46.268 73.601-86.781 121.42-96.659l16.79-3.4679v-27.152h50.912v27.152l16.79 3.4679c23.919 4.9403 58.233 23.044 78.583 41.46 54.084 48.943 74.512 122.79 53.149 192.14-2.3553 7.6458-3.9618 14.166-3.5702 14.49 0.39168 0.32348 4.8487 2.6919 9.9046 5.2631 5.0558 2.5712 9.1924 6.3082 9.1924 8.3043 0 3.5505-17.795 34.813-22.608 39.718-1.3863 1.4128-6.823-0.23278-12.634-3.8242l-10.2-6.3042-14.646 14.879c-39.488 40.116-98.398 60.889-152.04 53.614z"/>
   <g fill-opacity=".99216" stroke-width="5.3993">
    <path transform="matrix(.26458 0 0 .26458 57.427 70.189)" d="m225.71 459.26c-43.865-6.0884-84.333-25.036-116.19-54.403-9.1404-8.4252-10.776-10.552-8.9144-11.593 1.7382-0.97277 4.7683 0.97876 12.765 8.2212 30.82 27.914 66.482 45.225 105.89 51.405 19.138 3.0008 56.728 2.2602 73.592-1.45 36.423-8.013 68.678-24.753 94.504-49.047 8.9563-8.4247 11.722-10.278 14.175-9.4991 2.8981 0.91981 2.777 1.2496-2.4586 6.6969-9.413 9.7937-27.708 23.926-41.177 31.808-21.703 12.7-43.491 20.953-68.007 25.758-14.071 2.7581-50.792 3.9614-64.18 2.1032z"/>
    <path transform="matrix(.26458 0 0 .26458 57.427 70.189)" d="m447.25 312.99c-1.2871-1.5509-1.0195-4.5676 1.1724-13.214 6.5933-26.009 7.5603-61.935 2.3395-86.919-16.022-76.671-70.564-135.23-145.3-156.01-7.107-1.9759-8.3206-2.8001-8.3206-5.6506 0-4.3687 1.2883-4.2654 18.945 1.5185 52.673 17.254 97.837 56.125 122.72 105.62 7.6975 15.31 16.162 41.414 19.07 58.808 4.4933 26.884 2.6178 63.862-4.5465 89.643-2.3854 8.584-3.3174 9.5349-6.0814 6.2046z"/>
    <path transform="matrix(.26458 0 0 .26458 57.427 70.189)" d="m48.851 303.21c-5.142-20.694-6.4015-34.082-5.587-59.392 0.59261-18.416 1.5789-27.262 4.346-38.981 16.976-71.892 69.498-129.31 139.16-152.13 17.674-5.7896 18.945-5.89 18.945-1.4963 0 2.9419-1.1984 3.6779-9.6429 5.9221-62.528 16.618-115.36 66.241-136.7 128.39-12.343 35.955-14.252 79.561-5.0496 115.34 1.9428 7.5529 2.2594 10.943 1.1472 12.283-2.7666 3.3336-3.6557 1.9996-6.6211-9.9348z"/>
   </g>
  </g>
  <g fill-rule="evenodd">
   <rect transform="matrix(-.49997 .86604 -.8659 -.50021 0 0)" x="49.516" y="-233.12" width="14.473" height="109.46" fill="#0047b6"/>
   <rect transform="matrix(-.50003 -.86601 .86615 -.49979 0 0)" x="-188.02" y="-18.406" width="14.473" height="109.46" fill="#0047b6"/>
   <path d="m121.72 182.12c-1.7396-1.4709-4.0146-2.7392-7.1264-3.9731-4.2799-1.697-7.8136-4.0374-11.813-7.8238-2.2793-2.1578-2.8424-2.509-4.0241-2.509-0.89966 0-1.0366 0.0959-1.4166 0.99219l-0.42064 0.99219-0.78276-0.92604c-1.1786-1.3943-1.8661-3.8794-2.0192-7.2981-0.10232-2.2856-0.0314-3.276 0.32152-4.49 0.54941-1.8899 1.3722-3.5578 1.755-3.5578 0.15495 0 1.0753 0.69589 2.0451 1.5464 0.96988 0.85053 2.3541 1.9451 3.076 2.4324 3.7621 2.5393 5.069 4.7728 3.3215 5.6765-1.5468 0.79989-1.2813 2.6275 0.61788 4.2532 1.4297 1.2238 5.7587 3.3073 9.0088 4.3359 3.4291 1.0852 5.5039 1.0622 6.3473-0.0705 0.53926-0.72421 0.55848-1.0976 0.72849-14.155 0.096-7.3762 0.24571-20.94 0.33259-30.141l0.15796-16.73-12.567-0.1418-0.0789-1.0738c-0.0434-0.59056 0.043-1.3942 0.19188-1.7859l0.27077-0.71217h12.449v-2.2385c0-1.4727-0.11316-2.3295-0.33073-2.5043-2.8279-2.2728-3.4818-3.3449-3.4818-5.7082 0-5.4366 6.501-8.1042 10.215-4.1914 2.6348 2.7761 1.8767 7.7805-1.4412 9.5135-0.70519 0.36834-0.7276 0.448-0.7276 2.5862v2.2062l1.2276 0.16825c0.67516 0.0925 3.5922 0.16826 6.4823 0.16826h5.2547v1.5551c0 1.1228-0.12147 1.656-0.43701 1.9182-0.33469 0.2781-1.8429 0.38358-6.4412 0.45046l-6.0042 0.0873-0.17191 5.2043c-0.80622 24.407-1.0753 84.099-0.45817 30.204l-0.28627 24.999 0.69643 0.59905c1.6332 1.4048 6.7691 0.28889 12.557-2.7285 3.1709-1.653 5.0912-2.9755 5.7251-3.943 0.8361-1.276-0.18162-2.6826-1.4499-2.0038-0.71509 0.38271-0.9084-0.0198-0.58025-1.2083 0.42311-1.5324 1.5118-2.8671 3.753-4.6008 1.1463-0.88674 2.5895-2.2116 3.2072-2.9442l1.1231-1.332 0.59021 0.68616c0.99722 1.1593 1.9827 4.7183 2.1311 7.6963 0.15687 3.1478-0.20701 5.1881-1.1977 6.716l-0.714 1.1012-0.51107-0.70159c-0.28109-0.38587-0.91177-0.869-1.4015-1.0736-0.79965-0.33412-1.0041-0.32015-2.0047 0.13699-0.61281 0.27997-2.1262 1.4107-3.3632 2.5128-3.0005 2.6733-7.4214 5.1581-13.171 7.4025-3.0944 1.208-5.7152 3.0612-7.0867 5.0111l-0.5172 0.73529zm3.6541-82.969c3.1831-1.5105 1.7021-6.3317-1.8006-5.862-2.9444 0.39484-3.5513 4.7056-0.82943 5.8912 1.0599 0.46167 1.6085 0.45558 2.6301-0.02921z" fill="#d21034" stop-color="#000000" stroke-width=".565" style="paint-order:stroke fill markers"/>
   <rect x="117.73" y="138.1" width="12.722" height="8.6061" fill="#d21034"/>
  </g>
  <g transform="translate(-.30973)" stroke="#fff" aria-label="184">
   <path d="m106.81 150.96c0.98778 0 1.4224-0.43462 1.4224-1.4224v-4.7808c0-0.98777-0.43462-1.4224-1.4224-1.4224h-3.7931v-19.4c0-0.98777-0.43462-1.4224-1.4224-1.4224h-11.458c-0.98778 0-1.4224 0.43463-1.4224 1.4224v4.7808c0 0.98777 0.43462 1.4224 1.4224 1.4224h3.635v13.197h-4.4252c-0.98778 0-1.4224 0.43463-1.4224 1.4224v4.7808c0 0.98778 0.43462 1.4224 1.4224 1.4224z"/>
   <path d="m136.01 140.85c0-3.714-1.8175-5.6501-4.1882-6.1242 1.7385-0.75071 2.3312-2.2521 2.3312-4.2672v-2.2916c0-3.8721-2.3312-6.2428-10.273-6.2428s-10.391 2.3707-10.391 6.2428v2.2916c0 2.0151 0.59267 3.5165 2.3312 4.2672-2.3707 0.47414-4.1882 2.4102-4.1882 6.1242v3.8326c0 4.1092 2.6868 6.8749 12.209 6.8749s12.169-2.7658 12.169-6.8749zm-14.659-8.8505v-1.7385c0-0.79022 0.27658-1.4224 2.4892-1.4224 2.2521 0 2.4497 0.63218 2.4497 1.4224v1.7385c0 0.82973-0.19756 1.4619-2.4497 1.4619-2.2126 0-2.4892-0.63218-2.4892-1.4619zm-0.98778 11.182v-2.0941c0-0.79022 0.63218-1.4224 3.477-1.4224 2.8843 0 3.4375 0.63218 3.4375 1.4224v2.0941c0 0.82973-0.55316 1.4619-3.4375 1.4619-2.8448 0-3.477-0.63218-3.477-1.4619z"/>
   <path d="m153.83 144.36v5.176c0 0.98778 0.43462 1.4224 1.4224 1.4224h6.0847c0.98777 0 1.4224-0.43462 1.4224-1.4224v-25.603c0-0.98777-0.43463-1.4224-1.4224-1.4224h-6.0847c-0.98778 0-1.4224 0.43463-1.4224 1.4224v12.169h-3.6745c-0.75072 0-1.2248-0.51364-1.2248-1.3434v-10.826c0-0.98777-0.43462-1.4224-1.4224-1.4224h-6.1242c-0.98778 0-1.4224 0.43463-1.4224 1.4224v13.868c0 4.5043 2.0546 6.5588 7.191 6.5588z"/>
  </g>
  <path d="m123.98 70.189c-36.689 0-66.549 29.86-66.549 66.549s29.86 66.549 66.549 66.549c36.689 0 66.549-29.86 66.549-66.549s-29.86-66.549-66.549-66.549zm0 10.992c2.4486 0 4.8586 0.15894 7.2223 0.46405v6.9345l1.9105 0.36327c5.0854 0.96618 9.95 2.7272 14.496 5.2483v-0.0026c4.8392 2.684 9.1641 6.1498 12.856 10.299 3.9012 4.3848 6.9459 9.3584 9.0547 14.797v3e-3h3e-3c2.1873 5.6347 3.2949 11.573 3.2949 17.678 0 5.5952-0.93308 11.053-2.7673 16.256l-0.64648 1.8355 5.7707 3.3512c-1.8958 4.4884-4.3659 8.6714-7.3153 12.462l-5.7371-3.3285-1.2754 1.4609c-4.1513 4.7649-9.2848 8.7781-14.875 11.606l-3e-3 3e-3c-3.347 1.6964-6.8913 3.0015-10.53 3.8752-3.7478 0.90103-7.6222 1.3648-11.514 1.3648-3.8867 0-7.7604-0.45892-11.498-1.3591h-3e-3c-3.6376-0.87357-7.1754-2.1777-10.525-3.869-5.5844-2.8216-10.718-6.8222-14.861-11.578l-1.2738-1.463-5.6632 3.2887c-2.9497-3.7906-5.4189-7.9735-7.3147-12.462l5.6927-3.3042-0.65267-1.8376c-1.847-5.2148-2.7848-10.693-2.7848-16.301 0-6.1125 1.107-12.057 3.3006-17.698h0.0026v-3e-3c2.1154-5.4518 5.165-10.426 9.08-14.818 3.7042-4.155 8.0354-7.6117 12.889-10.297 4.5516-2.5142 9.4298-4.2667 14.529-5.2266l1.9141-0.36174v-6.9169c2.3637-0.30512 4.7743-0.46405 7.2229-0.46405zm-11.922 1.2795v2.3652c-4.885 1.1089-9.6126 2.7789-14.016 5.211l-0.0026 0.0026c-5.3135 2.9392-10.069 6.7332-14.123 11.281-4.2817 4.8036-7.6352 10.272-9.9534 16.246-2.4039 6.1821-3.623 12.717-3.623 19.399 0 5.4614 0.94575 10.797 2.5549 15.945l-1.7689 1.0268c-1.753-5.413-2.7037-11.192-2.7037-17.199 0-26.654 18.643-48.84 43.635-54.277zm23.844 0c24.992 5.4374 43.635 27.624 43.635 54.277 0 6.0075-0.95046 11.787-2.7037 17.2l-1.8547-1.0769c1.597-5.133 2.5368-10.449 2.5368-15.896 0-6.675-1.2167-13.203-3.6132-19.377v-3e-3c-2.3111-5.9597-5.6577-11.426-9.9255-16.223-4.0402-4.5407-8.7872-8.3429-14.088-11.283-4.3966-2.4383-9.1124-4.1147-13.986-5.2302zm27.045 90.992 1.818 1.0552c-10.138 10.946-24.641 17.787-40.785 17.787-16.143 0-30.647-6.841-40.785-17.787l1.6578-0.96327c4.293 4.5778 9.3641 8.4585 14.928 11.27v3e-3c3.6694 1.8526 7.5475 3.2841 11.545 4.2442 4.1034 0.98827 8.3444 1.4883 12.6 1.4883 4.2645 0 8.5042-0.50866 12.611-1.496 3.9969-0.95983 7.8823-2.3908 11.555-4.2519 5.5644-2.8146 10.562-6.7715 14.855-11.348z" color="#000000" color-rendering="auto" dominant-baseline="auto" image-rendering="auto" shape-rendering="auto" solid-color="#000000" style="font-feature-settings:normal;font-variant-alternates:normal;font-variant-caps:normal;font-variant-ligatures:normal;font-variant-numeric:normal;font-variant-position:normal;isolation:auto;mix-blend-mode:normal;paint-order:markers stroke fill;shape-padding:0;text-decoration-color:#000000;text-decoration-line:none;text-decoration-style:solid;text-indent:0;text-orientation:mixed;text-transform:none;white-space:normal"/>
 </g>
</svg>
