<?xml version="1.0" encoding="UTF-8"?>
<!-- Created with Inkscape (http://www.inkscape.org/) -->
<svg width="133.1mm" height="133.1mm" version="1.1" viewBox="0 0 133.1 133.1" xmlns="http://www.w3.org/2000/svg" xmlns:cc="http://creativecommons.org/ns#" xmlns:dc="http://purl.org/dc/elements/1.1/" xmlns:rdf="http://www.w3.org/1999/02/22-rdf-syntax-ns#">
 <defs>
  <clipPath id="clipPath8261">
   <path d="m116.6 188.7c-11.8-1.6384-22.399-7.0554-30.861-15.771-1.7559-1.8088-3.2908-3.2887-3.411-3.2887s-1.4863 0.73095-3.0359 1.6243c-1.5495 0.89337-2.8739 1.6243-2.943 1.6243-0.49308 0-7.5185-11.899-7.5185-12.734 0-0.0926 1.3248-0.94731 2.9441-1.8994s2.9707-1.7495 3.0032-1.7721c0.0325-0.0226-0.453-1.6057-1.0789-3.5179-1.9191-5.8634-2.5667-10.932-2.3244-18.191 0.16565-4.9631 0.43311-7.1944 1.2237-10.209 3.2918-12.552 9.8138-22.312 20.012-29.95 5.5131-4.1287 14.016-7.8792 20.584-9.0793l2.741-0.50086v-7.4594l2.496-0.26089c3.1557-0.32984 7.6403-0.32887 10.397 0.0022l2.1319 0.25607v3.8012c0 3.4571 0.0695 3.8012 0.7677 3.8012 1.617 0 8.6822 2.0835 12.183 3.5926 13.97 6.0227 24.539 17.611 29.261 32.085 3.268 10.015 3.2802 21.729 0.0331 31.826-0.65932 2.0502-1.1603 3.7545-1.1133 3.7872 0.047 0.0327 1.4103 0.82545 3.0296 1.7616 1.6192 0.9361 2.9441 1.7899 2.9441 1.8973 0 0.6027-3.2453 6.5389-5.1478 9.4162l-2.2171 3.3531-6.295-3.4115-2.9964 3.1544c-7.1339 7.5101-16.399 12.827-26.349 15.12-4.9152 1.133-13.816 1.5872-18.461 0.94223z" fill="none" stroke="#f00" stroke-linecap="round" stroke-width=".76739" style="paint-order:stroke fill markers"/>
  </clipPath>
  <clipPath id="clipPath8265">
   <path d="m120.3 190.82c-11.8-1.6384-22.399-7.0554-30.861-15.771-1.7559-1.8088-3.2908-3.2887-3.411-3.2887s-1.4863 0.73095-3.0359 1.6243c-1.5495 0.89337-2.8739 1.6243-2.943 1.6243-0.49308 0-7.5185-11.899-7.5185-12.734 0-0.0926 1.3248-0.94731 2.9441-1.8994s2.9707-1.7495 3.0032-1.7721c0.0325-0.0226-0.453-1.6057-1.0789-3.5179-1.9191-5.8634-2.5667-10.932-2.3244-18.191 0.16565-4.9631 0.43311-7.1944 1.2237-10.209 3.2918-12.552 9.8138-22.312 20.012-29.95 5.5131-4.1287 14.016-7.8792 20.584-9.0793l2.741-0.50086v-7.4594l2.496-0.26089c3.1557-0.32984 7.6403-0.32887 10.397 0.0022l2.1319 0.25607v3.8012c0 3.4571 0.0695 3.8012 0.7677 3.8012 1.617 0 8.6822 2.0835 12.183 3.5926 13.97 6.0227 24.539 17.611 29.261 32.085 3.268 10.015 3.2802 21.729 0.0331 31.826-0.65932 2.0502-1.1603 3.7545-1.1133 3.7872 0.047 0.0327 1.4103 0.82545 3.0296 1.7616 1.6192 0.93611 2.9441 1.7899 2.9441 1.8973 0 0.6027-3.2453 6.5389-5.1478 9.4163l-2.2171 3.3531-6.295-3.4115-2.9964 3.1544c-7.1339 7.5101-16.399 12.827-26.349 15.12-4.9152 1.133-13.816 1.5872-18.461 0.94222z" fill="none" stroke="#f00" stroke-linecap="round" stroke-width=".76739" style="paint-order:stroke fill markers"/>
  </clipPath>
  <clipPath id="clipPath2687">
   <path d="m113.93 221.01c-17.249-2.3985-32.743-10.328-45.111-23.087-2.5667-2.6478-4.8104-4.8142-4.9861-4.8142-0.1757 0-2.1727 1.07-4.4378 2.3778-2.2651 1.3078-4.2009 2.3778-4.3019 2.3778-0.72076 0-10.99-17.418-10.99-18.64 0-0.13555 1.9366-1.3867 4.3035-2.7804 2.367-1.3937 4.3424-2.5611 4.3899-2.5942 0.04751-0.0331-0.66218-2.3505-1.5771-5.1498-2.8052-8.5832-3.7519-16.003-3.3978-26.63 0.24214-7.2654 0.6331-10.532 1.7888-14.945 4.8119-18.374 14.346-32.662 29.254-43.843 8.0589-6.0439 20.488-11.534 30.089-13.291l4.0068-0.73319v-10.92l3.6486-0.38191c4.6129-0.48284 11.168-0.48142 15.198 0.0032l3.1164 0.37486v5.5644c0 5.0607 0.1016 5.5644 1.1222 5.5644 2.3637 0 12.691 3.05 17.808 5.2592 20.42 8.8164 35.87 25.781 42.773 46.968 4.7771 14.661 4.7949 31.808 0.0484 46.589-0.96376 3.0013-1.6961 5.4961-1.6273 5.544 0.0687 0.0479 2.0616 1.2084 4.4285 2.5787 2.3669 1.3703 4.3036 2.6202 4.3036 2.7774 0 0.88225-4.7438 9.572-7.525 13.784l-3.2409 4.9086-9.2018-4.994-4.38 4.6176c-10.428 10.994-23.972 18.777-38.516 22.134-7.1849 1.6585-20.195 2.3235-26.986 1.3793z" fill="none" stroke="#f00" stroke-linecap="round" stroke-width="1.1226" style="paint-order:stroke fill markers"/>
  </clipPath>
 </defs>
 <metadata>
  <rdf:RDF>
   <cc:Work rdf:about="">
    <dc:format>image/svg+xml</dc:format>
    <dc:type rdf:resource="http://purl.org/dc/dcmitype/StillImage"/>
   </cc:Work>
  </rdf:RDF>
 </metadata>
 <g transform="translate(-57.427 -70.189)">
  <g transform="matrix(.6841 0 0 .68312 39.164 38.137)" clip-path="url(#clipPath2687)">
   <path d="m72.83 57.973v159.37h-17.049v-159.37z" fill="#750787" stroke-width=".010902"/>
   <path d="m89.879 57.973v159.37h-17.049v-159.37z" fill="#004dff" stroke-width=".011943"/>
   <path d="m123.98 57.973v159.37h-17.049v-159.37z" fill="#008026" stroke-width=".013352"/>
   <path d="m141.02 57.973v159.37h-17.049v-159.37z" fill="#ffed00" stroke-width=".015418"/>
   <path d="m158.07 57.973v159.37h-17.049v-159.37z" fill="#ff8c00" stroke-width=".018883"/>
   <g stroke-width=".026705">
    <path d="m175.12 57.973v159.37h-17.049v-159.37z" fill="#e40303"/>
    <path d="m192.17 57.973v159.37h-17.049v-159.37z" fill="#ffafc8"/>
    <path d="m106.93 57.973v159.37h-17.049v-159.37z" fill="#74d7ee"/>
   </g>
  </g>
  <g fill="#fff" fill-rule="evenodd">
   <g fill-opacity=".99216" stroke-width="5.3993">
    <path transform="matrix(.26458 0 0 .26458 57.427 70.189)" d="m225.71 459.26c-43.865-6.0884-84.333-25.036-116.19-54.403-9.1404-8.4252-10.776-10.552-8.9144-11.593 1.7382-0.97277 4.7683 0.97876 12.765 8.2212 30.82 27.914 66.482 45.225 105.89 51.405 19.138 3.0008 56.728 2.2602 73.592-1.45 36.423-8.013 68.678-24.753 94.504-49.047 8.9563-8.4247 11.722-10.278 14.175-9.4991 2.8981 0.91981 2.777 1.2496-2.4586 6.6969-9.413 9.7937-27.708 23.926-41.177 31.808-21.703 12.7-43.491 20.953-68.007 25.758-14.071 2.7581-50.792 3.9614-64.18 2.1032z"/>
    <path transform="matrix(.26458 0 0 .26458 57.427 70.189)" d="m447.25 312.99c-1.2871-1.5509-1.0195-4.5676 1.1724-13.214 6.5933-26.009 7.5603-61.935 2.3395-86.919-16.022-76.671-70.564-135.23-145.3-156.01-7.107-1.9759-8.3206-2.8001-8.3206-5.6506 0-4.3687 1.2883-4.2654 18.945 1.5185 52.673 17.254 97.837 56.125 122.72 105.62 7.6975 15.31 16.162 41.414 19.07 58.808 4.4933 26.884 2.6178 63.862-4.5465 89.643-2.3854 8.584-3.3174 9.5349-6.0814 6.2046z"/>
    <path transform="matrix(.26458 0 0 .26458 57.427 70.189)" d="m48.851 303.21c-5.142-20.694-6.4015-34.082-5.587-59.392 0.59261-18.416 1.5789-27.262 4.346-38.981 16.976-71.892 69.498-129.31 139.16-152.13 17.674-5.7896 18.945-5.89 18.945-1.4963 0 2.9419-1.1984 3.6779-9.6429 5.9221-62.528 16.618-115.36 66.241-136.7 128.39-12.343 35.955-14.252 79.561-5.0496 115.34 1.9428 7.5529 2.2594 10.943 1.1472 12.283-2.7666 3.3336-3.6557 1.9996-6.6211-9.9348z"/>
   </g>
   <path transform="matrix(.26458 0 0 .26458 57.427 70.189)" d="m50.054 307.59c-5.3927-18.159-7.1057-31.761-7.0728-56.164 0.03617-26.881 2.0183-40.256 9.4132-63.52 10.294-32.383 26.231-58.143 51.799-83.724 25.935-25.948 50.557-41.143 84.038-51.863 16.763-5.3669 18.197-5.46 18.197-1.1799 0 2.9353-1.4818 3.7017-13.912 7.1955-28.433 7.9917-57.39 24.621-80.1 45.998-53.428 50.295-75.885 125.41-58.321 195.08 3.0888 12.252 3.1242 12.963 0.70945 14.255-2.1923 1.1733-2.845 0.33773-4.7518-6.0829z" style="paint-order:stroke fill markers"/>
   <path transform="matrix(.26458 0 0 .26458 57.427 70.189)" d="m447.66 313.49c-2.0593-1.1525-1.9604-2.5959 1.0243-14.942 21.983-90.932-21.986-185.35-105.96-227.53-11.27-5.661-27.293-11.687-38.799-14.591-5.1478-1.2994-6.0714-2.0848-6.0714-5.1624 0-3.3505 0.35739-3.552 4.6429-2.6178 36.573 7.9722 79.524 34.289 106.28 65.122 44.961 51.807 61.742 120.07 46.044 187.29-1.6037 6.8681-3.3595 12.762-3.9017 13.097-0.54223 0.33511-2.0116 0.0353-3.2654-0.66642z" style="paint-order:stroke fill markers"/>
  </g>
  <g>
   <path transform="translate(-3.175 -2.1167)" d="m185.05 88.408c-3.4359 1.8078-6.3014 3.8643-8.8469 6.3493-2.6309 2.5683-3.9034 4.2249-5.6344 7.3349-1.8266 3.2818-2.7959 6.0485-3.2811 9.3654-0.3546 2.4239-0.52807 7.601-0.28073 8.3783 0.0587 0.1844 0.60377 0.32684 1.2113 0.31654 1.2161-0.0206 1.3022 0.0622 0.98806 0.95152-0.14174 0.40132-0.0154 1.2554 0.37276 2.5191 0.71778 2.337 0.71567 3.7803-6e-3 4.133-0.37135 0.18147-0.4641 0.43142-0.32375 0.87251 0.13952 0.43848 0.021 0.76368-0.40762 1.1186-4.6521 3.8523-8.2461 8.2498-9.2757 11.35-0.63064 1.8986-0.29899 2.4516 2.3795 3.9678 1.2776 0.72319 2.4576 1.528 2.6223 1.7885 0.36322 0.57443 0.15832 1.6891-0.7121 3.874-0.56425 1.4163-0.60352 1.8111-0.28065 2.8212 0.20637 0.64599 0.64779 1.445 0.9807 1.7757 0.57041 0.56656 0.58185 0.65798 0.19853 1.5867-0.46799 1.1338-0.13008 2.0698 1.3324 3.6909 1.1856 1.3142 1.2889 1.8328 0.6676 3.3531-0.90487 2.2142-0.61359 4.1109 0.87856 5.7208 1.45 1.5644 2.4636 1.9211 5.9538 2.0954 2.7602 0.13779 10.555-0.29659 11.689-0.6514 0.86386-0.27025 4.4984 0.48267 5.6891 1.1785 1.6203 0.94698 1.7156 1.0455 4.5089 4.6656 24.324 160.47 133.84-161.35-10.424-88.556z" clip-path="url(#clipPath8265)" stroke-width=".26458"/>
   <path transform="translate(.52917)" d="m67.634 93.321c1.2412 0.52769 3.5401 1.7998 5.1088 2.8268 3.8038 2.4905 6.1454 5.1785 7.7275 8.871 2.502 5.8395 2.8026 6.7479 2.6816 8.105-0.14044 1.5751-0.88897 3.6431-1.6151 4.462l-0.55049 0.62077 1.0036 1.8888c1.1962 2.2512 1.4632 3.5438 0.98849 4.7847-0.5731 1.4981-0.93326 4.6764-0.61311 5.4106 0.15848 0.3635 1.2423 1.7181 2.4084 3.0103 1.1662 1.2922 2.7621 3.2521 3.5466 4.3553 3.841 5.4021 3.8954 7.5074 0.22758 8.8076-1.648 0.58419-1.922 1.1634-1.7248 3.6462 0.20792 2.6172-7e-3 3.683-0.93352 4.6327-0.51711 0.52994-0.68088 0.94834-0.58709 1.4999 0.23341 1.3726-0.10788 2.1331-1.5171 3.3808-1.9515 1.7279-2.0676 2.008-1.8475 4.4571 0.27802 3.0929-0.40539 4.5484-2.8904 6.1557-1.276 0.82536-1.4214 0.86043-4.2941 1.0358-26.072 1.0086-31.354-87.618-7.1194-77.951z" clip-path="url(#clipPath8261)" stroke-width=".26866"/>
   <path d="m123.98 70.189c-36.689 0-66.549 29.86-66.549 66.549s29.86 66.549 66.549 66.549c36.689 0 66.549-29.86 66.549-66.549s-29.86-66.549-66.549-66.549zm0 10.992c2.4486 0 4.8586 0.15894 7.2223 0.46405v6.9345l1.9105 0.36327c5.0854 0.96618 9.95 2.7272 14.496 5.2483v-0.0026c4.8392 2.684 9.1641 6.1498 12.856 10.299 3.9012 4.3848 6.9459 9.3584 9.0547 14.797v3e-3h3e-3c2.1873 5.6347 3.2949 11.573 3.2949 17.678 0 5.5952-0.93308 11.053-2.7673 16.256l-0.64648 1.8355 5.7707 3.3512c-1.8958 4.4884-4.3659 8.6714-7.3153 12.462l-5.7371-3.3285-1.2754 1.4609c-4.1513 4.7649-9.2848 8.7781-14.875 11.606l-3e-3 3e-3c-3.347 1.6964-6.8913 3.0015-10.53 3.8752-3.7478 0.90103-7.6222 1.3648-11.514 1.3648-3.8867 0-7.7604-0.45892-11.498-1.3591h-3e-3c-3.6376-0.87357-7.1754-2.1777-10.525-3.869-5.5844-2.8216-10.718-6.8222-14.861-11.578l-1.2738-1.463-5.6632 3.2887c-2.9497-3.7906-5.4189-7.9735-7.3147-12.462l5.6927-3.3042-0.65267-1.8376c-1.847-5.2148-2.7848-10.693-2.7848-16.301 0-6.1125 1.107-12.057 3.3006-17.698h0.0026v-3e-3c2.1154-5.4518 5.165-10.426 9.08-14.818 3.7042-4.155 8.0354-7.6117 12.889-10.297 4.5516-2.5142 9.4298-4.2667 14.529-5.2266l1.9141-0.36174v-6.9169c2.3637-0.30512 4.7743-0.46405 7.2229-0.46405zm-11.922 1.2795v2.3652c-4.885 1.1089-9.6126 2.7789-14.016 5.211l-0.0026 0.0026c-5.3135 2.9392-10.069 6.7332-14.123 11.281-4.2817 4.8036-7.6352 10.272-9.9534 16.246-2.4039 6.1821-3.623 12.717-3.623 19.399 0 5.4614 0.94575 10.797 2.5549 15.945l-1.7689 1.0268c-1.753-5.413-2.7037-11.192-2.7037-17.199 0-26.654 18.643-48.84 43.635-54.277zm23.844 0c24.992 5.4374 43.635 27.624 43.635 54.277 0 6.0075-0.95046 11.787-2.7037 17.2l-1.8547-1.0769c1.597-5.133 2.5368-10.449 2.5368-15.896 0-6.675-1.2167-13.203-3.6132-19.377v-3e-3c-2.3111-5.9597-5.6577-11.426-9.9255-16.223-4.0402-4.5407-8.7872-8.3429-14.088-11.283-4.3966-2.4383-9.1124-4.1147-13.986-5.2302zm27.045 90.992 1.818 1.0552c-10.138 10.946-24.641 17.787-40.785 17.787-16.143 0-30.647-6.841-40.785-17.787l1.6578-0.96327c4.293 4.5778 9.3641 8.4585 14.928 11.27v3e-3c3.6694 1.8526 7.5475 3.2841 11.545 4.2442 4.1034 0.98827 8.3444 1.4883 12.6 1.4883 4.2645 0 8.5042-0.50866 12.611-1.496 3.9969-0.95983 7.8823-2.3908 11.555-4.2519 5.5644-2.8146 10.562-6.7715 14.855-11.348z" color="#000000" color-rendering="auto" dominant-baseline="auto" image-rendering="auto" shape-rendering="auto" solid-color="#000000" style="font-feature-settings:normal;font-variant-alternates:normal;font-variant-caps:normal;font-variant-ligatures:normal;font-variant-numeric:normal;font-variant-position:normal;isolation:auto;mix-blend-mode:normal;paint-order:markers stroke fill;shape-padding:0;text-decoration-color:#000000;text-decoration-line:none;text-decoration-style:solid;text-indent:0;text-orientation:mixed;text-transform:none;white-space:normal"/>
  </g>
  <g stroke="#fff" aria-label="58">
   <path d="m113.15 150.96c4.7413 0 7.7047-2.5287 7.7047-6.5588v-5.492c0-4.1882-2.6472-6.2823-6.9144-6.2823h-5.413v-2.5682h9.4827c0.98777 0 1.4224-0.43462 1.4224-1.4224v-4.7018c0-0.98777-0.43463-1.4224-1.4224-1.4224h-17.029c-0.98778 0-1.4224 0.43463-1.4224 1.4224v14.777c0 0.98777 0.43462 1.4224 1.4224 1.4224h9.7988c0.63218 0 1.0668 0.27657 1.0668 0.90875v1.5409c0 0.63218-0.43462 0.90876-1.0668 0.90876h-10.194c-0.98778 0-1.4224 0.43462-1.4224 1.4224v4.6228c0 0.98778 0.43462 1.4224 1.4224 1.4224z"/>
   <path d="m148.79 140.85c0-3.714-1.8175-5.6501-4.1882-6.1242 1.7385-0.75071 2.3312-2.2521 2.3312-4.2672v-2.2916c0-3.8721-2.3312-6.2428-10.273-6.2428s-10.391 2.3707-10.391 6.2428v2.2916c0 2.0151 0.59267 3.5165 2.3312 4.2672-2.3707 0.47414-4.1882 2.4102-4.1882 6.1242v3.8326c0 4.1092 2.6868 6.8749 12.209 6.8749 9.5222 0 12.169-2.7658 12.169-6.8749zm-14.659-8.8505v-1.7385c0-0.79022 0.27658-1.4224 2.4892-1.4224 2.2521 0 2.4497 0.63218 2.4497 1.4224v1.7385c0 0.82973-0.19756 1.4619-2.4497 1.4619-2.2126 0-2.4892-0.63218-2.4892-1.4619zm-0.98778 11.182v-2.0941c0-0.79022 0.63218-1.4224 3.477-1.4224 2.8843 0 3.4375 0.63218 3.4375 1.4224v2.0941c0 0.82973-0.55316 1.4619-3.4375 1.4619-2.8448 0-3.477-0.63218-3.477-1.4619z"/>
  </g>
 </g>
</svg>
