<?xml version="1.0" encoding="UTF-8"?>
<!-- Created with Inkscape (http://www.inkscape.org/) -->
<svg width="133.1mm" height="133.1mm" version="1.1" viewBox="0 0 133.1 133.1" xmlns="http://www.w3.org/2000/svg" xmlns:cc="http://creativecommons.org/ns#" xmlns:dc="http://purl.org/dc/elements/1.1/" xmlns:rdf="http://www.w3.org/1999/02/22-rdf-syntax-ns#">
 <title>Site-313</title>
 <defs>
  <clipPath id="clipPath15377">
   <path d="m411.61 607.61c-55.702-9.5863-105.74-41.28-145.68-92.276-8.2886-10.583-15.534-19.242-16.102-19.242s-7.0163 4.2767-14.331 9.5036c-7.3146 5.2271-13.566 9.5037-13.892 9.5037-2.3495 0-35.491-69.629-35.491-74.565 0-0.57707 6.458-5.6854 14.351-11.353 7.8931-5.668 13.983-11.375 13.534-12.681-7.9799-23.204-16.384-73.33-16.384-97.723v-15.132h492.64l-0.0102 13.661c-0.0102 20.081-4.988 54.706-11.434 79.551-3.1123 11.996-5.4772 21.967-5.2553 22.159 0.22205 0.19194 6.6576 4.8295 14.301 10.307 7.6437 5.4771 13.898 10.472 13.898 11.101 0 3.5264-15.319 38.258-24.3 55.093l-10.466 19.619-29.716-19.96-14.144 18.456c-33.675 43.941-77.412 75.048-124.38 88.467-23.202 6.6288-65.216 9.2866-87.145 5.5128z" fill="#dc143c" fill-rule="evenodd" stroke-width="11.292"/>
  </clipPath>
 </defs>
 <metadata>
  <rdf:RDF>
   <cc:Work rdf:about="">
    <dc:format>image/svg+xml</dc:format>
    <dc:type rdf:resource="http://purl.org/dc/dcmitype/StillImage"/>
    <dc:title>Site-313</dc:title>
   </cc:Work>
  </rdf:RDF>
 </metadata>
 <g transform="translate(-57.427 -70.438)">
  <g transform="matrix(.2076 0 0 .16965 31.597 85.379)" clip-path="url(#clipPath15377)">
   <path d="m195.67 300h495.33v300l-503.66-5.0945z" fill="#003087"/>
   <path d="m203.17 450h491.17l-3.3306 150h-487.01z" fill="#c8102e"/>
  </g>
  <g fill="#fff" fill-opacity=".99216" fill-rule="evenodd" stroke-width="5.3993">
   <path transform="matrix(.26458 0 0 .26458 57.427 70.189)" d="m225.71 459.26c-43.865-6.0884-84.333-25.036-116.19-54.403-9.1404-8.4252-10.776-10.552-8.9144-11.593 1.7382-0.97277 4.7683 0.97876 12.765 8.2212 30.82 27.914 66.482 45.225 105.89 51.405 19.138 3.0008 56.728 2.2602 73.592-1.45 36.423-8.013 68.678-24.753 94.504-49.047 8.9563-8.4247 11.722-10.278 14.175-9.4991 2.8981 0.91981 2.777 1.2496-2.4586 6.6969-9.413 9.7937-27.708 23.926-41.177 31.808-21.703 12.7-43.491 20.953-68.007 25.758-14.071 2.7581-50.792 3.9614-64.18 2.1032z"/>
   <path transform="matrix(.26458 0 0 .26458 57.427 70.189)" d="m447.25 312.99c-1.2871-1.5509-1.0195-4.5676 1.1724-13.214 6.5933-26.009 7.5603-61.935 2.3395-86.919-16.022-76.671-70.564-135.23-145.3-156.01-7.107-1.9759-8.3206-2.8001-8.3206-5.6506 0-4.3687 1.2883-4.2654 18.945 1.5185 52.673 17.254 97.837 56.125 122.72 105.62 7.6975 15.31 16.162 41.414 19.07 58.808 4.4933 26.884 2.6178 63.862-4.5465 89.643-2.3854 8.584-3.3174 9.5349-6.0814 6.2046z"/>
   <path transform="matrix(.26458 0 0 .26458 57.427 70.189)" d="m48.851 303.21c-5.142-20.694-6.4015-34.082-5.587-59.392 0.59261-18.416 1.5789-27.262 4.346-38.981 16.976-71.892 69.498-129.31 139.16-152.13 17.674-5.7896 18.945-5.89 18.945-1.4963 0 2.9419-1.1984 3.6779-9.6429 5.9221-62.528 16.618-115.36 66.241-136.7 128.39-12.343 35.955-14.252 79.561-5.0496 115.34 1.9428 7.5529 2.2594 10.943 1.1472 12.283-2.7666 3.3336-3.6557 1.9996-6.6211-9.9348z"/>
  </g>
  <path transform="matrix(.26458 0 0 .26458 57.427 70.189)" d="m227.34 434.91c-41.512-5.764-78.8-24.821-108.57-55.483-6.1771-6.3632-11.577-11.569-12-11.569-0.42285 0-5.2289 2.5714-10.68 5.7143-5.4512 3.1429-10.11 5.7143-10.353 5.7143-1.751 0-26.45-41.866-26.45-44.834 0-0.34654 4.8129-3.4184 10.695-6.8264 5.8824-3.408 10.421-6.8392 10.086-7.6249-5.947-13.952-12.21-44.091-12.21-58.759v-9.0986h367.14l-6e-3 8.2143c-9e-3 12.074-3.7174 32.893-8.5214 47.832-2.3195 7.2127-4.0819 13.208-3.9165 13.323s4.9615 2.9039 10.658 6.1971c5.6964 3.2932 10.357 6.2968 10.357 6.6746 0 2.1203-11.417 23.004-18.11 33.126l-7.7997 11.796-22.146-12.002-10.541 11.097c-25.097 26.42-57.691 45.125-92.695 53.193-17.291 3.9857-48.603 5.5838-64.945 3.3147z" fill="none" stroke-width="7.559"/>
  <path d="m70.703 134.39c0.77817-12.892 5.8756-24.704 14.622-33.883 4.7061-4.9388 9.1541-8.1784 15.433-11.241 4.3489-2.1208 7.8151-3.3247 12.241-4.2513l3.0973-0.6485v-7.4532l1.0956-0.23163c1.4234-0.30095 12.162-0.30095 13.585 0l1.0956 0.23163v7.4734l2.5563 0.5053c10.907 2.1559 21.723 8.3679 29.206 16.774 7.8876 8.8604 12.822 20.596 13.432 31.944l0.17884 3.33h-106.7z" fill="#ffcd00"/>
  <g transform="matrix(1.1384 0 0 1.1384 -17.161 -18.607)" fill="#078930" fill-rule="evenodd">
   <g stroke-width="8.0812">
    <path transform="matrix(.26458 0 0 .26458 57.427 70.438)" d="m140.41 325.95c-21.079-12.505-46.704-39.266-56.315-58.813l-7.7236-15.707 3.3736-8.5368c5.4355-13.754 18.56-32.519 31.135-44.513 11.008-10.5 38.226-29.684 42.115-29.684 0.97641 0 4.8978 3.2216 8.7143 7.1592 5.7548 5.9375 6.4258 7.4836 3.9318 9.0604-1.6539 1.0457-3.757 1.9152-4.6736 1.9322s-8.1276 4.2106-16.024 9.319c-17.705 11.453-33.292 27.171-41.946 42.296-6.2971 11.006-6.4406 11.735-3.5083 17.826 10.155 21.094 35.06 44.819 59.728 56.898l10.962 5.3674-7.7173 7.9033c-4.2445 4.3468-7.7601 7.8983-7.8124 7.8922-0.0523-6e-3 -6.459-3.7865-14.237-8.4009z" stop-color="#000000" style="paint-order:stroke fill markers"/>
    <path transform="matrix(.26458 0 0 .26458 57.427 70.438)" d="m181.23 167.12-7.6712-7.8837 14.742-4.305c21.252-6.2062 37.957-8.4292 63.47-8.4466 24.006-0.0163 49.669 3.6451 66.991 9.5576l10.663 3.6395-15.863 15.489-14.853-3.4759c-29.818-6.9779-65.55-6.2204-104.76 2.2208-3.9774 0.85633-6.681-0.58799-12.722-6.7962z" stop-color="#000000" style="paint-order:stroke fill markers"/>
    <path transform="matrix(.26458 0 0 .26458 57.427 70.438)" d="m341.46 325.3c-3.7533-3.8724-6.4318-7.3996-5.9522-7.8382 0.47963-0.43856 5.4311-3.0865 11.003-5.8844 23.547-11.823 47.143-34.697 57.076-55.332 2.9325-6.0917 2.8094-6.8572-2.6004-16.162-12.371-21.279-31.575-39.125-54.475-50.624-5.5722-2.7978-10.524-5.4458-11.003-5.8844-1.1806-1.0795 12.315-14.879 14.552-14.879 3.8888 0 31.107 19.184 42.115 29.684 12.575 11.994 25.7 30.759 31.135 44.513l3.3736 8.5368-7.5671 15.315c-9.5424 19.312-30.339 41.932-51.058 55.534-8.4304 5.5345-16.328 10.063-17.551 10.063-1.2224 0-5.2935-3.1684-9.0468-7.0408z" stop-color="#000000" style="paint-order:stroke fill markers"/>
    <path transform="matrix(.26458 0 0 .26458 57.427 70.438)" d="m204.68 350.48c-10.209-2.1999-21.063-4.9506-24.119-6.1127l-5.5574-2.1129 15.914-15.881 19.193 3.9683c26.031 5.3821 56.567 5.2837 84.167-0.27121l21.328-4.2926 7.3567 7.3803c8.9565 8.9853 8.487 9.4204-16.887 15.65-26.292 6.4554-75.435 7.2656-101.39 1.6717z" stop-color="#000000" style="paint-order:stroke fill markers"/>
   </g>
   <path d="m108.45 144.13c-2.5589-5.0497-2.2294-12.481 0.72728-16.4l0.90973-1.206 10.131 10.173-10.31 10.31z" stop-color="#000000" stroke-width="2.1382" style="paint-order:stroke fill markers"/>
   <path d="m116.61 122.97c5.0497-2.586 12.481-2.253 16.4 0.73498l1.2061 0.91934-10.173 10.238-10.31-10.419z" stop-color="#000000" stroke-width="2.1494" style="paint-order:stroke fill markers"/>
   <path d="m131.34 151.68c-5.0497 2.5979-12.481 2.2633-16.4-0.73836l-1.206-0.92356 10.173-10.285 10.31 10.467z" stop-color="#000000" stroke-width="2.1544" style="paint-order:stroke fill markers"/>
   <path d="m138.97 144.13c2.5589-5.0497 2.2294-12.481-0.72728-16.4l-0.90973-1.206-10.131 10.173 10.31 10.31z" stop-color="#000000" stroke-width="2.1382" style="paint-order:stroke fill markers"/>
  </g>
  <g stroke="#fff" aria-label="313">
   <path d="m90.155 143.74c-0.98778 0-1.4224 0.43463-1.4224 1.4224v4.6228c0 0.98777 0.43462 1.4224 1.4224 1.4224h12.485c5.0574 0 7.6651-2.4892 7.6651-6.5588v-3.9511c0-3.477-1.2248-5.2945-4.9784-5.7291 1.7385-0.75071 2.3312-2.2521 2.3312-4.2672v-2.2916c0-3.477-2.0941-5.6501-6.4798-5.6501h-11.024c-0.98778 0-1.4224 0.43462-1.4224 1.4224v4.7018c0 0.98777 0.43462 1.4224 1.4224 1.4224h7.349c1.2644 0 1.5014 0.55316 1.5014 1.1853v0.59267c0 0.63218-0.23707 1.1853-1.5014 1.1853h-4.1487c-0.98778 0-1.4224 0.43462-1.4224 1.4224v4.2277c0 0.98778 0.43462 1.4224 1.4224 1.4224h6.7169c1.2644 0 1.5014 0.51364 1.5014 1.1458v1.0668c0 0.63218-0.23707 1.1853-1.5014 1.1853z"/>
   <path d="m132.75 151.21c0.98777 0 1.4224-0.43462 1.4224-1.4224v-4.7808c0-0.98778-0.43462-1.4224-1.4224-1.4224h-3.7931v-19.4c0-0.98778-0.43462-1.4224-1.4224-1.4224h-11.458c-0.98777 0-1.4224 0.43462-1.4224 1.4224v4.7808c0 0.98778 0.43462 1.4224 1.4224 1.4224h3.635v13.197h-4.4252c-0.98777 0-1.4224 0.43462-1.4224 1.4224v4.7808c0 0.98777 0.43462 1.4224 1.4224 1.4224z"/>
   <path d="m139.07 143.74c-0.98777 0-1.4224 0.43463-1.4224 1.4224v4.6228c0 0.98777 0.43462 1.4224 1.4224 1.4224h12.485c5.0574 0 7.6651-2.4892 7.6651-6.5588v-3.9511c0-3.477-1.2248-5.2945-4.9784-5.7291 1.7385-0.75071 2.3311-2.2521 2.3311-4.2672v-2.2916c0-3.477-2.0941-5.6501-6.4798-5.6501h-11.024c-0.98777 0-1.4224 0.43462-1.4224 1.4224v4.7018c0 0.98777 0.43462 1.4224 1.4224 1.4224h7.349c1.2644 0 1.5014 0.55316 1.5014 1.1853v0.59267c0 0.63218-0.23707 1.1853-1.5014 1.1853h-4.1487c-0.98777 0-1.4224 0.43462-1.4224 1.4224v4.2277c0 0.98778 0.43462 1.4224 1.4224 1.4224h6.7169c1.2644 0 1.5014 0.51364 1.5014 1.1458v1.0668c0 0.63218-0.23707 1.1853-1.5014 1.1853z"/>
  </g>
  <path d="m123.98 70.438c-36.689 0-66.549 29.86-66.549 66.549s29.86 66.549 66.549 66.549 66.549-29.86 66.549-66.549-29.86-66.549-66.549-66.549zm0 10.992c2.4486 0 4.8586 0.15894 7.2223 0.46405v6.9345l1.9105 0.36327c5.0854 0.96618 9.95 2.7272 14.496 5.2483v-0.0026c4.8392 2.684 9.1641 6.1498 12.856 10.299 3.9012 4.3848 6.9459 9.3584 9.0547 14.797v3e-3h3e-3c2.1873 5.6347 3.2949 11.573 3.2949 17.678 0 5.5952-0.93308 11.053-2.7673 16.256l-0.64648 1.8355 5.7707 3.3512c-1.8958 4.4884-4.3659 8.6714-7.3153 12.462l-5.7371-3.3285-1.2754 1.4609c-4.1513 4.7649-9.2848 8.7781-14.875 11.606l-3e-3 3e-3c-3.347 1.6964-6.8913 3.0015-10.53 3.8752-3.7478 0.90103-7.6222 1.3648-11.514 1.3648-3.8867 0-7.7604-0.45892-11.498-1.3591h-3e-3c-3.6376-0.87357-7.1754-2.1777-10.525-3.869-5.5844-2.8216-10.718-6.8222-14.861-11.578l-1.2738-1.463-5.6632 3.2887c-2.9497-3.7906-5.4189-7.9735-7.3147-12.462l5.6927-3.3042-0.65267-1.8376c-1.847-5.2148-2.7848-10.693-2.7848-16.301 0-6.1125 1.107-12.057 3.3006-17.698h0.0026v-3e-3c2.1154-5.4518 5.165-10.426 9.08-14.818 3.7042-4.155 8.0354-7.6117 12.889-10.297 4.5516-2.5142 9.4298-4.2667 14.529-5.2266l1.9141-0.36174v-6.9169c2.3637-0.30512 4.7743-0.46405 7.2229-0.46405zm-11.922 1.2795v2.3652c-4.885 1.1089-9.6126 2.7789-14.016 5.211l-0.0026 0.0026c-5.3135 2.9392-10.069 6.7332-14.123 11.281-4.2817 4.8036-7.6352 10.272-9.9534 16.246-2.4039 6.1821-3.623 12.717-3.623 19.399 0 5.4614 0.94575 10.797 2.5549 15.945l-1.7689 1.0268c-1.753-5.413-2.7037-11.192-2.7037-17.199 0-26.654 18.643-48.84 43.635-54.277zm23.844 0c24.992 5.4374 43.635 27.624 43.635 54.277 0 6.0075-0.95046 11.787-2.7037 17.2l-1.8547-1.0769c1.597-5.133 2.5368-10.449 2.5368-15.896 0-6.675-1.2167-13.203-3.6132-19.377v-3e-3c-2.3111-5.9597-5.6577-11.426-9.9255-16.223-4.0402-4.5407-8.7872-8.3429-14.088-11.283-4.3966-2.4383-9.1124-4.1147-13.986-5.2302zm27.045 90.992 1.818 1.0552c-10.138 10.946-24.641 17.787-40.785 17.787-16.143 0-30.647-6.841-40.785-17.787l1.6578-0.96327c4.293 4.5778 9.3641 8.4585 14.928 11.27v3e-3c3.6694 1.8526 7.5475 3.2841 11.545 4.2442 4.1034 0.98827 8.3444 1.4883 12.6 1.4883 4.2645 0 8.5042-0.50866 12.611-1.496 3.9969-0.95983 7.8823-2.3908 11.555-4.2519 5.5644-2.8146 10.562-6.7715 14.855-11.348z" color="#000000" color-rendering="auto" dominant-baseline="auto" image-rendering="auto" shape-rendering="auto" solid-color="#000000" style="font-feature-settings:normal;font-variant-alternates:normal;font-variant-caps:normal;font-variant-ligatures:normal;font-variant-numeric:normal;font-variant-position:normal;isolation:auto;mix-blend-mode:normal;paint-order:markers stroke fill;shape-padding:0;text-decoration-color:#000000;text-decoration-line:none;text-decoration-style:solid;text-indent:0;text-orientation:mixed;text-transform:none;white-space:normal"/>
 </g>
</svg>
