<?xml version="1.0" encoding="UTF-8"?>
<!-- Created with Inkscape (http://www.inkscape.org/) -->
<svg width="133.1mm" height="133.1mm" version="1.1" viewBox="0 0 133.1 133.1" xmlns="http://www.w3.org/2000/svg" xmlns:cc="http://creativecommons.org/ns#" xmlns:dc="http://purl.org/dc/elements/1.1/" xmlns:rdf="http://www.w3.org/1999/02/22-rdf-syntax-ns#">
 <defs>
  <clipPath id="clipPath7332">
   <circle cx="124.01" cy="137.27" r="49.771" fill="#fff" fill-rule="evenodd" opacity=".99" stroke="#000" stroke-width=".45718"/>
  </clipPath>
 </defs>
 <metadata>
  <rdf:RDF>
   <cc:Work rdf:about="">
    <dc:format>image/svg+xml</dc:format>
    <dc:type rdf:resource="http://purl.org/dc/dcmitype/StillImage"/>
   </cc:Work>
  </rdf:RDF>
 </metadata>
 <g transform="translate(-57.427 -70.189)">
  <g fill="#825afb" fill-rule="evenodd">
   <rect x="79.307" y="158.2" width="7.1927" height="12.996" fill-opacity=".99216" opacity=".99"/>
   <rect x="162.87" y="158.49" width="5.97" height="12.996" fill-opacity=".99216" opacity=".99"/>
   <rect x="79.305" y="136.92" width="89.53" height="49.81" clip-path="url(#clipPath7332)" opacity=".99"/>
  </g>
  <g>
   <path d="m123.98 70.189c-36.689 0-66.549 29.86-66.549 66.549s29.86 66.549 66.549 66.549c36.689 0 66.549-29.86 66.549-66.549s-29.86-66.549-66.549-66.549zm0 10.992c2.4486 0 4.8586 0.15894 7.2223 0.46405v6.9345l1.9105 0.36327c5.0854 0.96618 9.95 2.7272 14.496 5.2483v-0.0026c4.8392 2.684 9.1641 6.1498 12.856 10.299 3.9012 4.3848 6.9459 9.3584 9.0547 14.797v3e-3h3e-3c2.1873 5.6347 3.2949 11.573 3.2949 17.678 0 5.5952-0.93308 11.053-2.7673 16.256l-0.64648 1.8355 5.7707 3.3512c-1.8958 4.4884-4.3659 8.6714-7.3153 12.462l-5.7371-3.3285-1.2754 1.4609c-4.1513 4.7649-9.2848 8.7781-14.875 11.606l-3e-3 3e-3c-3.347 1.6964-6.8913 3.0015-10.53 3.8752-3.7478 0.90103-7.6222 1.3648-11.514 1.3648-3.8867 0-7.7604-0.45892-11.498-1.3591h-3e-3c-3.6376-0.87357-7.1754-2.1777-10.525-3.869-5.5844-2.8216-10.718-6.8222-14.861-11.578l-1.2738-1.463-5.6632 3.2887c-2.9497-3.7906-5.4189-7.9735-7.3147-12.462l5.6927-3.3042-0.65267-1.8376c-1.847-5.2148-2.7848-10.693-2.7848-16.301 0-6.1125 1.107-12.057 3.3006-17.698h0.0026v-3e-3c2.1154-5.4518 5.165-10.426 9.08-14.818 3.7042-4.155 8.0354-7.6117 12.889-10.297 4.5516-2.5142 9.4298-4.2667 14.529-5.2266l1.9141-0.36174v-6.9169c2.3637-0.30512 4.7743-0.46405 7.2229-0.46405zm-11.922 1.2795v2.3652c-4.885 1.1089-9.6126 2.7789-14.016 5.211l-0.0026 0.0026c-5.3135 2.9392-10.069 6.7332-14.123 11.281-4.2817 4.8036-7.6352 10.272-9.9534 16.246-2.4039 6.1821-3.623 12.717-3.623 19.399 0 5.4614 0.94575 10.797 2.5549 15.945l-1.7689 1.0268c-1.753-5.413-2.7037-11.192-2.7037-17.199 0-26.654 18.643-48.84 43.635-54.277zm23.844 0c24.992 5.4374 43.635 27.624 43.635 54.277 0 6.0075-0.95046 11.787-2.7037 17.2l-1.8547-1.0769c1.597-5.133 2.5368-10.449 2.5368-15.896 0-6.675-1.2167-13.203-3.6132-19.377v-3e-3c-2.3111-5.9597-5.6577-11.426-9.9255-16.223-4.0402-4.5407-8.7872-8.3429-14.088-11.283-4.3966-2.4383-9.1124-4.1147-13.986-5.2302zm27.045 90.992 1.818 1.0552c-10.138 10.946-24.641 17.787-40.785 17.787-16.143 0-30.647-6.841-40.785-17.787l1.6578-0.96327c4.293 4.5778 9.3641 8.4585 14.928 11.27v3e-3c3.6694 1.8526 7.5475 3.2841 11.545 4.2442 4.1034 0.98827 8.3444 1.4883 12.6 1.4883 4.2645 0 8.5042-0.50866 12.611-1.496 3.9969-0.95983 7.8823-2.3908 11.555-4.2519 5.5644-2.8146 10.562-6.7715 14.855-11.348z" color="#000000" color-rendering="auto" dominant-baseline="auto" image-rendering="auto" shape-rendering="auto" solid-color="#000000" style="font-feature-settings:normal;font-variant-alternates:normal;font-variant-caps:normal;font-variant-ligatures:normal;font-variant-numeric:normal;font-variant-position:normal;isolation:auto;mix-blend-mode:normal;paint-order:markers stroke fill;shape-padding:0;text-decoration-color:#000000;text-decoration-line:none;text-decoration-style:solid;text-indent:0;text-orientation:mixed;text-transform:none;white-space:normal"/>
   <ellipse cx="130.94" cy="135.67" rx=".18899" ry=".66146" stroke-width=".26458"/>
   <rect transform="rotate(-45)" x="-40.927" y="152.7" width="63.592" height="63.592" fill-rule="evenodd" opacity=".99"/>
  </g>
  <rect transform="rotate(-45)" x="-36.167" y="157.46" width="54.073" height="54.073" fill="#fff" fill-rule="evenodd" opacity=".99"/>
  <circle cx="123.98" cy="136.74" r="27.025" fill="#8159f9" stroke-width=".28882"/>
  <g stroke="#fff" aria-label="17">
   <path d="m120.58 150.96c0.98778 0 1.4224-0.43462 1.4224-1.4224v-4.7808c0-0.98777-0.43462-1.4224-1.4224-1.4224h-3.7931v-19.4c0-0.98777-0.43463-1.4224-1.4224-1.4224h-11.458c-0.98778 0-1.4224 0.43463-1.4224 1.4224v4.7808c0 0.98777 0.43462 1.4224 1.4224 1.4224h3.635v13.197h-4.4252c-0.98777 0-1.4224 0.43463-1.4224 1.4224v4.7808c0 0.98778 0.43462 1.4224 1.4224 1.4224z"/>
   <path d="m144.84 122.51h-18.373c-0.98778 0-1.4224 0.43463-1.4224 1.4224v4.7808c0 0.98777 0.43462 1.4224 1.4224 1.4224h10.826v3.556l-3.2004 0.86924c-4.2277 1.2644-6.1637 2.8053-6.1637 7.8232v7.1515c0 0.98778 0.43462 1.4224 1.4224 1.4224h6.4008c0.98777 0 1.4224-0.43462 1.4224-1.4224v-6.9144l2.9238-0.86924c4.2277-1.2644 6.1637-2.8053 6.1637-7.8232v-9.9963c0-0.98777-0.43462-1.4224-1.4224-1.4224z"/>
  </g>
  <g fill="#fff" fill-opacity=".99216" fill-rule="evenodd">
   <path transform="matrix(.26458 0 0 .26458 57.427 70.189)" d="m50.568 310.4c-6.0691-21.148-8.0889-36.037-8.0558-59.381 0.02959-20.86 1.6469-34.015 6.4058-52.105 19.186-72.933 75.707-130.14 147.59-149.37l9.0634-2.4255v3.9485c0 3.4927-0.3207 4.0158-2.7779 4.5316-1.5278 0.32071-9.1419 2.6153-16.92 5.0991-57.243 18.279-105.33 65.43-125.76 123.3-7.9454 22.511-11.355 42.868-11.396 68.036-0.03146 19.527 1.5057 31.934 6.1513 49.65l2.8213 10.759-5.5858 3.2996z"/>
   <path transform="matrix(.26458 0 0 .26458 57.427 70.189)" d="m75.91 365.6c-5.3859-8.3144-16.817-29.663-16.816-31.406 1.46e-4 -0.46132 4.2049-3.2226 9.3439-6.1362s9.934-5.6815 10.656-6.151c1.0471-0.68129 0.87831-1.9539-0.83639-6.3041-3.4647-8.7899-7.9115-27.359-9.5559-39.903-12.412-94.681 51.382-184.13 145.2-203.58l10.859-2.2521v-25.826l3.7881-0.7884c4.9209-1.0242 41.041-1.0242 45.962 0l3.7881 0.7884v25.896l8.8388 1.739c22.748 4.4756 51.894 17.016 70.458 30.315 25.003 17.911 45.775 42.426 59.094 69.743 21.299 43.68 24.561 91.456 9.4399 138.23-2.6981 8.3461-3.2642 11.223-2.3224 11.805 0.68487 0.42327 5.4939 3.2037 10.687 6.1787s9.4478 5.7866 9.4556 6.2479c0.0281 1.6734-11.191 22.605-16.607 30.981l-5.5507 8.5863-0.0261-61.116-0.026-61.116-84.603-84.598c-46.531-46.529-85.057-84.598-85.613-84.598-0.5556 0-38.872 37.864-85.149 84.143l-84.138 84.143 0.06754 61.824c0.03714 34.003-0.12308 61.824-0.35606 61.824s-2.9499-3.8999-6.0376-8.6664z"/>
   <path transform="matrix(.26458 0 0 .26458 57.427 70.189)" d="m447.97 313.98c-1.3688-0.92352-2.5697-1.7215-2.6688-1.7732-0.099-0.0517 0.9037-4.2666 2.2283-9.3664 4.2438-16.339 5.6818-26.658 6.2481-44.834 0.81689-26.221-2.0261-46.262-9.938-70.057-21.691-65.236-75.562-115.26-142.05-131.9-4.1307-1.0339-4.2931-1.2232-4.2931-5.0034v-3.9288l9.0634 2.4255c41.689 11.157 81.459 37.157 108.09 70.665 41.875 52.692 56.051 119.23 39.344 184.66-2.7977 10.958-2.9486 11.186-6.0194 9.1141z"/>
   <path transform="matrix(.26458 0 0 .26458 57.427 70.189)" d="m231.32 460.03c-46.508-4.7998-86.333-22.82-122.62-55.481l-10.49-9.4429 2.2808-1.8469c2.2749-1.8421 2.3047-1.8251 11.5 6.5723 41.097 37.53 85.961 55.252 139.83 55.236 52.527-0.0154 98.061-18.102 137.85-54.757l9.8656-9.0883 5.4611 3.5783-8.0504 7.5028c-36.413 33.936-77.967 52.902-126.6 57.781-11.883 1.1921-27.171 1.1713-39.036-0.0532z"/>
  </g>
 </g>
</svg>
